<svg xmlns="http://www.w3.org/2000/svg" width="1101" height="1500"><circle cx="935" cy="749" r="93" fill="rgb(255, 255, 0)" /><polygon points="947,1366 248,960 15,485 172,450 474,1337 995,1420" fill="rgb(0, 0, 255)" /><circle cx="428" cy="262" r="59" fill="rgb(255, 0, 0)" /><circle cx="540" cy="112" r="43" fill="rgb(0, 0, 255)" /><polygon points="631,928 814,167 182,682 932,1212" fill="rgb(255, 0, 0)" /><rect x="200" y="130" width="113" height="144" fill="rgb(0, 0, 0)" /><rect x="70" y="1028" width="108" height="130" fill="rgb(0, 0, 255)" /><circle cx="989" cy="219" r="100" fill="rgb(0, 0, 0)" /><rect x="321" y="490" width="59" height="140" fill="rgb(255, 255, 0)" /><rect x="1004" y="535" width="77" height="172" fill="rgb(0, 0, 255)" /><circle cx="333" cy="307" r="50" fill="rgb(255, 0, 0)" /><polygon points="1035,141 149,913 649,1453 492,1044" fill="rgb(255, 255, 0)" /><polygon points="695,568 542,358 777,727 736,1102 725,1266" fill="rgb(0, 0, 0)" /><circle cx="873" cy="808" r="63" fill="rgb(0, 0, 255)" /><rect x="978" y="962" width="189" height="151" fill="rgb(0, 0, 255)" /><rect x="718" y="1073" width="87" height="68" fill="rgb(255, 255, 0)" /><polygon points="1064,1172 808,33 606,1286 918,489 1039,1406" fill="rgb(0, 0, 255)" /><circle cx="222" cy="799" r="83" fill="rgb(255, 0, 0)" /><polygon points="341,551 501,338 209,1401 756,489 555,134" fill="rgb(255, 255, 0)" /><polygon points="419,2 675,422 277,667" fill="rgb(255, 0, 0)" /><circle cx="944" cy="1391" r="35" fill="rgb(255, 0, 0)" /><rect x="134" y="1429" width="95" height="172" fill="rgb(255, 255, 0)" /><circle cx="109" cy="321" r="65" fill="rgb(255, 0, 0)" /><polygon points="256,81 258,133 330,536 28,244 921,1150" fill="rgb(255, 0, 0)" /><circle cx="901" cy="1361" r="97" fill="rgb(0, 0, 0)" /><circle cx="713" cy="624" r="56" fill="rgb(255, 255, 0)" /><polygon points="832,1075 112,103 260,1016 940,1271 719,1318 905,359" fill="rgb(255, 0, 0)" /><rect x="622" y="118" width="140" height="78" fill="rgb(0, 0, 255)" /><rect x="1020" y="972" width="195" height="173" fill="rgb(0, 0, 255)" /><rect x="700" y="1116" width="144" height="114" fill="rgb(0, 0, 0)" /><polygon points="491,25 555,813 975,1257 96,4" fill="rgb(0, 0, 0)" /><polygon points="571,454 383,335 1094,98 245,1425" fill="rgb(0, 0, 255)" /><rect x="814" y="618" width="152" height="171" fill="rgb(0, 0, 0)" /><polygon points="704,1257 588,1491 563,1439" fill="rgb(0, 0, 255)" /><polygon points="959,1035 503,43 862,1402" fill="rgb(255, 255, 0)" /><circle cx="488" cy="790" r="92" fill="rgb(0, 0, 255)" /><circle cx="1076" cy="731" r="36" fill="rgb(0, 0, 0)" /><circle cx="572" cy="759" r="94" fill="rgb(0, 0, 0)" /><circle cx="908" cy="987" r="65" fill="rgb(0, 0, 0)" /><polygon points="594,1252 1020,324 911,546 411,274 199,101" fill="rgb(255, 0, 0)" /><circle cx="251" cy="1206" r="61" fill="rgb(255, 0, 0)" /><polygon points="261,306 726,1221 1065,86" fill="rgb(255, 0, 0)" /><circle cx="239" cy="370" r="60" fill="rgb(0, 0, 255)" /><circle cx="1035" cy="888" r="32" fill="rgb(0, 0, 255)" /><rect x="1062" y="874" width="200" height="75" fill="rgb(255, 255, 0)" /><rect x="406" y="1385" width="184" height="62" fill="rgb(255, 255, 0)" /><polygon points="1047,515 799,104 911,1284" fill="rgb(255, 255, 0)" /><rect x="510" y="317" width="88" height="97" fill="rgb(255, 0, 0)" /><rect x="103" y="1478" width="73" height="137" fill="rgb(255, 255, 0)" /><circle cx="545" cy="933" r="89" fill="rgb(255, 255, 0)" /><rect x="338" y="327" width="96" height="181" fill="rgb(0, 0, 0)" /><circle cx="278" cy="82" r="84" fill="rgb(0, 0, 255)" /><circle cx="490" cy="465" r="41" fill="rgb(0, 0, 255)" /><polygon points="285,106 283,376 615,365 736,1424 105,1289 441,405" fill="rgb(0, 0, 255)" /><circle cx="1087" cy="999" r="56" fill="rgb(255, 0, 0)" /><circle cx="182" cy="1361" r="55" fill="rgb(255, 0, 0)" /></svg>