<svg xmlns="http://www.w3.org/2000/svg" width="1101" height="1500"><rect x="28" y="610" width="189" height="98" fill="rgb(0, 0, 0)" /><circle cx="872" cy="1087" r="35" fill="rgb(255, 255, 0)" /><circle cx="681" cy="1119" r="50" fill="rgb(0, 0, 0)" /><rect x="1014" y="747" width="118" height="114" fill="rgb(255, 255, 0)" /><rect x="887" y="1486" width="105" height="56" fill="rgb(0, 0, 0)" /><polygon points="162,729 624,238 339,173 464,1464 335,796" fill="rgb(0, 0, 0)" /><polygon points="47,204 232,501 591,251 441,820 1017,175" fill="rgb(0, 0, 0)" /><circle cx="736" cy="577" r="36" fill="rgb(255, 255, 0)" /><rect x="891" y="398" width="123" height="74" fill="rgb(255, 255, 0)" /><rect x="791" y="274" width="173" height="80" fill="rgb(0, 0, 0)" /><rect x="682" y="23" width="74" height="173" fill="rgb(255, 0, 0)" /><rect x="1063" y="1250" width="68" height="98" fill="rgb(255, 0, 0)" /><polygon points="841,886 760,809 528,622 1007,313 580,436 797,1462" fill="rgb(0, 0, 0)" /><polygon points="502,205 842,444 129,453" fill="rgb(255, 255, 0)" /><polygon points="643,785 99,36 464,28 518,573 555,681" fill="rgb(0, 0, 255)" /><rect x="675" y="1349" width="95" height="178" fill="rgb(0, 0, 0)" /><polygon points="197,1486 239,949 759,1336 587,179 707,321" fill="rgb(0, 0, 255)" /><rect x="72" y="1350" width="167" height="194" fill="rgb(255, 255, 0)" /><circle cx="405" cy="191" r="55" fill="rgb(0, 0, 255)" /><circle cx="121" cy="1326" r="71" fill="rgb(0, 0, 0)" /><rect x="476" y="326" width="137" height="137" fill="rgb(255, 255, 0)" /><polygon points="697,159 241,144 224,457 775,1085 509,1094" fill="rgb(255, 0, 0)" /><polygon points="900,205 650,506 929,691 283,841" fill="rgb(0, 0, 255)" /><circle cx="127" cy="1268" r="64" fill="rgb(0, 0, 255)" /><polygon points="101,18 623,567 102,508" fill="rgb(0, 0, 0)" /><circle cx="12" cy="828" r="73" fill="rgb(255, 0, 0)" /><circle cx="564" cy="1154" r="58" fill="rgb(0, 0, 0)" /><circle cx="485" cy="235" r="28" fill="rgb(255, 0, 0)" /><polygon points="335,408 993,859 966,726" fill="rgb(255, 255, 0)" /><polygon points="397,402 96,931 328,910" fill="rgb(0, 0, 255)" /><circle cx="447" cy="237" r="93" fill="rgb(255, 255, 0)" /><circle cx="915" cy="437" r="32" fill="rgb(0, 0, 255)" /><rect x="451" y="806" width="189" height="125" fill="rgb(0, 0, 0)" /><circle cx="391" cy="944" r="53" fill="rgb(0, 0, 255)" /><polygon points="106,542 899,1174 987,323 147,1293" fill="rgb(0, 0, 255)" /><polygon points="569,35 95,930 559,1495 1077,101 99,544" fill="rgb(0, 0, 0)" /><rect x="629" y="1232" width="180" height="164" fill="rgb(0, 0, 255)" /><rect x="599" y="1231" width="76" height="177" fill="rgb(0, 0, 0)" /><circle cx="832" cy="1255" r="99" fill="rgb(255, 0, 0)" /><circle cx="805" cy="1330" r="36" fill="rgb(255, 255, 0)" /><rect x="839" y="513" width="147" height="117" fill="rgb(255, 255, 0)" /><circle cx="741" cy="32" r="90" fill="rgb(255, 255, 0)" /><rect x="436" y="1346" width="166" height="146" fill="rgb(255, 0, 0)" /><circle cx="686" cy="1410" r="62" fill="rgb(0, 0, 255)" /><circle cx="783" cy="6" r="31" fill="rgb(0, 0, 255)" /><polygon points="1073,217 180,802 934,1469 640,698 671,564 237,1000" fill="rgb(255, 255, 0)" /><circle cx="1084" cy="1072" r="50" fill="rgb(255, 255, 0)" /><polygon points="156,333 1046,1408 110,837 788,407 159,1081 419,536" fill="rgb(0, 0, 255)" /><polygon points="598,218 1085,685 686,1380 776,431 734,1112 573,1210" fill="rgb(255, 255, 0)" /><circle cx="183" cy="225" r="20" fill="rgb(255, 255, 0)" /><polygon points="688,1491 145,268 440,170 598,1135 407,902 233,762" fill="rgb(255, 0, 0)" /><polygon points="470,1007 122,1153 640,119 911,536" fill="rgb(255, 0, 0)" /><rect x="394" y="1201" width="58" height="133" fill="rgb(0, 0, 255)" /><rect x="309" y="164" width="122" height="105" fill="rgb(0, 0, 0)" /><polygon points="679,911 897,1162 337,390 327,1480" fill="rgb(0, 0, 0)" /><polygon points="857,613 544,136 918,888 909,309" fill="rgb(255, 0, 0)" /><circle cx="346" cy="297" r="81" fill="rgb(0, 0, 0)" /><rect x="825" y="1272" width="56" height="140" fill="rgb(255, 255, 0)" /><rect x="139" y="320" width="52" height="119" fill="rgb(0, 0, 0)" /><circle cx="573" cy="1496" r="66" fill="rgb(255, 0, 0)" /><rect x="933" y="742" width="122" height="192" fill="rgb(0, 0, 0)" /><circle cx="1004" cy="583" r="36" fill="rgb(255, 255, 0)" /><circle cx="888" cy="679" r="25" fill="rgb(255, 255, 0)" /><rect x="667" y="1387" width="182" height="137" fill="rgb(255, 255, 0)" /><rect x="348" y="1241" width="140" height="115" fill="rgb(0, 0, 255)" /><circle cx="983" cy="64" r="83" fill="rgb(255, 0, 0)" /><polygon points="62,1090 127,1006 290,635 374,324" fill="rgb(255, 255, 0)" /><rect x="773" y="1032" width="162" height="61" fill="rgb(0, 0, 0)" /><circle cx="526" cy="1347" r="51" fill="rgb(255, 0, 0)" /><circle cx="909" cy="1261" r="73" fill="rgb(255, 255, 0)" /><rect x="819" y="636" width="166" height="87" fill="rgb(255, 255, 0)" /><polygon points="209,212 409,505 1088,1092" fill="rgb(255, 255, 0)" /><rect x="1039" y="732" width="68" height="67" fill="rgb(0, 0, 0)" /><polygon points="421,555 366,806 206,527 787,553" fill="rgb(255, 0, 0)" /><polygon points="620,913 471,324 508,757 512,615" fill="rgb(255, 0, 0)" /><circle cx="450" cy="174" r="41" fill="rgb(255, 255, 0)" /><polygon points="539,1219 817,777 410,265" fill="rgb(0, 0, 0)" /><polygon points="370,968 234,1311 462,1312 365,1471" fill="rgb(255, 255, 0)" /><polygon points="337,263 1052,1181 169,73 753,882 709,1480 120,1078" fill="rgb(255, 255, 0)" /><rect x="131" y="544" width="62" height="120" fill="rgb(0, 0, 255)" /><rect x="278" y="1399" width="185" height="178" fill="rgb(255, 255, 0)" /><rect x="278" y="959" width="174" height="196" fill="rgb(255, 0, 0)" /><polygon points="80,121 361,782 679,1248 971,1476 1002,349" fill="rgb(255, 0, 0)" /><circle cx="1003" cy="43" r="77" fill="rgb(255, 255, 0)" /><polygon points="953,859 854,1099 938,563" fill="rgb(0, 0, 0)" /><circle cx="3" cy="1263" r="77" fill="rgb(0, 0, 0)" /><circle cx="462" cy="714" r="70" fill="rgb(255, 0, 0)" /><polygon points="943,592 759,757 292,324 634,322 1085,1288 384,932" fill="rgb(255, 0, 0)" /><circle cx="990" cy="913" r="92" fill="rgb(255, 255, 0)" /><circle cx="869" cy="186" r="62" fill="rgb(0, 0, 0)" /><rect x="421" y="555" width="151" height="106" fill="rgb(255, 0, 0)" /><rect x="606" y="27" width="167" height="113" fill="rgb(255, 0, 0)" /><polygon points="491,556 484,498 9,315 66,234 90,1402" fill="rgb(0, 0, 255)" /><rect x="840" y="437" width="139" height="69" fill="rgb(0, 0, 0)" /><polygon points="976,973 968,1378 31,1018" fill="rgb(255, 0, 0)" /><rect x="430" y="82" width="187" height="189" fill="rgb(0, 0, 0)" /><circle cx="905" cy="8" r="81" fill="rgb(255, 0, 0)" /><rect x="1040" y="888" width="135" height="172" fill="rgb(0, 0, 255)" /><rect x="26" y="575" width="160" height="145" fill="rgb(255, 255, 0)" /><polygon points="348,1384 974,1347 252,56 464,398 142,1358 895,244" fill="rgb(255, 0, 0)" /><rect x="794" y="680" width="138" height="86" fill="rgb(255, 0, 0)" /><rect x="107" y="1475" width="179" height="194" fill="rgb(255, 0, 0)" /><rect x="200" y="92" width="81" height="158" fill="rgb(0, 0, 255)" /><polygon points="644,1213 470,768 683,903" fill="rgb(255, 255, 0)" /><rect x="896" y="877" width="98" height="175" fill="rgb(255, 0, 0)" /><circle cx="935" cy="976" r="48" fill="rgb(0, 0, 255)" /><circle cx="730" cy="411" r="97" fill="rgb(255, 255, 0)" /><rect x="962" y="963" width="188" height="200" fill="rgb(255, 255, 0)" /><circle cx="302" cy="955" r="51" fill="rgb(0, 0, 0)" /><polygon points="417,840 537,338 451,99" fill="rgb(0, 0, 255)" /><circle cx="1074" cy="1123" r="85" fill="rgb(255, 0, 0)" /><polygon points="698,698 673,1336 239,1441" fill="rgb(255, 255, 0)" /><polygon points="302,1382 339,636 800,1104 791,1307" fill="rgb(255, 0, 0)" /><polygon points="312,467 483,245 485,459 397,1267" fill="rgb(255, 255, 0)" /><circle cx="416" cy="360" r="25" fill="rgb(0, 0, 255)" /><rect x="262" y="140" width="73" height="174" fill="rgb(0, 0, 0)" /><polygon points="700,1236 385,1000 80,136 783,547 520,1462" fill="rgb(0, 0, 0)" /><circle cx="217" cy="910" r="47" fill="rgb(255, 255, 0)" /></svg>