<svg xmlns="http://www.w3.org/2000/svg" width="1101" height="1500"><polygon points="152,1446 988,865 739,398 504,1071 246,65" fill="rgb(0, 0, 0)" /><circle cx="1041" cy="92" r="78" fill="rgb(0, 0, 0)" /><rect x="137" y="1006" width="70" height="169" fill="rgb(0, 0, 255)" /><polygon points="444,22 358,519 898,142 86,314" fill="rgb(255, 255, 0)" /><polygon points="1005,1295 911,1060 156,564 571,944 380,1447 236,1158" fill="rgb(0, 0, 255)" /><polygon points="368,1382 1064,150 755,1024 348,1154 178,1397 61,382" fill="rgb(0, 0, 255)" /><rect x="259" y="1488" width="112" height="61" fill="rgb(0, 0, 255)" /><circle cx="834" cy="1335" r="41" fill="rgb(0, 0, 255)" /><circle cx="6" cy="741" r="22" fill="rgb(255, 0, 0)" /><rect x="229" y="593" width="105" height="96" fill="rgb(0, 0, 0)" /><rect x="990" y="298" width="196" height="84" fill="rgb(255, 255, 0)" /><circle cx="1033" cy="1029" r="29" fill="rgb(0, 0, 255)" /><polygon points="654,415 920,111 1052,1077 684,1321 124,421 29,1258" fill="rgb(255, 255, 0)" /><circle cx="621" cy="730" r="60" fill="rgb(255, 0, 0)" /><rect x="18" y="1419" width="128" height="150" fill="rgb(0, 0, 0)" /><rect x="725" y="197" width="73" height="63" fill="rgb(0, 0, 255)" /><circle cx="733" cy="1218" r="25" fill="rgb(255, 255, 0)" /><polygon points="417,546 925,1249 1002,734 757,332 105,764" fill="rgb(255, 0, 0)" /><circle cx="550" cy="956" r="96" fill="rgb(0, 0, 255)" /><polygon points="384,973 823,1301 46,666" fill="rgb(255, 255, 0)" /><circle cx="1094" cy="409" r="47" fill="rgb(255, 255, 0)" /><rect x="509" y="1306" width="198" height="178" fill="rgb(255, 255, 0)" /><rect x="369" y="823" width="76" height="58" fill="rgb(255, 0, 0)" /><rect x="771" y="865" width="107" height="160" fill="rgb(255, 0, 0)" /><rect x="555" y="976" width="56" height="104" fill="rgb(0, 0, 255)" /><polygon points="389,168 442,991 628,818 883,1466 835,103 704,1212" fill="rgb(255, 0, 0)" /><rect x="621" y="642" width="103" height="81" fill="rgb(255, 0, 0)" /><rect x="12" y="941" width="157" height="186" fill="rgb(255, 255, 0)" /><rect x="857" y="611" width="97" height="181" fill="rgb(255, 255, 0)" /><circle cx="367" cy="738" r="91" fill="rgb(0, 0, 255)" /><circle cx="365" cy="1175" r="94" fill="rgb(255, 255, 0)" /><rect x="90" y="427" width="141" height="80" fill="rgb(255, 0, 0)" /><rect x="1094" y="48" width="59" height="190" fill="rgb(0, 0, 0)" /><circle cx="903" cy="461" r="39" fill="rgb(255, 0, 0)" /><polygon points="85,521 206,18 479,725 250,254 691,124" fill="rgb(0, 0, 255)" /><circle cx="198" cy="1386" r="31" fill="rgb(0, 0, 0)" /><circle cx="401" cy="246" r="29" fill="rgb(255, 0, 0)" /><rect x="844" y="1209" width="110" height="74" fill="rgb(255, 255, 0)" /><polygon points="1080,650 707,172 1028,1152" fill="rgb(255, 255, 0)" /><polygon points="383,401 299,1251 322,1216 898,186 731,1446" fill="rgb(255, 0, 0)" /><rect x="182" y="1363" width="67" height="123" fill="rgb(0, 0, 0)" /><circle cx="100" cy="1115" r="94" fill="rgb(0, 0, 0)" /><circle cx="136" cy="127" r="70" fill="rgb(0, 0, 255)" /><polygon points="1038,332 613,221 396,658" fill="rgb(255, 255, 0)" /><polygon points="101,122 365,861 447,241 999,1331" fill="rgb(0, 0, 255)" /><circle cx="912" cy="836" r="35" fill="rgb(255, 255, 0)" /></svg>