<svg xmlns="http://www.w3.org/2000/svg" width="1101" height="1500"><rect x="32" y="133" width="172" height="73" fill="rgb(0, 0, 0)" /><rect x="208" y="1437" width="93" height="132" fill="rgb(0, 0, 0)" /><circle cx="721" cy="481" r="97" fill="rgb(0, 0, 255)" /><circle cx="1087" cy="1325" r="97" fill="rgb(0, 0, 255)" /><rect x="1043" y="60" width="163" height="137" fill="rgb(255, 255, 0)" /><polygon points="336,225 306,1345 386,802 228,761" fill="rgb(255, 0, 0)" /><rect x="573" y="1469" width="168" height="140" fill="rgb(0, 0, 0)" /><circle cx="623" cy="1202" r="53" fill="rgb(255, 0, 0)" /><rect x="1059" y="1000" width="180" height="137" fill="rgb(0, 0, 0)" /><polygon points="953,423 221,326 564,375 740,658 131,1260 210,121" fill="rgb(0, 0, 0)" /><polygon points="21,45 661,939 185,737 248,110 866,1104 323,1492" fill="rgb(0, 0, 255)" /><rect x="479" y="1031" width="82" height="174" fill="rgb(0, 0, 0)" /><rect x="86" y="1420" width="121" height="92" fill="rgb(0, 0, 255)" /><rect x="301" y="1487" width="189" height="194" fill="rgb(255, 255, 0)" /><rect x="1057" y="49" width="151" height="112" fill="rgb(255, 0, 0)" /><circle cx="874" cy="1111" r="94" fill="rgb(255, 0, 0)" /><rect x="759" y="1160" width="150" height="87" fill="rgb(255, 255, 0)" /><rect x="1059" y="592" width="167" height="146" fill="rgb(0, 0, 0)" /><rect x="798" y="794" width="169" height="199" fill="rgb(0, 0, 255)" /><circle cx="33" cy="706" r="55" fill="rgb(255, 0, 0)" /><circle cx="967" cy="418" r="45" fill="rgb(255, 255, 0)" /><rect x="573" y="605" width="52" height="100" fill="rgb(0, 0, 0)" /><rect x="344" y="70" width="138" height="144" fill="rgb(0, 0, 0)" /><rect x="848" y="1152" width="118" height="63" fill="rgb(255, 255, 0)" /><rect x="958" y="0" width="126" height="185" fill="rgb(255, 255, 0)" /><circle cx="910" cy="251" r="52" fill="rgb(0, 0, 255)" /><polygon points="571,345 654,665 941,739 789,1437 712,1489" fill="rgb(0, 0, 0)" /><polygon points="693,1012 1091,353 1062,1227 664,865" fill="rgb(0, 0, 0)" /><polygon points="982,323 527,978 921,1449 626,1104" fill="rgb(255, 255, 0)" /><circle cx="43" cy="200" r="74" fill="rgb(0, 0, 0)" /><rect x="14" y="1252" width="114" height="50" fill="rgb(255, 255, 0)" /><circle cx="737" cy="774" r="42" fill="rgb(0, 0, 0)" /><rect x="1090" y="1004" width="148" height="112" fill="rgb(255, 255, 0)" /><circle cx="421" cy="1238" r="20" fill="rgb(255, 0, 0)" /><circle cx="274" cy="825" r="92" fill="rgb(255, 255, 0)" /><circle cx="775" cy="1106" r="24" fill="rgb(255, 255, 0)" /><circle cx="1017" cy="1217" r="55" fill="rgb(255, 0, 0)" /><polygon points="663,986 450,36 948,196 470,355 296,114 493,1136" fill="rgb(0, 0, 255)" /><circle cx="741" cy="551" r="34" fill="rgb(255, 255, 0)" /><polygon points="562,329 38,1031 210,279 480,26 607,1329 432,787" fill="rgb(0, 0, 255)" /><rect x="712" y="1411" width="164" height="140" fill="rgb(0, 0, 0)" /><polygon points="556,1090 688,550 880,743" fill="rgb(255, 0, 0)" /><rect x="438" y="360" width="164" height="87" fill="rgb(0, 0, 0)" /><polygon points="157,260 680,721 1098,125 551,1314" fill="rgb(0, 0, 0)" /><circle cx="62" cy="421" r="93" fill="rgb(255, 255, 0)" /><rect x="622" y="1038" width="93" height="158" fill="rgb(0, 0, 255)" /><polygon points="1014,252 33,920 149,145 635,860 362,1101 95,930" fill="rgb(0, 0, 0)" /><circle cx="718" cy="1442" r="73" fill="rgb(0, 0, 0)" /><circle cx="114" cy="326" r="98" fill="rgb(255, 255, 0)" /><polygon points="227,82 998,686 58,1386" fill="rgb(255, 0, 0)" /><circle cx="646" cy="485" r="95" fill="rgb(0, 0, 0)" /><circle cx="209" cy="644" r="63" fill="rgb(0, 0, 255)" /><polygon points="333,108 525,10 976,1445" fill="rgb(0, 0, 0)" /><rect x="1065" y="705" width="112" height="51" fill="rgb(0, 0, 0)" /><polygon points="187,1105 323,490 236,647" fill="rgb(0, 0, 0)" /><polygon points="163,1169 308,749 1030,625" fill="rgb(255, 0, 0)" /><rect x="202" y="953" width="111" height="68" fill="rgb(255, 0, 0)" /><rect x="438" y="1228" width="103" height="148" fill="rgb(255, 255, 0)" /><polygon points="658,180 383,804 217,601" fill="rgb(0, 0, 255)" /><rect x="905" y="501" width="100" height="127" fill="rgb(255, 0, 0)" /><polygon points="329,107 430,827 1098,1304 498,1128 72,1247 1092,1331" fill="rgb(0, 0, 255)" /><polygon points="306,1045 334,255 856,842" fill="rgb(255, 0, 0)" /><polygon points="63,1152 1077,780 391,538" fill="rgb(0, 0, 0)" /><circle cx="364" cy="1412" r="91" fill="rgb(0, 0, 0)" /><rect x="599" y="1124" width="191" height="174" fill="rgb(255, 0, 0)" /><rect x="1033" y="329" width="61" height="123" fill="rgb(0, 0, 0)" /><polygon points="197,857 845,13 136,809 295,844" fill="rgb(0, 0, 255)" /><polygon points="666,611 268,826 358,403" fill="rgb(0, 0, 0)" /><rect x="966" y="194" width="125" height="119" fill="rgb(0, 0, 255)" /><rect x="145" y="402" width="135" height="172" fill="rgb(0, 0, 0)" /><rect x="1034" y="1413" width="192" height="180" fill="rgb(0, 0, 255)" /><polygon points="77,83 169,499 456,457 709,496 570,710 959,38" fill="rgb(255, 0, 0)" /><circle cx="149" cy="1141" r="66" fill="rgb(0, 0, 255)" /><polygon points="608,273 586,725 1082,243 659,917 291,1135" fill="rgb(0, 0, 0)" /><rect x="408" y="764" width="80" height="65" fill="rgb(0, 0, 0)" /><polygon points="818,1323 1054,782 258,755 1040,1416" fill="rgb(255, 255, 0)" /><polygon points="590,309 245,1453 681,1346 205,209" fill="rgb(255, 255, 0)" /><polygon points="1073,422 431,1306 567,1433 778,788 229,828 622,159" fill="rgb(255, 255, 0)" /><circle cx="846" cy="1298" r="33" fill="rgb(255, 255, 0)" /><rect x="304" y="1377" width="137" height="78" fill="rgb(0, 0, 255)" /><rect x="492" y="1217" width="186" height="109" fill="rgb(0, 0, 255)" /><circle cx="661" cy="518" r="63" fill="rgb(255, 0, 0)" /><circle cx="468" cy="278" r="58" fill="rgb(255, 0, 0)" /><polygon points="731,646 259,268 272,1021 547,1155 517,534" fill="rgb(255, 255, 0)" /><circle cx="811" cy="420" r="100" fill="rgb(0, 0, 255)" /><polygon points="746,547 927,715 885,416 398,355" fill="rgb(0, 0, 0)" /><circle cx="735" cy="963" r="33" fill="rgb(0, 0, 0)" /><polygon points="668,457 451,45 131,66 196,1173 288,175 456,546" fill="rgb(255, 0, 0)" /><polygon points="804,135 333,1034 512,436" fill="rgb(255, 255, 0)" /><rect x="610" y="364" width="50" height="187" fill="rgb(255, 0, 0)" /><circle cx="1062" cy="360" r="63" fill="rgb(0, 0, 0)" /><circle cx="705" cy="892" r="79" fill="rgb(0, 0, 0)" /><polygon points="560,1425 1016,1220 268,1059 57,430 544,1351" fill="rgb(255, 0, 0)" /><circle cx="936" cy="27" r="83" fill="rgb(255, 255, 0)" /><polygon points="1003,1447 931,1474 588,481 274,1171 779,529 944,409" fill="rgb(255, 0, 0)" /><polygon points="69,1290 69,118 667,346 642,677 333,313 283,1184" fill="rgb(255, 255, 0)" /><circle cx="501" cy="186" r="57" fill="rgb(0, 0, 255)" /><polygon points="1018,415 799,1330 607,771 408,2 619,1064" fill="rgb(0, 0, 255)" /><polygon points="88,1006 764,1308 633,1340 209,264 826,418 1039,774" fill="rgb(0, 0, 255)" /><rect x="160" y="826" width="113" height="146" fill="rgb(255, 255, 0)" /></svg>