<svg xmlns="http://www.w3.org/2000/svg" width="1101" height="1500"><polygon points="878,486 708,491 510,204 791,1379 623,43" fill="rgb(0, 0, 0)" /><rect x="519" y="539" width="164" height="147" fill="rgb(0, 0, 255)" /><polygon points="554,1116 353,630 622,81 505,1323" fill="rgb(0, 0, 0)" /><rect x="127" y="155" width="84" height="194" fill="rgb(255, 0, 0)" /><rect x="234" y="175" width="142" height="182" fill="rgb(255, 0, 0)" /><polygon points="82,1382 506,172 206,1145 707,1167" fill="rgb(255, 0, 0)" /><circle cx="225" cy="1303" r="38" fill="rgb(255, 0, 0)" /><polygon points="887,961 306,844 51,1077" fill="rgb(0, 0, 0)" /><rect x="830" y="141" width="71" height="108" fill="rgb(0, 0, 255)" /><circle cx="648" cy="487" r="70" fill="rgb(255, 0, 0)" /><polygon points="169,240 847,1026 43,1217" fill="rgb(255, 0, 0)" /><polygon points="864,1293 921,926 1000,145 790,477 387,903" fill="rgb(255, 0, 0)" /><circle cx="1022" cy="1228" r="43" fill="rgb(0, 0, 255)" /><rect x="469" y="2" width="199" height="101" fill="rgb(0, 0, 0)" /><rect x="1080" y="1335" width="129" height="166" fill="rgb(0, 0, 255)" /><rect x="127" y="465" width="163" height="83" fill="rgb(255, 0, 0)" /><circle cx="605" cy="955" r="96" fill="rgb(0, 0, 255)" /><circle cx="1074" cy="591" r="48" fill="rgb(255, 255, 0)" /><polygon points="958,1430 688,1342 724,421 12,796 365,967 755,1436" fill="rgb(0, 0, 0)" /><polygon points="933,819 63,1026 60,1002 921,887 814,540" fill="rgb(0, 0, 255)" /><circle cx="846" cy="1155" r="37" fill="rgb(255, 0, 0)" /><circle cx="2" cy="339" r="42" fill="rgb(255, 255, 0)" /><polygon points="393,241 53,175 701,1347 244,1179 780,1389" fill="rgb(255, 255, 0)" /><rect x="783" y="1184" width="190" height="102" fill="rgb(255, 0, 0)" /><circle cx="757" cy="1287" r="82" fill="rgb(0, 0, 255)" /><rect x="657" y="442" width="96" height="118" fill="rgb(0, 0, 255)" /><polygon points="234,391 155,1347 705,85 865,820" fill="rgb(0, 0, 255)" /><rect x="851" y="356" width="163" height="146" fill="rgb(0, 0, 255)" /><rect x="236" y="1440" width="197" height="77" fill="rgb(255, 0, 0)" /><rect x="178" y="917" width="195" height="168" fill="rgb(255, 0, 0)" /><rect x="146" y="1468" width="146" height="168" fill="rgb(0, 0, 0)" /><polygon points="218,381 533,1449 159,649" fill="rgb(255, 0, 0)" /><rect x="222" y="616" width="163" height="172" fill="rgb(0, 0, 255)" /><circle cx="1003" cy="788" r="87" fill="rgb(0, 0, 0)" /><rect x="651" y="691" width="58" height="86" fill="rgb(255, 255, 0)" /><rect x="22" y="1041" width="138" height="174" fill="rgb(0, 0, 0)" /><circle cx="760" cy="1447" r="69" fill="rgb(0, 0, 0)" /><circle cx="263" cy="1345" r="91" fill="rgb(0, 0, 255)" /><rect x="331" y="180" width="85" height="70" fill="rgb(0, 0, 255)" /><rect x="194" y="502" width="191" height="179" fill="rgb(255, 255, 0)" /><polygon points="202,611 867,1073 347,840 759,1366 674,138 921,1274" fill="rgb(0, 0, 0)" /><circle cx="422" cy="948" r="22" fill="rgb(255, 0, 0)" /><polygon points="781,1177 9,880 90,1348 927,816 1081,1350 306,636" fill="rgb(0, 0, 0)" /><circle cx="913" cy="546" r="38" fill="rgb(255, 255, 0)" /><circle cx="814" cy="899" r="49" fill="rgb(0, 0, 0)" /><polygon points="593,597 569,1049 955,892 979,877 342,1276" fill="rgb(0, 0, 255)" /><rect x="373" y="268" width="94" height="183" fill="rgb(255, 255, 0)" /><polygon points="812,882 310,1207 37,215 567,1492 27,1009" fill="rgb(255, 0, 0)" /><polygon points="252,1243 486,371 772,355 750,974 360,977" fill="rgb(255, 255, 0)" /><circle cx="84" cy="1290" r="23" fill="rgb(255, 255, 0)" /><polygon points="800,928 1017,835 469,953 384,709 429,599" fill="rgb(0, 0, 255)" /><rect x="803" y="720" width="75" height="120" fill="rgb(255, 255, 0)" /><rect x="893" y="1089" width="167" height="79" fill="rgb(0, 0, 255)" /><polygon points="981,368 749,1201 119,371 1075,1004 515,778 638,1120" fill="rgb(255, 255, 0)" /><rect x="1091" y="544" width="162" height="168" fill="rgb(255, 255, 0)" /><circle cx="743" cy="522" r="70" fill="rgb(0, 0, 255)" /><circle cx="418" cy="441" r="43" fill="rgb(255, 0, 0)" /><rect x="430" y="504" width="116" height="189" fill="rgb(0, 0, 255)" /><polygon points="973,83 318,383 473,604 831,1133" fill="rgb(255, 0, 0)" /><rect x="496" y="611" width="130" height="195" fill="rgb(255, 0, 0)" /><rect x="645" y="705" width="127" height="79" fill="rgb(0, 0, 255)" /><circle cx="630" cy="1226" r="30" fill="rgb(255, 0, 0)" /><rect x="178" y="352" width="152" height="178" fill="rgb(0, 0, 255)" /><polygon points="1033,1154 873,1085 659,653" fill="rgb(255, 255, 0)" /><circle cx="520" cy="81" r="84" fill="rgb(255, 0, 0)" /><rect x="391" y="257" width="96" height="125" fill="rgb(0, 0, 255)" /><polygon points="707,121 480,436 1027,487" fill="rgb(255, 255, 0)" /><rect x="716" y="1317" width="189" height="161" fill="rgb(0, 0, 0)" /><circle cx="1036" cy="821" r="46" fill="rgb(255, 255, 0)" /><circle cx="834" cy="647" r="47" fill="rgb(0, 0, 255)" /><circle cx="941" cy="798" r="27" fill="rgb(0, 0, 255)" /><polygon points="231,1426 989,580 121,805" fill="rgb(255, 0, 0)" /><circle cx="297" cy="287" r="56" fill="rgb(255, 0, 0)" /><circle cx="696" cy="14" r="98" fill="rgb(0, 0, 0)" /><circle cx="320" cy="1315" r="82" fill="rgb(255, 255, 0)" /><rect x="596" y="297" width="50" height="148" fill="rgb(0, 0, 0)" /><polygon points="1016,57 1021,1437 405,903 308,986 1040,372 774,945" fill="rgb(0, 0, 255)" /><polygon points="287,681 171,115 821,680 991,505 657,434 349,94" fill="rgb(255, 0, 0)" /><polygon points="668,285 419,968 346,1375 291,1232 333,1150" fill="rgb(0, 0, 255)" /><circle cx="31" cy="510" r="75" fill="rgb(255, 255, 0)" /><polygon points="264,739 379,156 79,376 282,74" fill="rgb(255, 0, 0)" /><circle cx="416" cy="430" r="85" fill="rgb(255, 255, 0)" /><polygon points="339,1104 407,55 651,624 1026,1072 938,1468" fill="rgb(0, 0, 255)" /><circle cx="918" cy="367" r="43" fill="rgb(0, 0, 255)" /><circle cx="529" cy="683" r="45" fill="rgb(255, 0, 0)" /><polygon points="705,987 579,1130 346,374 146,1265 993,825 164,1473" fill="rgb(255, 255, 0)" /><polygon points="834,1449 139,898 363,1105 572,550" fill="rgb(0, 0, 0)" /><circle cx="838" cy="8" r="33" fill="rgb(0, 0, 255)" /><rect x="958" y="902" width="93" height="85" fill="rgb(0, 0, 255)" /><polygon points="30,114 319,587 446,338" fill="rgb(0, 0, 0)" /><rect x="1084" y="108" width="81" height="70" fill="rgb(255, 0, 0)" /><polygon points="358,1023 826,1315 728,1054" fill="rgb(255, 255, 0)" /><polygon points="43,1282 811,1470 45,1225 51,302" fill="rgb(255, 255, 0)" /><circle cx="891" cy="152" r="62" fill="rgb(255, 0, 0)" /><circle cx="652" cy="1122" r="39" fill="rgb(0, 0, 255)" /><polygon points="834,836 861,1226 120,964 958,954" fill="rgb(255, 0, 0)" /><polygon points="134,946 566,144 198,970 403,381 309,78" fill="rgb(255, 255, 0)" /><circle cx="524" cy="1433" r="57" fill="rgb(0, 0, 0)" /><circle cx="166" cy="1199" r="91" fill="rgb(255, 255, 0)" /><polygon points="746,1072 794,1074 150,578 1056,419" fill="rgb(0, 0, 255)" /><polygon points="1040,1359 337,156 875,1194 928,218" fill="rgb(255, 255, 0)" /><circle cx="385" cy="772" r="37" fill="rgb(0, 0, 255)" /><circle cx="23" cy="461" r="43" fill="rgb(255, 0, 0)" /><circle cx="177" cy="583" r="38" fill="rgb(0, 0, 255)" /><rect x="983" y="90" width="54" height="140" fill="rgb(0, 0, 0)" /><polygon points="210,1018 742,149 1013,418 1077,250 1080,1178 714,1027" fill="rgb(255, 0, 0)" /><circle cx="231" cy="1340" r="96" fill="rgb(0, 0, 0)" /><circle cx="538" cy="1350" r="21" fill="rgb(0, 0, 255)" /><polygon points="599,162 897,321 389,196 673,646 859,1341" fill="rgb(0, 0, 0)" /><circle cx="1016" cy="592" r="27" fill="rgb(0, 0, 0)" /><rect x="1063" y="395" width="84" height="143" fill="rgb(0, 0, 255)" /><polygon points="904,1211 415,651 344,1480 304,701 221,866" fill="rgb(0, 0, 255)" /><circle cx="184" cy="1488" r="71" fill="rgb(255, 255, 0)" /><polygon points="284,627 485,134 419,1288 686,1211" fill="rgb(255, 0, 0)" /><polygon points="748,16 510,26 554,1360 181,896 107,794" fill="rgb(255, 0, 0)" /><circle cx="59" cy="266" r="87" fill="rgb(0, 0, 255)" /><rect x="891" y="778" width="178" height="113" fill="rgb(0, 0, 255)" /><rect x="306" y="772" width="147" height="51" fill="rgb(255, 255, 0)" /><circle cx="820" cy="1168" r="35" fill="rgb(0, 0, 0)" /><polygon points="325,1424 341,1367 926,42 9,306" fill="rgb(0, 0, 255)" /><circle cx="854" cy="863" r="34" fill="rgb(255, 0, 0)" /><polygon points="702,338 817,1221 176,1365" fill="rgb(255, 255, 0)" /><polygon points="195,1335 1100,1427 488,772" fill="rgb(255, 255, 0)" /><polygon points="714,736 644,1286 1065,943 590,242 648,1031" fill="rgb(0, 0, 255)" /><circle cx="698" cy="290" r="31" fill="rgb(255, 0, 0)" /><polygon points="119,1137 949,1096 955,659 77,371" fill="rgb(0, 0, 0)" /><polygon points="179,336 752,997 14,230 257,635 1058,1097" fill="rgb(255, 255, 0)" /><circle cx="732" cy="536" r="81" fill="rgb(255, 0, 0)" /><polygon points="544,149 1018,653 3,376 515,465 412,1366 804,446" fill="rgb(0, 0, 0)" /><polygon points="192,341 536,538 749,42 584,1140" fill="rgb(255, 255, 0)" /><circle cx="1068" cy="787" r="48" fill="rgb(255, 0, 0)" /><circle cx="602" cy="513" r="52" fill="rgb(255, 255, 0)" /><rect x="147" y="1093" width="56" height="149" fill="rgb(255, 255, 0)" /><rect x="160" y="1275" width="99" height="112" fill="rgb(255, 0, 0)" /><circle cx="126" cy="939" r="23" fill="rgb(0, 0, 0)" /><rect x="166" y="974" width="56" height="154" fill="rgb(255, 0, 0)" /><polygon points="411,1157 618,1037 640,1303 71,854" fill="rgb(255, 255, 0)" /><rect x="1060" y="366" width="112" height="156" fill="rgb(255, 255, 0)" /><polygon points="402,1346 459,729 560,258 40,516 792,511 772,1143" fill="rgb(255, 0, 0)" /><rect x="416" y="192" width="50" height="130" fill="rgb(255, 0, 0)" /><rect x="763" y="419" width="134" height="170" fill="rgb(0, 0, 255)" /><circle cx="948" cy="499" r="92" fill="rgb(255, 0, 0)" /><rect x="811" y="31" width="127" height="174" fill="rgb(255, 0, 0)" /><circle cx="715" cy="578" r="38" fill="rgb(255, 255, 0)" /><polygon points="983,1378 601,591 523,1128 123,609 890,831" fill="rgb(255, 0, 0)" /><polygon points="391,493 877,1355 664,812 1042,335 945,708 306,1130" fill="rgb(255, 255, 0)" /><polygon points="571,538 659,683 526,182 697,1493 834,574 858,1040" fill="rgb(0, 0, 0)" /><rect x="23" y="1200" width="173" height="92" fill="rgb(0, 0, 0)" /><circle cx="589" cy="769" r="46" fill="rgb(0, 0, 255)" /><circle cx="937" cy="378" r="87" fill="rgb(0, 0, 255)" /><rect x="769" y="1079" width="129" height="94" fill="rgb(0, 0, 0)" /><polygon points="1067,920 802,849 86,373 868,103" fill="rgb(0, 0, 0)" /><circle cx="988" cy="422" r="97" fill="rgb(0, 0, 255)" /><polygon points="99,387 577,1377 326,1102" fill="rgb(0, 0, 0)" /><rect x="763" y="1367" width="189" height="164" fill="rgb(0, 0, 255)" /><circle cx="54" cy="563" r="55" fill="rgb(255, 255, 0)" /><rect x="977" y="1342" width="123" height="161" fill="rgb(0, 0, 0)" /><polygon points="121,58 982,974 425,38 250,1007" fill="rgb(255, 0, 0)" /><polygon points="574,1451 1063,1044 1001,1290 1075,319 576,911 562,1182" fill="rgb(0, 0, 255)" /><circle cx="234" cy="234" r="35" fill="rgb(0, 0, 255)" /><circle cx="491" cy="260" r="48" fill="rgb(0, 0, 0)" /><polygon points="739,805 683,938 595,1296 910,824 108,713 1040,802" fill="rgb(0, 0, 0)" /><circle cx="723" cy="720" r="69" fill="rgb(0, 0, 255)" /><rect x="419" y="1355" width="98" height="101" fill="rgb(255, 0, 0)" /></svg>