<svg xmlns="http://www.w3.org/2000/svg" width="1101" height="1500"><circle cx="976" cy="932" r="64" fill="rgb(0, 0, 255)" /><rect x="560" y="984" width="184" height="186" fill="rgb(0, 0, 255)" /><polygon points="439,1091 393,989 407,975 1052,249 647,990" fill="rgb(255, 255, 0)" /><circle cx="324" cy="468" r="61" fill="rgb(0, 0, 0)" /><rect x="725" y="848" width="88" height="189" fill="rgb(0, 0, 0)" /><circle cx="507" cy="761" r="22" fill="rgb(255, 0, 0)" /><polygon points="139,585 1043,1386 889,322 664,306" fill="rgb(255, 255, 0)" /><polygon points="1075,1185 218,225 285,1457 173,758 816,81 738,203" fill="rgb(255, 255, 0)" /><polygon points="1058,696 272,729 0,1351 603,808 1021,648" fill="rgb(255, 255, 0)" /><circle cx="949" cy="281" r="44" fill="rgb(0, 0, 0)" /><polygon points="128,1301 889,604 513,684 471,1469" fill="rgb(0, 0, 0)" /><polygon points="594,130 72,687 877,717 531,1401" fill="rgb(0, 0, 255)" /><polygon points="770,706 587,318 855,317 378,697 205,885 112,32" fill="rgb(255, 0, 0)" /><polygon points="349,1187 1056,1475 1073,1278" fill="rgb(0, 0, 0)" /><circle cx="500" cy="419" r="55" fill="rgb(255, 255, 0)" /><polygon points="652,1233 228,264 781,1437 841,975" fill="rgb(0, 0, 0)" /><rect x="996" y="850" width="129" height="190" fill="rgb(0, 0, 0)" /><rect x="829" y="980" width="122" height="132" fill="rgb(255, 255, 0)" /><circle cx="763" cy="933" r="32" fill="rgb(255, 255, 0)" /><circle cx="563" cy="1496" r="65" fill="rgb(0, 0, 255)" /><rect x="111" y="1423" width="156" height="163" fill="rgb(0, 0, 255)" /><circle cx="329" cy="512" r="63" fill="rgb(0, 0, 255)" /><circle cx="732" cy="504" r="100" fill="rgb(0, 0, 0)" /><circle cx="1035" cy="1199" r="79" fill="rgb(255, 0, 0)" /><polygon points="234,374 357,138 135,1239 13,519 893,961" fill="rgb(255, 255, 0)" /><rect x="69" y="1243" width="185" height="119" fill="rgb(0, 0, 0)" /><polygon points="576,76 375,454 833,1423 8,34 823,1111" fill="rgb(255, 0, 0)" /><polygon points="672,394 1072,671 527,1051" fill="rgb(0, 0, 0)" /><rect x="417" y="535" width="192" height="180" fill="rgb(0, 0, 0)" /><polygon points="409,666 150,1293 211,156 17,1297 992,655 287,332" fill="rgb(255, 255, 0)" /><polygon points="623,1207 911,949 400,81" fill="rgb(0, 0, 0)" /><circle cx="683" cy="612" r="59" fill="rgb(0, 0, 0)" /><rect x="927" y="214" width="91" height="60" fill="rgb(255, 0, 0)" /><rect x="3" y="1308" width="158" height="124" fill="rgb(255, 0, 0)" /><rect x="104" y="1252" width="149" height="66" fill="rgb(255, 0, 0)" /><polygon points="928,313 416,626 967,981" fill="rgb(0, 0, 0)" /><polygon points="683,337 216,259 167,1278 1040,925 77,633" fill="rgb(255, 0, 0)" /><polygon points="930,1500 1002,173 727,457 281,123 90,142 288,172" fill="rgb(0, 0, 0)" /><rect x="325" y="504" width="88" height="115" fill="rgb(255, 255, 0)" /><polygon points="566,1025 365,694 203,692" fill="rgb(255, 255, 0)" /><rect x="848" y="16" width="200" height="103" fill="rgb(255, 255, 0)" /><circle cx="310" cy="729" r="39" fill="rgb(255, 0, 0)" /><polygon points="396,424 688,1500 946,1267 424,11" fill="rgb(255, 255, 0)" /><circle cx="162" cy="1092" r="81" fill="rgb(0, 0, 0)" /><circle cx="733" cy="589" r="51" fill="rgb(255, 0, 0)" /><rect x="8" y="452" width="141" height="194" fill="rgb(0, 0, 0)" /><rect x="1060" y="1201" width="162" height="179" fill="rgb(0, 0, 255)" /><polygon points="476,1324 158,650 1001,1291 817,54 294,1219" fill="rgb(255, 0, 0)" /><rect x="917" y="600" width="97" height="132" fill="rgb(255, 0, 0)" /><polygon points="771,349 1018,397 150,331 190,785 351,758" fill="rgb(0, 0, 255)" /><rect x="208" y="1362" width="113" height="51" fill="rgb(255, 0, 0)" /><rect x="911" y="270" width="112" height="143" fill="rgb(0, 0, 0)" /><rect x="914" y="1452" width="184" height="75" fill="rgb(0, 0, 255)" /><circle cx="586" cy="840" r="97" fill="rgb(0, 0, 255)" /><polygon points="185,110 958,61 809,1492" fill="rgb(0, 0, 255)" /><polygon points="565,253 753,880 334,1240 426,1112 285,1124 318,723" fill="rgb(255, 255, 0)" /><rect x="742" y="536" width="122" height="151" fill="rgb(255, 0, 0)" /><polygon points="1013,549 499,984 931,349 774,1172 859,691 147,1130" fill="rgb(0, 0, 255)" /><polygon points="551,432 1099,292 198,203" fill="rgb(255, 255, 0)" /><circle cx="833" cy="919" r="91" fill="rgb(0, 0, 255)" /></svg>