<svg xmlns="http://www.w3.org/2000/svg" width="1101" height="1500"><polygon points="349,331 687,1032 789,1388" fill="rgb(255, 0, 0)" /><polygon points="160,921 758,329 811,881 856,822 716,1130" fill="rgb(255, 0, 0)" /><rect x="1100" y="708" width="69" height="126" fill="rgb(255, 0, 0)" /><circle cx="942" cy="255" r="24" fill="rgb(0, 0, 0)" /><circle cx="140" cy="1353" r="39" fill="rgb(255, 255, 0)" /><circle cx="943" cy="527" r="47" fill="rgb(255, 255, 0)" /><rect x="0" y="1028" width="184" height="175" fill="rgb(0, 0, 255)" /><circle cx="737" cy="46" r="52" fill="rgb(255, 0, 0)" /><circle cx="563" cy="338" r="38" fill="rgb(255, 255, 0)" /><circle cx="519" cy="1500" r="36" fill="rgb(0, 0, 255)" /><circle cx="233" cy="233" r="92" fill="rgb(0, 0, 255)" /><polygon points="811,628 446,1116 911,999 225,712" fill="rgb(255, 255, 0)" /><circle cx="521" cy="1323" r="78" fill="rgb(255, 0, 0)" /><polygon points="335,454 234,804 17,38" fill="rgb(0, 0, 255)" /><rect x="1075" y="679" width="110" height="114" fill="rgb(255, 255, 0)" /><circle cx="830" cy="565" r="47" fill="rgb(255, 255, 0)" /><rect x="970" y="284" width="65" height="186" fill="rgb(255, 0, 0)" /><rect x="173" y="218" width="197" height="93" fill="rgb(255, 255, 0)" /><polygon points="892,1446 465,1287 736,795 859,397 259,832 351,1035" fill="rgb(0, 0, 255)" /><rect x="316" y="329" width="83" height="106" fill="rgb(0, 0, 255)" /><polygon points="189,389 248,1043 548,992 485,1309" fill="rgb(0, 0, 0)" /><rect x="369" y="900" width="149" height="65" fill="rgb(0, 0, 255)" /><polygon points="238,863 25,523 184,552 527,1106 954,1012 769,1084" fill="rgb(0, 0, 255)" /><rect x="84" y="1388" width="127" height="157" fill="rgb(0, 0, 0)" /><polygon points="1019,447 753,180 40,1424 297,723 693,858" fill="rgb(255, 255, 0)" /><polygon points="335,640 1011,1473 956,513 1039,625 759,599 52,456" fill="rgb(255, 255, 0)" /><circle cx="266" cy="814" r="73" fill="rgb(255, 0, 0)" /><rect x="405" y="184" width="97" height="196" fill="rgb(0, 0, 0)" /><rect x="748" y="320" width="96" height="134" fill="rgb(255, 0, 0)" /><rect x="485" y="367" width="109" height="117" fill="rgb(0, 0, 255)" /><polygon points="991,789 363,53 0,619" fill="rgb(0, 0, 255)" /><polygon points="838,22 748,592 637,1421 741,1292 880,646 873,1315" fill="rgb(0, 0, 0)" /><circle cx="891" cy="188" r="70" fill="rgb(255, 0, 0)" /><rect x="477" y="643" width="132" height="163" fill="rgb(0, 0, 255)" /><circle cx="1076" cy="1449" r="31" fill="rgb(0, 0, 255)" /><polygon points="840,1136 159,454 72,123 494,1450 507,202 1071,846" fill="rgb(0, 0, 0)" /><rect x="1067" y="1122" width="168" height="73" fill="rgb(0, 0, 0)" /><polygon points="944,449 919,1327 584,1098 724,773" fill="rgb(0, 0, 255)" /><rect x="823" y="1347" width="115" height="73" fill="rgb(0, 0, 0)" /><circle cx="640" cy="435" r="27" fill="rgb(0, 0, 255)" /><rect x="903" y="1500" width="82" height="180" fill="rgb(255, 255, 0)" /><rect x="112" y="53" width="91" height="103" fill="rgb(0, 0, 0)" /></svg>