<svg xmlns="http://www.w3.org/2000/svg" width="1101" height="1500"><rect x="20" y="596" width="95" height="136" fill="rgb(0, 0, 255)" /><circle cx="562" cy="822" r="63" fill="rgb(0, 0, 0)" /><circle cx="218" cy="1156" r="85" fill="rgb(0, 0, 0)" /><rect x="987" y="1259" width="121" height="69" fill="rgb(255, 0, 0)" /><circle cx="340" cy="1142" r="98" fill="rgb(0, 0, 0)" /><circle cx="607" cy="219" r="58" fill="rgb(255, 0, 0)" /><polygon points="751,602 674,640 675,1009" fill="rgb(255, 0, 0)" /><rect x="296" y="899" width="193" height="165" fill="rgb(255, 255, 0)" /><polygon points="434,1378 304,1397 236,395 135,1462" fill="rgb(255, 255, 0)" /><circle cx="990" cy="977" r="88" fill="rgb(255, 255, 0)" /><polygon points="164,166 418,122 407,1402 95,620 929,1089 1081,995" fill="rgb(0, 0, 0)" /><circle cx="364" cy="1303" r="60" fill="rgb(0, 0, 255)" /><polygon points="129,1344 555,1101 107,252 977,1045 685,76 213,360" fill="rgb(0, 0, 255)" /><rect x="1009" y="1363" width="115" height="126" fill="rgb(0, 0, 255)" /><circle cx="464" cy="1433" r="35" fill="rgb(255, 255, 0)" /><rect x="756" y="1234" width="88" height="63" fill="rgb(0, 0, 255)" /><rect x="959" y="525" width="78" height="76" fill="rgb(0, 0, 255)" /><circle cx="389" cy="311" r="84" fill="rgb(255, 255, 0)" /><rect x="18" y="1226" width="159" height="177" fill="rgb(255, 0, 0)" /><polygon points="582,1273 627,349 137,1086 223,448 52,1062 487,1496" fill="rgb(255, 255, 0)" /><circle cx="384" cy="884" r="56" fill="rgb(0, 0, 0)" /><polygon points="473,506 811,1123 734,1421 327,785 312,1168 449,1314" fill="rgb(0, 0, 255)" /><circle cx="299" cy="1034" r="55" fill="rgb(0, 0, 0)" /><rect x="876" y="1031" width="177" height="140" fill="rgb(255, 0, 0)" /><polygon points="297,916 715,773 234,523" fill="rgb(0, 0, 0)" /><circle cx="316" cy="769" r="94" fill="rgb(0, 0, 0)" /><rect x="954" y="1272" width="159" height="153" fill="rgb(0, 0, 0)" /><rect x="848" y="700" width="162" height="60" fill="rgb(255, 255, 0)" /><rect x="844" y="759" width="197" height="157" fill="rgb(0, 0, 0)" /><circle cx="107" cy="400" r="53" fill="rgb(255, 255, 0)" /><rect x="217" y="1465" width="194" height="120" fill="rgb(0, 0, 255)" /><circle cx="102" cy="381" r="25" fill="rgb(0, 0, 0)" /><circle cx="454" cy="712" r="64" fill="rgb(0, 0, 0)" /><polygon points="1049,655 459,888 929,1043" fill="rgb(255, 255, 0)" /><circle cx="165" cy="1498" r="25" fill="rgb(0, 0, 0)" /><circle cx="419" cy="101" r="33" fill="rgb(255, 0, 0)" /><rect x="395" y="1185" width="92" height="198" fill="rgb(0, 0, 0)" /><polygon points="203,65 1060,1268 300,1019 966,891 980,957" fill="rgb(255, 255, 0)" /><circle cx="527" cy="706" r="55" fill="rgb(0, 0, 0)" /><polygon points="595,661 300,938 404,847 791,1281" fill="rgb(0, 0, 0)" /><polygon points="933,92 532,1275 314,798 363,930" fill="rgb(255, 0, 0)" /><circle cx="248" cy="1359" r="30" fill="rgb(255, 0, 0)" /><circle cx="553" cy="1491" r="59" fill="rgb(255, 0, 0)" /><rect x="747" y="1324" width="117" height="132" fill="rgb(255, 0, 0)" /></svg>