<svg xmlns="http://www.w3.org/2000/svg" width="1101" height="1500"><rect x="781" y="1070" width="139" height="121" fill="rgb(0, 0, 0)" /><rect x="258" y="1233" width="138" height="174" fill="rgb(255, 255, 0)" /><polygon points="175,763 877,1198 1015,879" fill="rgb(0, 0, 0)" /><rect x="467" y="605" width="188" height="112" fill="rgb(255, 255, 0)" /><circle cx="125" cy="282" r="84" fill="rgb(0, 0, 255)" /><polygon points="898,924 157,505 744,944" fill="rgb(0, 0, 255)" /><polygon points="472,1478 667,718 1080,845" fill="rgb(255, 0, 0)" /><rect x="1076" y="1330" width="138" height="97" fill="rgb(255, 0, 0)" /><rect x="52" y="1486" width="66" height="87" fill="rgb(255, 0, 0)" /><circle cx="414" cy="220" r="55" fill="rgb(255, 0, 0)" /><polygon points="551,1150 324,65 1085,645 880,525 259,800 535,441" fill="rgb(255, 0, 0)" /><polygon points="759,837 707,1413 120,969" fill="rgb(0, 0, 255)" /><circle cx="25" cy="919" r="65" fill="rgb(255, 255, 0)" /><circle cx="687" cy="172" r="67" fill="rgb(0, 0, 0)" /><circle cx="977" cy="1370" r="50" fill="rgb(255, 0, 0)" /><polygon points="323,139 124,631 782,688 225,1253 591,1314 9,1128" fill="rgb(0, 0, 0)" /><polygon points="429,75 797,253 870,1239 159,423 1030,20" fill="rgb(255, 255, 0)" /><rect x="823" y="370" width="91" height="149" fill="rgb(255, 255, 0)" /><rect x="108" y="502" width="103" height="83" fill="rgb(255, 255, 0)" /><rect x="457" y="866" width="187" height="80" fill="rgb(255, 0, 0)" /><circle cx="228" cy="1074" r="96" fill="rgb(0, 0, 0)" /><polygon points="821,56 900,624 1027,976 422,271 311,515" fill="rgb(0, 0, 255)" /><polygon points="872,1473 336,410 362,1307 927,704 242,8 1064,194" fill="rgb(0, 0, 0)" /><polygon points="33,1282 990,100 928,512 614,1023" fill="rgb(255, 255, 0)" /><polygon points="511,1141 740,385 802,434 390,848" fill="rgb(0, 0, 255)" /><circle cx="662" cy="1313" r="33" fill="rgb(255, 0, 0)" /><circle cx="847" cy="408" r="41" fill="rgb(0, 0, 255)" /><rect x="845" y="724" width="105" height="76" fill="rgb(0, 0, 0)" /><rect x="28" y="969" width="164" height="82" fill="rgb(0, 0, 255)" /><circle cx="294" cy="1253" r="30" fill="rgb(255, 0, 0)" /><polygon points="996,270 681,1291 937,265 1073,962" fill="rgb(0, 0, 0)" /><circle cx="678" cy="45" r="38" fill="rgb(0, 0, 255)" /><circle cx="556" cy="458" r="25" fill="rgb(255, 0, 0)" /><circle cx="55" cy="1143" r="43" fill="rgb(255, 255, 0)" /><rect x="272" y="296" width="54" height="198" fill="rgb(255, 255, 0)" /><circle cx="936" cy="349" r="77" fill="rgb(0, 0, 255)" /><polygon points="76,920 951,1411 624,180 705,86" fill="rgb(0, 0, 0)" /><circle cx="443" cy="5" r="100" fill="rgb(0, 0, 255)" /><polygon points="1009,790 141,1156 932,794 707,13" fill="rgb(255, 0, 0)" /><rect x="10" y="1287" width="176" height="161" fill="rgb(255, 0, 0)" /><polygon points="200,262 996,1035 884,748 336,963 668,1405 103,796" fill="rgb(255, 255, 0)" /><polygon points="759,1389 945,1479 378,490 1071,1161" fill="rgb(0, 0, 0)" /><polygon points="1004,1154 335,463 914,202 303,1498 854,922" fill="rgb(255, 0, 0)" /><circle cx="557" cy="788" r="42" fill="rgb(255, 255, 0)" /><circle cx="713" cy="1107" r="62" fill="rgb(255, 0, 0)" /><rect x="545" y="605" width="134" height="171" fill="rgb(0, 0, 255)" /><circle cx="699" cy="617" r="99" fill="rgb(255, 255, 0)" /><polygon points="1031,852 265,347 588,124" fill="rgb(255, 255, 0)" /><rect x="223" y="902" width="145" height="177" fill="rgb(255, 255, 0)" /><circle cx="342" cy="1491" r="88" fill="rgb(0, 0, 255)" /><circle cx="910" cy="1118" r="70" fill="rgb(255, 0, 0)" /><polygon points="324,546 316,297 566,217" fill="rgb(255, 255, 0)" /><polygon points="253,246 49,1334 980,120 21,363 959,1055 1020,1491" fill="rgb(255, 0, 0)" /><circle cx="989" cy="252" r="27" fill="rgb(0, 0, 255)" /><polygon points="547,1436 363,492 115,178 506,990 950,696 944,538" fill="rgb(0, 0, 255)" /><circle cx="40" cy="219" r="44" fill="rgb(255, 255, 0)" /><circle cx="596" cy="1215" r="75" fill="rgb(0, 0, 255)" /><polygon points="519,1310 893,804 347,91 925,1390 946,0 921,1300" fill="rgb(0, 0, 255)" /><polygon points="1002,82 675,99 217,496 489,1119 539,154 851,548" fill="rgb(255, 255, 0)" /><rect x="445" y="662" width="163" height="70" fill="rgb(0, 0, 255)" /><rect x="663" y="13" width="100" height="164" fill="rgb(0, 0, 0)" /><rect x="891" y="1094" width="149" height="174" fill="rgb(0, 0, 255)" /><circle cx="174" cy="1388" r="52" fill="rgb(0, 0, 0)" /><polygon points="158,16 349,362 548,448 100,707 278,1078" fill="rgb(255, 0, 0)" /><rect x="967" y="1379" width="108" height="144" fill="rgb(255, 255, 0)" /><polygon points="904,776 194,753 748,142" fill="rgb(0, 0, 255)" /><polygon points="446,772 391,785 14,213 527,270 981,443" fill="rgb(0, 0, 255)" /><rect x="352" y="821" width="108" height="50" fill="rgb(0, 0, 255)" /><rect x="304" y="33" width="114" height="178" fill="rgb(0, 0, 0)" /><circle cx="142" cy="1050" r="89" fill="rgb(0, 0, 255)" /><polygon points="618,598 926,1500 1063,1134 864,1207 584,67" fill="rgb(255, 255, 0)" /><rect x="326" y="982" width="176" height="199" fill="rgb(0, 0, 0)" /><polygon points="152,669 647,1097 769,54 357,1225 358,1415 417,441" fill="rgb(0, 0, 0)" /><circle cx="1010" cy="1141" r="59" fill="rgb(0, 0, 255)" /><circle cx="764" cy="314" r="35" fill="rgb(0, 0, 255)" /><rect x="494" y="834" width="52" height="75" fill="rgb(0, 0, 0)" /><rect x="996" y="1255" width="95" height="114" fill="rgb(0, 0, 0)" /><polygon points="1074,273 115,1245 946,1187 530,1353" fill="rgb(255, 0, 0)" /><circle cx="669" cy="1110" r="62" fill="rgb(0, 0, 0)" /><circle cx="111" cy="1164" r="98" fill="rgb(0, 0, 255)" /><polygon points="1043,162 208,71 675,697 606,1366 878,48" fill="rgb(0, 0, 0)" /><polygon points="294,1352 809,223 412,902 792,939" fill="rgb(255, 0, 0)" /><circle cx="278" cy="1492" r="26" fill="rgb(255, 0, 0)" /><circle cx="957" cy="290" r="23" fill="rgb(0, 0, 0)" /><polygon points="292,50 412,1368 1024,1074 25,1461 959,180" fill="rgb(0, 0, 0)" /><circle cx="243" cy="298" r="98" fill="rgb(0, 0, 255)" /><rect x="77" y="814" width="148" height="76" fill="rgb(0, 0, 255)" /><rect x="1079" y="109" width="80" height="108" fill="rgb(0, 0, 0)" /><rect x="466" y="892" width="110" height="88" fill="rgb(255, 255, 0)" /><circle cx="52" cy="1194" r="88" fill="rgb(0, 0, 0)" /><rect x="569" y="1492" width="88" height="181" fill="rgb(255, 255, 0)" /><polygon points="872,1360 700,923 427,636 797,1001 504,464" fill="rgb(0, 0, 0)" /><rect x="604" y="1154" width="189" height="99" fill="rgb(0, 0, 0)" /><polygon points="891,992 805,881 312,180 1080,973 75,673 823,1013" fill="rgb(0, 0, 0)" /><rect x="888" y="866" width="54" height="139" fill="rgb(0, 0, 255)" /><polygon points="382,533 389,258 860,1359 667,1182" fill="rgb(255, 255, 0)" /><polygon points="538,841 741,428 778,470 668,1151 482,1000" fill="rgb(0, 0, 0)" /><circle cx="66" cy="292" r="66" fill="rgb(0, 0, 0)" /><circle cx="856" cy="1345" r="73" fill="rgb(0, 0, 255)" /><rect x="69" y="746" width="71" height="165" fill="rgb(255, 0, 0)" /><polygon points="1030,592 631,1275 766,1487 187,95" fill="rgb(255, 0, 0)" /><circle cx="656" cy="3" r="78" fill="rgb(255, 255, 0)" /><polygon points="148,689 140,423 725,16 769,476 61,216" fill="rgb(255, 255, 0)" /><polygon points="736,1354 544,647 356,1115 158,949 303,1047" fill="rgb(255, 255, 0)" /><rect x="1095" y="1432" width="189" height="93" fill="rgb(0, 0, 255)" /><polygon points="772,175 188,486 717,449 803,1152 1088,1319" fill="rgb(255, 255, 0)" /><rect x="913" y="1423" width="168" height="134" fill="rgb(255, 0, 0)" /><rect x="687" y="1455" width="171" height="127" fill="rgb(0, 0, 255)" /><rect x="787" y="1445" width="186" height="194" fill="rgb(255, 255, 0)" /><circle cx="380" cy="312" r="58" fill="rgb(0, 0, 255)" /><polygon points="674,943 184,1281 657,1142" fill="rgb(255, 255, 0)" /><polygon points="856,938 823,1245 322,1428 1099,454 198,1467 154,1122" fill="rgb(255, 0, 0)" /><polygon points="496,137 20,1474 297,16" fill="rgb(0, 0, 255)" /><circle cx="248" cy="1341" r="69" fill="rgb(0, 0, 0)" /><circle cx="529" cy="223" r="64" fill="rgb(255, 0, 0)" /><circle cx="171" cy="554" r="75" fill="rgb(255, 0, 0)" /><polygon points="520,501 840,286 536,565 44,1453 1101,1190" fill="rgb(255, 0, 0)" /><polygon points="54,1131 366,1157 717,890 769,534" fill="rgb(255, 0, 0)" /><rect x="69" y="1099" width="136" height="68" fill="rgb(0, 0, 0)" /><rect x="87" y="795" width="131" height="79" fill="rgb(0, 0, 255)" /><circle cx="128" cy="260" r="22" fill="rgb(0, 0, 255)" /><circle cx="336" cy="1271" r="91" fill="rgb(255, 0, 0)" /><polygon points="515,825 573,1059 853,875 243,403 829,20" fill="rgb(0, 0, 255)" /><rect x="117" y="86" width="117" height="54" fill="rgb(255, 0, 0)" /><rect x="359" y="942" width="138" height="74" fill="rgb(0, 0, 255)" /><polygon points="975,864 106,1424 441,1134 960,646 59,958" fill="rgb(0, 0, 0)" /><circle cx="34" cy="1031" r="61" fill="rgb(0, 0, 0)" /><polygon points="442,563 866,864 653,396" fill="rgb(0, 0, 255)" /><circle cx="347" cy="1424" r="55" fill="rgb(0, 0, 0)" /><circle cx="626" cy="477" r="60" fill="rgb(255, 255, 0)" /><polygon points="240,361 295,1085 845,140 727,895 405,225" fill="rgb(0, 0, 0)" /><rect x="623" y="1491" width="191" height="192" fill="rgb(255, 0, 0)" /><circle cx="474" cy="128" r="72" fill="rgb(0, 0, 255)" /><circle cx="1041" cy="775" r="43" fill="rgb(255, 0, 0)" /><circle cx="137" cy="289" r="71" fill="rgb(255, 255, 0)" /><rect x="980" y="1266" width="117" height="84" fill="rgb(0, 0, 0)" /><circle cx="657" cy="80" r="91" fill="rgb(255, 255, 0)" /><rect x="468" y="757" width="195" height="157" fill="rgb(255, 0, 0)" /><rect x="634" y="39" width="87" height="97" fill="rgb(0, 0, 0)" /><circle cx="1025" cy="127" r="46" fill="rgb(0, 0, 0)" /><rect x="844" y="207" width="163" height="134" fill="rgb(0, 0, 255)" /><rect x="746" y="1299" width="142" height="182" fill="rgb(255, 0, 0)" /><circle cx="398" cy="608" r="42" fill="rgb(255, 255, 0)" /><rect x="123" y="603" width="184" height="59" fill="rgb(255, 0, 0)" /><rect x="964" y="770" width="125" height="127" fill="rgb(255, 0, 0)" /><rect x="263" y="824" width="64" height="144" fill="rgb(255, 255, 0)" /></svg>