<svg xmlns="http://www.w3.org/2000/svg" width="1101" height="1500"><rect x="513" y="725" width="78" height="132" fill="rgb(0, 0, 255)" /><rect x="520" y="309" width="193" height="126" fill="rgb(255, 255, 0)" /><polygon points="427,1469 25,364 704,415 309,27" fill="rgb(255, 0, 0)" /><circle cx="122" cy="1375" r="46" fill="rgb(0, 0, 255)" /><circle cx="487" cy="1036" r="57" fill="rgb(0, 0, 255)" /><circle cx="255" cy="717" r="44" fill="rgb(255, 0, 0)" /><polygon points="864,883 520,1361 779,143 956,221 359,1125 179,516" fill="rgb(255, 0, 0)" /><circle cx="947" cy="576" r="59" fill="rgb(255, 255, 0)" /><polygon points="674,1201 223,540 1091,353" fill="rgb(0, 0, 255)" /><rect x="153" y="36" width="72" height="96" fill="rgb(255, 255, 0)" /><polygon points="94,419 931,692 248,989 49,195 845,1150 1068,122" fill="rgb(255, 0, 0)" /><rect x="774" y="491" width="182" height="170" fill="rgb(255, 255, 0)" /><polygon points="943,96 313,940 413,635 286,578 958,780 792,759" fill="rgb(0, 0, 0)" /><polygon points="65,89 751,915 925,334" fill="rgb(255, 0, 0)" /><polygon points="335,470 543,352 309,84 203,839 384,503" fill="rgb(255, 0, 0)" /><polygon points="679,747 978,661 202,411 847,592" fill="rgb(0, 0, 255)" /><polygon points="696,503 30,1148 628,1099 671,175" fill="rgb(255, 0, 0)" /><rect x="556" y="307" width="82" height="90" fill="rgb(0, 0, 255)" /><circle cx="313" cy="1492" r="53" fill="rgb(255, 255, 0)" /><polygon points="908,832 657,1168 485,1257" fill="rgb(255, 0, 0)" /><circle cx="69" cy="143" r="35" fill="rgb(0, 0, 0)" /><rect x="479" y="781" width="69" height="85" fill="rgb(255, 0, 0)" /><circle cx="1026" cy="590" r="83" fill="rgb(255, 0, 0)" /><rect x="344" y="1293" width="166" height="136" fill="rgb(255, 0, 0)" /><rect x="150" y="273" width="198" height="79" fill="rgb(255, 255, 0)" /><circle cx="1077" cy="764" r="98" fill="rgb(0, 0, 0)" /><circle cx="1029" cy="758" r="60" fill="rgb(0, 0, 255)" /><rect x="50" y="351" width="162" height="189" fill="rgb(255, 0, 0)" /><polygon points="655,769 824,349 832,959 384,502 254,846" fill="rgb(255, 0, 0)" /><rect x="55" y="717" width="56" height="189" fill="rgb(0, 0, 255)" /><circle cx="662" cy="393" r="82" fill="rgb(0, 0, 0)" /><circle cx="830" cy="822" r="53" fill="rgb(0, 0, 255)" /><circle cx="1092" cy="882" r="91" fill="rgb(0, 0, 0)" /><polygon points="317,526 30,1115 307,93 99,474" fill="rgb(0, 0, 255)" /><polygon points="312,372 245,693 851,1429" fill="rgb(255, 0, 0)" /><rect x="688" y="865" width="114" height="124" fill="rgb(255, 0, 0)" /><polygon points="147,428 934,7 1037,945 1017,44 318,254 877,57" fill="rgb(0, 0, 255)" /><rect x="802" y="186" width="94" height="195" fill="rgb(0, 0, 255)" /><rect x="197" y="1423" width="133" height="76" fill="rgb(255, 255, 0)" /><polygon points="140,819 238,584 637,631 38,1051 763,1229" fill="rgb(255, 0, 0)" /><polygon points="549,1469 648,273 284,1012" fill="rgb(0, 0, 0)" /><polygon points="334,660 1011,180 954,103 325,467 910,1095 591,43" fill="rgb(0, 0, 255)" /><polygon points="598,1241 868,1325 372,1381 381,515 172,616" fill="rgb(255, 255, 0)" /><polygon points="556,1251 782,55 55,552" fill="rgb(255, 0, 0)" /><circle cx="12" cy="818" r="20" fill="rgb(255, 255, 0)" /><rect x="64" y="1238" width="192" height="100" fill="rgb(0, 0, 255)" /><circle cx="202" cy="1422" r="41" fill="rgb(0, 0, 0)" /><rect x="846" y="333" width="170" height="199" fill="rgb(0, 0, 255)" /><circle cx="18" cy="1483" r="41" fill="rgb(255, 0, 0)" /><polygon points="746,822 109,35 1018,304 799,119" fill="rgb(255, 255, 0)" /><circle cx="203" cy="1457" r="81" fill="rgb(0, 0, 255)" /><rect x="317" y="804" width="104" height="145" fill="rgb(255, 255, 0)" /><rect x="1060" y="104" width="152" height="52" fill="rgb(0, 0, 0)" /><circle cx="81" cy="267" r="60" fill="rgb(0, 0, 0)" /><circle cx="473" cy="23" r="35" fill="rgb(0, 0, 255)" /><rect x="918" y="736" width="129" height="95" fill="rgb(0, 0, 255)" /><rect x="223" y="925" width="143" height="86" fill="rgb(0, 0, 0)" /><rect x="991" y="676" width="177" height="90" fill="rgb(255, 255, 0)" /><circle cx="339" cy="44" r="61" fill="rgb(255, 255, 0)" /><polygon points="104,907 112,888 888,1219 651,839 381,519 566,487" fill="rgb(0, 0, 255)" /><rect x="495" y="1242" width="123" height="133" fill="rgb(255, 255, 0)" /><polygon points="789,1285 955,414 466,1365 478,455" fill="rgb(0, 0, 0)" /><rect x="37" y="107" width="144" height="150" fill="rgb(0, 0, 255)" /><circle cx="17" cy="1279" r="31" fill="rgb(255, 0, 0)" /><polygon points="328,777 783,404 675,809 240,707 16,1291 437,24" fill="rgb(255, 255, 0)" /><circle cx="911" cy="817" r="43" fill="rgb(255, 255, 0)" /><polygon points="632,1298 396,542 268,136" fill="rgb(255, 0, 0)" /><polygon points="1039,1390 256,225 424,1413" fill="rgb(255, 0, 0)" /><polygon points="708,1362 575,1318 803,135 725,1086 81,1223" fill="rgb(0, 0, 255)" /><rect x="901" y="680" width="198" height="175" fill="rgb(255, 0, 0)" /><rect x="492" y="940" width="194" height="196" fill="rgb(0, 0, 0)" /><rect x="575" y="150" width="103" height="72" fill="rgb(255, 255, 0)" /><polygon points="873,785 478,1401 515,527" fill="rgb(255, 255, 0)" /><polygon points="288,224 788,173 698,561" fill="rgb(0, 0, 0)" /><rect x="191" y="1234" width="100" height="90" fill="rgb(0, 0, 0)" /><polygon points="47,1142 25,872 505,1297 358,709 985,518 607,229" fill="rgb(0, 0, 0)" /><polygon points="250,624 506,517 696,399 1036,455 984,987 647,110" fill="rgb(0, 0, 0)" /><rect x="598" y="716" width="185" height="115" fill="rgb(0, 0, 255)" /><rect x="548" y="544" width="60" height="76" fill="rgb(0, 0, 255)" /><circle cx="206" cy="460" r="65" fill="rgb(0, 0, 0)" /><rect x="644" y="668" width="68" height="67" fill="rgb(0, 0, 255)" /><rect x="270" y="181" width="182" height="124" fill="rgb(0, 0, 255)" /><polygon points="951,796 25,153 515,283 321,1185 979,1361 74,21" fill="rgb(255, 0, 0)" /><rect x="746" y="410" width="141" height="150" fill="rgb(255, 0, 0)" /><polygon points="1068,41 718,1447 924,818 363,961" fill="rgb(255, 255, 0)" /><polygon points="1091,1035 345,1039 813,570 457,963 876,1308" fill="rgb(255, 0, 0)" /><rect x="106" y="62" width="104" height="123" fill="rgb(0, 0, 0)" /><circle cx="410" cy="1465" r="57" fill="rgb(0, 0, 0)" /><polygon points="607,499 667,144 836,1323" fill="rgb(0, 0, 255)" /><circle cx="135" cy="727" r="72" fill="rgb(255, 255, 0)" /><circle cx="792" cy="1306" r="31" fill="rgb(255, 0, 0)" /><circle cx="115" cy="517" r="74" fill="rgb(255, 0, 0)" /><rect x="703" y="637" width="116" height="164" fill="rgb(0, 0, 0)" /><polygon points="874,705 63,1481 785,307 741,753 443,480" fill="rgb(0, 0, 0)" /><polygon points="470,929 591,1151 1082,162 26,1343" fill="rgb(0, 0, 0)" /><rect x="215" y="733" width="134" height="165" fill="rgb(255, 255, 0)" /><polygon points="616,927 156,141 678,1068 637,71" fill="rgb(0, 0, 0)" /><rect x="619" y="313" width="169" height="91" fill="rgb(0, 0, 255)" /><rect x="573" y="925" width="189" height="140" fill="rgb(0, 0, 255)" /><circle cx="490" cy="795" r="75" fill="rgb(0, 0, 255)" /><polygon points="854,32 267,347 225,1288 1028,329 200,246" fill="rgb(255, 0, 0)" /><rect x="283" y="981" width="72" height="171" fill="rgb(0, 0, 0)" /><circle cx="401" cy="1415" r="30" fill="rgb(0, 0, 0)" /><rect x="332" y="733" width="106" height="181" fill="rgb(0, 0, 0)" /><circle cx="379" cy="525" r="62" fill="rgb(0, 0, 0)" /><circle cx="1075" cy="435" r="92" fill="rgb(0, 0, 0)" /><polygon points="313,694 616,1409 468,537" fill="rgb(0, 0, 255)" /><circle cx="489" cy="999" r="36" fill="rgb(0, 0, 0)" /><polygon points="349,823 36,953 570,60" fill="rgb(0, 0, 255)" /><polygon points="550,908 66,1118 457,415" fill="rgb(255, 0, 0)" /><circle cx="380" cy="916" r="45" fill="rgb(0, 0, 0)" /><polygon points="37,103 280,1173 940,599 433,882 781,44 659,942" fill="rgb(0, 0, 0)" /><polygon points="479,672 622,150 582,508 800,239 786,1240 813,165" fill="rgb(255, 0, 0)" /><circle cx="578" cy="876" r="34" fill="rgb(255, 255, 0)" /><polygon points="573,690 230,1134 227,505" fill="rgb(0, 0, 255)" /><rect x="151" y="202" width="67" height="111" fill="rgb(255, 255, 0)" /><rect x="1015" y="1112" width="177" height="184" fill="rgb(0, 0, 0)" /><rect x="1065" y="309" width="161" height="182" fill="rgb(0, 0, 255)" /><rect x="889" y="704" width="55" height="90" fill="rgb(0, 0, 255)" /><rect x="743" y="103" width="122" height="157" fill="rgb(0, 0, 0)" /><circle cx="833" cy="667" r="23" fill="rgb(0, 0, 255)" /><rect x="764" y="763" width="163" height="193" fill="rgb(255, 0, 0)" /><rect x="1035" y="425" width="90" height="68" fill="rgb(0, 0, 255)" /><polygon points="464,928 753,14 851,605 641,884 448,1209" fill="rgb(255, 255, 0)" /><polygon points="333,1294 299,664 309,1297 890,985 732,253 544,1007" fill="rgb(255, 255, 0)" /><rect x="741" y="743" width="187" height="137" fill="rgb(255, 0, 0)" /><polygon points="817,1154 156,638 115,364 804,183 904,1031 764,680" fill="rgb(0, 0, 0)" /><rect x="274" y="571" width="77" height="89" fill="rgb(255, 255, 0)" /><polygon points="629,151 315,837 49,1000 928,1035 701,636 512,24" fill="rgb(255, 255, 0)" /><rect x="943" y="30" width="111" height="134" fill="rgb(0, 0, 0)" /><rect x="153" y="276" width="156" height="128" fill="rgb(0, 0, 0)" /><polygon points="536,780 159,179 9,813 319,1166 388,1127 944,51" fill="rgb(0, 0, 0)" /><circle cx="607" cy="1221" r="79" fill="rgb(255, 255, 0)" /><circle cx="756" cy="1022" r="99" fill="rgb(0, 0, 0)" /><rect x="14" y="493" width="56" height="143" fill="rgb(255, 255, 0)" /><circle cx="576" cy="1359" r="38" fill="rgb(255, 0, 0)" /><circle cx="567" cy="324" r="52" fill="rgb(0, 0, 255)" /><circle cx="44" cy="170" r="40" fill="rgb(0, 0, 0)" /></svg>