<svg xmlns="http://www.w3.org/2000/svg" width="1101" height="1500"><polygon points="369,1175 94,177 2,473 315,173 967,1018 809,439" fill="rgb(255, 255, 0)" /><rect x="181" y="75" width="88" height="85" fill="rgb(255, 0, 0)" /><polygon points="1067,567 813,1479 954,1432 670,1293 764,690" fill="rgb(0, 0, 0)" /><circle cx="468" cy="1231" r="34" fill="rgb(255, 0, 0)" /><circle cx="983" cy="447" r="79" fill="rgb(0, 0, 0)" /><circle cx="36" cy="972" r="95" fill="rgb(255, 0, 0)" /><rect x="547" y="165" width="141" height="172" fill="rgb(0, 0, 255)" /><circle cx="688" cy="1436" r="54" fill="rgb(0, 0, 255)" /><rect x="936" y="1328" width="68" height="130" fill="rgb(255, 255, 0)" /><polygon points="278,991 675,186 302,524" fill="rgb(0, 0, 0)" /><rect x="591" y="88" width="151" height="190" fill="rgb(255, 0, 0)" /><circle cx="360" cy="421" r="47" fill="rgb(0, 0, 255)" /><rect x="1074" y="998" width="183" height="98" fill="rgb(255, 0, 0)" /><rect x="1022" y="1049" width="178" height="165" fill="rgb(255, 0, 0)" /><rect x="433" y="1109" width="160" height="54" fill="rgb(255, 0, 0)" /><circle cx="741" cy="1295" r="86" fill="rgb(255, 0, 0)" /><rect x="523" y="215" width="96" height="118" fill="rgb(0, 0, 0)" /><polygon points="671,518 218,387 1087,593 960,403 407,984 79,806" fill="rgb(255, 0, 0)" /><polygon points="621,1052 957,1382 328,1360" fill="rgb(0, 0, 255)" /><circle cx="471" cy="565" r="66" fill="rgb(0, 0, 255)" /><polygon points="73,1012 680,846 267,595 162,1223 702,1088" fill="rgb(0, 0, 255)" /><rect x="724" y="1463" width="140" height="169" fill="rgb(255, 0, 0)" /><circle cx="339" cy="1455" r="33" fill="rgb(0, 0, 0)" /><circle cx="73" cy="1103" r="45" fill="rgb(0, 0, 255)" /><circle cx="583" cy="568" r="66" fill="rgb(0, 0, 0)" /><polygon points="810,759 722,921 801,86 820,1313 158,89" fill="rgb(0, 0, 255)" /><circle cx="440" cy="290" r="80" fill="rgb(255, 0, 0)" /><polygon points="931,1251 362,1320 306,536 207,664 1034,1001" fill="rgb(255, 0, 0)" /><polygon points="121,379 423,582 823,346" fill="rgb(255, 255, 0)" /><rect x="768" y="171" width="79" height="90" fill="rgb(255, 0, 0)" /><rect x="128" y="720" width="188" height="78" fill="rgb(0, 0, 255)" /><rect x="723" y="1354" width="58" height="198" fill="rgb(255, 0, 0)" /><rect x="973" y="97" width="137" height="104" fill="rgb(255, 0, 0)" /><circle cx="402" cy="1336" r="82" fill="rgb(255, 255, 0)" /><circle cx="308" cy="727" r="67" fill="rgb(255, 0, 0)" /><rect x="1012" y="1362" width="104" height="77" fill="rgb(0, 0, 0)" /><polygon points="732,1391 42,1081 425,910 949,679" fill="rgb(255, 255, 0)" /><rect x="594" y="1077" width="93" height="139" fill="rgb(255, 255, 0)" /><rect x="563" y="309" width="192" height="168" fill="rgb(255, 255, 0)" /><rect x="770" y="1259" width="187" height="68" fill="rgb(0, 0, 255)" /></svg>