<svg xmlns="http://www.w3.org/2000/svg" width="1101" height="1500"><rect x="460" y="757" width="69" height="191" fill="rgb(0, 0, 0)" /><polygon points="135,197 510,882 177,854 495,1142 547,1162" fill="rgb(255, 0, 0)" /><circle cx="796" cy="891" r="53" fill="rgb(0, 0, 0)" /><rect x="912" y="1383" width="84" height="67" fill="rgb(0, 0, 255)" /><circle cx="1089" cy="336" r="85" fill="rgb(0, 0, 0)" /><circle cx="583" cy="20" r="29" fill="rgb(255, 255, 0)" /><circle cx="239" cy="693" r="79" fill="rgb(0, 0, 255)" /><circle cx="1065" cy="1465" r="95" fill="rgb(255, 255, 0)" /><rect x="577" y="1492" width="100" height="158" fill="rgb(255, 0, 0)" /><polygon points="255,295 1026,1261 323,615 405,1018 966,479 999,1203" fill="rgb(255, 0, 0)" /><circle cx="244" cy="867" r="42" fill="rgb(0, 0, 0)" /><circle cx="540" cy="420" r="77" fill="rgb(0, 0, 255)" /><rect x="951" y="54" width="71" height="90" fill="rgb(0, 0, 255)" /><circle cx="282" cy="87" r="75" fill="rgb(255, 0, 0)" /><polygon points="726,1243 847,1412 379,382 411,68 699,772 151,607" fill="rgb(255, 255, 0)" /><rect x="349" y="904" width="157" height="143" fill="rgb(255, 0, 0)" /><rect x="966" y="1251" width="75" height="180" fill="rgb(255, 255, 0)" /><polygon points="928,617 368,649 323,1430 425,507 60,429 912,777" fill="rgb(255, 0, 0)" /><rect x="608" y="1416" width="87" height="97" fill="rgb(0, 0, 0)" /><polygon points="48,1303 984,861 363,194 186,26 186,741" fill="rgb(255, 0, 0)" /><rect x="844" y="1328" width="166" height="135" fill="rgb(255, 255, 0)" /><rect x="872" y="300" width="92" height="87" fill="rgb(255, 0, 0)" /><rect x="614" y="289" width="59" height="50" fill="rgb(255, 255, 0)" /><polygon points="477,369 714,67 846,983 143,822" fill="rgb(255, 0, 0)" /><circle cx="291" cy="411" r="58" fill="rgb(0, 0, 255)" /><circle cx="115" cy="1147" r="33" fill="rgb(255, 255, 0)" /><circle cx="516" cy="95" r="86" fill="rgb(0, 0, 255)" /><polygon points="939,105 244,1396 956,833 722,907 781,866" fill="rgb(255, 255, 0)" /><rect x="999" y="298" width="190" height="56" fill="rgb(255, 0, 0)" /><polygon points="713,1298 928,185 251,1198" fill="rgb(0, 0, 255)" /><polygon points="71,1443 749,1285 632,468" fill="rgb(0, 0, 0)" /><polygon points="618,197 465,700 828,716" fill="rgb(0, 0, 255)" /><rect x="267" y="1483" width="66" height="73" fill="rgb(255, 255, 0)" /><rect x="674" y="27" width="163" height="106" fill="rgb(255, 255, 0)" /><polygon points="5,686 175,695 417,1164" fill="rgb(255, 0, 0)" /><rect x="1075" y="735" width="77" height="71" fill="rgb(0, 0, 0)" /><rect x="699" y="714" width="81" height="137" fill="rgb(0, 0, 255)" /><circle cx="530" cy="1277" r="93" fill="rgb(255, 0, 0)" /><polygon points="207,665 731,266 956,874 949,94 261,1304 819,127" fill="rgb(0, 0, 255)" /><polygon points="407,1360 302,1303 65,563" fill="rgb(255, 255, 0)" /><polygon points="351,317 962,1055 112,544" fill="rgb(255, 255, 0)" /><rect x="569" y="1081" width="136" height="172" fill="rgb(0, 0, 255)" /><circle cx="118" cy="594" r="68" fill="rgb(255, 255, 0)" /><circle cx="463" cy="725" r="30" fill="rgb(255, 0, 0)" /><circle cx="888" cy="609" r="64" fill="rgb(0, 0, 0)" /><polygon points="854,1369 84,933 736,471" fill="rgb(255, 255, 0)" /><circle cx="859" cy="589" r="74" fill="rgb(0, 0, 255)" /><rect x="173" y="19" width="90" height="178" fill="rgb(255, 255, 0)" /><circle cx="737" cy="872" r="59" fill="rgb(255, 0, 0)" /><polygon points="1021,721 527,1109 309,695 353,1416 1017,927" fill="rgb(255, 0, 0)" /><polygon points="314,1207 41,44 902,743 285,454" fill="rgb(0, 0, 0)" /><rect x="141" y="717" width="163" height="97" fill="rgb(255, 0, 0)" /><rect x="1080" y="33" width="164" height="99" fill="rgb(0, 0, 255)" /><circle cx="23" cy="1143" r="37" fill="rgb(0, 0, 0)" /><circle cx="809" cy="879" r="43" fill="rgb(0, 0, 0)" /><circle cx="425" cy="861" r="59" fill="rgb(255, 255, 0)" /><rect x="264" y="407" width="160" height="111" fill="rgb(255, 0, 0)" /><polygon points="471,732 449,1262 1075,114 1013,651" fill="rgb(255, 0, 0)" /><rect x="638" y="309" width="162" height="198" fill="rgb(0, 0, 0)" /><circle cx="972" cy="378" r="62" fill="rgb(255, 0, 0)" /><rect x="1065" y="856" width="193" height="183" fill="rgb(0, 0, 0)" /><rect x="564" y="9" width="107" height="53" fill="rgb(255, 0, 0)" /><circle cx="797" cy="338" r="93" fill="rgb(255, 255, 0)" /><rect x="1040" y="734" width="195" height="118" fill="rgb(0, 0, 255)" /><rect x="288" y="813" width="89" height="71" fill="rgb(0, 0, 255)" /><polygon points="409,258 738,1158 571,538 550,91 523,244" fill="rgb(0, 0, 255)" /><polygon points="127,1 857,1456 211,509 1097,628" fill="rgb(255, 0, 0)" /><circle cx="21" cy="308" r="27" fill="rgb(0, 0, 255)" /><circle cx="995" cy="1185" r="46" fill="rgb(0, 0, 0)" /><circle cx="388" cy="1267" r="87" fill="rgb(0, 0, 0)" /><circle cx="683" cy="152" r="96" fill="rgb(0, 0, 255)" /><polygon points="1000,993 0,1138 70,465 72,1432 562,954" fill="rgb(0, 0, 0)" /><polygon points="193,337 817,1121 337,821 206,384 990,1370" fill="rgb(255, 0, 0)" /><rect x="441" y="1045" width="63" height="52" fill="rgb(0, 0, 255)" /><rect x="830" y="953" width="139" height="121" fill="rgb(0, 0, 0)" /><circle cx="1000" cy="524" r="97" fill="rgb(0, 0, 255)" /><polygon points="14,846 874,451 495,267" fill="rgb(255, 255, 0)" /><circle cx="97" cy="1126" r="50" fill="rgb(0, 0, 0)" /><polygon points="1052,262 771,198 370,92 1090,720 335,623" fill="rgb(0, 0, 255)" /><circle cx="1016" cy="547" r="36" fill="rgb(255, 255, 0)" /><polygon points="1030,1100 474,1014 1035,140 1016,682 466,398" fill="rgb(0, 0, 0)" /><circle cx="733" cy="713" r="25" fill="rgb(0, 0, 0)" /><polygon points="10,421 739,85 996,583" fill="rgb(255, 0, 0)" /><circle cx="142" cy="281" r="38" fill="rgb(0, 0, 0)" /><circle cx="921" cy="766" r="61" fill="rgb(0, 0, 0)" /><circle cx="787" cy="984" r="59" fill="rgb(0, 0, 0)" /><circle cx="152" cy="1062" r="64" fill="rgb(255, 255, 0)" /><polygon points="584,971 391,886 45,44 926,938 850,1476 141,260" fill="rgb(255, 0, 0)" /><rect x="1069" y="1058" width="197" height="84" fill="rgb(0, 0, 255)" /><polygon points="1064,832 304,1033 848,1069 993,1046" fill="rgb(255, 255, 0)" /><rect x="1053" y="919" width="175" height="149" fill="rgb(255, 255, 0)" /><polygon points="711,156 13,747 840,367 116,260 255,8" fill="rgb(255, 0, 0)" /><polygon points="958,54 396,1098 437,505 431,1350 397,182" fill="rgb(0, 0, 0)" /><circle cx="986" cy="1457" r="94" fill="rgb(255, 0, 0)" /></svg>