<svg xmlns="http://www.w3.org/2000/svg" width="1101" height="1500"><polygon points="333,579 12,1034 854,410 670,97" fill="rgb(0, 0, 0)" /><circle cx="420" cy="508" r="83" fill="rgb(255, 0, 0)" /><rect x="858" y="1314" width="86" height="82" fill="rgb(255, 0, 0)" /><circle cx="915" cy="796" r="29" fill="rgb(0, 0, 0)" /><circle cx="72" cy="385" r="43" fill="rgb(255, 0, 0)" /><circle cx="41" cy="786" r="33" fill="rgb(0, 0, 0)" /><circle cx="641" cy="1487" r="57" fill="rgb(0, 0, 0)" /><polygon points="1057,455 827,455 450,947 571,615 340,379 774,86" fill="rgb(255, 0, 0)" /><polygon points="572,157 188,1001 1098,303 371,1102" fill="rgb(255, 255, 0)" /><circle cx="871" cy="1417" r="74" fill="rgb(0, 0, 0)" /><polygon points="613,333 312,1016 83,1220 528,154" fill="rgb(0, 0, 0)" /><rect x="411" y="785" width="180" height="60" fill="rgb(255, 0, 0)" /><polygon points="233,1096 910,714 236,587 680,1283" fill="rgb(0, 0, 255)" /><polygon points="214,703 102,25 117,524 68,900 595,549" fill="rgb(255, 0, 0)" /><polygon points="1064,863 1063,94 708,877 338,578" fill="rgb(0, 0, 255)" /><polygon points="217,966 402,411 686,1094" fill="rgb(0, 0, 255)" /><circle cx="888" cy="524" r="59" fill="rgb(0, 0, 255)" /><circle cx="1075" cy="1472" r="41" fill="rgb(255, 255, 0)" /><circle cx="1096" cy="1116" r="77" fill="rgb(255, 255, 0)" /><circle cx="221" cy="437" r="23" fill="rgb(255, 255, 0)" /><polygon points="1073,1045 626,525 587,942 481,72" fill="rgb(0, 0, 255)" /><polygon points="496,703 782,43 651,870 223,878 715,562 798,1007" fill="rgb(255, 0, 0)" /><circle cx="942" cy="343" r="65" fill="rgb(255, 255, 0)" /><polygon points="967,713 340,140 280,226 713,983 46,1374" fill="rgb(0, 0, 255)" /><polygon points="662,1447 410,1451 887,792 558,1448" fill="rgb(0, 0, 255)" /><circle cx="575" cy="447" r="31" fill="rgb(0, 0, 0)" /><circle cx="216" cy="1163" r="23" fill="rgb(255, 0, 0)" /><rect x="671" y="238" width="94" height="84" fill="rgb(255, 255, 0)" /><polygon points="780,1050 391,475 191,1492 240,500" fill="rgb(255, 255, 0)" /><polygon points="10,921 965,1440 822,1087" fill="rgb(0, 0, 0)" /><circle cx="434" cy="1107" r="95" fill="rgb(255, 255, 0)" /><polygon points="743,1121 873,1440 216,276 947,1234 952,559 389,891" fill="rgb(255, 255, 0)" /><polygon points="181,513 509,1417 1048,576" fill="rgb(255, 0, 0)" /><polygon points="313,1325 159,893 16,1226 1028,1268" fill="rgb(255, 255, 0)" /><circle cx="547" cy="273" r="90" fill="rgb(0, 0, 0)" /><polygon points="65,442 170,1466 401,269 514,84 898,603 810,1102" fill="rgb(0, 0, 0)" /><polygon points="124,858 1047,1216 448,1160 510,1396" fill="rgb(0, 0, 0)" /><polygon points="725,1019 16,29 644,1218" fill="rgb(255, 255, 0)" /><rect x="779" y="196" width="69" height="66" fill="rgb(255, 255, 0)" /><polygon points="896,527 733,152 765,992 562,1290 230,764 850,607" fill="rgb(255, 0, 0)" /><rect x="462" y="586" width="143" height="188" fill="rgb(0, 0, 0)" /><circle cx="677" cy="649" r="39" fill="rgb(0, 0, 0)" /><circle cx="316" cy="75" r="59" fill="rgb(0, 0, 0)" /><circle cx="24" cy="909" r="85" fill="rgb(255, 255, 0)" /><circle cx="1055" cy="186" r="62" fill="rgb(255, 255, 0)" /><polygon points="8,714 802,1433 443,47 308,1390 58,562" fill="rgb(255, 0, 0)" /><circle cx="243" cy="958" r="87" fill="rgb(255, 255, 0)" /><rect x="612" y="1114" width="68" height="50" fill="rgb(0, 0, 0)" /><polygon points="1077,943 628,236 242,471 321,1059 736,224" fill="rgb(255, 255, 0)" /><rect x="81" y="840" width="151" height="61" fill="rgb(255, 0, 0)" /><circle cx="952" cy="479" r="97" fill="rgb(255, 0, 0)" /><polygon points="99,1176 1001,1358 1075,1360 1006,962 121,1075" fill="rgb(0, 0, 255)" /><polygon points="842,1330 169,1322 939,1191" fill="rgb(0, 0, 255)" /><rect x="239" y="557" width="131" height="97" fill="rgb(255, 255, 0)" /><polygon points="652,434 735,372 150,235 732,1052 930,1323 628,948" fill="rgb(255, 0, 0)" /><polygon points="965,194 703,475 986,834" fill="rgb(0, 0, 255)" /><circle cx="797" cy="754" r="47" fill="rgb(0, 0, 255)" /><circle cx="243" cy="41" r="97" fill="rgb(0, 0, 0)" /><rect x="836" y="177" width="163" height="114" fill="rgb(255, 0, 0)" /><circle cx="183" cy="887" r="70" fill="rgb(0, 0, 255)" /><rect x="572" y="868" width="124" height="129" fill="rgb(255, 255, 0)" /><circle cx="259" cy="1319" r="25" fill="rgb(0, 0, 255)" /><rect x="271" y="676" width="104" height="161" fill="rgb(255, 0, 0)" /><rect x="725" y="674" width="50" height="158" fill="rgb(255, 255, 0)" /><rect x="81" y="675" width="117" height="198" fill="rgb(255, 0, 0)" /><polygon points="639,1415 889,72 1081,1308 279,1375 809,580" fill="rgb(255, 255, 0)" /><rect x="607" y="398" width="124" height="178" fill="rgb(255, 255, 0)" /><rect x="89" y="724" width="143" height="118" fill="rgb(0, 0, 0)" /><polygon points="154,520 923,1164 189,1364 313,1218" fill="rgb(255, 255, 0)" /><polygon points="332,1311 742,1424 1011,1250 504,315" fill="rgb(255, 0, 0)" /><rect x="208" y="1355" width="144" height="157" fill="rgb(255, 0, 0)" /><rect x="125" y="1364" width="151" height="89" fill="rgb(0, 0, 255)" /><circle cx="1058" cy="358" r="87" fill="rgb(255, 0, 0)" /><polygon points="108,1213 1024,1178 722,1003" fill="rgb(255, 255, 0)" /><polygon points="549,620 458,332 733,1400" fill="rgb(0, 0, 0)" /><rect x="1076" y="156" width="196" height="200" fill="rgb(255, 255, 0)" /><polygon points="470,541 20,1421 981,75 174,545" fill="rgb(0, 0, 255)" /><polygon points="880,793 144,1235 525,1129 63,805 638,949 111,700" fill="rgb(255, 0, 0)" /><rect x="495" y="62" width="141" height="93" fill="rgb(255, 0, 0)" /><polygon points="616,91 107,1112 606,437" fill="rgb(255, 255, 0)" /><polygon points="220,1142 650,1304 391,826 454,1174 967,0" fill="rgb(255, 0, 0)" /><polygon points="1088,148 176,596 743,362 101,1154" fill="rgb(0, 0, 255)" /><polygon points="1023,1495 758,651 170,1063 37,1083 963,1357" fill="rgb(255, 0, 0)" /><circle cx="394" cy="1007" r="34" fill="rgb(255, 0, 0)" /><rect x="537" y="1167" width="187" height="157" fill="rgb(255, 0, 0)" /><polygon points="816,578 254,617 213,16 1095,1090 153,863 722,61" fill="rgb(0, 0, 0)" /><rect x="331" y="324" width="122" height="78" fill="rgb(0, 0, 255)" /><rect x="860" y="348" width="145" height="100" fill="rgb(0, 0, 255)" /><rect x="301" y="894" width="176" height="50" fill="rgb(0, 0, 0)" /><rect x="9" y="135" width="168" height="95" fill="rgb(0, 0, 0)" /><circle cx="679" cy="155" r="21" fill="rgb(255, 0, 0)" /><circle cx="594" cy="1167" r="53" fill="rgb(255, 255, 0)" /><circle cx="231" cy="1080" r="50" fill="rgb(0, 0, 255)" /><circle cx="679" cy="1144" r="90" fill="rgb(255, 255, 0)" /><circle cx="776" cy="1084" r="69" fill="rgb(0, 0, 0)" /><polygon points="1087,1154 278,1248 344,845" fill="rgb(255, 255, 0)" /><polygon points="974,1153 364,867 114,688 120,675 58,12" fill="rgb(0, 0, 255)" /><polygon points="303,356 885,1247 921,894 671,1331" fill="rgb(0, 0, 255)" /><polygon points="260,355 869,1424 15,1442 16,584" fill="rgb(255, 0, 0)" /><rect x="655" y="76" width="186" height="188" fill="rgb(255, 0, 0)" /><rect x="497" y="276" width="113" height="99" fill="rgb(0, 0, 0)" /><circle cx="1042" cy="967" r="47" fill="rgb(0, 0, 0)" /><circle cx="947" cy="1123" r="25" fill="rgb(255, 0, 0)" /><polygon points="341,1482 997,156 719,1349 868,4 439,1194 1071,33" fill="rgb(255, 0, 0)" /><circle cx="573" cy="1061" r="40" fill="rgb(255, 255, 0)" /><polygon points="734,1142 70,350 819,695" fill="rgb(255, 0, 0)" /><polygon points="648,1394 345,942 440,848 241,971" fill="rgb(255, 0, 0)" /><polygon points="728,14 351,413 551,212 303,1044 301,1406" fill="rgb(255, 0, 0)" /><rect x="656" y="1049" width="191" height="76" fill="rgb(255, 0, 0)" /><polygon points="449,164 890,1086 951,912 945,45" fill="rgb(255, 0, 0)" /><circle cx="810" cy="1427" r="96" fill="rgb(255, 255, 0)" /><circle cx="104" cy="302" r="89" fill="rgb(255, 0, 0)" /><rect x="943" y="119" width="97" height="111" fill="rgb(255, 0, 0)" /><rect x="731" y="1098" width="102" height="119" fill="rgb(255, 0, 0)" /><circle cx="313" cy="1195" r="70" fill="rgb(0, 0, 255)" /><polygon points="573,1493 44,1035 677,1048 390,286" fill="rgb(0, 0, 255)" /><circle cx="803" cy="1229" r="41" fill="rgb(255, 0, 0)" /><circle cx="159" cy="23" r="37" fill="rgb(0, 0, 0)" /><circle cx="711" cy="1106" r="91" fill="rgb(255, 255, 0)" /><rect x="333" y="398" width="74" height="169" fill="rgb(0, 0, 255)" /><circle cx="285" cy="1195" r="91" fill="rgb(255, 0, 0)" /><polygon points="90,1489 1025,537 740,1155 539,1014 236,170 983,1343" fill="rgb(255, 255, 0)" /><rect x="1057" y="498" width="197" height="195" fill="rgb(255, 255, 0)" /><circle cx="782" cy="98" r="61" fill="rgb(255, 255, 0)" /><circle cx="484" cy="133" r="74" fill="rgb(255, 255, 0)" /><circle cx="653" cy="490" r="70" fill="rgb(255, 255, 0)" /><polygon points="863,1280 896,992 862,1240 395,527" fill="rgb(0, 0, 0)" /><rect x="618" y="1182" width="52" height="74" fill="rgb(255, 0, 0)" /><polygon points="211,640 625,78 465,1321 562,325 861,1023 181,832" fill="rgb(255, 255, 0)" /><rect x="33" y="1446" width="134" height="170" fill="rgb(255, 0, 0)" /><rect x="635" y="902" width="196" height="127" fill="rgb(255, 255, 0)" /><circle cx="1059" cy="733" r="95" fill="rgb(0, 0, 255)" /><polygon points="687,1481 233,26 811,259" fill="rgb(255, 0, 0)" /><rect x="256" y="1216" width="156" height="95" fill="rgb(0, 0, 0)" /><rect x="374" y="711" width="122" height="172" fill="rgb(255, 0, 0)" /><rect x="20" y="377" width="159" height="115" fill="rgb(0, 0, 255)" /><circle cx="38" cy="317" r="82" fill="rgb(255, 255, 0)" /><polygon points="385,807 108,1246 1008,960 873,81 204,424 84,321" fill="rgb(255, 255, 0)" /><circle cx="1062" cy="877" r="72" fill="rgb(255, 0, 0)" /><polygon points="1039,178 779,696 269,556 549,788 176,1378" fill="rgb(255, 0, 0)" /><rect x="1015" y="936" width="82" height="192" fill="rgb(0, 0, 0)" /><polygon points="79,1325 502,1228 969,331 773,671 703,482" fill="rgb(255, 0, 0)" /><rect x="959" y="1172" width="128" height="82" fill="rgb(255, 0, 0)" /><circle cx="683" cy="568" r="74" fill="rgb(255, 0, 0)" /><polygon points="625,124 582,1374 504,502 60,1245" fill="rgb(0, 0, 255)" /><circle cx="1019" cy="1307" r="94" fill="rgb(0, 0, 0)" /><circle cx="60" cy="829" r="65" fill="rgb(255, 255, 0)" /><polygon points="664,145 507,313 385,602 390,462 767,49" fill="rgb(255, 255, 0)" /><circle cx="780" cy="1320" r="62" fill="rgb(255, 255, 0)" /><polygon points="811,1419 572,1013 998,520 234,889 166,607 915,1466" fill="rgb(255, 255, 0)" /><polygon points="578,38 148,702 691,1067 1002,505" fill="rgb(255, 0, 0)" /><polygon points="544,771 909,1348 411,1150 584,815" fill="rgb(0, 0, 255)" /><circle cx="4" cy="1467" r="80" fill="rgb(0, 0, 255)" /><circle cx="1033" cy="1113" r="66" fill="rgb(255, 0, 0)" /><polygon points="147,395 318,195 215,248" fill="rgb(0, 0, 0)" /><rect x="361" y="249" width="171" height="200" fill="rgb(255, 0, 0)" /><circle cx="586" cy="1493" r="71" fill="rgb(255, 0, 0)" /><polygon points="617,1042 1024,1053 366,517 265,209 191,930" fill="rgb(0, 0, 255)" /><polygon points="326,1163 621,141 792,1203 320,499" fill="rgb(0, 0, 0)" /><rect x="31" y="741" width="54" height="101" fill="rgb(255, 0, 0)" /><circle cx="602" cy="294" r="45" fill="rgb(0, 0, 255)" /><polygon points="67,1249 633,1106 550,143" fill="rgb(255, 0, 0)" /><polygon points="180,1374 194,776 254,73 107,860 701,362 923,814" fill="rgb(0, 0, 0)" /><polygon points="84,771 814,866 9,1340 630,951" fill="rgb(0, 0, 0)" /><rect x="571" y="247" width="160" height="200" fill="rgb(0, 0, 255)" /><rect x="304" y="645" width="164" height="174" fill="rgb(255, 0, 0)" /></svg>