<svg xmlns="http://www.w3.org/2000/svg" width="1101" height="1500"><rect x="478" y="776" width="58" height="191" fill="rgb(255, 0, 0)" /><circle cx="700" cy="34" r="45" fill="rgb(255, 0, 0)" /><circle cx="53" cy="830" r="41" fill="rgb(0, 0, 0)" /><rect x="951" y="1250" width="51" height="79" fill="rgb(255, 0, 0)" /><polygon points="156,1291 504,1321 185,332 1013,990" fill="rgb(0, 0, 0)" /><polygon points="1033,659 865,1474 981,988 794,1067" fill="rgb(0, 0, 255)" /><rect x="16" y="174" width="101" height="99" fill="rgb(0, 0, 0)" /><rect x="10" y="1420" width="179" height="92" fill="rgb(0, 0, 0)" /><polygon points="640,554 395,100 798,263 1056,609 974,1164 177,474" fill="rgb(255, 255, 0)" /><polygon points="929,440 104,137 127,154" fill="rgb(0, 0, 0)" /><circle cx="528" cy="975" r="31" fill="rgb(0, 0, 255)" /><polygon points="542,268 742,1253 790,1109" fill="rgb(0, 0, 255)" /><rect x="349" y="467" width="134" height="92" fill="rgb(0, 0, 0)" /><circle cx="966" cy="794" r="78" fill="rgb(255, 255, 0)" /><rect x="271" y="574" width="52" height="190" fill="rgb(255, 255, 0)" /><circle cx="313" cy="540" r="60" fill="rgb(0, 0, 0)" /><circle cx="580" cy="168" r="63" fill="rgb(0, 0, 0)" /><circle cx="642" cy="579" r="70" fill="rgb(255, 255, 0)" /><rect x="153" y="153" width="71" height="88" fill="rgb(255, 0, 0)" /><circle cx="757" cy="704" r="57" fill="rgb(255, 0, 0)" /><rect x="425" y="1000" width="93" height="61" fill="rgb(255, 0, 0)" /><polygon points="514,690 335,998 969,1454" fill="rgb(255, 0, 0)" /><rect x="927" y="902" width="88" height="177" fill="rgb(255, 255, 0)" /><circle cx="110" cy="385" r="61" fill="rgb(255, 255, 0)" /><rect x="616" y="1202" width="57" height="187" fill="rgb(0, 0, 0)" /><rect x="473" y="815" width="146" height="156" fill="rgb(255, 255, 0)" /><circle cx="164" cy="1257" r="72" fill="rgb(255, 0, 0)" /><circle cx="954" cy="1460" r="62" fill="rgb(255, 255, 0)" /><circle cx="699" cy="1136" r="90" fill="rgb(255, 255, 0)" /><rect x="64" y="1468" width="127" height="186" fill="rgb(255, 255, 0)" /><rect x="238" y="278" width="111" height="81" fill="rgb(255, 0, 0)" /><polygon points="1031,844 514,1271 583,1500 397,806" fill="rgb(0, 0, 0)" /><polygon points="342,262 709,1461 769,117 797,1456 763,1090 764,686" fill="rgb(0, 0, 0)" /><polygon points="815,355 385,1282 353,500 873,1158 102,1399 852,802" fill="rgb(0, 0, 0)" /><rect x="346" y="1481" width="84" height="186" fill="rgb(0, 0, 255)" /><rect x="330" y="347" width="136" height="104" fill="rgb(255, 0, 0)" /><polygon points="1003,431 1090,193 742,97 150,987 567,101 963,541" fill="rgb(255, 0, 0)" /><rect x="133" y="599" width="99" height="129" fill="rgb(0, 0, 255)" /><rect x="1070" y="293" width="185" height="58" fill="rgb(0, 0, 255)" /><circle cx="120" cy="241" r="48" fill="rgb(0, 0, 0)" /><polygon points="593,247 297,1046 198,686 156,893 921,1436" fill="rgb(0, 0, 0)" /><polygon points="392,1432 983,1117 60,700 157,928 544,836 295,473" fill="rgb(0, 0, 0)" /><rect x="301" y="1053" width="178" height="154" fill="rgb(0, 0, 0)" /><polygon points="830,53 662,211 621,191 584,805 111,772" fill="rgb(255, 255, 0)" /><rect x="1024" y="827" width="108" height="86" fill="rgb(0, 0, 255)" /><rect x="734" y="1393" width="157" height="157" fill="rgb(0, 0, 255)" /><polygon points="714,252 817,911 979,1366 538,975 6,659 819,1330" fill="rgb(0, 0, 0)" /><rect x="918" y="1298" width="66" height="185" fill="rgb(0, 0, 0)" /><polygon points="668,245 710,922 388,406" fill="rgb(255, 255, 0)" /><rect x="997" y="1357" width="119" height="135" fill="rgb(255, 0, 0)" /><rect x="629" y="1355" width="163" height="174" fill="rgb(255, 255, 0)" /><polygon points="62,1154 915,980 197,1201 445,836 1072,675" fill="rgb(255, 255, 0)" /><rect x="338" y="779" width="139" height="64" fill="rgb(255, 255, 0)" /><circle cx="244" cy="830" r="69" fill="rgb(255, 0, 0)" /><polygon points="1071,1118 456,1277 347,61" fill="rgb(255, 0, 0)" /><polygon points="5,1224 710,788 612,209 532,238 729,948 212,248" fill="rgb(0, 0, 0)" /><circle cx="947" cy="63" r="87" fill="rgb(255, 255, 0)" /><rect x="247" y="1138" width="120" height="128" fill="rgb(255, 0, 0)" /><polygon points="147,1238 292,1457 626,440 572,19" fill="rgb(0, 0, 0)" /><rect x="277" y="113" width="72" height="85" fill="rgb(0, 0, 0)" /><rect x="870" y="580" width="187" height="191" fill="rgb(0, 0, 0)" /><rect x="156" y="4" width="112" height="190" fill="rgb(255, 255, 0)" /><polygon points="941,597 323,69 368,122" fill="rgb(255, 0, 0)" /><rect x="487" y="1161" width="104" height="190" fill="rgb(255, 0, 0)" /><rect x="434" y="306" width="148" height="157" fill="rgb(0, 0, 0)" /><rect x="705" y="692" width="119" height="189" fill="rgb(255, 255, 0)" /><circle cx="704" cy="188" r="92" fill="rgb(0, 0, 0)" /><rect x="993" y="288" width="134" height="137" fill="rgb(0, 0, 0)" /><circle cx="845" cy="82" r="56" fill="rgb(255, 255, 0)" /><polygon points="106,139 71,1053 486,204 336,1152" fill="rgb(255, 0, 0)" /><rect x="462" y="1361" width="54" height="193" fill="rgb(0, 0, 0)" /><rect x="496" y="684" width="199" height="62" fill="rgb(255, 255, 0)" /><circle cx="887" cy="28" r="79" fill="rgb(255, 0, 0)" /><circle cx="943" cy="347" r="45" fill="rgb(255, 0, 0)" /></svg>