<svg xmlns="http://www.w3.org/2000/svg" width="1101" height="1500"><rect x="1047" y="575" width="119" height="55" fill="rgb(255, 0, 0)" /><polygon points="767,778 793,984 486,1322" fill="rgb(255, 0, 0)" /><polygon points="593,1080 366,502 335,450 838,1277" fill="rgb(0, 0, 255)" /><circle cx="32" cy="1431" r="30" fill="rgb(0, 0, 255)" /><rect x="187" y="1137" width="75" height="160" fill="rgb(0, 0, 255)" /><polygon points="571,93 414,1177 861,1083" fill="rgb(255, 255, 0)" /><circle cx="582" cy="1036" r="65" fill="rgb(255, 255, 0)" /><polygon points="862,1370 545,843 273,1007 193,620 432,59" fill="rgb(255, 255, 0)" /><circle cx="409" cy="893" r="53" fill="rgb(0, 0, 0)" /><rect x="777" y="312" width="147" height="168" fill="rgb(0, 0, 0)" /><circle cx="752" cy="193" r="82" fill="rgb(255, 0, 0)" /><polygon points="667,766 333,1255 190,962 976,1207 854,680 383,1254" fill="rgb(255, 0, 0)" /><rect x="667" y="1416" width="128" height="175" fill="rgb(0, 0, 0)" /><circle cx="1059" cy="523" r="75" fill="rgb(0, 0, 0)" /><polygon points="196,732 622,329 423,1369 850,766 470,1494 202,1178" fill="rgb(0, 0, 255)" /><circle cx="675" cy="239" r="49" fill="rgb(255, 0, 0)" /><circle cx="824" cy="572" r="95" fill="rgb(0, 0, 255)" /><circle cx="455" cy="167" r="34" fill="rgb(255, 0, 0)" /><rect x="359" y="1476" width="61" height="163" fill="rgb(0, 0, 255)" /><polygon points="518,835 334,782 467,514 325,295 968,338" fill="rgb(0, 0, 0)" /><rect x="38" y="913" width="178" height="191" fill="rgb(0, 0, 255)" /><circle cx="503" cy="645" r="42" fill="rgb(0, 0, 255)" /><polygon points="117,276 811,1095 1042,157 1082,810 34,255" fill="rgb(255, 255, 0)" /><circle cx="166" cy="1306" r="78" fill="rgb(255, 0, 0)" /><rect x="98" y="106" width="146" height="130" fill="rgb(255, 255, 0)" /><circle cx="765" cy="880" r="32" fill="rgb(255, 255, 0)" /><polygon points="610,968 798,160 979,1376 842,890 734,1270 921,226" fill="rgb(255, 255, 0)" /><circle cx="1055" cy="706" r="37" fill="rgb(0, 0, 255)" /><circle cx="541" cy="518" r="61" fill="rgb(255, 255, 0)" /><circle cx="586" cy="1322" r="51" fill="rgb(0, 0, 255)" /><polygon points="727,118 324,672 1014,477 39,1033" fill="rgb(255, 255, 0)" /><rect x="890" y="94" width="118" height="189" fill="rgb(0, 0, 255)" /><polygon points="255,84 673,1465 561,578 219,54 589,64 506,477" fill="rgb(0, 0, 0)" /><polygon points="512,1207 654,1474 991,834" fill="rgb(0, 0, 255)" /><circle cx="148" cy="1387" r="26" fill="rgb(255, 255, 0)" /><polygon points="13,896 326,1406 630,129" fill="rgb(255, 255, 0)" /><polygon points="630,1225 58,1377 1072,242 533,664" fill="rgb(255, 255, 0)" /><rect x="342" y="1091" width="116" height="130" fill="rgb(0, 0, 255)" /><polygon points="1071,1066 765,734 902,222" fill="rgb(255, 0, 0)" /><polygon points="1045,1182 232,10 1062,1452 949,66 730,939 544,1462" fill="rgb(0, 0, 0)" /><circle cx="411" cy="1428" r="64" fill="rgb(0, 0, 0)" /><rect x="940" y="1031" width="101" height="93" fill="rgb(255, 255, 0)" /><circle cx="351" cy="1343" r="88" fill="rgb(0, 0, 0)" /><circle cx="103" cy="318" r="57" fill="rgb(255, 255, 0)" /><circle cx="561" cy="322" r="22" fill="rgb(255, 255, 0)" /><rect x="393" y="666" width="111" height="148" fill="rgb(255, 0, 0)" /><polygon points="475,774 1027,164 781,1453 102,725 290,501 82,133" fill="rgb(0, 0, 0)" /><polygon points="362,1052 830,199 136,1449 824,417" fill="rgb(0, 0, 0)" /><rect x="280" y="1206" width="132" height="64" fill="rgb(255, 0, 0)" /><rect x="1070" y="812" width="196" height="109" fill="rgb(255, 255, 0)" /><polygon points="771,1449 877,1263 977,174 282,459 428,949 1093,1023" fill="rgb(0, 0, 0)" /><rect x="34" y="270" width="51" height="78" fill="rgb(255, 255, 0)" /><circle cx="552" cy="795" r="24" fill="rgb(0, 0, 0)" /><rect x="391" y="490" width="133" height="53" fill="rgb(0, 0, 0)" /><polygon points="597,165 708,407 892,357 712,700 725,579 880,460" fill="rgb(0, 0, 0)" /><rect x="60" y="303" width="98" height="74" fill="rgb(0, 0, 0)" /><circle cx="308" cy="1150" r="34" fill="rgb(255, 255, 0)" /><rect x="250" y="997" width="69" height="51" fill="rgb(255, 0, 0)" /><polygon points="804,256 642,1202 928,217 1100,1222" fill="rgb(255, 0, 0)" /><rect x="263" y="659" width="87" height="71" fill="rgb(0, 0, 0)" /><circle cx="591" cy="1001" r="39" fill="rgb(0, 0, 255)" /><circle cx="332" cy="797" r="94" fill="rgb(255, 255, 0)" /><circle cx="1071" cy="1428" r="90" fill="rgb(255, 0, 0)" /><circle cx="458" cy="1357" r="23" fill="rgb(255, 255, 0)" /><rect x="118" y="398" width="88" height="91" fill="rgb(0, 0, 0)" /><rect x="331" y="1481" width="144" height="132" fill="rgb(0, 0, 255)" /><circle cx="68" cy="625" r="36" fill="rgb(0, 0, 0)" /><rect x="659" y="677" width="132" height="125" fill="rgb(0, 0, 255)" /><polygon points="967,217 679,155 88,723 21,1331 496,660 353,917" fill="rgb(255, 255, 0)" /><circle cx="882" cy="259" r="34" fill="rgb(0, 0, 0)" /><polygon points="1028,1180 59,961 778,249 727,1419 467,888" fill="rgb(255, 0, 0)" /><circle cx="135" cy="277" r="48" fill="rgb(255, 0, 0)" /><rect x="765" y="1431" width="80" height="72" fill="rgb(0, 0, 0)" /><rect x="51" y="687" width="134" height="103" fill="rgb(255, 0, 0)" /><circle cx="938" cy="1069" r="78" fill="rgb(255, 0, 0)" /><circle cx="1008" cy="527" r="69" fill="rgb(255, 255, 0)" /><polygon points="1068,1458 337,712 137,488 0,1318 525,942 951,583" fill="rgb(0, 0, 0)" /><rect x="249" y="1253" width="200" height="162" fill="rgb(0, 0, 255)" /><rect x="1058" y="880" width="182" height="160" fill="rgb(255, 255, 0)" /><rect x="169" y="150" width="106" height="95" fill="rgb(0, 0, 255)" /><polygon points="482,74 417,1047 491,40" fill="rgb(0, 0, 0)" /><rect x="457" y="756" width="83" height="132" fill="rgb(255, 0, 0)" /><rect x="707" y="1363" width="134" height="185" fill="rgb(0, 0, 255)" /><polygon points="922,489 136,1461 327,1023 681,330" fill="rgb(0, 0, 255)" /><circle cx="710" cy="1459" r="39" fill="rgb(0, 0, 0)" /><rect x="55" y="151" width="85" height="82" fill="rgb(255, 255, 0)" /><rect x="754" y="561" width="177" height="85" fill="rgb(255, 0, 0)" /><rect x="226" y="207" width="78" height="120" fill="rgb(255, 255, 0)" /><polygon points="770,1245 413,1090 187,657 939,1340" fill="rgb(255, 0, 0)" /><circle cx="889" cy="766" r="69" fill="rgb(0, 0, 255)" /><circle cx="113" cy="872" r="85" fill="rgb(0, 0, 255)" /><rect x="114" y="1387" width="58" height="104" fill="rgb(255, 0, 0)" /><circle cx="531" cy="72" r="72" fill="rgb(255, 255, 0)" /><rect x="676" y="444" width="198" height="114" fill="rgb(255, 255, 0)" /><circle cx="259" cy="457" r="68" fill="rgb(0, 0, 0)" /><circle cx="809" cy="1469" r="71" fill="rgb(255, 0, 0)" /><circle cx="869" cy="253" r="68" fill="rgb(255, 255, 0)" /><circle cx="433" cy="1042" r="87" fill="rgb(255, 255, 0)" /><rect x="570" y="1221" width="101" height="103" fill="rgb(255, 0, 0)" /><circle cx="600" cy="757" r="90" fill="rgb(255, 255, 0)" /><polygon points="303,263 112,1139 627,675 501,183 385,178" fill="rgb(255, 0, 0)" /><circle cx="982" cy="1198" r="84" fill="rgb(0, 0, 0)" /><circle cx="676" cy="1157" r="30" fill="rgb(255, 0, 0)" /><polygon points="86,1054 1083,121 358,1417 900,1102" fill="rgb(255, 255, 0)" /><polygon points="667,820 514,528 859,724" fill="rgb(0, 0, 0)" /><circle cx="757" cy="870" r="98" fill="rgb(255, 255, 0)" /><rect x="804" y="1296" width="194" height="62" fill="rgb(255, 0, 0)" /><circle cx="144" cy="480" r="33" fill="rgb(255, 255, 0)" /><polygon points="406,845 470,494 1055,327 604,962" fill="rgb(255, 255, 0)" /><polygon points="880,296 650,1065 551,627 867,372" fill="rgb(0, 0, 0)" /><circle cx="668" cy="1284" r="47" fill="rgb(255, 0, 0)" /><polygon points="101,1329 671,615 989,747 50,1358" fill="rgb(0, 0, 255)" /><polygon points="610,557 180,1427 308,253 537,243" fill="rgb(255, 255, 0)" /><circle cx="2" cy="727" r="36" fill="rgb(0, 0, 0)" /><polygon points="41,1267 408,509 701,1073" fill="rgb(255, 255, 0)" /><polygon points="226,1490 800,1165 447,1375 755,1069" fill="rgb(0, 0, 0)" /><circle cx="915" cy="1353" r="87" fill="rgb(0, 0, 0)" /><rect x="240" y="582" width="69" height="60" fill="rgb(0, 0, 255)" /><circle cx="498" cy="721" r="93" fill="rgb(0, 0, 0)" /><polygon points="554,1272 271,986 199,862" fill="rgb(255, 255, 0)" /><rect x="668" y="78" width="150" height="51" fill="rgb(0, 0, 255)" /><rect x="538" y="489" width="110" height="135" fill="rgb(255, 0, 0)" /><rect x="595" y="847" width="122" height="69" fill="rgb(255, 0, 0)" /><circle cx="12" cy="705" r="95" fill="rgb(0, 0, 255)" /><polygon points="217,49 592,69 574,466 387,772 1033,275 302,427" fill="rgb(255, 0, 0)" /><polygon points="760,1201 103,207 254,193" fill="rgb(0, 0, 0)" /><circle cx="62" cy="12" r="41" fill="rgb(0, 0, 255)" /><polygon points="130,51 394,1057 592,157 414,528 422,23" fill="rgb(255, 0, 0)" /><polygon points="653,968 985,451 498,209 258,305" fill="rgb(255, 255, 0)" /><polygon points="256,910 640,204 728,297 800,308" fill="rgb(0, 0, 0)" /><circle cx="247" cy="1117" r="24" fill="rgb(0, 0, 255)" /><polygon points="823,204 845,610 269,989 202,1248 830,933 200,458" fill="rgb(255, 0, 0)" /><polygon points="328,857 28,880 225,1303 615,311 542,897" fill="rgb(0, 0, 0)" /><circle cx="87" cy="1046" r="82" fill="rgb(255, 0, 0)" /><circle cx="932" cy="668" r="34" fill="rgb(255, 0, 0)" /><polygon points="520,85 84,46 1082,1494 382,169" fill="rgb(255, 0, 0)" /><rect x="603" y="1090" width="137" height="198" fill="rgb(0, 0, 0)" /><circle cx="576" cy="1229" r="60" fill="rgb(0, 0, 0)" /><rect x="98" y="332" width="161" height="86" fill="rgb(255, 0, 0)" /><circle cx="1083" cy="501" r="33" fill="rgb(255, 0, 0)" /><rect x="555" y="257" width="134" height="154" fill="rgb(0, 0, 0)" /><circle cx="586" cy="1479" r="41" fill="rgb(0, 0, 0)" /><polygon points="322,835 12,724 802,1388 378,392 99,1078" fill="rgb(255, 255, 0)" /><circle cx="950" cy="1201" r="57" fill="rgb(0, 0, 255)" /><circle cx="419" cy="402" r="22" fill="rgb(0, 0, 0)" /><rect x="746" y="395" width="112" height="144" fill="rgb(0, 0, 255)" /><circle cx="643" cy="266" r="77" fill="rgb(0, 0, 255)" /><polygon points="421,1429 824,876 865,1150" fill="rgb(0, 0, 255)" /><circle cx="376" cy="1228" r="70" fill="rgb(255, 255, 0)" /><polygon points="78,596 197,1395 1067,668 408,386 564,308" fill="rgb(0, 0, 255)" /><rect x="756" y="1081" width="53" height="158" fill="rgb(255, 255, 0)" /><polygon points="738,251 392,1150 959,746 473,1141 262,143 132,1186" fill="rgb(255, 255, 0)" /><rect x="674" y="999" width="96" height="94" fill="rgb(0, 0, 0)" /><polygon points="349,952 211,805 564,660 764,431 1052,1139" fill="rgb(0, 0, 255)" /><rect x="1017" y="74" width="124" height="113" fill="rgb(0, 0, 0)" /><circle cx="1066" cy="200" r="86" fill="rgb(255, 255, 0)" /><rect x="964" y="146" width="121" height="70" fill="rgb(0, 0, 0)" /><circle cx="974" cy="1426" r="41" fill="rgb(255, 0, 0)" /><polygon points="842,1231 745,787 847,1200 905,461 433,805 406,272" fill="rgb(0, 0, 0)" /><circle cx="1010" cy="947" r="35" fill="rgb(255, 0, 0)" /><polygon points="688,723 1090,1215 543,159 65,1036 400,505 519,705" fill="rgb(255, 0, 0)" /><circle cx="1069" cy="1412" r="20" fill="rgb(255, 0, 0)" /><circle cx="944" cy="828" r="98" fill="rgb(0, 0, 255)" /><rect x="232" y="1462" width="54" height="87" fill="rgb(255, 255, 0)" /><rect x="901" y="208" width="50" height="131" fill="rgb(255, 0, 0)" /><circle cx="843" cy="647" r="77" fill="rgb(255, 0, 0)" /><rect x="646" y="868" width="54" height="93" fill="rgb(255, 0, 0)" /><polygon points="51,927 391,1260 1075,531 954,1227" fill="rgb(255, 255, 0)" /></svg>