<svg xmlns="http://www.w3.org/2000/svg" width="1101" height="1500"><polygon points="516,892 627,893 198,1360" fill="rgb(0, 0, 255)" /><circle cx="729" cy="136" r="80" fill="rgb(255, 255, 0)" /><polygon points="580,1132 927,171 503,1457 1024,562 280,40 787,243" fill="rgb(255, 255, 0)" /><polygon points="632,994 276,324 581,1314 275,180 1071,73 613,714" fill="rgb(0, 0, 0)" /><circle cx="510" cy="1250" r="26" fill="rgb(255, 0, 0)" /><circle cx="1080" cy="909" r="85" fill="rgb(0, 0, 255)" /><circle cx="254" cy="814" r="37" fill="rgb(0, 0, 0)" /><circle cx="715" cy="323" r="22" fill="rgb(0, 0, 255)" /><rect x="782" y="242" width="117" height="151" fill="rgb(0, 0, 0)" /><polygon points="462,162 729,924 1054,1180 46,468 76,420 964,620" fill="rgb(0, 0, 255)" /><circle cx="1017" cy="894" r="47" fill="rgb(0, 0, 255)" /><rect x="372" y="519" width="174" height="192" fill="rgb(255, 0, 0)" /><rect x="803" y="1185" width="113" height="64" fill="rgb(0, 0, 0)" /><circle cx="225" cy="1406" r="26" fill="rgb(0, 0, 255)" /><circle cx="257" cy="600" r="97" fill="rgb(255, 255, 0)" /><rect x="695" y="327" width="63" height="189" fill="rgb(255, 255, 0)" /><polygon points="888,246 636,533 390,73" fill="rgb(0, 0, 0)" /><circle cx="439" cy="604" r="82" fill="rgb(255, 0, 0)" /><circle cx="840" cy="1402" r="31" fill="rgb(255, 0, 0)" /><rect x="172" y="689" width="123" height="58" fill="rgb(255, 255, 0)" /><rect x="656" y="936" width="125" height="95" fill="rgb(0, 0, 0)" /><polygon points="201,1096 929,945 148,744 154,1325 528,1056" fill="rgb(255, 255, 0)" /><circle cx="97" cy="862" r="30" fill="rgb(0, 0, 255)" /><circle cx="289" cy="584" r="24" fill="rgb(0, 0, 255)" /><circle cx="1038" cy="1074" r="59" fill="rgb(0, 0, 255)" /><polygon points="423,1068 38,546 230,458" fill="rgb(255, 255, 0)" /><circle cx="400" cy="846" r="100" fill="rgb(0, 0, 0)" /><rect x="534" y="1192" width="99" height="145" fill="rgb(255, 255, 0)" /><circle cx="106" cy="1424" r="59" fill="rgb(0, 0, 255)" /><circle cx="490" cy="696" r="47" fill="rgb(0, 0, 255)" /><circle cx="78" cy="653" r="65" fill="rgb(0, 0, 255)" /><circle cx="530" cy="749" r="68" fill="rgb(0, 0, 255)" /><polygon points="505,1064 326,571 918,476 931,947 244,1092" fill="rgb(0, 0, 0)" /><rect x="349" y="94" width="133" height="185" fill="rgb(0, 0, 255)" /><rect x="1005" y="1389" width="110" height="56" fill="rgb(0, 0, 255)" /><polygon points="398,583 779,531 448,233 570,1284" fill="rgb(255, 255, 0)" /><circle cx="756" cy="1362" r="81" fill="rgb(0, 0, 255)" /><circle cx="762" cy="546" r="32" fill="rgb(0, 0, 255)" /><rect x="820" y="920" width="94" height="138" fill="rgb(0, 0, 255)" /><polygon points="129,1394 655,682 190,85 966,797 951,1197" fill="rgb(0, 0, 255)" /><polygon points="435,1284 439,753 943,1054" fill="rgb(255, 0, 0)" /><circle cx="1036" cy="554" r="71" fill="rgb(0, 0, 255)" /><circle cx="186" cy="135" r="98" fill="rgb(255, 255, 0)" /><polygon points="6,1410 168,1127 810,1004 156,537" fill="rgb(0, 0, 0)" /><polygon points="523,1231 381,559 455,172 708,451 302,720" fill="rgb(255, 255, 0)" /><rect x="97" y="227" width="155" height="143" fill="rgb(255, 255, 0)" /><polygon points="765,960 773,1187 356,5" fill="rgb(255, 255, 0)" /><polygon points="1074,906 305,142 77,473 90,1346 1094,665" fill="rgb(0, 0, 0)" /><polygon points="855,1110 940,92 695,124" fill="rgb(255, 255, 0)" /><polygon points="652,139 608,1299 774,168 698,185 288,539 363,82" fill="rgb(255, 0, 0)" /><polygon points="135,1079 750,1495 472,797 410,538" fill="rgb(0, 0, 0)" /><circle cx="935" cy="647" r="58" fill="rgb(255, 0, 0)" /><rect x="310" y="1129" width="51" height="100" fill="rgb(0, 0, 255)" /><rect x="992" y="455" width="187" height="61" fill="rgb(255, 255, 0)" /><circle cx="952" cy="533" r="54" fill="rgb(0, 0, 0)" /><polygon points="200,281 43,1268 460,1272 293,817 164,1374 662,1222" fill="rgb(0, 0, 0)" /><circle cx="339" cy="111" r="44" fill="rgb(0, 0, 0)" /><rect x="809" y="401" width="57" height="97" fill="rgb(255, 0, 0)" /><circle cx="801" cy="1278" r="63" fill="rgb(255, 255, 0)" /><circle cx="91" cy="941" r="57" fill="rgb(0, 0, 255)" /><rect x="731" y="253" width="164" height="191" fill="rgb(255, 255, 0)" /><circle cx="179" cy="784" r="60" fill="rgb(255, 255, 0)" /><polygon points="601,824 441,1057 84,189 916,77 783,186" fill="rgb(255, 255, 0)" /><circle cx="807" cy="1375" r="100" fill="rgb(0, 0, 255)" /><polygon points="764,693 66,1226 704,817 481,1360" fill="rgb(0, 0, 255)" /><circle cx="221" cy="1029" r="36" fill="rgb(255, 255, 0)" /><rect x="251" y="414" width="114" height="53" fill="rgb(0, 0, 0)" /><polygon points="238,1054 636,779 311,618 731,468 471,1257" fill="rgb(0, 0, 255)" /><circle cx="100" cy="428" r="51" fill="rgb(255, 0, 0)" /><polygon points="394,115 581,442 407,355 345,1480" fill="rgb(0, 0, 255)" /><rect x="612" y="766" width="133" height="155" fill="rgb(255, 0, 0)" /><circle cx="1095" cy="290" r="47" fill="rgb(255, 255, 0)" /><polygon points="619,833 1067,246 773,1261 991,79 850,798" fill="rgb(255, 255, 0)" /><rect x="596" y="464" width="106" height="168" fill="rgb(0, 0, 255)" /><rect x="472" y="688" width="199" height="198" fill="rgb(255, 0, 0)" /><rect x="506" y="38" width="128" height="118" fill="rgb(0, 0, 255)" /><rect x="947" y="533" width="80" height="140" fill="rgb(255, 0, 0)" /><polygon points="962,28 1062,583 826,373" fill="rgb(255, 0, 0)" /><polygon points="814,565 728,316 711,431 432,785" fill="rgb(0, 0, 255)" /><rect x="118" y="973" width="84" height="57" fill="rgb(255, 255, 0)" /><polygon points="400,95 615,1050 868,1266 219,229" fill="rgb(255, 0, 0)" /><circle cx="235" cy="393" r="68" fill="rgb(255, 0, 0)" /><polygon points="462,1017 225,566 6,714" fill="rgb(0, 0, 255)" /><circle cx="18" cy="1248" r="90" fill="rgb(0, 0, 255)" /><circle cx="976" cy="1003" r="53" fill="rgb(255, 0, 0)" /><rect x="541" y="567" width="166" height="67" fill="rgb(255, 255, 0)" /><circle cx="748" cy="1257" r="62" fill="rgb(255, 0, 0)" /><rect x="382" y="656" width="108" height="107" fill="rgb(255, 0, 0)" /><rect x="532" y="653" width="81" height="98" fill="rgb(255, 0, 0)" /><polygon points="829,44 423,6 479,1379 399,148 935,1192 861,1113" fill="rgb(0, 0, 0)" /><circle cx="431" cy="187" r="72" fill="rgb(255, 0, 0)" /><circle cx="766" cy="1251" r="32" fill="rgb(255, 255, 0)" /></svg>