<svg xmlns="http://www.w3.org/2000/svg" width="1101" height="1500"><rect x="519" y="915" width="93" height="143" fill="rgb(255, 0, 0)" /><rect x="701" y="1424" width="134" height="171" fill="rgb(0, 0, 255)" /><polygon points="712,540 204,432 156,779" fill="rgb(255, 0, 0)" /><rect x="524" y="984" width="166" height="127" fill="rgb(255, 255, 0)" /><rect x="134" y="1032" width="67" height="65" fill="rgb(255, 255, 0)" /><circle cx="878" cy="843" r="66" fill="rgb(255, 255, 0)" /><polygon points="771,1450 623,1071 314,505 730,869" fill="rgb(0, 0, 255)" /><polygon points="930,248 217,880 4,1293 478,1075 67,711" fill="rgb(0, 0, 0)" /><rect x="1099" y="232" width="177" height="180" fill="rgb(255, 0, 0)" /><polygon points="35,727 836,1367 186,807 578,1091" fill="rgb(0, 0, 255)" /><rect x="132" y="1495" width="52" height="66" fill="rgb(0, 0, 0)" /><rect x="166" y="1048" width="106" height="78" fill="rgb(0, 0, 255)" /><polygon points="139,1041 941,1385 718,478 404,1288" fill="rgb(255, 255, 0)" /><polygon points="432,1300 1064,653 872,592 617,573" fill="rgb(0, 0, 255)" /><polygon points="511,853 850,523 588,607 232,703 418,1197 319,910" fill="rgb(255, 0, 0)" /><circle cx="7" cy="219" r="30" fill="rgb(255, 255, 0)" /><circle cx="453" cy="794" r="45" fill="rgb(255, 0, 0)" /><polygon points="432,1024 242,773 672,1466 154,678 264,759" fill="rgb(255, 255, 0)" /><circle cx="100" cy="1314" r="47" fill="rgb(0, 0, 255)" /><rect x="339" y="1314" width="119" height="153" fill="rgb(255, 0, 0)" /><circle cx="553" cy="607" r="64" fill="rgb(0, 0, 255)" /><circle cx="575" cy="1107" r="96" fill="rgb(255, 255, 0)" /><rect x="766" y="181" width="99" height="57" fill="rgb(0, 0, 0)" /><circle cx="710" cy="312" r="32" fill="rgb(255, 255, 0)" /><circle cx="157" cy="1240" r="27" fill="rgb(0, 0, 0)" /><polygon points="687,918 365,1037 130,936" fill="rgb(255, 255, 0)" /><polygon points="0,1104 1033,735 692,1162" fill="rgb(0, 0, 0)" /><polygon points="412,848 450,310 799,639 754,1400 827,187 328,498" fill="rgb(255, 0, 0)" /><polygon points="530,502 1081,1214 340,1419" fill="rgb(255, 0, 0)" /><rect x="114" y="1491" width="130" height="93" fill="rgb(255, 0, 0)" /><rect x="78" y="903" width="117" height="147" fill="rgb(0, 0, 0)" /><rect x="622" y="256" width="152" height="196" fill="rgb(255, 0, 0)" /><rect x="594" y="480" width="74" height="73" fill="rgb(0, 0, 255)" /><circle cx="654" cy="213" r="89" fill="rgb(0, 0, 0)" /><circle cx="53" cy="82" r="67" fill="rgb(255, 0, 0)" /><polygon points="996,872 157,635 120,38 781,241 368,1407 301,342" fill="rgb(255, 255, 0)" /><circle cx="783" cy="414" r="87" fill="rgb(0, 0, 255)" /><polygon points="815,1263 558,648 851,652 227,363 788,462 329,940" fill="rgb(0, 0, 255)" /><polygon points="609,1015 621,676 983,463 212,1227 676,287 638,969" fill="rgb(0, 0, 0)" /><circle cx="274" cy="365" r="99" fill="rgb(255, 0, 0)" /><circle cx="419" cy="1329" r="54" fill="rgb(0, 0, 0)" /><circle cx="426" cy="581" r="20" fill="rgb(255, 0, 0)" /><rect x="879" y="1449" width="91" height="51" fill="rgb(255, 0, 0)" /><rect x="212" y="605" width="188" height="169" fill="rgb(0, 0, 255)" /><polygon points="1060,846 87,985 949,507 669,1067" fill="rgb(0, 0, 0)" /><polygon points="788,304 684,97 1026,939" fill="rgb(0, 0, 0)" /><polygon points="120,1500 997,469 237,599 310,954 979,392" fill="rgb(255, 0, 0)" /><circle cx="159" cy="464" r="71" fill="rgb(0, 0, 0)" /><polygon points="122,477 769,1387 378,1166 367,426" fill="rgb(255, 255, 0)" /><rect x="112" y="734" width="76" height="185" fill="rgb(0, 0, 0)" /><rect x="701" y="472" width="107" height="154" fill="rgb(255, 0, 0)" /><rect x="264" y="1422" width="86" height="149" fill="rgb(0, 0, 255)" /><circle cx="463" cy="859" r="89" fill="rgb(0, 0, 255)" /><rect x="160" y="422" width="118" height="180" fill="rgb(255, 255, 0)" /><rect x="208" y="203" width="54" height="143" fill="rgb(0, 0, 0)" /><rect x="326" y="1373" width="155" height="97" fill="rgb(255, 0, 0)" /><circle cx="218" cy="1037" r="24" fill="rgb(0, 0, 0)" /><rect x="751" y="775" width="133" height="91" fill="rgb(0, 0, 255)" /><circle cx="955" cy="602" r="23" fill="rgb(0, 0, 255)" /><polygon points="843,1251 836,867 797,1070 386,1423 22,117 818,603" fill="rgb(0, 0, 0)" /><rect x="985" y="592" width="78" height="60" fill="rgb(0, 0, 0)" /><circle cx="46" cy="457" r="57" fill="rgb(255, 255, 0)" /><circle cx="1095" cy="982" r="94" fill="rgb(0, 0, 255)" /><circle cx="153" cy="1027" r="92" fill="rgb(0, 0, 0)" /><polygon points="937,1401 441,1361 311,1104 549,1485 368,206 562,1361" fill="rgb(0, 0, 0)" /><rect x="249" y="322" width="189" height="58" fill="rgb(255, 255, 0)" /><rect x="850" y="1240" width="150" height="124" fill="rgb(0, 0, 0)" /><circle cx="182" cy="382" r="25" fill="rgb(0, 0, 255)" /><circle cx="869" cy="743" r="70" fill="rgb(255, 0, 0)" /><rect x="383" y="602" width="88" height="148" fill="rgb(255, 0, 0)" /><rect x="407" y="432" width="130" height="78" fill="rgb(0, 0, 255)" /><rect x="1064" y="288" width="53" height="164" fill="rgb(0, 0, 255)" /><polygon points="657,1011 711,274 484,216" fill="rgb(255, 0, 0)" /><circle cx="185" cy="39" r="50" fill="rgb(0, 0, 0)" /><rect x="947" y="302" width="66" height="147" fill="rgb(0, 0, 0)" /><circle cx="851" cy="1360" r="81" fill="rgb(0, 0, 255)" /><circle cx="625" cy="377" r="65" fill="rgb(255, 255, 0)" /><circle cx="66" cy="429" r="45" fill="rgb(0, 0, 0)" /><circle cx="600" cy="857" r="44" fill="rgb(0, 0, 0)" /><rect x="894" y="426" width="163" height="133" fill="rgb(0, 0, 0)" /><circle cx="702" cy="231" r="61" fill="rgb(0, 0, 0)" /><rect x="56" y="209" width="72" height="94" fill="rgb(255, 255, 0)" /><polygon points="356,893 613,377 1085,190" fill="rgb(0, 0, 255)" /><polygon points="628,430 1064,1339 170,692 82,680 740,1167" fill="rgb(255, 255, 0)" /><rect x="650" y="1207" width="141" height="147" fill="rgb(255, 0, 0)" /><polygon points="698,1032 343,1443 211,165" fill="rgb(255, 255, 0)" /><circle cx="192" cy="950" r="37" fill="rgb(0, 0, 255)" /><circle cx="1035" cy="890" r="32" fill="rgb(0, 0, 0)" /><rect x="1055" y="294" width="184" height="65" fill="rgb(0, 0, 255)" /><rect x="1071" y="1354" width="70" height="66" fill="rgb(0, 0, 255)" /><rect x="745" y="1059" width="51" height="160" fill="rgb(0, 0, 255)" /><polygon points="560,488 142,1011 66,1277 769,1322" fill="rgb(0, 0, 255)" /><rect x="135" y="315" width="169" height="98" fill="rgb(0, 0, 255)" /><polygon points="447,800 282,6 840,938" fill="rgb(0, 0, 0)" /><rect x="380" y="933" width="85" height="81" fill="rgb(0, 0, 0)" /><rect x="969" y="1193" width="132" height="60" fill="rgb(255, 0, 0)" /><polygon points="87,499 986,910 961,82 773,387 641,70" fill="rgb(255, 255, 0)" /><rect x="668" y="444" width="79" height="179" fill="rgb(255, 255, 0)" /><rect x="170" y="126" width="131" height="131" fill="rgb(255, 0, 0)" /><circle cx="900" cy="139" r="43" fill="rgb(255, 255, 0)" /><polygon points="658,1434 361,297 383,236 1053,527 829,1395 909,908" fill="rgb(0, 0, 255)" /><circle cx="981" cy="665" r="99" fill="rgb(255, 255, 0)" /><rect x="35" y="205" width="106" height="118" fill="rgb(0, 0, 0)" /><rect x="443" y="204" width="177" height="89" fill="rgb(255, 0, 0)" /><rect x="385" y="1005" width="86" height="137" fill="rgb(0, 0, 255)" /><circle cx="597" cy="497" r="65" fill="rgb(255, 0, 0)" /><rect x="675" y="482" width="92" height="185" fill="rgb(255, 255, 0)" /><polygon points="298,1186 434,452 953,762 315,728 420,1004" fill="rgb(0, 0, 255)" /><polygon points="31,88 26,198 369,1494" fill="rgb(255, 0, 0)" /><rect x="851" y="1265" width="102" height="77" fill="rgb(0, 0, 0)" /><rect x="852" y="907" width="129" height="96" fill="rgb(255, 255, 0)" /><circle cx="221" cy="30" r="49" fill="rgb(255, 255, 0)" /><circle cx="792" cy="1244" r="90" fill="rgb(0, 0, 255)" /><circle cx="891" cy="1314" r="50" fill="rgb(0, 0, 255)" /><rect x="882" y="80" width="171" height="98" fill="rgb(255, 0, 0)" /><circle cx="486" cy="922" r="33" fill="rgb(255, 0, 0)" /><circle cx="1067" cy="934" r="91" fill="rgb(255, 255, 0)" /><polygon points="705,162 632,799 682,1319 612,100 819,478" fill="rgb(255, 0, 0)" /><polygon points="215,391 203,272 372,454 699,48 308,1488 706,1003" fill="rgb(0, 0, 0)" /><rect x="400" y="1150" width="180" height="115" fill="rgb(0, 0, 0)" /><rect x="305" y="659" width="191" height="159" fill="rgb(255, 0, 0)" /><polygon points="185,836 912,1037 937,1090 268,492 226,71 351,1357" fill="rgb(0, 0, 255)" /><polygon points="958,287 77,980 301,972" fill="rgb(0, 0, 255)" /><rect x="360" y="739" width="104" height="186" fill="rgb(0, 0, 255)" /><circle cx="998" cy="1145" r="57" fill="rgb(255, 255, 0)" /><rect x="442" y="1189" width="124" height="67" fill="rgb(0, 0, 0)" /><circle cx="511" cy="656" r="61" fill="rgb(0, 0, 0)" /><circle cx="357" cy="820" r="87" fill="rgb(0, 0, 255)" /><rect x="3" y="1178" width="176" height="150" fill="rgb(255, 0, 0)" /><circle cx="692" cy="851" r="45" fill="rgb(255, 0, 0)" /><circle cx="230" cy="762" r="20" fill="rgb(255, 255, 0)" /><rect x="302" y="509" width="92" height="122" fill="rgb(0, 0, 255)" /><polygon points="118,337 58,298 69,1378 873,638 563,26 259,1215" fill="rgb(255, 255, 0)" /><circle cx="52" cy="1084" r="85" fill="rgb(255, 0, 0)" /><polygon points="693,567 161,1447 649,1083 212,375 789,1155" fill="rgb(0, 0, 0)" /><rect x="648" y="58" width="75" height="147" fill="rgb(0, 0, 255)" /><rect x="886" y="390" width="67" height="195" fill="rgb(0, 0, 0)" /><rect x="856" y="1426" width="160" height="139" fill="rgb(0, 0, 255)" /><polygon points="1008,1084 135,273 537,1462" fill="rgb(0, 0, 255)" /><rect x="367" y="722" width="165" height="141" fill="rgb(0, 0, 255)" /><polygon points="593,941 399,971 741,964 871,415 317,1073 202,915" fill="rgb(0, 0, 0)" /><rect x="571" y="969" width="157" height="145" fill="rgb(255, 255, 0)" /><rect x="223" y="327" width="115" height="93" fill="rgb(255, 0, 0)" /><circle cx="166" cy="368" r="69" fill="rgb(0, 0, 255)" /><rect x="534" y="636" width="172" height="87" fill="rgb(255, 255, 0)" /><polygon points="184,795 415,1007 816,82 129,128 855,1278 620,546" fill="rgb(0, 0, 0)" /><rect x="895" y="1343" width="190" height="77" fill="rgb(255, 255, 0)" /><polygon points="82,417 313,291 724,888" fill="rgb(0, 0, 255)" /><polygon points="844,1005 464,1324 641,1014 639,1331" fill="rgb(255, 0, 0)" /><polygon points="34,1489 680,956 517,659 1101,310 265,522" fill="rgb(0, 0, 255)" /><rect x="708" y="842" width="123" height="124" fill="rgb(0, 0, 255)" /><circle cx="241" cy="211" r="36" fill="rgb(0, 0, 255)" /><rect x="1092" y="745" width="89" height="65" fill="rgb(255, 255, 0)" /><polygon points="903,755 614,334 442,320 994,122" fill="rgb(0, 0, 0)" /><polygon points="732,626 1069,809 905,1404 616,1289 395,753" fill="rgb(0, 0, 0)" /><circle cx="502" cy="757" r="96" fill="rgb(255, 0, 0)" /><polygon points="295,855 414,1245 807,542 308,809 1055,637 882,646" fill="rgb(255, 255, 0)" /><polygon points="313,560 796,79 231,1482 48,746 285,539" fill="rgb(0, 0, 0)" /><circle cx="326" cy="249" r="40" fill="rgb(255, 0, 0)" /><rect x="1044" y="721" width="98" height="156" fill="rgb(255, 255, 0)" /><polygon points="522,64 514,1131 180,619 350,58 521,925 753,321" fill="rgb(0, 0, 255)" /><rect x="528" y="1110" width="120" height="185" fill="rgb(0, 0, 0)" /><circle cx="903" cy="1091" r="65" fill="rgb(0, 0, 255)" /><circle cx="962" cy="650" r="73" fill="rgb(0, 0, 0)" /><circle cx="1081" cy="1314" r="69" fill="rgb(255, 0, 0)" /><rect x="298" y="889" width="123" height="95" fill="rgb(255, 0, 0)" /><rect x="389" y="610" width="185" height="105" fill="rgb(255, 255, 0)" /><rect x="242" y="1303" width="95" height="151" fill="rgb(255, 255, 0)" /><polygon points="896,564 125,496 997,39" fill="rgb(255, 0, 0)" /><rect x="134" y="219" width="172" height="62" fill="rgb(0, 0, 255)" /><polygon points="337,497 433,439 520,942 653,49 170,166 700,607" fill="rgb(255, 0, 0)" /><rect x="337" y="102" width="60" height="120" fill="rgb(0, 0, 255)" /><polygon points="21,83 281,221 993,797 471,1021" fill="rgb(0, 0, 255)" /><circle cx="3" cy="275" r="74" fill="rgb(255, 255, 0)" /><rect x="413" y="221" width="182" height="143" fill="rgb(0, 0, 0)" /><circle cx="1033" cy="1260" r="43" fill="rgb(0, 0, 255)" /></svg>