<svg xmlns="http://www.w3.org/2000/svg" width="1101" height="1500"><circle cx="466" cy="1208" r="74" fill="rgb(0, 0, 255)" /><circle cx="966" cy="475" r="52" fill="rgb(0, 0, 0)" /><polygon points="334,869 79,728 477,334" fill="rgb(0, 0, 0)" /><rect x="563" y="1258" width="50" height="179" fill="rgb(255, 255, 0)" /><circle cx="275" cy="398" r="48" fill="rgb(255, 255, 0)" /><polygon points="186,1178 256,189 692,611 797,1384 355,1290" fill="rgb(255, 0, 0)" /><polygon points="645,335 490,194 554,579 822,147 609,1271 1071,1153" fill="rgb(255, 0, 0)" /><rect x="164" y="736" width="64" height="161" fill="rgb(0, 0, 0)" /><polygon points="537,817 36,1265 305,599 650,1460" fill="rgb(0, 0, 255)" /><circle cx="380" cy="461" r="42" fill="rgb(0, 0, 255)" /><circle cx="18" cy="470" r="37" fill="rgb(0, 0, 255)" /><polygon points="199,1165 355,1073 835,173" fill="rgb(255, 255, 0)" /><rect x="981" y="1323" width="88" height="97" fill="rgb(255, 0, 0)" /><polygon points="969,1458 357,1401 856,1472 545,490" fill="rgb(0, 0, 255)" /><circle cx="314" cy="570" r="50" fill="rgb(255, 255, 0)" /><polygon points="998,888 346,1430 1096,323 825,662 152,351 604,551" fill="rgb(255, 0, 0)" /><polygon points="711,1167 324,1063 232,713" fill="rgb(0, 0, 0)" /><rect x="473" y="1166" width="129" height="169" fill="rgb(255, 0, 0)" /><polygon points="498,876 536,180 458,421" fill="rgb(0, 0, 0)" /><circle cx="85" cy="820" r="66" fill="rgb(255, 255, 0)" /><rect x="449" y="392" width="170" height="176" fill="rgb(0, 0, 255)" /><polygon points="358,365 669,311 128,701 1029,711 993,1454 391,1110" fill="rgb(255, 0, 0)" /><circle cx="453" cy="376" r="53" fill="rgb(0, 0, 255)" /><polygon points="8,1348 745,515 74,1490 952,42 350,792 889,879" fill="rgb(255, 0, 0)" /><rect x="1042" y="391" width="62" height="139" fill="rgb(255, 0, 0)" /><rect x="119" y="26" width="82" height="171" fill="rgb(0, 0, 255)" /><rect x="72" y="1470" width="196" height="190" fill="rgb(0, 0, 255)" /><circle cx="358" cy="701" r="75" fill="rgb(255, 255, 0)" /><circle cx="394" cy="254" r="42" fill="rgb(255, 0, 0)" /><polygon points="861,1338 1005,340 914,1013 616,23" fill="rgb(255, 0, 0)" /><polygon points="179,216 837,27 25,290 959,966" fill="rgb(255, 255, 0)" /><circle cx="351" cy="1179" r="48" fill="rgb(0, 0, 0)" /><rect x="437" y="868" width="152" height="152" fill="rgb(255, 255, 0)" /><polygon points="321,106 460,47 992,659 210,1392 850,589" fill="rgb(255, 0, 0)" /><rect x="563" y="485" width="176" height="58" fill="rgb(255, 255, 0)" /><polygon points="972,1401 951,140 478,853" fill="rgb(255, 255, 0)" /><circle cx="229" cy="1126" r="91" fill="rgb(255, 255, 0)" /><circle cx="401" cy="965" r="69" fill="rgb(255, 0, 0)" /><rect x="219" y="687" width="92" height="140" fill="rgb(0, 0, 255)" /><circle cx="689" cy="570" r="26" fill="rgb(0, 0, 0)" /><circle cx="95" cy="456" r="46" fill="rgb(255, 0, 0)" /><polygon points="116,1203 645,901 110,1245 511,132" fill="rgb(0, 0, 0)" /><circle cx="623" cy="1375" r="63" fill="rgb(255, 255, 0)" /><polygon points="488,1188 383,1301 416,1094 985,242" fill="rgb(255, 255, 0)" /><polygon points="533,764 675,1418 832,1372 1042,899 363,4" fill="rgb(0, 0, 0)" /><polygon points="775,570 166,1467 1010,892 42,782" fill="rgb(255, 0, 0)" /><polygon points="511,1299 201,541 420,999 473,506 855,952 238,1214" fill="rgb(255, 0, 0)" /><circle cx="40" cy="513" r="62" fill="rgb(0, 0, 0)" /><circle cx="701" cy="1252" r="47" fill="rgb(255, 0, 0)" /><rect x="695" y="618" width="111" height="103" fill="rgb(255, 0, 0)" /><rect x="504" y="755" width="73" height="193" fill="rgb(255, 255, 0)" /><rect x="306" y="1176" width="89" height="198" fill="rgb(0, 0, 0)" /><rect x="1027" y="554" width="172" height="115" fill="rgb(255, 0, 0)" /><circle cx="836" cy="1079" r="94" fill="rgb(0, 0, 0)" /><polygon points="821,837 421,1043 625,1316 582,1149 114,290 713,360" fill="rgb(0, 0, 255)" /><circle cx="913" cy="784" r="74" fill="rgb(0, 0, 255)" /><circle cx="56" cy="1327" r="43" fill="rgb(255, 0, 0)" /><polygon points="603,510 185,1 662,237" fill="rgb(255, 0, 0)" /><polygon points="874,1055 118,378 653,419 138,1390 918,1361 1072,1429" fill="rgb(0, 0, 0)" /><polygon points="951,499 439,870 176,276 783,597 1013,1218" fill="rgb(255, 0, 0)" /><polygon points="332,228 439,551 518,1307 1004,950 455,783 316,1163" fill="rgb(255, 255, 0)" /><circle cx="422" cy="1433" r="85" fill="rgb(255, 0, 0)" /><circle cx="228" cy="470" r="57" fill="rgb(0, 0, 255)" /><polygon points="902,1280 725,1131 77,879 298,24 514,1425" fill="rgb(0, 0, 255)" /><polygon points="32,1207 1018,1259 67,927 116,752" fill="rgb(255, 0, 0)" /><polygon points="837,447 777,962 290,1204 551,911 666,695 68,272" fill="rgb(255, 255, 0)" /><circle cx="609" cy="249" r="88" fill="rgb(255, 0, 0)" /><rect x="1091" y="238" width="164" height="93" fill="rgb(255, 0, 0)" /><polygon points="328,1013 150,315 479,427" fill="rgb(0, 0, 0)" /><polygon points="943,1145 652,1470 544,959 971,821 535,1441" fill="rgb(0, 0, 255)" /><rect x="354" y="197" width="81" height="151" fill="rgb(255, 255, 0)" /><polygon points="592,1320 555,1379 262,779 707,1428" fill="rgb(0, 0, 0)" /><rect x="1003" y="1472" width="107" height="179" fill="rgb(255, 0, 0)" /><polygon points="296,459 691,436 758,898 638,824 725,665" fill="rgb(0, 0, 0)" /><circle cx="540" cy="605" r="94" fill="rgb(0, 0, 0)" /><polygon points="871,582 1095,1301 769,153 1029,1022 1092,1033 524,112" fill="rgb(255, 0, 0)" /><circle cx="653" cy="1468" r="39" fill="rgb(0, 0, 0)" /><polygon points="94,1217 285,1461 421,1101 554,520" fill="rgb(0, 0, 255)" /><polygon points="972,1316 424,186 72,772 482,1368" fill="rgb(255, 255, 0)" /><circle cx="665" cy="551" r="81" fill="rgb(0, 0, 255)" /><polygon points="460,493 562,1018 307,916 336,1345 1009,23" fill="rgb(0, 0, 0)" /><rect x="770" y="1329" width="175" height="104" fill="rgb(255, 0, 0)" /><polygon points="772,1292 87,512 471,1450 209,108 483,124 603,262" fill="rgb(0, 0, 0)" /><rect x="771" y="86" width="96" height="180" fill="rgb(0, 0, 0)" /><circle cx="110" cy="1320" r="49" fill="rgb(255, 255, 0)" /><rect x="603" y="1149" width="145" height="190" fill="rgb(0, 0, 255)" /><polygon points="1025,444 1085,458 259,996 528,334 55,1038" fill="rgb(0, 0, 0)" /><circle cx="936" cy="912" r="51" fill="rgb(0, 0, 255)" /><rect x="35" y="1404" width="118" height="123" fill="rgb(255, 0, 0)" /><rect x="0" y="491" width="151" height="99" fill="rgb(0, 0, 255)" /><rect x="48" y="994" width="108" height="57" fill="rgb(0, 0, 255)" /><polygon points="531,278 474,38 256,1197 19,72 0,958 577,365" fill="rgb(255, 0, 0)" /><rect x="681" y="963" width="93" height="167" fill="rgb(255, 255, 0)" /><circle cx="799" cy="111" r="56" fill="rgb(0, 0, 0)" /><polygon points="1056,1371 724,256 89,763 815,1391" fill="rgb(255, 0, 0)" /><rect x="386" y="1420" width="67" height="173" fill="rgb(255, 255, 0)" /><rect x="1088" y="413" width="165" height="173" fill="rgb(255, 0, 0)" /><polygon points="892,452 883,201 670,1039 163,721" fill="rgb(0, 0, 255)" /><circle cx="899" cy="719" r="28" fill="rgb(255, 0, 0)" /><circle cx="739" cy="353" r="75" fill="rgb(0, 0, 255)" /><polygon points="447,877 349,1488 1031,750 421,1168 834,129" fill="rgb(0, 0, 255)" /><circle cx="418" cy="951" r="68" fill="rgb(0, 0, 0)" /><circle cx="571" cy="1371" r="91" fill="rgb(0, 0, 0)" /><circle cx="884" cy="829" r="30" fill="rgb(255, 255, 0)" /><circle cx="680" cy="189" r="22" fill="rgb(0, 0, 255)" /><polygon points="32,1426 75,785 627,458" fill="rgb(255, 0, 0)" /><rect x="972" y="744" width="170" height="52" fill="rgb(0, 0, 255)" /><polygon points="16,1110 643,1334 116,1062 1029,1034" fill="rgb(255, 0, 0)" /><rect x="779" y="718" width="127" height="187" fill="rgb(255, 255, 0)" /><rect x="27" y="73" width="168" height="191" fill="rgb(0, 0, 255)" /><rect x="252" y="930" width="146" height="72" fill="rgb(0, 0, 0)" /><polygon points="634,757 735,209 308,1134 697,1314" fill="rgb(0, 0, 0)" /><polygon points="880,1200 588,1279 445,1041 641,546 1005,525" fill="rgb(0, 0, 255)" /><circle cx="485" cy="309" r="69" fill="rgb(255, 0, 0)" /><circle cx="26" cy="928" r="53" fill="rgb(0, 0, 0)" /><rect x="156" y="832" width="83" height="166" fill="rgb(0, 0, 0)" /><polygon points="662,234 236,1065 300,1223 269,837 294,509 1027,943" fill="rgb(255, 0, 0)" /><circle cx="1015" cy="618" r="84" fill="rgb(255, 255, 0)" /><circle cx="951" cy="1014" r="93" fill="rgb(0, 0, 0)" /><polygon points="487,102 48,561 186,546" fill="rgb(0, 0, 255)" /><circle cx="23" cy="924" r="28" fill="rgb(0, 0, 0)" /><circle cx="251" cy="988" r="36" fill="rgb(0, 0, 255)" /><polygon points="800,1296 26,152 407,736" fill="rgb(255, 255, 0)" /><rect x="559" y="166" width="124" height="184" fill="rgb(255, 0, 0)" /><circle cx="79" cy="1109" r="41" fill="rgb(255, 255, 0)" /><rect x="143" y="1275" width="139" height="174" fill="rgb(0, 0, 255)" /><polygon points="271,946 416,558 1036,1122" fill="rgb(255, 0, 0)" /><rect x="204" y="1429" width="110" height="78" fill="rgb(0, 0, 255)" /><polygon points="1100,886 158,673 555,155 817,342" fill="rgb(255, 0, 0)" /><rect x="741" y="672" width="56" height="51" fill="rgb(0, 0, 0)" /><rect x="84" y="1062" width="121" height="102" fill="rgb(255, 0, 0)" /><circle cx="566" cy="48" r="86" fill="rgb(255, 0, 0)" /><circle cx="48" cy="1106" r="41" fill="rgb(255, 255, 0)" /><polygon points="789,907 261,601 66,1060 264,545" fill="rgb(0, 0, 255)" /><polygon points="642,882 723,408 691,1280 774,403 757,484 657,418" fill="rgb(0, 0, 0)" /><circle cx="423" cy="339" r="83" fill="rgb(255, 255, 0)" /><circle cx="646" cy="507" r="22" fill="rgb(255, 255, 0)" /><rect x="487" y="28" width="118" height="73" fill="rgb(255, 255, 0)" /><rect x="100" y="344" width="126" height="178" fill="rgb(0, 0, 255)" /><rect x="973" y="313" width="93" height="128" fill="rgb(255, 255, 0)" /><polygon points="17,1120 441,170 17,825 182,675" fill="rgb(0, 0, 255)" /><circle cx="974" cy="730" r="85" fill="rgb(255, 255, 0)" /><circle cx="403" cy="941" r="83" fill="rgb(255, 255, 0)" /><rect x="1035" y="1194" width="108" height="100" fill="rgb(0, 0, 0)" /><circle cx="324" cy="1447" r="60" fill="rgb(255, 0, 0)" /><circle cx="1060" cy="898" r="62" fill="rgb(255, 0, 0)" /><polygon points="261,462 4,996 373,335 860,1421 120,24" fill="rgb(0, 0, 0)" /><circle cx="23" cy="51" r="77" fill="rgb(255, 255, 0)" /><polygon points="769,1426 812,100 805,1077" fill="rgb(255, 255, 0)" /><polygon points="176,1368 70,849 43,1063 967,81 340,97" fill="rgb(0, 0, 0)" /><rect x="679" y="125" width="108" height="69" fill="rgb(255, 255, 0)" /><rect x="790" y="1160" width="193" height="104" fill="rgb(0, 0, 0)" /><polygon points="557,956 82,694 679,610 539,1440" fill="rgb(255, 0, 0)" /><polygon points="945,1236 543,852 188,897 46,168 904,400" fill="rgb(255, 0, 0)" /><rect x="473" y="135" width="139" height="129" fill="rgb(0, 0, 0)" /><polygon points="279,1401 339,1286 598,1350 78,462" fill="rgb(0, 0, 255)" /><circle cx="488" cy="50" r="59" fill="rgb(0, 0, 0)" /><circle cx="36" cy="504" r="76" fill="rgb(255, 255, 0)" /><circle cx="269" cy="6" r="77" fill="rgb(255, 0, 0)" /><circle cx="180" cy="873" r="97" fill="rgb(0, 0, 0)" /></svg>