<svg xmlns="http://www.w3.org/2000/svg" width="1101" height="1500"><polygon points="996,1060 703,1420 474,1145 665,209 125,1162 870,791" fill="rgb(255, 255, 0)" /><circle cx="580" cy="78" r="24" fill="rgb(0, 0, 0)" /><rect x="453" y="1468" width="131" height="161" fill="rgb(0, 0, 0)" /><circle cx="301" cy="217" r="43" fill="rgb(0, 0, 0)" /><rect x="430" y="660" width="177" height="75" fill="rgb(255, 255, 0)" /><circle cx="998" cy="1089" r="63" fill="rgb(0, 0, 0)" /><circle cx="38" cy="698" r="22" fill="rgb(0, 0, 255)" /><rect x="1004" y="1219" width="139" height="100" fill="rgb(0, 0, 255)" /><polygon points="431,108 1068,1445 595,1068" fill="rgb(255, 0, 0)" /><rect x="1061" y="182" width="161" height="55" fill="rgb(0, 0, 0)" /><rect x="183" y="789" width="62" height="175" fill="rgb(255, 0, 0)" /><polygon points="606,275 48,268 78,294" fill="rgb(0, 0, 255)" /><polygon points="14,38 450,229 83,365 866,587" fill="rgb(255, 255, 0)" /><rect x="302" y="365" width="115" height="74" fill="rgb(0, 0, 255)" /><circle cx="809" cy="1156" r="66" fill="rgb(0, 0, 0)" /><polygon points="619,1187 447,1191 807,948 367,1362" fill="rgb(0, 0, 255)" /><circle cx="478" cy="345" r="90" fill="rgb(255, 255, 0)" /><rect x="296" y="42" width="88" height="78" fill="rgb(255, 0, 0)" /><circle cx="996" cy="859" r="77" fill="rgb(0, 0, 0)" /><polygon points="187,945 362,516 729,1226 368,1325" fill="rgb(255, 255, 0)" /><polygon points="66,649 467,114 742,147 403,572" fill="rgb(255, 0, 0)" /><rect x="215" y="1355" width="172" height="145" fill="rgb(0, 0, 255)" /><polygon points="571,1456 777,389 610,1355 775,1201" fill="rgb(0, 0, 0)" /><polygon points="237,121 243,1423 139,353 578,955" fill="rgb(0, 0, 0)" /><rect x="588" y="90" width="128" height="163" fill="rgb(255, 255, 0)" /><polygon points="895,749 143,516 501,460" fill="rgb(0, 0, 0)" /><rect x="761" y="387" width="117" height="62" fill="rgb(255, 0, 0)" /><polygon points="536,596 811,633 451,210 853,602" fill="rgb(255, 0, 0)" /><polygon points="152,212 618,1073 292,1201 1006,1154 201,25 704,1158" fill="rgb(255, 0, 0)" /><circle cx="649" cy="1235" r="80" fill="rgb(255, 255, 0)" /><circle cx="252" cy="500" r="89" fill="rgb(255, 0, 0)" /><rect x="380" y="1153" width="167" height="151" fill="rgb(255, 0, 0)" /><circle cx="794" cy="57" r="44" fill="rgb(255, 0, 0)" /><polygon points="512,1431 1039,649 700,779 220,931 1053,848 292,33" fill="rgb(255, 255, 0)" /><circle cx="990" cy="674" r="29" fill="rgb(0, 0, 255)" /><circle cx="602" cy="1082" r="40" fill="rgb(255, 0, 0)" /><circle cx="730" cy="1072" r="21" fill="rgb(255, 255, 0)" /><rect x="501" y="1235" width="184" height="153" fill="rgb(255, 0, 0)" /><rect x="416" y="1306" width="120" height="115" fill="rgb(0, 0, 255)" /><polygon points="211,1477 459,1351 675,1346 894,890 368,1208 22,1423" fill="rgb(255, 255, 0)" /><rect x="1067" y="294" width="171" height="132" fill="rgb(0, 0, 255)" /><polygon points="264,1214 1093,492 901,1001 363,1391 94,1041" fill="rgb(255, 0, 0)" /><rect x="36" y="1478" width="108" height="65" fill="rgb(0, 0, 0)" /><polygon points="135,977 224,331 709,204 650,794 1000,281 735,885" fill="rgb(255, 255, 0)" /><circle cx="769" cy="55" r="41" fill="rgb(255, 0, 0)" /><circle cx="377" cy="712" r="66" fill="rgb(0, 0, 255)" /><rect x="667" y="940" width="69" height="84" fill="rgb(0, 0, 255)" /><polygon points="477,593 685,813 210,1430 514,174 394,709 1018,440" fill="rgb(0, 0, 255)" /><polygon points="977,160 1078,715 239,1124" fill="rgb(255, 0, 0)" /><polygon points="690,233 1079,482 132,1491 894,467" fill="rgb(0, 0, 0)" /><circle cx="526" cy="142" r="84" fill="rgb(0, 0, 0)" /><rect x="671" y="1235" width="56" height="109" fill="rgb(255, 255, 0)" /><circle cx="849" cy="732" r="99" fill="rgb(255, 0, 0)" /><circle cx="662" cy="1330" r="57" fill="rgb(0, 0, 255)" /><circle cx="117" cy="1021" r="38" fill="rgb(255, 0, 0)" /><rect x="847" y="1201" width="166" height="60" fill="rgb(0, 0, 255)" /><rect x="178" y="282" width="101" height="133" fill="rgb(255, 255, 0)" /><rect x="510" y="124" width="106" height="155" fill="rgb(0, 0, 255)" /><rect x="817" y="300" width="104" height="166" fill="rgb(0, 0, 255)" /><polygon points="763,1216 849,695 787,892" fill="rgb(255, 0, 0)" /><rect x="738" y="1403" width="98" height="137" fill="rgb(255, 255, 0)" /><rect x="354" y="964" width="98" height="86" fill="rgb(0, 0, 255)" /><polygon points="431,1088 875,851 86,820 190,299 734,811" fill="rgb(255, 0, 0)" /><circle cx="1063" cy="557" r="42" fill="rgb(255, 255, 0)" /><polygon points="847,676 686,1025 223,1158 916,1199 994,1413" fill="rgb(255, 255, 0)" /><circle cx="27" cy="472" r="54" fill="rgb(255, 0, 0)" /><circle cx="119" cy="1193" r="53" fill="rgb(0, 0, 0)" /><polygon points="726,603 589,384 705,401 492,1315 215,1052" fill="rgb(0, 0, 255)" /><circle cx="1030" cy="897" r="50" fill="rgb(255, 0, 0)" /><polygon points="856,310 848,453 654,740 796,360" fill="rgb(0, 0, 255)" /><circle cx="798" cy="558" r="42" fill="rgb(255, 0, 0)" /><circle cx="742" cy="1337" r="40" fill="rgb(0, 0, 255)" /><polygon points="679,958 526,975 308,549 454,780 921,406" fill="rgb(255, 255, 0)" /><rect x="422" y="909" width="121" height="69" fill="rgb(0, 0, 255)" /><rect x="955" y="1094" width="56" height="86" fill="rgb(255, 255, 0)" /><polygon points="904,1486 519,1189 319,1449" fill="rgb(255, 255, 0)" /><polygon points="63,1000 774,53 800,935 628,142" fill="rgb(0, 0, 0)" /><rect x="84" y="1133" width="110" height="143" fill="rgb(0, 0, 255)" /><rect x="893" y="834" width="76" height="59" fill="rgb(0, 0, 255)" /><circle cx="37" cy="492" r="57" fill="rgb(0, 0, 0)" /><rect x="498" y="232" width="68" height="98" fill="rgb(255, 255, 0)" /><rect x="136" y="405" width="180" height="88" fill="rgb(0, 0, 255)" /><polygon points="450,917 695,644 609,540 300,902 272,421 920,1075" fill="rgb(255, 0, 0)" /><polygon points="1030,1196 1050,914 320,747 566,1336" fill="rgb(255, 0, 0)" /><rect x="880" y="1044" width="91" height="68" fill="rgb(0, 0, 255)" /><rect x="631" y="1231" width="121" height="121" fill="rgb(0, 0, 255)" /><polygon points="166,1128 826,1484 79,648 361,370 728,334 38,1350" fill="rgb(0, 0, 255)" /><polygon points="161,274 1,1394 218,1282" fill="rgb(0, 0, 255)" /><circle cx="579" cy="292" r="20" fill="rgb(0, 0, 0)" /><circle cx="576" cy="102" r="80" fill="rgb(0, 0, 255)" /><rect x="747" y="4" width="189" height="69" fill="rgb(0, 0, 0)" /><rect x="511" y="898" width="129" height="81" fill="rgb(0, 0, 255)" /><circle cx="19" cy="477" r="93" fill="rgb(0, 0, 255)" /><circle cx="742" cy="1330" r="70" fill="rgb(0, 0, 0)" /><polygon points="1029,741 326,224 163,244 833,1275 541,878" fill="rgb(0, 0, 0)" /><circle cx="40" cy="1450" r="21" fill="rgb(255, 255, 0)" /><rect x="1" y="650" width="146" height="177" fill="rgb(0, 0, 255)" /><rect x="840" y="971" width="108" height="109" fill="rgb(0, 0, 0)" /><rect x="116" y="713" width="88" height="100" fill="rgb(255, 0, 0)" /><rect x="311" y="1126" width="138" height="103" fill="rgb(255, 0, 0)" /><polygon points="69,1184 883,493 1041,518 1004,459" fill="rgb(255, 255, 0)" /><polygon points="834,1281 307,616 801,1313 494,635" fill="rgb(255, 0, 0)" /><circle cx="748" cy="1071" r="82" fill="rgb(255, 0, 0)" /><circle cx="387" cy="1320" r="75" fill="rgb(255, 255, 0)" /><polygon points="446,516 885,1235 852,1149 843,1388 190,1464" fill="rgb(0, 0, 0)" /><rect x="348" y="871" width="59" height="123" fill="rgb(0, 0, 0)" /><polygon points="292,274 88,1492 992,97 536,1003 837,148" fill="rgb(0, 0, 0)" /><rect x="1101" y="881" width="123" height="184" fill="rgb(255, 255, 0)" /><polygon points="357,350 1040,13 978,1282 935,1485 1,163" fill="rgb(255, 255, 0)" /><circle cx="291" cy="70" r="80" fill="rgb(255, 255, 0)" /><circle cx="817" cy="153" r="78" fill="rgb(255, 255, 0)" /><circle cx="331" cy="1468" r="88" fill="rgb(0, 0, 0)" /><rect x="197" y="225" width="173" height="112" fill="rgb(0, 0, 0)" /><polygon points="796,1472 1042,820 175,937" fill="rgb(255, 0, 0)" /><circle cx="429" cy="89" r="67" fill="rgb(255, 0, 0)" /><rect x="159" y="471" width="78" height="136" fill="rgb(255, 255, 0)" /><rect x="1078" y="1315" width="134" height="195" fill="rgb(255, 255, 0)" /><rect x="1057" y="100" width="169" height="64" fill="rgb(255, 255, 0)" /><circle cx="139" cy="298" r="63" fill="rgb(0, 0, 0)" /><polygon points="1099,629 770,878 270,852" fill="rgb(0, 0, 0)" /><polygon points="600,1142 961,713 520,689" fill="rgb(0, 0, 255)" /><circle cx="893" cy="55" r="70" fill="rgb(0, 0, 255)" /><rect x="971" y="1137" width="136" height="52" fill="rgb(255, 255, 0)" /><polygon points="288,1385 484,1212 904,1038" fill="rgb(0, 0, 0)" /><circle cx="812" cy="112" r="97" fill="rgb(255, 255, 0)" /><rect x="612" y="1297" width="188" height="52" fill="rgb(0, 0, 0)" /><polygon points="1059,936 921,937 89,1125 693,225 594,1081" fill="rgb(255, 255, 0)" /><polygon points="139,175 1098,262 795,875 913,1074 408,87" fill="rgb(0, 0, 0)" /><polygon points="231,172 292,1337 443,802 1003,620 291,228" fill="rgb(255, 0, 0)" /><circle cx="992" cy="1468" r="64" fill="rgb(255, 0, 0)" /><circle cx="1081" cy="672" r="86" fill="rgb(255, 0, 0)" /><circle cx="703" cy="861" r="45" fill="rgb(255, 0, 0)" /><rect x="807" y="814" width="195" height="171" fill="rgb(255, 0, 0)" /><circle cx="1088" cy="513" r="38" fill="rgb(0, 0, 0)" /><polygon points="850,1370 496,292 256,1361" fill="rgb(255, 255, 0)" /><rect x="492" y="763" width="174" height="105" fill="rgb(0, 0, 255)" /><polygon points="547,113 270,354 89,1465" fill="rgb(0, 0, 0)" /><polygon points="839,772 999,806 293,488 584,779" fill="rgb(255, 255, 0)" /><rect x="552" y="259" width="101" height="145" fill="rgb(255, 255, 0)" /><circle cx="441" cy="1015" r="100" fill="rgb(255, 0, 0)" /><polygon points="690,717 102,1291 233,1290" fill="rgb(0, 0, 0)" /><rect x="1094" y="997" width="123" height="136" fill="rgb(255, 255, 0)" /><rect x="754" y="1399" width="185" height="56" fill="rgb(0, 0, 255)" /><circle cx="93" cy="1108" r="55" fill="rgb(0, 0, 0)" /><rect x="671" y="1106" width="162" height="67" fill="rgb(255, 255, 0)" /><polygon points="412,1384 47,209 233,502 2,369" fill="rgb(255, 255, 0)" /><circle cx="277" cy="198" r="62" fill="rgb(0, 0, 255)" /><rect x="316" y="1475" width="125" height="168" fill="rgb(0, 0, 255)" /><circle cx="352" cy="685" r="54" fill="rgb(0, 0, 0)" /><rect x="300" y="184" width="50" height="131" fill="rgb(255, 0, 0)" /><polygon points="93,893 783,262 559,272 662,728 636,385" fill="rgb(255, 0, 0)" /><polygon points="312,420 556,1063 277,1136 236,1052 437,865" fill="rgb(0, 0, 0)" /><circle cx="709" cy="1322" r="56" fill="rgb(255, 0, 0)" /><circle cx="138" cy="925" r="26" fill="rgb(255, 255, 0)" /><rect x="701" y="104" width="158" height="83" fill="rgb(255, 0, 0)" /><polygon points="146,1149 1028,139 153,1477" fill="rgb(0, 0, 0)" /><circle cx="41" cy="1154" r="92" fill="rgb(0, 0, 0)" /><polygon points="789,827 249,493 127,1474 291,895" fill="rgb(255, 0, 0)" /><circle cx="440" cy="1189" r="52" fill="rgb(255, 0, 0)" /><polygon points="815,1466 1090,302 822,1415" fill="rgb(255, 255, 0)" /><rect x="880" y="1327" width="60" height="164" fill="rgb(255, 255, 0)" /><polygon points="321,1091 956,1322 13,754 36,1324 1021,886" fill="rgb(255, 255, 0)" /><polygon points="971,837 822,753 870,860 561,961 880,926" fill="rgb(0, 0, 0)" /><circle cx="1071" cy="1021" r="72" fill="rgb(255, 0, 0)" /><rect x="400" y="890" width="81" height="152" fill="rgb(255, 0, 0)" /><circle cx="807" cy="729" r="90" fill="rgb(0, 0, 0)" /><rect x="580" y="892" width="160" height="194" fill="rgb(255, 0, 0)" /><rect x="874" y="619" width="108" height="168" fill="rgb(255, 0, 0)" /><circle cx="402" cy="287" r="49" fill="rgb(0, 0, 0)" /><circle cx="851" cy="582" r="38" fill="rgb(0, 0, 0)" /><polygon points="921,562 188,590 37,1457" fill="rgb(255, 255, 0)" /><circle cx="893" cy="1146" r="64" fill="rgb(255, 0, 0)" /><polygon points="1024,49 716,1177 683,475 852,244 533,24 809,1100" fill="rgb(0, 0, 0)" /><circle cx="294" cy="1190" r="49" fill="rgb(0, 0, 255)" /><polygon points="1014,508 808,271 115,402 245,842 177,245" fill="rgb(255, 0, 0)" /><polygon points="219,468 576,1108 571,1016" fill="rgb(255, 0, 0)" /><rect x="1009" y="21" width="158" height="142" fill="rgb(255, 0, 0)" /><polygon points="142,1373 1026,467 798,335" fill="rgb(0, 0, 255)" /><circle cx="439" cy="619" r="99" fill="rgb(255, 0, 0)" /><rect x="911" y="1165" width="68" height="151" fill="rgb(0, 0, 255)" /><rect x="262" y="587" width="149" height="127" fill="rgb(0, 0, 0)" /><rect x="358" y="1135" width="167" height="187" fill="rgb(255, 255, 0)" /><rect x="77" y="533" width="158" height="127" fill="rgb(0, 0, 255)" /><polygon points="872,141 351,1082 180,34 467,361" fill="rgb(255, 0, 0)" /><circle cx="549" cy="752" r="68" fill="rgb(255, 255, 0)" /><rect x="275" y="579" width="132" height="125" fill="rgb(255, 255, 0)" /><circle cx="918" cy="215" r="95" fill="rgb(255, 255, 0)" /><circle cx="384" cy="59" r="75" fill="rgb(255, 0, 0)" /><polygon points="22,446 457,389 255,1479" fill="rgb(255, 255, 0)" /><polygon points="832,378 533,588 885,666" fill="rgb(255, 255, 0)" /><rect x="88" y="283" width="176" height="158" fill="rgb(0, 0, 0)" /><polygon points="51,1383 122,1171 808,1221 171,802 404,14 312,1169" fill="rgb(0, 0, 255)" /><rect x="808" y="239" width="53" height="131" fill="rgb(0, 0, 0)" /><circle cx="524" cy="8" r="64" fill="rgb(255, 255, 0)" /></svg>