<svg xmlns="http://www.w3.org/2000/svg" width="1101" height="1500"><polygon points="206,1454 807,1261 368,354" fill="rgb(0, 0, 0)" /><circle cx="623" cy="960" r="82" fill="rgb(0, 0, 255)" /><circle cx="540" cy="55" r="75" fill="rgb(0, 0, 0)" /><polygon points="889,779 1087,763 109,509 51,303" fill="rgb(255, 0, 0)" /><circle cx="827" cy="1458" r="93" fill="rgb(0, 0, 0)" /><circle cx="736" cy="1475" r="96" fill="rgb(0, 0, 0)" /><rect x="94" y="880" width="139" height="107" fill="rgb(0, 0, 0)" /><rect x="459" y="559" width="154" height="61" fill="rgb(0, 0, 255)" /><polygon points="120,564 702,684 92,435 949,445 354,863 642,650" fill="rgb(255, 255, 0)" /><polygon points="959,189 679,458 359,584 682,1409 851,1246" fill="rgb(255, 0, 0)" /><rect x="788" y="1120" width="57" height="93" fill="rgb(0, 0, 255)" /><polygon points="500,1374 606,846 208,1449 12,1026" fill="rgb(255, 255, 0)" /><polygon points="332,1146 708,1487 98,1206" fill="rgb(255, 0, 0)" /><circle cx="302" cy="634" r="78" fill="rgb(255, 0, 0)" /><rect x="289" y="1304" width="199" height="145" fill="rgb(255, 255, 0)" /><polygon points="75,1023 938,322 1036,317" fill="rgb(255, 0, 0)" /><polygon points="352,995 651,1272 881,83 815,1321 212,1371 414,987" fill="rgb(0, 0, 255)" /><rect x="732" y="1425" width="168" height="118" fill="rgb(0, 0, 0)" /><polygon points="14,432 941,1225 123,24 208,680 220,601 437,970" fill="rgb(0, 0, 255)" /><polygon points="617,228 4,787 353,571" fill="rgb(255, 0, 0)" /><rect x="443" y="332" width="132" height="121" fill="rgb(0, 0, 255)" /><polygon points="1061,257 650,86 1050,1200 682,1203 468,972" fill="rgb(0, 0, 255)" /><polygon points="585,119 916,712 32,565" fill="rgb(255, 255, 0)" /><polygon points="394,860 242,714 668,641 471,948 873,1302" fill="rgb(0, 0, 255)" /><polygon points="846,250 1036,959 393,934 840,931 729,693" fill="rgb(0, 0, 255)" /><rect x="702" y="366" width="158" height="193" fill="rgb(0, 0, 255)" /><circle cx="329" cy="299" r="37" fill="rgb(255, 255, 0)" /><circle cx="960" cy="1138" r="98" fill="rgb(255, 255, 0)" /><rect x="511" y="664" width="106" height="88" fill="rgb(0, 0, 0)" /><rect x="452" y="607" width="110" height="187" fill="rgb(0, 0, 255)" /><circle cx="265" cy="1221" r="60" fill="rgb(0, 0, 0)" /><rect x="449" y="1324" width="93" height="136" fill="rgb(0, 0, 0)" /><rect x="704" y="610" width="183" height="185" fill="rgb(255, 0, 0)" /><polygon points="339,972 888,672 45,1325 343,557 1077,219 34,896" fill="rgb(0, 0, 0)" /><circle cx="506" cy="230" r="70" fill="rgb(255, 0, 0)" /><rect x="679" y="756" width="120" height="186" fill="rgb(0, 0, 0)" /><polygon points="375,213 116,697 356,20 848,1139 438,908" fill="rgb(255, 0, 0)" /><polygon points="45,544 637,416 760,1213 366,1288" fill="rgb(255, 255, 0)" /><polygon points="731,539 434,1238 171,141 220,775" fill="rgb(0, 0, 255)" /><rect x="304" y="957" width="101" height="100" fill="rgb(255, 0, 0)" /><polygon points="962,310 923,864 79,242 459,1148" fill="rgb(0, 0, 255)" /><rect x="1036" y="1408" width="165" height="87" fill="rgb(0, 0, 255)" /><polygon points="669,786 272,731 774,1375 831,389 752,1380 118,1054" fill="rgb(0, 0, 255)" /><rect x="67" y="684" width="114" height="71" fill="rgb(0, 0, 0)" /><circle cx="960" cy="1220" r="89" fill="rgb(0, 0, 255)" /><rect x="122" y="283" width="177" height="105" fill="rgb(255, 255, 0)" /><rect x="232" y="683" width="114" height="119" fill="rgb(0, 0, 0)" /><polygon points="30,199 682,1209 772,482 8,401" fill="rgb(255, 0, 0)" /><rect x="132" y="311" width="132" height="160" fill="rgb(255, 0, 0)" /><polygon points="952,183 202,1135 733,14 928,1299 284,1282 110,942" fill="rgb(0, 0, 255)" /><polygon points="620,965 765,1041 388,628 966,5" fill="rgb(255, 255, 0)" /><circle cx="233" cy="304" r="43" fill="rgb(0, 0, 0)" /><polygon points="911,1466 724,569 438,1272 963,67" fill="rgb(0, 0, 0)" /><polygon points="697,265 899,991 860,716 569,941 754,791 803,747" fill="rgb(255, 255, 0)" /><rect x="301" y="544" width="187" height="101" fill="rgb(255, 0, 0)" /><polygon points="1008,1175 785,1214 462,923 444,1150 291,124" fill="rgb(255, 255, 0)" /><rect x="389" y="1321" width="100" height="84" fill="rgb(0, 0, 0)" /><polygon points="621,335 307,249 156,355 733,129 652,1181" fill="rgb(255, 0, 0)" /><rect x="508" y="719" width="111" height="57" fill="rgb(0, 0, 255)" /><circle cx="105" cy="1465" r="36" fill="rgb(255, 255, 0)" /><rect x="824" y="1159" width="65" height="119" fill="rgb(0, 0, 255)" /><circle cx="994" cy="545" r="63" fill="rgb(255, 0, 0)" /><rect x="322" y="920" width="91" height="191" fill="rgb(0, 0, 0)" /><circle cx="359" cy="648" r="69" fill="rgb(255, 255, 0)" /><circle cx="266" cy="1145" r="81" fill="rgb(0, 0, 255)" /><rect x="412" y="565" width="97" height="131" fill="rgb(0, 0, 0)" /><polygon points="830,239 335,1035 167,451 60,410 20,1138 449,296" fill="rgb(255, 0, 0)" /><rect x="90" y="828" width="75" height="78" fill="rgb(0, 0, 0)" /><circle cx="471" cy="631" r="73" fill="rgb(0, 0, 0)" /><rect x="1048" y="1134" width="87" height="50" fill="rgb(255, 255, 0)" /><rect x="49" y="1319" width="173" height="54" fill="rgb(0, 0, 255)" /><circle cx="614" cy="1205" r="80" fill="rgb(0, 0, 255)" /><rect x="729" y="131" width="149" height="169" fill="rgb(255, 0, 0)" /><polygon points="565,232 399,1136 32,982 70,516 451,220 831,805" fill="rgb(255, 0, 0)" /><rect x="499" y="1326" width="83" height="176" fill="rgb(255, 255, 0)" /><circle cx="650" cy="76" r="54" fill="rgb(255, 255, 0)" /><polygon points="704,326 115,465 845,1317" fill="rgb(0, 0, 0)" /><circle cx="1033" cy="1388" r="35" fill="rgb(255, 255, 0)" /><polygon points="97,189 832,205 984,425 459,712" fill="rgb(255, 255, 0)" /><polygon points="827,951 100,1221 848,490" fill="rgb(255, 255, 0)" /><circle cx="96" cy="199" r="22" fill="rgb(0, 0, 255)" /><polygon points="605,295 394,148 93,607 201,990 19,5 856,786" fill="rgb(255, 0, 0)" /><circle cx="1095" cy="1313" r="35" fill="rgb(0, 0, 255)" /><circle cx="713" cy="1160" r="49" fill="rgb(0, 0, 0)" /><rect x="816" y="482" width="195" height="117" fill="rgb(255, 255, 0)" /><circle cx="1060" cy="1113" r="31" fill="rgb(255, 255, 0)" /><rect x="336" y="881" width="66" height="180" fill="rgb(255, 255, 0)" /><rect x="874" y="291" width="147" height="164" fill="rgb(0, 0, 0)" /><polygon points="939,246 837,537 397,368 1042,63" fill="rgb(255, 0, 0)" /><rect x="136" y="509" width="70" height="143" fill="rgb(0, 0, 0)" /><polygon points="796,278 588,933 499,1372" fill="rgb(0, 0, 255)" /><rect x="959" y="233" width="123" height="173" fill="rgb(0, 0, 0)" /><rect x="130" y="1458" width="106" height="197" fill="rgb(255, 255, 0)" /><circle cx="546" cy="821" r="61" fill="rgb(0, 0, 255)" /><rect x="96" y="143" width="112" height="90" fill="rgb(0, 0, 0)" /><polygon points="351,323 650,498 53,1199 988,340 737,1354" fill="rgb(255, 255, 0)" /><polygon points="852,707 624,274 1029,1193 244,1463" fill="rgb(0, 0, 255)" /><polygon points="312,344 857,896 451,720 1025,666" fill="rgb(255, 255, 0)" /><rect x="739" y="365" width="140" height="118" fill="rgb(255, 255, 0)" /><polygon points="879,174 1006,843 371,768 749,613 189,53 1042,817" fill="rgb(255, 0, 0)" /><circle cx="103" cy="193" r="72" fill="rgb(0, 0, 0)" /><circle cx="88" cy="598" r="21" fill="rgb(255, 255, 0)" /><polygon points="678,779 745,420 1072,18" fill="rgb(0, 0, 255)" /><rect x="62" y="277" width="71" height="175" fill="rgb(0, 0, 255)" /><polygon points="16,82 750,1003 484,996 36,99 135,1206 740,1214" fill="rgb(255, 0, 0)" /><circle cx="706" cy="306" r="76" fill="rgb(0, 0, 255)" /><polygon points="147,1496 66,1347 873,1111 584,1398 820,1398" fill="rgb(255, 255, 0)" /><circle cx="607" cy="1235" r="26" fill="rgb(0, 0, 255)" /><rect x="368" y="111" width="135" height="200" fill="rgb(0, 0, 255)" /><circle cx="138" cy="1210" r="35" fill="rgb(255, 0, 0)" /><circle cx="377" cy="580" r="61" fill="rgb(255, 255, 0)" /><polygon points="710,694 403,394 387,1492" fill="rgb(255, 0, 0)" /><polygon points="602,219 890,954 1052,1276 839,848 83,1105 367,819" fill="rgb(0, 0, 255)" /><circle cx="368" cy="857" r="45" fill="rgb(255, 255, 0)" /><polygon points="860,1034 162,920 1035,281 248,1449 1018,963" fill="rgb(0, 0, 0)" /><rect x="654" y="1018" width="82" height="114" fill="rgb(0, 0, 255)" /><polygon points="911,572 738,888 926,668" fill="rgb(0, 0, 255)" /><circle cx="1003" cy="1439" r="48" fill="rgb(255, 255, 0)" /><rect x="131" y="817" width="171" height="129" fill="rgb(255, 0, 0)" /><circle cx="618" cy="191" r="30" fill="rgb(0, 0, 0)" /><polygon points="203,128 920,1392 150,870 485,1041" fill="rgb(0, 0, 0)" /><rect x="274" y="54" width="106" height="111" fill="rgb(0, 0, 255)" /><rect x="745" y="442" width="129" height="133" fill="rgb(0, 0, 255)" /><polygon points="590,408 986,519 552,36" fill="rgb(0, 0, 255)" /><rect x="556" y="968" width="91" height="197" fill="rgb(0, 0, 255)" /><rect x="235" y="838" width="112" height="130" fill="rgb(255, 255, 0)" /><circle cx="610" cy="725" r="86" fill="rgb(255, 255, 0)" /><polygon points="212,1295 209,974 840,1221 452,791 69,781" fill="rgb(255, 255, 0)" /><rect x="695" y="224" width="200" height="144" fill="rgb(255, 255, 0)" /><rect x="1059" y="486" width="62" height="150" fill="rgb(0, 0, 255)" /><circle cx="822" cy="1422" r="71" fill="rgb(0, 0, 0)" /><polygon points="1091,1217 172,280 779,206" fill="rgb(0, 0, 255)" /><rect x="964" y="682" width="176" height="177" fill="rgb(255, 255, 0)" /><rect x="1027" y="326" width="99" height="79" fill="rgb(255, 0, 0)" /><rect x="508" y="291" width="195" height="64" fill="rgb(255, 0, 0)" /><polygon points="312,119 341,1377 134,1473 549,951 108,487 385,634" fill="rgb(0, 0, 0)" /></svg>