<svg xmlns="http://www.w3.org/2000/svg" width="1101" height="1500"><polygon points="65,381 886,244 519,509" fill="rgb(255, 255, 0)" /><rect x="176" y="731" width="77" height="106" fill="rgb(255, 255, 0)" /><rect x="961" y="1112" width="199" height="133" fill="rgb(255, 255, 0)" /><polygon points="321,1012 715,740 851,1136 485,962" fill="rgb(0, 0, 255)" /><polygon points="197,1016 74,147 230,1500 454,204" fill="rgb(255, 0, 0)" /><rect x="324" y="1273" width="103" height="81" fill="rgb(255, 255, 0)" /><polygon points="668,753 67,1469 977,936 336,1354 540,538 398,1443" fill="rgb(0, 0, 0)" /><rect x="803" y="131" width="182" height="98" fill="rgb(255, 0, 0)" /><rect x="332" y="159" width="137" height="138" fill="rgb(255, 255, 0)" /><rect x="942" y="1269" width="111" height="160" fill="rgb(0, 0, 255)" /><circle cx="861" cy="179" r="48" fill="rgb(255, 255, 0)" /><rect x="260" y="891" width="119" height="148" fill="rgb(255, 255, 0)" /><polygon points="1005,94 486,561 845,436 37,42" fill="rgb(0, 0, 0)" /><rect x="366" y="282" width="85" height="57" fill="rgb(255, 0, 0)" /><circle cx="836" cy="1202" r="55" fill="rgb(255, 255, 0)" /><circle cx="801" cy="101" r="95" fill="rgb(0, 0, 255)" /><rect x="745" y="135" width="108" height="128" fill="rgb(0, 0, 255)" /><circle cx="791" cy="1451" r="100" fill="rgb(0, 0, 0)" /><rect x="591" y="875" width="189" height="140" fill="rgb(0, 0, 0)" /><polygon points="237,833 148,1330 818,1053" fill="rgb(255, 0, 0)" /><circle cx="208" cy="664" r="95" fill="rgb(0, 0, 255)" /><rect x="986" y="955" width="134" height="94" fill="rgb(255, 255, 0)" /><rect x="885" y="116" width="181" height="105" fill="rgb(0, 0, 255)" /><circle cx="898" cy="122" r="26" fill="rgb(255, 255, 0)" /><circle cx="483" cy="1453" r="28" fill="rgb(255, 0, 0)" /><circle cx="1043" cy="687" r="85" fill="rgb(0, 0, 255)" /><rect x="364" y="1065" width="176" height="195" fill="rgb(255, 0, 0)" /><rect x="675" y="1500" width="118" height="50" fill="rgb(255, 0, 0)" /><circle cx="218" cy="1284" r="23" fill="rgb(255, 255, 0)" /><circle cx="865" cy="271" r="70" fill="rgb(0, 0, 255)" /><polygon points="713,1408 118,708 483,693 691,1300 821,980" fill="rgb(255, 255, 0)" /><circle cx="301" cy="305" r="68" fill="rgb(255, 255, 0)" /><rect x="602" y="210" width="199" height="129" fill="rgb(255, 0, 0)" /><rect x="496" y="3" width="193" height="150" fill="rgb(0, 0, 255)" /><rect x="1074" y="424" width="111" height="150" fill="rgb(0, 0, 0)" /><rect x="234" y="340" width="83" height="142" fill="rgb(255, 255, 0)" /><rect x="122" y="604" width="190" height="84" fill="rgb(0, 0, 255)" /><rect x="68" y="461" width="64" height="90" fill="rgb(0, 0, 0)" /><polygon points="1013,1451 1089,730 891,528 524,1252" fill="rgb(255, 0, 0)" /><polygon points="631,943 68,1077 233,728 588,211 797,310" fill="rgb(0, 0, 255)" /><rect x="891" y="1156" width="194" height="120" fill="rgb(0, 0, 255)" /><polygon points="223,762 739,1023 33,605 92,1016 743,636 78,93" fill="rgb(0, 0, 255)" /><rect x="228" y="1168" width="139" height="150" fill="rgb(0, 0, 255)" /><rect x="210" y="1124" width="134" height="125" fill="rgb(255, 0, 0)" /><polygon points="852,725 639,1323 317,111 9,1490 304,697 22,677" fill="rgb(0, 0, 255)" /><circle cx="982" cy="1378" r="33" fill="rgb(255, 0, 0)" /><rect x="629" y="837" width="165" height="51" fill="rgb(0, 0, 0)" /><polygon points="723,711 262,1040 949,1059" fill="rgb(255, 255, 0)" /><polygon points="212,956 637,1122 1025,667" fill="rgb(255, 255, 0)" /><circle cx="203" cy="532" r="87" fill="rgb(255, 0, 0)" /><rect x="368" y="1022" width="166" height="182" fill="rgb(255, 255, 0)" /><circle cx="181" cy="1362" r="68" fill="rgb(0, 0, 255)" /><rect x="723" y="547" width="78" height="68" fill="rgb(0, 0, 255)" /><rect x="830" y="506" width="96" height="110" fill="rgb(0, 0, 255)" /><polygon points="492,641 1036,81 512,885" fill="rgb(255, 255, 0)" /><circle cx="604" cy="543" r="44" fill="rgb(255, 0, 0)" /><polygon points="680,314 65,520 358,118 584,1402 501,1416" fill="rgb(255, 255, 0)" /><circle cx="441" cy="1495" r="61" fill="rgb(255, 0, 0)" /><polygon points="198,734 201,1273 253,23 17,1361 111,1310" fill="rgb(0, 0, 0)" /><rect x="1018" y="1389" width="150" height="86" fill="rgb(255, 255, 0)" /><rect x="508" y="1146" width="147" height="166" fill="rgb(0, 0, 255)" /><circle cx="937" cy="1218" r="96" fill="rgb(0, 0, 255)" /><rect x="209" y="730" width="61" height="85" fill="rgb(255, 0, 0)" /><circle cx="361" cy="345" r="64" fill="rgb(255, 255, 0)" /><rect x="319" y="253" width="58" height="95" fill="rgb(255, 0, 0)" /><circle cx="778" cy="176" r="97" fill="rgb(0, 0, 0)" /><polygon points="828,925 690,1341 750,826 474,1416" fill="rgb(0, 0, 255)" /><circle cx="871" cy="1385" r="77" fill="rgb(255, 255, 0)" /><polygon points="813,1132 794,1258 782,1002 767,303" fill="rgb(255, 255, 0)" /><polygon points="97,1186 859,71 889,739 448,1083 211,602 148,1249" fill="rgb(255, 255, 0)" /><polygon points="544,1248 473,1107 87,278 69,939" fill="rgb(0, 0, 255)" /><rect x="61" y="1485" width="152" height="59" fill="rgb(0, 0, 255)" /><rect x="186" y="1224" width="169" height="150" fill="rgb(255, 0, 0)" /><rect x="425" y="100" width="177" height="58" fill="rgb(0, 0, 0)" /><circle cx="1015" cy="114" r="81" fill="rgb(255, 255, 0)" /><polygon points="610,189 837,1201 835,602 478,845 346,1258" fill="rgb(0, 0, 0)" /><polygon points="54,699 883,924 1022,173 739,984 484,1185 931,818" fill="rgb(255, 0, 0)" /><circle cx="603" cy="936" r="63" fill="rgb(255, 255, 0)" /><circle cx="972" cy="386" r="61" fill="rgb(255, 0, 0)" /><rect x="718" y="355" width="87" height="122" fill="rgb(0, 0, 0)" /><circle cx="1037" cy="403" r="93" fill="rgb(0, 0, 0)" /><polygon points="128,37 711,1090 746,686" fill="rgb(255, 0, 0)" /><circle cx="284" cy="1327" r="32" fill="rgb(255, 0, 0)" /><rect x="1033" y="78" width="80" height="65" fill="rgb(0, 0, 255)" /><polygon points="914,75 611,657 700,221 657,679 715,548 419,1057" fill="rgb(0, 0, 0)" /><circle cx="155" cy="457" r="43" fill="rgb(255, 255, 0)" /><rect x="620" y="1157" width="57" height="166" fill="rgb(0, 0, 0)" /><circle cx="308" cy="1416" r="83" fill="rgb(255, 255, 0)" /><rect x="414" y="961" width="102" height="63" fill="rgb(0, 0, 255)" /><polygon points="812,89 71,508 520,739 158,737 43,1086" fill="rgb(0, 0, 0)" /><polygon points="222,360 994,111 284,366 516,921 499,1470" fill="rgb(255, 0, 0)" /><rect x="995" y="1461" width="56" height="190" fill="rgb(0, 0, 0)" /><rect x="493" y="366" width="143" height="84" fill="rgb(0, 0, 0)" /><polygon points="704,1218 315,332 217,1114" fill="rgb(0, 0, 255)" /><rect x="757" y="445" width="102" height="53" fill="rgb(0, 0, 0)" /><circle cx="963" cy="956" r="73" fill="rgb(0, 0, 0)" /><circle cx="646" cy="1218" r="20" fill="rgb(0, 0, 255)" /><polygon points="58,1235 227,1371 185,855 870,47" fill="rgb(0, 0, 255)" /><polygon points="562,1228 612,752 598,1338 859,899 590,918" fill="rgb(0, 0, 255)" /><rect x="1032" y="440" width="129" height="174" fill="rgb(0, 0, 0)" /><rect x="375" y="70" width="163" height="192" fill="rgb(0, 0, 255)" /><rect x="366" y="963" width="67" height="190" fill="rgb(0, 0, 0)" /><polygon points="841,149 869,531 489,507" fill="rgb(255, 255, 0)" /><circle cx="888" cy="1096" r="52" fill="rgb(0, 0, 255)" /><rect x="813" y="179" width="195" height="190" fill="rgb(0, 0, 0)" /><polygon points="866,139 87,1260 11,1225" fill="rgb(0, 0, 0)" /><circle cx="948" cy="390" r="90" fill="rgb(255, 0, 0)" /><rect x="507" y="746" width="133" height="191" fill="rgb(255, 0, 0)" /><rect x="788" y="1161" width="154" height="114" fill="rgb(0, 0, 255)" /><rect x="924" y="1450" width="147" height="192" fill="rgb(255, 255, 0)" /><polygon points="348,240 475,1217 588,497 539,86" fill="rgb(255, 0, 0)" /><rect x="859" y="1199" width="137" height="171" fill="rgb(0, 0, 0)" /><circle cx="113" cy="660" r="82" fill="rgb(0, 0, 255)" /><rect x="622" y="381" width="96" height="184" fill="rgb(0, 0, 255)" /><circle cx="553" cy="444" r="24" fill="rgb(255, 255, 0)" /><circle cx="558" cy="718" r="46" fill="rgb(255, 0, 0)" /><polygon points="893,540 527,1329 285,1123" fill="rgb(255, 0, 0)" /><rect x="212" y="1353" width="132" height="78" fill="rgb(0, 0, 255)" /><rect x="227" y="619" width="187" height="66" fill="rgb(255, 255, 0)" /><rect x="1013" y="1326" width="184" height="89" fill="rgb(255, 255, 0)" /><rect x="48" y="150" width="181" height="178" fill="rgb(255, 255, 0)" /><polygon points="852,550 322,281 241,1361 996,1110 222,16" fill="rgb(255, 255, 0)" /><circle cx="815" cy="690" r="56" fill="rgb(255, 0, 0)" /><circle cx="15" cy="320" r="67" fill="rgb(0, 0, 0)" /><polygon points="961,664 629,1439 601,1163 499,62 171,25 239,508" fill="rgb(255, 0, 0)" /><rect x="369" y="1439" width="169" height="91" fill="rgb(0, 0, 255)" /></svg>