<svg xmlns="http://www.w3.org/2000/svg" width="1101" height="1500"><circle cx="143" cy="994" r="75" fill="rgb(255, 255, 0)" /><rect x="622" y="1019" width="114" height="77" fill="rgb(0, 0, 255)" /><polygon points="202,734 1070,145 870,887 952,1443 640,17 1075,1426" fill="rgb(0, 0, 255)" /><rect x="720" y="504" width="109" height="83" fill="rgb(255, 0, 0)" /><circle cx="251" cy="1437" r="35" fill="rgb(0, 0, 255)" /><rect x="358" y="149" width="147" height="167" fill="rgb(255, 255, 0)" /><rect x="909" y="1004" width="106" height="56" fill="rgb(255, 255, 0)" /><circle cx="1016" cy="182" r="63" fill="rgb(255, 0, 0)" /><rect x="180" y="459" width="60" height="52" fill="rgb(0, 0, 255)" /><circle cx="174" cy="214" r="92" fill="rgb(0, 0, 255)" /><rect x="208" y="643" width="112" height="137" fill="rgb(255, 255, 0)" /><rect x="167" y="611" width="198" height="108" fill="rgb(0, 0, 0)" /><polygon points="467,1165 944,448 813,1004 746,776" fill="rgb(0, 0, 0)" /><polygon points="108,36 469,585 425,553 266,1084 223,1220" fill="rgb(0, 0, 0)" /><rect x="704" y="579" width="184" height="82" fill="rgb(255, 0, 0)" /><rect x="778" y="856" width="106" height="95" fill="rgb(255, 255, 0)" /><rect x="184" y="105" width="188" height="126" fill="rgb(0, 0, 255)" /><polygon points="607,121 1050,778 32,1223" fill="rgb(0, 0, 255)" /><circle cx="603" cy="1073" r="95" fill="rgb(0, 0, 0)" /><polygon points="65,190 471,1142 287,865 322,1257" fill="rgb(0, 0, 0)" /></svg>