<svg xmlns="http://www.w3.org/2000/svg" width="1101" height="1500"><circle cx="37" cy="1201" r="78" fill="rgb(0, 0, 255)" /><circle cx="1014" cy="76" r="31" fill="rgb(0, 0, 0)" /><circle cx="135" cy="733" r="98" fill="rgb(0, 0, 255)" /><rect x="485" y="370" width="115" height="141" fill="rgb(255, 255, 0)" /><circle cx="517" cy="76" r="59" fill="rgb(0, 0, 255)" /><circle cx="591" cy="370" r="75" fill="rgb(255, 255, 0)" /><circle cx="511" cy="1371" r="26" fill="rgb(255, 0, 0)" /><polygon points="936,896 116,774 204,721 927,80 928,482" fill="rgb(255, 255, 0)" /><polygon points="118,697 744,1121 854,475 961,443" fill="rgb(0, 0, 0)" /><circle cx="721" cy="1112" r="32" fill="rgb(0, 0, 255)" /><circle cx="727" cy="136" r="58" fill="rgb(255, 0, 0)" /><rect x="874" y="561" width="164" height="72" fill="rgb(255, 0, 0)" /><rect x="516" y="767" width="173" height="177" fill="rgb(255, 255, 0)" /><rect x="279" y="1003" width="129" height="110" fill="rgb(0, 0, 255)" /><rect x="353" y="198" width="145" height="92" fill="rgb(0, 0, 0)" /><circle cx="280" cy="693" r="97" fill="rgb(255, 255, 0)" /><circle cx="165" cy="788" r="67" fill="rgb(255, 0, 0)" /><circle cx="255" cy="1174" r="57" fill="rgb(255, 0, 0)" /><polygon points="86,1177 888,1394 225,379 691,701" fill="rgb(255, 0, 0)" /><circle cx="807" cy="301" r="41" fill="rgb(255, 255, 0)" /><polygon points="103,1324 216,1040 786,753 1023,1248 87,697" fill="rgb(255, 0, 0)" /><rect x="684" y="214" width="95" height="96" fill="rgb(0, 0, 0)" /><rect x="496" y="678" width="158" height="200" fill="rgb(255, 0, 0)" /><circle cx="944" cy="475" r="41" fill="rgb(0, 0, 0)" /><polygon points="1036,1316 868,737 104,437 676,1417 22,959 308,1197" fill="rgb(0, 0, 0)" /><rect x="233" y="1227" width="62" height="142" fill="rgb(0, 0, 0)" /><rect x="85" y="454" width="128" height="94" fill="rgb(0, 0, 0)" /><polygon points="675,161 647,1393 274,1320 1059,597 608,1023 679,242" fill="rgb(255, 0, 0)" /><polygon points="387,151 224,428 627,345 1101,613" fill="rgb(255, 255, 0)" /><rect x="637" y="1457" width="116" height="106" fill="rgb(255, 255, 0)" /><polygon points="91,1469 752,426 44,1016 315,761 246,20 133,434" fill="rgb(255, 0, 0)" /><polygon points="683,735 730,249 683,595 934,727 741,500 79,1240" fill="rgb(0, 0, 0)" /><rect x="925" y="610" width="140" height="154" fill="rgb(0, 0, 255)" /><circle cx="429" cy="1261" r="25" fill="rgb(0, 0, 255)" /><circle cx="753" cy="95" r="24" fill="rgb(255, 255, 0)" /><polygon points="958,31 250,1240 247,1425 839,717 136,88" fill="rgb(255, 0, 0)" /><circle cx="728" cy="741" r="22" fill="rgb(0, 0, 0)" /><polygon points="1071,1123 583,716 270,698" fill="rgb(0, 0, 0)" /><rect x="16" y="1351" width="87" height="185" fill="rgb(255, 0, 0)" /><rect x="593" y="1254" width="73" height="66" fill="rgb(255, 255, 0)" /><rect x="35" y="109" width="199" height="196" fill="rgb(255, 255, 0)" /><rect x="89" y="153" width="188" height="190" fill="rgb(255, 0, 0)" /><polygon points="975,231 912,1288 393,339 414,844 52,904" fill="rgb(0, 0, 255)" /><rect x="313" y="724" width="166" height="56" fill="rgb(255, 0, 0)" /><polygon points="672,642 261,597 254,226 233,1035" fill="rgb(0, 0, 0)" /><rect x="906" y="569" width="110" height="178" fill="rgb(255, 255, 0)" /><polygon points="303,96 1016,877 1,783 131,939" fill="rgb(255, 255, 0)" /><rect x="194" y="421" width="108" height="89" fill="rgb(0, 0, 0)" /><rect x="981" y="778" width="97" height="152" fill="rgb(0, 0, 255)" /><polygon points="510,1160 737,169 192,1153 994,747 150,990" fill="rgb(255, 0, 0)" /><polygon points="634,585 480,1421 663,363 353,1154 1101,1155" fill="rgb(255, 0, 0)" /><circle cx="1037" cy="158" r="29" fill="rgb(255, 255, 0)" /><rect x="829" y="454" width="114" height="146" fill="rgb(0, 0, 0)" /><polygon points="512,1003 893,885 272,404" fill="rgb(0, 0, 0)" /><rect x="564" y="248" width="68" height="90" fill="rgb(0, 0, 255)" /><circle cx="402" cy="157" r="60" fill="rgb(255, 0, 0)" /><rect x="840" y="1058" width="99" height="67" fill="rgb(255, 255, 0)" /><circle cx="234" cy="796" r="57" fill="rgb(255, 0, 0)" /><circle cx="900" cy="530" r="92" fill="rgb(255, 255, 0)" /><rect x="865" y="291" width="96" height="114" fill="rgb(255, 255, 0)" /><circle cx="724" cy="1296" r="59" fill="rgb(255, 0, 0)" /><circle cx="462" cy="1315" r="32" fill="rgb(255, 255, 0)" /><rect x="1093" y="409" width="106" height="64" fill="rgb(255, 0, 0)" /><rect x="379" y="52" width="178" height="141" fill="rgb(0, 0, 0)" /><circle cx="80" cy="966" r="63" fill="rgb(0, 0, 255)" /><circle cx="425" cy="965" r="94" fill="rgb(255, 0, 0)" /><rect x="19" y="1153" width="166" height="76" fill="rgb(255, 255, 0)" /><rect x="452" y="858" width="174" height="114" fill="rgb(255, 255, 0)" /><rect x="1097" y="1028" width="182" height="178" fill="rgb(0, 0, 0)" /><polygon points="840,53 182,803 458,156 916,86" fill="rgb(0, 0, 255)" /><rect x="973" y="184" width="116" height="145" fill="rgb(0, 0, 0)" /><rect x="946" y="1491" width="133" height="193" fill="rgb(0, 0, 0)" /><polygon points="295,1254 26,452 410,520 430,402" fill="rgb(255, 0, 0)" /><rect x="906" y="201" width="98" height="83" fill="rgb(0, 0, 255)" /><rect x="744" y="389" width="62" height="173" fill="rgb(255, 0, 0)" /><polygon points="215,292 553,1264 100,65 227,194 473,189" fill="rgb(255, 255, 0)" /><polygon points="177,1447 328,527 376,525 176,1160 639,702" fill="rgb(255, 0, 0)" /><polygon points="689,717 936,1350 587,150 531,444 507,631" fill="rgb(0, 0, 0)" /><polygon points="1014,277 1069,256 438,507 1002,165" fill="rgb(255, 255, 0)" /><polygon points="1043,530 354,738 1040,268" fill="rgb(0, 0, 0)" /><circle cx="662" cy="1237" r="86" fill="rgb(255, 255, 0)" /><rect x="282" y="1179" width="59" height="129" fill="rgb(255, 0, 0)" /><rect x="333" y="1271" width="158" height="136" fill="rgb(255, 255, 0)" /><circle cx="203" cy="1070" r="69" fill="rgb(0, 0, 255)" /><polygon points="260,748 459,1208 917,139 474,84" fill="rgb(255, 255, 0)" /><rect x="450" y="807" width="184" height="144" fill="rgb(255, 255, 0)" /><circle cx="258" cy="1053" r="36" fill="rgb(255, 255, 0)" /><rect x="281" y="1073" width="154" height="72" fill="rgb(255, 255, 0)" /><circle cx="1070" cy="940" r="58" fill="rgb(255, 0, 0)" /><circle cx="320" cy="1397" r="42" fill="rgb(0, 0, 255)" /><rect x="346" y="1221" width="78" height="156" fill="rgb(0, 0, 255)" /><circle cx="64" cy="834" r="95" fill="rgb(255, 0, 0)" /><polygon points="350,1066 1100,1091 302,746 747,1370 28,260" fill="rgb(255, 255, 0)" /><rect x="530" y="359" width="186" height="178" fill="rgb(255, 0, 0)" /><circle cx="530" cy="1" r="49" fill="rgb(255, 0, 0)" /><polygon points="886,381 922,267 822,292 1062,554 998,870" fill="rgb(255, 255, 0)" /><polygon points="190,1335 260,352 472,251" fill="rgb(255, 255, 0)" /><polygon points="749,1182 814,1312 102,733 258,256 275,639" fill="rgb(255, 0, 0)" /><rect x="163" y="70" width="54" height="131" fill="rgb(255, 0, 0)" /><rect x="1052" y="359" width="159" height="152" fill="rgb(255, 255, 0)" /><rect x="318" y="218" width="189" height="158" fill="rgb(255, 0, 0)" /><polygon points="975,1441 119,1430 584,1459 295,69" fill="rgb(255, 255, 0)" /><rect x="742" y="1095" width="186" height="120" fill="rgb(0, 0, 0)" /><circle cx="572" cy="606" r="79" fill="rgb(255, 255, 0)" /><circle cx="353" cy="413" r="87" fill="rgb(0, 0, 255)" /><polygon points="687,263 917,864 848,685 214,999 46,642 892,2" fill="rgb(255, 255, 0)" /><polygon points="738,1138 249,1376 761,1096 850,1006 595,924" fill="rgb(0, 0, 0)" /><rect x="856" y="1065" width="91" height="179" fill="rgb(0, 0, 255)" /><circle cx="819" cy="198" r="76" fill="rgb(255, 255, 0)" /><circle cx="257" cy="1106" r="59" fill="rgb(0, 0, 0)" /><circle cx="690" cy="823" r="99" fill="rgb(0, 0, 0)" /><circle cx="908" cy="338" r="81" fill="rgb(0, 0, 255)" /><rect x="1015" y="841" width="151" height="128" fill="rgb(255, 255, 0)" /><circle cx="1007" cy="218" r="69" fill="rgb(0, 0, 255)" /><circle cx="985" cy="840" r="69" fill="rgb(255, 255, 0)" /><circle cx="957" cy="1128" r="40" fill="rgb(255, 0, 0)" /><circle cx="497" cy="1373" r="39" fill="rgb(255, 0, 0)" /><rect x="548" y="258" width="188" height="192" fill="rgb(0, 0, 255)" /><rect x="1044" y="66" width="137" height="144" fill="rgb(0, 0, 0)" /><circle cx="423" cy="74" r="95" fill="rgb(0, 0, 255)" /><circle cx="142" cy="1489" r="65" fill="rgb(255, 255, 0)" /><polygon points="128,1254 1049,138 1067,645 187,3 191,966" fill="rgb(255, 255, 0)" /><rect x="592" y="1308" width="111" height="99" fill="rgb(255, 0, 0)" /><polygon points="469,1016 530,739 340,817 203,392 669,1190" fill="rgb(255, 0, 0)" /><circle cx="823" cy="1271" r="27" fill="rgb(0, 0, 0)" /><circle cx="950" cy="222" r="45" fill="rgb(0, 0, 255)" /><rect x="280" y="781" width="69" height="149" fill="rgb(255, 255, 0)" /><polygon points="468,229 189,204 673,789 897,562 1026,825 430,773" fill="rgb(255, 255, 0)" /><polygon points="1084,1183 689,464 641,1473 133,835 698,682" fill="rgb(255, 255, 0)" /><polygon points="730,810 553,386 107,811 9,0" fill="rgb(0, 0, 255)" /><polygon points="534,1105 3,439 538,1025" fill="rgb(0, 0, 255)" /><polygon points="174,721 550,117 187,1385 1016,1146 117,1207 622,388" fill="rgb(255, 0, 0)" /><circle cx="370" cy="1009" r="96" fill="rgb(255, 255, 0)" /><circle cx="785" cy="684" r="62" fill="rgb(0, 0, 255)" /><polygon points="510,47 650,229 160,671 771,1042 210,183 266,954" fill="rgb(255, 0, 0)" /><circle cx="320" cy="494" r="81" fill="rgb(255, 255, 0)" /><circle cx="314" cy="839" r="72" fill="rgb(0, 0, 255)" /><circle cx="96" cy="267" r="52" fill="rgb(255, 0, 0)" /><polygon points="867,568 370,1226 999,1348" fill="rgb(0, 0, 0)" /><polygon points="688,971 344,1224 888,97 154,1042 1048,1440" fill="rgb(0, 0, 255)" /><polygon points="86,166 220,693 459,1200 326,351 25,1230 294,1473" fill="rgb(255, 0, 0)" /><rect x="185" y="835" width="159" height="100" fill="rgb(0, 0, 255)" /><circle cx="17" cy="1500" r="71" fill="rgb(255, 0, 0)" /><circle cx="642" cy="1431" r="65" fill="rgb(0, 0, 0)" /><circle cx="321" cy="1270" r="78" fill="rgb(0, 0, 0)" /><polygon points="590,1238 336,856 1071,715 353,389" fill="rgb(255, 0, 0)" /><polygon points="235,1208 209,714 412,1373" fill="rgb(0, 0, 0)" /><rect x="531" y="13" width="51" height="140" fill="rgb(0, 0, 0)" /><polygon points="1073,1406 168,1220 576,362" fill="rgb(0, 0, 255)" /><circle cx="118" cy="826" r="66" fill="rgb(0, 0, 255)" /><circle cx="620" cy="1399" r="44" fill="rgb(255, 255, 0)" /><circle cx="362" cy="808" r="38" fill="rgb(255, 255, 0)" /><rect x="705" y="320" width="88" height="200" fill="rgb(255, 0, 0)" /><polygon points="917,701 744,1009 785,839 781,231 826,53" fill="rgb(255, 255, 0)" /><polygon points="324,687 117,288 4,828 227,84 664,627 551,1165" fill="rgb(255, 0, 0)" /><polygon points="254,283 861,1391 1094,1162 765,151" fill="rgb(255, 255, 0)" /><circle cx="407" cy="348" r="70" fill="rgb(0, 0, 0)" /><rect x="378" y="328" width="50" height="157" fill="rgb(0, 0, 255)" /><polygon points="340,206 111,1475 278,175 319,1032 345,1307" fill="rgb(255, 255, 0)" /><rect x="81" y="795" width="184" height="106" fill="rgb(255, 255, 0)" /><rect x="965" y="1329" width="70" height="160" fill="rgb(255, 0, 0)" /><rect x="841" y="551" width="161" height="164" fill="rgb(0, 0, 255)" /><circle cx="987" cy="1" r="98" fill="rgb(255, 0, 0)" /><circle cx="513" cy="589" r="54" fill="rgb(255, 0, 0)" /><circle cx="253" cy="663" r="54" fill="rgb(255, 0, 0)" /><polygon points="1101,1365 60,656 412,1473 1059,166" fill="rgb(0, 0, 255)" /><rect x="1013" y="676" width="93" height="89" fill="rgb(0, 0, 255)" /><rect x="281" y="944" width="100" height="74" fill="rgb(255, 0, 0)" /><polygon points="602,180 803,546 854,1329 148,1123 936,441 263,1142" fill="rgb(0, 0, 255)" /><circle cx="430" cy="72" r="81" fill="rgb(0, 0, 255)" /><rect x="862" y="1133" width="160" height="127" fill="rgb(255, 0, 0)" /><polygon points="155,1013 851,1216 483,348 561,537 959,1318 199,344" fill="rgb(255, 0, 0)" /><polygon points="1034,845 588,1181 8,59" fill="rgb(255, 0, 0)" /><rect x="665" y="407" width="98" height="113" fill="rgb(0, 0, 0)" /><polygon points="1038,851 859,10 833,1418" fill="rgb(255, 255, 0)" /><rect x="287" y="833" width="142" height="113" fill="rgb(0, 0, 255)" /><polygon points="254,1297 1066,45 772,353 739,695 622,828" fill="rgb(255, 255, 0)" /><circle cx="515" cy="889" r="46" fill="rgb(0, 0, 0)" /><rect x="874" y="1363" width="83" height="100" fill="rgb(255, 0, 0)" /><rect x="947" y="1439" width="160" height="95" fill="rgb(0, 0, 255)" /><polygon points="633,1151 951,1022 45,796" fill="rgb(255, 0, 0)" /><rect x="944" y="531" width="152" height="84" fill="rgb(0, 0, 255)" /><polygon points="892,816 123,245 595,435 293,1496 11,318" fill="rgb(0, 0, 255)" /><rect x="352" y="1263" width="125" height="56" fill="rgb(255, 255, 0)" /><polygon points="751,67 697,1417 968,1143 459,1455 673,458 422,740" fill="rgb(0, 0, 0)" /><rect x="291" y="732" width="155" height="151" fill="rgb(0, 0, 0)" /></svg>