<svg xmlns="http://www.w3.org/2000/svg" width="1101" height="1500"><polygon points="850,205 863,968 85,1233 699,221 767,405" fill="rgb(0, 0, 0)" /><polygon points="553,368 222,594 884,558" fill="rgb(0, 0, 0)" /><rect x="590" y="972" width="97" height="161" fill="rgb(255, 255, 0)" /><circle cx="712" cy="132" r="75" fill="rgb(255, 0, 0)" /><polygon points="137,674 974,128 155,493 544,30 192,1128 95,152" fill="rgb(255, 255, 0)" /><polygon points="656,845 643,757 741,872 72,623 157,986 1101,1178" fill="rgb(0, 0, 255)" /><circle cx="968" cy="714" r="93" fill="rgb(0, 0, 255)" /><circle cx="681" cy="535" r="89" fill="rgb(0, 0, 0)" /><rect x="209" y="1381" width="143" height="137" fill="rgb(255, 0, 0)" /><circle cx="46" cy="1269" r="41" fill="rgb(255, 255, 0)" /><rect x="523" y="651" width="67" height="93" fill="rgb(255, 0, 0)" /><rect x="668" y="392" width="178" height="153" fill="rgb(0, 0, 255)" /><rect x="1062" y="183" width="99" height="58" fill="rgb(255, 0, 0)" /><polygon points="244,18 489,73 799,7" fill="rgb(0, 0, 0)" /><polygon points="604,1492 1094,328 493,409 403,24 250,1304" fill="rgb(0, 0, 255)" /><polygon points="864,614 580,362 616,24 652,1117 17,1184 63,149" fill="rgb(0, 0, 0)" /><polygon points="971,1448 661,1186 884,364" fill="rgb(0, 0, 0)" /><circle cx="437" cy="255" r="30" fill="rgb(0, 0, 255)" /><rect x="122" y="309" width="110" height="71" fill="rgb(255, 255, 0)" /><circle cx="572" cy="652" r="50" fill="rgb(255, 255, 0)" /><polygon points="995,411 545,281 1001,597 470,401" fill="rgb(0, 0, 0)" /><circle cx="49" cy="906" r="41" fill="rgb(0, 0, 255)" /><circle cx="778" cy="443" r="94" fill="rgb(255, 0, 0)" /><rect x="158" y="1374" width="112" height="164" fill="rgb(255, 255, 0)" /><rect x="612" y="1187" width="140" height="64" fill="rgb(0, 0, 255)" /><polygon points="490,182 921,1011 645,292 605,822 439,1129" fill="rgb(0, 0, 255)" /><polygon points="1030,52 858,1067 76,132" fill="rgb(0, 0, 0)" /><circle cx="972" cy="88" r="70" fill="rgb(0, 0, 255)" /><circle cx="970" cy="782" r="91" fill="rgb(255, 0, 0)" /><rect x="335" y="503" width="72" height="61" fill="rgb(255, 255, 0)" /><circle cx="893" cy="150" r="46" fill="rgb(0, 0, 0)" /><rect x="858" y="1386" width="80" height="118" fill="rgb(0, 0, 0)" /><polygon points="1061,24 266,767 937,1246" fill="rgb(0, 0, 0)" /><rect x="360" y="643" width="50" height="67" fill="rgb(0, 0, 0)" /><circle cx="74" cy="826" r="95" fill="rgb(0, 0, 0)" /><circle cx="494" cy="43" r="29" fill="rgb(255, 0, 0)" /><rect x="805" y="1148" width="60" height="51" fill="rgb(255, 255, 0)" /><polygon points="878,362 130,15 959,1228 628,1366 191,832" fill="rgb(0, 0, 255)" /><circle cx="901" cy="943" r="86" fill="rgb(255, 0, 0)" /><polygon points="1022,403 469,709 9,507 1096,403 119,759" fill="rgb(0, 0, 255)" /><polygon points="503,562 308,737 405,1261 324,999" fill="rgb(255, 0, 0)" /><polygon points="577,397 932,709 841,182" fill="rgb(255, 0, 0)" /><polygon points="1018,1447 376,145 586,400" fill="rgb(0, 0, 0)" /><polygon points="719,1029 56,1162 658,741 187,227 203,753" fill="rgb(0, 0, 255)" /><rect x="500" y="419" width="138" height="52" fill="rgb(255, 255, 0)" /><polygon points="399,833 493,255 1099,4" fill="rgb(255, 255, 0)" /><rect x="156" y="554" width="144" height="89" fill="rgb(0, 0, 255)" /><circle cx="702" cy="1377" r="63" fill="rgb(255, 255, 0)" /><rect x="1054" y="93" width="145" height="105" fill="rgb(0, 0, 0)" /><circle cx="961" cy="927" r="97" fill="rgb(0, 0, 0)" /><polygon points="327,122 874,952 710,26 379,1245 351,1303 547,986" fill="rgb(255, 255, 0)" /><rect x="529" y="86" width="113" height="96" fill="rgb(255, 255, 0)" /><polygon points="74,293 246,357 314,415 8,1312 672,1242" fill="rgb(0, 0, 0)" /><rect x="685" y="436" width="185" height="131" fill="rgb(255, 0, 0)" /><polygon points="354,1165 60,188 980,362 1064,54 516,703 549,297" fill="rgb(0, 0, 255)" /><rect x="797" y="1341" width="150" height="151" fill="rgb(255, 255, 0)" /><circle cx="855" cy="1210" r="38" fill="rgb(0, 0, 0)" /><polygon points="784,1169 314,892 973,609 314,619 139,1385" fill="rgb(255, 0, 0)" /><polygon points="587,1010 900,47 731,1394 769,92 243,487" fill="rgb(255, 0, 0)" /><circle cx="1092" cy="377" r="26" fill="rgb(255, 0, 0)" /><polygon points="965,845 131,1035 290,941" fill="rgb(0, 0, 255)" /><rect x="766" y="1417" width="116" height="193" fill="rgb(0, 0, 0)" /><rect x="785" y="1121" width="66" height="117" fill="rgb(255, 0, 0)" /><rect x="619" y="457" width="59" height="156" fill="rgb(255, 255, 0)" /><circle cx="62" cy="1195" r="72" fill="rgb(255, 0, 0)" /><rect x="118" y="242" width="100" height="50" fill="rgb(255, 255, 0)" /><circle cx="872" cy="654" r="39" fill="rgb(0, 0, 255)" /><circle cx="460" cy="306" r="63" fill="rgb(0, 0, 255)" /><rect x="185" y="1367" width="152" height="77" fill="rgb(0, 0, 0)" /><circle cx="736" cy="1007" r="68" fill="rgb(0, 0, 0)" /><rect x="121" y="421" width="67" height="140" fill="rgb(255, 255, 0)" /><polygon points="329,1353 395,1253 529,731 108,1197" fill="rgb(255, 0, 0)" /><rect x="476" y="452" width="86" height="176" fill="rgb(255, 0, 0)" /><rect x="394" y="588" width="92" height="77" fill="rgb(255, 255, 0)" /><circle cx="900" cy="207" r="97" fill="rgb(255, 255, 0)" /><polygon points="59,1198 444,890 722,999" fill="rgb(0, 0, 0)" /></svg>