<svg xmlns="http://www.w3.org/2000/svg" width="1101" height="1500"><circle cx="620" cy="996" r="47" fill="rgb(0, 0, 255)" /><polygon points="48,175 967,1479 763,666 583,341 914,160" fill="rgb(255, 255, 0)" /><polygon points="175,569 945,924 634,653" fill="rgb(0, 0, 255)" /><rect x="110" y="838" width="52" height="114" fill="rgb(0, 0, 255)" /><polygon points="76,201 893,1087 801,1028 724,932 835,11" fill="rgb(0, 0, 255)" /><polygon points="645,1448 974,312 619,422" fill="rgb(255, 255, 0)" /><circle cx="82" cy="1139" r="41" fill="rgb(255, 0, 0)" /><circle cx="228" cy="119" r="60" fill="rgb(255, 0, 0)" /><rect x="281" y="48" width="142" height="155" fill="rgb(0, 0, 0)" /><rect x="880" y="966" width="107" height="163" fill="rgb(255, 255, 0)" /><rect x="903" y="463" width="114" height="161" fill="rgb(0, 0, 0)" /><circle cx="953" cy="919" r="30" fill="rgb(255, 0, 0)" /><polygon points="841,593 299,492 899,862 423,778" fill="rgb(0, 0, 0)" /><circle cx="914" cy="252" r="74" fill="rgb(255, 0, 0)" /><rect x="422" y="267" width="60" height="98" fill="rgb(255, 255, 0)" /><rect x="886" y="126" width="73" height="63" fill="rgb(0, 0, 255)" /><rect x="1064" y="778" width="97" height="193" fill="rgb(0, 0, 255)" /><polygon points="561,1230 1007,293 58,525 1066,1444" fill="rgb(255, 0, 0)" /><polygon points="798,187 63,1443 703,590 990,1142" fill="rgb(255, 0, 0)" /><polygon points="422,562 928,1441 302,539" fill="rgb(0, 0, 0)" /><circle cx="630" cy="1220" r="21" fill="rgb(0, 0, 0)" /><polygon points="433,844 22,374 431,751" fill="rgb(255, 255, 0)" /><circle cx="711" cy="388" r="72" fill="rgb(255, 0, 0)" /><polygon points="995,825 696,1291 901,1192" fill="rgb(0, 0, 0)" /><rect x="498" y="310" width="74" height="123" fill="rgb(255, 0, 0)" /><polygon points="789,839 536,1209 594,815 375,497 188,1386" fill="rgb(255, 0, 0)" /><circle cx="732" cy="426" r="60" fill="rgb(0, 0, 0)" /><rect x="688" y="1128" width="114" height="94" fill="rgb(0, 0, 0)" /><circle cx="209" cy="1257" r="24" fill="rgb(255, 255, 0)" /><rect x="219" y="784" width="121" height="122" fill="rgb(0, 0, 0)" /><polygon points="460,945 653,1011 854,890 519,142" fill="rgb(0, 0, 0)" /><circle cx="1065" cy="1312" r="22" fill="rgb(0, 0, 0)" /><circle cx="887" cy="926" r="84" fill="rgb(255, 255, 0)" /><rect x="560" y="184" width="107" height="113" fill="rgb(255, 255, 0)" /><circle cx="623" cy="526" r="89" fill="rgb(255, 0, 0)" /><circle cx="344" cy="279" r="43" fill="rgb(0, 0, 255)" /><polygon points="1073,107 426,706 1040,975 333,254 711,783 288,1307" fill="rgb(255, 255, 0)" /><rect x="645" y="274" width="181" height="190" fill="rgb(255, 0, 0)" /><polygon points="977,1242 602,881 381,917 87,870" fill="rgb(255, 0, 0)" /><polygon points="56,259 403,261 736,847" fill="rgb(0, 0, 0)" /><rect x="670" y="468" width="128" height="136" fill="rgb(255, 0, 0)" /><rect x="299" y="1128" width="65" height="158" fill="rgb(0, 0, 255)" /><rect x="533" y="267" width="147" height="125" fill="rgb(0, 0, 255)" /><rect x="260" y="583" width="197" height="67" fill="rgb(255, 0, 0)" /><rect x="229" y="602" width="155" height="145" fill="rgb(255, 0, 0)" /><circle cx="380" cy="1112" r="55" fill="rgb(0, 0, 255)" /><polygon points="700,1435 262,618 35,1246 104,1040 398,868 931,535" fill="rgb(255, 255, 0)" /><rect x="230" y="1178" width="66" height="123" fill="rgb(0, 0, 255)" /><rect x="486" y="1112" width="143" height="139" fill="rgb(0, 0, 255)" /><rect x="1078" y="1322" width="168" height="103" fill="rgb(0, 0, 0)" /><polygon points="961,102 447,498 311,22 423,1077" fill="rgb(0, 0, 255)" /><rect x="634" y="569" width="79" height="79" fill="rgb(255, 0, 0)" /><polygon points="272,586 535,299 396,1078 697,1069 992,1007 138,933" fill="rgb(255, 255, 0)" /><circle cx="972" cy="502" r="51" fill="rgb(0, 0, 0)" /><circle cx="332" cy="1087" r="28" fill="rgb(0, 0, 0)" /><circle cx="103" cy="602" r="58" fill="rgb(255, 0, 0)" /><rect x="774" y="794" width="154" height="163" fill="rgb(255, 255, 0)" /><rect x="778" y="226" width="92" height="87" fill="rgb(0, 0, 0)" /><polygon points="423,320 288,83 708,1268" fill="rgb(255, 255, 0)" /><circle cx="166" cy="638" r="49" fill="rgb(0, 0, 0)" /><rect x="179" y="469" width="168" height="178" fill="rgb(0, 0, 0)" /><rect x="534" y="1370" width="167" height="83" fill="rgb(255, 255, 0)" /><polygon points="274,70 999,41 0,612" fill="rgb(255, 255, 0)" /><rect x="594" y="20" width="85" height="173" fill="rgb(0, 0, 255)" /><rect x="9" y="1129" width="168" height="83" fill="rgb(255, 0, 0)" /><rect x="857" y="659" width="175" height="67" fill="rgb(255, 0, 0)" /><circle cx="135" cy="681" r="43" fill="rgb(255, 255, 0)" /><circle cx="123" cy="81" r="32" fill="rgb(255, 0, 0)" /><circle cx="41" cy="1021" r="79" fill="rgb(0, 0, 255)" /><rect x="766" y="1007" width="123" height="155" fill="rgb(0, 0, 0)" /><rect x="478" y="1025" width="104" height="192" fill="rgb(255, 255, 0)" /><rect x="81" y="254" width="77" height="184" fill="rgb(0, 0, 0)" /><circle cx="735" cy="900" r="49" fill="rgb(255, 0, 0)" /><polygon points="754,211 676,185 982,459 611,1478" fill="rgb(0, 0, 0)" /><circle cx="810" cy="442" r="42" fill="rgb(0, 0, 255)" /><rect x="424" y="239" width="56" height="198" fill="rgb(0, 0, 255)" /><rect x="71" y="1488" width="115" height="63" fill="rgb(0, 0, 255)" /><circle cx="974" cy="577" r="56" fill="rgb(0, 0, 255)" /><circle cx="275" cy="374" r="82" fill="rgb(0, 0, 0)" /><circle cx="254" cy="1179" r="61" fill="rgb(0, 0, 255)" /><rect x="38" y="1235" width="63" height="152" fill="rgb(255, 255, 0)" /><rect x="724" y="780" width="131" height="121" fill="rgb(0, 0, 0)" /><circle cx="1" cy="470" r="59" fill="rgb(255, 255, 0)" /><circle cx="67" cy="9" r="92" fill="rgb(255, 0, 0)" /><rect x="520" y="343" width="70" height="172" fill="rgb(0, 0, 0)" /><rect x="72" y="371" width="109" height="149" fill="rgb(0, 0, 255)" /><polygon points="1022,792 341,839 545,523 544,522 699,266 661,805" fill="rgb(0, 0, 0)" /><rect x="413" y="824" width="174" height="94" fill="rgb(0, 0, 0)" /><rect x="119" y="440" width="83" height="194" fill="rgb(255, 255, 0)" /><polygon points="213,392 558,248 496,1317 644,35" fill="rgb(255, 0, 0)" /><polygon points="432,831 327,228 427,1075 956,1274" fill="rgb(0, 0, 255)" /><polygon points="358,962 485,155 1058,1069 841,1293" fill="rgb(0, 0, 255)" /><rect x="918" y="131" width="134" height="55" fill="rgb(255, 255, 0)" /><rect x="995" y="1053" width="191" height="164" fill="rgb(255, 0, 0)" /><circle cx="918" cy="1421" r="88" fill="rgb(255, 0, 0)" /><rect x="424" y="1273" width="131" height="73" fill="rgb(255, 0, 0)" /><rect x="1039" y="1452" width="173" height="113" fill="rgb(0, 0, 255)" /><polygon points="642,819 536,1238 704,1294 913,134 327,1215" fill="rgb(0, 0, 0)" /><rect x="903" y="573" width="167" height="113" fill="rgb(0, 0, 255)" /><polygon points="402,1024 319,889 748,1436" fill="rgb(0, 0, 0)" /><circle cx="796" cy="564" r="20" fill="rgb(255, 255, 0)" /><circle cx="604" cy="1330" r="100" fill="rgb(255, 255, 0)" /><polygon points="69,1163 728,422 867,1275 853,1104 523,743 96,1097" fill="rgb(0, 0, 255)" /><rect x="988" y="176" width="133" height="92" fill="rgb(255, 0, 0)" /><rect x="618" y="1036" width="61" height="67" fill="rgb(255, 0, 0)" /><circle cx="992" cy="522" r="92" fill="rgb(255, 0, 0)" /><rect x="144" y="729" width="173" height="171" fill="rgb(0, 0, 0)" /><circle cx="644" cy="333" r="40" fill="rgb(255, 255, 0)" /><circle cx="635" cy="1261" r="97" fill="rgb(0, 0, 0)" /><rect x="526" y="265" width="116" height="192" fill="rgb(0, 0, 0)" /><rect x="331" y="792" width="189" height="70" fill="rgb(255, 0, 0)" /><polygon points="46,713 1068,201 969,141" fill="rgb(0, 0, 255)" /><circle cx="15" cy="885" r="97" fill="rgb(255, 255, 0)" /><polygon points="357,315 755,1202 979,1356" fill="rgb(0, 0, 255)" /><polygon points="937,686 85,930 1031,761" fill="rgb(0, 0, 0)" /><rect x="323" y="603" width="113" height="103" fill="rgb(0, 0, 0)" /><circle cx="668" cy="1185" r="68" fill="rgb(255, 255, 0)" /><rect x="406" y="1060" width="160" height="175" fill="rgb(255, 255, 0)" /><rect x="1073" y="392" width="73" height="120" fill="rgb(255, 255, 0)" /><polygon points="918,452 183,1018 1039,1230 523,765 779,236" fill="rgb(255, 0, 0)" /><polygon points="457,540 362,631 830,1252 372,533 646,432" fill="rgb(255, 0, 0)" /><rect x="958" y="554" width="95" height="130" fill="rgb(255, 0, 0)" /><circle cx="215" cy="1348" r="66" fill="rgb(255, 0, 0)" /><polygon points="1034,626 1012,950 31,195 785,1201 396,456" fill="rgb(0, 0, 255)" /><polygon points="280,472 643,1297 139,720" fill="rgb(0, 0, 0)" /><circle cx="307" cy="746" r="64" fill="rgb(255, 0, 0)" /><circle cx="164" cy="1292" r="71" fill="rgb(255, 0, 0)" /><polygon points="61,1374 694,964 1022,435" fill="rgb(0, 0, 0)" /><polygon points="203,1045 769,253 952,269 1000,213 746,678 1059,1129" fill="rgb(255, 0, 0)" /><polygon points="197,1339 652,439 601,1420 87,1041" fill="rgb(0, 0, 0)" /><polygon points="544,222 994,940 173,1169 811,123 134,896" fill="rgb(255, 0, 0)" /><circle cx="386" cy="955" r="98" fill="rgb(255, 0, 0)" /><polygon points="690,751 503,1148 92,848 846,403 977,267" fill="rgb(255, 255, 0)" /><polygon points="406,693 1048,190 960,191 734,31" fill="rgb(0, 0, 0)" /><circle cx="925" cy="289" r="53" fill="rgb(0, 0, 255)" /><rect x="620" y="345" width="165" height="79" fill="rgb(0, 0, 255)" /><polygon points="421,558 607,1144 726,1018 851,1282 1028,465 413,189" fill="rgb(0, 0, 0)" /><polygon points="102,1291 944,115 512,699 538,274 790,176" fill="rgb(0, 0, 0)" /><polygon points="695,309 165,780 926,10 573,108" fill="rgb(255, 255, 0)" /><rect x="9" y="1415" width="195" height="109" fill="rgb(0, 0, 255)" /><rect x="745" y="136" width="57" height="165" fill="rgb(255, 255, 0)" /><circle cx="295" cy="1232" r="34" fill="rgb(0, 0, 255)" /><polygon points="717,75 954,774 56,90 511,723" fill="rgb(0, 0, 255)" /><circle cx="554" cy="52" r="55" fill="rgb(0, 0, 255)" /><polygon points="272,552 199,1381 33,1084 936,1497" fill="rgb(255, 0, 0)" /><rect x="520" y="547" width="101" height="147" fill="rgb(0, 0, 255)" /><rect x="205" y="1445" width="162" height="105" fill="rgb(255, 0, 0)" /><rect x="573" y="1315" width="191" height="135" fill="rgb(0, 0, 0)" /><circle cx="814" cy="359" r="96" fill="rgb(0, 0, 0)" /><rect x="744" y="1451" width="131" height="165" fill="rgb(0, 0, 0)" /><rect x="1014" y="565" width="113" height="158" fill="rgb(0, 0, 0)" /><polygon points="377,612 931,867 898,1109 747,508" fill="rgb(255, 255, 0)" /><polygon points="176,274 919,83 1072,1298" fill="rgb(255, 0, 0)" /><circle cx="650" cy="532" r="58" fill="rgb(0, 0, 0)" /><rect x="702" y="1318" width="57" height="116" fill="rgb(255, 255, 0)" /><polygon points="923,406 276,36 948,327" fill="rgb(255, 255, 0)" /><polygon points="32,271 977,52 616,1222 895,1100" fill="rgb(0, 0, 255)" /><circle cx="1026" cy="1015" r="76" fill="rgb(0, 0, 0)" /><circle cx="655" cy="218" r="45" fill="rgb(0, 0, 0)" /><rect x="1029" y="969" width="193" height="178" fill="rgb(0, 0, 255)" /><circle cx="705" cy="1261" r="77" fill="rgb(255, 255, 0)" /><polygon points="482,1213 941,1492 216,1455" fill="rgb(0, 0, 255)" /><rect x="188" y="148" width="108" height="65" fill="rgb(0, 0, 0)" /><circle cx="732" cy="1450" r="74" fill="rgb(255, 255, 0)" /><polygon points="371,38 1032,1155 714,740" fill="rgb(0, 0, 0)" /><polygon points="100,930 544,706 366,881 14,741" fill="rgb(255, 255, 0)" /><circle cx="518" cy="897" r="32" fill="rgb(0, 0, 0)" /><circle cx="646" cy="331" r="27" fill="rgb(0, 0, 0)" /><polygon points="263,500 30,568 200,432 68,644 1050,1345 540,606" fill="rgb(255, 0, 0)" /><polygon points="279,1167 783,928 127,958" fill="rgb(0, 0, 0)" /><rect x="736" y="114" width="152" height="151" fill="rgb(0, 0, 255)" /><polygon points="1005,882 646,193 983,26 834,192 211,684" fill="rgb(0, 0, 0)" /><rect x="178" y="236" width="147" height="141" fill="rgb(0, 0, 255)" /><rect x="555" y="299" width="180" height="76" fill="rgb(255, 0, 0)" /><circle cx="1028" cy="836" r="25" fill="rgb(255, 255, 0)" /><rect x="867" y="337" width="149" height="153" fill="rgb(0, 0, 0)" /><rect x="141" y="1135" width="133" height="55" fill="rgb(0, 0, 255)" /><circle cx="158" cy="515" r="99" fill="rgb(255, 0, 0)" /><rect x="957" y="1103" width="176" height="63" fill="rgb(0, 0, 0)" /><polygon points="582,709 483,484 247,1320 183,1310" fill="rgb(0, 0, 255)" /></svg>