<svg xmlns="http://www.w3.org/2000/svg" width="1101" height="1500"><polygon points="868,1013 91,966 98,260 39,798" fill="rgb(0, 0, 255)" /><polygon points="46,602 620,1428 452,926 912,692 484,512" fill="rgb(255, 255, 0)" /><rect x="374" y="739" width="179" height="145" fill="rgb(0, 0, 255)" /><rect x="795" y="1131" width="99" height="53" fill="rgb(0, 0, 0)" /><circle cx="863" cy="909" r="44" fill="rgb(0, 0, 255)" /><circle cx="255" cy="353" r="91" fill="rgb(255, 255, 0)" /><polygon points="608,1373 997,524 1006,385 491,576 537,465 715,1008" fill="rgb(0, 0, 0)" /><polygon points="673,269 466,949 1069,753" fill="rgb(255, 255, 0)" /><polygon points="383,1119 703,1238 1085,481 1063,1245" fill="rgb(0, 0, 255)" /><rect x="211" y="230" width="138" height="111" fill="rgb(255, 255, 0)" /><polygon points="403,1472 828,9 1030,1274 593,897 503,1221 1050,527" fill="rgb(255, 0, 0)" /><polygon points="160,1102 235,1442 130,761" fill="rgb(0, 0, 0)" /><circle cx="1064" cy="860" r="97" fill="rgb(255, 0, 0)" /><polygon points="1026,974 393,821 970,1202 840,222 1090,97" fill="rgb(0, 0, 0)" /><rect x="49" y="1031" width="197" height="51" fill="rgb(0, 0, 255)" /><circle cx="636" cy="302" r="90" fill="rgb(0, 0, 0)" /><circle cx="438" cy="446" r="58" fill="rgb(0, 0, 255)" /><rect x="307" y="834" width="100" height="147" fill="rgb(255, 255, 0)" /><rect x="1096" y="1362" width="113" height="168" fill="rgb(255, 0, 0)" /><circle cx="667" cy="601" r="47" fill="rgb(0, 0, 0)" /><polygon points="324,863 354,1170 683,100 46,1497 581,982 136,1114" fill="rgb(255, 255, 0)" /><polygon points="414,175 303,35 313,766 1020,437" fill="rgb(255, 0, 0)" /><polygon points="177,372 256,78 737,1117 394,647" fill="rgb(255, 255, 0)" /><circle cx="619" cy="922" r="65" fill="rgb(255, 0, 0)" /><rect x="157" y="205" width="93" height="157" fill="rgb(255, 255, 0)" /><polygon points="442,1031 905,213 377,748 590,1363" fill="rgb(0, 0, 0)" /><circle cx="851" cy="526" r="52" fill="rgb(0, 0, 255)" /><polygon points="421,1094 86,745 469,290 1051,102" fill="rgb(255, 255, 0)" /><rect x="730" y="936" width="195" height="192" fill="rgb(0, 0, 0)" /><rect x="274" y="246" width="61" height="157" fill="rgb(255, 255, 0)" /><rect x="341" y="85" width="81" height="114" fill="rgb(255, 0, 0)" /><polygon points="525,659 132,588 487,362 936,943" fill="rgb(0, 0, 0)" /><circle cx="51" cy="916" r="64" fill="rgb(0, 0, 0)" /><circle cx="870" cy="935" r="100" fill="rgb(255, 255, 0)" /><polygon points="765,1233 268,662 156,249 1002,1159 97,619 128,744" fill="rgb(0, 0, 255)" /><rect x="330" y="272" width="142" height="82" fill="rgb(0, 0, 255)" /><polygon points="984,1205 393,1097 772,764 202,256" fill="rgb(0, 0, 255)" /><circle cx="830" cy="214" r="54" fill="rgb(0, 0, 255)" /><polygon points="957,597 753,1376 347,971 975,371 891,13" fill="rgb(255, 255, 0)" /><circle cx="657" cy="1033" r="60" fill="rgb(0, 0, 255)" /><circle cx="330" cy="1301" r="63" fill="rgb(0, 0, 255)" /><circle cx="839" cy="261" r="35" fill="rgb(255, 0, 0)" /><circle cx="575" cy="585" r="58" fill="rgb(255, 0, 0)" /><circle cx="465" cy="555" r="63" fill="rgb(255, 0, 0)" /><rect x="598" y="1244" width="152" height="96" fill="rgb(255, 255, 0)" /><circle cx="538" cy="54" r="53" fill="rgb(255, 0, 0)" /><rect x="284" y="778" width="71" height="108" fill="rgb(255, 255, 0)" /><polygon points="31,185 577,614 501,242 584,1291 392,422 1040,873" fill="rgb(0, 0, 255)" /><polygon points="301,1257 1093,607 927,712 498,486 429,362" fill="rgb(0, 0, 255)" /><circle cx="980" cy="1225" r="79" fill="rgb(255, 0, 0)" /><polygon points="878,1418 699,1110 743,1214 796,97" fill="rgb(255, 0, 0)" /><circle cx="67" cy="265" r="86" fill="rgb(0, 0, 0)" /><polygon points="754,534 129,1417 286,214 939,1146 593,778 519,71" fill="rgb(255, 0, 0)" /><rect x="182" y="1184" width="71" height="64" fill="rgb(0, 0, 0)" /><rect x="205" y="131" width="66" height="124" fill="rgb(0, 0, 0)" /><polygon points="167,919 634,134 877,1199 65,872 790,1084" fill="rgb(255, 255, 0)" /><polygon points="54,772 257,516 260,292 725,1388 753,203 675,1207" fill="rgb(255, 0, 0)" /><polygon points="779,732 93,608 737,288" fill="rgb(0, 0, 255)" /><polygon points="855,662 883,1432 818,1110 993,552" fill="rgb(255, 255, 0)" /><rect x="249" y="625" width="102" height="89" fill="rgb(0, 0, 0)" /><circle cx="497" cy="1083" r="55" fill="rgb(0, 0, 255)" /><circle cx="260" cy="1259" r="36" fill="rgb(255, 0, 0)" /><rect x="165" y="129" width="177" height="168" fill="rgb(0, 0, 255)" /><polygon points="735,913 272,626 718,1213 987,1097" fill="rgb(255, 0, 0)" /><polygon points="194,1126 587,729 85,1375 1033,151 644,336" fill="rgb(255, 255, 0)" /><polygon points="729,1472 545,289 7,551 338,197 960,937" fill="rgb(255, 255, 0)" /><circle cx="902" cy="1357" r="68" fill="rgb(255, 0, 0)" /><circle cx="1071" cy="950" r="22" fill="rgb(0, 0, 255)" /><rect x="827" y="219" width="120" height="183" fill="rgb(0, 0, 255)" /><circle cx="898" cy="137" r="40" fill="rgb(255, 255, 0)" /><rect x="748" y="966" width="90" height="97" fill="rgb(255, 0, 0)" /><polygon points="374,693 37,570 1056,941 493,1432 672,264 122,1439" fill="rgb(0, 0, 0)" /><polygon points="313,858 467,626 498,589 455,15 685,21 934,888" fill="rgb(0, 0, 0)" /><circle cx="298" cy="459" r="29" fill="rgb(255, 255, 0)" /><polygon points="802,207 372,82 558,1350 0,794 809,1087 528,1499" fill="rgb(0, 0, 255)" /><circle cx="22" cy="852" r="78" fill="rgb(0, 0, 255)" /><circle cx="410" cy="602" r="75" fill="rgb(255, 0, 0)" /><rect x="147" y="828" width="68" height="130" fill="rgb(255, 255, 0)" /><circle cx="135" cy="71" r="94" fill="rgb(0, 0, 255)" /><rect x="20" y="999" width="136" height="129" fill="rgb(255, 255, 0)" /><circle cx="14" cy="509" r="84" fill="rgb(255, 0, 0)" /><rect x="848" y="917" width="166" height="107" fill="rgb(0, 0, 255)" /><rect x="43" y="541" width="108" height="98" fill="rgb(255, 255, 0)" /><rect x="86" y="1183" width="148" height="107" fill="rgb(0, 0, 0)" /><rect x="610" y="45" width="170" height="111" fill="rgb(255, 0, 0)" /><circle cx="901" cy="63" r="84" fill="rgb(0, 0, 0)" /><rect x="893" y="1474" width="185" height="61" fill="rgb(0, 0, 0)" /><polygon points="348,139 1096,1458 191,5 472,441" fill="rgb(0, 0, 255)" /><rect x="279" y="892" width="52" height="120" fill="rgb(255, 0, 0)" /><circle cx="353" cy="619" r="98" fill="rgb(0, 0, 255)" /><circle cx="1004" cy="1186" r="82" fill="rgb(0, 0, 0)" /><circle cx="195" cy="234" r="25" fill="rgb(255, 0, 0)" /><polygon points="474,1255 576,1443 766,739" fill="rgb(255, 255, 0)" /><circle cx="764" cy="643" r="77" fill="rgb(255, 0, 0)" /><polygon points="905,1110 1030,157 397,735 922,967 285,113 243,248" fill="rgb(255, 0, 0)" /><polygon points="379,158 492,187 408,1114 858,1183 794,68 798,1229" fill="rgb(255, 0, 0)" /><polygon points="529,895 511,344 1003,400 640,309 649,1399" fill="rgb(0, 0, 255)" /><circle cx="1044" cy="164" r="76" fill="rgb(0, 0, 0)" /><polygon points="275,1255 409,34 293,421 1071,722" fill="rgb(255, 255, 0)" /><rect x="273" y="706" width="130" height="71" fill="rgb(255, 0, 0)" /><circle cx="815" cy="1143" r="80" fill="rgb(255, 0, 0)" /><rect x="45" y="616" width="187" height="79" fill="rgb(0, 0, 0)" /><polygon points="731,577 211,421 165,1074 15,1434" fill="rgb(255, 0, 0)" /><rect x="882" y="1381" width="155" height="176" fill="rgb(255, 255, 0)" /><circle cx="403" cy="224" r="71" fill="rgb(0, 0, 255)" /><polygon points="37,1183 421,487 302,1418" fill="rgb(255, 255, 0)" /><polygon points="201,1360 691,1370 618,1120" fill="rgb(0, 0, 0)" /><polygon points="1098,14 970,1307 474,477 588,1014 86,531 835,743" fill="rgb(255, 0, 0)" /><circle cx="540" cy="694" r="44" fill="rgb(0, 0, 0)" /><rect x="781" y="929" width="53" height="78" fill="rgb(0, 0, 0)" /><polygon points="50,1334 556,156 563,1021 623,521" fill="rgb(0, 0, 255)" /><rect x="81" y="1270" width="145" height="148" fill="rgb(0, 0, 0)" /><polygon points="540,894 507,189 238,665 711,306 920,421" fill="rgb(255, 255, 0)" /><rect x="683" y="1169" width="133" height="52" fill="rgb(255, 255, 0)" /><rect x="726" y="1329" width="64" height="109" fill="rgb(0, 0, 0)" /><rect x="242" y="305" width="143" height="85" fill="rgb(255, 255, 0)" /><circle cx="429" cy="1209" r="96" fill="rgb(0, 0, 0)" /><rect x="415" y="1161" width="110" height="183" fill="rgb(0, 0, 0)" /><polygon points="213,1412 782,1461 175,734" fill="rgb(255, 255, 0)" /><rect x="884" y="595" width="153" height="50" fill="rgb(255, 0, 0)" /><circle cx="1080" cy="515" r="94" fill="rgb(255, 0, 0)" /><circle cx="121" cy="407" r="80" fill="rgb(255, 0, 0)" /><rect x="387" y="1408" width="142" height="137" fill="rgb(255, 0, 0)" /><rect x="950" y="1458" width="178" height="111" fill="rgb(255, 255, 0)" /><polygon points="798,1170 555,1428 38,159 254,873 130,1317 126,323" fill="rgb(255, 0, 0)" /><rect x="471" y="930" width="176" height="73" fill="rgb(255, 0, 0)" /><circle cx="257" cy="1130" r="39" fill="rgb(0, 0, 0)" /><circle cx="917" cy="1375" r="90" fill="rgb(0, 0, 255)" /><rect x="1063" y="522" width="86" height="82" fill="rgb(255, 0, 0)" /><rect x="311" y="213" width="106" height="100" fill="rgb(255, 0, 0)" /><rect x="673" y="478" width="166" height="151" fill="rgb(0, 0, 255)" /><rect x="334" y="332" width="87" height="132" fill="rgb(255, 0, 0)" /><circle cx="620" cy="683" r="59" fill="rgb(255, 255, 0)" /><rect x="677" y="838" width="152" height="161" fill="rgb(255, 0, 0)" /><rect x="514" y="1112" width="58" height="118" fill="rgb(255, 255, 0)" /><polygon points="1004,590 928,573 559,1140" fill="rgb(0, 0, 0)" /><circle cx="313" cy="593" r="36" fill="rgb(0, 0, 255)" /><rect x="717" y="1031" width="72" height="156" fill="rgb(255, 0, 0)" /><rect x="805" y="236" width="160" height="151" fill="rgb(255, 0, 0)" /><polygon points="83,833 629,109 910,1441 244,1196 124,794 930,1012" fill="rgb(255, 255, 0)" /><polygon points="823,1153 602,546 679,1347" fill="rgb(0, 0, 255)" /><polygon points="513,486 1051,100 213,54 664,1491" fill="rgb(0, 0, 255)" /><circle cx="823" cy="580" r="28" fill="rgb(0, 0, 255)" /><polygon points="856,16 790,651 897,42 159,1224 11,1268 1070,1124" fill="rgb(255, 255, 0)" /><circle cx="835" cy="399" r="67" fill="rgb(255, 255, 0)" /><circle cx="580" cy="808" r="31" fill="rgb(0, 0, 255)" /><rect x="466" y="482" width="75" height="127" fill="rgb(0, 0, 0)" /><circle cx="218" cy="805" r="21" fill="rgb(0, 0, 255)" /><polygon points="416,597 594,841 51,1109 596,1400 930,1394 1098,900" fill="rgb(0, 0, 0)" /><circle cx="958" cy="1214" r="98" fill="rgb(255, 0, 0)" /><polygon points="1027,589 943,950 9,1256 338,1095 430,1464" fill="rgb(255, 0, 0)" /><circle cx="430" cy="337" r="79" fill="rgb(255, 255, 0)" /><polygon points="447,210 358,1322 811,216 896,1309" fill="rgb(0, 0, 255)" /><polygon points="429,1303 73,551 681,590 1052,17 942,1043 1053,118" fill="rgb(255, 255, 0)" /><rect x="371" y="1050" width="198" height="114" fill="rgb(255, 255, 0)" /><rect x="28" y="456" width="62" height="104" fill="rgb(0, 0, 0)" /><polygon points="158,792 924,1095 4,1495" fill="rgb(0, 0, 255)" /><circle cx="189" cy="1099" r="86" fill="rgb(255, 0, 0)" /><rect x="263" y="1315" width="105" height="70" fill="rgb(255, 255, 0)" /><polygon points="833,98 113,1307 1004,816 946,358 607,842 6,574" fill="rgb(0, 0, 0)" /><polygon points="764,541 409,247 582,648 751,387 927,280 932,97" fill="rgb(255, 0, 0)" /><rect x="852" y="872" width="129" height="121" fill="rgb(0, 0, 0)" /><rect x="432" y="843" width="164" height="92" fill="rgb(0, 0, 255)" /><rect x="746" y="1340" width="161" height="172" fill="rgb(0, 0, 255)" /><polygon points="364,554 910,295 283,141 405,470 16,1499" fill="rgb(255, 0, 0)" /><rect x="956" y="719" width="84" height="123" fill="rgb(255, 0, 0)" /><rect x="203" y="1219" width="188" height="122" fill="rgb(255, 255, 0)" /><polygon points="1066,1175 114,1212 257,1439 230,883" fill="rgb(0, 0, 255)" /><rect x="574" y="794" width="87" height="57" fill="rgb(255, 0, 0)" /><polygon points="181,327 1098,355 576,551 490,280 457,152" fill="rgb(255, 255, 0)" /><rect x="799" y="175" width="79" height="60" fill="rgb(0, 0, 0)" /><rect x="1024" y="1469" width="55" height="92" fill="rgb(255, 255, 0)" /><polygon points="511,925 500,734 988,1279 509,1223 1065,1340 413,129" fill="rgb(255, 0, 0)" /><polygon points="542,409 531,146 827,831 560,882" fill="rgb(255, 255, 0)" /><polygon points="1074,38 654,758 642,638" fill="rgb(255, 0, 0)" /><polygon points="1039,500 687,248 825,1207 641,1290 751,991 1072,1105" fill="rgb(255, 0, 0)" /><circle cx="645" cy="631" r="27" fill="rgb(255, 255, 0)" /><circle cx="339" cy="1311" r="31" fill="rgb(255, 0, 0)" /><polygon points="85,1266 590,1268 638,1251 247,440 887,1163 989,654" fill="rgb(0, 0, 255)" /><rect x="710" y="284" width="185" height="165" fill="rgb(0, 0, 255)" /><rect x="823" y="481" width="121" height="115" fill="rgb(255, 0, 0)" /><polygon points="799,1259 787,1405 490,1408" fill="rgb(0, 0, 0)" /><polygon points="824,495 343,424 624,32 868,757 357,1071 475,856" fill="rgb(0, 0, 0)" /><rect x="478" y="1122" width="60" height="97" fill="rgb(255, 255, 0)" /><polygon points="445,411 472,851 914,954" fill="rgb(255, 255, 0)" /><polygon points="934,668 939,945 354,174 347,755 1068,239 165,169" fill="rgb(255, 0, 0)" /><rect x="498" y="509" width="116" height="71" fill="rgb(255, 0, 0)" /><circle cx="0" cy="1124" r="84" fill="rgb(0, 0, 0)" /><rect x="99" y="1050" width="126" height="174" fill="rgb(0, 0, 0)" /><circle cx="806" cy="439" r="77" fill="rgb(255, 0, 0)" /><polygon points="710,125 70,187 170,309" fill="rgb(255, 255, 0)" /><rect x="355" y="173" width="56" height="193" fill="rgb(255, 255, 0)" /><circle cx="435" cy="923" r="52" fill="rgb(0, 0, 255)" /><circle cx="215" cy="594" r="65" fill="rgb(0, 0, 255)" /><circle cx="193" cy="1246" r="99" fill="rgb(255, 0, 0)" /><polygon points="466,1012 1063,519 9,1423" fill="rgb(0, 0, 255)" /><polygon points="633,1196 310,46 75,484 456,961 1036,920" fill="rgb(0, 0, 255)" /><circle cx="715" cy="1454" r="83" fill="rgb(0, 0, 0)" /></svg>