<svg xmlns="http://www.w3.org/2000/svg" width="1101" height="1500"><circle cx="45" cy="945" r="96" fill="rgb(255, 0, 0)" /><polygon points="766,240 471,1125 581,823 262,1497" fill="rgb(255, 255, 0)" /><circle cx="307" cy="533" r="34" fill="rgb(255, 255, 0)" /><rect x="672" y="996" width="138" height="145" fill="rgb(0, 0, 255)" /><circle cx="144" cy="788" r="84" fill="rgb(255, 255, 0)" /><rect x="95" y="1037" width="130" height="116" fill="rgb(255, 255, 0)" /><rect x="914" y="1220" width="128" height="118" fill="rgb(0, 0, 255)" /><polygon points="304,984 756,1050 872,1247 731,1395" fill="rgb(255, 0, 0)" /><polygon points="717,1342 384,477 851,1470 707,1066" fill="rgb(255, 255, 0)" /><polygon points="536,950 1052,507 215,1154 1071,136 316,235 993,1152" fill="rgb(0, 0, 0)" /><circle cx="619" cy="276" r="41" fill="rgb(255, 255, 0)" /><polygon points="455,801 104,204 156,1390 830,1492 277,997" fill="rgb(0, 0, 0)" /><rect x="225" y="251" width="147" height="87" fill="rgb(0, 0, 0)" /><rect x="1098" y="264" width="81" height="197" fill="rgb(255, 255, 0)" /><circle cx="26" cy="1260" r="38" fill="rgb(0, 0, 255)" /><polygon points="577,761 954,1428 419,396 720,635" fill="rgb(255, 0, 0)" /><rect x="257" y="1060" width="67" height="65" fill="rgb(0, 0, 255)" /><circle cx="642" cy="102" r="20" fill="rgb(0, 0, 255)" /><circle cx="24" cy="562" r="71" fill="rgb(0, 0, 0)" /><rect x="730" y="101" width="152" height="138" fill="rgb(0, 0, 0)" /><polygon points="310,316 251,775 49,827 995,174 615,580" fill="rgb(0, 0, 0)" /><circle cx="990" cy="591" r="38" fill="rgb(0, 0, 255)" /><rect x="91" y="822" width="74" height="177" fill="rgb(255, 255, 0)" /><rect x="211" y="705" width="109" height="69" fill="rgb(0, 0, 0)" /><rect x="332" y="1333" width="132" height="150" fill="rgb(255, 0, 0)" /><polygon points="194,785 123,1174 221,717 442,342 989,626 1034,89" fill="rgb(0, 0, 0)" /><polygon points="477,665 678,958 175,377 141,1412 412,295 449,565" fill="rgb(255, 255, 0)" /><rect x="1031" y="761" width="87" height="127" fill="rgb(0, 0, 255)" /><polygon points="756,622 199,105 743,6 117,331 856,16" fill="rgb(255, 0, 0)" /><polygon points="552,872 548,369 675,1274 474,1489 772,1085 83,1336" fill="rgb(0, 0, 255)" /><polygon points="268,113 895,1166 704,1367 1010,914 1053,364" fill="rgb(0, 0, 0)" /><polygon points="195,558 728,1075 672,562" fill="rgb(255, 0, 0)" /><polygon points="460,804 78,866 360,615 539,864" fill="rgb(255, 0, 0)" /><rect x="454" y="683" width="129" height="146" fill="rgb(0, 0, 255)" /><rect x="51" y="775" width="190" height="94" fill="rgb(0, 0, 0)" /><rect x="472" y="1346" width="136" height="70" fill="rgb(255, 0, 0)" /><rect x="378" y="1093" width="140" height="58" fill="rgb(0, 0, 0)" /><polygon points="478,423 346,1260 70,167 54,1108" fill="rgb(255, 0, 0)" /><circle cx="455" cy="815" r="44" fill="rgb(255, 255, 0)" /><rect x="101" y="673" width="187" height="91" fill="rgb(0, 0, 0)" /><circle cx="252" cy="495" r="72" fill="rgb(255, 255, 0)" /><circle cx="222" cy="397" r="21" fill="rgb(0, 0, 255)" /><circle cx="18" cy="733" r="21" fill="rgb(0, 0, 0)" /><circle cx="352" cy="1251" r="79" fill="rgb(0, 0, 255)" /><polygon points="1070,307 1063,1056 713,672 812,545 725,705" fill="rgb(0, 0, 255)" /><circle cx="444" cy="865" r="96" fill="rgb(0, 0, 255)" /><circle cx="998" cy="1186" r="23" fill="rgb(0, 0, 255)" /><polygon points="95,863 745,1369 1061,170 384,357 235,159 759,1155" fill="rgb(0, 0, 255)" /><rect x="485" y="1285" width="153" height="56" fill="rgb(255, 255, 0)" /><polygon points="823,534 127,1324 463,360 726,1193 926,819 1091,359" fill="rgb(0, 0, 0)" /><rect x="461" y="194" width="129" height="74" fill="rgb(255, 0, 0)" /><polygon points="1009,767 509,1231 291,1400 364,822 1061,1372" fill="rgb(0, 0, 0)" /><circle cx="360" cy="36" r="75" fill="rgb(0, 0, 255)" /><circle cx="77" cy="53" r="59" fill="rgb(255, 255, 0)" /><rect x="20" y="757" width="156" height="199" fill="rgb(255, 0, 0)" /><circle cx="454" cy="1174" r="98" fill="rgb(0, 0, 255)" /><rect x="569" y="634" width="173" height="161" fill="rgb(255, 0, 0)" /><polygon points="941,1079 114,1292 35,265 614,718 149,888" fill="rgb(255, 0, 0)" /><rect x="880" y="164" width="71" height="146" fill="rgb(0, 0, 255)" /><polygon points="954,922 942,1004 527,785 424,1428" fill="rgb(0, 0, 0)" /><circle cx="170" cy="49" r="60" fill="rgb(0, 0, 255)" /><circle cx="543" cy="277" r="97" fill="rgb(255, 255, 0)" /><circle cx="1072" cy="786" r="29" fill="rgb(0, 0, 255)" /><rect x="746" y="767" width="151" height="113" fill="rgb(0, 0, 0)" /><polygon points="634,886 9,1126 83,692 117,404 517,748 950,530" fill="rgb(255, 255, 0)" /><rect x="950" y="1174" width="122" height="188" fill="rgb(0, 0, 255)" /><rect x="688" y="566" width="125" height="128" fill="rgb(255, 0, 0)" /><circle cx="680" cy="495" r="51" fill="rgb(255, 255, 0)" /><rect x="978" y="162" width="198" height="65" fill="rgb(0, 0, 0)" /><circle cx="677" cy="192" r="87" fill="rgb(255, 255, 0)" /><circle cx="913" cy="345" r="22" fill="rgb(0, 0, 255)" /><rect x="1027" y="61" width="72" height="55" fill="rgb(0, 0, 255)" /><rect x="700" y="1278" width="163" height="174" fill="rgb(255, 0, 0)" /><circle cx="468" cy="1304" r="77" fill="rgb(0, 0, 0)" /><rect x="331" y="346" width="122" height="161" fill="rgb(0, 0, 0)" /><circle cx="609" cy="587" r="89" fill="rgb(0, 0, 255)" /><circle cx="1053" cy="1442" r="20" fill="rgb(0, 0, 255)" /><polygon points="672,593 218,468 786,1443" fill="rgb(255, 255, 0)" /><circle cx="109" cy="1062" r="57" fill="rgb(0, 0, 0)" /><polygon points="791,1058 921,779 80,327 412,254" fill="rgb(255, 0, 0)" /><circle cx="890" cy="844" r="97" fill="rgb(0, 0, 255)" /><rect x="685" y="1380" width="183" height="199" fill="rgb(0, 0, 255)" /><rect x="1068" y="1476" width="74" height="140" fill="rgb(0, 0, 255)" /><rect x="979" y="68" width="96" height="61" fill="rgb(255, 0, 0)" /><polygon points="557,970 666,1356 585,1313 820,23" fill="rgb(0, 0, 0)" /><polygon points="772,783 760,519 370,1460 308,934 7,656 653,1365" fill="rgb(255, 255, 0)" /><polygon points="841,534 905,129 809,573" fill="rgb(0, 0, 255)" /><polygon points="1056,640 56,244 1042,801 610,550 982,115 1044,1457" fill="rgb(0, 0, 0)" /><circle cx="808" cy="974" r="59" fill="rgb(255, 255, 0)" /><rect x="726" y="931" width="126" height="106" fill="rgb(255, 255, 0)" /><circle cx="267" cy="172" r="43" fill="rgb(0, 0, 0)" /><circle cx="61" cy="293" r="100" fill="rgb(0, 0, 255)" /><rect x="990" y="940" width="163" height="80" fill="rgb(0, 0, 255)" /><circle cx="763" cy="505" r="70" fill="rgb(0, 0, 255)" /><rect x="557" y="982" width="52" height="176" fill="rgb(0, 0, 255)" /><polygon points="1007,672 530,971 471,693 487,1332" fill="rgb(255, 0, 0)" /><rect x="1092" y="496" width="140" height="77" fill="rgb(255, 255, 0)" /><polygon points="688,1303 474,1481 329,1184" fill="rgb(0, 0, 255)" /><polygon points="954,968 769,73 251,269 437,1030 220,442 7,234" fill="rgb(255, 255, 0)" /><circle cx="215" cy="1232" r="79" fill="rgb(0, 0, 0)" /><circle cx="184" cy="151" r="24" fill="rgb(255, 255, 0)" /><polygon points="22,81 589,340 526,62 374,1347" fill="rgb(0, 0, 0)" /><rect x="249" y="316" width="93" height="180" fill="rgb(0, 0, 0)" /><polygon points="452,665 780,291 1058,1187 1046,625" fill="rgb(255, 255, 0)" /><rect x="796" y="175" width="113" height="72" fill="rgb(0, 0, 255)" /><polygon points="674,1339 80,777 769,1033" fill="rgb(255, 255, 0)" /><polygon points="288,852 1081,979 186,1010" fill="rgb(0, 0, 0)" /><rect x="258" y="183" width="156" height="200" fill="rgb(255, 255, 0)" /><circle cx="599" cy="402" r="27" fill="rgb(0, 0, 0)" /><rect x="484" y="446" width="139" height="131" fill="rgb(0, 0, 0)" /><circle cx="224" cy="676" r="40" fill="rgb(255, 255, 0)" /><rect x="1016" y="1423" width="94" height="76" fill="rgb(255, 0, 0)" /></svg>