<svg xmlns="http://www.w3.org/2000/svg" width="1101" height="1500"><rect x="205" y="691" width="179" height="171" fill="rgb(0, 0, 255)" /><circle cx="226" cy="1228" r="63" fill="rgb(255, 0, 0)" /><polygon points="511,153 539,1313 774,1321" fill="rgb(0, 0, 0)" /><rect x="100" y="837" width="66" height="174" fill="rgb(0, 0, 255)" /><circle cx="999" cy="694" r="35" fill="rgb(0, 0, 255)" /><circle cx="510" cy="750" r="82" fill="rgb(255, 255, 0)" /><rect x="828" y="554" width="66" height="188" fill="rgb(255, 255, 0)" /><rect x="1079" y="638" width="141" height="86" fill="rgb(0, 0, 255)" /><polygon points="852,842 501,328 8,684 231,794" fill="rgb(0, 0, 255)" /><polygon points="402,99 349,370 556,463 1083,1231" fill="rgb(255, 0, 0)" /><rect x="162" y="167" width="101" height="69" fill="rgb(255, 255, 0)" /><rect x="869" y="1154" width="183" height="62" fill="rgb(0, 0, 0)" /><polygon points="644,229 69,176 222,1296" fill="rgb(0, 0, 0)" /><polygon points="67,968 7,774 780,1376" fill="rgb(255, 255, 0)" /><rect x="494" y="1153" width="123" height="184" fill="rgb(255, 255, 0)" /><circle cx="921" cy="1215" r="82" fill="rgb(255, 0, 0)" /></svg>