<svg xmlns="http://www.w3.org/2000/svg" width="1101" height="1500"><rect x="1092" y="271" width="71" height="99" fill="rgb(255, 255, 0)" /><rect x="410" y="1220" width="144" height="154" fill="rgb(0, 0, 0)" /><rect x="1063" y="719" width="149" height="77" fill="rgb(255, 255, 0)" /><circle cx="1062" cy="1342" r="51" fill="rgb(0, 0, 0)" /><polygon points="933,1217 779,1239 139,1228" fill="rgb(0, 0, 255)" /><polygon points="670,139 1075,121 864,183 745,506 268,193 324,554" fill="rgb(0, 0, 255)" /><circle cx="473" cy="166" r="78" fill="rgb(255, 0, 0)" /><rect x="72" y="654" width="143" height="69" fill="rgb(0, 0, 0)" /><circle cx="568" cy="24" r="81" fill="rgb(0, 0, 0)" /><circle cx="688" cy="384" r="91" fill="rgb(255, 0, 0)" /><rect x="504" y="270" width="192" height="194" fill="rgb(255, 0, 0)" /><polygon points="825,433 875,580 130,324 457,134 787,312" fill="rgb(255, 255, 0)" /><polygon points="689,330 239,978 382,491 942,403 1058,592" fill="rgb(255, 255, 0)" /><rect x="750" y="1471" width="126" height="138" fill="rgb(255, 0, 0)" /><circle cx="302" cy="63" r="59" fill="rgb(255, 0, 0)" /><circle cx="61" cy="880" r="37" fill="rgb(0, 0, 0)" /><circle cx="717" cy="1109" r="39" fill="rgb(255, 255, 0)" /><polygon points="106,0 1070,1304 112,282 738,1476" fill="rgb(0, 0, 255)" /><polygon points="687,172 782,378 483,1016 1059,477 566,1125 957,720" fill="rgb(0, 0, 255)" /><polygon points="702,1372 475,1243 327,875 216,1007 964,1091 944,973" fill="rgb(0, 0, 255)" /><rect x="78" y="1327" width="193" height="175" fill="rgb(255, 255, 0)" /><rect x="658" y="1308" width="96" height="162" fill="rgb(255, 0, 0)" /><polygon points="640,1036 804,756 470,311 924,518" fill="rgb(0, 0, 255)" /><rect x="888" y="196" width="88" height="50" fill="rgb(255, 0, 0)" /><rect x="919" y="560" width="55" height="175" fill="rgb(0, 0, 0)" /><polygon points="544,814 244,891 184,971 606,1350" fill="rgb(255, 255, 0)" /><polygon points="636,472 74,1308 384,1421" fill="rgb(0, 0, 255)" /><rect x="17" y="858" width="181" height="195" fill="rgb(255, 0, 0)" /><polygon points="948,613 114,618 311,252" fill="rgb(255, 255, 0)" /><polygon points="261,488 790,477 739,1283" fill="rgb(255, 0, 0)" /><circle cx="202" cy="1149" r="90" fill="rgb(255, 0, 0)" /><polygon points="12,824 201,1454 665,116 822,721 259,600" fill="rgb(255, 255, 0)" /><rect x="35" y="1495" width="171" height="70" fill="rgb(0, 0, 255)" /><rect x="357" y="1406" width="127" height="121" fill="rgb(0, 0, 0)" /><rect x="790" y="1388" width="118" height="95" fill="rgb(0, 0, 255)" /><rect x="282" y="442" width="122" height="84" fill="rgb(0, 0, 0)" /><polygon points="514,270 500,147 325,835 347,60 563,1076 378,277" fill="rgb(0, 0, 0)" /><circle cx="43" cy="532" r="68" fill="rgb(0, 0, 255)" /><rect x="911" y="503" width="75" height="152" fill="rgb(255, 255, 0)" /><rect x="787" y="364" width="175" height="57" fill="rgb(0, 0, 0)" /><rect x="472" y="904" width="117" height="57" fill="rgb(0, 0, 0)" /><rect x="107" y="316" width="96" height="147" fill="rgb(255, 0, 0)" /><rect x="1082" y="13" width="200" height="157" fill="rgb(255, 255, 0)" /><circle cx="560" cy="1084" r="79" fill="rgb(255, 0, 0)" /><polygon points="423,1311 614,97 488,1261 879,242 621,798" fill="rgb(0, 0, 0)" /><polygon points="264,678 139,1431 98,1161" fill="rgb(0, 0, 255)" /><circle cx="675" cy="873" r="38" fill="rgb(0, 0, 0)" /><rect x="68" y="466" width="120" height="55" fill="rgb(0, 0, 0)" /><circle cx="1005" cy="421" r="67" fill="rgb(0, 0, 255)" /><circle cx="141" cy="1341" r="23" fill="rgb(0, 0, 0)" /><circle cx="1090" cy="812" r="23" fill="rgb(0, 0, 255)" /><rect x="436" y="1043" width="69" height="100" fill="rgb(255, 255, 0)" /><circle cx="938" cy="869" r="48" fill="rgb(255, 0, 0)" /><polygon points="317,351 409,151 690,195 879,1041 987,143 427,426" fill="rgb(255, 255, 0)" /><circle cx="148" cy="124" r="73" fill="rgb(255, 255, 0)" /><rect x="39" y="264" width="95" height="182" fill="rgb(255, 255, 0)" /><polygon points="441,580 133,754 857,1127 616,705 477,827" fill="rgb(0, 0, 0)" /><rect x="1034" y="206" width="145" height="129" fill="rgb(255, 255, 0)" /><polygon points="796,818 101,140 659,615" fill="rgb(0, 0, 0)" /><polygon points="1008,1449 433,196 333,701 184,280" fill="rgb(0, 0, 0)" /><rect x="459" y="1081" width="52" height="97" fill="rgb(255, 255, 0)" /><rect x="642" y="1488" width="109" height="96" fill="rgb(0, 0, 255)" /><polygon points="119,989 419,1049 245,450 996,716 667,141" fill="rgb(0, 0, 0)" /><polygon points="763,981 426,414 990,201" fill="rgb(0, 0, 255)" /></svg>