<svg xmlns="http://www.w3.org/2000/svg" width="1101" height="1500"><rect x="941" y="174" width="164" height="151" fill="rgb(0, 0, 255)" /><rect x="349" y="974" width="161" height="195" fill="rgb(0, 0, 255)" /><rect x="117" y="1358" width="115" height="65" fill="rgb(255, 0, 0)" /><polygon points="915,1202 547,234 229,998 1090,1022" fill="rgb(255, 255, 0)" /><rect x="80" y="891" width="170" height="184" fill="rgb(255, 255, 0)" /><rect x="877" y="473" width="147" height="86" fill="rgb(255, 255, 0)" /><polygon points="648,1454 1029,1366 933,1101 1030,907 191,516" fill="rgb(255, 255, 0)" /><rect x="449" y="341" width="56" height="62" fill="rgb(0, 0, 0)" /><circle cx="554" cy="911" r="42" fill="rgb(255, 255, 0)" /><polygon points="835,32 1057,215 887,1339 714,465 202,783" fill="rgb(255, 255, 0)" /><rect x="90" y="542" width="119" height="67" fill="rgb(0, 0, 0)" /><polygon points="763,1291 429,1181 211,1256 769,828" fill="rgb(0, 0, 255)" /><rect x="335" y="803" width="189" height="142" fill="rgb(0, 0, 0)" /><polygon points="740,166 822,690 220,646 273,516 563,1467 57,559" fill="rgb(255, 255, 0)" /><polygon points="803,230 423,584 719,1258 231,1386 713,500" fill="rgb(0, 0, 0)" /><circle cx="327" cy="1064" r="22" fill="rgb(0, 0, 255)" /><circle cx="364" cy="1454" r="57" fill="rgb(0, 0, 255)" /><circle cx="695" cy="982" r="53" fill="rgb(0, 0, 0)" /><rect x="1074" y="1351" width="72" height="146" fill="rgb(0, 0, 0)" /><polygon points="364,112 278,1424 983,618" fill="rgb(0, 0, 255)" /><rect x="310" y="214" width="75" height="73" fill="rgb(255, 255, 0)" /><circle cx="340" cy="958" r="48" fill="rgb(255, 255, 0)" /><rect x="1097" y="1463" width="86" height="51" fill="rgb(255, 255, 0)" /><rect x="184" y="773" width="131" height="161" fill="rgb(255, 0, 0)" /><rect x="288" y="72" width="81" height="154" fill="rgb(255, 255, 0)" /><rect x="432" y="860" width="192" height="63" fill="rgb(0, 0, 255)" /><polygon points="895,733 837,129 89,237" fill="rgb(0, 0, 255)" /><rect x="1082" y="362" width="102" height="52" fill="rgb(255, 0, 0)" /><circle cx="545" cy="1193" r="85" fill="rgb(255, 255, 0)" /><rect x="981" y="1096" width="57" height="194" fill="rgb(255, 0, 0)" /><rect x="585" y="911" width="53" height="132" fill="rgb(0, 0, 0)" /><rect x="926" y="697" width="91" height="106" fill="rgb(255, 255, 0)" /><rect x="15" y="1192" width="103" height="77" fill="rgb(0, 0, 0)" /><rect x="905" y="395" width="179" height="100" fill="rgb(255, 255, 0)" /><circle cx="419" cy="700" r="27" fill="rgb(255, 255, 0)" /><rect x="691" y="554" width="197" height="137" fill="rgb(0, 0, 0)" /><rect x="582" y="551" width="176" height="128" fill="rgb(0, 0, 0)" /><polygon points="187,152 137,1349 154,477 18,326 249,136 106,959" fill="rgb(255, 255, 0)" /><rect x="161" y="1045" width="140" height="143" fill="rgb(255, 255, 0)" /><rect x="999" y="583" width="163" height="64" fill="rgb(0, 0, 255)" /><polygon points="965,1135 59,87 972,1488 614,1041" fill="rgb(0, 0, 0)" /><rect x="286" y="634" width="78" height="93" fill="rgb(255, 0, 0)" /><circle cx="589" cy="1095" r="50" fill="rgb(255, 0, 0)" /><polygon points="533,1483 475,64 1051,46" fill="rgb(255, 255, 0)" /><circle cx="341" cy="271" r="20" fill="rgb(0, 0, 0)" /><polygon points="357,1442 826,355 1055,1002" fill="rgb(0, 0, 255)" /><circle cx="90" cy="825" r="24" fill="rgb(0, 0, 255)" /><rect x="453" y="797" width="50" height="149" fill="rgb(0, 0, 0)" /><circle cx="12" cy="810" r="58" fill="rgb(255, 255, 0)" /><circle cx="1035" cy="495" r="50" fill="rgb(255, 255, 0)" /><rect x="780" y="1207" width="76" height="120" fill="rgb(0, 0, 255)" /><rect x="744" y="969" width="171" height="177" fill="rgb(255, 255, 0)" /><rect x="997" y="151" width="100" height="172" fill="rgb(255, 255, 0)" /><circle cx="314" cy="877" r="82" fill="rgb(0, 0, 255)" /><polygon points="483,1471 1047,136 538,1457" fill="rgb(0, 0, 0)" /><polygon points="128,1429 614,1050 356,1428 324,569" fill="rgb(0, 0, 0)" /><polygon points="847,1076 1060,12 117,1431 454,873 68,809" fill="rgb(0, 0, 0)" /><polygon points="77,839 890,316 884,354 542,963 908,605 465,820" fill="rgb(255, 0, 0)" /><polygon points="140,907 960,846 563,888 1097,1473 984,512 1071,306" fill="rgb(255, 0, 0)" /><rect x="104" y="654" width="133" height="99" fill="rgb(0, 0, 255)" /><circle cx="1093" cy="104" r="81" fill="rgb(255, 255, 0)" /><rect x="129" y="590" width="172" height="192" fill="rgb(0, 0, 0)" /><circle cx="189" cy="768" r="92" fill="rgb(0, 0, 255)" /><circle cx="1022" cy="971" r="65" fill="rgb(255, 255, 0)" /><polygon points="883,426 1015,1454 787,380 1005,785" fill="rgb(0, 0, 0)" /><rect x="858" y="562" width="78" height="172" fill="rgb(0, 0, 0)" /><rect x="614" y="778" width="120" height="168" fill="rgb(0, 0, 0)" /><rect x="192" y="405" width="153" height="154" fill="rgb(0, 0, 255)" /><polygon points="853,720 973,122 1073,244" fill="rgb(0, 0, 0)" /><polygon points="1037,47 621,1300 906,482 737,166 590,771" fill="rgb(255, 0, 0)" /><circle cx="264" cy="892" r="68" fill="rgb(0, 0, 0)" /><rect x="747" y="1355" width="156" height="108" fill="rgb(0, 0, 0)" /><rect x="186" y="1400" width="174" height="167" fill="rgb(0, 0, 255)" /><polygon points="1060,511 740,1457 995,470 12,523 533,1191" fill="rgb(255, 0, 0)" /><circle cx="247" cy="1141" r="84" fill="rgb(255, 0, 0)" /><rect x="716" y="619" width="57" height="87" fill="rgb(255, 255, 0)" /><polygon points="383,1411 809,313 320,892 150,1094 797,1455" fill="rgb(255, 0, 0)" /><rect x="526" y="151" width="151" height="118" fill="rgb(255, 255, 0)" /><polygon points="362,790 41,1357 440,917 402,1391" fill="rgb(255, 255, 0)" /><circle cx="815" cy="932" r="67" fill="rgb(0, 0, 0)" /><rect x="783" y="1230" width="173" height="96" fill="rgb(255, 0, 0)" /><polygon points="705,1367 997,1141 414,939 593,700" fill="rgb(255, 255, 0)" /><polygon points="965,312 919,1299 964,463" fill="rgb(0, 0, 0)" /><polygon points="333,343 523,927 946,1208 497,385 322,257" fill="rgb(0, 0, 255)" /><rect x="768" y="808" width="85" height="160" fill="rgb(0, 0, 0)" /><rect x="377" y="1255" width="153" height="177" fill="rgb(0, 0, 255)" /><rect x="414" y="1490" width="133" height="73" fill="rgb(0, 0, 255)" /><polygon points="1021,1428 214,725 1035,320 305,295 182,698 711,303" fill="rgb(255, 0, 0)" /><rect x="454" y="1074" width="119" height="51" fill="rgb(0, 0, 0)" /><polygon points="584,898 452,1148 984,1361" fill="rgb(255, 255, 0)" /><polygon points="131,1007 31,68 894,132 786,276" fill="rgb(255, 0, 0)" /><rect x="17" y="863" width="56" height="149" fill="rgb(255, 0, 0)" /><rect x="867" y="1227" width="100" height="77" fill="rgb(0, 0, 255)" /><rect x="147" y="778" width="189" height="104" fill="rgb(255, 0, 0)" /><rect x="2" y="992" width="191" height="198" fill="rgb(255, 255, 0)" /><circle cx="505" cy="1122" r="82" fill="rgb(255, 255, 0)" /><polygon points="265,436 1052,1195 838,506 137,162" fill="rgb(0, 0, 255)" /><circle cx="620" cy="1068" r="57" fill="rgb(255, 0, 0)" /><circle cx="228" cy="974" r="72" fill="rgb(0, 0, 0)" /><circle cx="882" cy="731" r="81" fill="rgb(255, 255, 0)" /><polygon points="822,717 849,1249 1018,1492 384,461" fill="rgb(0, 0, 255)" /><circle cx="654" cy="110" r="31" fill="rgb(0, 0, 0)" /><circle cx="900" cy="648" r="94" fill="rgb(255, 0, 0)" /><circle cx="436" cy="647" r="66" fill="rgb(255, 0, 0)" /><circle cx="596" cy="206" r="33" fill="rgb(0, 0, 0)" /><polygon points="527,1176 173,813 949,1428 2,370 940,1335 933,1031" fill="rgb(0, 0, 0)" /><rect x="71" y="76" width="77" height="185" fill="rgb(0, 0, 0)" /><rect x="589" y="1490" width="69" height="65" fill="rgb(255, 0, 0)" /><rect x="615" y="41" width="105" height="120" fill="rgb(0, 0, 255)" /><circle cx="875" cy="197" r="80" fill="rgb(0, 0, 0)" /><polygon points="871,1447 1037,414 993,249" fill="rgb(255, 0, 0)" /><rect x="732" y="469" width="136" height="199" fill="rgb(0, 0, 255)" /><polygon points="446,760 384,301 524,308 664,676" fill="rgb(255, 0, 0)" /><polygon points="609,1353 834,536 1051,972 1001,1056 547,1439 936,150" fill="rgb(0, 0, 255)" /><circle cx="9" cy="935" r="64" fill="rgb(0, 0, 0)" /><circle cx="1017" cy="853" r="56" fill="rgb(255, 255, 0)" /><polygon points="196,1497 444,220 893,259" fill="rgb(0, 0, 0)" /><circle cx="17" cy="1217" r="70" fill="rgb(0, 0, 255)" /><polygon points="852,110 103,49 764,1448 411,781 193,41" fill="rgb(0, 0, 0)" /><rect x="718" y="463" width="94" height="107" fill="rgb(0, 0, 255)" /><rect x="579" y="176" width="127" height="124" fill="rgb(0, 0, 0)" /><rect x="303" y="771" width="56" height="151" fill="rgb(0, 0, 255)" /><rect x="981" y="205" width="141" height="100" fill="rgb(0, 0, 255)" /><circle cx="736" cy="226" r="65" fill="rgb(0, 0, 255)" /></svg>