<svg xmlns="http://www.w3.org/2000/svg" width="1101" height="1500"><rect x="116" y="651" width="134" height="72" fill="rgb(255, 255, 0)" /><circle cx="612" cy="601" r="51" fill="rgb(0, 0, 255)" /><rect x="823" y="1286" width="130" height="96" fill="rgb(255, 0, 0)" /><circle cx="570" cy="370" r="56" fill="rgb(255, 255, 0)" /><polygon points="644,961 358,1125 229,65 334,522 1099,1055" fill="rgb(255, 0, 0)" /><rect x="429" y="861" width="64" height="58" fill="rgb(255, 255, 0)" /><circle cx="747" cy="126" r="82" fill="rgb(0, 0, 0)" /><polygon points="829,639 462,51 763,350" fill="rgb(0, 0, 255)" /><polygon points="468,388 703,1259 1020,42 6,137" fill="rgb(255, 0, 0)" /><circle cx="1030" cy="53" r="48" fill="rgb(255, 0, 0)" /><circle cx="796" cy="439" r="37" fill="rgb(255, 255, 0)" /><circle cx="242" cy="535" r="76" fill="rgb(255, 0, 0)" /><polygon points="490,617 921,264 1006,1269 314,1140 418,607 109,1239" fill="rgb(0, 0, 255)" /><circle cx="51" cy="1233" r="28" fill="rgb(0, 0, 255)" /><polygon points="384,465 328,626 246,1408" fill="rgb(0, 0, 255)" /><polygon points="461,608 916,1113 907,836" fill="rgb(0, 0, 0)" /><rect x="967" y="1032" width="187" height="61" fill="rgb(255, 255, 0)" /><circle cx="393" cy="25" r="77" fill="rgb(0, 0, 0)" /><circle cx="115" cy="1109" r="44" fill="rgb(255, 0, 0)" /><circle cx="1005" cy="1302" r="64" fill="rgb(255, 0, 0)" /><circle cx="72" cy="1301" r="76" fill="rgb(0, 0, 255)" /><circle cx="286" cy="445" r="100" fill="rgb(0, 0, 0)" /><polygon points="535,102 689,580 433,1491 441,435 377,330 750,1477" fill="rgb(0, 0, 0)" /><polygon points="263,1295 605,380 708,1136 307,830 507,308 477,1294" fill="rgb(0, 0, 0)" /><rect x="486" y="976" width="160" height="191" fill="rgb(255, 0, 0)" /><circle cx="19" cy="1226" r="53" fill="rgb(0, 0, 255)" /><polygon points="1032,1098 262,562 1080,683" fill="rgb(255, 255, 0)" /><circle cx="799" cy="1290" r="35" fill="rgb(255, 0, 0)" /><circle cx="235" cy="1303" r="41" fill="rgb(0, 0, 255)" /><circle cx="939" cy="380" r="45" fill="rgb(0, 0, 255)" /><circle cx="737" cy="255" r="37" fill="rgb(255, 0, 0)" /><rect x="4" y="879" width="135" height="73" fill="rgb(255, 0, 0)" /><rect x="741" y="1402" width="103" height="136" fill="rgb(255, 0, 0)" /><polygon points="705,900 1053,1301 665,349" fill="rgb(0, 0, 255)" /><circle cx="574" cy="1459" r="26" fill="rgb(0, 0, 255)" /><rect x="594" y="1354" width="64" height="77" fill="rgb(0, 0, 255)" /><polygon points="803,613 666,779 526,1238 808,844" fill="rgb(0, 0, 255)" /><rect x="519" y="1076" width="65" height="189" fill="rgb(255, 255, 0)" /><rect x="263" y="686" width="113" height="196" fill="rgb(255, 255, 0)" /><polygon points="243,909 485,944 277,1305 93,1321" fill="rgb(0, 0, 0)" /><circle cx="470" cy="700" r="23" fill="rgb(255, 255, 0)" /><rect x="123" y="1440" width="190" height="91" fill="rgb(0, 0, 0)" /><circle cx="490" cy="209" r="42" fill="rgb(0, 0, 0)" /><rect x="365" y="343" width="100" height="137" fill="rgb(0, 0, 0)" /><rect x="187" y="165" width="103" height="186" fill="rgb(0, 0, 255)" /><circle cx="69" cy="792" r="20" fill="rgb(0, 0, 255)" /><polygon points="946,1311 131,194 41,925 266,1067 706,772" fill="rgb(0, 0, 255)" /><rect x="372" y="76" width="131" height="141" fill="rgb(255, 255, 0)" /><polygon points="359,268 774,1265 16,589 319,236 611,480" fill="rgb(255, 0, 0)" /><circle cx="73" cy="418" r="61" fill="rgb(0, 0, 255)" /></svg>