<svg xmlns="http://www.w3.org/2000/svg" width="1101" height="1500"><polygon points="694,1035 485,712 124,86" fill="rgb(0, 0, 0)" /><circle cx="386" cy="579" r="26" fill="rgb(255, 0, 0)" /><circle cx="219" cy="1311" r="27" fill="rgb(0, 0, 0)" /><circle cx="57" cy="1046" r="45" fill="rgb(255, 255, 0)" /><rect x="53" y="447" width="184" height="104" fill="rgb(0, 0, 0)" /><rect x="615" y="1249" width="148" height="116" fill="rgb(0, 0, 255)" /><rect x="371" y="1319" width="88" height="194" fill="rgb(0, 0, 255)" /><rect x="780" y="1206" width="104" height="185" fill="rgb(0, 0, 0)" /><rect x="731" y="1427" width="163" height="75" fill="rgb(255, 255, 0)" /><circle cx="728" cy="979" r="83" fill="rgb(0, 0, 0)" /><rect x="316" y="575" width="121" height="99" fill="rgb(0, 0, 255)" /><rect x="883" y="555" width="129" height="68" fill="rgb(255, 0, 0)" /><circle cx="912" cy="298" r="88" fill="rgb(0, 0, 0)" /><polygon points="681,1333 865,47 157,671 624,505 464,1076" fill="rgb(0, 0, 255)" /><polygon points="484,1450 471,1395 699,199 165,442 400,1126 134,154" fill="rgb(0, 0, 255)" /><polygon points="519,865 440,312 926,1044" fill="rgb(0, 0, 0)" /><polygon points="141,251 596,422 64,582 502,139 83,112" fill="rgb(255, 0, 0)" /><circle cx="938" cy="941" r="65" fill="rgb(0, 0, 255)" /><rect x="695" y="381" width="171" height="94" fill="rgb(255, 255, 0)" /><circle cx="570" cy="351" r="54" fill="rgb(0, 0, 0)" /><rect x="966" y="1152" width="153" height="167" fill="rgb(0, 0, 255)" /><circle cx="636" cy="462" r="68" fill="rgb(255, 255, 0)" /><polygon points="210,516 366,386 205,913 819,388 508,1078" fill="rgb(255, 0, 0)" /><rect x="702" y="267" width="57" height="144" fill="rgb(255, 255, 0)" /><rect x="851" y="260" width="156" height="158" fill="rgb(0, 0, 0)" /><circle cx="1039" cy="507" r="41" fill="rgb(0, 0, 255)" /><rect x="248" y="1462" width="192" height="149" fill="rgb(0, 0, 255)" /><polygon points="777,680 829,990 233,464 335,1040 306,1276" fill="rgb(255, 255, 0)" /><rect x="783" y="1148" width="142" height="199" fill="rgb(255, 255, 0)" /><rect x="803" y="969" width="71" height="104" fill="rgb(0, 0, 0)" /><circle cx="1" cy="732" r="65" fill="rgb(0, 0, 0)" /><rect x="813" y="478" width="167" height="181" fill="rgb(255, 255, 0)" /><rect x="922" y="180" width="188" height="168" fill="rgb(0, 0, 0)" /><circle cx="558" cy="843" r="31" fill="rgb(255, 0, 0)" /><polygon points="31,710 322,1256 1093,633 1067,448" fill="rgb(255, 0, 0)" /><polygon points="953,126 293,690 340,47 667,272 256,1063 964,1167" fill="rgb(0, 0, 0)" /><polygon points="372,796 1080,1290 248,348 27,614 765,873" fill="rgb(0, 0, 0)" /><rect x="57" y="1180" width="178" height="173" fill="rgb(0, 0, 255)" /><polygon points="375,93 320,24 1055,1069 780,1424" fill="rgb(255, 255, 0)" /><circle cx="997" cy="436" r="55" fill="rgb(255, 255, 0)" /><polygon points="601,1373 682,64 996,1461" fill="rgb(0, 0, 0)" /><circle cx="94" cy="1245" r="91" fill="rgb(0, 0, 255)" /><polygon points="796,89 309,768 790,1142 812,1094 375,837 585,332" fill="rgb(255, 0, 0)" /><circle cx="419" cy="134" r="76" fill="rgb(255, 0, 0)" /><rect x="517" y="1413" width="62" height="135" fill="rgb(255, 255, 0)" /><polygon points="1034,188 919,970 508,160 920,530 147,1110" fill="rgb(255, 255, 0)" /><rect x="610" y="925" width="155" height="125" fill="rgb(255, 255, 0)" /><polygon points="791,241 228,1129 986,188 519,505" fill="rgb(0, 0, 255)" /><rect x="596" y="822" width="77" height="135" fill="rgb(0, 0, 0)" /><circle cx="207" cy="227" r="47" fill="rgb(0, 0, 0)" /><circle cx="461" cy="843" r="75" fill="rgb(255, 255, 0)" /><polygon points="756,280 219,1131 159,187" fill="rgb(0, 0, 0)" /><circle cx="859" cy="107" r="59" fill="rgb(255, 255, 0)" /><circle cx="959" cy="811" r="74" fill="rgb(255, 0, 0)" /></svg>