<svg xmlns="http://www.w3.org/2000/svg" width="1101" height="1500"><polygon points="8,20 565,598 672,1016 79,793" fill="rgb(0, 0, 0)" /><circle cx="334" cy="319" r="81" fill="rgb(0, 0, 0)" /><polygon points="550,742 202,419 367,345 590,480 902,886" fill="rgb(255, 255, 0)" /><circle cx="469" cy="1064" r="62" fill="rgb(255, 0, 0)" /><polygon points="50,880 259,413 505,913" fill="rgb(0, 0, 255)" /><circle cx="262" cy="1477" r="81" fill="rgb(0, 0, 255)" /><circle cx="73" cy="1039" r="89" fill="rgb(255, 255, 0)" /><polygon points="1058,364 655,253 843,8" fill="rgb(0, 0, 0)" /><circle cx="591" cy="793" r="23" fill="rgb(0, 0, 255)" /><polygon points="188,1393 653,329 421,414" fill="rgb(255, 255, 0)" /><rect x="374" y="707" width="128" height="135" fill="rgb(255, 0, 0)" /><circle cx="80" cy="906" r="94" fill="rgb(0, 0, 0)" /><circle cx="292" cy="878" r="96" fill="rgb(255, 0, 0)" /><polygon points="543,399 229,1388 597,1457 234,220 117,232 150,871" fill="rgb(255, 255, 0)" /><rect x="869" y="591" width="196" height="187" fill="rgb(0, 0, 0)" /><circle cx="234" cy="1134" r="100" fill="rgb(255, 255, 0)" /><polygon points="544,351 784,25 549,231 6,63 960,586 905,594" fill="rgb(255, 255, 0)" /><polygon points="256,294 408,870 915,773 299,71 6,238 831,5" fill="rgb(255, 0, 0)" /><rect x="307" y="1411" width="137" height="153" fill="rgb(255, 0, 0)" /><circle cx="1079" cy="1445" r="99" fill="rgb(255, 0, 0)" /><rect x="231" y="1483" width="73" height="64" fill="rgb(255, 255, 0)" /><rect x="220" y="1154" width="147" height="170" fill="rgb(255, 255, 0)" /><rect x="1052" y="823" width="76" height="187" fill="rgb(0, 0, 255)" /><rect x="970" y="737" width="60" height="111" fill="rgb(255, 0, 0)" /><polygon points="945,255 738,1172 199,1047 97,416" fill="rgb(0, 0, 0)" /><rect x="228" y="642" width="108" height="52" fill="rgb(0, 0, 0)" /><circle cx="65" cy="636" r="76" fill="rgb(0, 0, 255)" /><circle cx="678" cy="1451" r="67" fill="rgb(0, 0, 0)" /><circle cx="1037" cy="184" r="33" fill="rgb(0, 0, 0)" /><polygon points="194,661 496,558 1028,14 342,835" fill="rgb(0, 0, 255)" /><polygon points="1039,1344 72,783 255,303 297,746 464,1007 999,1373" fill="rgb(255, 0, 0)" /><polygon points="464,733 600,462 89,1385 378,1163 807,486 763,531" fill="rgb(0, 0, 0)" /><rect x="740" y="189" width="155" height="191" fill="rgb(255, 0, 0)" /><circle cx="116" cy="858" r="82" fill="rgb(255, 0, 0)" /><rect x="619" y="359" width="117" height="187" fill="rgb(0, 0, 0)" /><polygon points="93,1482 1075,451 83,694 532,1290 395,1229 809,962" fill="rgb(0, 0, 0)" /><circle cx="595" cy="244" r="64" fill="rgb(255, 255, 0)" /><circle cx="530" cy="604" r="67" fill="rgb(255, 0, 0)" /><circle cx="436" cy="251" r="44" fill="rgb(255, 255, 0)" /><polygon points="129,330 580,1349 677,577 433,1023 499,973 615,923" fill="rgb(255, 255, 0)" /><rect x="208" y="1341" width="91" height="148" fill="rgb(0, 0, 255)" /><rect x="1100" y="840" width="59" height="164" fill="rgb(0, 0, 255)" /><circle cx="787" cy="1264" r="73" fill="rgb(0, 0, 255)" /><circle cx="91" cy="38" r="25" fill="rgb(255, 0, 0)" /><rect x="1031" y="1139" width="152" height="188" fill="rgb(0, 0, 0)" /><rect x="192" y="905" width="198" height="50" fill="rgb(255, 0, 0)" /><rect x="218" y="1258" width="101" height="92" fill="rgb(255, 255, 0)" /><polygon points="818,233 18,1405 1001,1111" fill="rgb(0, 0, 0)" /><circle cx="380" cy="725" r="36" fill="rgb(255, 255, 0)" /><rect x="777" y="63" width="117" height="146" fill="rgb(255, 0, 0)" /><polygon points="966,459 625,545 150,1242 800,757" fill="rgb(0, 0, 255)" /><polygon points="521,1473 810,1110 715,91 962,451 465,551 284,1196" fill="rgb(255, 255, 0)" /><polygon points="122,1129 583,665 432,1474 713,818 515,817" fill="rgb(0, 0, 255)" /><polygon points="162,1028 661,876 598,322 1013,1412" fill="rgb(0, 0, 255)" /><polygon points="89,513 694,115 511,128" fill="rgb(255, 255, 0)" /><circle cx="468" cy="1267" r="63" fill="rgb(255, 255, 0)" /><circle cx="237" cy="464" r="53" fill="rgb(0, 0, 255)" /><polygon points="1094,348 431,18 1030,1194" fill="rgb(255, 255, 0)" /><circle cx="670" cy="1124" r="56" fill="rgb(0, 0, 0)" /><polygon points="588,1238 263,944 313,1173 428,590" fill="rgb(255, 255, 0)" /><circle cx="885" cy="508" r="80" fill="rgb(255, 255, 0)" /><polygon points="430,511 640,897 351,309 870,64 905,398 745,893" fill="rgb(0, 0, 0)" /><circle cx="821" cy="716" r="58" fill="rgb(255, 255, 0)" /><polygon points="534,251 339,416 108,385 635,1267" fill="rgb(0, 0, 0)" /><circle cx="109" cy="551" r="94" fill="rgb(0, 0, 255)" /><polygon points="494,958 726,270 1074,700 1024,736 340,1208" fill="rgb(0, 0, 0)" /><rect x="1067" y="736" width="120" height="135" fill="rgb(0, 0, 0)" /><circle cx="913" cy="1022" r="47" fill="rgb(0, 0, 255)" /><circle cx="65" cy="603" r="51" fill="rgb(0, 0, 255)" /><polygon points="132,383 21,634 606,431 983,614 1070,1426" fill="rgb(255, 0, 0)" /><rect x="83" y="69" width="137" height="176" fill="rgb(0, 0, 255)" /><circle cx="560" cy="1472" r="52" fill="rgb(0, 0, 0)" /><rect x="1075" y="1191" width="124" height="93" fill="rgb(0, 0, 0)" /><rect x="508" y="491" width="99" height="143" fill="rgb(255, 0, 0)" /><circle cx="738" cy="751" r="20" fill="rgb(0, 0, 255)" /><circle cx="188" cy="1164" r="96" fill="rgb(255, 0, 0)" /><polygon points="970,539 542,1166 503,439 1054,1135 370,1128" fill="rgb(255, 0, 0)" /><polygon points="466,446 592,373 577,831" fill="rgb(255, 0, 0)" /><polygon points="44,1427 785,636 506,955" fill="rgb(0, 0, 255)" /><rect x="143" y="1467" width="167" height="90" fill="rgb(0, 0, 0)" /><rect x="403" y="166" width="180" height="164" fill="rgb(255, 0, 0)" /><polygon points="521,689 213,1338 796,767" fill="rgb(255, 255, 0)" /><circle cx="1028" cy="414" r="28" fill="rgb(0, 0, 0)" /><rect x="446" y="359" width="181" height="61" fill="rgb(0, 0, 0)" /><polygon points="694,701 1084,209 133,816 43,611 148,624" fill="rgb(255, 255, 0)" /><circle cx="424" cy="986" r="91" fill="rgb(0, 0, 0)" /><circle cx="1065" cy="663" r="100" fill="rgb(0, 0, 255)" /><circle cx="527" cy="325" r="96" fill="rgb(255, 255, 0)" /><polygon points="1029,123 590,1123 744,302" fill="rgb(255, 255, 0)" /><circle cx="89" cy="728" r="66" fill="rgb(255, 0, 0)" /><polygon points="360,289 537,1428 778,1372 96,1299 234,896 175,466" fill="rgb(0, 0, 0)" /><circle cx="512" cy="1286" r="56" fill="rgb(255, 255, 0)" /><circle cx="173" cy="539" r="63" fill="rgb(255, 0, 0)" /><circle cx="643" cy="1148" r="71" fill="rgb(255, 255, 0)" /><rect x="403" y="472" width="156" height="145" fill="rgb(0, 0, 255)" /><circle cx="1040" cy="434" r="29" fill="rgb(255, 255, 0)" /><polygon points="690,801 1044,497 57,1332 1088,1192 496,327 230,356" fill="rgb(255, 0, 0)" /><circle cx="960" cy="273" r="57" fill="rgb(255, 255, 0)" /><circle cx="925" cy="915" r="94" fill="rgb(0, 0, 255)" /><rect x="277" y="617" width="168" height="172" fill="rgb(255, 0, 0)" /><circle cx="315" cy="804" r="20" fill="rgb(0, 0, 0)" /><rect x="1091" y="1097" width="90" height="199" fill="rgb(0, 0, 255)" /><polygon points="354,1459 171,1420 834,476 813,1394 416,627 421,1482" fill="rgb(0, 0, 255)" /><circle cx="43" cy="319" r="45" fill="rgb(0, 0, 255)" /><circle cx="703" cy="425" r="85" fill="rgb(255, 0, 0)" /><rect x="898" y="1048" width="67" height="152" fill="rgb(0, 0, 0)" /><rect x="630" y="1116" width="168" height="98" fill="rgb(0, 0, 255)" /><rect x="1029" y="1500" width="179" height="143" fill="rgb(0, 0, 0)" /><polygon points="2,588 966,291 86,955 348,1030" fill="rgb(255, 0, 0)" /><polygon points="25,497 275,354 616,917 34,47 1071,174 729,133" fill="rgb(255, 0, 0)" /><rect x="124" y="1200" width="149" height="98" fill="rgb(255, 255, 0)" /><polygon points="215,663 880,551 93,487" fill="rgb(0, 0, 0)" /><polygon points="370,1129 635,536 219,91 580,807 555,926" fill="rgb(255, 0, 0)" /><circle cx="700" cy="31" r="24" fill="rgb(255, 0, 0)" /><circle cx="24" cy="1219" r="40" fill="rgb(0, 0, 255)" /><rect x="741" y="371" width="165" height="179" fill="rgb(0, 0, 255)" /><rect x="816" y="592" width="97" height="72" fill="rgb(0, 0, 255)" /><polygon points="890,349 586,1430 595,1002 39,1215 259,5 718,404" fill="rgb(255, 255, 0)" /><polygon points="489,968 414,138 1073,1039" fill="rgb(255, 255, 0)" /><circle cx="78" cy="128" r="21" fill="rgb(0, 0, 255)" /><circle cx="521" cy="338" r="38" fill="rgb(0, 0, 0)" /><polygon points="1056,1226 326,1469 723,8" fill="rgb(0, 0, 0)" /><polygon points="541,348 993,207 821,1062 603,632 676,203" fill="rgb(0, 0, 255)" /><circle cx="555" cy="832" r="36" fill="rgb(255, 255, 0)" /><rect x="699" y="181" width="91" height="186" fill="rgb(0, 0, 0)" /><rect x="200" y="406" width="66" height="152" fill="rgb(255, 0, 0)" /><circle cx="614" cy="604" r="82" fill="rgb(0, 0, 0)" /><polygon points="1015,364 91,315 571,518 379,1234" fill="rgb(0, 0, 255)" /></svg>