<svg xmlns="http://www.w3.org/2000/svg" width="1101" height="1500"><circle cx="220" cy="1386" r="73" fill="rgb(255, 255, 0)" /><circle cx="159" cy="1386" r="31" fill="rgb(255, 255, 0)" /><polygon points="294,1137 301,996 431,1462 220,415 93,220 583,246" fill="rgb(0, 0, 0)" /><rect x="809" y="1182" width="83" height="164" fill="rgb(0, 0, 255)" /><rect x="27" y="741" width="180" height="151" fill="rgb(0, 0, 0)" /><polygon points="947,592 150,995 916,1063 989,1283 696,551" fill="rgb(255, 255, 0)" /><polygon points="651,112 182,340 1095,819 123,707 305,706" fill="rgb(0, 0, 255)" /><rect x="986" y="1218" width="141" height="197" fill="rgb(0, 0, 0)" /><circle cx="742" cy="74" r="82" fill="rgb(255, 0, 0)" /><polygon points="421,1484 617,263 147,1119" fill="rgb(0, 0, 255)" /><rect x="430" y="558" width="54" height="195" fill="rgb(0, 0, 255)" /><circle cx="781" cy="1319" r="54" fill="rgb(0, 0, 0)" /><rect x="862" y="209" width="159" height="88" fill="rgb(0, 0, 255)" /><rect x="553" y="304" width="128" height="86" fill="rgb(255, 255, 0)" /><circle cx="87" cy="1045" r="82" fill="rgb(255, 0, 0)" /><circle cx="123" cy="1458" r="82" fill="rgb(255, 0, 0)" /><circle cx="18" cy="451" r="33" fill="rgb(255, 0, 0)" /><polygon points="75,1073 525,344 881,426 869,485" fill="rgb(0, 0, 255)" /><polygon points="574,912 702,1305 489,204 31,746 96,1113 513,1443" fill="rgb(0, 0, 255)" /><polygon points="715,1259 238,973 353,781 778,1459 25,545" fill="rgb(0, 0, 0)" /><circle cx="289" cy="598" r="81" fill="rgb(0, 0, 255)" /><rect x="311" y="1362" width="138" height="132" fill="rgb(255, 255, 0)" /><circle cx="282" cy="194" r="68" fill="rgb(0, 0, 255)" /><rect x="190" y="991" width="146" height="129" fill="rgb(255, 255, 0)" /><circle cx="257" cy="27" r="82" fill="rgb(255, 0, 0)" /><polygon points="912,75 295,41 505,685 458,608 111,194 334,729" fill="rgb(255, 255, 0)" /><rect x="1022" y="709" width="66" height="147" fill="rgb(255, 0, 0)" /><rect x="1043" y="1425" width="177" height="131" fill="rgb(0, 0, 0)" /><rect x="574" y="184" width="161" height="67" fill="rgb(255, 0, 0)" /><rect x="612" y="1450" width="147" height="164" fill="rgb(255, 0, 0)" /><circle cx="235" cy="895" r="32" fill="rgb(255, 255, 0)" /><rect x="1069" y="661" width="62" height="75" fill="rgb(0, 0, 255)" /><circle cx="689" cy="973" r="20" fill="rgb(255, 255, 0)" /><circle cx="769" cy="482" r="72" fill="rgb(255, 255, 0)" /><rect x="231" y="1209" width="118" height="167" fill="rgb(0, 0, 0)" /><rect x="81" y="479" width="173" height="124" fill="rgb(255, 255, 0)" /><rect x="691" y="1073" width="194" height="170" fill="rgb(255, 255, 0)" /><polygon points="337,81 473,642 404,671 594,480 684,1168 943,1188" fill="rgb(255, 0, 0)" /><rect x="1042" y="829" width="86" height="199" fill="rgb(0, 0, 255)" /><rect x="732" y="408" width="161" height="56" fill="rgb(255, 0, 0)" /><polygon points="215,1365 884,483 1040,355 254,638 698,1400 571,1477" fill="rgb(0, 0, 255)" /><circle cx="486" cy="1399" r="39" fill="rgb(255, 0, 0)" /><polygon points="534,225 240,145 221,1263 70,1161 571,847 878,474" fill="rgb(255, 0, 0)" /><circle cx="811" cy="123" r="26" fill="rgb(0, 0, 255)" /><circle cx="420" cy="1287" r="33" fill="rgb(0, 0, 0)" /><polygon points="1040,607 1024,94 4,543 1079,1193" fill="rgb(255, 0, 0)" /><polygon points="933,744 769,253 833,195 458,286 751,974" fill="rgb(0, 0, 0)" /><circle cx="138" cy="72" r="74" fill="rgb(255, 255, 0)" /><rect x="622" y="1438" width="156" height="78" fill="rgb(0, 0, 255)" /><polygon points="223,844 371,1463 688,196 729,1155 672,1190 530,201" fill="rgb(255, 0, 0)" /><rect x="813" y="1277" width="147" height="128" fill="rgb(0, 0, 0)" /><polygon points="265,66 791,1388 372,549 973,327 578,628 279,1199" fill="rgb(0, 0, 255)" /><polygon points="414,1110 741,152 677,1381 993,1094 724,470 70,287" fill="rgb(0, 0, 255)" /><rect x="522" y="1381" width="138" height="145" fill="rgb(255, 0, 0)" /><circle cx="439" cy="958" r="40" fill="rgb(255, 0, 0)" /><rect x="653" y="129" width="83" height="158" fill="rgb(0, 0, 255)" /><polygon points="1069,156 642,455 257,1111 748,834 519,1313" fill="rgb(0, 0, 0)" /><circle cx="694" cy="1451" r="87" fill="rgb(255, 255, 0)" /><rect x="392" y="474" width="110" height="81" fill="rgb(0, 0, 255)" /><circle cx="722" cy="397" r="24" fill="rgb(255, 255, 0)" /><polygon points="467,933 419,43 166,354 65,697 1039,166 835,565" fill="rgb(0, 0, 0)" /><polygon points="944,329 257,561 949,61 449,807" fill="rgb(0, 0, 255)" /><rect x="1093" y="209" width="156" height="74" fill="rgb(255, 255, 0)" /><rect x="181" y="938" width="70" height="186" fill="rgb(0, 0, 0)" /><polygon points="704,1108 742,1394 173,799 533,556 325,534" fill="rgb(255, 255, 0)" /><circle cx="1029" cy="364" r="71" fill="rgb(255, 0, 0)" /><polygon points="431,1418 604,129 1044,25 424,1256 582,267 1086,5" fill="rgb(0, 0, 255)" /><circle cx="889" cy="290" r="31" fill="rgb(255, 255, 0)" /><circle cx="377" cy="1064" r="63" fill="rgb(0, 0, 0)" /><polygon points="904,445 570,877 288,274 655,574 491,1291" fill="rgb(0, 0, 255)" /><polygon points="1051,1228 666,288 523,650 1019,21" fill="rgb(255, 0, 0)" /><circle cx="710" cy="1030" r="24" fill="rgb(255, 255, 0)" /><polygon points="734,658 51,579 962,348 992,94" fill="rgb(0, 0, 0)" /><circle cx="1070" cy="661" r="83" fill="rgb(255, 0, 0)" /><rect x="653" y="375" width="123" height="97" fill="rgb(0, 0, 255)" /><polygon points="687,1122 773,1124 208,1148 1020,1110 669,206 756,295" fill="rgb(0, 0, 0)" /><circle cx="43" cy="365" r="32" fill="rgb(255, 255, 0)" /><polygon points="891,1009 643,503 771,1094 479,125" fill="rgb(0, 0, 0)" /><polygon points="110,1093 769,669 1092,1217" fill="rgb(255, 255, 0)" /><circle cx="208" cy="1004" r="26" fill="rgb(255, 255, 0)" /><circle cx="369" cy="651" r="88" fill="rgb(255, 0, 0)" /><rect x="209" y="860" width="135" height="128" fill="rgb(255, 0, 0)" /><rect x="110" y="923" width="109" height="178" fill="rgb(255, 0, 0)" /><circle cx="1042" cy="1335" r="43" fill="rgb(255, 0, 0)" /><polygon points="1072,1152 1016,51 740,682 472,954" fill="rgb(255, 0, 0)" /><rect x="948" y="1284" width="151" height="50" fill="rgb(0, 0, 0)" /><rect x="954" y="313" width="106" height="110" fill="rgb(255, 0, 0)" /><rect x="1093" y="190" width="157" height="111" fill="rgb(255, 0, 0)" /><rect x="584" y="1222" width="117" height="64" fill="rgb(255, 0, 0)" /><polygon points="632,672 1090,1256 269,38 151,471 506,1473" fill="rgb(0, 0, 255)" /></svg>