<svg xmlns="http://www.w3.org/2000/svg" width="1101" height="1500"><circle cx="416" cy="152" r="64" fill="rgb(255, 255, 0)" /><rect x="131" y="493" width="140" height="145" fill="rgb(0, 0, 0)" /><polygon points="265,599 660,1109 419,1111" fill="rgb(0, 0, 255)" /><rect x="396" y="463" width="92" height="176" fill="rgb(255, 0, 0)" /><circle cx="960" cy="966" r="52" fill="rgb(0, 0, 255)" /><rect x="1047" y="314" width="128" height="159" fill="rgb(255, 0, 0)" /><rect x="170" y="1483" width="107" height="100" fill="rgb(255, 255, 0)" /><rect x="879" y="108" width="192" height="84" fill="rgb(0, 0, 255)" /><rect x="628" y="561" width="94" height="69" fill="rgb(255, 0, 0)" /><rect x="248" y="944" width="77" height="150" fill="rgb(255, 0, 0)" /><polygon points="199,559 467,617 568,488 1011,1236 319,1240" fill="rgb(0, 0, 255)" /><rect x="564" y="416" width="92" height="112" fill="rgb(0, 0, 0)" /><circle cx="699" cy="866" r="75" fill="rgb(255, 255, 0)" /><circle cx="1079" cy="582" r="27" fill="rgb(255, 0, 0)" /><circle cx="637" cy="222" r="72" fill="rgb(0, 0, 0)" /><circle cx="464" cy="473" r="37" fill="rgb(255, 255, 0)" /><rect x="733" y="100" width="138" height="119" fill="rgb(255, 0, 0)" /><circle cx="474" cy="1340" r="92" fill="rgb(0, 0, 0)" /><circle cx="722" cy="430" r="70" fill="rgb(255, 0, 0)" /><rect x="147" y="1496" width="146" height="118" fill="rgb(255, 255, 0)" /><polygon points="458,572 33,69 747,242 408,805 937,952 664,1126" fill="rgb(0, 0, 255)" /><circle cx="400" cy="259" r="41" fill="rgb(255, 255, 0)" /><polygon points="581,894 741,1408 228,1 179,860" fill="rgb(0, 0, 0)" /><rect x="927" y="349" width="134" height="177" fill="rgb(0, 0, 0)" /><rect x="14" y="1425" width="145" height="184" fill="rgb(255, 0, 0)" /><circle cx="545" cy="173" r="63" fill="rgb(0, 0, 0)" /><polygon points="308,869 558,1366 453,296 544,677" fill="rgb(255, 0, 0)" /><rect x="349" y="1446" width="191" height="75" fill="rgb(0, 0, 0)" /><polygon points="297,236 753,48 171,4" fill="rgb(0, 0, 255)" /><polygon points="653,756 776,673 887,342 713,417 609,1295 747,1322" fill="rgb(0, 0, 255)" /><rect x="860" y="740" width="80" height="54" fill="rgb(0, 0, 255)" /><circle cx="5" cy="99" r="93" fill="rgb(0, 0, 0)" /><rect x="808" y="919" width="119" height="162" fill="rgb(255, 0, 0)" /><circle cx="330" cy="474" r="88" fill="rgb(255, 255, 0)" /><circle cx="1026" cy="152" r="84" fill="rgb(0, 0, 0)" /><rect x="235" y="328" width="94" height="111" fill="rgb(255, 0, 0)" /><polygon points="406,312 996,9 862,879 514,1263 561,837" fill="rgb(0, 0, 255)" /><polygon points="404,649 923,1043 890,636 970,492 758,14 889,870" fill="rgb(0, 0, 255)" /><circle cx="245" cy="1211" r="73" fill="rgb(0, 0, 0)" /><circle cx="418" cy="104" r="80" fill="rgb(255, 255, 0)" /><rect x="985" y="249" width="96" height="63" fill="rgb(255, 0, 0)" /><polygon points="389,1340 598,838 513,316" fill="rgb(255, 0, 0)" /><polygon points="75,830 547,604 993,950 854,499 160,229" fill="rgb(0, 0, 0)" /><rect x="641" y="703" width="81" height="122" fill="rgb(255, 0, 0)" /><polygon points="583,1182 541,296 529,1338 415,594" fill="rgb(255, 0, 0)" /><polygon points="454,763 246,454 102,1052 677,135 57,750 39,1499" fill="rgb(255, 255, 0)" /><rect x="66" y="122" width="120" height="191" fill="rgb(255, 0, 0)" /><rect x="738" y="296" width="178" height="73" fill="rgb(0, 0, 255)" /><circle cx="520" cy="25" r="76" fill="rgb(0, 0, 255)" /><polygon points="391,1151 59,396 836,445 349,1479 1024,1241" fill="rgb(255, 255, 0)" /><rect x="362" y="24" width="159" height="119" fill="rgb(255, 255, 0)" /><polygon points="926,474 383,1022 191,63" fill="rgb(255, 255, 0)" /><polygon points="564,1007 814,336 795,959" fill="rgb(0, 0, 0)" /><rect x="723" y="615" width="117" height="69" fill="rgb(255, 0, 0)" /><circle cx="595" cy="351" r="83" fill="rgb(0, 0, 0)" /><circle cx="71" cy="890" r="93" fill="rgb(255, 255, 0)" /><circle cx="57" cy="1462" r="49" fill="rgb(0, 0, 0)" /><rect x="571" y="1039" width="57" height="197" fill="rgb(0, 0, 0)" /><polygon points="794,1302 799,1482 921,1331 1081,367 905,482 1062,834" fill="rgb(0, 0, 255)" /><rect x="556" y="384" width="143" height="180" fill="rgb(255, 0, 0)" /><circle cx="205" cy="1206" r="29" fill="rgb(0, 0, 255)" /><polygon points="451,783 332,1332 461,1278 520,556 483,450 866,345" fill="rgb(255, 0, 0)" /><rect x="607" y="1033" width="141" height="58" fill="rgb(255, 0, 0)" /><circle cx="709" cy="232" r="28" fill="rgb(0, 0, 0)" /><circle cx="425" cy="1276" r="46" fill="rgb(255, 0, 0)" /><circle cx="453" cy="6" r="23" fill="rgb(255, 0, 0)" /><rect x="185" y="1270" width="157" height="66" fill="rgb(0, 0, 255)" /><polygon points="810,875 1000,372 275,702" fill="rgb(0, 0, 255)" /><polygon points="444,1129 333,690 386,174 586,429" fill="rgb(0, 0, 255)" /><polygon points="875,241 524,354 196,296" fill="rgb(255, 0, 0)" /><circle cx="89" cy="279" r="100" fill="rgb(255, 255, 0)" /><polygon points="548,250 218,311 42,342 124,1043" fill="rgb(0, 0, 255)" /><rect x="584" y="1194" width="179" height="74" fill="rgb(255, 0, 0)" /><polygon points="1091,850 22,288 117,377" fill="rgb(255, 0, 0)" /><circle cx="85" cy="355" r="94" fill="rgb(255, 0, 0)" /><polygon points="545,1101 1087,952 1056,448 819,1436" fill="rgb(0, 0, 0)" /><circle cx="46" cy="300" r="41" fill="rgb(255, 255, 0)" /><rect x="588" y="865" width="187" height="135" fill="rgb(255, 255, 0)" /><circle cx="377" cy="880" r="73" fill="rgb(255, 0, 0)" /><rect x="291" y="1379" width="185" height="162" fill="rgb(255, 0, 0)" /><polygon points="32,1299 893,857 873,26 185,1275" fill="rgb(0, 0, 255)" /><polygon points="64,693 282,551 426,1163 877,378 802,295 419,1211" fill="rgb(255, 0, 0)" /><circle cx="542" cy="1105" r="52" fill="rgb(255, 255, 0)" /><rect x="129" y="1018" width="67" height="50" fill="rgb(255, 0, 0)" /><circle cx="510" cy="395" r="70" fill="rgb(0, 0, 0)" /><polygon points="531,546 661,646 498,196 800,1360 217,1292" fill="rgb(255, 0, 0)" /><polygon points="526,422 1069,579 990,29" fill="rgb(255, 0, 0)" /><circle cx="245" cy="592" r="28" fill="rgb(0, 0, 255)" /><polygon points="919,1249 100,312 599,285 191,1122 668,763 758,1324" fill="rgb(0, 0, 0)" /><polygon points="453,603 387,577 224,385 51,1110 486,1007 670,350" fill="rgb(0, 0, 0)" /><circle cx="799" cy="208" r="70" fill="rgb(255, 255, 0)" /><rect x="658" y="749" width="120" height="127" fill="rgb(0, 0, 0)" /><circle cx="838" cy="1205" r="35" fill="rgb(255, 0, 0)" /><polygon points="892,643 222,136 390,100 415,449 1097,887 377,330" fill="rgb(255, 255, 0)" /><rect x="1053" y="1105" width="139" height="164" fill="rgb(255, 0, 0)" /><polygon points="572,1165 497,1129 810,532" fill="rgb(255, 255, 0)" /><circle cx="66" cy="1063" r="74" fill="rgb(255, 0, 0)" /><rect x="949" y="1109" width="167" height="200" fill="rgb(255, 0, 0)" /><circle cx="87" cy="1140" r="24" fill="rgb(0, 0, 0)" /><rect x="113" y="1234" width="87" height="167" fill="rgb(0, 0, 0)" /><polygon points="179,367 333,290 466,68" fill="rgb(0, 0, 255)" /><polygon points="228,686 729,781 448,628 794,104 876,153 174,227" fill="rgb(255, 255, 0)" /><circle cx="397" cy="1256" r="89" fill="rgb(255, 0, 0)" /><circle cx="221" cy="1392" r="85" fill="rgb(255, 0, 0)" /><polygon points="798,1087 78,308 240,302" fill="rgb(255, 0, 0)" /><rect x="266" y="112" width="133" height="101" fill="rgb(0, 0, 255)" /><polygon points="858,1019 775,670 199,713 918,431 233,8 230,735" fill="rgb(255, 0, 0)" /><polygon points="541,293 1093,273 784,847 699,598 974,1034" fill="rgb(255, 255, 0)" /><rect x="603" y="698" width="89" height="131" fill="rgb(0, 0, 255)" /><polygon points="689,840 490,444 158,1433 762,671 704,424 324,179" fill="rgb(255, 0, 0)" /><polygon points="321,116 68,1332 794,1351 229,400 814,501" fill="rgb(255, 255, 0)" /><rect x="384" y="520" width="68" height="168" fill="rgb(0, 0, 255)" /><rect x="679" y="905" width="111" height="181" fill="rgb(0, 0, 0)" /><circle cx="649" cy="782" r="92" fill="rgb(255, 255, 0)" /><polygon points="749,718 461,361 1005,542 127,1493 18,677 246,146" fill="rgb(0, 0, 0)" /><polygon points="604,748 1029,324 858,980" fill="rgb(0, 0, 0)" /><circle cx="936" cy="947" r="74" fill="rgb(0, 0, 255)" /><polygon points="890,1082 639,923 11,1182 332,16 716,304" fill="rgb(0, 0, 0)" /><rect x="542" y="1302" width="91" height="108" fill="rgb(255, 255, 0)" /><circle cx="665" cy="167" r="71" fill="rgb(0, 0, 255)" /><circle cx="621" cy="1377" r="44" fill="rgb(0, 0, 0)" /><circle cx="188" cy="1292" r="60" fill="rgb(0, 0, 255)" /><rect x="706" y="338" width="107" height="77" fill="rgb(0, 0, 0)" /><circle cx="221" cy="603" r="40" fill="rgb(255, 0, 0)" /><polygon points="614,68 415,859 61,1020 391,1010 107,225 76,1102" fill="rgb(0, 0, 255)" /><rect x="624" y="400" width="86" height="120" fill="rgb(255, 255, 0)" /><rect x="971" y="324" width="188" height="133" fill="rgb(0, 0, 255)" /><rect x="285" y="814" width="167" height="163" fill="rgb(0, 0, 0)" /><circle cx="789" cy="804" r="20" fill="rgb(255, 0, 0)" /><circle cx="62" cy="869" r="49" fill="rgb(255, 255, 0)" /><rect x="60" y="179" width="113" height="124" fill="rgb(0, 0, 0)" /><rect x="844" y="334" width="120" height="109" fill="rgb(255, 0, 0)" /><circle cx="1096" cy="1239" r="28" fill="rgb(0, 0, 0)" /><rect x="719" y="24" width="80" height="192" fill="rgb(0, 0, 0)" /><circle cx="3" cy="1104" r="75" fill="rgb(0, 0, 0)" /><circle cx="887" cy="726" r="93" fill="rgb(0, 0, 255)" /><rect x="852" y="1316" width="158" height="55" fill="rgb(0, 0, 255)" /><circle cx="697" cy="1201" r="51" fill="rgb(255, 0, 0)" /><rect x="799" y="614" width="81" height="123" fill="rgb(0, 0, 0)" /><polygon points="737,952 901,977 62,1395 614,723 195,332" fill="rgb(255, 255, 0)" /><circle cx="665" cy="1410" r="89" fill="rgb(255, 255, 0)" /><circle cx="353" cy="929" r="54" fill="rgb(0, 0, 0)" /><polygon points="13,1185 1068,676 510,960 561,956 511,754 249,791" fill="rgb(255, 255, 0)" /><circle cx="14" cy="617" r="99" fill="rgb(0, 0, 255)" /><rect x="31" y="1377" width="138" height="198" fill="rgb(255, 255, 0)" /><polygon points="253,1283 442,611 873,808 126,612 633,1094" fill="rgb(0, 0, 0)" /><polygon points="173,625 479,1447 901,402 701,1135 891,341" fill="rgb(255, 0, 0)" /><rect x="219" y="871" width="102" height="132" fill="rgb(0, 0, 0)" /><rect x="408" y="949" width="154" height="51" fill="rgb(255, 0, 0)" /><polygon points="1043,833 1009,1298 1011,397 486,45 805,1458 320,232" fill="rgb(255, 255, 0)" /><circle cx="973" cy="636" r="78" fill="rgb(255, 0, 0)" /><polygon points="39,1382 99,235 708,142 974,87 640,1352 592,474" fill="rgb(0, 0, 0)" /><polygon points="366,977 597,1282 570,1435" fill="rgb(255, 0, 0)" /><circle cx="324" cy="488" r="60" fill="rgb(0, 0, 255)" /><polygon points="159,1116 657,438 571,926 988,384 414,1499 320,329" fill="rgb(0, 0, 0)" /><polygon points="752,688 317,1128 630,30 153,1172" fill="rgb(255, 255, 0)" /><circle cx="75" cy="653" r="81" fill="rgb(0, 0, 255)" /><polygon points="1040,21 446,687 856,63" fill="rgb(0, 0, 255)" /><rect x="452" y="1205" width="135" height="177" fill="rgb(255, 255, 0)" /><polygon points="175,852 249,34 724,110 226,495" fill="rgb(0, 0, 255)" /><polygon points="568,1160 1016,1273 867,1161" fill="rgb(255, 255, 0)" /><rect x="1042" y="806" width="108" height="162" fill="rgb(255, 0, 0)" /><polygon points="530,916 412,875 844,299 788,607 576,1070" fill="rgb(0, 0, 255)" /><circle cx="475" cy="1027" r="37" fill="rgb(255, 255, 0)" /><rect x="153" y="945" width="103" height="62" fill="rgb(255, 0, 0)" /><rect x="1034" y="656" width="88" height="120" fill="rgb(255, 0, 0)" /><polygon points="188,1258 182,983 105,1187 568,417" fill="rgb(0, 0, 0)" /><rect x="881" y="637" width="146" height="61" fill="rgb(255, 0, 0)" /><rect x="820" y="1182" width="54" height="106" fill="rgb(255, 0, 0)" /><rect x="732" y="209" width="52" height="57" fill="rgb(0, 0, 255)" /><rect x="1088" y="810" width="177" height="52" fill="rgb(0, 0, 0)" /><circle cx="73" cy="214" r="73" fill="rgb(0, 0, 0)" /><rect x="740" y="388" width="153" height="133" fill="rgb(255, 255, 0)" /><polygon points="598,823 552,1411 1088,643 147,746 700,549 146,1047" fill="rgb(255, 255, 0)" /><circle cx="1017" cy="447" r="70" fill="rgb(255, 255, 0)" /><circle cx="74" cy="374" r="38" fill="rgb(0, 0, 0)" /><circle cx="753" cy="647" r="68" fill="rgb(0, 0, 0)" /><circle cx="102" cy="1494" r="99" fill="rgb(255, 255, 0)" /><rect x="800" y="317" width="191" height="196" fill="rgb(255, 255, 0)" /><circle cx="937" cy="582" r="30" fill="rgb(255, 0, 0)" /><rect x="433" y="1412" width="196" height="137" fill="rgb(0, 0, 0)" /><rect x="971" y="1084" width="150" height="132" fill="rgb(255, 0, 0)" /><circle cx="700" cy="1383" r="93" fill="rgb(0, 0, 255)" /><polygon points="103,384 75,1441 713,1334 676,709 290,778 254,888" fill="rgb(255, 0, 0)" /><circle cx="303" cy="186" r="30" fill="rgb(0, 0, 255)" /><rect x="658" y="665" width="144" height="187" fill="rgb(0, 0, 255)" /><circle cx="803" cy="1486" r="32" fill="rgb(255, 255, 0)" /><polygon points="158,1380 1051,1201 745,856" fill="rgb(0, 0, 0)" /></svg>