<svg xmlns="http://www.w3.org/2000/svg" width="1101" height="1500"><circle cx="280" cy="668" r="51" fill="rgb(255, 255, 0)" /><polygon points="555,592 1067,1029 392,274 843,465 727,1040" fill="rgb(255, 255, 0)" /><polygon points="623,824 447,729 720,692" fill="rgb(0, 0, 0)" /><polygon points="236,635 7,1196 50,928" fill="rgb(0, 0, 255)" /><circle cx="369" cy="309" r="48" fill="rgb(0, 0, 0)" /><polygon points="318,588 1026,1447 1005,85 140,152 1030,489" fill="rgb(0, 0, 0)" /><rect x="301" y="1387" width="111" height="163" fill="rgb(255, 0, 0)" /><rect x="617" y="43" width="68" height="133" fill="rgb(0, 0, 255)" /><circle cx="545" cy="37" r="39" fill="rgb(0, 0, 0)" /><rect x="337" y="1198" width="160" height="114" fill="rgb(255, 255, 0)" /><polygon points="639,1451 625,168 528,16 553,692" fill="rgb(0, 0, 255)" /><rect x="1086" y="1474" width="108" height="176" fill="rgb(255, 0, 0)" /><rect x="158" y="181" width="180" height="135" fill="rgb(0, 0, 0)" /><circle cx="54" cy="218" r="98" fill="rgb(255, 255, 0)" /><circle cx="238" cy="904" r="20" fill="rgb(255, 255, 0)" /><polygon points="610,67 581,879 120,559" fill="rgb(0, 0, 0)" /><polygon points="1081,45 484,1370 125,438 606,723 140,161 882,741" fill="rgb(0, 0, 0)" /><polygon points="430,623 483,740 666,1239 524,1410 175,692" fill="rgb(255, 0, 0)" /><circle cx="60" cy="1002" r="55" fill="rgb(0, 0, 255)" /><circle cx="614" cy="1302" r="87" fill="rgb(0, 0, 255)" /><circle cx="598" cy="44" r="91" fill="rgb(255, 255, 0)" /><rect x="388" y="1439" width="85" height="124" fill="rgb(0, 0, 0)" /><circle cx="801" cy="1058" r="96" fill="rgb(255, 0, 0)" /><polygon points="823,874 488,390 1090,915 792,1325" fill="rgb(0, 0, 255)" /><rect x="472" y="727" width="123" height="160" fill="rgb(0, 0, 0)" /><rect x="996" y="1377" width="65" height="60" fill="rgb(255, 255, 0)" /></svg>