<svg xmlns="http://www.w3.org/2000/svg" width="1101" height="1500"><circle cx="972" cy="656" r="28" fill="rgb(255, 0, 0)" /><rect x="758" y="201" width="193" height="58" fill="rgb(255, 255, 0)" /><rect x="9" y="1112" width="147" height="150" fill="rgb(255, 255, 0)" /><polygon points="46,399 895,772 416,1346 1005,548 659,41" fill="rgb(255, 0, 0)" /><polygon points="470,242 426,875 304,511" fill="rgb(255, 255, 0)" /><circle cx="553" cy="274" r="26" fill="rgb(255, 255, 0)" /><polygon points="71,877 890,1214 885,651 795,1055 274,1460" fill="rgb(255, 255, 0)" /><rect x="974" y="170" width="172" height="171" fill="rgb(255, 0, 0)" /><rect x="480" y="438" width="146" height="180" fill="rgb(0, 0, 255)" /><polygon points="802,50 241,1152 97,26" fill="rgb(0, 0, 0)" /><polygon points="382,1374 632,951 482,960 646,838 488,1154 1011,1003" fill="rgb(0, 0, 255)" /><polygon points="1087,570 355,685 447,332 960,1056 4,1113 119,11" fill="rgb(0, 0, 0)" /><circle cx="856" cy="1117" r="92" fill="rgb(0, 0, 0)" /><polygon points="41,845 237,1219 1013,514" fill="rgb(255, 0, 0)" /><polygon points="94,1267 21,2 295,1002" fill="rgb(255, 255, 0)" /><polygon points="522,218 800,749 864,407 449,821 324,823" fill="rgb(255, 0, 0)" /><polygon points="871,1150 473,936 523,31 128,925 484,1163 976,461" fill="rgb(0, 0, 0)" /><rect x="223" y="935" width="174" height="148" fill="rgb(255, 0, 0)" /><circle cx="681" cy="433" r="20" fill="rgb(255, 255, 0)" /><polygon points="1010,877 1041,1475 14,261" fill="rgb(255, 255, 0)" /><polygon points="848,1319 900,179 764,1140 667,768 332,1209" fill="rgb(255, 0, 0)" /><polygon points="68,638 616,543 724,146 262,792 302,984 270,1063" fill="rgb(0, 0, 255)" /><polygon points="500,971 38,302 621,895" fill="rgb(0, 0, 255)" /><rect x="890" y="285" width="159" height="134" fill="rgb(255, 255, 0)" /><polygon points="896,53 769,536 309,24 73,1309 577,1232" fill="rgb(255, 0, 0)" /><circle cx="889" cy="546" r="64" fill="rgb(0, 0, 0)" /><circle cx="78" cy="534" r="34" fill="rgb(255, 0, 0)" /><circle cx="425" cy="1162" r="75" fill="rgb(255, 255, 0)" /><rect x="147" y="63" width="115" height="110" fill="rgb(0, 0, 255)" /><rect x="389" y="712" width="154" height="158" fill="rgb(0, 0, 0)" /><polygon points="503,201 786,29 622,412 570,924" fill="rgb(0, 0, 0)" /><rect x="24" y="524" width="143" height="64" fill="rgb(255, 255, 0)" /><rect x="800" y="1496" width="118" height="86" fill="rgb(255, 255, 0)" /><polygon points="152,339 731,511 775,1224 752,589" fill="rgb(255, 0, 0)" /><circle cx="262" cy="423" r="21" fill="rgb(0, 0, 255)" /><rect x="26" y="966" width="147" height="119" fill="rgb(255, 0, 0)" /><polygon points="787,44 674,817 211,734 674,1430 648,23 108,907" fill="rgb(255, 0, 0)" /><rect x="26" y="540" width="166" height="73" fill="rgb(0, 0, 255)" /><circle cx="955" cy="974" r="37" fill="rgb(255, 0, 0)" /><rect x="939" y="124" width="197" height="192" fill="rgb(0, 0, 255)" /><rect x="717" y="847" width="174" height="170" fill="rgb(255, 0, 0)" /><rect x="620" y="59" width="160" height="167" fill="rgb(255, 255, 0)" /><rect x="758" y="1016" width="81" height="198" fill="rgb(255, 0, 0)" /><polygon points="87,1007 648,181 546,581 973,138" fill="rgb(0, 0, 0)" /><polygon points="712,795 665,1054 396,115 313,590" fill="rgb(255, 0, 0)" /><polygon points="521,324 981,1198 543,827 705,190" fill="rgb(255, 0, 0)" /><rect x="702" y="525" width="100" height="187" fill="rgb(0, 0, 255)" /><circle cx="107" cy="1336" r="20" fill="rgb(255, 255, 0)" /><polygon points="341,1481 657,794 8,186" fill="rgb(255, 255, 0)" /><circle cx="1083" cy="1491" r="99" fill="rgb(255, 255, 0)" /><rect x="180" y="1292" width="69" height="60" fill="rgb(0, 0, 255)" /><rect x="956" y="307" width="198" height="58" fill="rgb(0, 0, 255)" /><rect x="384" y="1482" width="122" height="61" fill="rgb(0, 0, 0)" /><circle cx="447" cy="464" r="54" fill="rgb(255, 0, 0)" /><polygon points="753,287 619,750 1054,743 849,223" fill="rgb(0, 0, 0)" /><rect x="797" y="481" width="179" height="139" fill="rgb(255, 255, 0)" /><circle cx="1060" cy="306" r="70" fill="rgb(0, 0, 0)" /><circle cx="96" cy="15" r="63" fill="rgb(0, 0, 255)" /><rect x="808" y="983" width="93" height="190" fill="rgb(255, 255, 0)" /><circle cx="967" cy="743" r="88" fill="rgb(0, 0, 0)" /><polygon points="201,1288 608,1471 610,1388 807,1227 517,1396 18,882" fill="rgb(255, 0, 0)" /><polygon points="422,572 384,807 69,873 864,1102 933,1481" fill="rgb(255, 0, 0)" /><rect x="798" y="1002" width="178" height="95" fill="rgb(0, 0, 255)" /><rect x="344" y="86" width="170" height="90" fill="rgb(255, 255, 0)" /><circle cx="52" cy="853" r="85" fill="rgb(255, 255, 0)" /><circle cx="326" cy="464" r="97" fill="rgb(0, 0, 0)" /><polygon points="199,577 471,1035 913,759 523,1250 499,936 648,55" fill="rgb(0, 0, 0)" /><rect x="5" y="1377" width="156" height="154" fill="rgb(255, 255, 0)" /><rect x="163" y="1109" width="107" height="54" fill="rgb(255, 255, 0)" /><rect x="173" y="1126" width="179" height="143" fill="rgb(0, 0, 0)" /><circle cx="470" cy="1184" r="66" fill="rgb(0, 0, 0)" /><circle cx="889" cy="1444" r="79" fill="rgb(0, 0, 0)" /><circle cx="96" cy="792" r="39" fill="rgb(0, 0, 0)" /><polygon points="402,728 333,1231 1005,1260 8,779 990,1048 399,121" fill="rgb(255, 0, 0)" /><rect x="732" y="336" width="107" height="169" fill="rgb(255, 255, 0)" /><circle cx="348" cy="920" r="94" fill="rgb(255, 255, 0)" /><circle cx="1002" cy="1445" r="41" fill="rgb(255, 0, 0)" /><polygon points="435,31 700,554 765,349 786,278 246,1440" fill="rgb(0, 0, 0)" /><circle cx="434" cy="562" r="29" fill="rgb(0, 0, 0)" /><polygon points="410,721 651,807 382,1018 332,813 292,1190 429,245" fill="rgb(0, 0, 255)" /><rect x="425" y="102" width="195" height="199" fill="rgb(255, 0, 0)" /><polygon points="27,610 1067,1097 554,167 1009,169 311,1255" fill="rgb(255, 255, 0)" /><circle cx="92" cy="628" r="64" fill="rgb(255, 255, 0)" /><circle cx="115" cy="409" r="62" fill="rgb(255, 0, 0)" /><rect x="587" y="756" width="105" height="159" fill="rgb(0, 0, 255)" /><polygon points="978,467 263,45 547,1237 615,1101" fill="rgb(0, 0, 255)" /><circle cx="225" cy="542" r="25" fill="rgb(0, 0, 0)" /><rect x="55" y="163" width="126" height="75" fill="rgb(0, 0, 255)" /><circle cx="933" cy="662" r="60" fill="rgb(0, 0, 255)" /><circle cx="727" cy="1195" r="25" fill="rgb(0, 0, 255)" /><circle cx="372" cy="546" r="35" fill="rgb(255, 0, 0)" /><polygon points="372,663 1008,5 902,621 265,746" fill="rgb(0, 0, 255)" /><rect x="590" y="509" width="56" height="188" fill="rgb(0, 0, 255)" /><polygon points="325,419 975,1429 872,1011 625,533 60,1127 486,95" fill="rgb(255, 0, 0)" /><rect x="734" y="1148" width="53" height="119" fill="rgb(0, 0, 0)" /><circle cx="741" cy="1000" r="48" fill="rgb(0, 0, 0)" /><circle cx="22" cy="593" r="68" fill="rgb(255, 255, 0)" /><circle cx="1096" cy="1014" r="35" fill="rgb(255, 255, 0)" /><polygon points="413,868 302,368 535,1309 570,1143" fill="rgb(0, 0, 0)" /><polygon points="30,339 281,1076 574,711 470,998 37,519 269,674" fill="rgb(0, 0, 255)" /><rect x="846" y="1432" width="122" height="111" fill="rgb(255, 255, 0)" /><rect x="947" y="1436" width="172" height="54" fill="rgb(0, 0, 0)" /><polygon points="343,604 585,197 1045,1309 445,269 1011,1101" fill="rgb(0, 0, 255)" /><polygon points="178,16 366,687 880,735" fill="rgb(0, 0, 0)" /><circle cx="9" cy="853" r="73" fill="rgb(0, 0, 255)" /><polygon points="706,1434 1004,72 755,1492 950,128 616,566 231,459" fill="rgb(255, 0, 0)" /><polygon points="852,723 312,315 188,789 920,1142 904,1077 93,503" fill="rgb(0, 0, 255)" /><circle cx="852" cy="245" r="89" fill="rgb(0, 0, 255)" /><polygon points="811,1241 1046,160 1087,1246 265,1066" fill="rgb(255, 255, 0)" /><polygon points="1101,872 118,720 22,1221 714,1099 556,864 821,138" fill="rgb(0, 0, 0)" /><polygon points="602,145 70,291 623,190" fill="rgb(0, 0, 255)" /><circle cx="714" cy="287" r="96" fill="rgb(255, 0, 0)" /><rect x="67" y="1405" width="158" height="167" fill="rgb(0, 0, 255)" /><polygon points="496,545 603,256 200,591 673,1486 145,5" fill="rgb(0, 0, 0)" /><rect x="554" y="508" width="194" height="111" fill="rgb(255, 0, 0)" /><circle cx="39" cy="797" r="40" fill="rgb(255, 255, 0)" /><rect x="512" y="874" width="195" height="183" fill="rgb(0, 0, 0)" /><polygon points="794,822 675,1084 879,697" fill="rgb(0, 0, 255)" /><polygon points="528,775 881,210 8,760" fill="rgb(0, 0, 0)" /><circle cx="520" cy="1145" r="78" fill="rgb(255, 255, 0)" /><circle cx="768" cy="604" r="92" fill="rgb(0, 0, 0)" /><circle cx="975" cy="35" r="75" fill="rgb(0, 0, 255)" /><circle cx="721" cy="265" r="50" fill="rgb(255, 255, 0)" /><circle cx="564" cy="268" r="60" fill="rgb(255, 0, 0)" /><polygon points="357,1452 532,493 169,590 887,1150 677,252" fill="rgb(255, 0, 0)" /><rect x="413" y="369" width="126" height="154" fill="rgb(0, 0, 255)" /><circle cx="53" cy="1474" r="79" fill="rgb(0, 0, 0)" /><polygon points="618,220 945,124 474,2 529,526 722,621" fill="rgb(255, 255, 0)" /><rect x="870" y="888" width="123" height="95" fill="rgb(255, 0, 0)" /><rect x="911" y="517" width="193" height="128" fill="rgb(255, 0, 0)" /><circle cx="900" cy="641" r="52" fill="rgb(0, 0, 255)" /><rect x="981" y="851" width="79" height="182" fill="rgb(255, 255, 0)" /><polygon points="529,193 632,661 234,919 213,258" fill="rgb(0, 0, 255)" /><polygon points="204,239 626,1372 394,1268 817,1281 677,254" fill="rgb(0, 0, 255)" /><circle cx="605" cy="885" r="23" fill="rgb(255, 255, 0)" /><polygon points="929,351 422,370 429,860 206,894 300,1447 49,113" fill="rgb(0, 0, 255)" /><rect x="847" y="480" width="76" height="121" fill="rgb(255, 0, 0)" /><polygon points="228,1058 1032,1139 889,1157 918,1268 357,1246" fill="rgb(255, 255, 0)" /><circle cx="1073" cy="273" r="83" fill="rgb(0, 0, 0)" /><rect x="139" y="407" width="196" height="73" fill="rgb(255, 255, 0)" /><polygon points="673,64 172,659 627,1092 184,797 489,133 548,444" fill="rgb(0, 0, 0)" /><circle cx="413" cy="773" r="81" fill="rgb(255, 0, 0)" /><rect x="973" y="539" width="75" height="183" fill="rgb(255, 255, 0)" /><polygon points="961,322 22,499 671,1437 824,758 479,850 772,1284" fill="rgb(0, 0, 0)" /><circle cx="776" cy="220" r="36" fill="rgb(255, 0, 0)" /><rect x="954" y="572" width="112" height="177" fill="rgb(0, 0, 0)" /><rect x="351" y="1310" width="182" height="188" fill="rgb(255, 255, 0)" /><polygon points="272,1214 827,1059 671,773 489,796" fill="rgb(255, 255, 0)" /><circle cx="4" cy="843" r="21" fill="rgb(255, 255, 0)" /><polygon points="483,609 712,287 691,1320 170,1108 572,819 678,127" fill="rgb(0, 0, 0)" /><circle cx="446" cy="823" r="75" fill="rgb(0, 0, 0)" /><polygon points="231,706 1028,1007 675,1002 955,789" fill="rgb(255, 0, 0)" /><polygon points="836,62 857,72 772,225 957,259" fill="rgb(255, 255, 0)" /><rect x="934" y="763" width="171" height="198" fill="rgb(0, 0, 0)" /></svg>