<svg xmlns="http://www.w3.org/2000/svg" width="1101" height="1500"><rect x="274" y="867" width="173" height="171" fill="rgb(0, 0, 255)" /><rect x="759" y="1171" width="53" height="94" fill="rgb(0, 0, 0)" /><circle cx="266" cy="609" r="23" fill="rgb(255, 0, 0)" /><polygon points="81,677 980,953 251,899" fill="rgb(0, 0, 0)" /><polygon points="651,277 660,621 638,397" fill="rgb(0, 0, 0)" /><polygon points="40,1159 1044,694 110,1229 732,1235 602,43" fill="rgb(255, 255, 0)" /><circle cx="287" cy="1377" r="57" fill="rgb(255, 255, 0)" /><circle cx="199" cy="141" r="82" fill="rgb(0, 0, 0)" /><circle cx="107" cy="1396" r="98" fill="rgb(255, 255, 0)" /><circle cx="679" cy="999" r="48" fill="rgb(255, 255, 0)" /><polygon points="445,1208 583,33 682,68 140,931" fill="rgb(0, 0, 255)" /><circle cx="176" cy="1428" r="59" fill="rgb(255, 0, 0)" /><polygon points="4,265 18,655 1054,1380 904,257" fill="rgb(0, 0, 255)" /><rect x="500" y="655" width="59" height="167" fill="rgb(255, 255, 0)" /><circle cx="419" cy="909" r="75" fill="rgb(255, 255, 0)" /><circle cx="81" cy="971" r="31" fill="rgb(255, 255, 0)" /><polygon points="858,105 776,567 882,1309 256,998 587,222 205,1001" fill="rgb(0, 0, 255)" /><rect x="697" y="915" width="158" height="79" fill="rgb(255, 0, 0)" /><polygon points="959,875 393,747 70,463 14,160 916,71 498,304" fill="rgb(255, 255, 0)" /><rect x="439" y="443" width="159" height="104" fill="rgb(255, 255, 0)" /><rect x="418" y="1457" width="115" height="155" fill="rgb(0, 0, 255)" /><circle cx="745" cy="1216" r="65" fill="rgb(0, 0, 255)" /><polygon points="1058,1162 408,1158 972,291 255,683 1058,807" fill="rgb(0, 0, 0)" /><circle cx="493" cy="891" r="67" fill="rgb(0, 0, 255)" /><circle cx="657" cy="125" r="73" fill="rgb(255, 0, 0)" /><rect x="304" y="1444" width="112" height="183" fill="rgb(0, 0, 255)" /><rect x="1059" y="689" width="164" height="65" fill="rgb(255, 255, 0)" /><rect x="177" y="1021" width="97" height="115" fill="rgb(0, 0, 0)" /><circle cx="800" cy="34" r="70" fill="rgb(255, 255, 0)" /><polygon points="710,635 781,1225 928,494" fill="rgb(0, 0, 0)" /><polygon points="1006,1339 345,149 1067,43" fill="rgb(255, 255, 0)" /><circle cx="195" cy="1102" r="44" fill="rgb(255, 0, 0)" /><circle cx="1093" cy="760" r="38" fill="rgb(255, 0, 0)" /><polygon points="715,1365 92,701 1086,827" fill="rgb(255, 0, 0)" /><polygon points="895,1475 970,391 538,801 398,1235" fill="rgb(255, 0, 0)" /><circle cx="454" cy="839" r="66" fill="rgb(0, 0, 0)" /><polygon points="114,1333 142,808 569,354" fill="rgb(255, 255, 0)" /><polygon points="147,760 516,527 260,1384 590,85 1009,781 11,760" fill="rgb(0, 0, 0)" /><rect x="354" y="1225" width="50" height="141" fill="rgb(255, 255, 0)" /><polygon points="653,79 715,410 628,528 786,110" fill="rgb(255, 255, 0)" /><polygon points="150,1010 424,1395 466,1238 423,1235 328,149 988,658" fill="rgb(0, 0, 255)" /><rect x="586" y="375" width="55" height="77" fill="rgb(0, 0, 0)" /><rect x="80" y="1295" width="123" height="153" fill="rgb(0, 0, 0)" /><polygon points="269,478 193,421 914,1300 814,589" fill="rgb(255, 255, 0)" /><rect x="747" y="1068" width="70" height="135" fill="rgb(0, 0, 255)" /><circle cx="203" cy="245" r="68" fill="rgb(255, 0, 0)" /><rect x="954" y="824" width="57" height="96" fill="rgb(0, 0, 255)" /><polygon points="867,689 807,816 187,350" fill="rgb(255, 0, 0)" /><polygon points="908,1362 635,711 479,1215 461,659 165,1298" fill="rgb(0, 0, 0)" /><rect x="1009" y="329" width="91" height="59" fill="rgb(0, 0, 255)" /><circle cx="787" cy="281" r="71" fill="rgb(255, 255, 0)" /><rect x="582" y="1186" width="128" height="178" fill="rgb(0, 0, 0)" /><circle cx="21" cy="1307" r="73" fill="rgb(0, 0, 0)" /><circle cx="705" cy="232" r="99" fill="rgb(0, 0, 0)" /><polygon points="621,369 358,951 821,328 813,551" fill="rgb(0, 0, 0)" /><rect x="850" y="110" width="117" height="85" fill="rgb(255, 0, 0)" /><circle cx="29" cy="83" r="67" fill="rgb(255, 255, 0)" /><polygon points="249,1225 268,669 942,338" fill="rgb(255, 0, 0)" /><circle cx="87" cy="653" r="57" fill="rgb(255, 0, 0)" /><circle cx="192" cy="1249" r="78" fill="rgb(0, 0, 255)" /><circle cx="552" cy="701" r="36" fill="rgb(255, 255, 0)" /><polygon points="324,1357 697,1175 1051,1101 758,831 576,657" fill="rgb(255, 0, 0)" /><rect x="415" y="168" width="91" height="150" fill="rgb(0, 0, 255)" /><circle cx="488" cy="333" r="54" fill="rgb(255, 0, 0)" /><rect x="212" y="454" width="93" height="85" fill="rgb(255, 0, 0)" /><circle cx="132" cy="319" r="20" fill="rgb(0, 0, 255)" /><polygon points="744,1183 267,1284 43,1335 178,1016" fill="rgb(0, 0, 255)" /><rect x="796" y="2" width="179" height="123" fill="rgb(0, 0, 255)" /><rect x="215" y="1099" width="109" height="168" fill="rgb(255, 255, 0)" /><rect x="695" y="1169" width="120" height="113" fill="rgb(255, 255, 0)" /><polygon points="832,1376 216,339 898,835 1038,461 868,238" fill="rgb(0, 0, 0)" /><polygon points="296,368 417,1212 817,386" fill="rgb(0, 0, 255)" /><polygon points="211,1376 1086,1148 788,1345 981,511 408,478 180,881" fill="rgb(0, 0, 255)" /><polygon points="434,1080 894,615 46,1469 585,1429 616,724 466,872" fill="rgb(255, 0, 0)" /><polygon points="361,33 895,33 593,953 697,1279 507,707 249,1106" fill="rgb(255, 0, 0)" /><circle cx="214" cy="1102" r="52" fill="rgb(0, 0, 255)" /><circle cx="402" cy="1019" r="100" fill="rgb(255, 0, 0)" /><rect x="140" y="170" width="126" height="70" fill="rgb(0, 0, 0)" /><rect x="557" y="702" width="75" height="60" fill="rgb(0, 0, 0)" /><rect x="1054" y="1150" width="149" height="69" fill="rgb(255, 255, 0)" /><rect x="428" y="137" width="54" height="151" fill="rgb(255, 255, 0)" /><rect x="472" y="474" width="59" height="146" fill="rgb(0, 0, 255)" /><rect x="426" y="1111" width="52" height="136" fill="rgb(255, 0, 0)" /><circle cx="1018" cy="972" r="62" fill="rgb(255, 255, 0)" /><rect x="869" y="1241" width="62" height="186" fill="rgb(0, 0, 0)" /><rect x="1047" y="969" width="177" height="152" fill="rgb(255, 255, 0)" /><circle cx="329" cy="1309" r="52" fill="rgb(0, 0, 0)" /><rect x="350" y="845" width="86" height="130" fill="rgb(0, 0, 255)" /><rect x="1061" y="585" width="142" height="137" fill="rgb(255, 0, 0)" /><polygon points="392,1266 575,1083 176,773" fill="rgb(255, 255, 0)" /><polygon points="521,298 1008,947 959,89 390,338 425,174" fill="rgb(0, 0, 255)" /><rect x="92" y="168" width="140" height="127" fill="rgb(0, 0, 255)" /><circle cx="971" cy="486" r="37" fill="rgb(255, 0, 0)" /><rect x="865" y="848" width="100" height="66" fill="rgb(0, 0, 0)" /><polygon points="1053,1043 322,105 529,63 56,1208 680,1282 954,106" fill="rgb(0, 0, 255)" /><rect x="277" y="568" width="125" height="150" fill="rgb(255, 0, 0)" /><rect x="827" y="457" width="114" height="126" fill="rgb(255, 0, 0)" /><polygon points="142,1333 1055,1422 352,1200 638,466" fill="rgb(255, 0, 0)" /><polygon points="584,1034 207,500 1024,111" fill="rgb(255, 255, 0)" /><polygon points="8,1158 927,256 784,1011" fill="rgb(0, 0, 255)" /><polygon points="987,819 163,1404 572,242 460,415 52,564" fill="rgb(255, 255, 0)" /><polygon points="73,817 117,607 183,1476 26,1152 813,1254 517,444" fill="rgb(0, 0, 255)" /><circle cx="160" cy="1404" r="51" fill="rgb(0, 0, 255)" /><rect x="301" y="362" width="71" height="122" fill="rgb(0, 0, 255)" /><polygon points="312,354 53,140 746,1471 346,397" fill="rgb(255, 255, 0)" /><polygon points="837,517 668,1089 891,466 351,585" fill="rgb(255, 255, 0)" /><polygon points="797,988 917,1006 717,1122 847,400 693,747" fill="rgb(255, 0, 0)" /><polygon points="565,264 710,331 852,453 81,459 213,457" fill="rgb(0, 0, 0)" /><rect x="767" y="86" width="61" height="178" fill="rgb(0, 0, 0)" /><polygon points="142,350 666,675 943,493 674,57 601,407 563,101" fill="rgb(255, 255, 0)" /><circle cx="146" cy="187" r="97" fill="rgb(0, 0, 0)" /><circle cx="321" cy="657" r="96" fill="rgb(0, 0, 255)" /><polygon points="172,1159 108,1265 582,856 6,1075 904,1317 106,386" fill="rgb(0, 0, 0)" /><circle cx="984" cy="211" r="22" fill="rgb(255, 255, 0)" /><circle cx="869" cy="773" r="56" fill="rgb(0, 0, 0)" /><polygon points="638,211 232,1143 1050,442" fill="rgb(255, 255, 0)" /><polygon points="606,1154 906,1046 559,6 43,993 316,436 1055,425" fill="rgb(0, 0, 0)" /><circle cx="259" cy="81" r="50" fill="rgb(255, 255, 0)" /><circle cx="1090" cy="761" r="43" fill="rgb(0, 0, 0)" /><circle cx="724" cy="1338" r="50" fill="rgb(0, 0, 0)" /><rect x="74" y="256" width="125" height="115" fill="rgb(0, 0, 0)" /><rect x="1056" y="1465" width="53" height="102" fill="rgb(0, 0, 0)" /><rect x="379" y="1072" width="58" height="72" fill="rgb(0, 0, 255)" /><polygon points="770,75 924,1033 616,395" fill="rgb(0, 0, 255)" /><rect x="769" y="1409" width="134" height="156" fill="rgb(0, 0, 0)" /><circle cx="444" cy="199" r="52" fill="rgb(255, 255, 0)" /><rect x="812" y="798" width="85" height="69" fill="rgb(0, 0, 255)" /><polygon points="585,1360 1076,1026 398,1371" fill="rgb(255, 255, 0)" /><circle cx="227" cy="1230" r="41" fill="rgb(0, 0, 0)" /><circle cx="586" cy="1241" r="92" fill="rgb(255, 0, 0)" /><circle cx="787" cy="497" r="20" fill="rgb(255, 255, 0)" /><polygon points="575,807 442,1384 764,831 462,334 94,41" fill="rgb(0, 0, 255)" /><circle cx="559" cy="1265" r="79" fill="rgb(0, 0, 0)" /><circle cx="855" cy="1111" r="37" fill="rgb(0, 0, 255)" /><circle cx="658" cy="1084" r="62" fill="rgb(255, 255, 0)" /><polygon points="750,121 936,717 761,1026 1001,1401 674,684 17,1228" fill="rgb(0, 0, 0)" /><circle cx="736" cy="1255" r="81" fill="rgb(0, 0, 0)" /><rect x="225" y="1489" width="123" height="185" fill="rgb(255, 255, 0)" /><circle cx="622" cy="465" r="92" fill="rgb(0, 0, 255)" /><circle cx="412" cy="1026" r="32" fill="rgb(0, 0, 255)" /></svg>