<svg xmlns="http://www.w3.org/2000/svg" width="1101" height="1500"><rect x="383" y="1241" width="53" height="167" fill="rgb(0, 0, 255)" /><circle cx="277" cy="552" r="87" fill="rgb(255, 255, 0)" /><circle cx="36" cy="1177" r="94" fill="rgb(255, 0, 0)" /><rect x="1026" y="679" width="66" height="116" fill="rgb(0, 0, 0)" /><rect x="523" y="1425" width="162" height="125" fill="rgb(0, 0, 0)" /><polygon points="951,266 59,1011 483,220 115,1435 638,381 519,903" fill="rgb(0, 0, 255)" /><rect x="580" y="981" width="196" height="135" fill="rgb(255, 255, 0)" /><circle cx="697" cy="1153" r="79" fill="rgb(0, 0, 255)" /><rect x="1093" y="365" width="58" height="191" fill="rgb(255, 255, 0)" /><circle cx="343" cy="1266" r="34" fill="rgb(255, 0, 0)" /><polygon points="103,717 494,774 1062,862 889,35" fill="rgb(0, 0, 255)" /><polygon points="855,659 534,1343 796,130 590,78 282,215 660,485" fill="rgb(255, 255, 0)" /><circle cx="783" cy="1437" r="48" fill="rgb(0, 0, 0)" /><polygon points="546,601 502,87 55,174 470,1043 338,1462" fill="rgb(255, 0, 0)" /><rect x="107" y="647" width="53" height="181" fill="rgb(255, 255, 0)" /><circle cx="447" cy="926" r="98" fill="rgb(255, 255, 0)" /><circle cx="122" cy="915" r="90" fill="rgb(0, 0, 0)" /><polygon points="595,758 945,554 484,511 53,1182" fill="rgb(255, 0, 0)" /><circle cx="65" cy="849" r="60" fill="rgb(0, 0, 255)" /><rect x="758" y="728" width="70" height="164" fill="rgb(255, 255, 0)" /><polygon points="341,583 87,906 137,852" fill="rgb(0, 0, 255)" /><circle cx="450" cy="52" r="45" fill="rgb(255, 0, 0)" /><rect x="758" y="1100" width="176" height="197" fill="rgb(0, 0, 255)" /><rect x="235" y="1167" width="177" height="80" fill="rgb(255, 255, 0)" /><polygon points="337,700 1051,927 760,467 498,413" fill="rgb(255, 255, 0)" /><rect x="930" y="83" width="64" height="194" fill="rgb(0, 0, 255)" /><circle cx="484" cy="1017" r="36" fill="rgb(0, 0, 0)" /><polygon points="1050,457 968,23 971,1022" fill="rgb(0, 0, 255)" /><rect x="677" y="933" width="121" height="200" fill="rgb(255, 255, 0)" /><polygon points="233,47 485,1181 500,1248 552,544 286,626 607,798" fill="rgb(0, 0, 255)" /><rect x="273" y="255" width="142" height="124" fill="rgb(0, 0, 0)" /><polygon points="444,106 151,1193 252,1094 1066,1024 101,87" fill="rgb(0, 0, 255)" /><circle cx="966" cy="178" r="62" fill="rgb(255, 255, 0)" /><circle cx="1059" cy="1152" r="51" fill="rgb(255, 255, 0)" /><circle cx="901" cy="789" r="23" fill="rgb(0, 0, 0)" /><rect x="503" y="301" width="92" height="175" fill="rgb(0, 0, 255)" /><circle cx="764" cy="442" r="86" fill="rgb(0, 0, 0)" /><rect x="194" y="1306" width="137" height="189" fill="rgb(0, 0, 255)" /><rect x="620" y="799" width="71" height="63" fill="rgb(255, 255, 0)" /><rect x="635" y="1008" width="62" height="137" fill="rgb(255, 255, 0)" /><rect x="1026" y="1207" width="155" height="64" fill="rgb(0, 0, 0)" /><circle cx="259" cy="1029" r="22" fill="rgb(255, 0, 0)" /><circle cx="217" cy="393" r="90" fill="rgb(0, 0, 255)" /><polygon points="709,469 55,413 358,813 914,131" fill="rgb(255, 255, 0)" /><rect x="343" y="726" width="106" height="164" fill="rgb(255, 255, 0)" /><polygon points="134,922 608,1259 648,108 375,880 64,840" fill="rgb(255, 0, 0)" /><polygon points="926,848 273,114 958,970 252,374 663,582" fill="rgb(255, 0, 0)" /><rect x="885" y="347" width="186" height="127" fill="rgb(255, 255, 0)" /><rect x="539" y="1287" width="188" height="145" fill="rgb(255, 0, 0)" /><polygon points="67,733 347,348 627,1412" fill="rgb(255, 255, 0)" /><polygon points="732,348 932,621 52,794 48,1457 10,740 627,213" fill="rgb(255, 255, 0)" /><circle cx="1021" cy="994" r="81" fill="rgb(255, 255, 0)" /></svg>