<svg xmlns="http://www.w3.org/2000/svg" width="1101" height="1500"><polygon points="927,503 266,888 899,546" fill="rgb(255, 255, 0)" /><polygon points="781,484 1050,483 520,361 613,1013" fill="rgb(0, 0, 255)" /><polygon points="316,76 384,1105 385,1344" fill="rgb(255, 0, 0)" /><rect x="566" y="1328" width="200" height="157" fill="rgb(0, 0, 255)" /><circle cx="562" cy="1092" r="62" fill="rgb(0, 0, 0)" /><rect x="765" y="359" width="92" height="123" fill="rgb(255, 255, 0)" /><rect x="859" y="211" width="72" height="64" fill="rgb(0, 0, 0)" /><rect x="987" y="281" width="164" height="106" fill="rgb(0, 0, 255)" /><rect x="813" y="962" width="117" height="106" fill="rgb(0, 0, 0)" /><circle cx="599" cy="1107" r="80" fill="rgb(255, 255, 0)" /><polygon points="427,1209 952,540 102,94 760,591 328,736 274,1246" fill="rgb(255, 0, 0)" /><polygon points="903,896 163,447 86,24 491,1461" fill="rgb(255, 0, 0)" /><rect x="715" y="1479" width="78" height="101" fill="rgb(0, 0, 255)" /><circle cx="444" cy="1479" r="64" fill="rgb(0, 0, 255)" /><polygon points="217,54 785,218 269,981" fill="rgb(0, 0, 0)" /><polygon points="54,446 1021,1351 693,623 1041,1152 613,299 494,381" fill="rgb(0, 0, 255)" /><polygon points="914,165 463,1457 765,861 879,361 556,666 176,1465" fill="rgb(255, 0, 0)" /><rect x="148" y="868" width="127" height="116" fill="rgb(255, 0, 0)" /><polygon points="264,273 273,1372 807,445" fill="rgb(0, 0, 0)" /><circle cx="367" cy="418" r="52" fill="rgb(0, 0, 0)" /><polygon points="793,891 652,896 281,1039 957,1184" fill="rgb(0, 0, 255)" /><circle cx="386" cy="170" r="23" fill="rgb(0, 0, 0)" /><circle cx="704" cy="785" r="26" fill="rgb(0, 0, 0)" /><polygon points="718,1058 1099,481 913,299 1002,1414" fill="rgb(0, 0, 255)" /><circle cx="201" cy="904" r="26" fill="rgb(0, 0, 0)" /><rect x="334" y="1219" width="146" height="133" fill="rgb(0, 0, 255)" /><polygon points="1008,1271 900,669 1018,1396" fill="rgb(0, 0, 255)" /><circle cx="121" cy="76" r="41" fill="rgb(0, 0, 0)" /><circle cx="770" cy="1492" r="48" fill="rgb(0, 0, 255)" /><circle cx="541" cy="1361" r="67" fill="rgb(0, 0, 0)" /><rect x="853" y="840" width="143" height="100" fill="rgb(0, 0, 255)" /><circle cx="193" cy="133" r="100" fill="rgb(0, 0, 255)" /><circle cx="1088" cy="834" r="63" fill="rgb(255, 255, 0)" /><polygon points="875,977 219,1294 425,675 589,259 271,1252 897,686" fill="rgb(255, 0, 0)" /><rect x="793" y="1376" width="179" height="152" fill="rgb(255, 255, 0)" /><rect x="722" y="749" width="180" height="90" fill="rgb(255, 0, 0)" /><rect x="826" y="1500" width="85" height="80" fill="rgb(0, 0, 255)" /><rect x="514" y="442" width="155" height="176" fill="rgb(0, 0, 0)" /><circle cx="723" cy="1087" r="48" fill="rgb(0, 0, 255)" /><circle cx="737" cy="1447" r="95" fill="rgb(255, 0, 0)" /><circle cx="1082" cy="1473" r="71" fill="rgb(0, 0, 0)" /><polygon points="385,718 929,204 718,1323 908,1433" fill="rgb(0, 0, 0)" /><rect x="379" y="766" width="107" height="137" fill="rgb(255, 255, 0)" /><circle cx="90" cy="733" r="35" fill="rgb(0, 0, 0)" /><rect x="12" y="878" width="140" height="145" fill="rgb(255, 0, 0)" /><polygon points="532,377 129,114 322,34" fill="rgb(255, 255, 0)" /><circle cx="449" cy="1237" r="43" fill="rgb(255, 0, 0)" /><circle cx="1090" cy="638" r="100" fill="rgb(255, 0, 0)" /><circle cx="874" cy="673" r="86" fill="rgb(255, 255, 0)" /><polygon points="613,521 837,586 787,940" fill="rgb(0, 0, 255)" /><rect x="229" y="1441" width="51" height="181" fill="rgb(255, 255, 0)" /><rect x="528" y="469" width="172" height="134" fill="rgb(255, 255, 0)" /><rect x="612" y="354" width="188" height="86" fill="rgb(0, 0, 0)" /><polygon points="873,1439 203,1120 26,1153 436,721 1100,1434" fill="rgb(255, 255, 0)" /><polygon points="92,166 484,988 634,1452 736,109" fill="rgb(0, 0, 0)" /><rect x="554" y="1181" width="110" height="176" fill="rgb(255, 255, 0)" /><circle cx="224" cy="411" r="25" fill="rgb(0, 0, 0)" /><rect x="619" y="1127" width="138" height="118" fill="rgb(0, 0, 0)" /><polygon points="645,43 377,627 889,591" fill="rgb(255, 0, 0)" /><polygon points="98,208 497,118 183,1483 328,348 159,1198 779,769" fill="rgb(255, 0, 0)" /><circle cx="603" cy="1085" r="93" fill="rgb(255, 0, 0)" /><circle cx="643" cy="1027" r="31" fill="rgb(0, 0, 255)" /><rect x="459" y="593" width="108" height="163" fill="rgb(0, 0, 255)" /><circle cx="491" cy="370" r="68" fill="rgb(0, 0, 0)" /><circle cx="329" cy="991" r="21" fill="rgb(255, 255, 0)" /><rect x="551" y="1351" width="138" height="127" fill="rgb(0, 0, 255)" /><rect x="166" y="748" width="90" height="51" fill="rgb(0, 0, 0)" /><circle cx="318" cy="283" r="21" fill="rgb(0, 0, 0)" /><polygon points="640,170 485,1379 774,379 928,1147 971,36 927,918" fill="rgb(0, 0, 255)" /><rect x="449" y="206" width="142" height="173" fill="rgb(0, 0, 255)" /><circle cx="987" cy="778" r="34" fill="rgb(255, 255, 0)" /><polygon points="604,1195 1095,621 159,444 121,954 394,177 41,1051" fill="rgb(255, 255, 0)" /><rect x="411" y="79" width="162" height="91" fill="rgb(255, 255, 0)" /><rect x="945" y="351" width="188" height="72" fill="rgb(0, 0, 0)" /><polygon points="1060,1026 1048,100 901,1452 204,532 1029,1361" fill="rgb(0, 0, 255)" /><rect x="363" y="981" width="166" height="55" fill="rgb(0, 0, 255)" /><polygon points="906,333 936,13 1028,1095 916,1092" fill="rgb(255, 0, 0)" /><rect x="913" y="591" width="196" height="57" fill="rgb(0, 0, 0)" /><rect x="721" y="907" width="91" height="68" fill="rgb(255, 255, 0)" /><circle cx="482" cy="342" r="70" fill="rgb(0, 0, 255)" /><polygon points="358,220 194,74 432,211 546,1105 817,1472" fill="rgb(0, 0, 255)" /><polygon points="484,668 209,661 467,1265 303,1408" fill="rgb(255, 0, 0)" /><rect x="363" y="584" width="160" height="63" fill="rgb(0, 0, 255)" /><polygon points="394,1404 2,640 977,1491 154,1006 624,1281" fill="rgb(255, 255, 0)" /><polygon points="738,1365 234,1167 333,218 169,431 802,786 1097,159" fill="rgb(0, 0, 0)" /><polygon points="706,982 933,731 87,1336 621,234 139,495" fill="rgb(255, 0, 0)" /><circle cx="348" cy="716" r="64" fill="rgb(255, 0, 0)" /><rect x="495" y="679" width="61" height="185" fill="rgb(0, 0, 0)" /><circle cx="1072" cy="94" r="72" fill="rgb(0, 0, 255)" /><polygon points="314,1439 794,208 643,716 43,848 1015,1385" fill="rgb(0, 0, 255)" /><circle cx="137" cy="86" r="79" fill="rgb(0, 0, 255)" /><circle cx="480" cy="114" r="46" fill="rgb(255, 255, 0)" /><circle cx="205" cy="743" r="23" fill="rgb(255, 0, 0)" /><polygon points="380,582 717,531 929,1215" fill="rgb(255, 255, 0)" /><polygon points="199,536 1042,762 985,508 709,500 771,450 661,668" fill="rgb(255, 255, 0)" /><circle cx="662" cy="954" r="95" fill="rgb(0, 0, 255)" /><circle cx="220" cy="1387" r="44" fill="rgb(255, 0, 0)" /><circle cx="451" cy="549" r="43" fill="rgb(0, 0, 0)" /><polygon points="686,1168 471,1110 187,1085 496,797" fill="rgb(0, 0, 255)" /><circle cx="491" cy="1457" r="38" fill="rgb(255, 255, 0)" /><circle cx="574" cy="1352" r="46" fill="rgb(0, 0, 0)" /><polygon points="596,850 861,284 734,1043 770,381 206,1175 749,1283" fill="rgb(255, 255, 0)" /><rect x="426" y="1221" width="96" height="127" fill="rgb(0, 0, 255)" /><polygon points="962,429 408,1435 959,987 988,628 162,1262 382,1180" fill="rgb(0, 0, 0)" /><rect x="476" y="1497" width="104" height="89" fill="rgb(0, 0, 255)" /><polygon points="165,514 286,993 292,1365 1056,754 1097,1186 313,1424" fill="rgb(0, 0, 255)" /><rect x="856" y="1477" width="159" height="107" fill="rgb(255, 255, 0)" /><rect x="579" y="885" width="174" height="80" fill="rgb(255, 0, 0)" /><rect x="1014" y="251" width="133" height="155" fill="rgb(255, 255, 0)" /><circle cx="181" cy="169" r="24" fill="rgb(255, 255, 0)" /><rect x="639" y="4" width="71" height="115" fill="rgb(0, 0, 0)" /><circle cx="661" cy="923" r="85" fill="rgb(0, 0, 0)" /><polygon points="790,720 222,415 631,310" fill="rgb(0, 0, 0)" /><circle cx="296" cy="952" r="83" fill="rgb(0, 0, 0)" /><polygon points="706,572 1048,456 926,1136 908,1025 463,7" fill="rgb(255, 0, 0)" /><circle cx="610" cy="1398" r="89" fill="rgb(255, 0, 0)" /><circle cx="938" cy="334" r="54" fill="rgb(0, 0, 0)" /><polygon points="608,1245 102,345 169,407 136,1430 127,418 215,1314" fill="rgb(0, 0, 255)" /><rect x="161" y="962" width="122" height="174" fill="rgb(255, 0, 0)" /><polygon points="982,1411 59,1352 874,345" fill="rgb(255, 0, 0)" /><circle cx="215" cy="612" r="83" fill="rgb(0, 0, 0)" /><rect x="833" y="139" width="172" height="55" fill="rgb(255, 255, 0)" /><polygon points="191,1311 722,463 657,33 476,815" fill="rgb(255, 255, 0)" /><polygon points="1063,1060 912,1229 1023,92 539,540 152,215" fill="rgb(0, 0, 255)" /><polygon points="241,123 412,1484 984,768 784,654" fill="rgb(0, 0, 0)" /><circle cx="943" cy="122" r="59" fill="rgb(0, 0, 0)" /><polygon points="500,740 703,859 375,1174 804,888 126,986" fill="rgb(255, 0, 0)" /><circle cx="459" cy="1388" r="43" fill="rgb(255, 0, 0)" /><rect x="376" y="269" width="185" height="68" fill="rgb(0, 0, 0)" /><rect x="155" y="580" width="149" height="178" fill="rgb(255, 0, 0)" /><polygon points="505,1465 11,1261 1099,1474 857,1344" fill="rgb(255, 0, 0)" /><polygon points="388,900 940,814 788,1020" fill="rgb(0, 0, 255)" /><rect x="196" y="212" width="61" height="121" fill="rgb(255, 255, 0)" /><circle cx="278" cy="434" r="73" fill="rgb(0, 0, 255)" /><circle cx="606" cy="1425" r="90" fill="rgb(255, 0, 0)" /><polygon points="439,751 558,185 722,993" fill="rgb(255, 0, 0)" /><circle cx="763" cy="752" r="39" fill="rgb(0, 0, 0)" /><polygon points="661,32 723,141 171,1084 615,884 1003,551" fill="rgb(0, 0, 0)" /><rect x="1089" y="776" width="176" height="159" fill="rgb(0, 0, 255)" /><rect x="778" y="657" width="183" height="54" fill="rgb(0, 0, 0)" /><rect x="729" y="627" width="92" height="199" fill="rgb(0, 0, 0)" /><rect x="696" y="825" width="158" height="54" fill="rgb(255, 0, 0)" /><rect x="880" y="1078" width="191" height="154" fill="rgb(255, 255, 0)" /><rect x="32" y="420" width="166" height="92" fill="rgb(0, 0, 0)" /></svg>