<svg xmlns="http://www.w3.org/2000/svg" width="1101" height="1500"><rect x="560" y="67" width="192" height="151" fill="rgb(255, 0, 0)" /><circle cx="224" cy="570" r="70" fill="rgb(255, 0, 0)" /><polygon points="722,325 831,517 837,1389 283,494" fill="rgb(255, 255, 0)" /><polygon points="246,1155 873,1272 47,1217 278,597" fill="rgb(0, 0, 255)" /><circle cx="895" cy="140" r="51" fill="rgb(0, 0, 255)" /><rect x="250" y="55" width="92" height="136" fill="rgb(0, 0, 255)" /><circle cx="447" cy="198" r="26" fill="rgb(255, 255, 0)" /><rect x="315" y="1153" width="134" height="151" fill="rgb(255, 255, 0)" /><polygon points="797,281 420,322 652,1078 634,922 615,662" fill="rgb(0, 0, 255)" /><polygon points="622,322 198,273 331,236 814,94" fill="rgb(0, 0, 0)" /><polygon points="918,325 1090,1187 58,177 1014,912 74,279" fill="rgb(255, 255, 0)" /><rect x="997" y="1197" width="85" height="145" fill="rgb(255, 0, 0)" /><polygon points="615,1403 449,1115 116,1186 490,589" fill="rgb(255, 255, 0)" /><polygon points="1069,1389 1094,585 768,703 1061,1306" fill="rgb(255, 0, 0)" /><polygon points="291,1270 110,178 997,877" fill="rgb(0, 0, 0)" /><rect x="252" y="1048" width="134" height="193" fill="rgb(0, 0, 0)" /><rect x="987" y="412" width="131" height="127" fill="rgb(0, 0, 0)" /><circle cx="100" cy="862" r="21" fill="rgb(0, 0, 255)" /><circle cx="332" cy="67" r="57" fill="rgb(0, 0, 255)" /><rect x="107" y="1290" width="156" height="190" fill="rgb(255, 0, 0)" /><polygon points="272,40 942,655 893,453 1088,866 491,1234 352,455" fill="rgb(255, 0, 0)" /><circle cx="435" cy="1320" r="75" fill="rgb(0, 0, 0)" /><polygon points="199,1349 637,259 729,1084" fill="rgb(0, 0, 255)" /><polygon points="596,775 527,1254 878,1" fill="rgb(0, 0, 255)" /><circle cx="942" cy="944" r="75" fill="rgb(255, 255, 0)" /><rect x="43" y="16" width="173" height="174" fill="rgb(0, 0, 255)" /><polygon points="644,1444 73,1148 12,612 850,668 290,1435" fill="rgb(0, 0, 0)" /><polygon points="1093,349 804,1279 855,684 528,1351" fill="rgb(0, 0, 0)" /><polygon points="1054,471 1039,824 938,433 791,322 898,34" fill="rgb(255, 255, 0)" /><rect x="1089" y="653" width="66" height="91" fill="rgb(0, 0, 255)" /><polygon points="524,471 249,576 778,830 238,909 59,104" fill="rgb(255, 255, 0)" /><circle cx="726" cy="288" r="91" fill="rgb(0, 0, 255)" /><rect x="1023" y="1037" width="95" height="150" fill="rgb(0, 0, 255)" /><circle cx="1092" cy="645" r="50" fill="rgb(0, 0, 255)" /><rect x="169" y="191" width="183" height="152" fill="rgb(0, 0, 0)" /><polygon points="889,864 584,1369 866,403 663,386" fill="rgb(0, 0, 255)" /><polygon points="628,352 700,226 607,227 902,1428 305,498" fill="rgb(0, 0, 0)" /><polygon points="763,800 481,982 859,410 688,1233 1003,1432" fill="rgb(0, 0, 0)" /><polygon points="925,562 983,1468 808,932" fill="rgb(0, 0, 255)" /><circle cx="638" cy="1435" r="74" fill="rgb(255, 255, 0)" /><circle cx="213" cy="844" r="95" fill="rgb(0, 0, 255)" /><circle cx="419" cy="208" r="68" fill="rgb(255, 255, 0)" /><polygon points="45,725 258,275 451,520" fill="rgb(255, 0, 0)" /><polygon points="515,1480 215,1367 315,1275 691,261" fill="rgb(0, 0, 0)" /><polygon points="865,1431 417,1287 357,487 509,211 106,235" fill="rgb(255, 0, 0)" /><circle cx="667" cy="33" r="52" fill="rgb(255, 255, 0)" /><rect x="771" y="966" width="168" height="197" fill="rgb(255, 255, 0)" /><polygon points="617,635 1082,1174 307,865" fill="rgb(255, 255, 0)" /><circle cx="92" cy="1078" r="52" fill="rgb(255, 255, 0)" /><polygon points="315,324 926,135 287,153 781,223" fill="rgb(0, 0, 255)" /><rect x="32" y="790" width="185" height="73" fill="rgb(0, 0, 255)" /><circle cx="572" cy="1397" r="81" fill="rgb(0, 0, 255)" /><rect x="375" y="147" width="71" height="195" fill="rgb(255, 0, 0)" /><rect x="688" y="1121" width="185" height="92" fill="rgb(255, 255, 0)" /><rect x="803" y="1445" width="190" height="196" fill="rgb(255, 0, 0)" /><polygon points="506,530 101,1028 470,388 354,1498" fill="rgb(0, 0, 0)" /><polygon points="471,119 275,993 385,1024 961,1435 331,507 178,644" fill="rgb(0, 0, 0)" /><rect x="799" y="1308" width="199" height="145" fill="rgb(0, 0, 255)" /><rect x="123" y="1468" width="156" height="177" fill="rgb(255, 255, 0)" /><circle cx="964" cy="392" r="39" fill="rgb(0, 0, 255)" /><polygon points="796,1074 156,689 978,248" fill="rgb(255, 0, 0)" /><polygon points="304,1191 515,1087 998,302 1026,273 566,974 878,446" fill="rgb(0, 0, 255)" /><circle cx="657" cy="955" r="53" fill="rgb(255, 0, 0)" /><rect x="545" y="375" width="97" height="88" fill="rgb(0, 0, 0)" /><circle cx="868" cy="1344" r="38" fill="rgb(0, 0, 0)" /><rect x="757" y="971" width="173" height="125" fill="rgb(255, 0, 0)" /><circle cx="662" cy="1457" r="91" fill="rgb(0, 0, 255)" /><rect x="228" y="1469" width="110" height="157" fill="rgb(0, 0, 255)" /><polygon points="453,573 535,784 261,1360 1067,1356 812,1416" fill="rgb(0, 0, 255)" /><polygon points="413,156 359,285 311,451 631,116 888,1158 129,1467" fill="rgb(255, 255, 0)" /><rect x="236" y="596" width="116" height="176" fill="rgb(255, 0, 0)" /><circle cx="672" cy="586" r="56" fill="rgb(0, 0, 255)" /><polygon points="844,404 904,671 898,546 1059,1032 459,310 736,981" fill="rgb(0, 0, 255)" /><polygon points="688,709 310,595 1018,1166 236,607 760,1060" fill="rgb(255, 0, 0)" /><circle cx="837" cy="1097" r="89" fill="rgb(0, 0, 255)" /><circle cx="542" cy="474" r="48" fill="rgb(0, 0, 255)" /><circle cx="620" cy="1178" r="47" fill="rgb(0, 0, 255)" /><rect x="1047" y="4" width="81" height="159" fill="rgb(0, 0, 0)" /><circle cx="377" cy="1017" r="43" fill="rgb(255, 255, 0)" /><rect x="1018" y="764" width="141" height="55" fill="rgb(0, 0, 0)" /><rect x="775" y="81" width="96" height="154" fill="rgb(0, 0, 0)" /><rect x="170" y="558" width="79" height="71" fill="rgb(0, 0, 255)" /><polygon points="1088,515 302,1350 1075,1019 243,612" fill="rgb(255, 255, 0)" /><rect x="1097" y="912" width="77" height="190" fill="rgb(255, 0, 0)" /><polygon points="441,875 488,1148 306,495 448,885" fill="rgb(0, 0, 255)" /><circle cx="821" cy="111" r="23" fill="rgb(0, 0, 255)" /><circle cx="87" cy="1307" r="100" fill="rgb(255, 255, 0)" /><polygon points="942,337 433,1347 536,708 136,256 189,705 326,553" fill="rgb(0, 0, 255)" /><polygon points="384,1109 70,1223 754,938 950,951 376,1171 804,1125" fill="rgb(0, 0, 255)" /><rect x="571" y="1055" width="152" height="77" fill="rgb(0, 0, 0)" /><rect x="1072" y="687" width="196" height="160" fill="rgb(0, 0, 0)" /><polygon points="117,680 861,624 458,1010 555,555 315,981" fill="rgb(255, 255, 0)" /><circle cx="1009" cy="1055" r="24" fill="rgb(255, 0, 0)" /><rect x="508" y="1287" width="69" height="80" fill="rgb(0, 0, 255)" /><polygon points="948,1377 226,1292 17,394 362,920" fill="rgb(0, 0, 0)" /><polygon points="1039,709 730,986 560,325 791,947" fill="rgb(0, 0, 0)" /><polygon points="250,619 320,540 947,1176 755,1175" fill="rgb(255, 255, 0)" /><rect x="278" y="325" width="148" height="127" fill="rgb(255, 0, 0)" /><rect x="1095" y="1077" width="186" height="110" fill="rgb(0, 0, 255)" /><rect x="653" y="813" width="175" height="186" fill="rgb(0, 0, 0)" /><circle cx="9" cy="482" r="25" fill="rgb(255, 255, 0)" /><circle cx="110" cy="750" r="31" fill="rgb(0, 0, 255)" /><circle cx="770" cy="1488" r="50" fill="rgb(255, 255, 0)" /><rect x="609" y="687" width="164" height="178" fill="rgb(0, 0, 255)" /><rect x="515" y="915" width="53" height="186" fill="rgb(0, 0, 0)" /><rect x="894" y="580" width="102" height="106" fill="rgb(255, 0, 0)" /><circle cx="867" cy="877" r="33" fill="rgb(0, 0, 255)" /><polygon points="889,387 1016,224 762,1164" fill="rgb(255, 0, 0)" /><circle cx="325" cy="1205" r="98" fill="rgb(0, 0, 0)" /><rect x="477" y="452" width="90" height="152" fill="rgb(0, 0, 0)" /><rect x="609" y="1047" width="63" height="114" fill="rgb(0, 0, 0)" /><polygon points="923,1360 468,416 519,1134 328,206 632,1453 705,805" fill="rgb(0, 0, 0)" /><polygon points="804,818 212,603 172,244 495,612" fill="rgb(0, 0, 0)" /><rect x="1033" y="551" width="68" height="106" fill="rgb(0, 0, 0)" /><polygon points="1009,79 802,1389 1094,1205" fill="rgb(0, 0, 255)" /><circle cx="508" cy="913" r="90" fill="rgb(0, 0, 255)" /><rect x="469" y="191" width="56" height="115" fill="rgb(0, 0, 255)" /><rect x="654" y="1399" width="200" height="103" fill="rgb(255, 0, 0)" /><circle cx="877" cy="95" r="34" fill="rgb(255, 255, 0)" /><circle cx="269" cy="132" r="27" fill="rgb(0, 0, 0)" /><rect x="324" y="1305" width="77" height="181" fill="rgb(0, 0, 255)" /><rect x="88" y="618" width="165" height="52" fill="rgb(255, 255, 0)" /></svg>