<svg xmlns="http://www.w3.org/2000/svg" width="1101" height="1500"><circle cx="647" cy="694" r="20" fill="rgb(255, 0, 0)" /><rect x="408" y="1120" width="58" height="179" fill="rgb(255, 255, 0)" /><circle cx="175" cy="1006" r="84" fill="rgb(255, 0, 0)" /><circle cx="450" cy="1089" r="37" fill="rgb(255, 0, 0)" /><polygon points="513,574 1056,1235 509,696 812,494 374,369 132,873" fill="rgb(255, 0, 0)" /><polygon points="249,626 514,345 757,180 504,1223 780,298" fill="rgb(0, 0, 0)" /><circle cx="478" cy="225" r="31" fill="rgb(0, 0, 0)" /><polygon points="790,1488 926,259 286,97" fill="rgb(0, 0, 255)" /><rect x="790" y="996" width="180" height="90" fill="rgb(0, 0, 255)" /><rect x="58" y="1348" width="119" height="171" fill="rgb(255, 0, 0)" /><rect x="960" y="645" width="129" height="167" fill="rgb(0, 0, 255)" /><rect x="365" y="213" width="88" height="178" fill="rgb(0, 0, 0)" /><rect x="731" y="155" width="173" height="155" fill="rgb(255, 0, 0)" /><rect x="981" y="636" width="86" height="111" fill="rgb(255, 0, 0)" /></svg>