<svg xmlns="http://www.w3.org/2000/svg" width="1101" height="1500"><circle cx="932" cy="116" r="58" fill="rgb(255, 0, 0)" /><rect x="755" y="731" width="76" height="69" fill="rgb(255, 255, 0)" /><circle cx="121" cy="602" r="37" fill="rgb(0, 0, 255)" /><circle cx="577" cy="449" r="53" fill="rgb(0, 0, 0)" /><circle cx="866" cy="529" r="47" fill="rgb(0, 0, 255)" /><rect x="101" y="1326" width="107" height="101" fill="rgb(0, 0, 255)" /><polygon points="223,111 379,264 183,754 389,901" fill="rgb(0, 0, 255)" /><polygon points="466,1187 894,33 674,274 773,1347 538,591" fill="rgb(0, 0, 0)" /><circle cx="1074" cy="935" r="54" fill="rgb(255, 255, 0)" /><rect x="460" y="306" width="131" height="193" fill="rgb(0, 0, 255)" /><rect x="138" y="1040" width="109" height="158" fill="rgb(0, 0, 0)" /><circle cx="219" cy="11" r="49" fill="rgb(0, 0, 255)" /><rect x="892" y="75" width="120" height="106" fill="rgb(0, 0, 255)" /><rect x="696" y="664" width="145" height="94" fill="rgb(255, 0, 0)" /><circle cx="864" cy="1199" r="91" fill="rgb(255, 255, 0)" /><rect x="60" y="927" width="70" height="116" fill="rgb(0, 0, 255)" /><rect x="529" y="386" width="166" height="146" fill="rgb(255, 0, 0)" /><rect x="1028" y="275" width="90" height="90" fill="rgb(0, 0, 0)" /><rect x="1021" y="74" width="140" height="64" fill="rgb(0, 0, 255)" /><polygon points="956,225 431,236 211,656" fill="rgb(255, 0, 0)" /><rect x="164" y="355" width="181" height="98" fill="rgb(0, 0, 0)" /><polygon points="1060,799 110,212 59,974 443,1171" fill="rgb(255, 255, 0)" /><rect x="556" y="128" width="77" height="156" fill="rgb(0, 0, 0)" /><rect x="1093" y="807" width="123" height="52" fill="rgb(0, 0, 255)" /><circle cx="879" cy="249" r="79" fill="rgb(255, 0, 0)" /><rect x="505" y="1026" width="193" height="172" fill="rgb(0, 0, 0)" /><rect x="378" y="212" width="127" height="148" fill="rgb(255, 0, 0)" /><polygon points="863,565 569,1312 743,106" fill="rgb(0, 0, 255)" /><rect x="433" y="195" width="89" height="95" fill="rgb(0, 0, 255)" /><rect x="297" y="340" width="192" height="97" fill="rgb(255, 255, 0)" /><rect x="9" y="194" width="153" height="124" fill="rgb(0, 0, 255)" /><rect x="261" y="271" width="73" height="133" fill="rgb(255, 0, 0)" /><polygon points="700,28 552,748 861,757 613,970 726,1079 364,1467" fill="rgb(0, 0, 255)" /><polygon points="31,313 381,251 331,47 864,1361" fill="rgb(0, 0, 255)" /><rect x="1004" y="1069" width="101" height="146" fill="rgb(255, 255, 0)" /><rect x="898" y="780" width="184" height="110" fill="rgb(255, 0, 0)" /><rect x="789" y="65" width="162" height="175" fill="rgb(0, 0, 0)" /><polygon points="176,990 458,1132 450,1027 132,1382 392,641" fill="rgb(0, 0, 255)" /><rect x="65" y="1161" width="151" height="124" fill="rgb(0, 0, 0)" /><circle cx="868" cy="241" r="82" fill="rgb(0, 0, 0)" /><rect x="989" y="608" width="192" height="114" fill="rgb(255, 255, 0)" /><circle cx="240" cy="940" r="27" fill="rgb(0, 0, 255)" /><rect x="681" y="269" width="69" height="54" fill="rgb(255, 0, 0)" /><rect x="179" y="1379" width="120" height="103" fill="rgb(0, 0, 0)" /><circle cx="638" cy="54" r="60" fill="rgb(0, 0, 255)" /><circle cx="40" cy="372" r="68" fill="rgb(0, 0, 0)" /><rect x="128" y="551" width="112" height="58" fill="rgb(0, 0, 255)" /><rect x="940" y="831" width="185" height="71" fill="rgb(255, 255, 0)" /><polygon points="690,1438 292,840 458,1426" fill="rgb(255, 255, 0)" /><rect x="881" y="737" width="171" height="161" fill="rgb(255, 255, 0)" /><rect x="190" y="264" width="154" height="58" fill="rgb(255, 0, 0)" /><rect x="990" y="415" width="92" height="106" fill="rgb(255, 255, 0)" /><circle cx="10" cy="1476" r="94" fill="rgb(255, 255, 0)" /><circle cx="1081" cy="617" r="66" fill="rgb(255, 255, 0)" /><rect x="812" y="511" width="137" height="80" fill="rgb(255, 255, 0)" /><rect x="433" y="315" width="130" height="53" fill="rgb(255, 255, 0)" /><rect x="811" y="578" width="70" height="74" fill="rgb(255, 255, 0)" /><rect x="765" y="553" width="57" height="96" fill="rgb(255, 0, 0)" /><rect x="474" y="473" width="117" height="70" fill="rgb(255, 255, 0)" /><circle cx="714" cy="1111" r="71" fill="rgb(0, 0, 255)" /><circle cx="99" cy="111" r="27" fill="rgb(255, 255, 0)" /><circle cx="1016" cy="222" r="25" fill="rgb(0, 0, 0)" /></svg>