<svg xmlns="http://www.w3.org/2000/svg" width="1101" height="1500"><circle cx="229" cy="519" r="21" fill="rgb(255, 0, 0)" /><circle cx="383" cy="389" r="64" fill="rgb(255, 0, 0)" /><polygon points="94,958 1018,1412 853,1222 291,182" fill="rgb(255, 0, 0)" /><rect x="1070" y="435" width="183" height="103" fill="rgb(0, 0, 255)" /><rect x="272" y="558" width="79" height="191" fill="rgb(255, 0, 0)" /><rect x="446" y="280" width="172" height="145" fill="rgb(0, 0, 255)" /><circle cx="146" cy="1067" r="22" fill="rgb(255, 0, 0)" /><rect x="572" y="681" width="64" height="93" fill="rgb(255, 0, 0)" /><rect x="1086" y="59" width="87" height="179" fill="rgb(0, 0, 255)" /><circle cx="100" cy="945" r="95" fill="rgb(0, 0, 255)" /><polygon points="934,320 458,70 36,88 506,927" fill="rgb(0, 0, 0)" /><rect x="367" y="975" width="195" height="131" fill="rgb(0, 0, 255)" /><polygon points="412,489 474,463 699,55 170,100 619,1202" fill="rgb(0, 0, 255)" /><circle cx="462" cy="1139" r="35" fill="rgb(0, 0, 255)" /><circle cx="649" cy="212" r="30" fill="rgb(0, 0, 0)" /><polygon points="412,515 343,936 631,266" fill="rgb(0, 0, 255)" /><rect x="579" y="770" width="88" height="106" fill="rgb(0, 0, 255)" /><polygon points="421,1477 683,1370 496,980 961,760" fill="rgb(255, 0, 0)" /><rect x="711" y="1355" width="134" height="187" fill="rgb(255, 0, 0)" /><circle cx="458" cy="282" r="88" fill="rgb(0, 0, 255)" /><polygon points="565,537 381,882 557,818 751,63 187,133" fill="rgb(0, 0, 0)" /><rect x="223" y="1227" width="119" height="51" fill="rgb(255, 0, 0)" /><polygon points="151,1301 627,258 128,9" fill="rgb(255, 0, 0)" /><rect x="840" y="98" width="108" height="80" fill="rgb(0, 0, 0)" /><rect x="1058" y="1418" width="59" height="140" fill="rgb(0, 0, 255)" /><polygon points="296,387 253,1375 822,1320 1048,505 589,1323 115,180" fill="rgb(255, 0, 0)" /><polygon points="372,163 317,677 638,613 91,71" fill="rgb(255, 255, 0)" /><rect x="929" y="621" width="120" height="104" fill="rgb(0, 0, 0)" /><polygon points="287,27 306,889 1015,1324" fill="rgb(0, 0, 0)" /><rect x="129" y="368" width="182" height="95" fill="rgb(255, 0, 0)" /><circle cx="766" cy="1375" r="83" fill="rgb(255, 0, 0)" /><rect x="925" y="358" width="188" height="57" fill="rgb(0, 0, 0)" /><circle cx="318" cy="749" r="37" fill="rgb(255, 255, 0)" /><circle cx="833" cy="827" r="27" fill="rgb(0, 0, 0)" /><polygon points="600,864 803,728 940,783 99,683" fill="rgb(0, 0, 255)" /><rect x="217" y="1322" width="190" height="165" fill="rgb(0, 0, 255)" /><circle cx="683" cy="1361" r="91" fill="rgb(255, 255, 0)" /><circle cx="1095" cy="302" r="95" fill="rgb(255, 255, 0)" /><polygon points="483,1443 450,1076 708,215 575,722" fill="rgb(0, 0, 0)" /><polygon points="744,789 902,195 999,16 891,432" fill="rgb(0, 0, 0)" /><rect x="920" y="826" width="200" height="167" fill="rgb(255, 0, 0)" /><polygon points="25,267 665,1333 90,1000 1065,630 808,455" fill="rgb(255, 0, 0)" /><rect x="446" y="23" width="113" height="82" fill="rgb(0, 0, 255)" /><polygon points="273,260 588,1168 293,1281" fill="rgb(255, 255, 0)" /><circle cx="649" cy="1446" r="64" fill="rgb(255, 0, 0)" /><polygon points="992,690 602,382 234,368" fill="rgb(255, 0, 0)" /><rect x="186" y="389" width="173" height="97" fill="rgb(0, 0, 0)" /><circle cx="450" cy="251" r="92" fill="rgb(255, 255, 0)" /><circle cx="692" cy="1132" r="52" fill="rgb(0, 0, 0)" /><polygon points="350,307 1078,41 292,1418 695,144" fill="rgb(0, 0, 255)" /><rect x="1044" y="493" width="159" height="182" fill="rgb(255, 255, 0)" /><circle cx="728" cy="17" r="70" fill="rgb(0, 0, 0)" /><circle cx="528" cy="1093" r="42" fill="rgb(0, 0, 0)" /><polygon points="353,497 1081,527 68,928 757,1455 627,446 332,37" fill="rgb(255, 255, 0)" /><rect x="375" y="661" width="117" height="109" fill="rgb(0, 0, 0)" /><rect x="1065" y="1221" width="120" height="200" fill="rgb(255, 0, 0)" /><polygon points="266,750 418,611 1064,518 1009,1145 510,1428 312,1164" fill="rgb(0, 0, 255)" /><polygon points="473,793 249,320 485,60 775,433 555,564 952,1082" fill="rgb(0, 0, 0)" /><polygon points="1021,70 482,1422 65,286 892,222 150,841 720,844" fill="rgb(0, 0, 255)" /><polygon points="906,1247 441,797 576,773 716,169 350,1310" fill="rgb(0, 0, 255)" /><rect x="637" y="198" width="155" height="186" fill="rgb(0, 0, 0)" /><rect x="186" y="435" width="106" height="172" fill="rgb(0, 0, 255)" /><circle cx="726" cy="793" r="78" fill="rgb(0, 0, 255)" /><polygon points="27,229 410,1341 813,1137" fill="rgb(0, 0, 0)" /><rect x="796" y="456" width="161" height="176" fill="rgb(255, 255, 0)" /><circle cx="709" cy="899" r="83" fill="rgb(255, 255, 0)" /><polygon points="686,1134 769,952 897,498 107,1203 960,934 701,1361" fill="rgb(0, 0, 0)" /><polygon points="55,1367 871,1386 134,822 246,1301" fill="rgb(255, 255, 0)" /></svg>