<svg xmlns="http://www.w3.org/2000/svg" width="1101" height="1500"><rect x="403" y="696" width="136" height="90" fill="rgb(0, 0, 0)" /><circle cx="600" cy="418" r="85" fill="rgb(255, 255, 0)" /><rect x="1093" y="1478" width="180" height="64" fill="rgb(255, 255, 0)" /><polygon points="311,1045 463,1480 492,552 387,670 511,1 733,476" fill="rgb(0, 0, 0)" /><rect x="768" y="122" width="131" height="91" fill="rgb(0, 0, 0)" /><rect x="461" y="528" width="163" height="101" fill="rgb(255, 255, 0)" /><circle cx="645" cy="1031" r="21" fill="rgb(0, 0, 255)" /><circle cx="241" cy="617" r="58" fill="rgb(0, 0, 255)" /><rect x="339" y="300" width="101" height="87" fill="rgb(0, 0, 255)" /><rect x="972" y="906" width="158" height="125" fill="rgb(255, 0, 0)" /><rect x="92" y="526" width="107" height="66" fill="rgb(255, 255, 0)" /><rect x="951" y="224" width="142" height="97" fill="rgb(0, 0, 255)" /><polygon points="953,1048 313,577 915,821" fill="rgb(0, 0, 255)" /><rect x="822" y="533" width="87" height="100" fill="rgb(0, 0, 0)" /><circle cx="172" cy="1485" r="84" fill="rgb(0, 0, 0)" /><circle cx="1048" cy="260" r="36" fill="rgb(255, 0, 0)" /><rect x="319" y="408" width="156" height="150" fill="rgb(255, 0, 0)" /><rect x="765" y="1016" width="165" height="101" fill="rgb(0, 0, 0)" /><polygon points="135,312 528,457 671,1264" fill="rgb(255, 0, 0)" /><circle cx="834" cy="728" r="30" fill="rgb(255, 255, 0)" /><polygon points="201,165 219,152 657,272 397,1072 14,1056 752,67" fill="rgb(0, 0, 0)" /><circle cx="408" cy="1058" r="70" fill="rgb(255, 0, 0)" /><polygon points="1004,1188 663,2 459,82 260,428 409,1006 788,159" fill="rgb(0, 0, 255)" /><circle cx="462" cy="459" r="34" fill="rgb(255, 255, 0)" /><circle cx="410" cy="858" r="98" fill="rgb(0, 0, 0)" /><polygon points="468,1452 534,1234 725,1289 805,220" fill="rgb(0, 0, 0)" /><polygon points="618,455 1016,278 553,1153 546,964 962,892 90,248" fill="rgb(255, 0, 0)" /><rect x="1087" y="874" width="83" height="108" fill="rgb(255, 0, 0)" /><circle cx="271" cy="310" r="72" fill="rgb(0, 0, 0)" /><circle cx="957" cy="833" r="45" fill="rgb(0, 0, 0)" /><rect x="286" y="24" width="51" height="194" fill="rgb(0, 0, 0)" /><polygon points="751,1491 820,192 986,1065" fill="rgb(255, 255, 0)" /><rect x="275" y="748" width="138" height="67" fill="rgb(0, 0, 0)" /><circle cx="774" cy="444" r="47" fill="rgb(255, 255, 0)" /><polygon points="1048,1238 1067,338 290,1355" fill="rgb(255, 0, 0)" /><circle cx="51" cy="573" r="88" fill="rgb(255, 0, 0)" /><rect x="664" y="120" width="74" height="94" fill="rgb(255, 0, 0)" /><rect x="1017" y="653" width="186" height="125" fill="rgb(0, 0, 255)" /><circle cx="169" cy="627" r="71" fill="rgb(0, 0, 0)" /><rect x="442" y="1256" width="68" height="116" fill="rgb(0, 0, 0)" /><rect x="860" y="508" width="56" height="178" fill="rgb(0, 0, 255)" /><rect x="364" y="299" width="117" height="149" fill="rgb(255, 255, 0)" /><polygon points="239,205 902,552 212,1265 11,105 690,606 227,125" fill="rgb(0, 0, 0)" /><polygon points="131,641 817,892 1033,997 296,924 686,527" fill="rgb(255, 0, 0)" /><polygon points="22,470 749,683 577,166" fill="rgb(0, 0, 0)" /><circle cx="490" cy="138" r="30" fill="rgb(0, 0, 255)" /><polygon points="455,860 403,461 10,1277 1020,1012" fill="rgb(0, 0, 255)" /><circle cx="457" cy="398" r="28" fill="rgb(0, 0, 255)" /><circle cx="246" cy="273" r="62" fill="rgb(255, 0, 0)" /><polygon points="746,871 822,1195 182,364 1100,431" fill="rgb(0, 0, 0)" /><rect x="817" y="1314" width="113" height="86" fill="rgb(255, 255, 0)" /><rect x="316" y="149" width="123" height="99" fill="rgb(255, 255, 0)" /><circle cx="921" cy="247" r="21" fill="rgb(0, 0, 255)" /><circle cx="525" cy="1445" r="21" fill="rgb(255, 255, 0)" /><rect x="346" y="3" width="59" height="84" fill="rgb(0, 0, 255)" /><rect x="123" y="1065" width="100" height="134" fill="rgb(0, 0, 255)" /><circle cx="741" cy="1186" r="24" fill="rgb(0, 0, 0)" /><circle cx="450" cy="8" r="41" fill="rgb(255, 0, 0)" /><polygon points="73,1144 229,1493 680,1020 658,652 973,313 413,658" fill="rgb(255, 0, 0)" /><rect x="994" y="953" width="71" height="105" fill="rgb(255, 0, 0)" /><circle cx="883" cy="442" r="55" fill="rgb(0, 0, 0)" /><rect x="943" y="484" width="99" height="134" fill="rgb(255, 0, 0)" /><polygon points="672,32 384,1160 532,424 875,464" fill="rgb(0, 0, 0)" /><polygon points="53,414 180,222 282,177 30,202 1014,506" fill="rgb(0, 0, 0)" /><rect x="343" y="1146" width="197" height="134" fill="rgb(0, 0, 0)" /><polygon points="691,1378 350,560 433,885 649,355" fill="rgb(0, 0, 0)" /><rect x="774" y="194" width="142" height="77" fill="rgb(0, 0, 255)" /><polygon points="649,1128 893,145 56,783 60,527 1084,817 799,56" fill="rgb(0, 0, 255)" /><rect x="225" y="1075" width="91" height="80" fill="rgb(0, 0, 0)" /><polygon points="900,1164 588,689 3,790" fill="rgb(255, 255, 0)" /><circle cx="116" cy="650" r="66" fill="rgb(255, 255, 0)" /><rect x="229" y="128" width="107" height="71" fill="rgb(255, 255, 0)" /></svg>