<svg xmlns="http://www.w3.org/2000/svg" width="1101" height="1500"><circle cx="1013" cy="494" r="95" fill="rgb(255, 255, 0)" /><circle cx="596" cy="481" r="71" fill="rgb(255, 0, 0)" /><polygon points="315,1347 212,1252 247,1113 300,293" fill="rgb(255, 255, 0)" /><polygon points="971,651 788,809 738,35 764,1368 93,261 914,7" fill="rgb(255, 0, 0)" /><polygon points="1064,603 175,587 627,659" fill="rgb(255, 0, 0)" /><circle cx="1006" cy="380" r="26" fill="rgb(0, 0, 255)" /><polygon points="426,198 360,915 228,1472 5,229 102,713 329,156" fill="rgb(255, 0, 0)" /><circle cx="1098" cy="1139" r="47" fill="rgb(255, 0, 0)" /><rect x="1025" y="1328" width="197" height="174" fill="rgb(255, 255, 0)" /><circle cx="19" cy="1322" r="21" fill="rgb(255, 0, 0)" /><circle cx="392" cy="239" r="24" fill="rgb(0, 0, 0)" /><polygon points="1080,157 561,979 507,926 813,640" fill="rgb(0, 0, 255)" /><rect x="236" y="678" width="83" height="153" fill="rgb(255, 255, 0)" /><polygon points="867,232 68,542 179,1111 702,83 573,558 557,1343" fill="rgb(255, 255, 0)" /><rect x="514" y="528" width="75" height="56" fill="rgb(0, 0, 0)" /><polygon points="683,1060 871,1163 940,1341" fill="rgb(0, 0, 255)" /><circle cx="873" cy="13" r="55" fill="rgb(0, 0, 255)" /><circle cx="511" cy="1096" r="81" fill="rgb(255, 0, 0)" /><rect x="32" y="731" width="183" height="179" fill="rgb(255, 255, 0)" /><rect x="186" y="419" width="137" height="189" fill="rgb(255, 0, 0)" /><circle cx="983" cy="800" r="71" fill="rgb(255, 0, 0)" /><circle cx="113" cy="610" r="23" fill="rgb(0, 0, 255)" /><circle cx="280" cy="178" r="89" fill="rgb(0, 0, 0)" /><rect x="451" y="88" width="130" height="115" fill="rgb(255, 0, 0)" /><rect x="854" y="627" width="97" height="163" fill="rgb(255, 0, 0)" /><polygon points="762,142 647,474 862,1497" fill="rgb(0, 0, 255)" /><rect x="459" y="310" width="185" height="60" fill="rgb(255, 255, 0)" /><circle cx="73" cy="749" r="33" fill="rgb(0, 0, 0)" /><polygon points="73,521 294,664 6,943" fill="rgb(0, 0, 255)" /><polygon points="586,323 396,931 275,510 734,1384" fill="rgb(255, 255, 0)" /><polygon points="872,442 44,312 664,1309 245,517 876,514" fill="rgb(255, 255, 0)" /><circle cx="991" cy="1000" r="26" fill="rgb(0, 0, 255)" /><circle cx="479" cy="830" r="48" fill="rgb(255, 255, 0)" /><circle cx="552" cy="786" r="95" fill="rgb(255, 255, 0)" /><rect x="85" y="44" width="135" height="167" fill="rgb(0, 0, 255)" /><circle cx="57" cy="544" r="97" fill="rgb(0, 0, 0)" /><polygon points="212,991 728,182 874,465 884,234" fill="rgb(0, 0, 255)" /><rect x="888" y="758" width="95" height="82" fill="rgb(255, 255, 0)" /><polygon points="35,108 961,1422 155,1029" fill="rgb(255, 0, 0)" /><circle cx="570" cy="589" r="52" fill="rgb(0, 0, 0)" /><polygon points="682,415 337,1456 715,78 349,1332" fill="rgb(255, 255, 0)" /><rect x="1035" y="1030" width="68" height="169" fill="rgb(0, 0, 0)" /><rect x="894" y="577" width="121" height="57" fill="rgb(0, 0, 255)" /><polygon points="197,135 1041,1011 759,1496 491,1452 858,1057 732,999" fill="rgb(255, 255, 0)" /><circle cx="66" cy="669" r="52" fill="rgb(255, 0, 0)" /><circle cx="713" cy="1250" r="44" fill="rgb(0, 0, 0)" /><circle cx="294" cy="944" r="21" fill="rgb(255, 0, 0)" /><circle cx="239" cy="491" r="39" fill="rgb(255, 255, 0)" /><rect x="730" y="72" width="199" height="93" fill="rgb(255, 0, 0)" /><rect x="828" y="881" width="155" height="197" fill="rgb(255, 255, 0)" /><circle cx="722" cy="0" r="23" fill="rgb(255, 255, 0)" /><polygon points="908,308 1067,335 104,686 75,288 951,543" fill="rgb(255, 0, 0)" /><circle cx="824" cy="63" r="75" fill="rgb(0, 0, 255)" /><rect x="390" y="1024" width="83" height="68" fill="rgb(255, 0, 0)" /><rect x="1016" y="908" width="67" height="78" fill="rgb(255, 255, 0)" /><rect x="641" y="879" width="196" height="106" fill="rgb(255, 255, 0)" /><circle cx="176" cy="285" r="61" fill="rgb(0, 0, 255)" /><circle cx="662" cy="891" r="79" fill="rgb(0, 0, 255)" /><rect x="550" y="796" width="182" height="69" fill="rgb(255, 255, 0)" /><rect x="1060" y="516" width="55" height="116" fill="rgb(0, 0, 0)" /><polygon points="105,1339 449,272 277,525 205,593 1047,1237" fill="rgb(255, 0, 0)" /><circle cx="231" cy="1447" r="88" fill="rgb(0, 0, 0)" /><rect x="9" y="541" width="56" height="84" fill="rgb(255, 255, 0)" /><polygon points="70,1293 455,1454 420,25 334,418 287,906" fill="rgb(0, 0, 255)" /><rect x="619" y="659" width="195" height="104" fill="rgb(255, 0, 0)" /><circle cx="979" cy="501" r="20" fill="rgb(255, 255, 0)" /><polygon points="841,331 262,488 101,304 973,486 444,202 1029,1360" fill="rgb(255, 0, 0)" /><polygon points="958,1361 723,1149 662,394" fill="rgb(255, 0, 0)" /><circle cx="641" cy="992" r="30" fill="rgb(0, 0, 255)" /><polygon points="890,908 914,671 655,334 732,379 603,618" fill="rgb(0, 0, 255)" /><rect x="117" y="512" width="186" height="181" fill="rgb(0, 0, 0)" /><circle cx="978" cy="115" r="75" fill="rgb(0, 0, 255)" /><polygon points="543,1430 1082,292 359,1241" fill="rgb(255, 0, 0)" /><polygon points="1006,785 402,600 82,287 820,14 466,853 468,635" fill="rgb(255, 255, 0)" /><polygon points="1036,612 281,319 918,49 652,359" fill="rgb(255, 255, 0)" /><circle cx="397" cy="738" r="36" fill="rgb(255, 255, 0)" /><polygon points="925,238 396,280 672,883 102,635 351,810 760,602" fill="rgb(255, 255, 0)" /><rect x="289" y="863" width="135" height="188" fill="rgb(0, 0, 255)" /><rect x="728" y="979" width="113" height="134" fill="rgb(255, 255, 0)" /><rect x="122" y="370" width="79" height="123" fill="rgb(0, 0, 255)" /><circle cx="45" cy="484" r="63" fill="rgb(255, 255, 0)" /><rect x="280" y="628" width="181" height="177" fill="rgb(0, 0, 255)" /><rect x="1078" y="1167" width="82" height="128" fill="rgb(255, 255, 0)" /><polygon points="866,11 207,1417 759,62 1021,1494 956,247 481,119" fill="rgb(0, 0, 255)" /><rect x="1053" y="1309" width="181" height="65" fill="rgb(255, 255, 0)" /><rect x="207" y="533" width="195" height="198" fill="rgb(255, 255, 0)" /><polygon points="697,983 463,938 485,635 99,817" fill="rgb(0, 0, 0)" /><circle cx="873" cy="871" r="20" fill="rgb(255, 0, 0)" /><rect x="995" y="443" width="119" height="148" fill="rgb(255, 255, 0)" /><circle cx="266" cy="503" r="57" fill="rgb(0, 0, 0)" /><polygon points="890,485 262,574 118,555 1061,1445 287,359 345,1467" fill="rgb(0, 0, 255)" /><circle cx="125" cy="1303" r="99" fill="rgb(0, 0, 255)" /><circle cx="851" cy="850" r="70" fill="rgb(255, 0, 0)" /><rect x="191" y="524" width="198" height="199" fill="rgb(255, 0, 0)" /><rect x="910" y="421" width="74" height="183" fill="rgb(0, 0, 0)" /><circle cx="940" cy="1432" r="21" fill="rgb(255, 0, 0)" /><rect x="154" y="709" width="98" height="93" fill="rgb(255, 0, 0)" /><polygon points="763,709 623,512 109,1458 274,983 631,1325" fill="rgb(255, 0, 0)" /><rect x="489" y="862" width="172" height="89" fill="rgb(0, 0, 255)" /><polygon points="1040,980 160,1263 322,375 535,492 138,887 111,1474" fill="rgb(255, 0, 0)" /><polygon points="715,1324 386,847 1081,938 602,1439" fill="rgb(255, 255, 0)" /><rect x="342" y="689" width="144" height="131" fill="rgb(255, 0, 0)" /></svg>