<svg xmlns="http://www.w3.org/2000/svg" width="1101" height="1500"><rect x="618" y="1221" width="187" height="179" fill="rgb(0, 0, 255)" /><circle cx="416" cy="505" r="20" fill="rgb(255, 255, 0)" /><circle cx="606" cy="1055" r="92" fill="rgb(0, 0, 0)" /><circle cx="504" cy="808" r="55" fill="rgb(0, 0, 0)" /><rect x="188" y="1272" width="145" height="164" fill="rgb(0, 0, 0)" /><polygon points="595,949 721,6 618,1318 679,356 1064,675" fill="rgb(255, 255, 0)" /><rect x="730" y="1087" width="191" height="142" fill="rgb(0, 0, 0)" /><polygon points="645,844 607,966 967,1406 540,935" fill="rgb(255, 0, 0)" /><polygon points="250,1024 216,550 902,514" fill="rgb(255, 0, 0)" /><rect x="822" y="226" width="161" height="94" fill="rgb(0, 0, 0)" /><rect x="78" y="1476" width="87" height="70" fill="rgb(0, 0, 0)" /><rect x="780" y="233" width="136" height="98" fill="rgb(255, 255, 0)" /><circle cx="868" cy="355" r="63" fill="rgb(255, 255, 0)" /><circle cx="254" cy="1160" r="25" fill="rgb(255, 0, 0)" /><rect x="848" y="254" width="69" height="126" fill="rgb(0, 0, 255)" /><circle cx="963" cy="158" r="28" fill="rgb(255, 0, 0)" /><polygon points="162,534 961,377 586,1443 813,43" fill="rgb(255, 255, 0)" /><circle cx="280" cy="1391" r="82" fill="rgb(255, 255, 0)" /><polygon points="43,55 891,1009 47,1205 1066,346 1081,1232 981,795" fill="rgb(255, 255, 0)" /><polygon points="321,265 422,1027 208,302 1070,449 533,719" fill="rgb(255, 255, 0)" /><rect x="1070" y="1187" width="128" height="168" fill="rgb(255, 0, 0)" /><polygon points="567,1465 379,345 449,1315 389,1050 771,920" fill="rgb(0, 0, 255)" /><polygon points="1,844 977,1217 647,791 512,579" fill="rgb(0, 0, 255)" /><circle cx="3" cy="533" r="76" fill="rgb(0, 0, 0)" /><rect x="304" y="836" width="114" height="141" fill="rgb(0, 0, 255)" /><circle cx="3" cy="1122" r="22" fill="rgb(0, 0, 255)" /><rect x="118" y="976" width="116" height="155" fill="rgb(255, 255, 0)" /><rect x="364" y="1217" width="130" height="57" fill="rgb(255, 0, 0)" /><circle cx="388" cy="200" r="92" fill="rgb(255, 0, 0)" /><polygon points="628,819 949,1395 950,689 559,763 1067,181" fill="rgb(0, 0, 0)" /><polygon points="260,113 1028,1044 86,1048" fill="rgb(0, 0, 0)" /><circle cx="617" cy="432" r="31" fill="rgb(255, 0, 0)" /><polygon points="589,975 161,305 798,641" fill="rgb(255, 255, 0)" /><polygon points="468,1257 374,738 501,1013 341,1427 195,334 329,819" fill="rgb(255, 255, 0)" /><rect x="884" y="307" width="69" height="122" fill="rgb(0, 0, 255)" /><polygon points="501,711 939,40 1069,1115 902,718" fill="rgb(255, 0, 0)" /><polygon points="649,1298 1046,292 557,617 303,1349 746,377" fill="rgb(255, 255, 0)" /><rect x="736" y="1027" width="179" height="127" fill="rgb(255, 0, 0)" /><rect x="916" y="660" width="133" height="151" fill="rgb(0, 0, 255)" /><polygon points="494,1447 977,670 997,1464 366,2 692,303 605,28" fill="rgb(255, 255, 0)" /><polygon points="1062,194 501,642 293,341" fill="rgb(0, 0, 0)" /><rect x="625" y="659" width="155" height="83" fill="rgb(255, 0, 0)" /><rect x="848" y="1300" width="152" height="129" fill="rgb(255, 0, 0)" /><rect x="427" y="999" width="180" height="84" fill="rgb(255, 255, 0)" /><polygon points="66,405 153,335 807,265" fill="rgb(255, 255, 0)" /><circle cx="443" cy="974" r="42" fill="rgb(0, 0, 255)" /><polygon points="62,291 1079,480 1008,861" fill="rgb(0, 0, 0)" /><polygon points="805,506 139,196 562,713 1095,157 1044,1152" fill="rgb(255, 0, 0)" /><polygon points="1035,1258 878,146 110,894" fill="rgb(0, 0, 0)" /><rect x="1079" y="26" width="81" height="62" fill="rgb(255, 0, 0)" /><rect x="49" y="840" width="180" height="105" fill="rgb(255, 0, 0)" /><rect x="553" y="64" width="78" height="60" fill="rgb(255, 0, 0)" /><rect x="952" y="1229" width="81" height="80" fill="rgb(0, 0, 255)" /><polygon points="22,620 548,374 111,1427" fill="rgb(255, 255, 0)" /><circle cx="1022" cy="792" r="35" fill="rgb(255, 0, 0)" /><circle cx="62" cy="1461" r="55" fill="rgb(255, 0, 0)" /><rect x="212" y="971" width="137" height="172" fill="rgb(255, 255, 0)" /><rect x="125" y="1360" width="77" height="184" fill="rgb(255, 255, 0)" /><circle cx="596" cy="1485" r="42" fill="rgb(0, 0, 255)" /><circle cx="1034" cy="670" r="38" fill="rgb(0, 0, 0)" /><rect x="845" y="923" width="199" height="123" fill="rgb(255, 0, 0)" /><polygon points="654,40 68,1159 198,1475" fill="rgb(255, 0, 0)" /><circle cx="1026" cy="1380" r="95" fill="rgb(255, 0, 0)" /><polygon points="471,1454 376,1471 878,304" fill="rgb(255, 0, 0)" /><polygon points="447,771 751,1392 604,307 727,404" fill="rgb(255, 0, 0)" /><rect x="637" y="1114" width="87" height="53" fill="rgb(255, 255, 0)" /><rect x="1073" y="1499" width="184" height="86" fill="rgb(0, 0, 255)" /><circle cx="912" cy="796" r="82" fill="rgb(0, 0, 0)" /><circle cx="435" cy="243" r="78" fill="rgb(0, 0, 255)" /><rect x="413" y="705" width="110" height="148" fill="rgb(255, 0, 0)" /><circle cx="480" cy="1381" r="24" fill="rgb(0, 0, 0)" /><polygon points="931,1112 151,1096 598,1305" fill="rgb(255, 255, 0)" /><rect x="882" y="1212" width="91" height="102" fill="rgb(0, 0, 255)" /><circle cx="168" cy="1383" r="89" fill="rgb(255, 0, 0)" /><polygon points="150,1264 826,468 519,96" fill="rgb(0, 0, 0)" /><rect x="600" y="1058" width="131" height="183" fill="rgb(0, 0, 255)" /><circle cx="771" cy="855" r="23" fill="rgb(0, 0, 255)" /><circle cx="509" cy="29" r="70" fill="rgb(255, 255, 0)" /><circle cx="976" cy="1294" r="84" fill="rgb(255, 255, 0)" /><polygon points="1004,1398 769,133 978,81 350,1453 114,294 242,372" fill="rgb(255, 255, 0)" /><polygon points="1067,440 417,327 410,1494 940,753" fill="rgb(255, 255, 0)" /><rect x="26" y="1488" width="84" height="177" fill="rgb(255, 0, 0)" /><polygon points="182,1298 931,1444 83,766 829,166 337,1040" fill="rgb(0, 0, 255)" /><rect x="1029" y="1235" width="179" height="152" fill="rgb(255, 0, 0)" /><rect x="585" y="571" width="101" height="65" fill="rgb(0, 0, 0)" /><circle cx="518" cy="1244" r="28" fill="rgb(0, 0, 0)" /><polygon points="867,84 152,1475 426,285 775,45 1060,1324" fill="rgb(0, 0, 255)" /><polygon points="508,60 205,590 773,230 589,388 304,1476" fill="rgb(0, 0, 255)" /><rect x="481" y="1304" width="78" height="82" fill="rgb(0, 0, 0)" /><polygon points="423,1027 346,485 689,1164 994,1106 1031,1334" fill="rgb(255, 0, 0)" /><circle cx="958" cy="286" r="77" fill="rgb(255, 0, 0)" /><circle cx="319" cy="763" r="94" fill="rgb(0, 0, 255)" /><polygon points="352,646 595,1376 928,1268 652,1325 810,382" fill="rgb(0, 0, 0)" /><polygon points="292,17 258,1177 123,143 420,1213 1092,93 801,1022" fill="rgb(255, 255, 0)" /><rect x="19" y="1163" width="151" height="59" fill="rgb(0, 0, 255)" /><circle cx="24" cy="736" r="87" fill="rgb(0, 0, 255)" /><circle cx="349" cy="377" r="68" fill="rgb(0, 0, 255)" /><polygon points="339,128 427,377 249,622 4,1396" fill="rgb(0, 0, 255)" /><circle cx="138" cy="1426" r="65" fill="rgb(255, 0, 0)" /><rect x="744" y="912" width="58" height="117" fill="rgb(255, 255, 0)" /><rect x="758" y="1196" width="94" height="82" fill="rgb(0, 0, 0)" /><rect x="800" y="701" width="166" height="173" fill="rgb(0, 0, 255)" /><rect x="558" y="191" width="85" height="193" fill="rgb(0, 0, 0)" /><rect x="949" y="202" width="139" height="82" fill="rgb(0, 0, 0)" /><rect x="958" y="1360" width="159" height="95" fill="rgb(0, 0, 0)" /><circle cx="658" cy="471" r="37" fill="rgb(0, 0, 0)" /><polygon points="1090,1462 214,328 1051,590 116,432 345,1348 808,1278" fill="rgb(0, 0, 0)" /><polygon points="1012,1160 1030,80 291,1043 797,1189 246,1447" fill="rgb(0, 0, 255)" /><rect x="1029" y="992" width="141" height="109" fill="rgb(255, 255, 0)" /><rect x="900" y="119" width="66" height="175" fill="rgb(0, 0, 0)" /><polygon points="1020,263 671,224 1040,38 700,1081" fill="rgb(0, 0, 255)" /><circle cx="317" cy="868" r="26" fill="rgb(255, 255, 0)" /><circle cx="665" cy="716" r="36" fill="rgb(255, 0, 0)" /><circle cx="152" cy="525" r="72" fill="rgb(255, 255, 0)" /><circle cx="217" cy="1355" r="99" fill="rgb(255, 255, 0)" /><circle cx="86" cy="742" r="42" fill="rgb(0, 0, 255)" /><rect x="598" y="1034" width="161" height="63" fill="rgb(255, 0, 0)" /><rect x="563" y="47" width="157" height="98" fill="rgb(0, 0, 255)" /><circle cx="796" cy="90" r="52" fill="rgb(255, 0, 0)" /><polygon points="363,1195 895,1269 482,626 278,91 611,1273 947,1204" fill="rgb(255, 255, 0)" /><circle cx="618" cy="909" r="66" fill="rgb(0, 0, 0)" /><circle cx="30" cy="1154" r="78" fill="rgb(255, 0, 0)" /><circle cx="507" cy="337" r="71" fill="rgb(255, 255, 0)" /><polygon points="370,357 611,666 217,56 243,1356" fill="rgb(0, 0, 0)" /><rect x="764" y="437" width="139" height="185" fill="rgb(255, 0, 0)" /><circle cx="665" cy="666" r="71" fill="rgb(255, 0, 0)" /><circle cx="948" cy="1351" r="56" fill="rgb(0, 0, 0)" /><polygon points="360,910 506,359 1026,977" fill="rgb(0, 0, 0)" /><circle cx="526" cy="338" r="47" fill="rgb(0, 0, 255)" /><polygon points="24,763 711,725 644,274 336,270 1100,371 1092,870" fill="rgb(0, 0, 255)" /><circle cx="257" cy="261" r="62" fill="rgb(0, 0, 0)" /><rect x="575" y="557" width="144" height="107" fill="rgb(0, 0, 0)" /><circle cx="469" cy="1402" r="69" fill="rgb(255, 255, 0)" /><polygon points="910,252 108,880 812,1206 948,272 344,719" fill="rgb(255, 0, 0)" /><rect x="127" y="136" width="117" height="137" fill="rgb(0, 0, 0)" /><rect x="373" y="232" width="59" height="71" fill="rgb(255, 0, 0)" /><polygon points="541,983 1051,951 635,960 836,979 1066,1477 802,653" fill="rgb(0, 0, 255)" /><circle cx="275" cy="811" r="97" fill="rgb(255, 0, 0)" /><circle cx="781" cy="383" r="35" fill="rgb(0, 0, 255)" /><rect x="102" y="1230" width="172" height="101" fill="rgb(255, 0, 0)" /><rect x="1066" y="366" width="173" height="143" fill="rgb(0, 0, 255)" /><rect x="758" y="124" width="148" height="194" fill="rgb(0, 0, 255)" /><rect x="648" y="76" width="141" height="83" fill="rgb(0, 0, 0)" /><rect x="666" y="1129" width="139" height="167" fill="rgb(255, 255, 0)" /><polygon points="175,462 20,1275 781,364 66,933 31,462" fill="rgb(0, 0, 255)" /><polygon points="922,3 841,1331 525,532" fill="rgb(255, 255, 0)" /><polygon points="1061,1116 698,173 166,393 950,993" fill="rgb(0, 0, 0)" /><polygon points="100,1248 175,1284 689,614" fill="rgb(255, 0, 0)" /><polygon points="1028,110 64,933 264,1113 651,1252 681,1025" fill="rgb(255, 255, 0)" /><polygon points="401,578 526,233 947,591 547,1408 94,412" fill="rgb(255, 0, 0)" /><polygon points="748,1077 265,818 43,959" fill="rgb(255, 0, 0)" /><polygon points="945,1154 140,978 59,1323 545,415 102,439" fill="rgb(255, 0, 0)" /><rect x="438" y="553" width="131" height="142" fill="rgb(255, 255, 0)" /><polygon points="84,1051 490,833 84,1424" fill="rgb(0, 0, 255)" /><rect x="434" y="909" width="136" height="182" fill="rgb(0, 0, 255)" /><circle cx="1081" cy="1302" r="65" fill="rgb(255, 0, 0)" /><polygon points="1071,288 635,1279 894,217 878,1429 772,1241 679,1097" fill="rgb(255, 0, 0)" /><rect x="464" y="63" width="149" height="58" fill="rgb(0, 0, 0)" /><polygon points="56,1154 28,534 743,685" fill="rgb(255, 255, 0)" /><circle cx="65" cy="136" r="51" fill="rgb(0, 0, 0)" /><circle cx="895" cy="374" r="43" fill="rgb(255, 0, 0)" /><rect x="1027" y="203" width="198" height="180" fill="rgb(0, 0, 0)" /><polygon points="843,240 135,1062 326,1163 114,1310 373,1034" fill="rgb(0, 0, 255)" /><polygon points="1026,778 250,960 820,1456 1090,1448" fill="rgb(255, 0, 0)" /><rect x="578" y="1380" width="126" height="165" fill="rgb(0, 0, 0)" /><circle cx="13" cy="1219" r="63" fill="rgb(0, 0, 0)" /><circle cx="402" cy="250" r="38" fill="rgb(255, 255, 0)" /><circle cx="657" cy="843" r="98" fill="rgb(255, 255, 0)" /><rect x="320" y="1351" width="138" height="168" fill="rgb(0, 0, 0)" /><polygon points="176,2 1054,510 934,47 714,128 9,951" fill="rgb(0, 0, 255)" /><rect x="618" y="128" width="184" height="199" fill="rgb(0, 0, 0)" /><circle cx="1097" cy="5" r="85" fill="rgb(0, 0, 255)" /><polygon points="338,214 1054,1011 201,41 236,798" fill="rgb(0, 0, 0)" /><rect x="204" y="885" width="117" height="167" fill="rgb(255, 0, 0)" /><rect x="1008" y="469" width="151" height="78" fill="rgb(255, 0, 0)" /><rect x="15" y="607" width="50" height="55" fill="rgb(0, 0, 0)" /><rect x="648" y="856" width="58" height="145" fill="rgb(255, 255, 0)" /><circle cx="740" cy="703" r="88" fill="rgb(0, 0, 0)" /><polygon points="401,583 563,990 614,1093" fill="rgb(255, 255, 0)" /><polygon points="7,324 493,584 166,667 559,1438" fill="rgb(0, 0, 0)" /><circle cx="467" cy="414" r="38" fill="rgb(0, 0, 0)" /><rect x="252" y="1048" width="99" height="101" fill="rgb(255, 0, 0)" /></svg>