<svg xmlns="http://www.w3.org/2000/svg" width="1101" height="1500"><circle cx="386" cy="256" r="65" fill="rgb(0, 0, 0)" /><polygon points="921,622 177,1166 675,672 666,961 614,500 285,509" fill="rgb(255, 255, 0)" /><circle cx="1098" cy="1208" r="63" fill="rgb(255, 0, 0)" /><rect x="183" y="934" width="56" height="181" fill="rgb(255, 255, 0)" /><rect x="380" y="1258" width="143" height="106" fill="rgb(0, 0, 255)" /><polygon points="489,466 985,251 937,722" fill="rgb(0, 0, 0)" /><circle cx="692" cy="695" r="98" fill="rgb(0, 0, 255)" /><rect x="765" y="721" width="159" height="88" fill="rgb(0, 0, 0)" /><circle cx="148" cy="1455" r="86" fill="rgb(0, 0, 255)" /><rect x="899" y="740" width="178" height="105" fill="rgb(255, 0, 0)" /><circle cx="365" cy="428" r="60" fill="rgb(0, 0, 255)" /><circle cx="243" cy="1480" r="99" fill="rgb(255, 255, 0)" /><polygon points="174,944 953,1146 772,231 109,838" fill="rgb(255, 0, 0)" /><rect x="246" y="157" width="76" height="102" fill="rgb(0, 0, 255)" /><rect x="21" y="99" width="163" height="195" fill="rgb(255, 0, 0)" /><rect x="928" y="436" width="186" height="111" fill="rgb(255, 0, 0)" /><circle cx="246" cy="925" r="69" fill="rgb(0, 0, 255)" /><rect x="851" y="496" width="173" height="146" fill="rgb(0, 0, 0)" /><circle cx="709" cy="625" r="33" fill="rgb(0, 0, 255)" /><circle cx="1087" cy="446" r="54" fill="rgb(255, 0, 0)" /><rect x="425" y="1290" width="154" height="119" fill="rgb(0, 0, 0)" /><circle cx="57" cy="1373" r="26" fill="rgb(255, 0, 0)" /><circle cx="493" cy="1266" r="72" fill="rgb(0, 0, 255)" /><polygon points="598,821 162,254 385,9 417,1020 804,636" fill="rgb(255, 0, 0)" /><polygon points="818,323 676,762 495,987 4,864" fill="rgb(0, 0, 0)" /><rect x="189" y="536" width="82" height="185" fill="rgb(0, 0, 255)" /><rect x="781" y="169" width="51" height="190" fill="rgb(255, 0, 0)" /><polygon points="853,1184 839,465 950,1361" fill="rgb(255, 255, 0)" /><rect x="611" y="1356" width="184" height="171" fill="rgb(0, 0, 0)" /><rect x="132" y="595" width="137" height="184" fill="rgb(0, 0, 0)" /><circle cx="688" cy="556" r="74" fill="rgb(0, 0, 255)" /><polygon points="212,1447 726,8 715,922 650,1383 5,622 141,1289" fill="rgb(255, 0, 0)" /><polygon points="438,1426 1042,1409 868,157" fill="rgb(0, 0, 255)" /><polygon points="340,1396 32,1397 1024,1399 182,395 634,1036" fill="rgb(255, 0, 0)" /><polygon points="494,858 496,844 1042,998 682,1319 913,923" fill="rgb(255, 255, 0)" /><circle cx="616" cy="1276" r="20" fill="rgb(255, 255, 0)" /><rect x="193" y="472" width="155" height="145" fill="rgb(0, 0, 255)" /><rect x="6" y="1415" width="89" height="62" fill="rgb(0, 0, 0)" /><circle cx="286" cy="806" r="58" fill="rgb(255, 255, 0)" /><rect x="698" y="266" width="126" height="129" fill="rgb(255, 0, 0)" /><rect x="697" y="141" width="159" height="55" fill="rgb(255, 0, 0)" /><circle cx="723" cy="821" r="49" fill="rgb(0, 0, 255)" /><rect x="123" y="885" width="87" height="196" fill="rgb(255, 0, 0)" /><polygon points="584,864 683,1473 756,787" fill="rgb(255, 0, 0)" /><circle cx="743" cy="1047" r="63" fill="rgb(255, 255, 0)" /><rect x="241" y="1398" width="156" height="119" fill="rgb(0, 0, 255)" /><rect x="969" y="767" width="68" height="94" fill="rgb(255, 0, 0)" /><rect x="958" y="1315" width="140" height="101" fill="rgb(0, 0, 0)" /><rect x="1079" y="43" width="151" height="111" fill="rgb(255, 0, 0)" /><polygon points="1096,523 586,216 419,581" fill="rgb(0, 0, 0)" /><rect x="504" y="595" width="187" height="176" fill="rgb(0, 0, 0)" /><circle cx="479" cy="526" r="37" fill="rgb(0, 0, 0)" /><polygon points="309,115 1045,1051 418,1430 907,51" fill="rgb(0, 0, 0)" /><polygon points="359,863 985,415 1055,129 921,921" fill="rgb(0, 0, 0)" /><polygon points="594,9 20,715 136,1181 337,602 968,209" fill="rgb(255, 255, 0)" /><circle cx="200" cy="905" r="87" fill="rgb(255, 255, 0)" /><rect x="97" y="65" width="176" height="183" fill="rgb(255, 0, 0)" /><rect x="137" y="593" width="70" height="149" fill="rgb(0, 0, 255)" /><rect x="156" y="456" width="119" height="117" fill="rgb(0, 0, 0)" /><polygon points="724,858 358,192 521,1424 834,1004 313,1172" fill="rgb(255, 0, 0)" /><circle cx="214" cy="570" r="25" fill="rgb(255, 0, 0)" /><circle cx="1" cy="497" r="69" fill="rgb(255, 255, 0)" /><polygon points="940,1410 579,1176 525,575 375,974 413,689" fill="rgb(0, 0, 255)" /><polygon points="135,303 60,1365 1004,319 444,12 1010,732 307,140" fill="rgb(0, 0, 0)" /><circle cx="983" cy="1117" r="28" fill="rgb(255, 255, 0)" /><polygon points="958,180 589,1346 629,964 902,86 233,1091 847,90" fill="rgb(0, 0, 0)" /><circle cx="736" cy="447" r="30" fill="rgb(0, 0, 0)" /><rect x="718" y="1149" width="84" height="195" fill="rgb(255, 0, 0)" /><rect x="785" y="1465" width="167" height="130" fill="rgb(255, 0, 0)" /><circle cx="341" cy="807" r="81" fill="rgb(0, 0, 0)" /><polygon points="775,704 514,1434 741,395 1073,730" fill="rgb(0, 0, 0)" /><polygon points="203,1298 1080,1337 844,562 451,601" fill="rgb(255, 0, 0)" /><polygon points="727,259 1083,109 128,0 611,1276 923,164" fill="rgb(0, 0, 0)" /><rect x="1093" y="763" width="61" height="124" fill="rgb(0, 0, 0)" /><circle cx="962" cy="836" r="93" fill="rgb(255, 0, 0)" /><polygon points="166,831 25,899 261,717 882,1245" fill="rgb(255, 0, 0)" /><circle cx="269" cy="728" r="55" fill="rgb(0, 0, 0)" /><rect x="199" y="1061" width="130" height="141" fill="rgb(255, 0, 0)" /><circle cx="9" cy="1456" r="21" fill="rgb(255, 255, 0)" /><circle cx="755" cy="105" r="40" fill="rgb(0, 0, 0)" /><polygon points="137,819 113,410 1037,169 494,1161 573,361 345,653" fill="rgb(0, 0, 255)" /><rect x="243" y="701" width="52" height="138" fill="rgb(0, 0, 0)" /><circle cx="530" cy="902" r="61" fill="rgb(0, 0, 0)" /><circle cx="822" cy="5" r="49" fill="rgb(255, 0, 0)" /><polygon points="306,1484 881,592 215,663 69,1396" fill="rgb(0, 0, 0)" /><polygon points="155,1479 590,256 168,688 500,210" fill="rgb(255, 0, 0)" /><polygon points="573,1255 51,584 1085,950" fill="rgb(255, 255, 0)" /><circle cx="541" cy="1022" r="53" fill="rgb(0, 0, 255)" /><rect x="527" y="1040" width="55" height="194" fill="rgb(0, 0, 0)" /><polygon points="423,608 970,1240 819,1142" fill="rgb(255, 0, 0)" /><circle cx="875" cy="1367" r="94" fill="rgb(255, 255, 0)" /><polygon points="1064,1258 768,125 951,994 917,785 259,321" fill="rgb(0, 0, 255)" /><polygon points="180,1432 393,1289 400,402" fill="rgb(255, 255, 0)" /><polygon points="414,404 291,337 814,1295 375,663 400,1031 485,1466" fill="rgb(255, 0, 0)" /><rect x="371" y="397" width="79" height="192" fill="rgb(255, 0, 0)" /><circle cx="28" cy="1260" r="87" fill="rgb(255, 255, 0)" /><rect x="1026" y="25" width="163" height="81" fill="rgb(255, 255, 0)" /><polygon points="818,842 880,682 501,1371 970,789" fill="rgb(255, 0, 0)" /><circle cx="224" cy="446" r="78" fill="rgb(255, 255, 0)" /><rect x="1034" y="1411" width="126" height="160" fill="rgb(0, 0, 255)" /><polygon points="663,254 1046,1048 183,594" fill="rgb(255, 255, 0)" /><polygon points="490,1320 532,626 160,1049 419,1294 504,1326 875,1004" fill="rgb(255, 0, 0)" /><circle cx="733" cy="664" r="80" fill="rgb(255, 255, 0)" /><rect x="297" y="410" width="161" height="95" fill="rgb(0, 0, 0)" /><rect x="619" y="486" width="80" height="74" fill="rgb(0, 0, 255)" /><circle cx="216" cy="1418" r="61" fill="rgb(0, 0, 0)" /><rect x="751" y="1256" width="166" height="173" fill="rgb(0, 0, 0)" /><polygon points="1025,346 151,461 259,820" fill="rgb(255, 0, 0)" /><polygon points="484,492 795,786 451,633" fill="rgb(0, 0, 255)" /><circle cx="340" cy="909" r="58" fill="rgb(255, 255, 0)" /><circle cx="202" cy="596" r="94" fill="rgb(0, 0, 0)" /><polygon points="1047,459 178,1413 1025,1252 232,170" fill="rgb(255, 255, 0)" /><circle cx="725" cy="248" r="50" fill="rgb(0, 0, 255)" /><circle cx="237" cy="27" r="59" fill="rgb(255, 0, 0)" /><polygon points="301,228 1025,173 165,1306" fill="rgb(0, 0, 0)" /><circle cx="989" cy="1157" r="51" fill="rgb(0, 0, 0)" /><rect x="643" y="1147" width="104" height="172" fill="rgb(255, 255, 0)" /><polygon points="52,138 516,947 712,589 595,329 367,1289 440,1224" fill="rgb(0, 0, 255)" /><circle cx="851" cy="526" r="45" fill="rgb(0, 0, 0)" /><rect x="447" y="416" width="197" height="119" fill="rgb(255, 255, 0)" /><polygon points="780,1011 724,960 882,823 612,1335" fill="rgb(0, 0, 255)" /><circle cx="540" cy="838" r="34" fill="rgb(0, 0, 0)" /><polygon points="557,1458 519,332 421,20 736,753 711,1407" fill="rgb(255, 255, 0)" /><polygon points="261,432 910,584 470,1130 815,1461 121,773" fill="rgb(255, 255, 0)" /><polygon points="775,956 893,1388 798,1021" fill="rgb(0, 0, 255)" /><polygon points="853,990 32,1479 114,405 954,856 780,2" fill="rgb(0, 0, 0)" /><rect x="527" y="1040" width="107" height="84" fill="rgb(0, 0, 255)" /><polygon points="670,881 213,2 247,274 741,878 938,1094 985,3" fill="rgb(255, 0, 0)" /><circle cx="277" cy="968" r="52" fill="rgb(0, 0, 0)" /><circle cx="114" cy="305" r="51" fill="rgb(0, 0, 255)" /><rect x="654" y="717" width="108" height="160" fill="rgb(0, 0, 255)" /><polygon points="970,12 12,267 11,410 467,266" fill="rgb(255, 0, 0)" /><circle cx="945" cy="1004" r="35" fill="rgb(0, 0, 0)" /><circle cx="1066" cy="257" r="50" fill="rgb(0, 0, 255)" /><polygon points="409,755 388,839 530,91 973,1316 842,601 815,447" fill="rgb(0, 0, 0)" /><polygon points="907,1441 940,450 848,994 1040,832 614,1354 752,1304" fill="rgb(0, 0, 255)" /><rect x="191" y="373" width="79" height="80" fill="rgb(0, 0, 0)" /><circle cx="232" cy="1011" r="76" fill="rgb(0, 0, 0)" /><polygon points="177,607 785,316 351,569" fill="rgb(0, 0, 0)" /><circle cx="352" cy="1313" r="28" fill="rgb(255, 0, 0)" /><polygon points="698,1340 965,1045 312,1116 223,462 636,1410" fill="rgb(255, 255, 0)" /><polygon points="69,726 838,1172 189,329 440,1421 1064,203 114,959" fill="rgb(255, 0, 0)" /><polygon points="434,1293 471,442 810,115" fill="rgb(0, 0, 0)" /><circle cx="1056" cy="211" r="43" fill="rgb(0, 0, 255)" /><circle cx="637" cy="147" r="92" fill="rgb(0, 0, 255)" /><polygon points="24,979 703,7 404,825 423,1407 180,941" fill="rgb(255, 255, 0)" /><polygon points="960,237 142,1410 193,365 923,123 622,499 355,761" fill="rgb(255, 0, 0)" /><polygon points="379,530 1018,1451 259,1209 408,1042" fill="rgb(0, 0, 255)" /><rect x="98" y="645" width="168" height="183" fill="rgb(255, 0, 0)" /><circle cx="115" cy="570" r="50" fill="rgb(0, 0, 255)" /><circle cx="373" cy="1281" r="92" fill="rgb(255, 0, 0)" /><circle cx="948" cy="1142" r="24" fill="rgb(255, 255, 0)" /><polygon points="750,295 835,1239 403,1236 343,527 606,647" fill="rgb(255, 255, 0)" /><circle cx="1085" cy="958" r="21" fill="rgb(255, 255, 0)" /><rect x="804" y="267" width="134" height="151" fill="rgb(255, 255, 0)" /><rect x="764" y="1493" width="194" height="103" fill="rgb(255, 255, 0)" /><rect x="997" y="1052" width="111" height="82" fill="rgb(255, 0, 0)" /><circle cx="1074" cy="634" r="38" fill="rgb(255, 0, 0)" /><circle cx="274" cy="848" r="63" fill="rgb(0, 0, 255)" /><rect x="335" y="685" width="133" height="111" fill="rgb(255, 255, 0)" /><polygon points="652,196 591,1201 858,203 98,617 859,100" fill="rgb(0, 0, 0)" /><circle cx="772" cy="800" r="95" fill="rgb(255, 255, 0)" /><polygon points="731,590 976,581 57,67" fill="rgb(0, 0, 255)" /><rect x="838" y="1007" width="57" height="117" fill="rgb(0, 0, 0)" /><polygon points="102,782 1069,1095 737,405" fill="rgb(0, 0, 255)" /><rect x="256" y="905" width="90" height="189" fill="rgb(255, 0, 0)" /><circle cx="69" cy="151" r="51" fill="rgb(255, 255, 0)" /><rect x="486" y="127" width="192" height="157" fill="rgb(255, 255, 0)" /><polygon points="444,92 731,1071 404,479 673,172" fill="rgb(0, 0, 255)" /><polygon points="742,995 611,864 1073,644 756,287 305,1041 696,1280" fill="rgb(255, 255, 0)" /><rect x="984" y="820" width="145" height="110" fill="rgb(0, 0, 255)" /><polygon points="49,582 976,935 428,1033 754,95 575,62 607,1474" fill="rgb(255, 0, 0)" /><rect x="711" y="556" width="89" height="82" fill="rgb(0, 0, 0)" /><circle cx="975" cy="125" r="47" fill="rgb(255, 255, 0)" /><rect x="307" y="836" width="92" height="108" fill="rgb(0, 0, 0)" /><circle cx="495" cy="730" r="94" fill="rgb(0, 0, 0)" /><circle cx="244" cy="1038" r="60" fill="rgb(255, 255, 0)" /><polygon points="129,716 573,1045 335,493" fill="rgb(0, 0, 255)" /><polygon points="726,1224 204,1192 603,868" fill="rgb(255, 0, 0)" /><polygon points="545,386 420,813 370,945 762,842 171,89 998,768" fill="rgb(0, 0, 255)" /><circle cx="102" cy="1208" r="62" fill="rgb(255, 0, 0)" /><rect x="946" y="1030" width="63" height="147" fill="rgb(255, 0, 0)" /><circle cx="1059" cy="1052" r="36" fill="rgb(0, 0, 0)" /><circle cx="252" cy="445" r="78" fill="rgb(255, 255, 0)" /></svg>