<svg xmlns="http://www.w3.org/2000/svg" width="1101" height="1500"><rect x="64" y="1492" width="111" height="67" fill="rgb(0, 0, 0)" /><circle cx="781" cy="494" r="22" fill="rgb(0, 0, 255)" /><rect x="453" y="379" width="74" height="142" fill="rgb(0, 0, 255)" /><circle cx="500" cy="172" r="85" fill="rgb(0, 0, 255)" /><rect x="331" y="1448" width="185" height="121" fill="rgb(0, 0, 255)" /><rect x="89" y="405" width="163" height="124" fill="rgb(255, 0, 0)" /><circle cx="1" cy="433" r="21" fill="rgb(0, 0, 0)" /><circle cx="648" cy="442" r="72" fill="rgb(255, 0, 0)" /><circle cx="2" cy="110" r="94" fill="rgb(255, 0, 0)" /><rect x="228" y="1398" width="160" height="88" fill="rgb(0, 0, 255)" /><circle cx="739" cy="810" r="47" fill="rgb(0, 0, 0)" /><circle cx="1028" cy="805" r="36" fill="rgb(255, 255, 0)" /><rect x="411" y="23" width="67" height="79" fill="rgb(0, 0, 255)" /><rect x="941" y="493" width="159" height="110" fill="rgb(255, 255, 0)" /><circle cx="1063" cy="319" r="73" fill="rgb(0, 0, 255)" /><polygon points="135,590 620,608 166,136 929,33 999,75" fill="rgb(0, 0, 0)" /><circle cx="784" cy="1171" r="26" fill="rgb(255, 0, 0)" /><circle cx="76" cy="1357" r="44" fill="rgb(0, 0, 0)" /><circle cx="432" cy="101" r="28" fill="rgb(0, 0, 0)" /><polygon points="1085,1490 763,959 81,1363 387,1043 867,1480" fill="rgb(0, 0, 0)" /><polygon points="622,1198 230,1471 537,121" fill="rgb(0, 0, 0)" /><circle cx="133" cy="693" r="77" fill="rgb(255, 255, 0)" /><rect x="260" y="185" width="57" height="183" fill="rgb(0, 0, 255)" /><polygon points="504,288 241,228 366,548 231,1045 157,1470" fill="rgb(255, 0, 0)" /><polygon points="490,1383 273,349 1075,1392 978,1488" fill="rgb(255, 255, 0)" /><rect x="174" y="28" width="131" height="180" fill="rgb(0, 0, 255)" /><circle cx="697" cy="51" r="55" fill="rgb(255, 0, 0)" /><polygon points="1033,1092 1091,479 864,141 636,512 933,245 343,77" fill="rgb(0, 0, 255)" /><circle cx="371" cy="701" r="99" fill="rgb(0, 0, 0)" /><rect x="922" y="1419" width="62" height="50" fill="rgb(0, 0, 0)" /><rect x="823" y="1170" width="187" height="93" fill="rgb(0, 0, 255)" /><polygon points="144,622 137,1129 62,879 842,512" fill="rgb(0, 0, 255)" /><circle cx="470" cy="290" r="85" fill="rgb(255, 255, 0)" /><circle cx="491" cy="685" r="81" fill="rgb(255, 0, 0)" /><circle cx="906" cy="725" r="84" fill="rgb(255, 0, 0)" /><circle cx="546" cy="1220" r="57" fill="rgb(0, 0, 255)" /><rect x="6" y="347" width="107" height="120" fill="rgb(0, 0, 255)" /><polygon points="699,242 813,416 913,1106 267,1066 429,58" fill="rgb(255, 255, 0)" /><rect x="1049" y="1027" width="166" height="52" fill="rgb(255, 0, 0)" /><circle cx="971" cy="1467" r="27" fill="rgb(0, 0, 255)" /><rect x="859" y="1281" width="171" height="181" fill="rgb(0, 0, 0)" /><circle cx="747" cy="320" r="69" fill="rgb(255, 255, 0)" /><circle cx="473" cy="873" r="27" fill="rgb(0, 0, 0)" /><rect x="601" y="1058" width="154" height="130" fill="rgb(255, 0, 0)" /><polygon points="271,1266 1009,465 897,669 506,809 188,1217" fill="rgb(0, 0, 255)" /><circle cx="991" cy="680" r="41" fill="rgb(255, 0, 0)" /><polygon points="64,398 813,808 39,290 150,749" fill="rgb(255, 0, 0)" /><polygon points="233,1012 373,624 100,193" fill="rgb(0, 0, 0)" /><polygon points="629,282 1086,1346 48,608 832,54 337,302 74,741" fill="rgb(0, 0, 255)" /><rect x="17" y="801" width="144" height="75" fill="rgb(255, 255, 0)" /><circle cx="318" cy="171" r="67" fill="rgb(255, 255, 0)" /><rect x="712" y="1240" width="107" height="56" fill="rgb(255, 255, 0)" /><polygon points="937,249 496,306 818,351 475,451 666,319" fill="rgb(255, 255, 0)" /><polygon points="667,239 136,1063 851,537 499,418 531,488 142,194" fill="rgb(255, 0, 0)" /><rect x="336" y="17" width="84" height="95" fill="rgb(255, 255, 0)" /><circle cx="514" cy="1269" r="99" fill="rgb(255, 0, 0)" /><rect x="712" y="1383" width="136" height="198" fill="rgb(255, 0, 0)" /><rect x="140" y="616" width="113" height="164" fill="rgb(255, 0, 0)" /><circle cx="600" cy="1073" r="56" fill="rgb(0, 0, 0)" /><rect x="907" y="124" width="177" height="66" fill="rgb(255, 0, 0)" /><polygon points="369,26 480,1390 403,619 235,1464 864,1160 608,1180" fill="rgb(255, 255, 0)" /><circle cx="881" cy="1428" r="63" fill="rgb(0, 0, 255)" /><polygon points="510,807 856,1356 901,1345" fill="rgb(0, 0, 255)" /><circle cx="206" cy="1315" r="88" fill="rgb(255, 255, 0)" /><circle cx="1083" cy="328" r="40" fill="rgb(255, 255, 0)" /><circle cx="684" cy="58" r="49" fill="rgb(255, 0, 0)" /><polygon points="1022,861 580,434 555,429" fill="rgb(255, 0, 0)" /><circle cx="347" cy="170" r="97" fill="rgb(0, 0, 255)" /><polygon points="317,201 121,1394 12,738 387,932 320,949 743,698" fill="rgb(255, 255, 0)" /><rect x="623" y="1150" width="175" height="88" fill="rgb(255, 255, 0)" /><circle cx="661" cy="814" r="60" fill="rgb(255, 0, 0)" /><circle cx="73" cy="1360" r="66" fill="rgb(255, 0, 0)" /><polygon points="213,800 299,1433 805,300" fill="rgb(255, 0, 0)" /><polygon points="97,1237 751,521 617,1040" fill="rgb(0, 0, 0)" /><polygon points="359,229 129,372 291,696" fill="rgb(255, 255, 0)" /><polygon points="985,1268 277,905 403,983 340,1278 818,1368" fill="rgb(255, 0, 0)" /><rect x="709" y="1044" width="107" height="151" fill="rgb(0, 0, 255)" /><rect x="111" y="607" width="57" height="166" fill="rgb(255, 0, 0)" /><rect x="781" y="630" width="106" height="77" fill="rgb(0, 0, 255)" /><polygon points="125,267 147,35 650,19" fill="rgb(0, 0, 255)" /><rect x="402" y="864" width="152" height="121" fill="rgb(0, 0, 0)" /><rect x="1089" y="1345" width="55" height="168" fill="rgb(0, 0, 255)" /><circle cx="197" cy="1479" r="46" fill="rgb(255, 255, 0)" /><circle cx="1087" cy="1399" r="49" fill="rgb(255, 255, 0)" /></svg>