<svg xmlns="http://www.w3.org/2000/svg" width="1101" height="1500"><circle cx="547" cy="1374" r="97" fill="rgb(0, 0, 255)" /><polygon points="719,1026 995,487 754,1002" fill="rgb(0, 0, 255)" /><rect x="850" y="112" width="96" height="191" fill="rgb(0, 0, 0)" /><circle cx="323" cy="677" r="52" fill="rgb(255, 0, 0)" /><rect x="37" y="877" width="112" height="61" fill="rgb(255, 0, 0)" /><circle cx="411" cy="591" r="20" fill="rgb(0, 0, 0)" /><circle cx="293" cy="1083" r="54" fill="rgb(0, 0, 0)" /><circle cx="951" cy="1275" r="40" fill="rgb(0, 0, 255)" /><rect x="915" y="1494" width="152" height="132" fill="rgb(0, 0, 0)" /><rect x="592" y="1426" width="71" height="124" fill="rgb(0, 0, 0)" /><rect x="536" y="884" width="80" height="117" fill="rgb(0, 0, 255)" /><circle cx="210" cy="781" r="83" fill="rgb(255, 0, 0)" /><polygon points="118,297 640,33 962,610" fill="rgb(0, 0, 255)" /><polygon points="90,51 1054,771 293,999 128,815 819,34 838,55" fill="rgb(255, 255, 0)" /><rect x="49" y="464" width="51" height="156" fill="rgb(255, 0, 0)" /><polygon points="763,430 1089,429 950,847 132,819" fill="rgb(0, 0, 255)" /><polygon points="638,233 49,113 251,1080" fill="rgb(255, 0, 0)" /><polygon points="680,1343 155,260 647,1422 251,1403" fill="rgb(255, 255, 0)" /><circle cx="512" cy="202" r="46" fill="rgb(0, 0, 255)" /><rect x="322" y="1041" width="169" height="134" fill="rgb(255, 255, 0)" /><polygon points="917,741 937,824 870,180" fill="rgb(255, 0, 0)" /><circle cx="670" cy="565" r="54" fill="rgb(255, 255, 0)" /><circle cx="494" cy="218" r="75" fill="rgb(255, 255, 0)" /><polygon points="567,199 91,133 820,1261" fill="rgb(0, 0, 255)" /><rect x="423" y="978" width="114" height="54" fill="rgb(0, 0, 0)" /><polygon points="513,1249 696,1308 51,1241 643,963 1026,941 565,626" fill="rgb(255, 255, 0)" /><circle cx="299" cy="136" r="75" fill="rgb(255, 255, 0)" /><rect x="1018" y="50" width="90" height="116" fill="rgb(0, 0, 255)" /><rect x="1074" y="404" width="110" height="196" fill="rgb(0, 0, 0)" /><rect x="87" y="489" width="173" height="67" fill="rgb(255, 255, 0)" /><polygon points="587,55 290,27 975,960" fill="rgb(255, 255, 0)" /><rect x="188" y="930" width="185" height="109" fill="rgb(0, 0, 0)" /></svg>