<svg xmlns="http://www.w3.org/2000/svg" width="1101" height="1500"><rect x="600" y="1304" width="53" height="154" fill="rgb(255, 255, 0)" /><rect x="608" y="1477" width="64" height="100" fill="rgb(0, 0, 0)" /><rect x="802" y="1486" width="68" height="76" fill="rgb(255, 0, 0)" /><rect x="118" y="1439" width="80" height="56" fill="rgb(255, 255, 0)" /><polygon points="850,586 948,1180 150,548 93,6 722,1049" fill="rgb(255, 255, 0)" /><rect x="1036" y="359" width="53" height="107" fill="rgb(0, 0, 0)" /><circle cx="414" cy="986" r="73" fill="rgb(255, 255, 0)" /><circle cx="179" cy="215" r="87" fill="rgb(0, 0, 0)" /><circle cx="263" cy="465" r="76" fill="rgb(0, 0, 0)" /><polygon points="431,25 226,1339 86,1194" fill="rgb(0, 0, 0)" /><polygon points="249,275 782,516 579,792 254,1105 391,499" fill="rgb(255, 255, 0)" /><rect x="266" y="1026" width="106" height="96" fill="rgb(0, 0, 0)" /><rect x="386" y="148" width="169" height="67" fill="rgb(0, 0, 255)" /><polygon points="24,529 7,247 938,570 424,966" fill="rgb(0, 0, 0)" /><circle cx="676" cy="398" r="38" fill="rgb(255, 0, 0)" /><polygon points="437,778 477,1412 581,372 642,1016 538,970 248,33" fill="rgb(255, 0, 0)" /><circle cx="746" cy="1388" r="78" fill="rgb(0, 0, 255)" /><circle cx="413" cy="1336" r="72" fill="rgb(0, 0, 255)" /><circle cx="1097" cy="1218" r="31" fill="rgb(0, 0, 255)" /><rect x="1077" y="634" width="81" height="53" fill="rgb(0, 0, 255)" /><rect x="473" y="1389" width="61" height="120" fill="rgb(0, 0, 255)" /><rect x="111" y="582" width="69" height="179" fill="rgb(255, 255, 0)" /><rect x="28" y="155" width="173" height="53" fill="rgb(0, 0, 255)" /><circle cx="921" cy="828" r="36" fill="rgb(0, 0, 0)" /><polygon points="707,1142 850,198 696,877" fill="rgb(0, 0, 255)" /><rect x="6" y="1324" width="79" height="112" fill="rgb(255, 0, 0)" /><rect x="536" y="1326" width="141" height="173" fill="rgb(0, 0, 0)" /><polygon points="321,1438 279,134 411,938 231,1306 333,445" fill="rgb(0, 0, 255)" /><polygon points="705,1289 590,568 213,763" fill="rgb(255, 255, 0)" /><polygon points="542,1310 18,100 781,1055" fill="rgb(0, 0, 255)" /><rect x="821" y="678" width="140" height="79" fill="rgb(255, 255, 0)" /><polygon points="609,248 624,15 763,493 829,1009 829,655 604,365" fill="rgb(255, 255, 0)" /><polygon points="847,309 868,89 358,288 58,703 805,1197 19,177" fill="rgb(255, 255, 0)" /><circle cx="628" cy="89" r="22" fill="rgb(0, 0, 0)" /><polygon points="776,686 179,1166 1029,1167" fill="rgb(255, 255, 0)" /><rect x="458" y="68" width="62" height="127" fill="rgb(0, 0, 0)" /><polygon points="562,54 669,1104 1052,613 675,19 267,1246" fill="rgb(0, 0, 255)" /><circle cx="565" cy="981" r="65" fill="rgb(0, 0, 255)" /><polygon points="964,1322 867,1349 612,966 916,578 112,660" fill="rgb(255, 0, 0)" /><rect x="509" y="375" width="99" height="112" fill="rgb(255, 255, 0)" /><rect x="382" y="183" width="197" height="173" fill="rgb(0, 0, 255)" /><circle cx="3" cy="1294" r="24" fill="rgb(255, 255, 0)" /><circle cx="688" cy="737" r="53" fill="rgb(255, 0, 0)" /><polygon points="365,1277 391,534 1010,1304 801,618" fill="rgb(255, 255, 0)" /><polygon points="614,399 182,673 55,1398" fill="rgb(0, 0, 255)" /><polygon points="449,1142 1021,1052 567,1329" fill="rgb(0, 0, 0)" /><circle cx="564" cy="1071" r="64" fill="rgb(0, 0, 255)" /><polygon points="316,1155 1034,54 380,1497" fill="rgb(255, 0, 0)" /><polygon points="933,1479 653,103 217,1046 931,517" fill="rgb(255, 0, 0)" /><rect x="85" y="522" width="157" height="82" fill="rgb(0, 0, 0)" /><polygon points="375,338 608,1394 679,1165 843,450" fill="rgb(0, 0, 0)" /><circle cx="1055" cy="632" r="70" fill="rgb(255, 0, 0)" /><rect x="444" y="347" width="78" height="159" fill="rgb(0, 0, 255)" /><circle cx="831" cy="79" r="89" fill="rgb(0, 0, 255)" /><rect x="218" y="1356" width="53" height="166" fill="rgb(255, 0, 0)" /><circle cx="559" cy="1439" r="93" fill="rgb(255, 0, 0)" /><polygon points="781,937 120,91 792,330 720,522 489,614 663,531" fill="rgb(0, 0, 255)" /><rect x="326" y="629" width="163" height="162" fill="rgb(0, 0, 255)" /><circle cx="527" cy="1365" r="47" fill="rgb(0, 0, 255)" /><circle cx="661" cy="1052" r="50" fill="rgb(0, 0, 255)" /><polygon points="379,155 533,653 442,1259 457,159" fill="rgb(255, 0, 0)" /><polygon points="75,86 1015,1097 651,1194 320,219 1056,327" fill="rgb(0, 0, 255)" /><polygon points="1024,1430 340,1216 174,1004 396,534 832,749" fill="rgb(255, 255, 0)" /><circle cx="73" cy="473" r="82" fill="rgb(0, 0, 255)" /><circle cx="998" cy="1331" r="85" fill="rgb(0, 0, 255)" /><rect x="101" y="581" width="192" height="143" fill="rgb(0, 0, 0)" /><polygon points="96,265 65,866 581,850 626,832 758,355" fill="rgb(255, 0, 0)" /><rect x="606" y="1140" width="151" height="69" fill="rgb(0, 0, 0)" /><polygon points="38,1092 1096,373 953,724 555,433" fill="rgb(255, 0, 0)" /><rect x="727" y="1430" width="139" height="84" fill="rgb(0, 0, 0)" /><polygon points="662,239 168,800 188,434 96,1020" fill="rgb(0, 0, 0)" /><polygon points="1050,298 738,421 278,1226" fill="rgb(0, 0, 255)" /><polygon points="662,504 210,1230 622,38" fill="rgb(255, 255, 0)" /><rect x="618" y="845" width="159" height="149" fill="rgb(0, 0, 255)" /><polygon points="731,1177 971,1339 942,670 60,535" fill="rgb(255, 0, 0)" /><polygon points="1051,987 202,794 887,17 511,642 5,910 62,1438" fill="rgb(255, 0, 0)" /><circle cx="169" cy="1062" r="62" fill="rgb(255, 255, 0)" /><circle cx="35" cy="341" r="93" fill="rgb(255, 255, 0)" /><polygon points="318,1164 626,1429 1018,728 934,52 262,1006 127,1291" fill="rgb(255, 0, 0)" /><circle cx="791" cy="25" r="95" fill="rgb(0, 0, 255)" /><circle cx="177" cy="524" r="61" fill="rgb(255, 0, 0)" /><polygon points="1059,596 1091,817 317,766 230,893 148,1374 515,94" fill="rgb(255, 255, 0)" /><circle cx="529" cy="150" r="24" fill="rgb(0, 0, 255)" /><circle cx="153" cy="514" r="82" fill="rgb(0, 0, 0)" /><rect x="448" y="1033" width="142" height="128" fill="rgb(255, 0, 0)" /><polygon points="586,545 473,376 695,729" fill="rgb(0, 0, 0)" /><circle cx="495" cy="171" r="43" fill="rgb(0, 0, 0)" /><polygon points="179,563 344,1043 160,1219" fill="rgb(0, 0, 255)" /><circle cx="427" cy="555" r="63" fill="rgb(255, 0, 0)" /><rect x="530" y="201" width="143" height="178" fill="rgb(0, 0, 0)" /><circle cx="422" cy="1124" r="94" fill="rgb(255, 255, 0)" /><circle cx="351" cy="177" r="91" fill="rgb(0, 0, 0)" /><polygon points="796,1000 697,472 18,415 280,1035" fill="rgb(255, 255, 0)" /><rect x="749" y="1267" width="94" height="134" fill="rgb(0, 0, 0)" /><circle cx="370" cy="1224" r="30" fill="rgb(0, 0, 0)" /><circle cx="975" cy="1430" r="94" fill="rgb(255, 255, 0)" /><polygon points="1043,861 810,723 877,989 586,1081" fill="rgb(0, 0, 255)" /><rect x="666" y="1371" width="85" height="59" fill="rgb(255, 255, 0)" /><polygon points="259,383 973,551 450,1347 238,1426" fill="rgb(0, 0, 0)" /><polygon points="492,448 960,197 1034,666 260,1041" fill="rgb(0, 0, 255)" /><polygon points="586,1253 878,820 797,1017 1047,425" fill="rgb(255, 255, 0)" /><polygon points="226,214 494,222 802,1392 609,1174 812,476 443,1464" fill="rgb(0, 0, 255)" /><rect x="459" y="339" width="93" height="159" fill="rgb(0, 0, 0)" /><polygon points="456,770 468,533 900,1001" fill="rgb(255, 255, 0)" /><rect x="112" y="835" width="143" height="133" fill="rgb(0, 0, 255)" /><rect x="435" y="305" width="58" height="150" fill="rgb(255, 255, 0)" /><rect x="340" y="718" width="94" height="67" fill="rgb(255, 0, 0)" /><rect x="637" y="1480" width="69" height="164" fill="rgb(0, 0, 255)" /><polygon points="347,1450 764,306 203,67 991,1236 9,1123" fill="rgb(0, 0, 255)" /><circle cx="1051" cy="298" r="29" fill="rgb(255, 255, 0)" /><rect x="69" y="403" width="162" height="58" fill="rgb(0, 0, 0)" /><polygon points="1024,1494 1068,1006 278,1020" fill="rgb(255, 255, 0)" /><polygon points="1096,585 910,872 1033,1456" fill="rgb(0, 0, 255)" /><rect x="583" y="593" width="167" height="51" fill="rgb(0, 0, 0)" /><circle cx="84" cy="647" r="74" fill="rgb(255, 255, 0)" /><rect x="675" y="1001" width="105" height="62" fill="rgb(255, 255, 0)" /><rect x="146" y="214" width="150" height="132" fill="rgb(0, 0, 255)" /><circle cx="992" cy="405" r="58" fill="rgb(0, 0, 255)" /><rect x="1010" y="798" width="70" height="187" fill="rgb(255, 0, 0)" /><circle cx="1028" cy="520" r="97" fill="rgb(255, 0, 0)" /><circle cx="820" cy="1432" r="97" fill="rgb(0, 0, 255)" /><polygon points="658,1499 449,8 225,368" fill="rgb(255, 255, 0)" /><circle cx="84" cy="269" r="60" fill="rgb(255, 255, 0)" /><polygon points="789,1049 339,355 533,638" fill="rgb(0, 0, 255)" /><polygon points="641,967 730,436 902,1174 31,1020" fill="rgb(255, 255, 0)" /><circle cx="898" cy="16" r="60" fill="rgb(255, 0, 0)" /><rect x="1072" y="328" width="179" height="59" fill="rgb(255, 255, 0)" /><polygon points="309,413 648,515 196,689 1062,1333 186,1116" fill="rgb(255, 0, 0)" /><circle cx="995" cy="874" r="43" fill="rgb(255, 0, 0)" /><circle cx="821" cy="513" r="54" fill="rgb(255, 255, 0)" /></svg>