<svg xmlns="http://www.w3.org/2000/svg" width="1101" height="1500"><polygon points="649,1492 660,879 466,1203 108,1122 569,307 1019,202" fill="rgb(0, 0, 0)" /><polygon points="868,964 553,1400 967,722 934,1183" fill="rgb(0, 0, 0)" /><circle cx="139" cy="666" r="88" fill="rgb(255, 0, 0)" /><rect x="844" y="549" width="75" height="179" fill="rgb(0, 0, 0)" /><circle cx="215" cy="575" r="55" fill="rgb(255, 0, 0)" /><polygon points="582,1346 1018,837 363,1074 19,1369 700,425 954,168" fill="rgb(0, 0, 255)" /><polygon points="33,906 450,843 992,661 794,366 33,677" fill="rgb(0, 0, 255)" /><circle cx="61" cy="155" r="38" fill="rgb(255, 255, 0)" /><polygon points="56,54 24,701 754,343 720,935 415,447 943,88" fill="rgb(255, 0, 0)" /><rect x="24" y="518" width="150" height="130" fill="rgb(255, 255, 0)" /><circle cx="1038" cy="1280" r="66" fill="rgb(255, 255, 0)" /><rect x="224" y="786" width="145" height="86" fill="rgb(0, 0, 255)" /><rect x="34" y="1349" width="123" height="64" fill="rgb(255, 255, 0)" /><rect x="906" y="1059" width="139" height="91" fill="rgb(0, 0, 255)" /><circle cx="795" cy="311" r="49" fill="rgb(255, 255, 0)" /><circle cx="759" cy="21" r="33" fill="rgb(255, 0, 0)" /><circle cx="142" cy="1194" r="46" fill="rgb(0, 0, 0)" /><circle cx="334" cy="801" r="21" fill="rgb(0, 0, 0)" /><circle cx="385" cy="282" r="45" fill="rgb(255, 255, 0)" /><rect x="380" y="1048" width="187" height="196" fill="rgb(0, 0, 0)" /><polygon points="550,1305 461,1365 743,864 318,1297 468,266 864,77" fill="rgb(0, 0, 0)" /><rect x="607" y="1085" width="106" height="142" fill="rgb(0, 0, 0)" /><polygon points="582,12 545,76 749,678" fill="rgb(255, 255, 0)" /><rect x="1001" y="857" width="74" height="107" fill="rgb(0, 0, 255)" /><polygon points="728,1310 67,968 30,359 93,1432 731,824" fill="rgb(0, 0, 0)" /><polygon points="117,478 357,333 766,1225 106,483" fill="rgb(255, 0, 0)" /><rect x="975" y="1162" width="184" height="91" fill="rgb(0, 0, 0)" /><polygon points="641,572 855,243 101,436 619,577" fill="rgb(0, 0, 255)" /><rect x="623" y="734" width="126" height="115" fill="rgb(0, 0, 0)" /><circle cx="682" cy="961" r="51" fill="rgb(0, 0, 0)" /><circle cx="507" cy="522" r="29" fill="rgb(255, 0, 0)" /><rect x="186" y="300" width="87" height="151" fill="rgb(0, 0, 0)" /><circle cx="298" cy="953" r="81" fill="rgb(255, 255, 0)" /><rect x="143" y="1340" width="71" height="93" fill="rgb(0, 0, 255)" /><circle cx="913" cy="1383" r="31" fill="rgb(0, 0, 0)" /><polygon points="624,1435 16,698 794,991" fill="rgb(255, 0, 0)" /><circle cx="435" cy="942" r="99" fill="rgb(255, 0, 0)" /><circle cx="71" cy="494" r="61" fill="rgb(255, 0, 0)" /><circle cx="887" cy="322" r="45" fill="rgb(0, 0, 0)" /><polygon points="492,609 66,13 1028,141" fill="rgb(255, 255, 0)" /><polygon points="873,277 983,885 1017,937 870,242 157,1388" fill="rgb(0, 0, 255)" /><rect x="529" y="743" width="94" height="90" fill="rgb(255, 255, 0)" /><circle cx="556" cy="664" r="76" fill="rgb(255, 255, 0)" /><polygon points="799,82 589,677 73,27 468,1074" fill="rgb(0, 0, 255)" /><circle cx="78" cy="1488" r="25" fill="rgb(0, 0, 255)" /><polygon points="324,816 73,183 1006,762 999,1230 960,581 635,294" fill="rgb(255, 255, 0)" /><polygon points="474,1137 12,196 806,1251" fill="rgb(0, 0, 255)" /><polygon points="314,713 939,948 893,935" fill="rgb(255, 0, 0)" /><polygon points="96,1356 184,1204 833,469 139,1046 50,135 1028,337" fill="rgb(0, 0, 0)" /><circle cx="284" cy="243" r="77" fill="rgb(255, 255, 0)" /><rect x="472" y="1152" width="99" height="129" fill="rgb(255, 0, 0)" /><polygon points="487,1178 604,862 640,42 933,167 399,1041 802,1474" fill="rgb(0, 0, 255)" /><circle cx="255" cy="1486" r="29" fill="rgb(0, 0, 255)" /><circle cx="633" cy="1141" r="87" fill="rgb(255, 255, 0)" /><circle cx="469" cy="1072" r="51" fill="rgb(0, 0, 255)" /><circle cx="664" cy="603" r="41" fill="rgb(0, 0, 255)" /><polygon points="367,698 1021,235 724,1058 512,557 828,337" fill="rgb(255, 255, 0)" /><rect x="674" y="1398" width="69" height="114" fill="rgb(0, 0, 0)" /><circle cx="711" cy="248" r="99" fill="rgb(0, 0, 255)" /><polygon points="985,59 15,813 306,1248 425,711" fill="rgb(0, 0, 0)" /><rect x="953" y="45" width="76" height="140" fill="rgb(255, 255, 0)" /><rect x="796" y="1245" width="163" height="154" fill="rgb(0, 0, 255)" /><circle cx="77" cy="897" r="92" fill="rgb(255, 0, 0)" /><rect x="355" y="1454" width="57" height="173" fill="rgb(0, 0, 255)" /><circle cx="916" cy="130" r="93" fill="rgb(0, 0, 0)" /><polygon points="739,342 744,728 299,923 379,1234 40,600 1003,338" fill="rgb(255, 0, 0)" /><rect x="190" y="13" width="120" height="83" fill="rgb(0, 0, 0)" /><rect x="160" y="284" width="122" height="68" fill="rgb(0, 0, 255)" /><rect x="8" y="245" width="174" height="194" fill="rgb(255, 0, 0)" /><rect x="967" y="1272" width="91" height="53" fill="rgb(0, 0, 255)" /><rect x="644" y="146" width="138" height="50" fill="rgb(255, 0, 0)" /><rect x="756" y="1499" width="168" height="59" fill="rgb(0, 0, 0)" /><polygon points="717,1149 644,478 224,1077" fill="rgb(0, 0, 0)" /><polygon points="483,1060 261,520 1100,350 627,365" fill="rgb(0, 0, 255)" /><circle cx="787" cy="420" r="95" fill="rgb(0, 0, 0)" /><polygon points="995,484 647,416 94,894 12,1210 209,259" fill="rgb(0, 0, 0)" /><rect x="512" y="949" width="57" height="158" fill="rgb(255, 0, 0)" /><circle cx="265" cy="379" r="63" fill="rgb(255, 0, 0)" /><polygon points="621,655 529,1125 901,823" fill="rgb(0, 0, 0)" /><circle cx="287" cy="1151" r="50" fill="rgb(0, 0, 0)" /><circle cx="1073" cy="1393" r="84" fill="rgb(0, 0, 255)" /><polygon points="570,1087 145,1411 494,707" fill="rgb(0, 0, 255)" /><circle cx="468" cy="892" r="28" fill="rgb(255, 255, 0)" /><circle cx="679" cy="445" r="23" fill="rgb(255, 0, 0)" /><circle cx="812" cy="371" r="50" fill="rgb(255, 0, 0)" /><rect x="820" y="321" width="134" height="168" fill="rgb(255, 0, 0)" /><rect x="718" y="92" width="131" height="136" fill="rgb(255, 255, 0)" /><polygon points="472,73 102,17 207,504 807,1225 779,131 994,108" fill="rgb(0, 0, 0)" /><polygon points="47,858 1078,205 718,1489 698,231 907,960 638,598" fill="rgb(0, 0, 255)" /><polygon points="507,940 1022,187 432,1077" fill="rgb(255, 0, 0)" /><rect x="700" y="936" width="84" height="173" fill="rgb(255, 255, 0)" /><rect x="1079" y="609" width="140" height="117" fill="rgb(255, 255, 0)" /><rect x="641" y="61" width="128" height="125" fill="rgb(0, 0, 0)" /><rect x="1029" y="1474" width="190" height="97" fill="rgb(0, 0, 255)" /><rect x="331" y="1135" width="118" height="51" fill="rgb(0, 0, 0)" /><polygon points="959,431 833,897 783,865" fill="rgb(255, 255, 0)" /><circle cx="982" cy="1086" r="33" fill="rgb(0, 0, 0)" /><rect x="824" y="376" width="183" height="68" fill="rgb(255, 0, 0)" /><rect x="746" y="259" width="78" height="63" fill="rgb(0, 0, 255)" /><rect x="33" y="1264" width="187" height="83" fill="rgb(255, 0, 0)" /><rect x="37" y="52" width="57" height="183" fill="rgb(255, 0, 0)" /><rect x="315" y="1167" width="175" height="160" fill="rgb(255, 0, 0)" /><rect x="675" y="1260" width="74" height="105" fill="rgb(255, 0, 0)" /><circle cx="272" cy="847" r="32" fill="rgb(255, 255, 0)" /></svg>