<svg xmlns="http://www.w3.org/2000/svg" width="1101" height="1500"><circle cx="222" cy="999" r="92" fill="rgb(255, 255, 0)" /><rect x="918" y="13" width="187" height="164" fill="rgb(255, 255, 0)" /><polygon points="756,1288 1055,1023 350,1471" fill="rgb(255, 255, 0)" /><circle cx="98" cy="620" r="77" fill="rgb(0, 0, 255)" /><polygon points="755,717 110,780 820,453 1037,915" fill="rgb(255, 255, 0)" /><rect x="541" y="1078" width="120" height="103" fill="rgb(0, 0, 255)" /><circle cx="462" cy="551" r="80" fill="rgb(255, 255, 0)" /><circle cx="973" cy="1147" r="24" fill="rgb(255, 255, 0)" /><circle cx="796" cy="1098" r="64" fill="rgb(255, 255, 0)" /><rect x="112" y="592" width="128" height="153" fill="rgb(0, 0, 255)" /><rect x="311" y="1083" width="154" height="183" fill="rgb(0, 0, 0)" /><rect x="603" y="626" width="122" height="115" fill="rgb(255, 0, 0)" /><circle cx="982" cy="843" r="91" fill="rgb(0, 0, 0)" /><circle cx="543" cy="205" r="82" fill="rgb(255, 0, 0)" /><circle cx="1067" cy="255" r="24" fill="rgb(255, 255, 0)" /><polygon points="644,1080 350,579 525,1392" fill="rgb(255, 255, 0)" /><rect x="122" y="225" width="91" height="112" fill="rgb(0, 0, 255)" /><circle cx="481" cy="484" r="93" fill="rgb(255, 255, 0)" /><circle cx="1071" cy="933" r="59" fill="rgb(255, 0, 0)" /><rect x="627" y="728" width="98" height="146" fill="rgb(255, 0, 0)" /><polygon points="927,15 985,978 1023,812" fill="rgb(255, 0, 0)" /><rect x="1050" y="130" width="61" height="121" fill="rgb(255, 0, 0)" /><rect x="674" y="402" width="196" height="162" fill="rgb(0, 0, 0)" /><polygon points="889,210 1060,551 760,948 0,68 681,1454" fill="rgb(255, 0, 0)" /><rect x="1049" y="584" width="54" height="66" fill="rgb(0, 0, 0)" /><circle cx="321" cy="1095" r="70" fill="rgb(255, 0, 0)" /><rect x="910" y="1265" width="157" height="72" fill="rgb(0, 0, 0)" /><polygon points="126,420 65,187 194,1308 594,1328 204,1137" fill="rgb(255, 255, 0)" /><polygon points="111,997 1099,876 703,499 807,656 1004,1082 670,1486" fill="rgb(0, 0, 255)" /><rect x="978" y="228" width="184" height="162" fill="rgb(255, 0, 0)" /><polygon points="771,1392 921,255 35,538 861,1256 643,924" fill="rgb(255, 0, 0)" /><rect x="551" y="1206" width="141" height="54" fill="rgb(0, 0, 255)" /><circle cx="833" cy="1229" r="30" fill="rgb(0, 0, 255)" /><polygon points="229,189 17,1105 945,109 392,195" fill="rgb(0, 0, 0)" /><rect x="788" y="171" width="106" height="131" fill="rgb(0, 0, 255)" /><polygon points="19,881 608,399 358,1067 1056,497 707,1121" fill="rgb(0, 0, 0)" /><polygon points="989,1296 708,1413 971,1063 518,958" fill="rgb(0, 0, 255)" /><circle cx="1073" cy="979" r="88" fill="rgb(255, 0, 0)" /><circle cx="754" cy="574" r="90" fill="rgb(0, 0, 255)" /><rect x="74" y="943" width="169" height="78" fill="rgb(255, 255, 0)" /><polygon points="695,1010 890,68 28,856 86,798 1038,569 327,866" fill="rgb(255, 0, 0)" /><rect x="648" y="1196" width="63" height="178" fill="rgb(255, 255, 0)" /><rect x="147" y="296" width="83" height="194" fill="rgb(255, 0, 0)" /><circle cx="550" cy="919" r="88" fill="rgb(255, 0, 0)" /><polygon points="642,875 234,847 548,893" fill="rgb(0, 0, 0)" /><polygon points="261,584 1100,1312 746,1286 1018,927 898,798 76,981" fill="rgb(0, 0, 0)" /><polygon points="228,1498 550,101 1054,773 640,369" fill="rgb(0, 0, 0)" /><rect x="449" y="744" width="162" height="50" fill="rgb(255, 255, 0)" /><polygon points="762,219 967,571 69,1154 63,490" fill="rgb(0, 0, 255)" /><rect x="304" y="1463" width="78" height="60" fill="rgb(0, 0, 255)" /><polygon points="463,418 1042,395 105,1361 24,20" fill="rgb(255, 0, 0)" /><circle cx="646" cy="901" r="79" fill="rgb(255, 255, 0)" /><circle cx="345" cy="861" r="29" fill="rgb(0, 0, 255)" /><circle cx="1058" cy="439" r="61" fill="rgb(255, 0, 0)" /><polygon points="120,1214 805,807 1065,28" fill="rgb(0, 0, 0)" /><circle cx="80" cy="970" r="64" fill="rgb(0, 0, 0)" /><rect x="1016" y="23" width="90" height="64" fill="rgb(255, 0, 0)" /><polygon points="734,244 315,838 503,901 894,456 767,185 635,796" fill="rgb(255, 0, 0)" /><polygon points="730,933 636,1343 97,1217 481,169 954,413" fill="rgb(0, 0, 0)" /><circle cx="123" cy="1066" r="32" fill="rgb(0, 0, 0)" /><circle cx="757" cy="1023" r="59" fill="rgb(255, 255, 0)" /><rect x="1039" y="1477" width="104" height="92" fill="rgb(255, 255, 0)" /><rect x="162" y="217" width="172" height="90" fill="rgb(255, 255, 0)" /><circle cx="200" cy="8" r="28" fill="rgb(0, 0, 255)" /><rect x="832" y="1228" width="192" height="111" fill="rgb(0, 0, 255)" /><circle cx="186" cy="16" r="67" fill="rgb(0, 0, 0)" /><circle cx="803" cy="977" r="38" fill="rgb(255, 255, 0)" /><circle cx="374" cy="442" r="32" fill="rgb(0, 0, 0)" /><rect x="773" y="1072" width="83" height="97" fill="rgb(0, 0, 0)" /><circle cx="497" cy="1446" r="44" fill="rgb(0, 0, 255)" /><circle cx="519" cy="214" r="27" fill="rgb(255, 0, 0)" /><rect x="738" y="709" width="147" height="63" fill="rgb(0, 0, 255)" /><circle cx="492" cy="402" r="69" fill="rgb(0, 0, 0)" /><circle cx="1088" cy="1149" r="51" fill="rgb(0, 0, 255)" /><polygon points="935,542 346,509 707,1241 832,1263 477,916" fill="rgb(255, 255, 0)" /><circle cx="877" cy="670" r="25" fill="rgb(0, 0, 255)" /><polygon points="178,1175 1088,124 336,1 80,1086 29,166" fill="rgb(255, 0, 0)" /><rect x="520" y="1079" width="154" height="188" fill="rgb(255, 255, 0)" /><polygon points="264,1080 101,343 369,412" fill="rgb(0, 0, 0)" /><rect x="944" y="925" width="68" height="200" fill="rgb(0, 0, 255)" /><rect x="44" y="1071" width="80" height="143" fill="rgb(255, 0, 0)" /><circle cx="897" cy="78" r="46" fill="rgb(255, 0, 0)" /><circle cx="901" cy="1216" r="98" fill="rgb(255, 0, 0)" /><circle cx="65" cy="609" r="70" fill="rgb(0, 0, 255)" /><rect x="1091" y="430" width="186" height="145" fill="rgb(255, 255, 0)" /><circle cx="1094" cy="418" r="74" fill="rgb(255, 0, 0)" /><circle cx="415" cy="464" r="77" fill="rgb(0, 0, 0)" /><circle cx="845" cy="142" r="54" fill="rgb(255, 255, 0)" /><polygon points="585,731 871,333 283,431 288,31 149,750 421,662" fill="rgb(255, 0, 0)" /><rect x="350" y="296" width="58" height="78" fill="rgb(255, 0, 0)" /><circle cx="706" cy="318" r="61" fill="rgb(0, 0, 255)" /><rect x="864" y="101" width="52" height="50" fill="rgb(0, 0, 0)" /><polygon points="1082,1096 75,1099 488,1110 92,60 690,135" fill="rgb(255, 0, 0)" /><rect x="681" y="523" width="191" height="147" fill="rgb(0, 0, 255)" /><rect x="853" y="388" width="169" height="101" fill="rgb(0, 0, 255)" /><polygon points="1045,152 783,430 378,857 319,474 317,144 344,99" fill="rgb(0, 0, 255)" /><circle cx="213" cy="1426" r="21" fill="rgb(0, 0, 0)" /><rect x="730" y="784" width="174" height="81" fill="rgb(0, 0, 0)" /><rect x="570" y="453" width="95" height="150" fill="rgb(0, 0, 255)" /><circle cx="1060" cy="590" r="92" fill="rgb(255, 0, 0)" /><circle cx="222" cy="405" r="90" fill="rgb(0, 0, 0)" /><rect x="961" y="998" width="50" height="71" fill="rgb(255, 0, 0)" /><polygon points="349,60 82,1163 976,772 1071,959 76,1182 905,1303" fill="rgb(0, 0, 255)" /><polygon points="756,527 1039,657 1005,66 197,108 842,1288" fill="rgb(0, 0, 0)" /><circle cx="207" cy="1470" r="34" fill="rgb(255, 255, 0)" /><circle cx="683" cy="407" r="22" fill="rgb(0, 0, 255)" /><circle cx="132" cy="494" r="68" fill="rgb(0, 0, 0)" /><rect x="718" y="792" width="122" height="193" fill="rgb(255, 255, 0)" /><polygon points="950,800 88,548 1008,526 326,373 618,710" fill="rgb(0, 0, 0)" /><circle cx="363" cy="528" r="97" fill="rgb(0, 0, 255)" /><polygon points="771,1141 683,481 64,1208 230,300" fill="rgb(0, 0, 0)" /><rect x="814" y="191" width="173" height="96" fill="rgb(255, 0, 0)" /><rect x="647" y="611" width="61" height="136" fill="rgb(0, 0, 255)" /><circle cx="86" cy="645" r="100" fill="rgb(255, 255, 0)" /><polygon points="392,985 859,578 993,538 54,271 428,190" fill="rgb(0, 0, 0)" /><polygon points="29,328 1050,1028 922,680 925,1365" fill="rgb(0, 0, 255)" /><polygon points="376,783 518,857 200,947 873,945 935,1122 497,163" fill="rgb(0, 0, 0)" /><circle cx="85" cy="237" r="97" fill="rgb(255, 255, 0)" /><polygon points="36,953 934,842 1026,1276 656,1149" fill="rgb(255, 255, 0)" /><circle cx="1087" cy="1078" r="35" fill="rgb(255, 255, 0)" /><rect x="1080" y="962" width="100" height="103" fill="rgb(255, 0, 0)" /><polygon points="874,535 182,623 533,901 462,213" fill="rgb(0, 0, 255)" /><rect x="955" y="359" width="81" height="113" fill="rgb(255, 0, 0)" /><rect x="1083" y="926" width="94" height="148" fill="rgb(255, 0, 0)" /><circle cx="523" cy="1461" r="90" fill="rgb(0, 0, 0)" /><polygon points="275,495 1002,1495 1071,993 546,1097" fill="rgb(255, 255, 0)" /><rect x="931" y="1241" width="71" height="155" fill="rgb(0, 0, 0)" /><circle cx="361" cy="688" r="50" fill="rgb(255, 255, 0)" /><polygon points="355,217 387,1185 215,1477 288,1378 959,745 793,244" fill="rgb(255, 0, 0)" /><rect x="861" y="623" width="155" height="191" fill="rgb(0, 0, 255)" /><rect x="499" y="984" width="112" height="117" fill="rgb(0, 0, 255)" /><rect x="906" y="1377" width="125" height="151" fill="rgb(0, 0, 255)" /><polygon points="461,116 706,1105 230,219" fill="rgb(255, 0, 0)" /><circle cx="901" cy="546" r="20" fill="rgb(0, 0, 0)" /><rect x="402" y="827" width="144" height="136" fill="rgb(255, 255, 0)" /><polygon points="919,555 314,424 189,1217 767,865 855,638" fill="rgb(255, 255, 0)" /><rect x="1073" y="1370" width="57" height="115" fill="rgb(0, 0, 255)" /><circle cx="200" cy="1089" r="43" fill="rgb(0, 0, 255)" /><polygon points="1016,68 960,257 977,1172 1035,405 478,275" fill="rgb(255, 255, 0)" /><circle cx="695" cy="352" r="51" fill="rgb(0, 0, 0)" /><rect x="785" y="873" width="162" height="104" fill="rgb(0, 0, 255)" /><rect x="347" y="1076" width="151" height="159" fill="rgb(255, 0, 0)" /></svg>