<svg xmlns="http://www.w3.org/2000/svg" width="1101" height="1500"><circle cx="893" cy="539" r="36" fill="rgb(0, 0, 255)" /><polygon points="340,494 773,953 682,1065 920,1342 680,321" fill="rgb(0, 0, 0)" /><rect x="839" y="41" width="152" height="99" fill="rgb(0, 0, 255)" /><circle cx="420" cy="1201" r="98" fill="rgb(0, 0, 0)" /><circle cx="25" cy="314" r="89" fill="rgb(255, 255, 0)" /><polygon points="966,1095 976,493 274,249 112,515 892,19" fill="rgb(0, 0, 255)" /><circle cx="187" cy="1077" r="56" fill="rgb(255, 0, 0)" /><rect x="374" y="1470" width="88" height="156" fill="rgb(0, 0, 255)" /><polygon points="767,98 611,839 523,512 229,1289" fill="rgb(255, 0, 0)" /><polygon points="254,1315 1101,426 689,502 844,488 731,1094 775,544" fill="rgb(0, 0, 255)" /><circle cx="393" cy="1148" r="65" fill="rgb(0, 0, 255)" /><rect x="894" y="456" width="129" height="88" fill="rgb(255, 0, 0)" /><rect x="475" y="639" width="138" height="70" fill="rgb(0, 0, 0)" /><circle cx="156" cy="274" r="100" fill="rgb(255, 255, 0)" /><rect x="617" y="804" width="179" height="111" fill="rgb(255, 255, 0)" /><circle cx="807" cy="1237" r="82" fill="rgb(0, 0, 255)" /><circle cx="892" cy="1177" r="65" fill="rgb(0, 0, 0)" /><circle cx="372" cy="620" r="99" fill="rgb(255, 255, 0)" /><circle cx="653" cy="1274" r="29" fill="rgb(0, 0, 0)" /><polygon points="799,679 872,536 276,366 164,677" fill="rgb(255, 0, 0)" /><circle cx="969" cy="1327" r="79" fill="rgb(0, 0, 0)" /><circle cx="882" cy="605" r="68" fill="rgb(0, 0, 0)" /><polygon points="32,796 709,1409 542,604 667,352 577,732 803,1421" fill="rgb(255, 255, 0)" /><circle cx="1052" cy="258" r="24" fill="rgb(0, 0, 255)" /><circle cx="497" cy="43" r="32" fill="rgb(0, 0, 255)" /><polygon points="332,577 338,151 50,1370 455,121 813,124" fill="rgb(255, 0, 0)" /><polygon points="495,776 183,184 590,798 693,477 172,1130" fill="rgb(0, 0, 0)" /><rect x="1036" y="1484" width="107" height="72" fill="rgb(255, 0, 0)" /><circle cx="483" cy="1237" r="85" fill="rgb(255, 255, 0)" /><polygon points="531,708 800,636 1019,282 151,1283 274,1178 1024,232" fill="rgb(0, 0, 0)" /><circle cx="901" cy="897" r="82" fill="rgb(0, 0, 0)" /><polygon points="581,513 770,695 605,521 258,1117 272,337 219,366" fill="rgb(255, 0, 0)" /><circle cx="369" cy="862" r="83" fill="rgb(0, 0, 255)" /><circle cx="627" cy="111" r="95" fill="rgb(0, 0, 0)" /><polygon points="77,713 419,1307 78,669" fill="rgb(0, 0, 0)" /><circle cx="906" cy="886" r="64" fill="rgb(255, 255, 0)" /><rect x="353" y="731" width="195" height="125" fill="rgb(0, 0, 0)" /><polygon points="255,1296 422,1257 738,1142 544,80" fill="rgb(0, 0, 255)" /><rect x="125" y="1303" width="74" height="82" fill="rgb(0, 0, 255)" /><circle cx="41" cy="304" r="94" fill="rgb(255, 255, 0)" /><polygon points="696,244 653,50 790,393 417,764" fill="rgb(0, 0, 255)" /><rect x="427" y="996" width="106" height="86" fill="rgb(255, 255, 0)" /><rect x="524" y="814" width="128" height="154" fill="rgb(255, 0, 0)" /><circle cx="372" cy="885" r="47" fill="rgb(0, 0, 255)" /><circle cx="7" cy="485" r="51" fill="rgb(255, 255, 0)" /><polygon points="462,517 632,1125 949,1082" fill="rgb(0, 0, 255)" /><polygon points="554,1119 53,1151 695,432" fill="rgb(255, 255, 0)" /><circle cx="1018" cy="543" r="39" fill="rgb(0, 0, 255)" /><circle cx="118" cy="77" r="20" fill="rgb(255, 0, 0)" /><rect x="332" y="609" width="181" height="71" fill="rgb(0, 0, 0)" /><rect x="778" y="107" width="136" height="131" fill="rgb(0, 0, 0)" /><rect x="955" y="585" width="179" height="96" fill="rgb(0, 0, 0)" /><rect x="935" y="162" width="54" height="173" fill="rgb(255, 255, 0)" /><circle cx="814" cy="1099" r="56" fill="rgb(255, 255, 0)" /><polygon points="537,1234 753,880 485,1247" fill="rgb(0, 0, 0)" /><rect x="1100" y="132" width="94" height="182" fill="rgb(0, 0, 0)" /><rect x="25" y="1018" width="108" height="150" fill="rgb(255, 0, 0)" /><circle cx="464" cy="874" r="23" fill="rgb(0, 0, 255)" /><polygon points="808,1326 998,23 739,1136 958,631" fill="rgb(255, 0, 0)" /><polygon points="638,40 940,530 815,176 301,1464 661,278 271,734" fill="rgb(0, 0, 0)" /><circle cx="1039" cy="1083" r="83" fill="rgb(255, 255, 0)" /><rect x="673" y="258" width="162" height="65" fill="rgb(0, 0, 0)" /><rect x="847" y="1176" width="128" height="193" fill="rgb(0, 0, 0)" /><rect x="642" y="1392" width="63" height="128" fill="rgb(0, 0, 255)" /><polygon points="448,1417 669,1349 110,811 293,290" fill="rgb(0, 0, 255)" /><rect x="159" y="21" width="88" height="133" fill="rgb(255, 0, 0)" /><rect x="1042" y="704" width="59" height="163" fill="rgb(255, 0, 0)" /><circle cx="965" cy="882" r="48" fill="rgb(255, 0, 0)" /><polygon points="344,1164 668,69 184,610 1009,354 910,842 724,388" fill="rgb(0, 0, 255)" /><polygon points="687,141 1033,501 296,1445 753,1179 876,976 1055,445" fill="rgb(255, 0, 0)" /><circle cx="132" cy="855" r="80" fill="rgb(255, 0, 0)" /><circle cx="937" cy="774" r="58" fill="rgb(0, 0, 0)" /><polygon points="182,673 650,342 110,927 284,1305 217,631" fill="rgb(0, 0, 255)" /><rect x="892" y="1251" width="180" height="119" fill="rgb(255, 255, 0)" /><rect x="188" y="370" width="158" height="53" fill="rgb(255, 255, 0)" /><circle cx="868" cy="857" r="70" fill="rgb(0, 0, 0)" /><circle cx="363" cy="3" r="28" fill="rgb(255, 255, 0)" /><polygon points="799,218 110,1001 887,1046 902,287 19,662 306,207" fill="rgb(0, 0, 255)" /><polygon points="273,146 14,1313 550,1304" fill="rgb(255, 255, 0)" /><polygon points="262,538 184,150 4,1135 701,992 914,563 468,649" fill="rgb(0, 0, 0)" /><polygon points="1010,355 529,1 13,1416 238,1461 615,273" fill="rgb(0, 0, 0)" /><polygon points="768,776 1088,495 650,145 588,99" fill="rgb(0, 0, 0)" /><rect x="310" y="1058" width="128" height="189" fill="rgb(0, 0, 255)" /><polygon points="794,208 867,178 260,1151 310,113 1088,188" fill="rgb(0, 0, 255)" /><polygon points="4,715 1062,1313 940,530" fill="rgb(255, 0, 0)" /><rect x="1081" y="1451" width="80" height="150" fill="rgb(255, 255, 0)" /><circle cx="591" cy="384" r="51" fill="rgb(0, 0, 0)" /><circle cx="388" cy="657" r="96" fill="rgb(255, 255, 0)" /><polygon points="1016,706 36,947 1028,930 136,1077 92,1026 363,526" fill="rgb(255, 0, 0)" /><rect x="922" y="1307" width="125" height="50" fill="rgb(0, 0, 255)" /><circle cx="683" cy="95" r="95" fill="rgb(0, 0, 255)" /><rect x="145" y="1011" width="187" height="135" fill="rgb(255, 0, 0)" /><polygon points="285,392 10,383 74,302 203,590" fill="rgb(0, 0, 0)" /><circle cx="744" cy="172" r="34" fill="rgb(255, 255, 0)" /><circle cx="847" cy="1028" r="77" fill="rgb(255, 255, 0)" /><circle cx="1087" cy="713" r="88" fill="rgb(0, 0, 0)" /><polygon points="255,807 1024,9 87,702 90,956" fill="rgb(0, 0, 255)" /><rect x="544" y="288" width="115" height="85" fill="rgb(0, 0, 0)" /><rect x="639" y="789" width="99" height="157" fill="rgb(255, 0, 0)" /><circle cx="172" cy="1366" r="24" fill="rgb(255, 255, 0)" /><polygon points="853,1387 411,628 1074,1264" fill="rgb(0, 0, 255)" /><circle cx="179" cy="1032" r="81" fill="rgb(0, 0, 0)" /><circle cx="422" cy="529" r="82" fill="rgb(0, 0, 0)" /><rect x="365" y="1200" width="118" height="93" fill="rgb(0, 0, 255)" /><circle cx="276" cy="875" r="24" fill="rgb(0, 0, 255)" /><circle cx="536" cy="146" r="55" fill="rgb(0, 0, 0)" /><rect x="904" y="1287" width="127" height="173" fill="rgb(0, 0, 255)" /><circle cx="454" cy="335" r="67" fill="rgb(255, 255, 0)" /><rect x="36" y="1282" width="169" height="57" fill="rgb(0, 0, 255)" /><circle cx="1003" cy="992" r="55" fill="rgb(255, 255, 0)" /><circle cx="299" cy="98" r="86" fill="rgb(0, 0, 0)" /><circle cx="433" cy="602" r="49" fill="rgb(0, 0, 0)" /><circle cx="908" cy="673" r="33" fill="rgb(0, 0, 0)" /><polygon points="1023,293 957,1228 611,178" fill="rgb(0, 0, 0)" /><polygon points="668,671 149,340 862,1003 175,949" fill="rgb(255, 255, 0)" /><polygon points="378,847 666,917 998,887 794,523 63,1053 686,999" fill="rgb(255, 255, 0)" /><rect x="844" y="907" width="128" height="175" fill="rgb(255, 0, 0)" /><polygon points="735,1192 743,179 338,537 626,1151 629,1413 131,1255" fill="rgb(255, 255, 0)" /><circle cx="441" cy="355" r="87" fill="rgb(255, 255, 0)" /><polygon points="591,1442 844,176 220,628" fill="rgb(255, 0, 0)" /><circle cx="647" cy="180" r="71" fill="rgb(0, 0, 255)" /><circle cx="1007" cy="527" r="37" fill="rgb(0, 0, 0)" /><polygon points="34,315 279,1424 821,649 603,574 524,325 995,646" fill="rgb(255, 0, 0)" /><rect x="247" y="1400" width="107" height="68" fill="rgb(255, 0, 0)" /><rect x="949" y="1021" width="63" height="171" fill="rgb(255, 0, 0)" /><rect x="949" y="451" width="125" height="172" fill="rgb(255, 255, 0)" /><polygon points="774,791 626,751 566,792" fill="rgb(255, 0, 0)" /><circle cx="43" cy="978" r="71" fill="rgb(255, 0, 0)" /><polygon points="933,18 20,400 48,397 600,1447" fill="rgb(0, 0, 0)" /><rect x="832" y="511" width="149" height="190" fill="rgb(255, 255, 0)" /><polygon points="332,245 458,157 468,1374 169,283 932,55" fill="rgb(255, 255, 0)" /><rect x="613" y="355" width="175" height="88" fill="rgb(255, 255, 0)" /></svg>