<svg xmlns="http://www.w3.org/2000/svg" width="1101" height="1500"><circle cx="181" cy="1020" r="79" fill="rgb(255, 0, 0)" /><circle cx="20" cy="480" r="30" fill="rgb(255, 255, 0)" /><circle cx="11" cy="468" r="82" fill="rgb(0, 0, 255)" /><rect x="274" y="1219" width="92" height="184" fill="rgb(255, 0, 0)" /><circle cx="491" cy="1045" r="30" fill="rgb(0, 0, 255)" /><rect x="441" y="507" width="136" height="98" fill="rgb(255, 255, 0)" /><circle cx="695" cy="153" r="57" fill="rgb(255, 0, 0)" /><circle cx="172" cy="328" r="71" fill="rgb(255, 255, 0)" /><circle cx="781" cy="60" r="61" fill="rgb(0, 0, 0)" /><rect x="996" y="865" width="184" height="107" fill="rgb(255, 255, 0)" /><polygon points="289,91 660,637 115,1248" fill="rgb(255, 0, 0)" /><polygon points="13,193 713,1381 242,780 1040,920 332,1449" fill="rgb(255, 255, 0)" /><rect x="941" y="1090" width="170" height="191" fill="rgb(255, 0, 0)" /><circle cx="572" cy="68" r="26" fill="rgb(0, 0, 255)" /><rect x="693" y="709" width="133" height="100" fill="rgb(0, 0, 255)" /><circle cx="84" cy="1124" r="56" fill="rgb(0, 0, 255)" /><circle cx="201" cy="1112" r="26" fill="rgb(255, 255, 0)" /><circle cx="60" cy="1118" r="93" fill="rgb(0, 0, 0)" /><rect x="627" y="363" width="98" height="104" fill="rgb(0, 0, 0)" /><rect x="756" y="510" width="137" height="69" fill="rgb(255, 0, 0)" /><polygon points="580,1239 536,1192 357,1285 993,194" fill="rgb(0, 0, 255)" /><rect x="914" y="1493" width="158" height="65" fill="rgb(0, 0, 0)" /><circle cx="596" cy="321" r="86" fill="rgb(255, 0, 0)" /><circle cx="529" cy="604" r="69" fill="rgb(0, 0, 0)" /><circle cx="320" cy="1041" r="95" fill="rgb(255, 255, 0)" /><circle cx="118" cy="535" r="20" fill="rgb(0, 0, 0)" /><circle cx="282" cy="235" r="94" fill="rgb(0, 0, 255)" /><polygon points="550,825 29,426 434,1102 617,1178" fill="rgb(0, 0, 255)" /><circle cx="221" cy="762" r="47" fill="rgb(255, 0, 0)" /><rect x="533" y="404" width="104" height="183" fill="rgb(0, 0, 255)" /><rect x="1031" y="56" width="111" height="50" fill="rgb(255, 255, 0)" /><polygon points="455,342 347,885 301,350 804,379" fill="rgb(255, 255, 0)" /><circle cx="53" cy="14" r="37" fill="rgb(255, 0, 0)" /><circle cx="155" cy="1146" r="97" fill="rgb(255, 255, 0)" /><polygon points="567,304 836,481 998,307 971,237 472,98" fill="rgb(255, 255, 0)" /><polygon points="958,591 744,1247 784,487" fill="rgb(0, 0, 255)" /><polygon points="299,772 1018,1353 421,396" fill="rgb(0, 0, 0)" /><circle cx="64" cy="269" r="43" fill="rgb(255, 255, 0)" /><rect x="1025" y="917" width="148" height="200" fill="rgb(0, 0, 255)" /><polygon points="434,595 1086,652 386,445" fill="rgb(0, 0, 0)" /><circle cx="712" cy="1049" r="59" fill="rgb(0, 0, 0)" /><circle cx="545" cy="638" r="70" fill="rgb(0, 0, 255)" /><rect x="957" y="746" width="66" height="186" fill="rgb(0, 0, 255)" /><circle cx="793" cy="1286" r="28" fill="rgb(255, 0, 0)" /><polygon points="1065,1112 505,106 358,594 1063,1066" fill="rgb(255, 0, 0)" /><polygon points="672,946 416,1284 131,455 379,699 830,1225" fill="rgb(255, 0, 0)" /><circle cx="118" cy="961" r="50" fill="rgb(0, 0, 0)" /><rect x="227" y="661" width="134" height="166" fill="rgb(255, 0, 0)" /><circle cx="44" cy="7" r="41" fill="rgb(255, 0, 0)" /><circle cx="399" cy="1231" r="98" fill="rgb(255, 255, 0)" /><polygon points="366,441 1032,1177 51,81 51,721 475,792" fill="rgb(0, 0, 0)" /><circle cx="677" cy="878" r="93" fill="rgb(255, 255, 0)" /><rect x="501" y="1164" width="189" height="55" fill="rgb(0, 0, 0)" /><circle cx="766" cy="1463" r="95" fill="rgb(255, 0, 0)" /><rect x="352" y="560" width="139" height="126" fill="rgb(255, 0, 0)" /><rect x="516" y="144" width="85" height="142" fill="rgb(255, 255, 0)" /><polygon points="279,555 113,64 483,170" fill="rgb(255, 255, 0)" /><polygon points="509,1383 128,1385 948,1225 733,1343 72,1273" fill="rgb(255, 0, 0)" /><circle cx="612" cy="1110" r="89" fill="rgb(255, 255, 0)" /><rect x="1074" y="959" width="172" height="96" fill="rgb(255, 255, 0)" /><circle cx="554" cy="476" r="45" fill="rgb(255, 255, 0)" /><rect x="204" y="709" width="60" height="179" fill="rgb(255, 0, 0)" /><rect x="910" y="444" width="87" height="160" fill="rgb(255, 0, 0)" /><rect x="143" y="334" width="173" height="145" fill="rgb(0, 0, 255)" /><polygon points="972,767 767,1337 128,661 707,1348 1100,718 458,1197" fill="rgb(0, 0, 255)" /><circle cx="581" cy="1010" r="41" fill="rgb(255, 255, 0)" /><circle cx="140" cy="434" r="64" fill="rgb(255, 0, 0)" /><circle cx="182" cy="1027" r="68" fill="rgb(255, 255, 0)" /><polygon points="375,1058 677,184 477,83 370,895 1024,1487" fill="rgb(0, 0, 255)" /><circle cx="389" cy="430" r="26" fill="rgb(0, 0, 0)" /><polygon points="390,1026 838,200 524,52" fill="rgb(0, 0, 255)" /><rect x="846" y="234" width="113" height="103" fill="rgb(0, 0, 0)" /><circle cx="902" cy="108" r="88" fill="rgb(0, 0, 0)" /><circle cx="192" cy="1023" r="44" fill="rgb(255, 0, 0)" /><polygon points="1083,633 211,1205 238,850 562,912" fill="rgb(255, 0, 0)" /><rect x="645" y="63" width="151" height="160" fill="rgb(255, 255, 0)" /><rect x="224" y="1129" width="128" height="199" fill="rgb(0, 0, 255)" /><polygon points="340,888 285,892 447,1213 1077,1307" fill="rgb(0, 0, 255)" /><circle cx="346" cy="289" r="25" fill="rgb(0, 0, 0)" /><polygon points="429,1192 369,769 424,717" fill="rgb(255, 0, 0)" /><circle cx="339" cy="1448" r="77" fill="rgb(255, 255, 0)" /><rect x="123" y="149" width="105" height="134" fill="rgb(255, 0, 0)" /><polygon points="405,829 642,1084 149,748 149,359 857,126 920,1106" fill="rgb(255, 255, 0)" /><circle cx="768" cy="752" r="63" fill="rgb(0, 0, 255)" /><circle cx="337" cy="49" r="93" fill="rgb(255, 255, 0)" /><circle cx="94" cy="972" r="93" fill="rgb(0, 0, 255)" /><rect x="410" y="1304" width="118" height="155" fill="rgb(255, 0, 0)" /><rect x="1046" y="229" width="193" height="138" fill="rgb(255, 255, 0)" /><polygon points="997,1370 643,1410 733,1016 1093,1276" fill="rgb(255, 255, 0)" /><rect x="218" y="571" width="189" height="119" fill="rgb(0, 0, 0)" /><rect x="763" y="1108" width="198" height="138" fill="rgb(0, 0, 255)" /><circle cx="405" cy="228" r="68" fill="rgb(0, 0, 255)" /><circle cx="882" cy="1335" r="89" fill="rgb(255, 255, 0)" /><polygon points="984,1409 976,410 906,243 727,321 613,208 781,35" fill="rgb(255, 0, 0)" /><rect x="555" y="193" width="65" height="193" fill="rgb(0, 0, 255)" /><polygon points="641,1031 903,590 492,608" fill="rgb(255, 255, 0)" /><rect x="963" y="573" width="182" height="111" fill="rgb(255, 255, 0)" /><polygon points="633,1309 600,1160 188,722 962,734 438,47 1084,1175" fill="rgb(255, 255, 0)" /><circle cx="710" cy="974" r="58" fill="rgb(0, 0, 0)" /><rect x="828" y="803" width="121" height="126" fill="rgb(0, 0, 255)" /><circle cx="481" cy="1341" r="57" fill="rgb(255, 0, 0)" /><circle cx="333" cy="1029" r="68" fill="rgb(255, 255, 0)" /><circle cx="934" cy="144" r="27" fill="rgb(255, 0, 0)" /><polygon points="717,335 691,549 778,257 870,799 673,154" fill="rgb(255, 0, 0)" /><circle cx="22" cy="378" r="78" fill="rgb(255, 0, 0)" /><rect x="752" y="199" width="106" height="169" fill="rgb(0, 0, 0)" /><circle cx="572" cy="226" r="21" fill="rgb(0, 0, 0)" /><rect x="420" y="1285" width="180" height="109" fill="rgb(255, 0, 0)" /><circle cx="220" cy="969" r="99" fill="rgb(255, 255, 0)" /><polygon points="82,970 269,1305 381,602" fill="rgb(255, 0, 0)" /><circle cx="201" cy="615" r="76" fill="rgb(255, 0, 0)" /><circle cx="425" cy="709" r="88" fill="rgb(255, 0, 0)" /><polygon points="110,578 947,526 346,199 799,94" fill="rgb(255, 255, 0)" /><polygon points="18,195 769,839 900,69 1082,1433 16,126 108,1317" fill="rgb(255, 255, 0)" /><polygon points="1033,872 829,98 219,310 861,146" fill="rgb(255, 255, 0)" /><rect x="682" y="380" width="57" height="78" fill="rgb(0, 0, 255)" /><rect x="867" y="1046" width="98" height="192" fill="rgb(0, 0, 255)" /><polygon points="732,1214 253,783 693,323 1067,31 710,325 736,1323" fill="rgb(255, 0, 0)" /><rect x="811" y="1239" width="75" height="92" fill="rgb(0, 0, 255)" /><rect x="563" y="238" width="179" height="173" fill="rgb(0, 0, 255)" /><circle cx="257" cy="1012" r="27" fill="rgb(0, 0, 0)" /><polygon points="926,599 126,336 367,1390 150,1034 131,163 344,766" fill="rgb(0, 0, 0)" /><polygon points="307,549 11,353 57,543 1093,1305 974,375 92,193" fill="rgb(0, 0, 255)" /><polygon points="192,1133 471,798 817,194 663,1308 607,390 483,1203" fill="rgb(255, 255, 0)" /><circle cx="58" cy="1042" r="78" fill="rgb(255, 255, 0)" /><rect x="370" y="153" width="71" height="178" fill="rgb(0, 0, 0)" /><circle cx="664" cy="42" r="88" fill="rgb(0, 0, 0)" /><polygon points="19,1317 564,1080 519,341" fill="rgb(0, 0, 255)" /><rect x="416" y="493" width="176" height="190" fill="rgb(0, 0, 0)" /><rect x="618" y="1085" width="75" height="154" fill="rgb(255, 255, 0)" /><circle cx="1006" cy="1312" r="78" fill="rgb(0, 0, 255)" /><rect x="626" y="1041" width="75" height="124" fill="rgb(255, 255, 0)" /><rect x="518" y="1155" width="111" height="129" fill="rgb(255, 0, 0)" /><circle cx="1038" cy="1302" r="22" fill="rgb(0, 0, 0)" /><polygon points="392,1494 56,274 176,1076" fill="rgb(255, 0, 0)" /><polygon points="343,1063 357,787 253,123 903,1253 559,828 323,1228" fill="rgb(0, 0, 255)" /><rect x="578" y="635" width="148" height="151" fill="rgb(255, 255, 0)" /><rect x="1089" y="1332" width="114" height="58" fill="rgb(0, 0, 0)" /><rect x="208" y="989" width="74" height="99" fill="rgb(255, 255, 0)" /><polygon points="18,825 1026,483 786,1233" fill="rgb(0, 0, 0)" /><rect x="456" y="179" width="75" height="132" fill="rgb(255, 0, 0)" /><circle cx="847" cy="1037" r="33" fill="rgb(255, 255, 0)" /><polygon points="947,701 828,1382 44,1385 860,239 343,77" fill="rgb(255, 255, 0)" /><rect x="95" y="1150" width="95" height="65" fill="rgb(255, 0, 0)" /><polygon points="103,296 644,794 241,1089 453,687 798,1180 309,594" fill="rgb(0, 0, 0)" /><polygon points="472,644 517,912 1052,118 266,954 614,857 557,1483" fill="rgb(0, 0, 0)" /><polygon points="800,346 345,571 633,59" fill="rgb(255, 0, 0)" /><polygon points="447,1222 465,651 865,1397 648,1227" fill="rgb(0, 0, 255)" /><rect x="583" y="936" width="61" height="133" fill="rgb(255, 0, 0)" /><polygon points="692,369 944,23 965,43 112,48" fill="rgb(255, 0, 0)" /></svg>