<svg xmlns="http://www.w3.org/2000/svg" width="1101" height="1500"><polygon points="241,906 923,1419 201,708" fill="rgb(255, 255, 0)" /><rect x="913" y="411" width="187" height="54" fill="rgb(255, 0, 0)" /><polygon points="523,990 1021,900 634,423" fill="rgb(0, 0, 255)" /><circle cx="693" cy="393" r="40" fill="rgb(0, 0, 0)" /><circle cx="264" cy="113" r="65" fill="rgb(255, 0, 0)" /><circle cx="166" cy="1486" r="72" fill="rgb(255, 0, 0)" /><polygon points="340,632 198,16 493,368" fill="rgb(0, 0, 0)" /><rect x="320" y="700" width="136" height="60" fill="rgb(255, 255, 0)" /><circle cx="513" cy="852" r="30" fill="rgb(0, 0, 0)" /><circle cx="206" cy="1298" r="77" fill="rgb(0, 0, 255)" /><circle cx="307" cy="818" r="39" fill="rgb(0, 0, 255)" /><circle cx="737" cy="1164" r="94" fill="rgb(255, 0, 0)" /><circle cx="897" cy="1285" r="100" fill="rgb(255, 255, 0)" /><polygon points="717,187 230,1301 150,1006 182,1465 502,900 133,1250" fill="rgb(255, 255, 0)" /><circle cx="1080" cy="1409" r="29" fill="rgb(0, 0, 0)" /><circle cx="110" cy="563" r="54" fill="rgb(0, 0, 0)" /><polygon points="775,1021 392,833 229,250 589,257" fill="rgb(255, 255, 0)" /><rect x="1090" y="1344" width="161" height="160" fill="rgb(0, 0, 255)" /><rect x="1067" y="95" width="177" height="159" fill="rgb(0, 0, 0)" /><circle cx="613" cy="99" r="22" fill="rgb(255, 255, 0)" /><rect x="778" y="1334" width="134" height="88" fill="rgb(255, 255, 0)" /><rect x="939" y="487" width="86" height="95" fill="rgb(0, 0, 255)" /><rect x="495" y="75" width="150" height="91" fill="rgb(0, 0, 255)" /><rect x="430" y="645" width="85" height="131" fill="rgb(0, 0, 255)" /><rect x="332" y="1039" width="133" height="188" fill="rgb(255, 255, 0)" /><rect x="1083" y="1196" width="128" height="132" fill="rgb(255, 255, 0)" /><circle cx="152" cy="454" r="20" fill="rgb(0, 0, 255)" /><circle cx="733" cy="161" r="96" fill="rgb(0, 0, 255)" /><circle cx="257" cy="401" r="55" fill="rgb(0, 0, 255)" /><rect x="983" y="1455" width="109" height="93" fill="rgb(0, 0, 255)" /><rect x="309" y="554" width="127" height="169" fill="rgb(0, 0, 0)" /><rect x="822" y="650" width="122" height="180" fill="rgb(255, 255, 0)" /><circle cx="508" cy="789" r="47" fill="rgb(0, 0, 0)" /><circle cx="368" cy="789" r="54" fill="rgb(255, 255, 0)" /><circle cx="140" cy="615" r="33" fill="rgb(0, 0, 255)" /><rect x="923" y="188" width="125" height="165" fill="rgb(255, 0, 0)" /><circle cx="454" cy="1078" r="75" fill="rgb(0, 0, 0)" /><rect x="629" y="419" width="189" height="167" fill="rgb(255, 0, 0)" /><circle cx="1079" cy="1052" r="31" fill="rgb(255, 255, 0)" /><rect x="362" y="521" width="62" height="56" fill="rgb(255, 255, 0)" /><rect x="338" y="1056" width="93" height="51" fill="rgb(255, 0, 0)" /><circle cx="702" cy="870" r="21" fill="rgb(255, 255, 0)" /><circle cx="53" cy="1039" r="40" fill="rgb(0, 0, 0)" /><circle cx="586" cy="514" r="33" fill="rgb(0, 0, 0)" /><rect x="90" y="787" width="132" height="142" fill="rgb(0, 0, 0)" /><circle cx="427" cy="594" r="84" fill="rgb(255, 0, 0)" /><circle cx="20" cy="337" r="60" fill="rgb(255, 255, 0)" /><polygon points="553,648 833,1498 161,293 260,416 890,1419 584,1257" fill="rgb(0, 0, 0)" /><rect x="1039" y="237" width="52" height="193" fill="rgb(255, 255, 0)" /><rect x="825" y="293" width="78" height="133" fill="rgb(255, 255, 0)" /><polygon points="1045,964 835,1462 386,589" fill="rgb(255, 0, 0)" /><circle cx="1070" cy="169" r="35" fill="rgb(0, 0, 255)" /><circle cx="949" cy="706" r="96" fill="rgb(0, 0, 255)" /><circle cx="26" cy="1430" r="22" fill="rgb(0, 0, 255)" /><circle cx="765" cy="118" r="71" fill="rgb(0, 0, 255)" /><circle cx="788" cy="22" r="32" fill="rgb(255, 255, 0)" /><rect x="123" y="19" width="126" height="119" fill="rgb(0, 0, 0)" /><circle cx="475" cy="668" r="60" fill="rgb(255, 0, 0)" /><circle cx="1027" cy="285" r="62" fill="rgb(0, 0, 0)" /><polygon points="808,483 454,1010 142,1371 329,953 1087,1347 939,1206" fill="rgb(0, 0, 255)" /><circle cx="420" cy="52" r="97" fill="rgb(0, 0, 0)" /><circle cx="510" cy="678" r="89" fill="rgb(0, 0, 0)" /><polygon points="128,1488 89,1461 95,412 940,569" fill="rgb(0, 0, 255)" /><polygon points="565,170 572,1433 43,1060 549,1292" fill="rgb(255, 255, 0)" /><circle cx="122" cy="831" r="76" fill="rgb(0, 0, 255)" /><polygon points="217,949 27,765 417,245 698,596" fill="rgb(0, 0, 255)" /><circle cx="311" cy="251" r="88" fill="rgb(255, 255, 0)" /><polygon points="574,177 717,1286 50,1189 642,53 9,1211" fill="rgb(255, 0, 0)" /><circle cx="420" cy="18" r="27" fill="rgb(0, 0, 255)" /><polygon points="439,304 22,148 288,938" fill="rgb(0, 0, 0)" /><circle cx="13" cy="1473" r="85" fill="rgb(0, 0, 0)" /><polygon points="472,498 610,908 209,594" fill="rgb(0, 0, 0)" /><circle cx="868" cy="795" r="68" fill="rgb(255, 255, 0)" /><polygon points="180,1140 117,1155 210,1118" fill="rgb(255, 255, 0)" /><rect x="556" y="583" width="146" height="188" fill="rgb(255, 0, 0)" /><polygon points="386,373 555,137 224,638" fill="rgb(255, 255, 0)" /><circle cx="308" cy="194" r="45" fill="rgb(0, 0, 0)" /><circle cx="280" cy="1274" r="47" fill="rgb(0, 0, 255)" /><polygon points="927,831 940,1478 404,1198 52,14" fill="rgb(0, 0, 0)" /><rect x="930" y="966" width="156" height="87" fill="rgb(0, 0, 0)" /><rect x="714" y="587" width="83" height="191" fill="rgb(0, 0, 255)" /><circle cx="870" cy="1207" r="53" fill="rgb(255, 0, 0)" /><polygon points="253,127 211,656 685,261" fill="rgb(255, 255, 0)" /><rect x="816" y="303" width="84" height="73" fill="rgb(255, 0, 0)" /><circle cx="1072" cy="1199" r="58" fill="rgb(255, 255, 0)" /><polygon points="573,1325 233,983 886,869 521,611" fill="rgb(0, 0, 0)" /><rect x="444" y="837" width="57" height="53" fill="rgb(0, 0, 255)" /><polygon points="229,1019 631,782 183,1351 1018,798" fill="rgb(255, 255, 0)" /><polygon points="204,217 820,697 597,982 217,656 70,1001 334,340" fill="rgb(0, 0, 0)" /><circle cx="148" cy="463" r="23" fill="rgb(255, 0, 0)" /><polygon points="227,1076 411,432 473,563 736,327 222,971 676,530" fill="rgb(255, 0, 0)" /><polygon points="84,229 306,1341 826,121" fill="rgb(255, 255, 0)" /><rect x="6" y="138" width="168" height="180" fill="rgb(255, 255, 0)" /><polygon points="1074,390 271,1238 354,406 857,735 779,677 138,18" fill="rgb(255, 255, 0)" /><circle cx="615" cy="192" r="20" fill="rgb(0, 0, 0)" /><rect x="411" y="1485" width="127" height="148" fill="rgb(255, 255, 0)" /><polygon points="760,1081 287,1289 1089,1292 1005,155" fill="rgb(255, 255, 0)" /><polygon points="629,148 361,1006 414,912 218,955 948,920" fill="rgb(255, 0, 0)" /><circle cx="592" cy="719" r="79" fill="rgb(255, 0, 0)" /><rect x="842" y="37" width="136" height="143" fill="rgb(0, 0, 0)" /><circle cx="607" cy="1216" r="47" fill="rgb(0, 0, 255)" /><polygon points="932,1100 1083,1319 1098,89 13,326 471,689 1052,167" fill="rgb(0, 0, 0)" /><rect x="800" y="570" width="74" height="127" fill="rgb(0, 0, 255)" /><rect x="213" y="1011" width="74" height="132" fill="rgb(255, 0, 0)" /><circle cx="893" cy="756" r="22" fill="rgb(255, 0, 0)" /><polygon points="129,562 770,1440 877,1233 1065,84" fill="rgb(255, 0, 0)" /><rect x="915" y="733" width="89" height="87" fill="rgb(0, 0, 0)" /><circle cx="399" cy="1075" r="28" fill="rgb(255, 255, 0)" /><rect x="257" y="871" width="108" height="118" fill="rgb(255, 0, 0)" /><circle cx="935" cy="1401" r="97" fill="rgb(255, 0, 0)" /><rect x="671" y="1448" width="93" height="70" fill="rgb(0, 0, 0)" /><circle cx="743" cy="40" r="36" fill="rgb(0, 0, 255)" /><polygon points="445,861 481,1343 460,847" fill="rgb(0, 0, 0)" /><polygon points="896,246 1090,287 867,669 156,445" fill="rgb(0, 0, 0)" /></svg>