<svg xmlns="http://www.w3.org/2000/svg" width="1101" height="1500"><rect x="879" y="1143" width="137" height="66" fill="rgb(0, 0, 255)" /><circle cx="729" cy="221" r="54" fill="rgb(0, 0, 0)" /><circle cx="400" cy="1423" r="80" fill="rgb(0, 0, 255)" /><rect x="499" y="1359" width="152" height="121" fill="rgb(255, 255, 0)" /><rect x="398" y="140" width="146" height="196" fill="rgb(255, 255, 0)" /><polygon points="600,497 310,860 280,1068 599,334 471,563 729,460" fill="rgb(0, 0, 255)" /><rect x="80" y="135" width="108" height="84" fill="rgb(0, 0, 0)" /><circle cx="981" cy="335" r="87" fill="rgb(0, 0, 0)" /><circle cx="105" cy="383" r="91" fill="rgb(0, 0, 255)" /><circle cx="268" cy="145" r="99" fill="rgb(0, 0, 255)" /><polygon points="1072,1026 211,1246 578,643 1088,1464" fill="rgb(255, 0, 0)" /><circle cx="462" cy="1055" r="57" fill="rgb(255, 0, 0)" /><circle cx="1093" cy="790" r="44" fill="rgb(255, 0, 0)" /><circle cx="201" cy="83" r="57" fill="rgb(255, 255, 0)" /><polygon points="660,131 754,271 922,969" fill="rgb(255, 0, 0)" /><circle cx="221" cy="323" r="71" fill="rgb(255, 0, 0)" /><rect x="42" y="1134" width="106" height="117" fill="rgb(255, 0, 0)" /><polygon points="983,223 1062,410 727,946 146,789" fill="rgb(255, 0, 0)" /><rect x="666" y="1409" width="79" height="199" fill="rgb(255, 0, 0)" /><rect x="255" y="243" width="91" height="63" fill="rgb(255, 0, 0)" /><circle cx="888" cy="353" r="22" fill="rgb(0, 0, 0)" /><circle cx="639" cy="750" r="93" fill="rgb(0, 0, 255)" /><circle cx="426" cy="1198" r="85" fill="rgb(255, 255, 0)" /><circle cx="1072" cy="1406" r="35" fill="rgb(255, 255, 0)" /><rect x="157" y="487" width="65" height="100" fill="rgb(0, 0, 255)" /><rect x="102" y="844" width="112" height="64" fill="rgb(255, 255, 0)" /><polygon points="741,809 1067,1282 138,1486 740,3" fill="rgb(0, 0, 0)" /><circle cx="166" cy="792" r="52" fill="rgb(255, 0, 0)" /><circle cx="140" cy="119" r="40" fill="rgb(255, 255, 0)" /><polygon points="406,592 399,581 805,599 867,679 941,1495 150,234" fill="rgb(255, 0, 0)" /><circle cx="820" cy="531" r="30" fill="rgb(0, 0, 0)" /><polygon points="626,164 1022,872 304,757 638,219" fill="rgb(255, 255, 0)" /><rect x="37" y="458" width="156" height="112" fill="rgb(255, 0, 0)" /><circle cx="941" cy="642" r="95" fill="rgb(255, 255, 0)" /></svg>