<svg xmlns="http://www.w3.org/2000/svg" width="1101" height="1500"><rect x="445" y="1333" width="187" height="157" fill="rgb(255, 255, 0)" /><circle cx="468" cy="144" r="97" fill="rgb(0, 0, 0)" /><polygon points="632,1366 881,721 893,641 160,693 952,1211" fill="rgb(255, 0, 0)" /><rect x="295" y="1270" width="186" height="187" fill="rgb(255, 0, 0)" /><rect x="24" y="1209" width="174" height="57" fill="rgb(255, 0, 0)" /><rect x="786" y="1211" width="76" height="132" fill="rgb(255, 0, 0)" /><rect x="757" y="123" width="188" height="194" fill="rgb(255, 0, 0)" /><circle cx="378" cy="1483" r="21" fill="rgb(255, 0, 0)" /><rect x="952" y="719" width="86" height="159" fill="rgb(0, 0, 255)" /><polygon points="800,1449 76,31 306,1193 209,814" fill="rgb(255, 0, 0)" /><rect x="624" y="778" width="69" height="111" fill="rgb(0, 0, 255)" /><rect x="648" y="252" width="117" height="92" fill="rgb(0, 0, 0)" /><rect x="496" y="1286" width="185" height="116" fill="rgb(0, 0, 255)" /><rect x="992" y="1004" width="70" height="142" fill="rgb(255, 0, 0)" /><circle cx="256" cy="202" r="30" fill="rgb(0, 0, 255)" /><polygon points="747,553 925,71 757,1487 683,308" fill="rgb(255, 0, 0)" /><polygon points="212,662 138,1030 939,716" fill="rgb(0, 0, 255)" /><rect x="759" y="515" width="165" height="168" fill="rgb(255, 255, 0)" /><polygon points="607,234 1070,640 463,1059 604,1457 332,48 513,1181" fill="rgb(255, 255, 0)" /><polygon points="42,567 124,639 267,97 217,1485 1067,347" fill="rgb(0, 0, 0)" /><circle cx="357" cy="1202" r="77" fill="rgb(0, 0, 0)" /><polygon points="168,164 682,616 774,51 741,474 281,281" fill="rgb(255, 255, 0)" /></svg>