<svg xmlns="http://www.w3.org/2000/svg" width="1101" height="1500"><circle cx="859" cy="984" r="93" fill="rgb(0, 0, 255)" /><polygon points="778,1033 425,1396 1088,705 209,141 246,488 985,8" fill="rgb(255, 255, 0)" /><rect x="30" y="748" width="162" height="175" fill="rgb(255, 0, 0)" /><circle cx="37" cy="1344" r="24" fill="rgb(0, 0, 255)" /><circle cx="467" cy="1194" r="47" fill="rgb(255, 0, 0)" /><polygon points="426,254 421,629 151,515 156,232 55,53 464,1123" fill="rgb(255, 0, 0)" /><rect x="366" y="313" width="62" height="157" fill="rgb(0, 0, 0)" /><rect x="660" y="796" width="50" height="63" fill="rgb(255, 0, 0)" /><polygon points="736,1260 390,805 711,1137 42,573 692,1057" fill="rgb(255, 255, 0)" /><polygon points="56,197 519,968 889,18 882,99 44,964 845,684" fill="rgb(255, 255, 0)" /><polygon points="702,1159 235,984 708,881 971,1145 943,1076 261,1245" fill="rgb(0, 0, 0)" /><rect x="455" y="1080" width="197" height="196" fill="rgb(255, 0, 0)" /></svg>