<svg xmlns="http://www.w3.org/2000/svg" width="1101" height="1500"><rect x="289" y="1223" width="187" height="192" fill="rgb(255, 0, 0)" /><rect x="826" y="1360" width="85" height="92" fill="rgb(255, 0, 0)" /><circle cx="223" cy="565" r="45" fill="rgb(0, 0, 255)" /><rect x="136" y="139" width="77" height="107" fill="rgb(255, 0, 0)" /><circle cx="269" cy="630" r="94" fill="rgb(0, 0, 255)" /><circle cx="1070" cy="945" r="25" fill="rgb(0, 0, 0)" /><circle cx="633" cy="1309" r="30" fill="rgb(255, 255, 0)" /><rect x="384" y="642" width="119" height="75" fill="rgb(255, 0, 0)" /><polygon points="495,191 211,730 323,1139" fill="rgb(255, 255, 0)" /><rect x="1100" y="559" width="102" height="81" fill="rgb(255, 0, 0)" /><polygon points="204,236 944,997 975,345 921,853" fill="rgb(255, 0, 0)" /><circle cx="104" cy="151" r="81" fill="rgb(255, 255, 0)" /><polygon points="948,828 512,39 506,1232" fill="rgb(255, 255, 0)" /><circle cx="285" cy="991" r="88" fill="rgb(0, 0, 255)" /><circle cx="706" cy="832" r="20" fill="rgb(255, 255, 0)" /><polygon points="584,763 207,495 533,286 1003,418 454,293 42,1481" fill="rgb(255, 255, 0)" /><rect x="279" y="121" width="197" height="110" fill="rgb(0, 0, 0)" /><rect x="81" y="569" width="96" height="93" fill="rgb(255, 0, 0)" /><rect x="455" y="757" width="125" height="159" fill="rgb(255, 0, 0)" /><rect x="1021" y="133" width="105" height="73" fill="rgb(0, 0, 0)" /><circle cx="856" cy="1352" r="78" fill="rgb(255, 0, 0)" /><rect x="678" y="726" width="64" height="81" fill="rgb(0, 0, 255)" /><rect x="191" y="511" width="172" height="76" fill="rgb(0, 0, 255)" /><polygon points="174,548 653,327 536,1098 1099,900" fill="rgb(255, 0, 0)" /><polygon points="273,1422 744,999 980,88" fill="rgb(0, 0, 0)" /><circle cx="1086" cy="1460" r="30" fill="rgb(0, 0, 255)" /><polygon points="952,1341 123,172 1039,773 888,328 866,1208" fill="rgb(0, 0, 255)" /><polygon points="548,1170 162,370 119,46 147,298" fill="rgb(0, 0, 0)" /><polygon points="486,82 305,240 37,602 1080,555 737,1081 426,1209" fill="rgb(255, 0, 0)" /><circle cx="269" cy="109" r="71" fill="rgb(0, 0, 0)" /><circle cx="932" cy="76" r="22" fill="rgb(255, 0, 0)" /><polygon points="543,645 172,1376 36,995" fill="rgb(0, 0, 255)" /><circle cx="69" cy="406" r="94" fill="rgb(0, 0, 255)" /><polygon points="128,906 838,340 539,888" fill="rgb(255, 0, 0)" /><circle cx="719" cy="853" r="60" fill="rgb(0, 0, 0)" /><rect x="1013" y="721" width="70" height="118" fill="rgb(255, 0, 0)" /><circle cx="658" cy="112" r="29" fill="rgb(0, 0, 0)" /><polygon points="3,1359 1047,437 571,381 673,356 415,930" fill="rgb(255, 0, 0)" /><circle cx="182" cy="195" r="88" fill="rgb(0, 0, 255)" /><polygon points="991,228 1023,173 639,696 544,76 557,1355 381,854" fill="rgb(255, 255, 0)" /><circle cx="111" cy="548" r="65" fill="rgb(0, 0, 255)" /><polygon points="24,329 851,1224 850,641 991,437 91,1134" fill="rgb(255, 0, 0)" /><circle cx="192" cy="989" r="77" fill="rgb(0, 0, 0)" /><polygon points="799,499 814,1265 148,740" fill="rgb(0, 0, 0)" /><rect x="75" y="299" width="88" height="93" fill="rgb(0, 0, 255)" /><polygon points="908,363 821,1016 300,399 849,676 450,1223 197,83" fill="rgb(0, 0, 255)" /><rect x="991" y="1269" width="170" height="138" fill="rgb(255, 0, 0)" /><polygon points="373,1238 102,767 655,143 1036,71 741,1163" fill="rgb(0, 0, 255)" /><polygon points="204,207 579,509 478,749 365,1339 655,724 248,3" fill="rgb(255, 255, 0)" /><circle cx="559" cy="759" r="86" fill="rgb(255, 0, 0)" /><circle cx="892" cy="672" r="58" fill="rgb(0, 0, 255)" /><circle cx="671" cy="1190" r="97" fill="rgb(255, 255, 0)" /><rect x="284" y="1049" width="162" height="188" fill="rgb(0, 0, 0)" /><polygon points="237,1426 967,981 185,893" fill="rgb(0, 0, 255)" /><polygon points="430,980 733,296 1047,717 134,1117" fill="rgb(255, 255, 0)" /><circle cx="336" cy="982" r="64" fill="rgb(255, 0, 0)" /><rect x="842" y="1426" width="194" height="114" fill="rgb(255, 0, 0)" /><polygon points="134,1327 635,1155 998,737" fill="rgb(255, 255, 0)" /><circle cx="729" cy="1086" r="46" fill="rgb(255, 0, 0)" /><polygon points="31,997 101,217 283,1400 203,1299" fill="rgb(0, 0, 255)" /><polygon points="902,1119 662,485 589,910 802,1106 393,1193" fill="rgb(0, 0, 255)" /><polygon points="414,363 122,791 292,1226" fill="rgb(255, 0, 0)" /><circle cx="133" cy="51" r="48" fill="rgb(0, 0, 0)" /><polygon points="983,1387 823,991 499,189 756,173 1097,909 60,296" fill="rgb(255, 255, 0)" /><rect x="371" y="441" width="58" height="107" fill="rgb(0, 0, 0)" /><circle cx="105" cy="1333" r="53" fill="rgb(0, 0, 0)" /><circle cx="401" cy="683" r="78" fill="rgb(255, 255, 0)" /><rect x="797" y="1431" width="148" height="199" fill="rgb(0, 0, 255)" /><circle cx="859" cy="1010" r="96" fill="rgb(255, 0, 0)" /><polygon points="1027,1143 371,1340 587,5 557,763" fill="rgb(255, 0, 0)" /><circle cx="94" cy="141" r="80" fill="rgb(255, 0, 0)" /><polygon points="236,407 490,942 970,784 882,681" fill="rgb(0, 0, 0)" /><circle cx="945" cy="1096" r="83" fill="rgb(0, 0, 0)" /><polygon points="83,1257 770,1470 757,1100 58,53" fill="rgb(255, 255, 0)" /><rect x="36" y="755" width="108" height="119" fill="rgb(255, 255, 0)" /><rect x="465" y="117" width="90" height="97" fill="rgb(0, 0, 255)" /><rect x="984" y="761" width="160" height="133" fill="rgb(255, 0, 0)" /><polygon points="833,789 84,1400 396,459" fill="rgb(0, 0, 0)" /><polygon points="924,955 160,1031 544,104 879,1053 593,1064" fill="rgb(255, 0, 0)" /><rect x="419" y="1138" width="195" height="89" fill="rgb(255, 255, 0)" /><rect x="920" y="539" width="149" height="141" fill="rgb(0, 0, 0)" /><polygon points="41,853 841,823 892,882 104,1204 33,65" fill="rgb(255, 0, 0)" /><circle cx="928" cy="843" r="62" fill="rgb(0, 0, 0)" /><circle cx="298" cy="309" r="92" fill="rgb(0, 0, 0)" /><polygon points="431,1477 516,492 615,13 542,790 675,909 73,875" fill="rgb(0, 0, 255)" /><rect x="646" y="1195" width="80" height="133" fill="rgb(0, 0, 0)" /><circle cx="485" cy="1068" r="36" fill="rgb(255, 0, 0)" /><rect x="62" y="891" width="179" height="156" fill="rgb(255, 255, 0)" /><circle cx="74" cy="1441" r="76" fill="rgb(255, 0, 0)" /><polygon points="901,524 1028,880 199,683 463,920 1055,1492 548,504" fill="rgb(0, 0, 255)" /><rect x="400" y="662" width="142" height="78" fill="rgb(255, 0, 0)" /><polygon points="113,1151 638,541 128,1094 803,1188 816,1199 304,1122" fill="rgb(255, 0, 0)" /><circle cx="21" cy="1225" r="62" fill="rgb(0, 0, 255)" /><polygon points="103,1095 898,408 224,1022 345,848 599,672 535,1340" fill="rgb(0, 0, 0)" /><circle cx="724" cy="894" r="44" fill="rgb(0, 0, 255)" /><polygon points="291,615 1074,426 1017,1255" fill="rgb(0, 0, 255)" /><circle cx="119" cy="439" r="67" fill="rgb(0, 0, 255)" /><polygon points="969,998 397,1129 57,911 472,36" fill="rgb(0, 0, 255)" /><circle cx="576" cy="302" r="92" fill="rgb(255, 0, 0)" /><circle cx="876" cy="972" r="50" fill="rgb(255, 255, 0)" /><circle cx="261" cy="520" r="87" fill="rgb(255, 0, 0)" /><circle cx="1090" cy="214" r="71" fill="rgb(255, 255, 0)" /><polygon points="356,918 873,1059 933,633" fill="rgb(0, 0, 0)" /><rect x="605" y="489" width="61" height="139" fill="rgb(0, 0, 255)" /><polygon points="359,1127 210,728 467,784 997,717 324,401" fill="rgb(0, 0, 0)" /><polygon points="320,1152 569,735 752,989 306,176 166,230 528,1151" fill="rgb(0, 0, 0)" /><polygon points="1082,1455 188,950 477,276" fill="rgb(0, 0, 255)" /><rect x="13" y="1297" width="78" height="84" fill="rgb(0, 0, 0)" /><rect x="924" y="252" width="116" height="167" fill="rgb(255, 255, 0)" /><polygon points="112,1489 909,951 813,234" fill="rgb(0, 0, 255)" /><rect x="217" y="898" width="186" height="197" fill="rgb(255, 255, 0)" /><polygon points="262,1298 143,86 899,828 335,1248" fill="rgb(255, 0, 0)" /><polygon points="185,1384 795,1251 547,230 279,1360" fill="rgb(0, 0, 255)" /><polygon points="1047,540 910,1279 863,1443" fill="rgb(0, 0, 0)" /><rect x="386" y="1260" width="59" height="141" fill="rgb(255, 0, 0)" /><circle cx="1038" cy="881" r="21" fill="rgb(255, 255, 0)" /><circle cx="1010" cy="292" r="64" fill="rgb(255, 0, 0)" /><polygon points="670,371 782,1216 546,796 839,1257 726,22" fill="rgb(255, 255, 0)" /><rect x="1091" y="582" width="115" height="96" fill="rgb(0, 0, 255)" /><rect x="40" y="1269" width="122" height="75" fill="rgb(255, 255, 0)" /><rect x="347" y="828" width="59" height="124" fill="rgb(255, 255, 0)" /><rect x="1098" y="1231" width="61" height="89" fill="rgb(0, 0, 255)" /><rect x="680" y="708" width="182" height="81" fill="rgb(255, 0, 0)" /><circle cx="596" cy="207" r="46" fill="rgb(0, 0, 0)" /><polygon points="660,1229 941,400 953,163 873,1450" fill="rgb(255, 0, 0)" /><circle cx="831" cy="1386" r="73" fill="rgb(0, 0, 0)" /><circle cx="546" cy="561" r="82" fill="rgb(0, 0, 0)" /><circle cx="337" cy="12" r="41" fill="rgb(255, 255, 0)" /><polygon points="132,1215 688,1228 428,664 744,47" fill="rgb(0, 0, 0)" /><circle cx="830" cy="1083" r="59" fill="rgb(255, 0, 0)" /><circle cx="216" cy="956" r="20" fill="rgb(255, 255, 0)" /><polygon points="476,1368 73,464 97,1498 288,502 748,123 520,249" fill="rgb(255, 0, 0)" /><rect x="1072" y="794" width="160" height="128" fill="rgb(255, 255, 0)" /><polygon points="348,625 962,834 950,81 274,935 1002,252" fill="rgb(0, 0, 0)" /><polygon points="199,977 542,1059 193,717 443,368 55,415" fill="rgb(255, 0, 0)" /><rect x="923" y="1183" width="162" height="66" fill="rgb(0, 0, 0)" /><rect x="320" y="550" width="122" height="195" fill="rgb(0, 0, 0)" /><polygon points="89,911 167,748 805,1369 157,756 546,1003" fill="rgb(255, 0, 0)" /><rect x="77" y="415" width="69" height="115" fill="rgb(0, 0, 0)" /><polygon points="722,863 627,806 918,619" fill="rgb(255, 255, 0)" /><polygon points="282,565 136,1002 55,921" fill="rgb(255, 255, 0)" /><rect x="772" y="808" width="160" height="169" fill="rgb(0, 0, 0)" /><circle cx="323" cy="639" r="91" fill="rgb(0, 0, 0)" /><rect x="531" y="962" width="116" height="186" fill="rgb(255, 0, 0)" /><rect x="1022" y="530" width="180" height="190" fill="rgb(255, 0, 0)" /><polygon points="129,1125 93,971 701,1344 64,401 791,1197" fill="rgb(0, 0, 0)" /><polygon points="436,1113 98,1201 753,467 16,596 480,1194" fill="rgb(0, 0, 255)" /><circle cx="445" cy="1091" r="56" fill="rgb(0, 0, 255)" /><circle cx="29" cy="680" r="26" fill="rgb(0, 0, 0)" /><circle cx="789" cy="1220" r="75" fill="rgb(0, 0, 255)" /><polygon points="451,858 727,1483 1076,603 213,1087" fill="rgb(0, 0, 0)" /><rect x="279" y="1360" width="171" height="160" fill="rgb(0, 0, 0)" /><circle cx="134" cy="1471" r="69" fill="rgb(255, 255, 0)" /><polygon points="410,1500 1017,995 428,299" fill="rgb(0, 0, 0)" /><circle cx="86" cy="918" r="41" fill="rgb(0, 0, 255)" /><polygon points="595,293 182,900 370,803 949,880 739,1430" fill="rgb(255, 255, 0)" /><polygon points="779,1342 554,1017 527,442 592,859 1041,1274 397,56" fill="rgb(255, 0, 0)" /><circle cx="442" cy="1486" r="45" fill="rgb(0, 0, 255)" /><circle cx="832" cy="1246" r="100" fill="rgb(0, 0, 255)" /><polygon points="410,998 214,836 971,199" fill="rgb(255, 0, 0)" /><circle cx="479" cy="849" r="81" fill="rgb(0, 0, 0)" /><rect x="1100" y="391" width="139" height="164" fill="rgb(0, 0, 255)" /><rect x="1067" y="300" width="60" height="162" fill="rgb(255, 255, 0)" /><circle cx="578" cy="1238" r="56" fill="rgb(255, 255, 0)" /><rect x="447" y="266" width="142" height="118" fill="rgb(255, 0, 0)" /><rect x="955" y="698" width="168" height="186" fill="rgb(0, 0, 255)" /><polygon points="116,905 572,555 475,963 786,544 555,941" fill="rgb(0, 0, 0)" /><polygon points="665,457 217,1339 671,1374 369,843" fill="rgb(255, 255, 0)" /><circle cx="107" cy="669" r="24" fill="rgb(255, 0, 0)" /><rect x="367" y="205" width="188" height="128" fill="rgb(0, 0, 255)" /><rect x="480" y="450" width="126" height="52" fill="rgb(255, 255, 0)" /><polygon points="785,424 622,859 1011,1388 655,1172 792,739" fill="rgb(255, 255, 0)" /><circle cx="458" cy="506" r="53" fill="rgb(255, 255, 0)" /><rect x="435" y="293" width="101" height="64" fill="rgb(0, 0, 255)" /><rect x="870" y="358" width="170" height="99" fill="rgb(0, 0, 0)" /><circle cx="185" cy="404" r="22" fill="rgb(255, 255, 0)" /><polygon points="876,570 659,1495 191,206 119,1347 778,283" fill="rgb(0, 0, 255)" /><circle cx="647" cy="258" r="22" fill="rgb(0, 0, 255)" /><polygon points="849,292 389,995 580,540 621,60" fill="rgb(255, 255, 0)" /><rect x="153" y="775" width="89" height="176" fill="rgb(255, 255, 0)" /><rect x="430" y="730" width="97" height="169" fill="rgb(255, 255, 0)" /><circle cx="759" cy="1072" r="93" fill="rgb(0, 0, 255)" /><rect x="428" y="1418" width="91" height="181" fill="rgb(255, 255, 0)" /><circle cx="908" cy="686" r="60" fill="rgb(0, 0, 0)" /><polygon points="744,471 63,961 660,645 437,1164" fill="rgb(255, 0, 0)" /><polygon points="1087,1410 656,120 153,970" fill="rgb(255, 255, 0)" /><circle cx="482" cy="1452" r="85" fill="rgb(255, 255, 0)" /><rect x="693" y="1139" width="159" height="57" fill="rgb(255, 255, 0)" /><polygon points="833,836 325,1157 565,817 456,624 871,667" fill="rgb(255, 0, 0)" /><circle cx="1077" cy="287" r="35" fill="rgb(0, 0, 255)" /><rect x="625" y="7" width="133" height="167" fill="rgb(255, 0, 0)" /><polygon points="543,1306 1084,834 439,901 146,1297 892,1236" fill="rgb(255, 255, 0)" /><polygon points="936,642 654,1218 526,121 884,587 243,155" fill="rgb(0, 0, 255)" /><polygon points="48,422 284,202 533,465 347,420" fill="rgb(255, 0, 0)" /><polygon points="1016,676 600,40 65,449 498,88 235,179 620,290" fill="rgb(0, 0, 255)" /><rect x="604" y="1210" width="131" height="92" fill="rgb(0, 0, 0)" /></svg>