<svg xmlns="http://www.w3.org/2000/svg" width="1101" height="1500"><polygon points="546,125 904,793 1081,960" fill="rgb(255, 255, 0)" /><circle cx="401" cy="767" r="89" fill="rgb(255, 255, 0)" /><rect x="361" y="777" width="117" height="116" fill="rgb(255, 0, 0)" /><rect x="578" y="175" width="178" height="191" fill="rgb(255, 255, 0)" /><circle cx="1011" cy="804" r="43" fill="rgb(255, 255, 0)" /><circle cx="352" cy="46" r="80" fill="rgb(0, 0, 0)" /><circle cx="687" cy="1025" r="49" fill="rgb(255, 0, 0)" /><rect x="546" y="504" width="70" height="143" fill="rgb(0, 0, 255)" /><polygon points="709,658 1044,673 870,536 877,1047" fill="rgb(255, 0, 0)" /><circle cx="578" cy="831" r="58" fill="rgb(0, 0, 0)" /><circle cx="595" cy="1029" r="29" fill="rgb(255, 255, 0)" /><rect x="305" y="1013" width="64" height="167" fill="rgb(255, 0, 0)" /><circle cx="374" cy="832" r="25" fill="rgb(0, 0, 255)" /><polygon points="151,425 821,564 831,984 160,493 97,1439 119,366" fill="rgb(255, 0, 0)" /><polygon points="1072,235 77,1347 869,993" fill="rgb(0, 0, 0)" /><circle cx="48" cy="1442" r="88" fill="rgb(255, 0, 0)" /><circle cx="322" cy="1488" r="50" fill="rgb(255, 0, 0)" /><circle cx="1039" cy="361" r="82" fill="rgb(0, 0, 255)" /><rect x="1068" y="1288" width="83" height="135" fill="rgb(255, 255, 0)" /><circle cx="722" cy="992" r="55" fill="rgb(255, 0, 0)" /><rect x="368" y="94" width="70" height="99" fill="rgb(255, 0, 0)" /><rect x="1030" y="990" width="171" height="182" fill="rgb(0, 0, 0)" /><circle cx="940" cy="179" r="100" fill="rgb(255, 0, 0)" /><circle cx="44" cy="189" r="73" fill="rgb(255, 255, 0)" /><rect x="898" y="626" width="195" height="79" fill="rgb(0, 0, 0)" /><polygon points="77,1142 1042,1073 454,79 531,1240" fill="rgb(0, 0, 0)" /><rect x="747" y="1226" width="147" height="58" fill="rgb(0, 0, 0)" /><rect x="70" y="1303" width="154" height="89" fill="rgb(0, 0, 0)" /><polygon points="668,108 638,137 481,508" fill="rgb(255, 0, 0)" /><circle cx="655" cy="409" r="40" fill="rgb(0, 0, 0)" /><rect x="754" y="735" width="109" height="97" fill="rgb(255, 255, 0)" /><polygon points="412,494 961,1341 484,1260 779,757" fill="rgb(255, 0, 0)" /><rect x="1067" y="1022" width="123" height="150" fill="rgb(0, 0, 255)" /><circle cx="280" cy="168" r="86" fill="rgb(255, 0, 0)" /><polygon points="164,16 87,100 384,906 793,654 1093,1074" fill="rgb(0, 0, 0)" /><rect x="188" y="284" width="73" height="76" fill="rgb(0, 0, 255)" /><circle cx="57" cy="189" r="89" fill="rgb(0, 0, 255)" /><polygon points="874,1254 150,743 58,340" fill="rgb(255, 255, 0)" /><polygon points="873,1124 917,1345 958,389 911,1238" fill="rgb(255, 255, 0)" /><polygon points="466,30 761,358 621,23" fill="rgb(255, 255, 0)" /><polygon points="773,848 555,1498 742,951" fill="rgb(255, 255, 0)" /><rect x="671" y="1015" width="66" height="53" fill="rgb(255, 0, 0)" /><polygon points="933,829 810,1368 906,509 78,1236 1033,213" fill="rgb(255, 0, 0)" /><circle cx="1092" cy="580" r="71" fill="rgb(255, 255, 0)" /><rect x="252" y="1248" width="188" height="112" fill="rgb(0, 0, 255)" /><rect x="691" y="629" width="135" height="98" fill="rgb(255, 0, 0)" /><circle cx="317" cy="124" r="51" fill="rgb(255, 0, 0)" /><rect x="432" y="383" width="137" height="183" fill="rgb(0, 0, 255)" /><polygon points="239,1085 1086,644 25,1139" fill="rgb(255, 255, 0)" /><polygon points="574,13 485,319 1016,843 1018,741 473,1293" fill="rgb(255, 0, 0)" /><rect x="905" y="1155" width="92" height="70" fill="rgb(0, 0, 0)" /><polygon points="228,557 361,1312 180,659" fill="rgb(255, 0, 0)" /><rect x="117" y="222" width="171" height="197" fill="rgb(0, 0, 0)" /><circle cx="373" cy="806" r="25" fill="rgb(255, 0, 0)" /><circle cx="445" cy="88" r="40" fill="rgb(0, 0, 0)" /><polygon points="212,872 156,655 685,711" fill="rgb(255, 255, 0)" /><circle cx="595" cy="455" r="29" fill="rgb(0, 0, 0)" /><circle cx="476" cy="1052" r="60" fill="rgb(0, 0, 255)" /><polygon points="112,329 58,663 900,1122 888,1286 447,939 135,425" fill="rgb(255, 255, 0)" /><polygon points="939,528 1095,1325 357,86" fill="rgb(255, 0, 0)" /><circle cx="895" cy="321" r="68" fill="rgb(255, 0, 0)" /><rect x="774" y="800" width="161" height="74" fill="rgb(0, 0, 255)" /><polygon points="355,1155 949,55 648,170 1051,938 994,533 889,1186" fill="rgb(255, 255, 0)" /><circle cx="454" cy="665" r="33" fill="rgb(0, 0, 0)" /><circle cx="297" cy="1085" r="30" fill="rgb(0, 0, 255)" /><polygon points="417,541 388,1399 440,101 775,1093 535,1142 234,1245" fill="rgb(255, 255, 0)" /><rect x="962" y="1159" width="141" height="71" fill="rgb(0, 0, 255)" /><circle cx="970" cy="1411" r="23" fill="rgb(0, 0, 0)" /><rect x="839" y="1305" width="200" height="143" fill="rgb(255, 255, 0)" /><rect x="315" y="985" width="188" height="78" fill="rgb(0, 0, 255)" /><circle cx="15" cy="753" r="29" fill="rgb(255, 0, 0)" /><circle cx="425" cy="505" r="70" fill="rgb(255, 0, 0)" /><polygon points="949,1088 1031,893 252,363 382,1094 257,1050 279,396" fill="rgb(255, 0, 0)" /><circle cx="271" cy="866" r="20" fill="rgb(255, 0, 0)" /><circle cx="737" cy="349" r="25" fill="rgb(255, 255, 0)" /><circle cx="5" cy="807" r="88" fill="rgb(255, 0, 0)" /><circle cx="640" cy="183" r="68" fill="rgb(0, 0, 255)" /><circle cx="503" cy="1212" r="76" fill="rgb(0, 0, 0)" /><circle cx="161" cy="159" r="26" fill="rgb(255, 0, 0)" /><polygon points="277,207 855,1274 229,438 901,187 526,278" fill="rgb(0, 0, 255)" /><polygon points="923,823 299,683 70,290 405,1368" fill="rgb(255, 255, 0)" /><circle cx="416" cy="1459" r="74" fill="rgb(255, 0, 0)" /><circle cx="1037" cy="1039" r="65" fill="rgb(255, 0, 0)" /><polygon points="787,836 938,401 253,19 724,746 150,1387 346,1499" fill="rgb(255, 255, 0)" /><circle cx="392" cy="1091" r="23" fill="rgb(255, 255, 0)" /><circle cx="234" cy="1335" r="83" fill="rgb(255, 255, 0)" /><polygon points="66,32 364,756 653,1339" fill="rgb(255, 255, 0)" /><polygon points="386,736 916,684 1046,996 558,1022 14,564" fill="rgb(255, 255, 0)" /><circle cx="904" cy="931" r="20" fill="rgb(0, 0, 255)" /><polygon points="329,1240 944,1185 138,341 524,1189 441,1126" fill="rgb(0, 0, 0)" /><circle cx="794" cy="860" r="65" fill="rgb(255, 255, 0)" /><polygon points="209,1260 827,972 984,1053 985,1152 559,1421" fill="rgb(0, 0, 255)" /><rect x="159" y="144" width="103" height="105" fill="rgb(0, 0, 0)" /><rect x="321" y="643" width="163" height="50" fill="rgb(0, 0, 0)" /><circle cx="325" cy="362" r="39" fill="rgb(0, 0, 0)" /><circle cx="790" cy="1373" r="34" fill="rgb(0, 0, 255)" /><circle cx="889" cy="1440" r="57" fill="rgb(0, 0, 255)" /><circle cx="569" cy="1458" r="69" fill="rgb(0, 0, 255)" /><polygon points="700,352 903,463 299,452 922,701 103,21" fill="rgb(0, 0, 255)" /><polygon points="953,396 176,1204 725,884 274,1206" fill="rgb(255, 255, 0)" /><circle cx="687" cy="1063" r="86" fill="rgb(0, 0, 0)" /><circle cx="845" cy="1274" r="86" fill="rgb(255, 255, 0)" /><polygon points="697,692 1091,198 429,615 721,1173 763,345 932,530" fill="rgb(255, 255, 0)" /><rect x="392" y="1334" width="166" height="86" fill="rgb(0, 0, 0)" /><rect x="1093" y="757" width="116" height="62" fill="rgb(0, 0, 255)" /><rect x="420" y="734" width="126" height="66" fill="rgb(255, 255, 0)" /><rect x="314" y="1476" width="66" height="134" fill="rgb(0, 0, 255)" /><circle cx="1023" cy="1122" r="84" fill="rgb(0, 0, 255)" /><polygon points="395,1393 757,908 808,248" fill="rgb(255, 255, 0)" /><polygon points="633,1469 580,314 754,1440" fill="rgb(255, 255, 0)" /><circle cx="576" cy="892" r="35" fill="rgb(0, 0, 0)" /><rect x="835" y="138" width="154" height="114" fill="rgb(0, 0, 255)" /><rect x="846" y="27" width="53" height="173" fill="rgb(0, 0, 255)" /><polygon points="934,77 227,295 774,827 482,1398 63,796" fill="rgb(255, 0, 0)" /><rect x="108" y="731" width="119" height="161" fill="rgb(0, 0, 255)" /><circle cx="914" cy="1010" r="48" fill="rgb(255, 255, 0)" /><polygon points="3,392 995,1145 573,570 740,747 988,900 555,1113" fill="rgb(0, 0, 255)" /><circle cx="1018" cy="649" r="42" fill="rgb(255, 255, 0)" /><rect x="1014" y="996" width="199" height="173" fill="rgb(0, 0, 255)" /><polygon points="120,266 284,1091 370,859 977,747 95,1106" fill="rgb(0, 0, 0)" /><circle cx="1031" cy="1371" r="100" fill="rgb(0, 0, 255)" /><circle cx="789" cy="152" r="69" fill="rgb(0, 0, 255)" /><rect x="489" y="502" width="61" height="100" fill="rgb(0, 0, 0)" /><polygon points="4,875 266,80 267,468 1026,1477 168,114" fill="rgb(0, 0, 255)" /><polygon points="503,1041 1036,279 620,729 305,348 680,955" fill="rgb(255, 255, 0)" /><circle cx="919" cy="1039" r="56" fill="rgb(255, 255, 0)" /><circle cx="850" cy="858" r="100" fill="rgb(255, 0, 0)" /><rect x="905" y="569" width="98" height="103" fill="rgb(0, 0, 0)" /><circle cx="199" cy="345" r="45" fill="rgb(0, 0, 255)" /><polygon points="685,1025 662,499 651,84" fill="rgb(255, 255, 0)" /><circle cx="768" cy="1142" r="93" fill="rgb(255, 255, 0)" /><circle cx="107" cy="611" r="48" fill="rgb(255, 255, 0)" /><rect x="8" y="3" width="71" height="57" fill="rgb(0, 0, 255)" /><rect x="980" y="1405" width="141" height="128" fill="rgb(255, 255, 0)" /><rect x="996" y="835" width="149" height="133" fill="rgb(0, 0, 0)" /><polygon points="490,704 1081,495 532,236 607,503 797,1179 493,65" fill="rgb(0, 0, 0)" /><circle cx="776" cy="858" r="52" fill="rgb(255, 0, 0)" /><rect x="1010" y="722" width="100" height="163" fill="rgb(255, 255, 0)" /><polygon points="979,880 188,1034 442,212 912,490 731,1447 421,1146" fill="rgb(0, 0, 255)" /><polygon points="325,411 565,365 216,1381 635,708 463,902 733,23" fill="rgb(0, 0, 0)" /><polygon points="519,781 309,218 144,714 475,1009" fill="rgb(0, 0, 0)" /><circle cx="898" cy="800" r="45" fill="rgb(0, 0, 0)" /><polygon points="850,1387 1069,401 842,1117 201,858" fill="rgb(255, 255, 0)" /><rect x="414" y="1217" width="58" height="114" fill="rgb(255, 0, 0)" /><rect x="6" y="319" width="168" height="61" fill="rgb(0, 0, 255)" /><circle cx="759" cy="287" r="71" fill="rgb(255, 255, 0)" /><rect x="275" y="1455" width="146" height="133" fill="rgb(255, 0, 0)" /><rect x="961" y="1068" width="152" height="106" fill="rgb(255, 0, 0)" /><polygon points="870,1134 769,694 228,194 292,773" fill="rgb(0, 0, 0)" /><polygon points="24,1112 281,37 864,980 103,498" fill="rgb(0, 0, 0)" /><rect x="633" y="1422" width="90" height="61" fill="rgb(255, 255, 0)" /><circle cx="177" cy="1046" r="48" fill="rgb(255, 255, 0)" /><rect x="490" y="587" width="94" height="169" fill="rgb(255, 255, 0)" /><circle cx="850" cy="668" r="56" fill="rgb(0, 0, 255)" /><polygon points="834,1340 806,1495 285,1275 714,303 27,717" fill="rgb(0, 0, 255)" /><rect x="983" y="482" width="97" height="90" fill="rgb(0, 0, 255)" /><polygon points="1011,125 811,61 276,1134 470,826 832,46" fill="rgb(0, 0, 0)" /><rect x="178" y="527" width="148" height="63" fill="rgb(255, 255, 0)" /><rect x="932" y="507" width="87" height="155" fill="rgb(0, 0, 0)" /><polygon points="850,269 582,23 899,636" fill="rgb(0, 0, 255)" /><polygon points="1036,1350 369,237 900,592 186,397" fill="rgb(0, 0, 255)" /><rect x="208" y="354" width="178" height="88" fill="rgb(0, 0, 0)" /><rect x="550" y="157" width="154" height="185" fill="rgb(255, 255, 0)" /><rect x="517" y="293" width="132" height="105" fill="rgb(255, 0, 0)" /><rect x="280" y="343" width="104" height="174" fill="rgb(255, 255, 0)" /><rect x="469" y="537" width="186" height="117" fill="rgb(255, 255, 0)" /><rect x="358" y="1459" width="62" height="101" fill="rgb(255, 0, 0)" /><polygon points="1053,1104 529,371 984,1447 435,986 698,788 753,459" fill="rgb(255, 0, 0)" /><rect x="490" y="1401" width="130" height="120" fill="rgb(255, 255, 0)" /><rect x="286" y="1029" width="160" height="163" fill="rgb(255, 255, 0)" /><polygon points="524,1440 160,500 354,357 640,1478 968,1136 101,359" fill="rgb(255, 255, 0)" /><polygon points="207,845 557,193 705,66" fill="rgb(0, 0, 0)" /><rect x="123" y="195" width="153" height="165" fill="rgb(0, 0, 0)" /><rect x="460" y="1443" width="143" height="131" fill="rgb(255, 255, 0)" /><circle cx="870" cy="737" r="48" fill="rgb(255, 255, 0)" /><rect x="50" y="1067" width="99" height="74" fill="rgb(255, 255, 0)" /><circle cx="766" cy="1110" r="72" fill="rgb(0, 0, 255)" /><circle cx="550" cy="837" r="98" fill="rgb(255, 0, 0)" /><circle cx="573" cy="232" r="20" fill="rgb(255, 0, 0)" /><circle cx="24" cy="1419" r="81" fill="rgb(0, 0, 0)" /><rect x="160" y="1404" width="143" height="174" fill="rgb(0, 0, 0)" /><polygon points="34,405 595,302 920,803 654,493 569,1096 8,1193" fill="rgb(0, 0, 0)" /><circle cx="831" cy="396" r="53" fill="rgb(255, 0, 0)" /><circle cx="258" cy="895" r="67" fill="rgb(0, 0, 255)" /><polygon points="426,980 318,4 163,545 356,384 540,114 1,1442" fill="rgb(255, 0, 0)" /><circle cx="438" cy="81" r="60" fill="rgb(255, 0, 0)" /><circle cx="118" cy="727" r="89" fill="rgb(255, 0, 0)" /><rect x="809" y="241" width="147" height="94" fill="rgb(255, 255, 0)" /><rect x="693" y="1254" width="103" height="142" fill="rgb(0, 0, 255)" /><circle cx="718" cy="333" r="31" fill="rgb(255, 0, 0)" /><polygon points="158,1008 219,703 657,921 405,583 126,34 937,534" fill="rgb(0, 0, 0)" /><polygon points="1021,1091 140,208 933,1471 1024,608 996,978 278,923" fill="rgb(0, 0, 0)" /></svg>