<svg xmlns="http://www.w3.org/2000/svg" width="1101" height="1500"><circle cx="125" cy="326" r="96" fill="rgb(255, 0, 0)" /><polygon points="161,1352 616,420 1003,55 411,904 1078,692 132,983" fill="rgb(255, 255, 0)" /><rect x="112" y="1425" width="106" height="61" fill="rgb(0, 0, 255)" /><polygon points="1012,929 907,902 135,527" fill="rgb(255, 255, 0)" /><polygon points="394,187 813,72 300,1120 442,861 788,762 911,780" fill="rgb(255, 0, 0)" /><circle cx="489" cy="994" r="100" fill="rgb(255, 255, 0)" /><polygon points="789,957 46,1000 1062,642 909,447 57,374 556,1285" fill="rgb(255, 255, 0)" /><rect x="363" y="414" width="164" height="74" fill="rgb(0, 0, 0)" /><circle cx="828" cy="1146" r="27" fill="rgb(0, 0, 0)" /><rect x="132" y="199" width="143" height="55" fill="rgb(0, 0, 255)" /><polygon points="929,777 91,552 155,242 265,514" fill="rgb(0, 0, 255)" /><circle cx="755" cy="401" r="45" fill="rgb(255, 0, 0)" /><polygon points="556,1353 1049,34 524,1119 437,387" fill="rgb(255, 255, 0)" /><polygon points="621,324 689,595 288,1150 287,498 927,1208 16,354" fill="rgb(0, 0, 0)" /><polygon points="1050,1404 1084,1311 968,495 667,1127 1060,950" fill="rgb(255, 255, 0)" /><circle cx="1079" cy="1045" r="30" fill="rgb(0, 0, 0)" /><circle cx="694" cy="280" r="45" fill="rgb(255, 255, 0)" /><circle cx="875" cy="259" r="60" fill="rgb(0, 0, 255)" /><polygon points="956,1497 866,1000 74,461 951,1408 1075,526" fill="rgb(0, 0, 255)" /><polygon points="814,1062 370,252 656,123 173,757 416,1166" fill="rgb(0, 0, 255)" /><polygon points="681,67 573,1064 615,1080" fill="rgb(0, 0, 255)" /><polygon points="29,10 377,255 696,1379 904,5" fill="rgb(255, 0, 0)" /><rect x="831" y="187" width="171" height="109" fill="rgb(0, 0, 0)" /><polygon points="97,1360 135,36 639,281 498,63 881,1178" fill="rgb(255, 255, 0)" /><polygon points="371,403 947,899 417,1448" fill="rgb(0, 0, 255)" /><circle cx="369" cy="788" r="99" fill="rgb(0, 0, 0)" /><rect x="74" y="162" width="119" height="98" fill="rgb(0, 0, 255)" /><circle cx="838" cy="1337" r="63" fill="rgb(255, 0, 0)" /><circle cx="86" cy="701" r="88" fill="rgb(0, 0, 0)" /><polygon points="451,275 264,527 427,1363 346,1125 990,1210" fill="rgb(255, 0, 0)" /><rect x="194" y="1457" width="113" height="193" fill="rgb(0, 0, 255)" /><circle cx="892" cy="1096" r="88" fill="rgb(0, 0, 255)" /><circle cx="679" cy="1206" r="82" fill="rgb(0, 0, 0)" /><circle cx="381" cy="258" r="64" fill="rgb(255, 0, 0)" /><polygon points="192,287 145,238 719,254 877,240 5,286" fill="rgb(0, 0, 255)" /><circle cx="155" cy="156" r="60" fill="rgb(0, 0, 255)" /><circle cx="243" cy="530" r="47" fill="rgb(255, 0, 0)" /><rect x="293" y="499" width="179" height="170" fill="rgb(0, 0, 255)" /><rect x="430" y="1286" width="101" height="157" fill="rgb(0, 0, 0)" /><rect x="355" y="925" width="154" height="127" fill="rgb(0, 0, 255)" /><circle cx="396" cy="742" r="93" fill="rgb(0, 0, 0)" /><circle cx="218" cy="1370" r="75" fill="rgb(255, 255, 0)" /><polygon points="161,530 368,1163 1028,465" fill="rgb(0, 0, 255)" /><circle cx="524" cy="1044" r="54" fill="rgb(0, 0, 0)" /><polygon points="971,929 569,883 373,1460 47,1254" fill="rgb(0, 0, 255)" /><rect x="12" y="457" width="159" height="97" fill="rgb(0, 0, 0)" /><circle cx="772" cy="631" r="69" fill="rgb(255, 255, 0)" /><circle cx="509" cy="709" r="28" fill="rgb(0, 0, 255)" /><rect x="905" y="1292" width="87" height="97" fill="rgb(255, 255, 0)" /><rect x="50" y="919" width="62" height="69" fill="rgb(255, 0, 0)" /><polygon points="410,627 924,315 832,1361 820,27 70,1256 345,1320" fill="rgb(255, 255, 0)" /><rect x="250" y="365" width="151" height="141" fill="rgb(255, 255, 0)" /><rect x="1094" y="548" width="66" height="133" fill="rgb(255, 0, 0)" /><circle cx="503" cy="813" r="69" fill="rgb(0, 0, 0)" /><polygon points="984,533 490,223 766,795 705,866 942,588" fill="rgb(0, 0, 255)" /><circle cx="1094" cy="1296" r="38" fill="rgb(255, 0, 0)" /><circle cx="847" cy="1238" r="43" fill="rgb(0, 0, 0)" /><circle cx="270" cy="425" r="43" fill="rgb(255, 0, 0)" /></svg>