<svg xmlns="http://www.w3.org/2000/svg" width="1101" height="1500"><rect x="601" y="1288" width="137" height="113" fill="rgb(255, 0, 0)" /><polygon points="886,1142 940,770 436,421" fill="rgb(255, 255, 0)" /><polygon points="795,1118 371,586 680,1441 1101,126 491,1243 872,977" fill="rgb(255, 255, 0)" /><rect x="140" y="247" width="178" height="186" fill="rgb(0, 0, 0)" /><rect x="191" y="742" width="147" height="130" fill="rgb(255, 0, 0)" /><polygon points="576,74 982,1481 57,1128 47,17" fill="rgb(0, 0, 0)" /><rect x="403" y="487" width="190" height="158" fill="rgb(0, 0, 0)" /><rect x="991" y="946" width="99" height="198" fill="rgb(0, 0, 255)" /><rect x="784" y="197" width="142" height="63" fill="rgb(255, 255, 0)" /><polygon points="701,629 931,622 423,872 109,441 417,1073 555,1475" fill="rgb(0, 0, 255)" /><polygon points="645,10 553,250 708,492 332,723 477,755 699,955" fill="rgb(0, 0, 0)" /><rect x="571" y="867" width="110" height="60" fill="rgb(0, 0, 0)" /><circle cx="6" cy="712" r="80" fill="rgb(0, 0, 255)" /><rect x="1024" y="1264" width="52" height="109" fill="rgb(255, 255, 0)" /><circle cx="295" cy="1334" r="60" fill="rgb(0, 0, 255)" /><rect x="481" y="47" width="195" height="128" fill="rgb(255, 255, 0)" /><polygon points="992,891 913,1497 374,943 915,1493" fill="rgb(0, 0, 255)" /><circle cx="1007" cy="1086" r="78" fill="rgb(0, 0, 255)" /><rect x="287" y="385" width="136" height="185" fill="rgb(0, 0, 255)" /><polygon points="156,386 853,536 552,1133" fill="rgb(0, 0, 0)" /><circle cx="857" cy="1359" r="29" fill="rgb(0, 0, 255)" /><polygon points="1064,1364 802,1144 3,1096 627,1214" fill="rgb(0, 0, 0)" /><rect x="395" y="886" width="187" height="74" fill="rgb(0, 0, 255)" /><circle cx="990" cy="998" r="89" fill="rgb(255, 0, 0)" /><circle cx="931" cy="416" r="98" fill="rgb(0, 0, 255)" /><circle cx="447" cy="1047" r="34" fill="rgb(0, 0, 255)" /><circle cx="189" cy="908" r="82" fill="rgb(0, 0, 0)" /><polygon points="855,164 1008,795 819,1051 950,48 302,1237 188,491" fill="rgb(255, 255, 0)" /></svg>