<svg xmlns="http://www.w3.org/2000/svg" width="1101" height="1500"><circle cx="1064" cy="206" r="83" fill="rgb(0, 0, 0)" /><circle cx="572" cy="779" r="95" fill="rgb(0, 0, 255)" /><circle cx="1087" cy="90" r="45" fill="rgb(0, 0, 0)" /><rect x="42" y="693" width="200" height="115" fill="rgb(255, 255, 0)" /><polygon points="586,870 789,1211 790,25" fill="rgb(255, 255, 0)" /><polygon points="887,803 437,1360 914,1492 1099,104 157,106 1001,1031" fill="rgb(0, 0, 255)" /><polygon points="50,1064 172,1150 999,827 473,640 432,1337 839,287" fill="rgb(255, 0, 0)" /><polygon points="308,169 366,753 634,12 59,1149 861,785" fill="rgb(255, 0, 0)" /><polygon points="371,1040 918,142 670,1433 114,961" fill="rgb(0, 0, 255)" /><rect x="1039" y="881" width="132" height="174" fill="rgb(255, 255, 0)" /><rect x="300" y="675" width="80" height="143" fill="rgb(0, 0, 0)" /><rect x="1038" y="884" width="105" height="154" fill="rgb(255, 255, 0)" /><circle cx="957" cy="420" r="66" fill="rgb(255, 255, 0)" /><polygon points="205,1405 214,870 1055,1332 673,1093" fill="rgb(255, 255, 0)" /><polygon points="1009,920 801,211 294,581 315,333" fill="rgb(255, 255, 0)" /><circle cx="242" cy="1095" r="48" fill="rgb(255, 0, 0)" /><circle cx="456" cy="1156" r="55" fill="rgb(0, 0, 255)" /><rect x="613" y="604" width="71" height="163" fill="rgb(255, 255, 0)" /><polygon points="763,1223 522,713 826,139 862,1339 708,1124 93,1245" fill="rgb(0, 0, 255)" /><polygon points="478,531 842,1015 45,744" fill="rgb(0, 0, 255)" /><polygon points="462,1244 693,85 937,839 234,1222" fill="rgb(255, 255, 0)" /><circle cx="1040" cy="1166" r="84" fill="rgb(255, 255, 0)" /><rect x="467" y="900" width="182" height="146" fill="rgb(255, 255, 0)" /><rect x="205" y="599" width="85" height="80" fill="rgb(0, 0, 0)" /><rect x="1069" y="641" width="171" height="57" fill="rgb(255, 255, 0)" /><polygon points="672,98 139,485 570,741" fill="rgb(255, 255, 0)" /><polygon points="768,1100 893,1057 602,1340 343,889 239,280" fill="rgb(255, 255, 0)" /><rect x="357" y="1389" width="181" height="57" fill="rgb(255, 0, 0)" /><rect x="408" y="90" width="67" height="177" fill="rgb(255, 0, 0)" /><circle cx="207" cy="2" r="27" fill="rgb(255, 255, 0)" /><polygon points="318,646 816,879 39,1266 969,1369" fill="rgb(0, 0, 0)" /><circle cx="529" cy="1494" r="58" fill="rgb(255, 255, 0)" /><rect x="1060" y="294" width="191" height="106" fill="rgb(255, 255, 0)" /><circle cx="615" cy="1086" r="42" fill="rgb(255, 255, 0)" /><polygon points="584,285 807,1354 594,391 786,1201 508,739" fill="rgb(255, 255, 0)" /><polygon points="579,335 773,337 533,40 909,47 472,1264" fill="rgb(255, 255, 0)" /><polygon points="686,198 3,921 1044,1442" fill="rgb(255, 255, 0)" /><polygon points="250,124 40,747 126,1488 556,1038 866,1380" fill="rgb(255, 255, 0)" /><circle cx="706" cy="593" r="72" fill="rgb(0, 0, 255)" /><circle cx="787" cy="782" r="22" fill="rgb(255, 255, 0)" /><rect x="223" y="848" width="196" height="99" fill="rgb(0, 0, 255)" /><circle cx="748" cy="1249" r="59" fill="rgb(255, 255, 0)" /><circle cx="704" cy="184" r="82" fill="rgb(0, 0, 255)" /><circle cx="623" cy="136" r="25" fill="rgb(0, 0, 0)" /><polygon points="152,1252 231,1094 710,1169 186,32 493,1453" fill="rgb(255, 0, 0)" /><rect x="484" y="686" width="184" height="194" fill="rgb(0, 0, 255)" /><circle cx="727" cy="631" r="41" fill="rgb(0, 0, 255)" /><polygon points="378,969 717,116 632,281 85,127 1045,640" fill="rgb(255, 0, 0)" /><polygon points="864,839 838,90 983,1203" fill="rgb(255, 255, 0)" /><polygon points="1000,626 882,289 939,596" fill="rgb(255, 0, 0)" /><polygon points="893,1467 647,1303 1070,759 428,107 29,1166" fill="rgb(255, 255, 0)" /><rect x="36" y="732" width="165" height="131" fill="rgb(255, 0, 0)" /><polygon points="80,404 444,1389 430,413 67,1301" fill="rgb(255, 0, 0)" /><rect x="20" y="857" width="125" height="103" fill="rgb(255, 255, 0)" /><circle cx="804" cy="860" r="91" fill="rgb(0, 0, 255)" /><circle cx="108" cy="1478" r="57" fill="rgb(255, 0, 0)" /><circle cx="236" cy="1244" r="24" fill="rgb(0, 0, 0)" /><rect x="1064" y="1391" width="83" height="58" fill="rgb(0, 0, 0)" /><polygon points="837,162 501,919 1023,1150 718,35 439,1056" fill="rgb(0, 0, 0)" /><polygon points="330,250 1028,381 495,129 464,1096" fill="rgb(255, 0, 0)" /><circle cx="605" cy="1260" r="57" fill="rgb(0, 0, 255)" /><polygon points="965,195 95,1180 186,743 564,1063" fill="rgb(0, 0, 255)" /><polygon points="32,1347 521,631 1053,305" fill="rgb(0, 0, 0)" /><circle cx="363" cy="994" r="38" fill="rgb(255, 255, 0)" /><circle cx="289" cy="47" r="58" fill="rgb(255, 0, 0)" /><polygon points="710,1039 199,53 810,48 395,848 582,1315 7,94" fill="rgb(255, 255, 0)" /><circle cx="1048" cy="146" r="88" fill="rgb(0, 0, 0)" /><circle cx="997" cy="225" r="52" fill="rgb(255, 0, 0)" /><polygon points="1048,401 1095,750 100,439 245,917 972,1498" fill="rgb(255, 255, 0)" /><rect x="340" y="480" width="80" height="53" fill="rgb(0, 0, 255)" /><circle cx="742" cy="912" r="80" fill="rgb(0, 0, 0)" /><polygon points="715,474 761,481 956,641 450,703" fill="rgb(255, 0, 0)" /><circle cx="350" cy="699" r="93" fill="rgb(0, 0, 255)" /><rect x="354" y="438" width="118" height="117" fill="rgb(0, 0, 0)" /><rect x="534" y="1493" width="67" height="109" fill="rgb(0, 0, 0)" /><polygon points="177,1388 336,1187 881,1351 887,919 1073,1150 761,52" fill="rgb(255, 255, 0)" /><polygon points="92,620 621,1454 130,558 636,1337 802,918 788,1427" fill="rgb(255, 255, 0)" /><circle cx="497" cy="1422" r="98" fill="rgb(0, 0, 0)" /><circle cx="1075" cy="427" r="94" fill="rgb(0, 0, 255)" /><polygon points="97,902 1080,1401 204,359 689,500 103,595 1000,653" fill="rgb(255, 255, 0)" /><polygon points="95,1470 162,1128 86,640 150,1376 986,83" fill="rgb(0, 0, 255)" /><polygon points="606,507 686,988 374,676" fill="rgb(255, 0, 0)" /><rect x="194" y="571" width="62" height="58" fill="rgb(0, 0, 255)" /><rect x="1019" y="233" width="150" height="180" fill="rgb(255, 255, 0)" /><circle cx="744" cy="270" r="27" fill="rgb(255, 0, 0)" /><circle cx="30" cy="559" r="37" fill="rgb(0, 0, 0)" /><polygon points="321,450 495,995 226,1321 612,1075 439,59" fill="rgb(255, 0, 0)" /><circle cx="44" cy="176" r="67" fill="rgb(255, 255, 0)" /><circle cx="257" cy="283" r="55" fill="rgb(0, 0, 0)" /><circle cx="924" cy="795" r="74" fill="rgb(0, 0, 255)" /><circle cx="347" cy="10" r="39" fill="rgb(0, 0, 255)" /><circle cx="1013" cy="494" r="36" fill="rgb(255, 255, 0)" /><rect x="648" y="1010" width="176" height="56" fill="rgb(255, 255, 0)" /><circle cx="141" cy="1404" r="35" fill="rgb(255, 0, 0)" /><rect x="499" y="662" width="153" height="174" fill="rgb(0, 0, 0)" /><circle cx="926" cy="475" r="39" fill="rgb(0, 0, 0)" /><circle cx="264" cy="988" r="94" fill="rgb(255, 255, 0)" /><rect x="445" y="947" width="133" height="85" fill="rgb(0, 0, 255)" /><polygon points="302,563 729,1325 950,1203 46,158 775,149" fill="rgb(0, 0, 255)" /><rect x="639" y="962" width="172" height="62" fill="rgb(255, 255, 0)" /><rect x="911" y="211" width="143" height="170" fill="rgb(0, 0, 0)" /><rect x="914" y="465" width="79" height="123" fill="rgb(255, 0, 0)" /><circle cx="13" cy="301" r="71" fill="rgb(0, 0, 255)" /><rect x="117" y="1195" width="155" height="116" fill="rgb(0, 0, 0)" /><circle cx="298" cy="1435" r="77" fill="rgb(0, 0, 0)" /><rect x="642" y="585" width="142" height="155" fill="rgb(0, 0, 0)" /><rect x="1075" y="151" width="70" height="112" fill="rgb(255, 255, 0)" /><circle cx="1040" cy="686" r="79" fill="rgb(255, 255, 0)" /><rect x="964" y="225" width="173" height="101" fill="rgb(255, 255, 0)" /><rect x="1096" y="263" width="186" height="189" fill="rgb(0, 0, 0)" /><polygon points="182,1261 68,1167 299,393 467,314 736,1268 677,301" fill="rgb(0, 0, 255)" /><rect x="893" y="42" width="74" height="86" fill="rgb(0, 0, 255)" /><rect x="263" y="1092" width="156" height="79" fill="rgb(0, 0, 0)" /><circle cx="44" cy="1126" r="71" fill="rgb(255, 255, 0)" /><circle cx="882" cy="592" r="84" fill="rgb(0, 0, 255)" /><polygon points="588,409 890,1417 210,1001 1021,853 182,846" fill="rgb(255, 0, 0)" /><polygon points="292,203 957,931 727,660 48,395" fill="rgb(255, 255, 0)" /><circle cx="1062" cy="169" r="36" fill="rgb(0, 0, 255)" /><circle cx="392" cy="102" r="72" fill="rgb(255, 0, 0)" /><circle cx="138" cy="268" r="88" fill="rgb(0, 0, 0)" /><circle cx="342" cy="626" r="73" fill="rgb(255, 0, 0)" /><polygon points="284,125 15,253 485,893 963,1049 900,692 203,564" fill="rgb(0, 0, 255)" /><circle cx="273" cy="1220" r="31" fill="rgb(0, 0, 0)" /><polygon points="334,321 779,97 288,547 698,312" fill="rgb(0, 0, 255)" /><circle cx="1086" cy="914" r="72" fill="rgb(0, 0, 0)" /><rect x="326" y="534" width="119" height="73" fill="rgb(255, 0, 0)" /><polygon points="38,787 151,990 911,55 917,1304 808,723" fill="rgb(0, 0, 255)" /><circle cx="56" cy="1382" r="41" fill="rgb(255, 255, 0)" /><polygon points="423,751 770,1282 523,42 19,32 237,610" fill="rgb(255, 0, 0)" /><rect x="997" y="48" width="130" height="154" fill="rgb(255, 0, 0)" /><rect x="903" y="1025" width="70" height="186" fill="rgb(0, 0, 255)" /><polygon points="495,583 689,792 794,1235 1052,704 487,833" fill="rgb(255, 0, 0)" /><circle cx="1075" cy="693" r="45" fill="rgb(0, 0, 255)" /><polygon points="637,850 679,695 273,1488 700,125" fill="rgb(0, 0, 255)" /></svg>