<svg xmlns="http://www.w3.org/2000/svg" width="1101" height="1500"><rect x="327" y="272" width="59" height="160" fill="rgb(255, 255, 0)" /><polygon points="686,236 499,19 499,1490 621,194 50,1014" fill="rgb(255, 0, 0)" /><circle cx="69" cy="544" r="34" fill="rgb(0, 0, 255)" /><rect x="938" y="249" width="150" height="175" fill="rgb(0, 0, 0)" /><rect x="754" y="199" width="178" height="200" fill="rgb(0, 0, 0)" /><circle cx="613" cy="1424" r="58" fill="rgb(255, 0, 0)" /><polygon points="18,828 24,530 905,225 689,797" fill="rgb(0, 0, 255)" /><circle cx="738" cy="19" r="80" fill="rgb(0, 0, 255)" /><polygon points="77,211 877,1219 850,916" fill="rgb(255, 255, 0)" /><circle cx="846" cy="751" r="74" fill="rgb(0, 0, 255)" /><rect x="717" y="406" width="108" height="102" fill="rgb(255, 255, 0)" /><polygon points="149,938 172,565 210,745" fill="rgb(0, 0, 255)" /><polygon points="213,284 1005,364 202,618 1045,1065 304,1 703,1265" fill="rgb(0, 0, 255)" /><polygon points="273,165 738,319 227,1177 313,915" fill="rgb(0, 0, 255)" /><rect x="792" y="331" width="168" height="163" fill="rgb(0, 0, 0)" /><rect x="524" y="1362" width="113" height="105" fill="rgb(255, 0, 0)" /><circle cx="281" cy="940" r="94" fill="rgb(255, 0, 0)" /><rect x="468" y="93" width="140" height="153" fill="rgb(0, 0, 255)" /><circle cx="965" cy="1229" r="39" fill="rgb(255, 255, 0)" /><polygon points="400,1495 1015,186 331,1202" fill="rgb(0, 0, 0)" /><rect x="197" y="1404" width="200" height="101" fill="rgb(0, 0, 255)" /><rect x="128" y="335" width="172" height="59" fill="rgb(0, 0, 255)" /><rect x="415" y="764" width="66" height="87" fill="rgb(255, 0, 0)" /><circle cx="599" cy="779" r="45" fill="rgb(255, 255, 0)" /><polygon points="341,819 310,1186 533,1131 870,473" fill="rgb(255, 0, 0)" /><polygon points="155,292 450,178 273,49" fill="rgb(255, 0, 0)" /><circle cx="730" cy="1427" r="26" fill="rgb(0, 0, 255)" /><rect x="738" y="1184" width="84" height="91" fill="rgb(255, 0, 0)" /><circle cx="506" cy="317" r="82" fill="rgb(0, 0, 255)" /><rect x="450" y="892" width="121" height="124" fill="rgb(0, 0, 255)" /><rect x="208" y="332" width="72" height="105" fill="rgb(0, 0, 0)" /><polygon points="127,1058 1091,922 418,1239 105,980 1078,1253 245,1486" fill="rgb(0, 0, 255)" /><rect x="1075" y="833" width="188" height="118" fill="rgb(0, 0, 255)" /><polygon points="831,14 691,0 754,607 315,282 269,913" fill="rgb(255, 0, 0)" /><polygon points="915,537 175,548 825,907 47,925 1029,1022" fill="rgb(0, 0, 0)" /><polygon points="433,1167 206,785 155,852 1010,1233 461,202 760,530" fill="rgb(0, 0, 255)" /><polygon points="425,1319 682,1334 1014,1195 889,810 1014,85 385,1373" fill="rgb(255, 0, 0)" /><circle cx="234" cy="1171" r="75" fill="rgb(0, 0, 0)" /><polygon points="212,297 28,1318 826,874 627,971 173,1370 934,259" fill="rgb(0, 0, 0)" /><polygon points="258,1009 219,640 21,734 1085,1444" fill="rgb(255, 255, 0)" /><rect x="560" y="949" width="117" height="114" fill="rgb(0, 0, 255)" /><polygon points="1030,1445 43,1344 967,831 881,960 975,1158 357,1303" fill="rgb(255, 0, 0)" /><polygon points="115,839 535,11 523,1353 144,620 967,1273 719,296" fill="rgb(0, 0, 0)" /><circle cx="964" cy="1113" r="92" fill="rgb(255, 255, 0)" /><circle cx="478" cy="367" r="30" fill="rgb(0, 0, 0)" /><polygon points="483,710 408,1405 16,1146 830,727 601,998 374,362" fill="rgb(255, 0, 0)" /><polygon points="752,234 591,235 763,283 385,252" fill="rgb(0, 0, 0)" /><circle cx="1030" cy="293" r="28" fill="rgb(255, 0, 0)" /><circle cx="449" cy="955" r="81" fill="rgb(0, 0, 0)" /><circle cx="456" cy="646" r="37" fill="rgb(255, 255, 0)" /><circle cx="20" cy="449" r="71" fill="rgb(0, 0, 255)" /><rect x="759" y="1133" width="89" height="199" fill="rgb(255, 0, 0)" /><circle cx="326" cy="213" r="52" fill="rgb(255, 255, 0)" /><rect x="941" y="696" width="95" height="136" fill="rgb(0, 0, 0)" /><polygon points="631,974 468,15 808,1446 664,1419 194,651" fill="rgb(255, 255, 0)" /><polygon points="554,1101 924,1136 518,1470 107,1408 912,1371 656,1208" fill="rgb(255, 255, 0)" /><circle cx="20" cy="1091" r="67" fill="rgb(0, 0, 0)" /><polygon points="417,369 805,1096 1050,1278 237,1277 820,40" fill="rgb(255, 255, 0)" /><circle cx="1004" cy="1093" r="81" fill="rgb(255, 0, 0)" /><rect x="1037" y="769" width="63" height="126" fill="rgb(255, 0, 0)" /><polygon points="1034,522 637,532 943,484 114,328" fill="rgb(255, 0, 0)" /><polygon points="907,762 133,1287 314,308" fill="rgb(255, 255, 0)" /><rect x="909" y="865" width="73" height="62" fill="rgb(0, 0, 255)" /><circle cx="1034" cy="839" r="82" fill="rgb(255, 0, 0)" /><circle cx="388" cy="156" r="60" fill="rgb(255, 0, 0)" /><rect x="741" y="258" width="100" height="111" fill="rgb(255, 0, 0)" /><rect x="490" y="1266" width="117" height="150" fill="rgb(255, 0, 0)" /><polygon points="513,797 767,913 989,107 4,976" fill="rgb(0, 0, 255)" /><polygon points="184,937 154,528 94,839" fill="rgb(255, 255, 0)" /><rect x="162" y="1117" width="51" height="142" fill="rgb(0, 0, 0)" /><circle cx="797" cy="1434" r="22" fill="rgb(255, 255, 0)" /><rect x="226" y="55" width="77" height="64" fill="rgb(0, 0, 255)" /><polygon points="1053,1204 833,320 889,851" fill="rgb(255, 255, 0)" /><rect x="309" y="204" width="118" height="130" fill="rgb(0, 0, 255)" /><circle cx="122" cy="81" r="94" fill="rgb(0, 0, 255)" /><polygon points="1094,606 502,400 1062,899 679,1473" fill="rgb(0, 0, 0)" /><polygon points="951,477 111,656 659,312" fill="rgb(0, 0, 0)" /><circle cx="848" cy="66" r="36" fill="rgb(0, 0, 0)" /><polygon points="188,574 980,7 1096,300 342,998 470,1210 703,1209" fill="rgb(255, 0, 0)" /><circle cx="662" cy="768" r="32" fill="rgb(255, 0, 0)" /><polygon points="213,714 1100,824 527,876 106,1105 703,364" fill="rgb(255, 0, 0)" /><circle cx="831" cy="756" r="69" fill="rgb(255, 0, 0)" /><circle cx="23" cy="97" r="37" fill="rgb(255, 0, 0)" /><polygon points="797,1112 285,809 215,503 244,395 916,191 321,1137" fill="rgb(255, 255, 0)" /><rect x="137" y="49" width="148" height="62" fill="rgb(0, 0, 255)" /><polygon points="468,588 1071,1462 556,643 559,74" fill="rgb(255, 0, 0)" /><rect x="1084" y="962" width="116" height="99" fill="rgb(0, 0, 0)" /><rect x="873" y="775" width="104" height="101" fill="rgb(0, 0, 0)" /><rect x="810" y="98" width="77" height="142" fill="rgb(255, 255, 0)" /><rect x="1092" y="306" width="75" height="107" fill="rgb(0, 0, 0)" /><circle cx="638" cy="722" r="92" fill="rgb(255, 255, 0)" /><polygon points="989,77 1012,1274 310,1128 1073,1148" fill="rgb(0, 0, 255)" /><polygon points="20,842 45,992 125,304 939,558" fill="rgb(255, 0, 0)" /><circle cx="843" cy="1024" r="87" fill="rgb(0, 0, 0)" /><rect x="415" y="991" width="67" height="136" fill="rgb(0, 0, 255)" /><circle cx="419" cy="785" r="83" fill="rgb(0, 0, 0)" /><circle cx="1098" cy="172" r="78" fill="rgb(0, 0, 255)" /><circle cx="825" cy="1327" r="55" fill="rgb(255, 0, 0)" /><polygon points="453,424 455,543 27,408 323,1125 200,331 473,462" fill="rgb(0, 0, 0)" /><rect x="483" y="682" width="123" height="150" fill="rgb(255, 255, 0)" /><circle cx="1004" cy="50" r="34" fill="rgb(255, 255, 0)" /><polygon points="372,261 94,116 473,288 371,42 644,24" fill="rgb(0, 0, 255)" /><rect x="318" y="222" width="141" height="108" fill="rgb(255, 255, 0)" /><rect x="323" y="1329" width="136" height="175" fill="rgb(0, 0, 0)" /><rect x="152" y="742" width="79" height="166" fill="rgb(0, 0, 255)" /><polygon points="860,543 143,534 921,844 1026,171 107,1100" fill="rgb(0, 0, 0)" /><polygon points="49,1378 739,536 397,188 364,1084 652,962" fill="rgb(255, 0, 0)" /><rect x="977" y="453" width="152" height="198" fill="rgb(255, 255, 0)" /><rect x="531" y="886" width="105" height="159" fill="rgb(255, 255, 0)" /><circle cx="754" cy="606" r="81" fill="rgb(0, 0, 255)" /><polygon points="340,257 560,1239 829,383 1041,413" fill="rgb(255, 255, 0)" /><polygon points="481,995 698,649 523,84" fill="rgb(255, 255, 0)" /><polygon points="694,1008 675,673 679,1004 383,797" fill="rgb(255, 255, 0)" /><circle cx="794" cy="315" r="96" fill="rgb(0, 0, 255)" /><circle cx="1023" cy="1358" r="43" fill="rgb(255, 0, 0)" /><polygon points="670,1120 910,1252 487,935" fill="rgb(255, 0, 0)" /><circle cx="893" cy="114" r="84" fill="rgb(0, 0, 0)" /><circle cx="911" cy="933" r="84" fill="rgb(255, 255, 0)" /><polygon points="341,1452 76,513 384,600" fill="rgb(0, 0, 255)" /><circle cx="1076" cy="1405" r="37" fill="rgb(0, 0, 0)" /><circle cx="357" cy="358" r="87" fill="rgb(0, 0, 0)" /><polygon points="571,907 902,1276 223,616 1048,368 296,533" fill="rgb(0, 0, 0)" /><circle cx="377" cy="1321" r="29" fill="rgb(255, 255, 0)" /><polygon points="584,610 956,215 861,1493 422,965" fill="rgb(0, 0, 255)" /><polygon points="307,88 360,156 409,746 342,153 875,808" fill="rgb(0, 0, 0)" /><circle cx="381" cy="694" r="91" fill="rgb(0, 0, 255)" /><rect x="1101" y="219" width="198" height="191" fill="rgb(0, 0, 255)" /><polygon points="722,181 851,398 584,5 126,753" fill="rgb(0, 0, 0)" /><circle cx="100" cy="47" r="23" fill="rgb(255, 0, 0)" /><circle cx="760" cy="870" r="39" fill="rgb(255, 255, 0)" /><polygon points="404,501 759,646 193,33 441,858 1077,932 201,684" fill="rgb(255, 0, 0)" /><rect x="32" y="213" width="95" height="178" fill="rgb(0, 0, 0)" /><circle cx="17" cy="240" r="54" fill="rgb(0, 0, 0)" /><rect x="957" y="577" width="96" height="82" fill="rgb(0, 0, 0)" /><rect x="731" y="928" width="123" height="60" fill="rgb(0, 0, 0)" /><rect x="810" y="479" width="68" height="183" fill="rgb(0, 0, 0)" /><polygon points="547,252 56,833 72,1321 10,598 572,33" fill="rgb(255, 0, 0)" /><polygon points="631,146 956,138 365,1295 221,806 468,15 1098,1119" fill="rgb(255, 0, 0)" /><rect x="656" y="1308" width="133" height="180" fill="rgb(0, 0, 255)" /><circle cx="756" cy="1366" r="36" fill="rgb(0, 0, 255)" /><circle cx="507" cy="847" r="42" fill="rgb(0, 0, 0)" /><rect x="314" y="61" width="93" height="112" fill="rgb(0, 0, 255)" /><circle cx="720" cy="383" r="30" fill="rgb(255, 255, 0)" /><rect x="866" y="69" width="151" height="115" fill="rgb(0, 0, 0)" /><polygon points="4,172 815,1148 522,1444 807,252 395,1284 169,60" fill="rgb(255, 0, 0)" /><polygon points="940,58 28,710 161,869" fill="rgb(255, 0, 0)" /><rect x="503" y="225" width="133" height="110" fill="rgb(0, 0, 0)" /><rect x="269" y="1263" width="97" height="72" fill="rgb(0, 0, 0)" /><circle cx="260" cy="574" r="35" fill="rgb(0, 0, 255)" /><polygon points="623,49 156,1079 342,75 151,635 1031,119" fill="rgb(255, 255, 0)" /><circle cx="928" cy="825" r="60" fill="rgb(0, 0, 255)" /><circle cx="781" cy="1186" r="59" fill="rgb(0, 0, 255)" /><polygon points="1081,302 741,446 854,1164" fill="rgb(255, 255, 0)" /><rect x="792" y="1478" width="159" height="188" fill="rgb(0, 0, 0)" /><circle cx="747" cy="213" r="24" fill="rgb(255, 0, 0)" /><polygon points="516,472 220,1015 91,614 361,75" fill="rgb(0, 0, 255)" /><circle cx="662" cy="766" r="27" fill="rgb(0, 0, 0)" /><polygon points="68,382 437,1010 804,617 666,1135" fill="rgb(255, 255, 0)" /><rect x="411" y="952" width="122" height="90" fill="rgb(0, 0, 255)" /><circle cx="303" cy="63" r="72" fill="rgb(255, 255, 0)" /><rect x="406" y="1149" width="107" height="189" fill="rgb(255, 255, 0)" /><polygon points="1012,55 213,558 691,704 562,1393 917,546 216,642" fill="rgb(0, 0, 0)" /><rect x="975" y="244" width="157" height="94" fill="rgb(255, 255, 0)" /><rect x="281" y="150" width="142" height="171" fill="rgb(0, 0, 255)" /><rect x="350" y="425" width="75" height="191" fill="rgb(255, 0, 0)" /><rect x="912" y="714" width="64" height="167" fill="rgb(0, 0, 255)" /><circle cx="784" cy="63" r="98" fill="rgb(0, 0, 255)" /><rect x="791" y="714" width="110" height="169" fill="rgb(255, 255, 0)" /><rect x="556" y="117" width="173" height="93" fill="rgb(0, 0, 0)" /><polygon points="609,1212 602,22 853,837 461,288" fill="rgb(255, 0, 0)" /></svg>