<svg xmlns="http://www.w3.org/2000/svg" width="1101" height="1500"><rect x="884" y="206" width="65" height="53" fill="rgb(0, 0, 255)" /><circle cx="865" cy="110" r="30" fill="rgb(255, 0, 0)" /><rect x="101" y="540" width="126" height="179" fill="rgb(255, 0, 0)" /><polygon points="275,826 333,954 1068,335 99,43 404,291 85,1424" fill="rgb(0, 0, 255)" /><polygon points="493,1209 282,1048 217,1397 928,792 260,156 583,1170" fill="rgb(255, 255, 0)" /><circle cx="224" cy="24" r="46" fill="rgb(0, 0, 0)" /><circle cx="217" cy="1192" r="24" fill="rgb(255, 255, 0)" /><circle cx="447" cy="165" r="85" fill="rgb(255, 255, 0)" /><rect x="799" y="741" width="193" height="101" fill="rgb(255, 255, 0)" /><polygon points="95,18 792,196 546,997 458,834 491,1276" fill="rgb(255, 255, 0)" /><circle cx="625" cy="146" r="43" fill="rgb(255, 255, 0)" /><rect x="402" y="85" width="65" height="143" fill="rgb(0, 0, 255)" /><rect x="595" y="964" width="147" height="199" fill="rgb(0, 0, 255)" /><circle cx="1032" cy="878" r="70" fill="rgb(255, 255, 0)" /><circle cx="78" cy="245" r="27" fill="rgb(0, 0, 255)" /><rect x="101" y="1158" width="60" height="139" fill="rgb(255, 255, 0)" /><circle cx="360" cy="1457" r="89" fill="rgb(255, 255, 0)" /><circle cx="873" cy="672" r="29" fill="rgb(255, 0, 0)" /><polygon points="857,1225 311,1215 762,1290 499,1209 394,897" fill="rgb(255, 255, 0)" /><rect x="731" y="1008" width="100" height="120" fill="rgb(255, 255, 0)" /><rect x="18" y="1147" width="186" height="80" fill="rgb(0, 0, 255)" /><circle cx="171" cy="1146" r="78" fill="rgb(255, 0, 0)" /><polygon points="54,1474 574,1295 1013,560 435,973 807,794" fill="rgb(0, 0, 255)" /><rect x="152" y="1091" width="54" height="178" fill="rgb(255, 255, 0)" /><polygon points="321,277 947,340 1048,1290 165,780" fill="rgb(0, 0, 0)" /><polygon points="460,1137 776,287 432,1135 916,1373 595,823 1072,1455" fill="rgb(255, 0, 0)" /><polygon points="990,1090 710,655 584,686 10,1405 449,1045" fill="rgb(0, 0, 255)" /><circle cx="888" cy="220" r="51" fill="rgb(0, 0, 0)" /><rect x="608" y="1483" width="175" height="165" fill="rgb(0, 0, 0)" /><rect x="350" y="359" width="85" height="173" fill="rgb(255, 0, 0)" /><polygon points="724,126 175,561 49,1382 658,1295 717,1348" fill="rgb(255, 255, 0)" /><rect x="151" y="507" width="107" height="166" fill="rgb(0, 0, 0)" /><rect x="492" y="618" width="182" height="61" fill="rgb(0, 0, 0)" /><polygon points="1037,668 164,483 957,1003 294,1327" fill="rgb(255, 0, 0)" /><polygon points="298,342 22,377 672,449 7,250" fill="rgb(255, 255, 0)" /><circle cx="360" cy="362" r="40" fill="rgb(255, 0, 0)" /><polygon points="416,1433 737,1359 476,747 1060,1151 842,215" fill="rgb(255, 255, 0)" /><circle cx="980" cy="1153" r="99" fill="rgb(0, 0, 255)" /><polygon points="363,708 1012,1150 509,501 30,1176 718,857" fill="rgb(255, 255, 0)" /><circle cx="755" cy="949" r="78" fill="rgb(0, 0, 255)" /><rect x="172" y="981" width="138" height="144" fill="rgb(0, 0, 255)" /><rect x="406" y="1371" width="51" height="149" fill="rgb(0, 0, 0)" /><circle cx="951" cy="668" r="62" fill="rgb(255, 255, 0)" /><polygon points="771,1213 585,568 664,411 1056,1322 464,67 63,1372" fill="rgb(0, 0, 0)" /><polygon points="1001,894 443,73 27,353 286,424 250,797" fill="rgb(0, 0, 0)" /><polygon points="950,540 1028,1193 1051,803 1087,411 708,632 287,1244" fill="rgb(255, 0, 0)" /><rect x="1039" y="1452" width="121" height="182" fill="rgb(255, 0, 0)" /><rect x="389" y="1285" width="57" height="146" fill="rgb(255, 255, 0)" /><polygon points="437,306 766,1295 946,14" fill="rgb(255, 0, 0)" /><circle cx="213" cy="1403" r="58" fill="rgb(255, 255, 0)" /><polygon points="263,43 608,422 1097,1072 761,752" fill="rgb(0, 0, 0)" /><rect x="750" y="1202" width="119" height="83" fill="rgb(0, 0, 0)" /><circle cx="175" cy="764" r="25" fill="rgb(255, 255, 0)" /><rect x="1" y="919" width="189" height="77" fill="rgb(255, 0, 0)" /><polygon points="244,727 221,345 1017,1373 364,688 124,1234 1015,819" fill="rgb(255, 0, 0)" /><rect x="542" y="1110" width="128" height="131" fill="rgb(255, 0, 0)" /><rect x="278" y="620" width="112" height="62" fill="rgb(255, 255, 0)" /><rect x="681" y="4" width="139" height="112" fill="rgb(255, 255, 0)" /><polygon points="177,1252 720,963 990,619 954,1153 461,364" fill="rgb(0, 0, 0)" /><circle cx="994" cy="858" r="53" fill="rgb(0, 0, 0)" /><polygon points="558,494 277,580 952,456" fill="rgb(255, 255, 0)" /><rect x="536" y="275" width="183" height="88" fill="rgb(0, 0, 0)" /><polygon points="639,1283 1051,207 263,1441 236,1383 569,535 48,1401" fill="rgb(255, 0, 0)" /><polygon points="395,124 357,321 889,742 885,308 946,939" fill="rgb(0, 0, 255)" /><rect x="712" y="1069" width="154" height="192" fill="rgb(0, 0, 255)" /><circle cx="821" cy="268" r="70" fill="rgb(0, 0, 255)" /><rect x="889" y="882" width="146" height="194" fill="rgb(0, 0, 255)" /><rect x="938" y="1393" width="68" height="184" fill="rgb(255, 0, 0)" /><polygon points="921,865 828,326 565,24 806,1063 620,974" fill="rgb(0, 0, 0)" /><rect x="349" y="341" width="84" height="95" fill="rgb(0, 0, 0)" /><rect x="1012" y="462" width="57" height="99" fill="rgb(0, 0, 0)" /><circle cx="508" cy="1174" r="53" fill="rgb(255, 0, 0)" /><rect x="931" y="721" width="159" height="143" fill="rgb(0, 0, 0)" /><rect x="474" y="5" width="137" height="109" fill="rgb(0, 0, 0)" /><rect x="39" y="121" width="130" height="174" fill="rgb(255, 0, 0)" /><polygon points="449,1386 235,1305 156,529" fill="rgb(0, 0, 0)" /><circle cx="154" cy="585" r="42" fill="rgb(0, 0, 0)" /><circle cx="192" cy="685" r="67" fill="rgb(0, 0, 0)" /><circle cx="617" cy="1037" r="96" fill="rgb(255, 0, 0)" /><rect x="506" y="1419" width="109" height="160" fill="rgb(0, 0, 0)" /><rect x="41" y="584" width="106" height="64" fill="rgb(0, 0, 0)" /><circle cx="702" cy="1491" r="44" fill="rgb(0, 0, 0)" /><polygon points="1068,1311 501,1300 477,1316 3,305" fill="rgb(0, 0, 255)" /><polygon points="637,1248 577,436 258,1182 620,1312 911,118 309,650" fill="rgb(255, 0, 0)" /><polygon points="94,1471 163,226 1083,877" fill="rgb(255, 255, 0)" /><polygon points="41,1220 564,915 235,1304 478,1228" fill="rgb(255, 0, 0)" /><circle cx="17" cy="1379" r="93" fill="rgb(0, 0, 0)" /><polygon points="187,824 879,651 536,1065" fill="rgb(255, 255, 0)" /><rect x="688" y="1384" width="54" height="105" fill="rgb(255, 0, 0)" /><polygon points="671,296 378,432 823,1204 995,1405 196,99 918,1459" fill="rgb(255, 0, 0)" /><polygon points="470,1465 642,1173 165,991" fill="rgb(255, 0, 0)" /><circle cx="133" cy="372" r="53" fill="rgb(255, 0, 0)" /><circle cx="477" cy="102" r="28" fill="rgb(0, 0, 255)" /><polygon points="741,947 893,168 534,1304" fill="rgb(255, 255, 0)" /><rect x="768" y="1100" width="102" height="179" fill="rgb(0, 0, 255)" /><circle cx="824" cy="403" r="93" fill="rgb(0, 0, 255)" /><circle cx="595" cy="1087" r="67" fill="rgb(0, 0, 255)" /><polygon points="432,1335 112,1402 210,1213" fill="rgb(255, 0, 0)" /><rect x="743" y="547" width="121" height="187" fill="rgb(0, 0, 0)" /><polygon points="382,910 169,481 356,66 169,359 428,1268" fill="rgb(0, 0, 255)" /><circle cx="170" cy="675" r="91" fill="rgb(255, 0, 0)" /><rect x="1021" y="1387" width="170" height="50" fill="rgb(255, 0, 0)" /><polygon points="695,907 193,72 365,1181 1083,108 908,144" fill="rgb(0, 0, 0)" /><circle cx="409" cy="176" r="71" fill="rgb(0, 0, 255)" /><polygon points="283,748 38,98 444,1476 101,313 757,409 944,227" fill="rgb(0, 0, 0)" /><polygon points="359,1058 576,1466 1073,1023 983,411" fill="rgb(255, 0, 0)" /><circle cx="1012" cy="741" r="91" fill="rgb(255, 0, 0)" /><polygon points="493,1484 521,1158 267,1363 28,494 840,680 787,417" fill="rgb(255, 255, 0)" /><rect x="448" y="502" width="190" height="182" fill="rgb(0, 0, 0)" /><rect x="904" y="210" width="59" height="100" fill="rgb(255, 255, 0)" /><polygon points="1058,541 418,665 67,744" fill="rgb(255, 255, 0)" /><rect x="279" y="1412" width="52" height="156" fill="rgb(0, 0, 255)" /><rect x="235" y="843" width="64" height="68" fill="rgb(255, 255, 0)" /><polygon points="300,235 818,955 658,990" fill="rgb(255, 0, 0)" /><circle cx="179" cy="684" r="45" fill="rgb(0, 0, 255)" /><circle cx="971" cy="929" r="71" fill="rgb(0, 0, 0)" /></svg>