<svg xmlns="http://www.w3.org/2000/svg" width="1101" height="1500"><circle cx="247" cy="400" r="92" fill="rgb(255, 255, 0)" /><circle cx="525" cy="898" r="32" fill="rgb(255, 0, 0)" /><circle cx="0" cy="821" r="100" fill="rgb(0, 0, 0)" /><rect x="21" y="351" width="125" height="157" fill="rgb(255, 0, 0)" /><polygon points="462,158 724,1470 471,792 517,875" fill="rgb(255, 0, 0)" /><rect x="474" y="1186" width="122" height="85" fill="rgb(255, 255, 0)" /><rect x="769" y="937" width="59" height="132" fill="rgb(0, 0, 255)" /><circle cx="229" cy="1235" r="60" fill="rgb(255, 255, 0)" /><circle cx="544" cy="491" r="28" fill="rgb(255, 255, 0)" /><rect x="56" y="1000" width="159" height="167" fill="rgb(255, 0, 0)" /><rect x="748" y="502" width="172" height="145" fill="rgb(255, 0, 0)" /><rect x="107" y="630" width="151" height="78" fill="rgb(0, 0, 0)" /><circle cx="225" cy="1195" r="81" fill="rgb(0, 0, 255)" /><polygon points="475,1044 1073,664 202,1410" fill="rgb(0, 0, 0)" /><circle cx="771" cy="1476" r="38" fill="rgb(255, 0, 0)" /><polygon points="602,1352 1060,947 394,379" fill="rgb(0, 0, 0)" /><circle cx="522" cy="353" r="41" fill="rgb(255, 255, 0)" /><rect x="17" y="1107" width="171" height="153" fill="rgb(0, 0, 255)" /><rect x="807" y="281" width="166" height="196" fill="rgb(0, 0, 255)" /><circle cx="644" cy="0" r="33" fill="rgb(0, 0, 0)" /><polygon points="859,737 564,1257 921,330 873,997" fill="rgb(0, 0, 0)" /><polygon points="189,425 782,1045 811,877 320,916 62,263 223,1479" fill="rgb(0, 0, 255)" /><rect x="687" y="619" width="56" height="113" fill="rgb(0, 0, 0)" /><polygon points="942,324 754,271 46,293 581,831 589,1156 683,732" fill="rgb(255, 255, 0)" /><polygon points="743,104 632,1007 191,931" fill="rgb(255, 255, 0)" /><rect x="249" y="971" width="56" height="169" fill="rgb(0, 0, 255)" /><circle cx="1039" cy="1463" r="33" fill="rgb(0, 0, 255)" /><circle cx="186" cy="1251" r="63" fill="rgb(0, 0, 0)" /><circle cx="685" cy="1325" r="23" fill="rgb(255, 0, 0)" /><polygon points="111,1175 463,154 818,839 674,1110 800,1472 740,282" fill="rgb(0, 0, 255)" /><circle cx="308" cy="1421" r="22" fill="rgb(0, 0, 0)" /><circle cx="880" cy="972" r="25" fill="rgb(0, 0, 0)" /><polygon points="52,1120 604,647 940,1475 797,38 418,987" fill="rgb(0, 0, 0)" /><circle cx="884" cy="1202" r="36" fill="rgb(255, 255, 0)" /><rect x="186" y="302" width="86" height="143" fill="rgb(255, 255, 0)" /><polygon points="286,1262 758,215 882,1139 21,161" fill="rgb(0, 0, 255)" /><polygon points="63,314 397,944 101,469 203,90" fill="rgb(255, 0, 0)" /><circle cx="484" cy="438" r="47" fill="rgb(0, 0, 0)" /><rect x="765" y="615" width="86" height="193" fill="rgb(0, 0, 255)" /><polygon points="376,528 175,758 858,162 723,166 298,1244" fill="rgb(0, 0, 0)" /><rect x="369" y="527" width="74" height="71" fill="rgb(255, 0, 0)" /><rect x="657" y="1479" width="120" height="78" fill="rgb(0, 0, 255)" /><polygon points="976,1099 786,733 284,639 742,255 755,508" fill="rgb(255, 0, 0)" /><rect x="579" y="1174" width="114" height="96" fill="rgb(0, 0, 255)" /><rect x="380" y="1214" width="192" height="99" fill="rgb(255, 0, 0)" /><circle cx="266" cy="1016" r="22" fill="rgb(255, 0, 0)" /><rect x="777" y="285" width="70" height="93" fill="rgb(0, 0, 0)" /><rect x="676" y="900" width="119" height="109" fill="rgb(255, 255, 0)" /><circle cx="790" cy="291" r="23" fill="rgb(255, 0, 0)" /><polygon points="995,637 500,5 837,471" fill="rgb(255, 255, 0)" /><polygon points="972,432 543,1083 860,181 899,219" fill="rgb(0, 0, 255)" /><circle cx="400" cy="1039" r="81" fill="rgb(255, 255, 0)" /><circle cx="786" cy="797" r="63" fill="rgb(0, 0, 255)" /><polygon points="32,889 161,594 932,677 27,181 540,1325" fill="rgb(255, 0, 0)" /><polygon points="60,886 1044,1019 510,1466" fill="rgb(255, 0, 0)" /><rect x="134" y="1328" width="136" height="192" fill="rgb(0, 0, 255)" /><circle cx="783" cy="92" r="46" fill="rgb(0, 0, 0)" /><polygon points="892,978 637,925 936,1430" fill="rgb(255, 255, 0)" /><polygon points="613,64 436,954 350,386" fill="rgb(255, 0, 0)" /><polygon points="1017,1375 318,647 565,1191" fill="rgb(255, 0, 0)" /><circle cx="863" cy="292" r="21" fill="rgb(0, 0, 0)" /><circle cx="1039" cy="1491" r="79" fill="rgb(255, 255, 0)" /><polygon points="968,1133 1003,1187 1037,1466" fill="rgb(0, 0, 255)" /><polygon points="20,1300 18,367 188,1193 877,1421 98,1246 243,1006" fill="rgb(0, 0, 255)" /><rect x="659" y="604" width="154" height="82" fill="rgb(255, 0, 0)" /><rect x="1044" y="566" width="167" height="75" fill="rgb(255, 255, 0)" /><circle cx="933" cy="1321" r="73" fill="rgb(255, 255, 0)" /><rect x="292" y="68" width="124" height="169" fill="rgb(255, 255, 0)" /><polygon points="570,883 748,1375 1087,703" fill="rgb(255, 255, 0)" /><circle cx="703" cy="879" r="98" fill="rgb(0, 0, 0)" /><circle cx="185" cy="451" r="35" fill="rgb(0, 0, 255)" /><polygon points="393,982 251,603 524,986 871,640 591,1363 580,1014" fill="rgb(255, 255, 0)" /><rect x="308" y="1064" width="162" height="159" fill="rgb(255, 255, 0)" /><circle cx="555" cy="1292" r="62" fill="rgb(255, 0, 0)" /><circle cx="751" cy="689" r="61" fill="rgb(255, 255, 0)" /><circle cx="803" cy="137" r="89" fill="rgb(255, 0, 0)" /><circle cx="211" cy="215" r="98" fill="rgb(0, 0, 0)" /><rect x="447" y="128" width="197" height="111" fill="rgb(255, 255, 0)" /><circle cx="854" cy="578" r="44" fill="rgb(0, 0, 255)" /><polygon points="551,772 837,163 687,217 244,870 288,1472" fill="rgb(255, 0, 0)" /><rect x="997" y="325" width="184" height="198" fill="rgb(0, 0, 0)" /><circle cx="1095" cy="1391" r="97" fill="rgb(255, 255, 0)" /><polygon points="81,996 37,1279 941,1059" fill="rgb(255, 255, 0)" /><circle cx="108" cy="1310" r="21" fill="rgb(255, 255, 0)" /><polygon points="598,1446 359,485 285,783 739,678 658,787" fill="rgb(0, 0, 255)" /><rect x="230" y="469" width="104" height="107" fill="rgb(0, 0, 255)" /><rect x="140" y="865" width="149" height="56" fill="rgb(0, 0, 0)" /><polygon points="443,95 862,313 73,856 1082,1110" fill="rgb(255, 255, 0)" /><rect x="18" y="1438" width="138" height="65" fill="rgb(0, 0, 255)" /><rect x="410" y="936" width="197" height="89" fill="rgb(0, 0, 255)" /><rect x="260" y="823" width="112" height="74" fill="rgb(255, 255, 0)" /><circle cx="371" cy="411" r="26" fill="rgb(0, 0, 255)" /><polygon points="137,1283 180,1000 393,865 951,772 7,1419 28,717" fill="rgb(255, 0, 0)" /><circle cx="747" cy="1045" r="90" fill="rgb(255, 0, 0)" /><polygon points="586,1155 95,859 209,158 768,562" fill="rgb(255, 255, 0)" /><rect x="179" y="1487" width="81" height="64" fill="rgb(0, 0, 255)" /><polygon points="1021,515 914,148 827,1024" fill="rgb(255, 255, 0)" /><rect x="303" y="1108" width="142" height="156" fill="rgb(255, 255, 0)" /><polygon points="540,1445 1083,1153 529,742 11,982 534,128 949,1027" fill="rgb(255, 0, 0)" /><polygon points="708,1022 553,442 1004,134" fill="rgb(255, 255, 0)" /><polygon points="811,1442 492,883 97,668" fill="rgb(0, 0, 255)" /><polygon points="971,34 1015,849 407,61 663,13" fill="rgb(0, 0, 255)" /><rect x="745" y="859" width="196" height="190" fill="rgb(0, 0, 0)" /><polygon points="22,849 91,1340 783,246 525,1435 444,1246 861,142" fill="rgb(0, 0, 0)" /><rect x="773" y="568" width="97" height="112" fill="rgb(0, 0, 0)" /><polygon points="849,297 935,879 48,890" fill="rgb(0, 0, 0)" /><circle cx="410" cy="1312" r="67" fill="rgb(0, 0, 0)" /><rect x="422" y="1199" width="50" height="52" fill="rgb(0, 0, 255)" /><circle cx="386" cy="705" r="43" fill="rgb(0, 0, 0)" /><polygon points="135,15 525,907 846,522 344,737" fill="rgb(255, 0, 0)" /><rect x="81" y="313" width="177" height="168" fill="rgb(255, 0, 0)" /><rect x="475" y="729" width="136" height="128" fill="rgb(0, 0, 255)" /><rect x="78" y="197" width="195" height="177" fill="rgb(0, 0, 0)" /><circle cx="915" cy="607" r="32" fill="rgb(255, 0, 0)" /><polygon points="263,97 540,229 270,845 1093,362" fill="rgb(255, 255, 0)" /><polygon points="37,953 529,761 879,1040 407,803 818,424" fill="rgb(255, 0, 0)" /><polygon points="103,1473 799,909 889,672" fill="rgb(0, 0, 255)" /><polygon points="707,1139 97,52 435,494 308,995 536,174 38,1100" fill="rgb(255, 255, 0)" /><polygon points="1,841 666,791 750,259 874,1485 344,1244 634,1144" fill="rgb(255, 255, 0)" /><rect x="754" y="342" width="140" height="104" fill="rgb(0, 0, 255)" /><polygon points="912,352 1013,384 606,776 979,831 302,803" fill="rgb(255, 0, 0)" /><polygon points="782,58 301,397 738,982 476,214" fill="rgb(255, 0, 0)" /><rect x="320" y="707" width="71" height="180" fill="rgb(0, 0, 255)" /><rect x="796" y="737" width="197" height="153" fill="rgb(0, 0, 255)" /><circle cx="752" cy="1061" r="68" fill="rgb(255, 0, 0)" /><circle cx="408" cy="84" r="73" fill="rgb(0, 0, 255)" /><rect x="278" y="882" width="56" height="138" fill="rgb(255, 0, 0)" /><circle cx="8" cy="784" r="49" fill="rgb(255, 255, 0)" /><rect x="77" y="868" width="129" height="77" fill="rgb(0, 0, 255)" /><rect x="581" y="140" width="65" height="70" fill="rgb(0, 0, 0)" /><rect x="731" y="1328" width="83" height="67" fill="rgb(255, 0, 0)" /><polygon points="678,1491 403,1198 97,941" fill="rgb(0, 0, 0)" /><polygon points="817,1294 224,988 845,152 573,1499 373,422" fill="rgb(0, 0, 255)" /><circle cx="175" cy="1293" r="23" fill="rgb(0, 0, 0)" /><circle cx="824" cy="209" r="92" fill="rgb(0, 0, 0)" /><circle cx="617" cy="997" r="54" fill="rgb(0, 0, 0)" /><circle cx="405" cy="598" r="93" fill="rgb(0, 0, 0)" /><polygon points="417,86 557,1356 348,1361 58,228 387,1383 727,867" fill="rgb(0, 0, 0)" /><circle cx="160" cy="672" r="76" fill="rgb(0, 0, 255)" /><rect x="896" y="1083" width="94" height="126" fill="rgb(255, 0, 0)" /><polygon points="12,83 174,1035 121,319" fill="rgb(255, 0, 0)" /><polygon points="227,1065 1099,361 778,744" fill="rgb(255, 0, 0)" /><polygon points="439,782 220,300 1032,356 1017,674 613,1238" fill="rgb(255, 0, 0)" /><rect x="22" y="1211" width="125" height="110" fill="rgb(255, 255, 0)" /><circle cx="781" cy="1488" r="69" fill="rgb(255, 255, 0)" /><polygon points="53,1151 576,1292 419,301" fill="rgb(255, 255, 0)" /><circle cx="536" cy="1292" r="33" fill="rgb(255, 255, 0)" /><polygon points="642,37 360,259 663,323" fill="rgb(255, 0, 0)" /><rect x="1064" y="868" width="153" height="75" fill="rgb(0, 0, 255)" /><polygon points="1097,325 393,220 775,468 347,537 861,166" fill="rgb(255, 0, 0)" /><rect x="952" y="959" width="76" height="98" fill="rgb(0, 0, 0)" /><rect x="577" y="67" width="88" height="123" fill="rgb(0, 0, 255)" /></svg>