<svg xmlns="http://www.w3.org/2000/svg" width="1101" height="1500"><rect x="889" y="785" width="131" height="173" fill="rgb(0, 0, 255)" /><polygon points="327,821 1049,469 440,1167" fill="rgb(0, 0, 255)" /><circle cx="550" cy="1370" r="87" fill="rgb(255, 0, 0)" /><circle cx="995" cy="388" r="68" fill="rgb(255, 255, 0)" /><polygon points="154,1048 438,1113 1035,1151 147,1043 600,721 552,83" fill="rgb(0, 0, 255)" /><rect x="814" y="624" width="91" height="139" fill="rgb(255, 0, 0)" /><rect x="702" y="990" width="108" height="132" fill="rgb(255, 255, 0)" /><rect x="961" y="405" width="63" height="62" fill="rgb(255, 255, 0)" /><rect x="38" y="476" width="102" height="142" fill="rgb(0, 0, 0)" /><circle cx="844" cy="1235" r="95" fill="rgb(255, 0, 0)" /><circle cx="420" cy="366" r="54" fill="rgb(255, 255, 0)" /><circle cx="732" cy="1038" r="86" fill="rgb(0, 0, 255)" /><circle cx="353" cy="527" r="61" fill="rgb(255, 0, 0)" /><polygon points="286,202 1084,1411 458,1478" fill="rgb(0, 0, 0)" /><circle cx="115" cy="1206" r="55" fill="rgb(255, 0, 0)" /><circle cx="970" cy="948" r="78" fill="rgb(0, 0, 0)" /><polygon points="1062,605 691,199 36,74 75,935 588,1499 560,1180" fill="rgb(0, 0, 255)" /><circle cx="386" cy="1087" r="31" fill="rgb(0, 0, 255)" /><circle cx="393" cy="1289" r="83" fill="rgb(0, 0, 255)" /><polygon points="1096,740 998,496 674,210 391,1267 977,1423 858,863" fill="rgb(0, 0, 255)" /><polygon points="568,603 138,963 40,1445 865,1168 665,261" fill="rgb(0, 0, 0)" /><rect x="447" y="1214" width="161" height="122" fill="rgb(255, 255, 0)" /><circle cx="599" cy="967" r="74" fill="rgb(0, 0, 255)" /><circle cx="325" cy="129" r="44" fill="rgb(255, 255, 0)" /><circle cx="1" cy="898" r="37" fill="rgb(255, 0, 0)" /><rect x="344" y="441" width="64" height="85" fill="rgb(255, 255, 0)" /><rect x="638" y="973" width="85" height="118" fill="rgb(255, 0, 0)" /><polygon points="986,409 975,1167 416,910 977,1304" fill="rgb(255, 255, 0)" /><rect x="1021" y="218" width="127" height="168" fill="rgb(255, 255, 0)" /><polygon points="371,1238 10,647 80,18" fill="rgb(0, 0, 255)" /><polygon points="805,1242 477,641 515,509 101,715 315,348" fill="rgb(255, 255, 0)" /><polygon points="831,486 721,1140 680,467 349,693" fill="rgb(0, 0, 255)" /><circle cx="437" cy="905" r="89" fill="rgb(255, 255, 0)" /><polygon points="758,904 656,1045 128,930 674,400" fill="rgb(255, 255, 0)" /><polygon points="814,918 623,125 487,381" fill="rgb(0, 0, 255)" /><polygon points="347,798 1051,777 579,307" fill="rgb(0, 0, 0)" /><circle cx="726" cy="1037" r="54" fill="rgb(255, 255, 0)" /><rect x="941" y="1091" width="163" height="57" fill="rgb(0, 0, 0)" /><polygon points="528,441 358,1428 1049,948 863,842 320,1441" fill="rgb(255, 0, 0)" /><circle cx="328" cy="73" r="57" fill="rgb(0, 0, 255)" /><polygon points="238,604 371,1264 699,117 666,424 909,1121" fill="rgb(0, 0, 0)" /><polygon points="1091,697 850,169 100,344 686,388 587,735 355,1500" fill="rgb(255, 255, 0)" /><polygon points="492,692 137,627 1012,398" fill="rgb(255, 255, 0)" /><polygon points="941,770 426,849 432,344 328,1494 484,576" fill="rgb(0, 0, 255)" /><rect x="126" y="1435" width="196" height="72" fill="rgb(255, 255, 0)" /><rect x="300" y="1056" width="109" height="159" fill="rgb(255, 0, 0)" /><polygon points="949,272 309,1033 1096,841 554,1386 750,308 690,223" fill="rgb(0, 0, 0)" /><polygon points="357,1418 794,769 920,107 203,684 1049,1373 145,1396" fill="rgb(0, 0, 0)" /><circle cx="618" cy="968" r="97" fill="rgb(0, 0, 255)" /><circle cx="820" cy="66" r="27" fill="rgb(255, 0, 0)" /><polygon points="1072,830 363,428 575,351 683,1085 320,407" fill="rgb(0, 0, 0)" /><polygon points="328,1060 309,970 400,279 739,69 387,622 230,668" fill="rgb(0, 0, 0)" /><rect x="181" y="1467" width="89" height="125" fill="rgb(0, 0, 0)" /><circle cx="358" cy="151" r="96" fill="rgb(255, 0, 0)" /><rect x="680" y="798" width="161" height="68" fill="rgb(0, 0, 255)" /><circle cx="45" cy="667" r="46" fill="rgb(0, 0, 255)" /><polygon points="820,597 139,971 910,1007 374,1117" fill="rgb(255, 255, 0)" /><rect x="154" y="385" width="55" height="94" fill="rgb(255, 0, 0)" /><circle cx="818" cy="798" r="94" fill="rgb(0, 0, 255)" /><rect x="73" y="1007" width="131" height="102" fill="rgb(0, 0, 0)" /><rect x="840" y="1119" width="172" height="66" fill="rgb(0, 0, 255)" /><rect x="978" y="1244" width="100" height="162" fill="rgb(0, 0, 0)" /><circle cx="768" cy="1224" r="84" fill="rgb(255, 255, 0)" /><circle cx="118" cy="1121" r="88" fill="rgb(255, 0, 0)" /><circle cx="632" cy="283" r="21" fill="rgb(0, 0, 0)" /><rect x="811" y="1240" width="61" height="133" fill="rgb(255, 255, 0)" /><rect x="607" y="1369" width="158" height="86" fill="rgb(0, 0, 255)" /><polygon points="908,559 114,298 491,1003" fill="rgb(0, 0, 0)" /><polygon points="907,1092 1025,502 769,723" fill="rgb(255, 0, 0)" /><rect x="1072" y="1230" width="156" height="110" fill="rgb(255, 255, 0)" /><polygon points="482,282 873,726 1051,757 668,685" fill="rgb(0, 0, 255)" /><circle cx="991" cy="371" r="72" fill="rgb(0, 0, 0)" /><rect x="472" y="1186" width="163" height="132" fill="rgb(255, 0, 0)" /><rect x="734" y="1252" width="65" height="159" fill="rgb(255, 0, 0)" /><circle cx="23" cy="1130" r="61" fill="rgb(0, 0, 255)" /><rect x="813" y="674" width="96" height="97" fill="rgb(0, 0, 0)" /><circle cx="413" cy="281" r="35" fill="rgb(0, 0, 255)" /><circle cx="714" cy="76" r="53" fill="rgb(0, 0, 0)" /><circle cx="844" cy="680" r="58" fill="rgb(255, 255, 0)" /><polygon points="743,211 191,1213 189,992" fill="rgb(0, 0, 0)" /><circle cx="98" cy="781" r="62" fill="rgb(0, 0, 0)" /><circle cx="928" cy="282" r="49" fill="rgb(0, 0, 255)" /><circle cx="53" cy="1020" r="79" fill="rgb(255, 255, 0)" /><circle cx="43" cy="823" r="71" fill="rgb(255, 255, 0)" /><rect x="398" y="1165" width="82" height="78" fill="rgb(255, 0, 0)" /><rect x="837" y="1097" width="109" height="165" fill="rgb(255, 255, 0)" /><polygon points="730,934 212,113 1047,1307 879,1199 730,230" fill="rgb(255, 255, 0)" /><rect x="253" y="597" width="73" height="192" fill="rgb(255, 0, 0)" /><polygon points="639,298 977,1404 847,1017 268,714 477,71 1074,895" fill="rgb(0, 0, 255)" /><polygon points="855,848 248,1453 707,309 871,974 528,474" fill="rgb(0, 0, 0)" /><circle cx="244" cy="493" r="27" fill="rgb(255, 0, 0)" /><circle cx="872" cy="1344" r="100" fill="rgb(0, 0, 0)" /><circle cx="337" cy="137" r="22" fill="rgb(255, 255, 0)" /><circle cx="206" cy="1059" r="93" fill="rgb(255, 0, 0)" /><polygon points="10,782 482,313 690,1087 558,802 829,679 342,942" fill="rgb(0, 0, 255)" /><polygon points="797,1158 553,759 662,1327 238,228 830,540" fill="rgb(255, 255, 0)" /><polygon points="520,529 1045,1349 652,806 546,324 832,581" fill="rgb(255, 0, 0)" /><circle cx="98" cy="1263" r="93" fill="rgb(0, 0, 255)" /><circle cx="1095" cy="1308" r="82" fill="rgb(255, 0, 0)" /><circle cx="471" cy="548" r="83" fill="rgb(0, 0, 0)" /><polygon points="507,1122 929,85 574,771" fill="rgb(0, 0, 255)" /><rect x="1067" y="173" width="109" height="87" fill="rgb(255, 0, 0)" /><circle cx="560" cy="1451" r="26" fill="rgb(0, 0, 255)" /><circle cx="175" cy="1148" r="98" fill="rgb(255, 0, 0)" /><polygon points="375,790 981,81 894,609 718,1137 350,329 54,1350" fill="rgb(255, 255, 0)" /><polygon points="959,571 912,500 921,443" fill="rgb(255, 0, 0)" /><polygon points="227,491 332,375 892,504" fill="rgb(255, 0, 0)" /><polygon points="1034,1134 1059,91 103,550 745,1159" fill="rgb(0, 0, 255)" /><polygon points="723,209 633,1214 1024,1151 1017,1499 457,1320" fill="rgb(255, 0, 0)" /><rect x="444" y="621" width="90" height="131" fill="rgb(255, 0, 0)" /><polygon points="714,665 864,27 502,365 278,857 60,1189 588,900" fill="rgb(255, 255, 0)" /><polygon points="45,67 357,791 884,1287 340,997 463,1343 892,1269" fill="rgb(0, 0, 0)" /><polygon points="226,724 93,580 65,142 833,116" fill="rgb(255, 255, 0)" /><circle cx="640" cy="1500" r="93" fill="rgb(0, 0, 0)" /><rect x="364" y="1335" width="65" height="197" fill="rgb(0, 0, 255)" /><circle cx="185" cy="461" r="49" fill="rgb(255, 255, 0)" /><rect x="116" y="1055" width="160" height="66" fill="rgb(0, 0, 0)" /><circle cx="911" cy="371" r="60" fill="rgb(255, 255, 0)" /><circle cx="632" cy="1239" r="89" fill="rgb(0, 0, 255)" /><polygon points="763,1403 148,825 1055,470" fill="rgb(0, 0, 255)" /></svg>