<svg xmlns="http://www.w3.org/2000/svg" width="1101" height="1500"><circle cx="37" cy="191" r="43" fill="rgb(255, 255, 0)" /><circle cx="552" cy="1226" r="65" fill="rgb(255, 0, 0)" /><rect x="1072" y="949" width="73" height="174" fill="rgb(0, 0, 255)" /><rect x="59" y="1245" width="167" height="86" fill="rgb(0, 0, 255)" /><circle cx="1050" cy="1448" r="49" fill="rgb(255, 0, 0)" /><polygon points="945,322 20,418 1096,766 154,565 76,43 885,1180" fill="rgb(0, 0, 255)" /><rect x="309" y="400" width="64" height="83" fill="rgb(255, 255, 0)" /><rect x="812" y="392" width="128" height="136" fill="rgb(255, 0, 0)" /><polygon points="681,1316 995,1297 108,1320 726,308 1066,25" fill="rgb(255, 0, 0)" /><circle cx="511" cy="275" r="67" fill="rgb(0, 0, 255)" /><circle cx="996" cy="468" r="49" fill="rgb(0, 0, 255)" /><circle cx="811" cy="399" r="69" fill="rgb(0, 0, 255)" /><circle cx="1035" cy="984" r="65" fill="rgb(0, 0, 255)" /><circle cx="510" cy="1136" r="62" fill="rgb(255, 255, 0)" /><rect x="1029" y="1134" width="86" height="83" fill="rgb(255, 0, 0)" /><rect x="976" y="309" width="93" height="61" fill="rgb(255, 0, 0)" /><polygon points="242,949 552,1359 105,676 506,1222" fill="rgb(0, 0, 255)" /><polygon points="717,62 497,319 909,1072 33,383" fill="rgb(0, 0, 255)" /><rect x="199" y="1404" width="167" height="113" fill="rgb(255, 255, 0)" /><rect x="27" y="1367" width="92" height="146" fill="rgb(255, 255, 0)" /><circle cx="490" cy="478" r="59" fill="rgb(255, 255, 0)" /><rect x="471" y="1473" width="115" height="114" fill="rgb(0, 0, 255)" /><circle cx="485" cy="797" r="41" fill="rgb(255, 0, 0)" /><circle cx="350" cy="1149" r="36" fill="rgb(255, 0, 0)" /><polygon points="764,311 496,1488 1072,798" fill="rgb(0, 0, 0)" /><rect x="891" y="358" width="169" height="140" fill="rgb(0, 0, 255)" /><polygon points="55,326 966,242 339,214 1065,1130 534,66" fill="rgb(255, 0, 0)" /><rect x="471" y="1455" width="146" height="174" fill="rgb(0, 0, 0)" /><polygon points="244,745 1083,743 365,425" fill="rgb(0, 0, 0)" /><rect x="1045" y="1071" width="132" height="79" fill="rgb(0, 0, 0)" /><circle cx="301" cy="621" r="60" fill="rgb(255, 0, 0)" /><circle cx="1059" cy="1312" r="84" fill="rgb(255, 255, 0)" /><polygon points="301,292 1046,1241 960,280 504,845 523,627" fill="rgb(0, 0, 0)" /><rect x="1088" y="293" width="125" height="157" fill="rgb(255, 0, 0)" /><rect x="297" y="1351" width="175" height="115" fill="rgb(255, 0, 0)" /><rect x="640" y="529" width="62" height="159" fill="rgb(0, 0, 255)" /><polygon points="402,377 895,98 432,276" fill="rgb(0, 0, 255)" /><circle cx="986" cy="691" r="56" fill="rgb(255, 255, 0)" /><rect x="581" y="1084" width="190" height="72" fill="rgb(255, 0, 0)" /><rect x="219" y="69" width="102" height="133" fill="rgb(255, 0, 0)" /><polygon points="930,314 107,1252 369,1076 503,1212" fill="rgb(255, 255, 0)" /><polygon points="254,1260 281,189 782,1318" fill="rgb(0, 0, 255)" /><rect x="840" y="311" width="90" height="53" fill="rgb(0, 0, 0)" /><polygon points="219,1220 743,887 96,380 1098,871 267,107 90,617" fill="rgb(255, 255, 0)" /><polygon points="341,861 407,950 880,479" fill="rgb(0, 0, 255)" /><circle cx="782" cy="487" r="73" fill="rgb(0, 0, 255)" /><polygon points="537,236 1036,157 383,979" fill="rgb(0, 0, 255)" /><polygon points="1057,1277 274,304 303,426 506,1241" fill="rgb(0, 0, 0)" /><polygon points="709,623 125,149 243,733" fill="rgb(255, 0, 0)" /><circle cx="160" cy="518" r="31" fill="rgb(0, 0, 0)" /><polygon points="958,359 564,1434 168,1002 152,1186 379,1249 443,1365" fill="rgb(255, 0, 0)" /><polygon points="720,118 846,53 611,49 918,168" fill="rgb(0, 0, 255)" /><rect x="841" y="993" width="155" height="124" fill="rgb(255, 0, 0)" /><rect x="461" y="1087" width="124" height="124" fill="rgb(255, 255, 0)" /><circle cx="767" cy="849" r="59" fill="rgb(255, 0, 0)" /><polygon points="626,107 924,426 474,1338 1071,353 606,521 720,1250" fill="rgb(0, 0, 255)" /><circle cx="957" cy="1175" r="66" fill="rgb(0, 0, 0)" /><rect x="125" y="1017" width="161" height="177" fill="rgb(0, 0, 255)" /><rect x="197" y="1439" width="119" height="95" fill="rgb(0, 0, 255)" /><circle cx="800" cy="1412" r="33" fill="rgb(0, 0, 255)" /><circle cx="592" cy="1101" r="83" fill="rgb(0, 0, 255)" /><rect x="22" y="594" width="157" height="71" fill="rgb(0, 0, 0)" /><rect x="948" y="878" width="192" height="186" fill="rgb(0, 0, 0)" /><circle cx="318" cy="1107" r="50" fill="rgb(255, 0, 0)" /><circle cx="732" cy="798" r="65" fill="rgb(255, 0, 0)" /><polygon points="544,766 212,378 483,460 499,336" fill="rgb(255, 255, 0)" /><polygon points="335,1424 536,238 684,72" fill="rgb(0, 0, 255)" /><polygon points="407,1061 249,406 38,759 49,1136" fill="rgb(255, 255, 0)" /><rect x="201" y="1236" width="186" height="116" fill="rgb(255, 255, 0)" /><rect x="651" y="830" width="51" height="173" fill="rgb(255, 255, 0)" /><polygon points="752,368 784,559 257,1348 217,371 393,351" fill="rgb(0, 0, 255)" /><circle cx="186" cy="1242" r="25" fill="rgb(0, 0, 255)" /><polygon points="676,1351 764,628 76,929 292,335 680,934 1096,725" fill="rgb(0, 0, 255)" /><circle cx="342" cy="421" r="81" fill="rgb(255, 255, 0)" /><circle cx="1014" cy="279" r="53" fill="rgb(0, 0, 255)" /><polygon points="1024,1069 997,548 221,1183 748,648" fill="rgb(0, 0, 255)" /><rect x="82" y="8" width="177" height="164" fill="rgb(255, 0, 0)" /><rect x="518" y="419" width="200" height="130" fill="rgb(0, 0, 0)" /><polygon points="699,486 1020,175 758,362 456,216 744,1131 1101,610" fill="rgb(255, 255, 0)" /><circle cx="445" cy="1439" r="52" fill="rgb(255, 0, 0)" /><circle cx="919" cy="1080" r="90" fill="rgb(0, 0, 0)" /><circle cx="255" cy="181" r="68" fill="rgb(255, 255, 0)" /><polygon points="72,740 1008,556 691,1092" fill="rgb(0, 0, 255)" /><circle cx="477" cy="721" r="97" fill="rgb(0, 0, 0)" /><polygon points="338,547 587,1000 908,1182 131,1069 495,1048" fill="rgb(255, 0, 0)" /><circle cx="143" cy="211" r="49" fill="rgb(255, 255, 0)" /><circle cx="1050" cy="436" r="40" fill="rgb(0, 0, 255)" /><polygon points="330,1385 643,54 537,225" fill="rgb(0, 0, 255)" /><rect x="586" y="1020" width="84" height="64" fill="rgb(0, 0, 255)" /><polygon points="425,1407 69,1091 666,265 916,368" fill="rgb(255, 255, 0)" /><circle cx="260" cy="1247" r="93" fill="rgb(255, 255, 0)" /><rect x="919" y="721" width="109" height="61" fill="rgb(0, 0, 255)" /><polygon points="751,352 219,288 821,298 402,546" fill="rgb(255, 0, 0)" /><polygon points="1008,1096 722,886 1018,93 3,450 434,940 849,906" fill="rgb(255, 255, 0)" /><rect x="969" y="965" width="115" height="69" fill="rgb(255, 0, 0)" /><circle cx="765" cy="458" r="68" fill="rgb(0, 0, 0)" /><polygon points="931,642 1094,425 232,167 444,658 811,822 656,310" fill="rgb(255, 255, 0)" /><circle cx="540" cy="1026" r="34" fill="rgb(0, 0, 255)" /><polygon points="162,721 255,1212 254,242 546,807 830,134" fill="rgb(255, 0, 0)" /><rect x="40" y="985" width="183" height="173" fill="rgb(255, 255, 0)" /><polygon points="872,1383 621,1028 221,949 219,203 408,310" fill="rgb(255, 255, 0)" /><polygon points="240,1327 270,698 202,1193 845,531" fill="rgb(0, 0, 255)" /><rect x="907" y="849" width="51" height="196" fill="rgb(255, 0, 0)" /><circle cx="736" cy="802" r="40" fill="rgb(255, 0, 0)" /><polygon points="322,943 843,256 150,1175 253,1172 753,631" fill="rgb(255, 255, 0)" /><rect x="196" y="771" width="93" height="148" fill="rgb(255, 255, 0)" /><polygon points="1093,567 907,1477 295,464 137,1185" fill="rgb(255, 255, 0)" /><circle cx="226" cy="425" r="78" fill="rgb(255, 0, 0)" /></svg>