<svg xmlns="http://www.w3.org/2000/svg" width="1101" height="1500"><polygon points="974,744 759,210 108,1476" fill="rgb(255, 255, 0)" /><rect x="590" y="943" width="141" height="115" fill="rgb(255, 0, 0)" /><rect x="402" y="307" width="185" height="160" fill="rgb(255, 0, 0)" /><polygon points="224,107 179,1461 142,160 145,425 344,1231 1069,836" fill="rgb(255, 255, 0)" /><polygon points="642,779 804,744 16,134 708,950 851,1359" fill="rgb(0, 0, 0)" /><circle cx="620" cy="774" r="71" fill="rgb(255, 255, 0)" /><polygon points="927,719 743,163 366,1440 804,550 305,928 34,87" fill="rgb(255, 255, 0)" /><rect x="314" y="110" width="149" height="98" fill="rgb(255, 0, 0)" /><polygon points="1006,947 1038,1100 497,4 247,741 789,922" fill="rgb(255, 255, 0)" /><rect x="243" y="151" width="135" height="50" fill="rgb(255, 255, 0)" /><polygon points="1007,696 244,1178 141,1226" fill="rgb(0, 0, 255)" /><polygon points="858,652 719,1393 514,1435 983,103" fill="rgb(0, 0, 255)" /><circle cx="444" cy="510" r="42" fill="rgb(255, 0, 0)" /><polygon points="973,1081 1040,932 579,16 650,1226 130,571" fill="rgb(255, 0, 0)" /><polygon points="371,439 746,720 491,701" fill="rgb(255, 0, 0)" /><circle cx="139" cy="734" r="65" fill="rgb(255, 0, 0)" /><polygon points="61,951 722,792 1034,86 287,701 174,879" fill="rgb(255, 0, 0)" /><rect x="48" y="214" width="139" height="113" fill="rgb(0, 0, 255)" /><polygon points="12,1040 980,1002 954,898 366,465 945,804" fill="rgb(255, 255, 0)" /><polygon points="668,681 1054,794 634,546 541,452" fill="rgb(255, 0, 0)" /><circle cx="1061" cy="1355" r="35" fill="rgb(0, 0, 255)" /><rect x="649" y="1422" width="101" height="100" fill="rgb(255, 255, 0)" /><rect x="513" y="14" width="176" height="65" fill="rgb(0, 0, 255)" /><circle cx="685" cy="437" r="96" fill="rgb(0, 0, 255)" /><circle cx="270" cy="405" r="68" fill="rgb(0, 0, 255)" /><polygon points="1038,1122 573,1161 242,568 59,1392 971,454" fill="rgb(255, 0, 0)" /><polygon points="819,447 562,26 1087,275 317,272" fill="rgb(0, 0, 255)" /><rect x="544" y="399" width="94" height="143" fill="rgb(255, 255, 0)" /><circle cx="38" cy="436" r="98" fill="rgb(255, 255, 0)" /><rect x="135" y="1222" width="51" height="105" fill="rgb(255, 255, 0)" /><rect x="1075" y="1256" width="122" height="175" fill="rgb(255, 255, 0)" /><rect x="235" y="624" width="94" height="166" fill="rgb(0, 0, 255)" /><rect x="811" y="1155" width="140" height="95" fill="rgb(255, 0, 0)" /><polygon points="88,863 108,1071 399,1348 216,353 392,679 505,392" fill="rgb(0, 0, 255)" /><circle cx="852" cy="1421" r="24" fill="rgb(0, 0, 255)" /><rect x="491" y="694" width="183" height="189" fill="rgb(0, 0, 0)" /><rect x="721" y="1027" width="137" height="166" fill="rgb(0, 0, 255)" /><circle cx="831" cy="1058" r="68" fill="rgb(0, 0, 0)" /><circle cx="1066" cy="813" r="79" fill="rgb(255, 0, 0)" /><circle cx="536" cy="158" r="77" fill="rgb(0, 0, 255)" /><rect x="26" y="1385" width="157" height="92" fill="rgb(255, 0, 0)" /><circle cx="326" cy="713" r="73" fill="rgb(0, 0, 0)" /><polygon points="343,506 468,1115 463,724 448,83 153,1439 186,1131" fill="rgb(255, 255, 0)" /><circle cx="107" cy="99" r="55" fill="rgb(0, 0, 255)" /><polygon points="168,8 160,1408 1049,198 1060,487 1014,1466 171,1213" fill="rgb(0, 0, 255)" /><rect x="829" y="528" width="77" height="114" fill="rgb(255, 255, 0)" /><rect x="1092" y="1052" width="111" height="180" fill="rgb(0, 0, 0)" /><polygon points="870,1278 68,768 816,293 977,662" fill="rgb(255, 0, 0)" /><circle cx="279" cy="703" r="36" fill="rgb(0, 0, 0)" /><polygon points="674,584 718,614 966,633" fill="rgb(0, 0, 0)" /><circle cx="80" cy="1226" r="96" fill="rgb(255, 0, 0)" /><polygon points="450,320 779,1334 545,264 979,56" fill="rgb(255, 0, 0)" /><circle cx="154" cy="205" r="88" fill="rgb(255, 255, 0)" /><polygon points="319,977 157,490 247,1104 1047,1155" fill="rgb(0, 0, 0)" /><rect x="625" y="214" width="66" height="71" fill="rgb(255, 255, 0)" /><polygon points="1009,1042 627,969 869,787 361,1331 927,1136 675,482" fill="rgb(0, 0, 255)" /><circle cx="1036" cy="530" r="63" fill="rgb(0, 0, 0)" /><polygon points="401,417 567,1262 1040,494" fill="rgb(255, 0, 0)" /><polygon points="366,886 225,981 220,576" fill="rgb(255, 255, 0)" /><rect x="408" y="616" width="53" height="151" fill="rgb(255, 0, 0)" /><circle cx="384" cy="636" r="96" fill="rgb(0, 0, 255)" /><polygon points="852,925 780,1350 574,192" fill="rgb(255, 0, 0)" /><rect x="900" y="221" width="140" height="62" fill="rgb(0, 0, 0)" /><circle cx="843" cy="1004" r="69" fill="rgb(0, 0, 0)" /><polygon points="5,160 144,918 849,378" fill="rgb(255, 0, 0)" /><rect x="1082" y="339" width="154" height="125" fill="rgb(255, 0, 0)" /><polygon points="302,766 904,630 78,1260 736,1066 769,1142 769,980" fill="rgb(0, 0, 0)" /><rect x="221" y="118" width="66" height="116" fill="rgb(0, 0, 0)" /><polygon points="141,371 713,149 830,1464 1073,1451" fill="rgb(0, 0, 255)" /><circle cx="310" cy="420" r="33" fill="rgb(255, 0, 0)" /><circle cx="317" cy="1105" r="70" fill="rgb(255, 255, 0)" /><rect x="1019" y="1112" width="102" height="179" fill="rgb(0, 0, 0)" /><circle cx="57" cy="803" r="52" fill="rgb(255, 255, 0)" /><polygon points="421,1169 870,1189 91,1387 86,1333" fill="rgb(255, 255, 0)" /><rect x="489" y="1242" width="58" height="145" fill="rgb(0, 0, 0)" /><polygon points="238,1066 894,1022 688,745 543,957 747,257" fill="rgb(255, 0, 0)" /><circle cx="291" cy="123" r="20" fill="rgb(0, 0, 255)" /><polygon points="269,1406 600,1158 570,1298 485,317" fill="rgb(0, 0, 0)" /><circle cx="854" cy="253" r="93" fill="rgb(255, 255, 0)" /><polygon points="1032,835 1058,257 112,369 688,1383" fill="rgb(255, 255, 0)" /><rect x="440" y="1" width="144" height="168" fill="rgb(255, 255, 0)" /><polygon points="713,1436 97,1075 366,27" fill="rgb(0, 0, 255)" /><rect x="459" y="345" width="158" height="52" fill="rgb(255, 255, 0)" /><polygon points="40,976 236,762 843,1465 396,1354" fill="rgb(0, 0, 0)" /><circle cx="270" cy="1172" r="93" fill="rgb(0, 0, 255)" /><rect x="929" y="134" width="74" height="132" fill="rgb(255, 255, 0)" /><rect x="995" y="1112" width="161" height="100" fill="rgb(0, 0, 0)" /><rect x="406" y="1287" width="140" height="52" fill="rgb(255, 0, 0)" /><circle cx="590" cy="1272" r="22" fill="rgb(255, 255, 0)" /><polygon points="782,934 255,756 48,702 71,831 590,794 253,1205" fill="rgb(0, 0, 255)" /><circle cx="285" cy="421" r="36" fill="rgb(0, 0, 255)" /><circle cx="140" cy="1101" r="81" fill="rgb(255, 255, 0)" /><circle cx="667" cy="980" r="28" fill="rgb(0, 0, 255)" /><circle cx="1083" cy="472" r="84" fill="rgb(0, 0, 255)" /><polygon points="847,327 305,439 99,1255 797,896" fill="rgb(255, 0, 0)" /><circle cx="1049" cy="458" r="25" fill="rgb(255, 0, 0)" /><polygon points="161,1105 1039,634 469,1313 723,543 909,575 891,1" fill="rgb(0, 0, 255)" /><circle cx="672" cy="1360" r="55" fill="rgb(255, 255, 0)" /><rect x="104" y="260" width="123" height="152" fill="rgb(0, 0, 0)" /><rect x="970" y="538" width="198" height="151" fill="rgb(0, 0, 0)" /><rect x="901" y="1384" width="117" height="119" fill="rgb(255, 0, 0)" /><circle cx="20" cy="1472" r="95" fill="rgb(255, 255, 0)" /><circle cx="8" cy="1334" r="97" fill="rgb(0, 0, 0)" /><polygon points="767,1090 195,808 934,290" fill="rgb(0, 0, 0)" /><circle cx="635" cy="370" r="56" fill="rgb(0, 0, 255)" /><circle cx="82" cy="441" r="62" fill="rgb(0, 0, 0)" /><rect x="1071" y="1015" width="56" height="84" fill="rgb(0, 0, 0)" /><polygon points="562,608 53,1238 861,910 871,376 982,140 35,1208" fill="rgb(0, 0, 255)" /><polygon points="897,1141 61,939 569,893 680,1320" fill="rgb(0, 0, 0)" /><circle cx="638" cy="779" r="76" fill="rgb(255, 255, 0)" /><polygon points="28,294 667,529 416,1173" fill="rgb(255, 255, 0)" /><rect x="17" y="913" width="67" height="144" fill="rgb(0, 0, 0)" /><polygon points="454,577 272,73 1010,691 364,229 890,655 852,651" fill="rgb(255, 255, 0)" /><rect x="747" y="66" width="111" height="149" fill="rgb(0, 0, 255)" /><circle cx="530" cy="792" r="26" fill="rgb(255, 255, 0)" /><circle cx="54" cy="1002" r="75" fill="rgb(0, 0, 0)" /><rect x="335" y="1397" width="117" height="78" fill="rgb(255, 255, 0)" /><circle cx="273" cy="1197" r="28" fill="rgb(255, 0, 0)" /><circle cx="673" cy="603" r="22" fill="rgb(255, 0, 0)" /><polygon points="48,96 983,1183 160,1133" fill="rgb(0, 0, 255)" /><polygon points="413,1400 667,1285 1080,405 429,917 842,641 41,321" fill="rgb(255, 255, 0)" /><circle cx="1066" cy="1149" r="24" fill="rgb(0, 0, 255)" /><circle cx="500" cy="948" r="28" fill="rgb(0, 0, 255)" /><circle cx="364" cy="1170" r="28" fill="rgb(255, 0, 0)" /><polygon points="429,919 287,1154 1025,1441 929,1256" fill="rgb(255, 255, 0)" /><circle cx="267" cy="887" r="95" fill="rgb(255, 255, 0)" /><polygon points="372,891 466,1309 506,1003 500,1029 773,194" fill="rgb(255, 255, 0)" /><circle cx="959" cy="171" r="83" fill="rgb(0, 0, 0)" /><rect x="206" y="548" width="173" height="108" fill="rgb(0, 0, 0)" /><polygon points="49,1260 1027,712 1094,1406 499,398" fill="rgb(255, 0, 0)" /><polygon points="548,74 310,993 346,1118" fill="rgb(0, 0, 255)" /><polygon points="472,199 333,799 106,516 589,102" fill="rgb(255, 0, 0)" /><circle cx="741" cy="1310" r="92" fill="rgb(255, 0, 0)" /><rect x="555" y="766" width="131" height="59" fill="rgb(255, 0, 0)" /><rect x="281" y="770" width="90" height="87" fill="rgb(255, 255, 0)" /><circle cx="460" cy="344" r="52" fill="rgb(0, 0, 0)" /><polygon points="824,233 90,492 171,1477 64,524 356,8" fill="rgb(0, 0, 255)" /><polygon points="1086,76 471,743 654,415 915,1384 200,739 953,393" fill="rgb(255, 0, 0)" /><polygon points="842,18 151,1007 332,1489" fill="rgb(0, 0, 255)" /><rect x="123" y="435" width="122" height="57" fill="rgb(255, 0, 0)" /><rect x="379" y="334" width="165" height="77" fill="rgb(0, 0, 255)" /><rect x="323" y="311" width="103" height="182" fill="rgb(255, 255, 0)" /><rect x="550" y="591" width="64" height="94" fill="rgb(0, 0, 0)" /><rect x="712" y="635" width="152" height="80" fill="rgb(0, 0, 255)" /><circle cx="1082" cy="457" r="68" fill="rgb(0, 0, 255)" /><circle cx="825" cy="680" r="89" fill="rgb(0, 0, 255)" /><circle cx="369" cy="568" r="95" fill="rgb(0, 0, 255)" /><rect x="177" y="237" width="63" height="109" fill="rgb(255, 0, 0)" /><circle cx="876" cy="325" r="48" fill="rgb(0, 0, 0)" /><rect x="157" y="1332" width="137" height="121" fill="rgb(255, 0, 0)" /><circle cx="361" cy="20" r="82" fill="rgb(255, 0, 0)" /><rect x="303" y="78" width="66" height="97" fill="rgb(255, 255, 0)" /><rect x="731" y="535" width="145" height="191" fill="rgb(0, 0, 255)" /><rect x="872" y="1262" width="127" height="196" fill="rgb(255, 255, 0)" /><rect x="200" y="886" width="83" height="191" fill="rgb(255, 255, 0)" /><circle cx="927" cy="1403" r="53" fill="rgb(255, 0, 0)" /></svg>