<svg xmlns="http://www.w3.org/2000/svg" width="1101" height="1500"><circle cx="1097" cy="92" r="64" fill="rgb(255, 255, 0)" /><polygon points="235,1060 286,242 744,257 887,775" fill="rgb(0, 0, 255)" /><polygon points="724,77 200,1363 240,102 604,1250 869,1244 685,1331" fill="rgb(255, 255, 0)" /><circle cx="11" cy="128" r="59" fill="rgb(0, 0, 255)" /><polygon points="730,474 124,1247 910,1196 344,834 979,783" fill="rgb(255, 255, 0)" /><circle cx="771" cy="1485" r="67" fill="rgb(0, 0, 255)" /><circle cx="441" cy="22" r="65" fill="rgb(0, 0, 0)" /><rect x="56" y="202" width="76" height="143" fill="rgb(0, 0, 0)" /><rect x="654" y="1113" width="149" height="166" fill="rgb(0, 0, 0)" /><polygon points="423,723 1028,67 104,183" fill="rgb(255, 0, 0)" /><polygon points="124,105 295,570 548,506 394,550 553,228" fill="rgb(0, 0, 255)" /><polygon points="88,1136 821,705 750,1479 560,596" fill="rgb(255, 0, 0)" /><polygon points="259,772 75,866 71,253 389,55 673,704" fill="rgb(255, 0, 0)" /><rect x="917" y="1100" width="183" height="180" fill="rgb(255, 0, 0)" /><circle cx="349" cy="920" r="88" fill="rgb(0, 0, 0)" /><polygon points="403,767 458,1207 802,1117 349,114" fill="rgb(0, 0, 255)" /><polygon points="337,1197 10,1324 697,810 353,992 259,70" fill="rgb(0, 0, 255)" /><rect x="463" y="1227" width="101" height="59" fill="rgb(0, 0, 0)" /><circle cx="626" cy="1102" r="95" fill="rgb(255, 0, 0)" /><polygon points="980,1302 651,70 92,673" fill="rgb(0, 0, 0)" /><polygon points="521,1389 86,1433 704,334 487,1243 542,328" fill="rgb(0, 0, 0)" /><circle cx="919" cy="1191" r="23" fill="rgb(0, 0, 0)" /><rect x="635" y="837" width="152" height="119" fill="rgb(255, 0, 0)" /><rect x="404" y="770" width="71" height="147" fill="rgb(0, 0, 0)" /><rect x="913" y="825" width="80" height="192" fill="rgb(255, 255, 0)" /><circle cx="54" cy="1018" r="90" fill="rgb(0, 0, 255)" /><polygon points="285,1334 1096,1178 822,1164" fill="rgb(0, 0, 255)" /><circle cx="551" cy="413" r="100" fill="rgb(0, 0, 255)" /><polygon points="545,804 803,285 721,491 325,865 64,254 495,1231" fill="rgb(0, 0, 255)" /><rect x="881" y="155" width="104" height="52" fill="rgb(255, 0, 0)" /><rect x="1006" y="166" width="162" height="184" fill="rgb(0, 0, 0)" /><polygon points="526,1405 1013,358 876,1025" fill="rgb(255, 0, 0)" /><polygon points="378,41 403,852 795,1056 551,1259" fill="rgb(255, 255, 0)" /><rect x="192" y="824" width="178" height="196" fill="rgb(255, 0, 0)" /><circle cx="686" cy="553" r="93" fill="rgb(255, 0, 0)" /><rect x="487" y="364" width="83" height="76" fill="rgb(0, 0, 0)" /><polygon points="587,36 998,450 11,390 576,327 859,1041 543,1410" fill="rgb(255, 0, 0)" /><polygon points="20,1261 309,293 818,291 883,352 732,1334 121,1437" fill="rgb(0, 0, 255)" /><circle cx="1039" cy="395" r="25" fill="rgb(0, 0, 0)" /><circle cx="837" cy="917" r="76" fill="rgb(255, 0, 0)" /><polygon points="106,1497 372,1257 758,1481 200,131 477,663 136,538" fill="rgb(0, 0, 255)" /><circle cx="684" cy="829" r="77" fill="rgb(255, 0, 0)" /><polygon points="1060,1436 633,1165 742,1115" fill="rgb(0, 0, 255)" /><polygon points="968,454 84,381 434,403 535,346 327,843" fill="rgb(255, 255, 0)" /><circle cx="759" cy="348" r="90" fill="rgb(0, 0, 0)" /><rect x="692" y="786" width="170" height="186" fill="rgb(0, 0, 0)" /><circle cx="689" cy="898" r="43" fill="rgb(255, 255, 0)" /><polygon points="195,710 265,194 518,348" fill="rgb(0, 0, 255)" /><circle cx="23" cy="847" r="79" fill="rgb(255, 255, 0)" /><rect x="65" y="1069" width="96" height="123" fill="rgb(255, 0, 0)" /><polygon points="752,270 111,1064 475,1362 57,1414 195,478 695,536" fill="rgb(0, 0, 0)" /><rect x="719" y="297" width="99" height="58" fill="rgb(255, 0, 0)" /><circle cx="435" cy="1394" r="64" fill="rgb(0, 0, 0)" /><polygon points="1085,442 150,820 729,918 502,1181" fill="rgb(255, 255, 0)" /><circle cx="537" cy="1479" r="64" fill="rgb(0, 0, 255)" /><circle cx="385" cy="1031" r="70" fill="rgb(0, 0, 0)" /><circle cx="886" cy="490" r="56" fill="rgb(0, 0, 255)" /><polygon points="361,791 891,184 1018,1139" fill="rgb(0, 0, 0)" /><rect x="351" y="544" width="51" height="176" fill="rgb(255, 255, 0)" /><circle cx="77" cy="146" r="49" fill="rgb(0, 0, 0)" /><polygon points="353,796 188,513 539,1412 799,13 238,1170 23,458" fill="rgb(255, 255, 0)" /><circle cx="746" cy="140" r="64" fill="rgb(255, 255, 0)" /><circle cx="103" cy="192" r="43" fill="rgb(255, 0, 0)" /><rect x="811" y="362" width="119" height="72" fill="rgb(0, 0, 0)" /><polygon points="51,259 927,1082 1068,113 474,1090 492,1132" fill="rgb(0, 0, 0)" /><circle cx="965" cy="777" r="97" fill="rgb(0, 0, 255)" /><circle cx="754" cy="1023" r="79" fill="rgb(0, 0, 255)" /><rect x="979" y="1200" width="68" height="132" fill="rgb(0, 0, 0)" /><rect x="192" y="1037" width="97" height="70" fill="rgb(0, 0, 0)" /><circle cx="163" cy="1273" r="70" fill="rgb(255, 255, 0)" /><polygon points="37,1465 59,730 398,1493 1013,908" fill="rgb(0, 0, 0)" /><polygon points="236,117 905,806 656,1209" fill="rgb(255, 0, 0)" /><rect x="30" y="1255" width="127" height="143" fill="rgb(0, 0, 0)" /><circle cx="65" cy="488" r="23" fill="rgb(0, 0, 0)" /><circle cx="409" cy="547" r="75" fill="rgb(255, 255, 0)" /><rect x="858" y="1134" width="196" height="108" fill="rgb(255, 255, 0)" /><rect x="778" y="83" width="152" height="158" fill="rgb(0, 0, 255)" /><circle cx="668" cy="19" r="24" fill="rgb(255, 255, 0)" /><rect x="144" y="1438" width="65" height="181" fill="rgb(255, 255, 0)" /><rect x="780" y="848" width="191" height="58" fill="rgb(0, 0, 0)" /><polygon points="707,1 582,779 564,279" fill="rgb(255, 255, 0)" /><circle cx="601" cy="469" r="93" fill="rgb(0, 0, 0)" /><circle cx="184" cy="471" r="30" fill="rgb(0, 0, 0)" /><circle cx="1082" cy="1437" r="81" fill="rgb(0, 0, 0)" /><polygon points="1095,455 865,75 304,9 544,359" fill="rgb(255, 0, 0)" /><rect x="348" y="22" width="64" height="196" fill="rgb(255, 0, 0)" /><polygon points="212,569 174,147 219,50" fill="rgb(0, 0, 0)" /><polygon points="526,127 1077,332 295,992 408,1438 615,1449 1034,819" fill="rgb(0, 0, 255)" /><polygon points="244,639 733,44 684,664 869,157 77,1172" fill="rgb(0, 0, 255)" /><circle cx="621" cy="1126" r="71" fill="rgb(0, 0, 0)" /><circle cx="985" cy="936" r="83" fill="rgb(0, 0, 255)" /><circle cx="103" cy="1441" r="75" fill="rgb(255, 255, 0)" /><polygon points="664,179 826,1152 431,1479 683,604 290,163" fill="rgb(0, 0, 0)" /><rect x="770" y="1215" width="100" height="136" fill="rgb(255, 0, 0)" /><polygon points="609,966 557,525 941,978 366,999" fill="rgb(0, 0, 0)" /><polygon points="502,1315 397,742 121,296 511,1112 145,86" fill="rgb(255, 255, 0)" /><rect x="409" y="1085" width="82" height="96" fill="rgb(0, 0, 255)" /><circle cx="852" cy="664" r="75" fill="rgb(255, 0, 0)" /></svg>