<svg xmlns="http://www.w3.org/2000/svg" width="1101" height="1500"><circle cx="856" cy="556" r="69" fill="rgb(255, 0, 0)" /><polygon points="650,640 430,778 689,693 1099,1234" fill="rgb(255, 0, 0)" /><polygon points="886,733 773,1499 667,1245 798,1139 886,144 969,27" fill="rgb(0, 0, 255)" /><circle cx="686" cy="1433" r="35" fill="rgb(0, 0, 255)" /><circle cx="1075" cy="1091" r="55" fill="rgb(0, 0, 0)" /><polygon points="533,594 764,68 604,809 475,103 269,1269 235,1339" fill="rgb(255, 255, 0)" /><circle cx="968" cy="524" r="97" fill="rgb(255, 0, 0)" /><rect x="581" y="166" width="159" height="59" fill="rgb(255, 0, 0)" /><polygon points="278,729 849,1167 152,1312 833,1202 194,223 280,17" fill="rgb(255, 255, 0)" /><polygon points="762,786 885,1033 673,1388" fill="rgb(255, 0, 0)" /><rect x="706" y="452" width="71" height="198" fill="rgb(0, 0, 255)" /><circle cx="988" cy="371" r="63" fill="rgb(255, 255, 0)" /><circle cx="1045" cy="1145" r="53" fill="rgb(0, 0, 255)" /><circle cx="1054" cy="1473" r="50" fill="rgb(255, 255, 0)" /><polygon points="12,672 1018,425 573,172 65,474 367,142 6,874" fill="rgb(255, 0, 0)" /><rect x="616" y="1043" width="97" height="137" fill="rgb(0, 0, 255)" /><rect x="544" y="689" width="113" height="183" fill="rgb(255, 255, 0)" /><rect x="875" y="1479" width="182" height="65" fill="rgb(0, 0, 0)" /><rect x="399" y="538" width="66" height="78" fill="rgb(0, 0, 255)" /><circle cx="836" cy="627" r="98" fill="rgb(255, 0, 0)" /><rect x="905" y="654" width="163" height="58" fill="rgb(0, 0, 255)" /><polygon points="226,671 244,1164 241,175 635,1213 13,1470 686,472" fill="rgb(255, 255, 0)" /><circle cx="665" cy="825" r="22" fill="rgb(255, 0, 0)" /><rect x="920" y="432" width="129" height="115" fill="rgb(255, 0, 0)" /><rect x="431" y="946" width="123" height="175" fill="rgb(255, 0, 0)" /><circle cx="138" cy="105" r="82" fill="rgb(255, 255, 0)" /><circle cx="288" cy="1086" r="97" fill="rgb(255, 0, 0)" /><polygon points="939,679 633,120 1062,608 964,598" fill="rgb(255, 255, 0)" /><circle cx="309" cy="127" r="80" fill="rgb(255, 255, 0)" /><polygon points="841,1269 771,937 598,127 255,926 483,1275" fill="rgb(0, 0, 0)" /><circle cx="821" cy="1494" r="95" fill="rgb(255, 255, 0)" /><circle cx="120" cy="956" r="20" fill="rgb(255, 0, 0)" /><circle cx="650" cy="954" r="96" fill="rgb(255, 0, 0)" /><circle cx="1004" cy="272" r="79" fill="rgb(0, 0, 255)" /><rect x="906" y="103" width="66" height="135" fill="rgb(0, 0, 0)" /><polygon points="951,1016 322,83 1026,1473" fill="rgb(0, 0, 0)" /><rect x="1001" y="251" width="192" height="143" fill="rgb(0, 0, 255)" /><polygon points="333,51 235,1132 459,319 779,589" fill="rgb(255, 0, 0)" /><rect x="1048" y="860" width="56" height="160" fill="rgb(0, 0, 255)" /><polygon points="767,115 612,860 692,415 969,1027" fill="rgb(255, 255, 0)" /><rect x="174" y="1448" width="193" height="171" fill="rgb(0, 0, 255)" /><circle cx="765" cy="505" r="75" fill="rgb(255, 255, 0)" /><polygon points="656,98 195,101 305,911 914,1475" fill="rgb(0, 0, 0)" /><polygon points="546,688 177,84 724,12 91,687 173,1145 765,1268" fill="rgb(0, 0, 0)" /><polygon points="95,1287 983,1183 362,223" fill="rgb(0, 0, 0)" /><rect x="177" y="1044" width="61" height="69" fill="rgb(255, 255, 0)" /><polygon points="238,538 308,631 65,835 391,40" fill="rgb(0, 0, 255)" /><circle cx="151" cy="371" r="84" fill="rgb(0, 0, 255)" /><polygon points="763,594 596,5 591,195 364,583 207,1359" fill="rgb(0, 0, 255)" /><polygon points="252,790 269,185 1055,1230 359,161 748,1201" fill="rgb(0, 0, 255)" /><polygon points="595,681 395,748 620,179 281,310" fill="rgb(0, 0, 0)" /><circle cx="373" cy="207" r="82" fill="rgb(255, 255, 0)" /><polygon points="56,564 804,986 400,139" fill="rgb(255, 0, 0)" /><circle cx="844" cy="37" r="47" fill="rgb(255, 255, 0)" /><rect x="385" y="966" width="195" height="196" fill="rgb(255, 255, 0)" /><polygon points="1048,725 23,469 820,1270 455,236 466,818 179,1088" fill="rgb(255, 0, 0)" /><rect x="760" y="483" width="116" height="67" fill="rgb(255, 0, 0)" /><rect x="847" y="140" width="160" height="72" fill="rgb(0, 0, 0)" /><circle cx="117" cy="116" r="73" fill="rgb(255, 0, 0)" /><polygon points="856,107 320,1198 722,1192" fill="rgb(0, 0, 0)" /><polygon points="1051,1413 105,225 3,373 1042,710 753,150" fill="rgb(255, 255, 0)" /><circle cx="571" cy="1030" r="65" fill="rgb(0, 0, 0)" /><circle cx="197" cy="841" r="31" fill="rgb(0, 0, 0)" /><rect x="571" y="1497" width="168" height="78" fill="rgb(0, 0, 0)" /><circle cx="332" cy="747" r="95" fill="rgb(255, 0, 0)" /><rect x="181" y="1201" width="200" height="184" fill="rgb(255, 0, 0)" /><rect x="421" y="1073" width="60" height="173" fill="rgb(255, 0, 0)" /><rect x="993" y="584" width="80" height="89" fill="rgb(255, 0, 0)" /><rect x="369" y="1239" width="65" height="197" fill="rgb(0, 0, 0)" /><circle cx="1093" cy="104" r="72" fill="rgb(255, 0, 0)" /><rect x="49" y="331" width="160" height="91" fill="rgb(0, 0, 255)" /><polygon points="444,542 602,1375 920,663" fill="rgb(0, 0, 0)" /><polygon points="409,262 330,391 553,898 1044,373 502,1189" fill="rgb(255, 0, 0)" /><polygon points="284,20 163,604 85,1292 1044,546 322,325 65,322" fill="rgb(0, 0, 0)" /><polygon points="25,1035 110,408 255,982" fill="rgb(0, 0, 255)" /><circle cx="145" cy="762" r="94" fill="rgb(255, 0, 0)" /><circle cx="547" cy="240" r="27" fill="rgb(0, 0, 0)" /><circle cx="879" cy="611" r="86" fill="rgb(255, 0, 0)" /></svg>