<svg xmlns="http://www.w3.org/2000/svg" width="1101" height="1500"><polygon points="758,946 953,670 105,1364 73,15 508,216" fill="rgb(0, 0, 255)" /><circle cx="579" cy="933" r="28" fill="rgb(255, 255, 0)" /><circle cx="981" cy="762" r="86" fill="rgb(0, 0, 0)" /><circle cx="809" cy="1019" r="47" fill="rgb(0, 0, 255)" /><polygon points="345,1135 167,501 660,367 594,734" fill="rgb(255, 0, 0)" /><circle cx="979" cy="750" r="62" fill="rgb(255, 255, 0)" /><rect x="386" y="1187" width="71" height="125" fill="rgb(255, 0, 0)" /><polygon points="884,300 369,565 5,1151 370,785 259,978" fill="rgb(0, 0, 255)" /><polygon points="779,1454 332,938 717,694 620,591" fill="rgb(255, 255, 0)" /><circle cx="736" cy="257" r="26" fill="rgb(255, 255, 0)" /><rect x="1001" y="1412" width="167" height="181" fill="rgb(0, 0, 0)" /><circle cx="615" cy="591" r="29" fill="rgb(255, 255, 0)" /><circle cx="539" cy="1446" r="71" fill="rgb(255, 255, 0)" /><circle cx="540" cy="585" r="63" fill="rgb(0, 0, 0)" /><rect x="200" y="215" width="118" height="180" fill="rgb(0, 0, 0)" /><rect x="121" y="918" width="122" height="100" fill="rgb(255, 0, 0)" /><rect x="611" y="377" width="88" height="79" fill="rgb(255, 0, 0)" /><rect x="582" y="883" width="140" height="154" fill="rgb(255, 0, 0)" /><polygon points="345,422 168,1064 28,22 281,155 68,949" fill="rgb(0, 0, 0)" /><polygon points="1015,1365 517,75 659,1274 493,149" fill="rgb(0, 0, 255)" /><rect x="718" y="665" width="84" height="194" fill="rgb(0, 0, 0)" /><circle cx="1008" cy="737" r="26" fill="rgb(0, 0, 255)" /><rect x="921" y="782" width="82" height="154" fill="rgb(0, 0, 255)" /><rect x="89" y="188" width="143" height="61" fill="rgb(0, 0, 255)" /><polygon points="453,1348 567,1257 728,554 670,1397 1055,23 699,23" fill="rgb(0, 0, 0)" /><polygon points="223,1103 532,443 1068,1060" fill="rgb(255, 0, 0)" /><circle cx="1091" cy="193" r="66" fill="rgb(255, 0, 0)" /><polygon points="302,854 1049,180 778,397 236,592" fill="rgb(255, 255, 0)" /><rect x="532" y="403" width="97" height="175" fill="rgb(255, 0, 0)" /><polygon points="193,234 872,454 682,696 1087,127 228,747 766,1288" fill="rgb(0, 0, 0)" /><polygon points="563,313 975,486 795,32 803,1371 968,176" fill="rgb(255, 255, 0)" /><circle cx="1022" cy="8" r="72" fill="rgb(0, 0, 255)" /><polygon points="662,982 799,1287 680,1484 627,724" fill="rgb(0, 0, 0)" /><circle cx="388" cy="287" r="79" fill="rgb(0, 0, 255)" /><rect x="1078" y="807" width="80" height="69" fill="rgb(255, 255, 0)" /><rect x="1056" y="500" width="92" height="103" fill="rgb(255, 0, 0)" /><circle cx="385" cy="28" r="37" fill="rgb(255, 255, 0)" /><polygon points="933,1453 446,810 138,591" fill="rgb(255, 0, 0)" /><polygon points="427,53 470,363 710,1462 159,1466 476,447 666,905" fill="rgb(0, 0, 0)" /><rect x="10" y="220" width="114" height="184" fill="rgb(255, 0, 0)" /><circle cx="813" cy="93" r="50" fill="rgb(255, 255, 0)" /><rect x="441" y="1390" width="172" height="172" fill="rgb(255, 255, 0)" /><rect x="69" y="758" width="133" height="172" fill="rgb(0, 0, 255)" /><circle cx="90" cy="1471" r="42" fill="rgb(0, 0, 255)" /><circle cx="151" cy="850" r="52" fill="rgb(255, 255, 0)" /><polygon points="253,972 474,1017 152,691 202,611" fill="rgb(0, 0, 0)" /><circle cx="323" cy="70" r="31" fill="rgb(0, 0, 255)" /><rect x="459" y="676" width="116" height="66" fill="rgb(0, 0, 255)" /><polygon points="1044,1097 648,1372 1085,1010 79,232 308,1112" fill="rgb(255, 255, 0)" /><circle cx="83" cy="1389" r="47" fill="rgb(0, 0, 0)" /><circle cx="838" cy="603" r="83" fill="rgb(0, 0, 0)" /><circle cx="688" cy="1308" r="44" fill="rgb(0, 0, 0)" /><circle cx="708" cy="327" r="80" fill="rgb(0, 0, 0)" /><rect x="544" y="503" width="124" height="137" fill="rgb(255, 255, 0)" /><circle cx="297" cy="761" r="41" fill="rgb(0, 0, 0)" /><rect x="513" y="1034" width="152" height="103" fill="rgb(0, 0, 0)" /><polygon points="528,1243 179,169 782,51 331,162" fill="rgb(0, 0, 0)" /><polygon points="188,1460 867,409 409,1267" fill="rgb(0, 0, 255)" /><polygon points="137,1093 558,251 349,1317 298,52 128,899" fill="rgb(0, 0, 0)" /><rect x="1012" y="925" width="77" height="79" fill="rgb(0, 0, 255)" /><rect x="42" y="892" width="70" height="117" fill="rgb(0, 0, 255)" /><polygon points="196,489 731,310 181,152" fill="rgb(0, 0, 255)" /><circle cx="916" cy="82" r="85" fill="rgb(0, 0, 0)" /><circle cx="74" cy="1279" r="67" fill="rgb(0, 0, 255)" /><circle cx="216" cy="678" r="78" fill="rgb(0, 0, 0)" /><rect x="691" y="1177" width="95" height="157" fill="rgb(255, 0, 0)" /><polygon points="421,1197 277,575 333,823 250,101 278,638" fill="rgb(255, 255, 0)" /><rect x="337" y="458" width="77" height="163" fill="rgb(0, 0, 0)" /><polygon points="252,37 331,1328 515,981 1082,1356 1023,910" fill="rgb(255, 255, 0)" /><circle cx="407" cy="225" r="89" fill="rgb(0, 0, 255)" /><polygon points="565,1277 15,1170 624,234 1091,10 313,341 639,385" fill="rgb(255, 255, 0)" /><polygon points="1009,964 174,1262 669,512 719,765 232,1242 723,578" fill="rgb(255, 255, 0)" /><circle cx="755" cy="751" r="32" fill="rgb(0, 0, 255)" /><polygon points="429,591 626,761 191,206 432,627 429,950" fill="rgb(0, 0, 0)" /><rect x="27" y="507" width="179" height="163" fill="rgb(255, 0, 0)" /><circle cx="922" cy="1010" r="54" fill="rgb(0, 0, 255)" /><rect x="96" y="405" width="124" height="100" fill="rgb(255, 255, 0)" /><circle cx="1079" cy="1251" r="51" fill="rgb(255, 255, 0)" /><circle cx="190" cy="392" r="45" fill="rgb(255, 0, 0)" /><rect x="1023" y="555" width="186" height="114" fill="rgb(0, 0, 255)" /><polygon points="383,809 72,1291 76,238 632,1418" fill="rgb(0, 0, 0)" /><circle cx="232" cy="979" r="89" fill="rgb(0, 0, 255)" /><rect x="676" y="788" width="86" height="65" fill="rgb(255, 255, 0)" /><circle cx="964" cy="409" r="77" fill="rgb(255, 255, 0)" /><polygon points="973,405 150,1305 173,556" fill="rgb(0, 0, 255)" /><rect x="569" y="338" width="199" height="85" fill="rgb(0, 0, 0)" /><rect x="78" y="811" width="106" height="95" fill="rgb(255, 0, 0)" /><rect x="385" y="424" width="90" height="156" fill="rgb(0, 0, 255)" /><polygon points="517,871 755,834 928,156 634,443 480,580" fill="rgb(0, 0, 255)" /><polygon points="78,1476 193,24 150,79 641,570 155,713 790,255" fill="rgb(255, 255, 0)" /><polygon points="65,309 504,1000 802,722" fill="rgb(0, 0, 255)" /><polygon points="17,1161 937,925 144,359 100,784" fill="rgb(0, 0, 255)" /><polygon points="775,399 603,545 708,464 439,220 652,1381 775,92" fill="rgb(255, 0, 0)" /><circle cx="680" cy="419" r="54" fill="rgb(0, 0, 0)" /><circle cx="496" cy="528" r="20" fill="rgb(255, 0, 0)" /><rect x="113" y="1162" width="127" height="162" fill="rgb(0, 0, 255)" /><circle cx="886" cy="16" r="40" fill="rgb(255, 255, 0)" /><rect x="386" y="1343" width="143" height="120" fill="rgb(255, 0, 0)" /><polygon points="988,285 1058,704 160,1069 68,88" fill="rgb(255, 255, 0)" /><rect x="962" y="482" width="111" height="108" fill="rgb(0, 0, 0)" /><circle cx="164" cy="652" r="65" fill="rgb(0, 0, 0)" /><polygon points="174,555 192,334 224,1221" fill="rgb(255, 255, 0)" /><rect x="334" y="617" width="114" height="107" fill="rgb(255, 0, 0)" /><polygon points="712,785 536,349 317,731 377,1441 9,759 64,556" fill="rgb(0, 0, 0)" /><polygon points="35,304 367,376 51,1475 753,196" fill="rgb(0, 0, 255)" /><polygon points="210,1406 316,576 570,400 366,785" fill="rgb(0, 0, 0)" /><circle cx="125" cy="810" r="96" fill="rgb(255, 255, 0)" /><rect x="987" y="1074" width="155" height="148" fill="rgb(0, 0, 0)" /><rect x="176" y="449" width="183" height="69" fill="rgb(0, 0, 255)" /><rect x="818" y="176" width="197" height="72" fill="rgb(0, 0, 255)" /><polygon points="875,104 652,1055 103,531" fill="rgb(255, 255, 0)" /><polygon points="719,943 373,297 184,729 829,957 616,190 1056,849" fill="rgb(255, 0, 0)" /><polygon points="891,267 374,1236 1093,743 493,617" fill="rgb(255, 0, 0)" /><polygon points="180,1124 261,741 348,312 385,859 780,867 879,251" fill="rgb(255, 0, 0)" /><polygon points="399,539 1044,105 820,147 380,1444 216,1487 808,527" fill="rgb(255, 0, 0)" /><rect x="1097" y="1475" width="162" height="169" fill="rgb(255, 255, 0)" /><rect x="856" y="70" width="68" height="67" fill="rgb(255, 0, 0)" /><polygon points="765,829 900,1026 27,466 246,1212" fill="rgb(255, 255, 0)" /><polygon points="960,302 308,289 448,54 1035,1295" fill="rgb(255, 0, 0)" /><polygon points="1021,658 619,70 522,505 255,1311 540,187" fill="rgb(0, 0, 0)" /><polygon points="600,644 415,986 1048,622 964,1383 73,1291 245,230" fill="rgb(0, 0, 255)" /><circle cx="603" cy="33" r="42" fill="rgb(0, 0, 255)" /><polygon points="632,601 720,1073 698,1459" fill="rgb(0, 0, 0)" /><circle cx="611" cy="808" r="97" fill="rgb(255, 0, 0)" /><polygon points="698,1126 131,973 1069,520 327,1359 296,943 727,1484" fill="rgb(0, 0, 255)" /><circle cx="1069" cy="164" r="51" fill="rgb(255, 0, 0)" /><rect x="228" y="719" width="167" height="178" fill="rgb(0, 0, 255)" /><rect x="395" y="1175" width="171" height="56" fill="rgb(255, 255, 0)" /><polygon points="391,1024 1054,1024 600,1282 509,1095 32,201" fill="rgb(0, 0, 255)" /><circle cx="34" cy="1000" r="98" fill="rgb(0, 0, 255)" /><polygon points="578,1324 327,1376 592,422 827,1045 574,637 1010,1190" fill="rgb(255, 0, 0)" /><rect x="623" y="837" width="192" height="187" fill="rgb(0, 0, 255)" /><rect x="518" y="1464" width="89" height="112" fill="rgb(255, 255, 0)" /><circle cx="24" cy="661" r="69" fill="rgb(0, 0, 255)" /><rect x="476" y="475" width="71" height="59" fill="rgb(0, 0, 255)" /><circle cx="758" cy="1093" r="53" fill="rgb(0, 0, 255)" /><rect x="472" y="1089" width="70" height="148" fill="rgb(255, 0, 0)" /><polygon points="177,599 1048,414 403,1227" fill="rgb(0, 0, 0)" /><polygon points="1099,165 972,421 701,517" fill="rgb(255, 255, 0)" /><polygon points="184,976 119,691 821,839" fill="rgb(0, 0, 255)" /><polygon points="572,51 308,464 979,901 179,582 564,1345" fill="rgb(0, 0, 255)" /><polygon points="314,252 734,889 769,110" fill="rgb(255, 0, 0)" /><rect x="665" y="201" width="97" height="51" fill="rgb(0, 0, 255)" /><circle cx="956" cy="1097" r="26" fill="rgb(255, 255, 0)" /><rect x="804" y="241" width="130" height="154" fill="rgb(255, 255, 0)" /><polygon points="289,1217 872,452 1021,554 497,356" fill="rgb(255, 255, 0)" /><circle cx="652" cy="802" r="74" fill="rgb(255, 255, 0)" /><circle cx="404" cy="305" r="27" fill="rgb(0, 0, 255)" /><circle cx="423" cy="112" r="86" fill="rgb(0, 0, 255)" /><rect x="792" y="128" width="113" height="172" fill="rgb(0, 0, 0)" /><rect x="506" y="1033" width="96" height="127" fill="rgb(255, 0, 0)" /><polygon points="460,954 77,774 640,648 666,1446 162,503 273,1137" fill="rgb(0, 0, 255)" /><circle cx="379" cy="1172" r="41" fill="rgb(255, 0, 0)" /><circle cx="448" cy="32" r="92" fill="rgb(0, 0, 255)" /><rect x="900" y="665" width="55" height="183" fill="rgb(0, 0, 255)" /><rect x="594" y="1324" width="144" height="183" fill="rgb(255, 0, 0)" /><rect x="326" y="1484" width="195" height="127" fill="rgb(0, 0, 255)" /><rect x="870" y="384" width="134" height="56" fill="rgb(0, 0, 255)" /><polygon points="1073,1323 1023,609 766,1030" fill="rgb(0, 0, 0)" /><rect x="11" y="582" width="63" height="190" fill="rgb(0, 0, 0)" /><circle cx="896" cy="844" r="42" fill="rgb(0, 0, 0)" /><circle cx="936" cy="1300" r="29" fill="rgb(255, 0, 0)" /><circle cx="511" cy="494" r="83" fill="rgb(255, 255, 0)" /><polygon points="390,864 456,363 270,52 658,1306 346,1239 854,1041" fill="rgb(0, 0, 255)" /><rect x="389" y="1294" width="160" height="170" fill="rgb(255, 255, 0)" /><polygon points="731,1170 358,27 711,865 101,1040 732,1239 1011,1463" fill="rgb(255, 255, 0)" /><polygon points="565,915 134,1128 753,983 244,763" fill="rgb(255, 255, 0)" /><rect x="564" y="350" width="112" height="61" fill="rgb(0, 0, 0)" /><polygon points="647,402 820,418 225,714 177,12 576,693 726,232" fill="rgb(255, 255, 0)" /><polygon points="612,413 611,1060 696,892 491,1436" fill="rgb(255, 0, 0)" /><polygon points="646,963 586,714 376,1101 840,999" fill="rgb(0, 0, 0)" /><circle cx="348" cy="970" r="70" fill="rgb(255, 255, 0)" /><rect x="732" y="1130" width="136" height="162" fill="rgb(255, 0, 0)" /><polygon points="905,501 19,1138 278,1099 1097,447 535,1226 357,520" fill="rgb(0, 0, 0)" /><circle cx="278" cy="1392" r="22" fill="rgb(0, 0, 255)" /><circle cx="66" cy="1283" r="100" fill="rgb(0, 0, 255)" /><polygon points="937,1305 909,775 1042,1063 729,762 732,1134 870,1231" fill="rgb(255, 255, 0)" /><rect x="548" y="178" width="190" height="119" fill="rgb(0, 0, 0)" /></svg>