<svg xmlns="http://www.w3.org/2000/svg" width="1101" height="1500"><rect x="318" y="76" width="91" height="183" fill="rgb(0, 0, 0)" /><rect x="510" y="375" width="92" height="62" fill="rgb(255, 255, 0)" /><polygon points="393,209 1065,1450 338,1193" fill="rgb(255, 0, 0)" /><circle cx="759" cy="453" r="97" fill="rgb(255, 255, 0)" /><polygon points="199,159 463,630 410,796 1027,91 770,348" fill="rgb(255, 0, 0)" /><polygon points="820,1122 233,46 1047,1143" fill="rgb(255, 0, 0)" /><polygon points="99,521 557,178 146,847 984,431" fill="rgb(0, 0, 0)" /><circle cx="290" cy="148" r="57" fill="rgb(0, 0, 0)" /><polygon points="945,273 651,420 691,541 319,852 56,549" fill="rgb(255, 0, 0)" /><polygon points="558,1359 575,105 586,1007 908,1039 548,134" fill="rgb(255, 255, 0)" /><polygon points="641,629 416,217 1057,930" fill="rgb(255, 255, 0)" /><rect x="483" y="711" width="166" height="142" fill="rgb(255, 0, 0)" /><polygon points="787,336 742,350 830,788 333,502 806,20" fill="rgb(0, 0, 0)" /><rect x="402" y="1329" width="186" height="88" fill="rgb(255, 255, 0)" /><rect x="1029" y="1109" width="149" height="57" fill="rgb(0, 0, 0)" /><polygon points="71,168 187,1009 502,933" fill="rgb(255, 255, 0)" /><circle cx="716" cy="275" r="69" fill="rgb(0, 0, 0)" /><polygon points="267,234 641,1418 865,177 685,215 652,1021 315,607" fill="rgb(0, 0, 0)" /><circle cx="347" cy="778" r="95" fill="rgb(255, 255, 0)" /><circle cx="774" cy="515" r="55" fill="rgb(255, 255, 0)" /><circle cx="336" cy="854" r="44" fill="rgb(0, 0, 0)" /><polygon points="578,1499 1015,1079 912,440 856,68" fill="rgb(0, 0, 0)" /><polygon points="410,1302 10,746 706,1353" fill="rgb(0, 0, 255)" /><polygon points="612,1241 996,862 14,187" fill="rgb(0, 0, 255)" /><circle cx="28" cy="564" r="85" fill="rgb(0, 0, 255)" /><circle cx="0" cy="845" r="85" fill="rgb(255, 255, 0)" /><circle cx="348" cy="616" r="77" fill="rgb(0, 0, 0)" /><rect x="185" y="1060" width="187" height="80" fill="rgb(255, 0, 0)" /><circle cx="663" cy="633" r="90" fill="rgb(255, 255, 0)" /><rect x="920" y="824" width="138" height="102" fill="rgb(255, 0, 0)" /><circle cx="472" cy="1131" r="80" fill="rgb(0, 0, 255)" /><circle cx="627" cy="859" r="31" fill="rgb(255, 0, 0)" /><polygon points="267,60 374,1151 181,152 647,984 1011,100 28,123" fill="rgb(255, 255, 0)" /><polygon points="167,566 52,1386 33,309 717,211 341,62" fill="rgb(0, 0, 0)" /><rect x="801" y="521" width="113" height="119" fill="rgb(0, 0, 0)" /><polygon points="442,1428 310,598 843,1009" fill="rgb(255, 255, 0)" /><rect x="643" y="1353" width="134" height="105" fill="rgb(255, 255, 0)" /><rect x="45" y="537" width="98" height="119" fill="rgb(0, 0, 0)" /><rect x="353" y="1359" width="193" height="107" fill="rgb(0, 0, 255)" /><rect x="229" y="1406" width="74" height="132" fill="rgb(255, 0, 0)" /><rect x="534" y="1169" width="175" height="158" fill="rgb(0, 0, 255)" /><polygon points="868,490 103,111 889,809 438,1235" fill="rgb(255, 255, 0)" /><polygon points="339,304 732,1049 1003,392 4,1046" fill="rgb(255, 255, 0)" /><circle cx="521" cy="184" r="87" fill="rgb(0, 0, 0)" /><polygon points="104,936 914,858 710,506 181,549 312,1305" fill="rgb(255, 255, 0)" /><polygon points="468,118 344,745 866,1441 650,456 180,1330 551,949" fill="rgb(255, 0, 0)" /><rect x="521" y="617" width="177" height="78" fill="rgb(255, 255, 0)" /><circle cx="871" cy="1488" r="64" fill="rgb(0, 0, 0)" /><polygon points="87,935 655,753 899,1212" fill="rgb(255, 255, 0)" /><polygon points="448,121 1012,1066 551,1173 719,1135" fill="rgb(255, 0, 0)" /><polygon points="789,15 512,139 581,842 345,884" fill="rgb(255, 255, 0)" /><circle cx="409" cy="1440" r="82" fill="rgb(255, 0, 0)" /><polygon points="1039,1255 87,590 20,223 854,77" fill="rgb(255, 0, 0)" /><rect x="721" y="1279" width="146" height="107" fill="rgb(0, 0, 255)" /><circle cx="373" cy="71" r="33" fill="rgb(255, 0, 0)" /><polygon points="1030,656 315,891 856,1333 587,67" fill="rgb(0, 0, 0)" /><circle cx="582" cy="245" r="91" fill="rgb(255, 0, 0)" /><polygon points="680,322 575,932 218,1001 1053,826 226,403 548,186" fill="rgb(255, 0, 0)" /><rect x="251" y="1056" width="126" height="117" fill="rgb(255, 255, 0)" /><polygon points="434,1499 725,576 955,700 93,428 715,48" fill="rgb(255, 0, 0)" /><rect x="1081" y="164" width="84" height="183" fill="rgb(0, 0, 0)" /><circle cx="742" cy="1224" r="38" fill="rgb(0, 0, 0)" /><rect x="894" y="1259" width="60" height="82" fill="rgb(255, 0, 0)" /><circle cx="928" cy="1484" r="62" fill="rgb(255, 255, 0)" /><rect x="1047" y="904" width="184" height="104" fill="rgb(255, 255, 0)" /><rect x="745" y="15" width="165" height="75" fill="rgb(0, 0, 255)" /><circle cx="499" cy="1354" r="26" fill="rgb(255, 255, 0)" /><rect x="743" y="1416" width="161" height="174" fill="rgb(0, 0, 255)" /><circle cx="402" cy="83" r="78" fill="rgb(0, 0, 0)" /><polygon points="933,556 519,817 954,331" fill="rgb(0, 0, 0)" /><circle cx="146" cy="1244" r="55" fill="rgb(255, 255, 0)" /><circle cx="908" cy="234" r="81" fill="rgb(0, 0, 255)" /><rect x="615" y="616" width="103" height="108" fill="rgb(0, 0, 0)" /><polygon points="415,939 1062,862 551,428 378,358 504,1090" fill="rgb(0, 0, 255)" /><circle cx="431" cy="1021" r="64" fill="rgb(0, 0, 255)" /><rect x="651" y="454" width="59" height="141" fill="rgb(0, 0, 0)" /><polygon points="801,776 430,48 14,498 765,1196 810,1341" fill="rgb(255, 255, 0)" /><rect x="698" y="1466" width="142" height="197" fill="rgb(0, 0, 0)" /><polygon points="36,151 375,96 151,965 388,1165 615,1005" fill="rgb(255, 0, 0)" /><rect x="601" y="1308" width="66" height="96" fill="rgb(0, 0, 255)" /><rect x="1079" y="460" width="176" height="72" fill="rgb(0, 0, 255)" /><circle cx="826" cy="844" r="27" fill="rgb(0, 0, 255)" /><rect x="709" y="1259" width="75" height="103" fill="rgb(255, 255, 0)" /><rect x="261" y="87" width="79" height="54" fill="rgb(255, 255, 0)" /><circle cx="306" cy="703" r="71" fill="rgb(0, 0, 255)" /><circle cx="837" cy="1404" r="42" fill="rgb(255, 0, 0)" /><rect x="115" y="1438" width="117" height="147" fill="rgb(0, 0, 0)" /><rect x="408" y="502" width="79" height="120" fill="rgb(255, 0, 0)" /><rect x="457" y="125" width="87" height="141" fill="rgb(255, 255, 0)" /><circle cx="366" cy="1495" r="82" fill="rgb(0, 0, 0)" /><polygon points="1094,396 671,88 408,782 717,852 1029,180 933,1221" fill="rgb(255, 255, 0)" /><rect x="377" y="373" width="179" height="114" fill="rgb(255, 0, 0)" /><circle cx="726" cy="364" r="64" fill="rgb(0, 0, 0)" /><circle cx="136" cy="598" r="63" fill="rgb(0, 0, 255)" /><polygon points="1048,38 792,1415 227,1360 472,1407 213,644 21,1461" fill="rgb(0, 0, 0)" /><rect x="557" y="290" width="60" height="86" fill="rgb(0, 0, 0)" /></svg>