<svg xmlns="http://www.w3.org/2000/svg" width="1101" height="1500"><circle cx="994" cy="769" r="33" fill="rgb(255, 255, 0)" /><rect x="130" y="840" width="58" height="89" fill="rgb(0, 0, 0)" /><rect x="463" y="995" width="179" height="89" fill="rgb(255, 0, 0)" /><circle cx="691" cy="1196" r="52" fill="rgb(255, 0, 0)" /><polygon points="859,85 201,663 365,352" fill="rgb(255, 0, 0)" /><rect x="410" y="1352" width="71" height="167" fill="rgb(255, 0, 0)" /><rect x="63" y="779" width="105" height="73" fill="rgb(0, 0, 0)" /><rect x="826" y="263" width="164" height="150" fill="rgb(0, 0, 0)" /><rect x="1024" y="266" width="83" height="158" fill="rgb(0, 0, 255)" /><circle cx="236" cy="1389" r="21" fill="rgb(255, 0, 0)" /><polygon points="996,690 332,17 663,995 941,1496 968,1450 112,994" fill="rgb(255, 0, 0)" /><circle cx="355" cy="1236" r="82" fill="rgb(0, 0, 255)" /><rect x="28" y="621" width="199" height="138" fill="rgb(255, 0, 0)" /><rect x="117" y="1027" width="123" height="121" fill="rgb(255, 255, 0)" /><circle cx="235" cy="577" r="59" fill="rgb(0, 0, 255)" /><rect x="388" y="242" width="101" height="153" fill="rgb(0, 0, 0)" /><rect x="793" y="993" width="88" height="83" fill="rgb(0, 0, 0)" /><polygon points="659,251 388,1442 712,787 277,1048 5,1097 386,526" fill="rgb(255, 0, 0)" /><circle cx="1001" cy="701" r="42" fill="rgb(0, 0, 0)" /><polygon points="781,354 660,1179 177,682 1027,1443" fill="rgb(0, 0, 0)" /><polygon points="260,1310 247,815 702,167 952,120 563,1227" fill="rgb(0, 0, 255)" /><polygon points="1043,1353 238,127 256,1304 559,347 972,451 195,464" fill="rgb(0, 0, 0)" /><polygon points="654,396 227,617 752,1367 659,1431 61,1075" fill="rgb(255, 255, 0)" /><polygon points="64,247 84,463 650,541" fill="rgb(0, 0, 0)" /><polygon points="478,1346 1085,339 50,1290" fill="rgb(255, 255, 0)" /><circle cx="36" cy="1342" r="25" fill="rgb(255, 0, 0)" /><circle cx="707" cy="1422" r="55" fill="rgb(0, 0, 255)" /><rect x="967" y="255" width="154" height="131" fill="rgb(0, 0, 0)" /><rect x="558" y="1373" width="150" height="139" fill="rgb(0, 0, 255)" /><circle cx="334" cy="1411" r="62" fill="rgb(0, 0, 255)" /><rect x="1043" y="44" width="161" height="55" fill="rgb(0, 0, 0)" /><rect x="456" y="2" width="159" height="132" fill="rgb(255, 255, 0)" /><rect x="323" y="115" width="168" height="140" fill="rgb(255, 255, 0)" /><circle cx="596" cy="1374" r="43" fill="rgb(0, 0, 255)" /><rect x="1060" y="1012" width="166" height="149" fill="rgb(0, 0, 0)" /><circle cx="824" cy="713" r="89" fill="rgb(255, 255, 0)" /><rect x="727" y="274" width="129" height="79" fill="rgb(255, 255, 0)" /><rect x="389" y="50" width="105" height="139" fill="rgb(255, 0, 0)" /><polygon points="8,4 780,1481 478,84" fill="rgb(0, 0, 255)" /><circle cx="742" cy="150" r="72" fill="rgb(255, 0, 0)" /><circle cx="406" cy="1098" r="61" fill="rgb(255, 255, 0)" /><polygon points="336,1150 629,356 1082,628 691,225 630,667" fill="rgb(255, 0, 0)" /><rect x="1068" y="903" width="187" height="99" fill="rgb(255, 0, 0)" /><rect x="191" y="1156" width="152" height="67" fill="rgb(255, 255, 0)" /><rect x="388" y="1217" width="127" height="81" fill="rgb(0, 0, 0)" /><circle cx="683" cy="215" r="53" fill="rgb(255, 255, 0)" /><rect x="725" y="1170" width="117" height="159" fill="rgb(255, 255, 0)" /><polygon points="736,739 756,607 684,660 149,96 375,1451 118,555" fill="rgb(0, 0, 0)" /><polygon points="1077,599 843,162 670,1348 706,653 601,827 37,1340" fill="rgb(0, 0, 255)" /><circle cx="931" cy="655" r="66" fill="rgb(0, 0, 0)" /><rect x="302" y="1077" width="198" height="140" fill="rgb(255, 0, 0)" /><rect x="730" y="869" width="99" height="193" fill="rgb(0, 0, 0)" /><circle cx="369" cy="292" r="24" fill="rgb(255, 0, 0)" /><rect x="515" y="283" width="137" height="199" fill="rgb(0, 0, 255)" /><rect x="775" y="718" width="122" height="175" fill="rgb(0, 0, 255)" /><circle cx="422" cy="1038" r="32" fill="rgb(255, 0, 0)" /><polygon points="112,1465 542,556 358,1229 259,1284 375,696 313,410" fill="rgb(0, 0, 255)" /><polygon points="411,1040 11,539 760,937 160,1113 635,662 111,583" fill="rgb(255, 0, 0)" /><rect x="1026" y="1484" width="103" height="113" fill="rgb(255, 0, 0)" /><rect x="825" y="1497" width="193" height="195" fill="rgb(0, 0, 0)" /><rect x="456" y="1410" width="177" height="151" fill="rgb(0, 0, 0)" /><rect x="391" y="479" width="98" height="116" fill="rgb(255, 0, 0)" /><circle cx="569" cy="125" r="83" fill="rgb(0, 0, 0)" /><rect x="213" y="1282" width="130" height="185" fill="rgb(0, 0, 0)" /><rect x="275" y="665" width="128" height="196" fill="rgb(0, 0, 255)" /><circle cx="1085" cy="796" r="70" fill="rgb(255, 0, 0)" /><rect x="399" y="366" width="145" height="55" fill="rgb(255, 0, 0)" /><polygon points="978,337 619,1135 1013,136 397,378 882,212" fill="rgb(0, 0, 255)" /><polygon points="952,1144 802,175 456,834 734,752 959,853 54,464" fill="rgb(255, 255, 0)" /><circle cx="995" cy="1110" r="20" fill="rgb(0, 0, 0)" /><polygon points="265,1284 106,864 923,903 51,1340 282,1441" fill="rgb(0, 0, 255)" /><circle cx="975" cy="1340" r="83" fill="rgb(255, 255, 0)" /><polygon points="988,681 102,77 676,589" fill="rgb(255, 0, 0)" /><polygon points="28,86 319,263 21,1459 204,362 1101,1235 58,1348" fill="rgb(255, 0, 0)" /><polygon points="652,604 595,264 491,944 869,789 892,627 148,1490" fill="rgb(255, 0, 0)" /><polygon points="1057,785 384,1313 300,964" fill="rgb(255, 0, 0)" /><polygon points="946,702 1006,188 355,1193 206,515 267,843 647,1338" fill="rgb(255, 0, 0)" /><circle cx="728" cy="817" r="27" fill="rgb(255, 0, 0)" /><rect x="103" y="1146" width="169" height="144" fill="rgb(0, 0, 0)" /><circle cx="547" cy="168" r="27" fill="rgb(0, 0, 0)" /><rect x="391" y="142" width="195" height="85" fill="rgb(0, 0, 255)" /><rect x="833" y="776" width="119" height="92" fill="rgb(0, 0, 255)" /></svg>