<svg xmlns="http://www.w3.org/2000/svg" width="1101" height="1500"><circle cx="342" cy="453" r="44" fill="rgb(255, 255, 0)" /><circle cx="651" cy="189" r="69" fill="rgb(255, 0, 0)" /><rect x="1056" y="965" width="53" height="86" fill="rgb(0, 0, 0)" /><polygon points="682,282 304,1194 927,599 340,249 856,679 977,1368" fill="rgb(0, 0, 0)" /><rect x="130" y="23" width="182" height="193" fill="rgb(0, 0, 0)" /><polygon points="1076,1090 742,1337 782,804 496,1138" fill="rgb(0, 0, 0)" /><polygon points="1060,421 495,685 916,960 1037,290 688,687" fill="rgb(0, 0, 0)" /><circle cx="227" cy="1258" r="83" fill="rgb(0, 0, 255)" /><polygon points="889,916 670,415 406,692 28,1408 956,655 724,1395" fill="rgb(0, 0, 0)" /><rect x="210" y="824" width="132" height="162" fill="rgb(255, 0, 0)" /><polygon points="302,996 474,353 1087,822" fill="rgb(255, 0, 0)" /><polygon points="339,0 577,533 826,1101 665,0 892,1172 747,23" fill="rgb(255, 255, 0)" /><polygon points="799,847 173,571 534,507 254,595" fill="rgb(0, 0, 0)" /><polygon points="134,1494 1079,189 968,1422 392,512" fill="rgb(255, 0, 0)" /><polygon points="95,1026 847,1369 51,943 141,1195 859,945" fill="rgb(255, 255, 0)" /><polygon points="127,896 311,1360 207,552 540,503" fill="rgb(0, 0, 0)" /><polygon points="1038,376 949,1122 153,489" fill="rgb(255, 0, 0)" /><polygon points="295,1393 849,395 806,4 672,1405 715,946" fill="rgb(255, 0, 0)" /><rect x="424" y="1325" width="90" height="101" fill="rgb(0, 0, 0)" /><polygon points="539,1357 913,551 158,1035 498,1224 466,567" fill="rgb(0, 0, 0)" /><circle cx="460" cy="18" r="34" fill="rgb(255, 0, 0)" /><polygon points="611,13 89,1320 264,507 580,1294 875,621 573,1494" fill="rgb(255, 0, 0)" /><circle cx="789" cy="1242" r="24" fill="rgb(255, 255, 0)" /><polygon points="975,461 716,1157 88,1324" fill="rgb(0, 0, 255)" /><polygon points="1061,381 465,179 1074,857 669,254 441,414 613,723" fill="rgb(0, 0, 0)" /><circle cx="512" cy="1391" r="77" fill="rgb(255, 0, 0)" /><rect x="1018" y="237" width="71" height="158" fill="rgb(255, 0, 0)" /><circle cx="176" cy="1376" r="78" fill="rgb(0, 0, 255)" /><circle cx="547" cy="1185" r="24" fill="rgb(255, 255, 0)" /><circle cx="995" cy="1293" r="83" fill="rgb(255, 255, 0)" /><rect x="35" y="1019" width="121" height="112" fill="rgb(255, 0, 0)" /><circle cx="1055" cy="84" r="76" fill="rgb(255, 0, 0)" /><circle cx="169" cy="616" r="88" fill="rgb(255, 0, 0)" /><rect x="991" y="580" width="166" height="186" fill="rgb(255, 0, 0)" /><circle cx="338" cy="1443" r="88" fill="rgb(0, 0, 255)" /><rect x="81" y="547" width="96" height="81" fill="rgb(0, 0, 0)" /><circle cx="125" cy="443" r="93" fill="rgb(0, 0, 255)" /><rect x="271" y="657" width="130" height="170" fill="rgb(0, 0, 0)" /><polygon points="269,1309 615,339 643,428 406,1360 675,297" fill="rgb(255, 255, 0)" /><polygon points="881,913 144,1095 72,184 867,693 139,566" fill="rgb(255, 255, 0)" /><polygon points="865,1354 616,722 824,1293 684,444" fill="rgb(0, 0, 255)" /><polygon points="628,705 177,1017 831,695 291,415" fill="rgb(0, 0, 255)" /><polygon points="419,908 1080,961 167,712" fill="rgb(0, 0, 0)" /><rect x="623" y="245" width="98" height="79" fill="rgb(0, 0, 255)" /><polygon points="818,954 386,576 862,773 957,1238" fill="rgb(255, 0, 0)" /><rect x="24" y="943" width="174" height="110" fill="rgb(0, 0, 255)" /><rect x="654" y="743" width="174" height="99" fill="rgb(0, 0, 255)" /><polygon points="334,546 1049,1193 733,551" fill="rgb(0, 0, 0)" /><rect x="20" y="682" width="57" height="193" fill="rgb(255, 255, 0)" /><rect x="512" y="572" width="172" height="144" fill="rgb(255, 0, 0)" /><polygon points="386,946 579,1239 483,827 807,79 146,1399" fill="rgb(255, 0, 0)" /><polygon points="459,376 320,321 308,676 650,1480" fill="rgb(0, 0, 255)" /><rect x="957" y="922" width="65" height="175" fill="rgb(0, 0, 255)" /><rect x="820" y="118" width="132" height="177" fill="rgb(0, 0, 0)" /><polygon points="971,1201 339,542 51,1028 497,697 580,1255 579,388" fill="rgb(0, 0, 0)" /><polygon points="128,1161 718,1008 1075,989 372,1198 657,0" fill="rgb(0, 0, 255)" /><circle cx="138" cy="790" r="67" fill="rgb(255, 255, 0)" /><rect x="224" y="39" width="182" height="178" fill="rgb(0, 0, 0)" /><polygon points="958,430 613,1129 1077,631 423,543 854,939 45,25" fill="rgb(255, 0, 0)" /><polygon points="370,725 723,549 841,407 977,1035 181,1352" fill="rgb(255, 0, 0)" /><polygon points="633,1108 399,696 884,1362 438,353 412,1039 618,1203" fill="rgb(255, 0, 0)" /><circle cx="684" cy="513" r="89" fill="rgb(0, 0, 255)" /><circle cx="56" cy="473" r="31" fill="rgb(255, 0, 0)" /><polygon points="844,221 1046,258 149,613 8,1147 60,1496 1029,577" fill="rgb(0, 0, 0)" /><circle cx="25" cy="1042" r="69" fill="rgb(255, 0, 0)" /><circle cx="238" cy="1167" r="76" fill="rgb(255, 0, 0)" /><polygon points="1046,899 885,278 659,1273" fill="rgb(0, 0, 0)" /><rect x="403" y="717" width="92" height="177" fill="rgb(0, 0, 0)" /><polygon points="756,659 959,1167 908,1377" fill="rgb(255, 0, 0)" /><polygon points="138,694 618,131 54,308 729,1486 252,415" fill="rgb(0, 0, 0)" /><rect x="1093" y="1140" width="149" height="166" fill="rgb(255, 255, 0)" /><polygon points="276,341 639,148 631,1061" fill="rgb(0, 0, 0)" /><polygon points="947,730 849,1095 373,1326 758,1467 307,600 362,1339" fill="rgb(255, 255, 0)" /><polygon points="453,93 398,927 257,885" fill="rgb(255, 255, 0)" /><polygon points="470,120 725,307 446,155 9,76 420,578" fill="rgb(0, 0, 255)" /><rect x="542" y="1309" width="125" height="118" fill="rgb(0, 0, 255)" /><circle cx="724" cy="628" r="96" fill="rgb(255, 255, 0)" /><rect x="674" y="1172" width="90" height="180" fill="rgb(0, 0, 0)" /><polygon points="249,1261 896,145 1013,748 234,1098 960,1214 996,993" fill="rgb(255, 255, 0)" /><rect x="592" y="1109" width="180" height="71" fill="rgb(255, 0, 0)" /><circle cx="454" cy="459" r="94" fill="rgb(255, 255, 0)" /><circle cx="618" cy="814" r="60" fill="rgb(0, 0, 255)" /><polygon points="523,646 1079,1161 975,564 1003,172" fill="rgb(255, 255, 0)" /><polygon points="673,292 910,705 653,530 380,582 587,356 97,105" fill="rgb(0, 0, 255)" /><polygon points="73,717 425,303 474,685 656,845" fill="rgb(0, 0, 0)" /><circle cx="1078" cy="1" r="71" fill="rgb(0, 0, 255)" /></svg>