<svg xmlns="http://www.w3.org/2000/svg" width="1101" height="1500"><circle cx="462" cy="442" r="59" fill="rgb(0, 0, 255)" /><polygon points="1015,1084 937,746 753,1371" fill="rgb(255, 0, 0)" /><circle cx="11" cy="1029" r="39" fill="rgb(255, 0, 0)" /><polygon points="208,438 27,1158 756,132 695,255" fill="rgb(255, 0, 0)" /><circle cx="208" cy="1235" r="86" fill="rgb(0, 0, 0)" /><polygon points="575,1454 405,1147 144,589 525,1028 367,813" fill="rgb(0, 0, 255)" /><polygon points="979,1391 182,402 749,1099 750,685 105,803 739,1154" fill="rgb(0, 0, 0)" /><circle cx="679" cy="164" r="97" fill="rgb(255, 255, 0)" /><rect x="981" y="303" width="62" height="171" fill="rgb(0, 0, 255)" /><circle cx="137" cy="510" r="27" fill="rgb(255, 0, 0)" /><circle cx="699" cy="1450" r="99" fill="rgb(0, 0, 0)" /><rect x="1079" y="465" width="186" height="162" fill="rgb(255, 0, 0)" /><polygon points="85,1363 728,1323 746,852 417,1456 403,550" fill="rgb(0, 0, 0)" /><circle cx="121" cy="348" r="71" fill="rgb(255, 255, 0)" /><rect x="900" y="786" width="140" height="73" fill="rgb(0, 0, 255)" /><circle cx="797" cy="16" r="55" fill="rgb(0, 0, 0)" /><circle cx="358" cy="1235" r="68" fill="rgb(0, 0, 0)" /><circle cx="667" cy="1107" r="24" fill="rgb(255, 0, 0)" /><polygon points="480,1248 871,246 343,995" fill="rgb(255, 255, 0)" /><polygon points="284,41 394,1251 133,993 1043,87" fill="rgb(255, 255, 0)" /><rect x="1027" y="188" width="131" height="76" fill="rgb(0, 0, 255)" /><rect x="791" y="373" width="188" height="176" fill="rgb(255, 255, 0)" /><rect x="989" y="630" width="129" height="89" fill="rgb(255, 255, 0)" /><circle cx="733" cy="518" r="32" fill="rgb(255, 255, 0)" /><polygon points="150,597 1074,1470 236,1400 433,164" fill="rgb(0, 0, 0)" /><polygon points="472,299 475,705 1032,52 994,991 361,1016 275,164" fill="rgb(255, 0, 0)" /><polygon points="132,1000 66,287 329,378 1017,516" fill="rgb(0, 0, 255)" /><circle cx="937" cy="68" r="55" fill="rgb(255, 255, 0)" /><circle cx="290" cy="1424" r="59" fill="rgb(0, 0, 0)" /><circle cx="627" cy="1350" r="33" fill="rgb(0, 0, 0)" /></svg>