<svg xmlns="http://www.w3.org/2000/svg" width="1101" height="1500"><rect x="1082" y="611" width="182" height="135" fill="rgb(0, 0, 255)" /><circle cx="503" cy="1058" r="30" fill="rgb(0, 0, 255)" /><polygon points="910,820 612,219 416,375" fill="rgb(255, 0, 0)" /><polygon points="418,181 375,767 970,766 317,379 565,187 939,110" fill="rgb(255, 0, 0)" /><polygon points="1078,32 157,413 157,488 438,1185 636,602 617,485" fill="rgb(255, 0, 0)" /><rect x="985" y="604" width="71" height="128" fill="rgb(0, 0, 255)" /><circle cx="810" cy="1378" r="29" fill="rgb(0, 0, 0)" /><polygon points="909,1500 112,1447 862,824 197,1323 104,1458" fill="rgb(255, 0, 0)" /><circle cx="509" cy="332" r="83" fill="rgb(255, 0, 0)" /><polygon points="970,835 788,120 841,107 680,1079" fill="rgb(0, 0, 255)" /><rect x="646" y="800" width="143" height="59" fill="rgb(0, 0, 255)" /><rect x="738" y="1442" width="51" height="79" fill="rgb(0, 0, 0)" /><circle cx="104" cy="553" r="62" fill="rgb(255, 0, 0)" /><circle cx="374" cy="215" r="41" fill="rgb(255, 255, 0)" /><circle cx="467" cy="941" r="98" fill="rgb(255, 0, 0)" /><rect x="777" y="503" width="178" height="78" fill="rgb(255, 255, 0)" /><rect x="1068" y="476" width="83" height="58" fill="rgb(0, 0, 255)" /><circle cx="469" cy="400" r="93" fill="rgb(255, 0, 0)" /><circle cx="392" cy="486" r="92" fill="rgb(0, 0, 0)" /><rect x="751" y="12" width="118" height="125" fill="rgb(255, 0, 0)" /><polygon points="347,296 836,1089 321,387 430,1319" fill="rgb(255, 255, 0)" /><polygon points="347,789 158,766 346,771" fill="rgb(0, 0, 255)" /><polygon points="578,726 182,277 409,552" fill="rgb(0, 0, 255)" /><rect x="270" y="804" width="58" height="172" fill="rgb(0, 0, 255)" /><polygon points="427,511 707,176 806,1089 1029,1128 63,29 680,912" fill="rgb(255, 255, 0)" /><circle cx="120" cy="571" r="90" fill="rgb(255, 255, 0)" /><circle cx="707" cy="707" r="95" fill="rgb(0, 0, 0)" /><rect x="482" y="1142" width="87" height="91" fill="rgb(0, 0, 0)" /><polygon points="896,1286 920,1106 444,1160 375,841" fill="rgb(255, 0, 0)" /><circle cx="1030" cy="177" r="76" fill="rgb(0, 0, 255)" /><rect x="508" y="1102" width="148" height="181" fill="rgb(0, 0, 0)" /><rect x="859" y="351" width="181" height="63" fill="rgb(255, 255, 0)" /><rect x="919" y="881" width="174" height="161" fill="rgb(0, 0, 0)" /><rect x="733" y="631" width="124" height="63" fill="rgb(255, 0, 0)" /><rect x="182" y="573" width="124" height="145" fill="rgb(255, 0, 0)" /><circle cx="547" cy="197" r="63" fill="rgb(0, 0, 255)" /><polygon points="987,222 38,870 211,1236 43,1108 356,429 34,489" fill="rgb(255, 0, 0)" /><rect x="1032" y="125" width="168" height="167" fill="rgb(0, 0, 255)" /><circle cx="203" cy="863" r="94" fill="rgb(255, 0, 0)" /><circle cx="283" cy="650" r="51" fill="rgb(255, 255, 0)" /><rect x="615" y="283" width="172" height="190" fill="rgb(255, 255, 0)" /><circle cx="699" cy="1424" r="37" fill="rgb(255, 255, 0)" /><circle cx="593" cy="1191" r="61" fill="rgb(0, 0, 0)" /><polygon points="358,614 739,1274 146,1345" fill="rgb(255, 0, 0)" /><rect x="600" y="1138" width="171" height="157" fill="rgb(0, 0, 255)" /><rect x="804" y="1338" width="110" height="193" fill="rgb(255, 0, 0)" /><circle cx="933" cy="936" r="73" fill="rgb(0, 0, 255)" /><circle cx="753" cy="1333" r="83" fill="rgb(0, 0, 255)" /><circle cx="901" cy="251" r="75" fill="rgb(255, 255, 0)" /><circle cx="334" cy="129" r="39" fill="rgb(255, 0, 0)" /><circle cx="631" cy="897" r="41" fill="rgb(0, 0, 0)" /><circle cx="452" cy="1482" r="88" fill="rgb(255, 0, 0)" /><rect x="873" y="307" width="84" height="139" fill="rgb(255, 0, 0)" /><polygon points="829,8 808,1453 542,782 36,196" fill="rgb(255, 255, 0)" /><circle cx="376" cy="571" r="57" fill="rgb(255, 0, 0)" /><circle cx="521" cy="715" r="95" fill="rgb(0, 0, 255)" /><circle cx="857" cy="77" r="46" fill="rgb(0, 0, 0)" /><polygon points="241,1007 723,947 166,1379 245,1431" fill="rgb(255, 255, 0)" /><polygon points="304,252 680,306 1097,420" fill="rgb(255, 255, 0)" /><polygon points="77,33 917,792 930,945 1012,385 118,1173 282,625" fill="rgb(255, 0, 0)" /><polygon points="1091,1146 533,428 1094,1300 536,649 882,22 0,144" fill="rgb(255, 255, 0)" /><rect x="597" y="283" width="54" height="115" fill="rgb(255, 255, 0)" /><circle cx="1045" cy="655" r="77" fill="rgb(0, 0, 0)" /><rect x="953" y="1476" width="77" height="110" fill="rgb(255, 0, 0)" /><rect x="542" y="940" width="132" height="106" fill="rgb(0, 0, 0)" /><rect x="46" y="297" width="113" height="113" fill="rgb(0, 0, 0)" /><circle cx="559" cy="800" r="66" fill="rgb(255, 255, 0)" /><circle cx="868" cy="235" r="68" fill="rgb(255, 255, 0)" /><circle cx="836" cy="1468" r="35" fill="rgb(255, 0, 0)" /><rect x="559" y="900" width="77" height="136" fill="rgb(255, 255, 0)" /><polygon points="771,1096 100,1110 7,495 73,96" fill="rgb(255, 0, 0)" /><circle cx="1000" cy="961" r="29" fill="rgb(255, 255, 0)" /><polygon points="773,324 836,547 324,275 979,510 1079,1336 364,613" fill="rgb(0, 0, 255)" /><rect x="1041" y="1340" width="132" height="172" fill="rgb(0, 0, 255)" /><circle cx="59" cy="830" r="29" fill="rgb(0, 0, 0)" /><circle cx="922" cy="612" r="23" fill="rgb(0, 0, 0)" /><polygon points="220,1244 301,324 319,53 1094,755 442,1464" fill="rgb(0, 0, 0)" /><circle cx="421" cy="1136" r="57" fill="rgb(255, 0, 0)" /><polygon points="183,1359 446,1351 1013,1183" fill="rgb(0, 0, 255)" /><polygon points="243,886 1013,966 935,205 326,299 599,867" fill="rgb(0, 0, 0)" /><rect x="403" y="1137" width="99" height="97" fill="rgb(0, 0, 255)" /><circle cx="782" cy="921" r="88" fill="rgb(255, 0, 0)" /><circle cx="738" cy="1436" r="24" fill="rgb(0, 0, 255)" /><rect x="588" y="1306" width="157" height="93" fill="rgb(255, 0, 0)" /><rect x="676" y="239" width="182" height="134" fill="rgb(255, 0, 0)" /><circle cx="603" cy="953" r="31" fill="rgb(255, 255, 0)" /><rect x="635" y="738" width="196" height="90" fill="rgb(0, 0, 255)" /><polygon points="339,906 454,377 947,145 143,777 315,940" fill="rgb(0, 0, 0)" /><circle cx="868" cy="35" r="58" fill="rgb(0, 0, 0)" /><circle cx="458" cy="1398" r="94" fill="rgb(0, 0, 0)" /><polygon points="332,198 497,1414 981,1287 200,940 288,798 809,1254" fill="rgb(0, 0, 0)" /><polygon points="157,1065 719,1288 227,1211 471,915" fill="rgb(255, 255, 0)" /><circle cx="1093" cy="1419" r="45" fill="rgb(255, 0, 0)" /><polygon points="394,1201 740,971 1048,592 631,60 278,661 402,1465" fill="rgb(0, 0, 255)" /><rect x="16" y="431" width="67" height="187" fill="rgb(0, 0, 0)" /><rect x="647" y="918" width="70" height="184" fill="rgb(255, 0, 0)" /><rect x="376" y="702" width="65" height="200" fill="rgb(0, 0, 255)" /><rect x="683" y="1187" width="70" height="134" fill="rgb(0, 0, 255)" /><circle cx="452" cy="404" r="94" fill="rgb(255, 0, 0)" /><circle cx="700" cy="652" r="31" fill="rgb(255, 0, 0)" /><rect x="176" y="871" width="75" height="68" fill="rgb(255, 255, 0)" /><circle cx="348" cy="1436" r="78" fill="rgb(0, 0, 0)" /><rect x="565" y="911" width="174" height="200" fill="rgb(255, 0, 0)" /><polygon points="293,333 333,769 153,1456 903,1000 1031,706 376,1245" fill="rgb(0, 0, 0)" /><polygon points="746,646 456,22 907,763" fill="rgb(255, 255, 0)" /><circle cx="521" cy="1390" r="26" fill="rgb(255, 0, 0)" /><rect x="740" y="1393" width="176" height="86" fill="rgb(0, 0, 255)" /><polygon points="446,552 311,1105 662,1411 1048,1341 568,46" fill="rgb(255, 0, 0)" /><polygon points="84,833 174,419 60,397 100,626" fill="rgb(255, 0, 0)" /><circle cx="162" cy="789" r="34" fill="rgb(0, 0, 0)" /><rect x="331" y="720" width="168" height="101" fill="rgb(0, 0, 255)" /><polygon points="660,449 166,1018 206,1451 924,762 230,589" fill="rgb(255, 255, 0)" /><polygon points="647,101 1052,1375 939,1094 1045,751 424,189 957,554" fill="rgb(255, 0, 0)" /><polygon points="237,706 523,919 516,1235 899,481 60,1274" fill="rgb(0, 0, 255)" /><circle cx="785" cy="1237" r="27" fill="rgb(255, 255, 0)" /><rect x="221" y="550" width="113" height="175" fill="rgb(0, 0, 255)" /><circle cx="561" cy="1331" r="45" fill="rgb(255, 0, 0)" /><rect x="455" y="665" width="59" height="88" fill="rgb(255, 0, 0)" /><polygon points="755,1196 11,1444 1067,1391" fill="rgb(0, 0, 0)" /><rect x="731" y="1120" width="108" height="147" fill="rgb(255, 255, 0)" /><polygon points="1022,145 651,1141 563,1498" fill="rgb(0, 0, 0)" /><rect x="383" y="602" width="187" height="171" fill="rgb(255, 255, 0)" /><rect x="15" y="1331" width="97" height="184" fill="rgb(255, 255, 0)" /><circle cx="321" cy="1391" r="73" fill="rgb(255, 255, 0)" /><circle cx="724" cy="1192" r="84" fill="rgb(0, 0, 0)" /><polygon points="550,299 935,926 490,1494 240,1162 895,27 909,446" fill="rgb(255, 255, 0)" /><circle cx="571" cy="638" r="80" fill="rgb(255, 255, 0)" /><rect x="1101" y="1308" width="177" height="73" fill="rgb(0, 0, 255)" /><polygon points="654,1205 175,384 0,80 1040,1228 707,143" fill="rgb(255, 255, 0)" /><rect x="182" y="105" width="138" height="176" fill="rgb(255, 255, 0)" /><circle cx="232" cy="1262" r="27" fill="rgb(255, 255, 0)" /><circle cx="342" cy="1309" r="54" fill="rgb(255, 0, 0)" /><rect x="193" y="502" width="95" height="153" fill="rgb(255, 0, 0)" /><rect x="573" y="957" width="82" height="89" fill="rgb(0, 0, 0)" /><polygon points="129,1093 699,231 623,1323 681,923 707,1003 1093,259" fill="rgb(255, 0, 0)" /><polygon points="188,344 876,0 852,611" fill="rgb(255, 255, 0)" /><rect x="377" y="1126" width="97" height="86" fill="rgb(0, 0, 255)" /><rect x="122" y="716" width="116" height="158" fill="rgb(255, 255, 0)" /><circle cx="509" cy="1296" r="40" fill="rgb(0, 0, 255)" /><rect x="1003" y="219" width="78" height="119" fill="rgb(0, 0, 255)" /><polygon points="644,802 92,1204 1005,474 483,624" fill="rgb(0, 0, 255)" /><rect x="518" y="615" width="104" height="161" fill="rgb(0, 0, 0)" /><polygon points="99,1241 327,1304 629,544 242,67" fill="rgb(255, 255, 0)" /><circle cx="285" cy="1111" r="73" fill="rgb(255, 255, 0)" /><polygon points="771,1423 174,1354 830,1223 929,743" fill="rgb(255, 0, 0)" /><rect x="748" y="867" width="90" height="197" fill="rgb(255, 255, 0)" /><polygon points="718,803 823,826 126,1382" fill="rgb(255, 0, 0)" /><polygon points="717,1297 60,765 1026,670 1,737" fill="rgb(255, 255, 0)" /><polygon points="886,957 424,1418 471,1089 290,64" fill="rgb(255, 0, 0)" /><polygon points="726,1116 1010,409 598,1242" fill="rgb(0, 0, 0)" /><polygon points="415,450 921,1371 398,472 173,1126 227,310" fill="rgb(255, 0, 0)" /><circle cx="538" cy="393" r="94" fill="rgb(255, 255, 0)" /><circle cx="865" cy="1463" r="55" fill="rgb(0, 0, 255)" /><circle cx="428" cy="940" r="33" fill="rgb(0, 0, 255)" /><circle cx="294" cy="891" r="76" fill="rgb(255, 0, 0)" /><circle cx="540" cy="544" r="32" fill="rgb(0, 0, 255)" /><rect x="53" y="1206" width="60" height="71" fill="rgb(255, 255, 0)" /><polygon points="478,510 1007,1276 987,848 199,95 217,1445" fill="rgb(255, 0, 0)" /><circle cx="532" cy="1333" r="77" fill="rgb(0, 0, 255)" /><rect x="329" y="612" width="96" height="117" fill="rgb(255, 255, 0)" /><circle cx="564" cy="624" r="61" fill="rgb(0, 0, 0)" /><rect x="832" y="1151" width="200" height="58" fill="rgb(0, 0, 255)" /></svg>