<svg xmlns="http://www.w3.org/2000/svg" width="1101" height="1500"><rect x="1099" y="244" width="101" height="162" fill="rgb(0, 0, 255)" /><circle cx="654" cy="580" r="54" fill="rgb(0, 0, 255)" /><polygon points="298,345 31,898 817,1058 1088,320 1036,473 746,134" fill="rgb(255, 255, 0)" /><circle cx="0" cy="576" r="82" fill="rgb(0, 0, 255)" /><rect x="716" y="457" width="75" height="189" fill="rgb(255, 255, 0)" /><circle cx="1061" cy="952" r="40" fill="rgb(255, 255, 0)" /><polygon points="79,874 28,1054 155,912 373,434 314,544" fill="rgb(0, 0, 0)" /><polygon points="695,590 699,1026 619,1437 179,412 195,860" fill="rgb(255, 255, 0)" /><polygon points="373,688 703,623 614,1033 772,968 629,293 747,640" fill="rgb(255, 0, 0)" /><circle cx="1100" cy="1257" r="34" fill="rgb(0, 0, 0)" /><circle cx="272" cy="1182" r="81" fill="rgb(0, 0, 0)" /><rect x="623" y="989" width="184" height="83" fill="rgb(0, 0, 0)" /><polygon points="453,13 84,530 733,35 846,942 814,1404 377,181" fill="rgb(255, 255, 0)" /><circle cx="351" cy="1261" r="29" fill="rgb(255, 0, 0)" /><polygon points="1092,528 289,491 60,568" fill="rgb(0, 0, 0)" /><rect x="263" y="1181" width="67" height="142" fill="rgb(255, 0, 0)" /><circle cx="668" cy="606" r="51" fill="rgb(0, 0, 255)" /><circle cx="616" cy="1142" r="94" fill="rgb(255, 0, 0)" /><polygon points="870,162 3,555 285,289" fill="rgb(255, 255, 0)" /><polygon points="354,174 915,768 781,1190" fill="rgb(0, 0, 255)" /><rect x="1013" y="889" width="79" height="88" fill="rgb(255, 0, 0)" /><circle cx="818" cy="394" r="44" fill="rgb(0, 0, 0)" /><circle cx="244" cy="440" r="80" fill="rgb(0, 0, 255)" /><rect x="122" y="276" width="144" height="51" fill="rgb(255, 255, 0)" /></svg>