<svg xmlns="http://www.w3.org/2000/svg" width="1101" height="1500"><circle cx="987" cy="1094" r="26" fill="rgb(0, 0, 0)" /><polygon points="884,1170 885,1070 871,180 633,762 1076,1396 427,1290" fill="rgb(0, 0, 255)" /><rect x="842" y="269" width="128" height="144" fill="rgb(255, 255, 0)" /><circle cx="159" cy="1040" r="62" fill="rgb(255, 0, 0)" /><polygon points="140,634 1097,1069 954,1449 667,492 984,398 1043,1124" fill="rgb(0, 0, 255)" /><circle cx="920" cy="150" r="53" fill="rgb(0, 0, 0)" /><polygon points="867,333 106,1191 278,121" fill="rgb(0, 0, 255)" /><circle cx="878" cy="361" r="89" fill="rgb(0, 0, 0)" /><circle cx="72" cy="545" r="90" fill="rgb(0, 0, 255)" /><rect x="691" y="71" width="149" height="63" fill="rgb(0, 0, 0)" /><circle cx="830" cy="550" r="30" fill="rgb(0, 0, 255)" /><rect x="425" y="1100" width="110" height="111" fill="rgb(255, 255, 0)" /><circle cx="678" cy="552" r="93" fill="rgb(255, 0, 0)" /><rect x="675" y="1387" width="161" height="181" fill="rgb(0, 0, 0)" /><circle cx="820" cy="962" r="25" fill="rgb(0, 0, 0)" /><circle cx="903" cy="732" r="84" fill="rgb(255, 0, 0)" /><rect x="772" y="211" width="101" height="139" fill="rgb(255, 0, 0)" /><circle cx="309" cy="564" r="76" fill="rgb(255, 0, 0)" /><polygon points="209,146 84,470 627,927 612,290" fill="rgb(0, 0, 0)" /><circle cx="73" cy="470" r="59" fill="rgb(0, 0, 0)" /><circle cx="153" cy="1170" r="32" fill="rgb(255, 255, 0)" /><rect x="409" y="782" width="75" height="119" fill="rgb(0, 0, 255)" /><rect x="122" y="1470" width="67" height="109" fill="rgb(0, 0, 255)" /><polygon points="960,1445 366,897 408,317 1016,654 161,622" fill="rgb(255, 255, 0)" /><rect x="933" y="1187" width="109" height="160" fill="rgb(255, 255, 0)" /><circle cx="994" cy="359" r="62" fill="rgb(255, 0, 0)" /><circle cx="734" cy="540" r="81" fill="rgb(0, 0, 255)" /><circle cx="524" cy="374" r="42" fill="rgb(0, 0, 0)" /><circle cx="928" cy="734" r="49" fill="rgb(255, 255, 0)" /><circle cx="907" cy="974" r="82" fill="rgb(255, 0, 0)" /><rect x="763" y="1404" width="146" height="121" fill="rgb(255, 0, 0)" /><polygon points="180,811 641,515 708,1209" fill="rgb(0, 0, 255)" /><rect x="103" y="1235" width="60" height="65" fill="rgb(0, 0, 0)" /><polygon points="352,335 57,970 724,1057 795,362 554,307 779,1183" fill="rgb(0, 0, 255)" /><circle cx="604" cy="134" r="68" fill="rgb(255, 255, 0)" /><rect x="1071" y="1248" width="104" height="67" fill="rgb(0, 0, 0)" /><polygon points="1095,1493 238,514 837,1061 545,1350 1033,1422" fill="rgb(0, 0, 255)" /><circle cx="786" cy="645" r="90" fill="rgb(0, 0, 255)" /><rect x="285" y="271" width="85" height="108" fill="rgb(0, 0, 255)" /><circle cx="156" cy="578" r="84" fill="rgb(0, 0, 255)" /><polygon points="689,543 478,1268 359,1263" fill="rgb(0, 0, 0)" /><rect x="498" y="589" width="170" height="76" fill="rgb(255, 255, 0)" /><rect x="526" y="126" width="91" height="87" fill="rgb(0, 0, 255)" /><rect x="829" y="44" width="109" height="104" fill="rgb(255, 255, 0)" /><polygon points="135,996 926,362 941,453 526,108 59,687" fill="rgb(255, 255, 0)" /><rect x="841" y="404" width="75" height="194" fill="rgb(255, 0, 0)" /><circle cx="491" cy="1033" r="87" fill="rgb(255, 255, 0)" /><circle cx="41" cy="1271" r="68" fill="rgb(255, 0, 0)" /><rect x="721" y="1199" width="194" height="102" fill="rgb(0, 0, 255)" /><rect x="929" y="1375" width="190" height="123" fill="rgb(255, 255, 0)" /><rect x="1080" y="1167" width="157" height="125" fill="rgb(255, 255, 0)" /><rect x="1096" y="469" width="190" height="65" fill="rgb(255, 255, 0)" /><polygon points="280,102 926,135 750,1378 1037,495" fill="rgb(255, 0, 0)" /><polygon points="83,512 364,1272 614,252 78,886 608,1478" fill="rgb(0, 0, 0)" /><circle cx="833" cy="512" r="24" fill="rgb(0, 0, 255)" /><polygon points="323,1220 1060,1118 692,987 220,697" fill="rgb(0, 0, 0)" /><polygon points="255,1087 1007,1042 1084,16 690,162" fill="rgb(255, 0, 0)" /><polygon points="785,436 1069,1082 736,1313 336,108 65,918 959,1337" fill="rgb(255, 0, 0)" /><polygon points="1075,694 43,1371 779,1018 343,642 551,696" fill="rgb(0, 0, 0)" /><polygon points="844,650 997,1237 253,1317 1076,961" fill="rgb(0, 0, 255)" /><circle cx="423" cy="739" r="50" fill="rgb(255, 255, 0)" /><circle cx="726" cy="1472" r="72" fill="rgb(255, 255, 0)" /><polygon points="316,1179 22,366 1020,680" fill="rgb(255, 255, 0)" /><polygon points="527,34 785,1242 535,631 521,903 1053,1380" fill="rgb(255, 0, 0)" /><circle cx="823" cy="1064" r="60" fill="rgb(0, 0, 0)" /><circle cx="177" cy="1049" r="58" fill="rgb(255, 255, 0)" /><polygon points="506,23 397,669 107,892" fill="rgb(255, 0, 0)" /><polygon points="742,844 750,591 535,1316" fill="rgb(0, 0, 0)" /><rect x="182" y="1463" width="78" height="167" fill="rgb(0, 0, 0)" /><polygon points="29,263 112,369 928,1400 904,1197 885,656" fill="rgb(0, 0, 255)" /><rect x="523" y="1299" width="64" height="80" fill="rgb(0, 0, 255)" /><circle cx="55" cy="526" r="87" fill="rgb(255, 0, 0)" /><circle cx="509" cy="851" r="62" fill="rgb(255, 0, 0)" /><rect x="996" y="348" width="75" height="50" fill="rgb(255, 0, 0)" /><polygon points="995,195 572,136 226,1354 1005,747 804,961" fill="rgb(0, 0, 255)" /><polygon points="802,97 914,1024 562,779" fill="rgb(0, 0, 0)" /><polygon points="579,242 312,758 863,195 594,935 842,1182 1076,1360" fill="rgb(0, 0, 255)" /><circle cx="775" cy="91" r="83" fill="rgb(255, 255, 0)" /><polygon points="155,1336 113,1138 715,720 642,487 937,1080 653,1100" fill="rgb(0, 0, 255)" /><polygon points="992,675 657,871 270,1307" fill="rgb(255, 255, 0)" /><polygon points="218,748 2,1163 473,1040 1067,940 739,255 320,208" fill="rgb(0, 0, 0)" /><circle cx="841" cy="1245" r="49" fill="rgb(0, 0, 0)" /><rect x="313" y="186" width="149" height="167" fill="rgb(0, 0, 255)" /><polygon points="491,1494 416,1083 672,1063 33,1213 314,721" fill="rgb(0, 0, 255)" /><rect x="324" y="583" width="101" height="176" fill="rgb(0, 0, 0)" /><circle cx="44" cy="0" r="27" fill="rgb(0, 0, 255)" /><rect x="30" y="215" width="199" height="99" fill="rgb(255, 255, 0)" /><polygon points="785,470 469,89 470,809 1020,1133 930,817 468,1063" fill="rgb(255, 0, 0)" /><polygon points="1042,228 516,1220 745,1457" fill="rgb(255, 255, 0)" /><polygon points="149,260 74,365 853,648 937,1354 120,1077" fill="rgb(255, 0, 0)" /><polygon points="58,1148 505,1158 512,1291 882,267 1056,147 947,1163" fill="rgb(255, 255, 0)" /><polygon points="752,1337 1094,512 114,544 84,704 448,822 1085,716" fill="rgb(255, 0, 0)" /><polygon points="788,338 744,1175 416,537 304,574 80,1129" fill="rgb(0, 0, 0)" /><rect x="702" y="379" width="60" height="153" fill="rgb(0, 0, 255)" /><circle cx="560" cy="1150" r="77" fill="rgb(255, 0, 0)" /><rect x="394" y="511" width="199" height="86" fill="rgb(255, 255, 0)" /><rect x="644" y="740" width="107" height="174" fill="rgb(255, 255, 0)" /><polygon points="799,937 496,1326 167,286 776,747" fill="rgb(0, 0, 0)" /><rect x="236" y="59" width="140" height="159" fill="rgb(255, 0, 0)" /><circle cx="185" cy="1167" r="54" fill="rgb(255, 0, 0)" /><circle cx="417" cy="58" r="59" fill="rgb(0, 0, 255)" /><circle cx="433" cy="698" r="37" fill="rgb(255, 0, 0)" /><rect x="997" y="1365" width="162" height="159" fill="rgb(255, 255, 0)" /><rect x="419" y="1288" width="62" height="95" fill="rgb(255, 255, 0)" /><polygon points="475,59 777,1091 240,1372" fill="rgb(255, 0, 0)" /><rect x="413" y="10" width="151" height="55" fill="rgb(255, 0, 0)" /><circle cx="984" cy="1267" r="40" fill="rgb(255, 255, 0)" /><rect x="1003" y="867" width="101" height="163" fill="rgb(0, 0, 0)" /><polygon points="572,1142 498,316 1017,420" fill="rgb(0, 0, 255)" /><circle cx="498" cy="926" r="62" fill="rgb(0, 0, 0)" /><polygon points="688,822 443,1205 1000,395 980,1161 1048,644 863,1447" fill="rgb(0, 0, 0)" /><circle cx="782" cy="991" r="51" fill="rgb(0, 0, 0)" /><rect x="743" y="1022" width="61" height="134" fill="rgb(0, 0, 0)" /><rect x="602" y="828" width="109" height="111" fill="rgb(0, 0, 255)" /><rect x="1070" y="940" width="138" height="127" fill="rgb(0, 0, 255)" /><rect x="288" y="648" width="179" height="132" fill="rgb(255, 0, 0)" /><rect x="819" y="122" width="171" height="151" fill="rgb(0, 0, 0)" /><rect x="1068" y="741" width="63" height="53" fill="rgb(0, 0, 255)" /><circle cx="142" cy="419" r="68" fill="rgb(0, 0, 0)" /><polygon points="863,796 114,966 1014,322 706,280 82,208" fill="rgb(255, 0, 0)" /><rect x="97" y="544" width="143" height="86" fill="rgb(255, 255, 0)" /><circle cx="611" cy="1278" r="90" fill="rgb(255, 255, 0)" /><rect x="224" y="344" width="68" height="158" fill="rgb(0, 0, 0)" /><polygon points="497,1400 351,656 683,105 1034,971 845,1352" fill="rgb(255, 255, 0)" /><circle cx="594" cy="336" r="54" fill="rgb(0, 0, 255)" /><circle cx="559" cy="1075" r="63" fill="rgb(255, 0, 0)" /><circle cx="257" cy="90" r="36" fill="rgb(255, 0, 0)" /><polygon points="482,1417 582,585 228,555 1031,1390 909,633 864,1284" fill="rgb(255, 255, 0)" /><circle cx="861" cy="824" r="64" fill="rgb(0, 0, 255)" /><polygon points="351,1224 386,432 741,1231 805,547" fill="rgb(255, 0, 0)" /><circle cx="161" cy="1342" r="83" fill="rgb(255, 255, 0)" /><rect x="510" y="411" width="77" height="141" fill="rgb(0, 0, 255)" /><rect x="984" y="1388" width="88" height="151" fill="rgb(255, 0, 0)" /><polygon points="1043,1394 543,376 118,589" fill="rgb(0, 0, 255)" /><rect x="346" y="42" width="96" height="176" fill="rgb(0, 0, 255)" /><circle cx="622" cy="1422" r="97" fill="rgb(255, 0, 0)" /><rect x="1011" y="500" width="199" height="195" fill="rgb(255, 255, 0)" /><circle cx="507" cy="989" r="40" fill="rgb(0, 0, 255)" /><polygon points="804,1274 619,305 901,22" fill="rgb(0, 0, 255)" /><rect x="717" y="902" width="91" height="50" fill="rgb(0, 0, 255)" /><rect x="273" y="32" width="124" height="95" fill="rgb(255, 255, 0)" /><polygon points="809,495 160,488 137,258 270,159 218,1433" fill="rgb(255, 255, 0)" /><circle cx="312" cy="749" r="81" fill="rgb(0, 0, 255)" /><circle cx="358" cy="1032" r="29" fill="rgb(0, 0, 255)" /><rect x="593" y="174" width="99" height="184" fill="rgb(0, 0, 255)" /><circle cx="755" cy="970" r="29" fill="rgb(255, 255, 0)" /><polygon points="446,321 315,107 133,1268 1036,1262" fill="rgb(0, 0, 0)" /><rect x="794" y="1335" width="59" height="125" fill="rgb(0, 0, 0)" /><polygon points="287,659 487,234 642,964 631,1346 375,990 482,224" fill="rgb(255, 255, 0)" /><circle cx="645" cy="738" r="29" fill="rgb(0, 0, 0)" /><polygon points="854,1340 863,1153 140,724 958,795 193,509 958,1345" fill="rgb(255, 255, 0)" /><rect x="517" y="1140" width="94" height="166" fill="rgb(255, 255, 0)" /><circle cx="859" cy="554" r="68" fill="rgb(0, 0, 0)" /><rect x="921" y="557" width="191" height="124" fill="rgb(255, 0, 0)" /><rect x="1062" y="695" width="71" height="191" fill="rgb(0, 0, 0)" /><polygon points="126,710 900,709 590,487" fill="rgb(0, 0, 255)" /><polygon points="779,1174 80,874 679,860 873,1023 130,940 164,1448" fill="rgb(255, 255, 0)" /><circle cx="840" cy="1130" r="29" fill="rgb(255, 255, 0)" /><rect x="821" y="1177" width="59" height="168" fill="rgb(0, 0, 0)" /><circle cx="890" cy="1254" r="82" fill="rgb(255, 255, 0)" /><polygon points="436,298 1002,843 166,1375 714,242 715,610 66,706" fill="rgb(0, 0, 255)" /><circle cx="284" cy="813" r="61" fill="rgb(0, 0, 255)" /><polygon points="460,1285 885,1375 734,70 819,455 452,3 828,207" fill="rgb(0, 0, 0)" /><circle cx="683" cy="1127" r="76" fill="rgb(0, 0, 0)" /><polygon points="567,1354 75,1320 27,1291 260,1065" fill="rgb(255, 255, 0)" /><circle cx="480" cy="1212" r="92" fill="rgb(255, 255, 0)" /><rect x="654" y="701" width="94" height="146" fill="rgb(255, 255, 0)" /><polygon points="250,408 597,1155 901,804 468,595" fill="rgb(255, 0, 0)" /><polygon points="553,989 1018,133 251,615 991,1449 69,1455 497,47" fill="rgb(255, 0, 0)" /><polygon points="970,921 1045,1164 910,684 470,261 688,100 152,1323" fill="rgb(255, 0, 0)" /><circle cx="1063" cy="517" r="80" fill="rgb(0, 0, 255)" /><polygon points="111,649 104,1430 711,871 560,260 291,1252" fill="rgb(255, 255, 0)" /><circle cx="882" cy="1281" r="24" fill="rgb(255, 255, 0)" /><polygon points="532,210 412,524 912,348" fill="rgb(255, 0, 0)" /><polygon points="437,1138 223,269 299,1064 864,1152" fill="rgb(255, 255, 0)" /><polygon points="454,988 1033,1026 1085,1351 781,925 484,1429 449,981" fill="rgb(0, 0, 255)" /><rect x="29" y="1454" width="61" height="184" fill="rgb(255, 0, 0)" /><rect x="714" y="672" width="143" height="141" fill="rgb(0, 0, 0)" /><polygon points="311,1456 494,302 757,1390 623,959 526,819 60,874" fill="rgb(255, 255, 0)" /><circle cx="1100" cy="130" r="84" fill="rgb(255, 255, 0)" /><circle cx="1082" cy="1013" r="64" fill="rgb(0, 0, 0)" /><polygon points="720,1147 524,973 338,1250 795,23 764,597" fill="rgb(255, 255, 0)" /><polygon points="298,1146 379,787 834,759 232,1148 851,577" fill="rgb(255, 0, 0)" /><polygon points="284,427 856,1419 357,101 74,1099 109,963" fill="rgb(255, 255, 0)" /><circle cx="851" cy="44" r="95" fill="rgb(0, 0, 0)" /><rect x="211" y="990" width="57" height="139" fill="rgb(255, 0, 0)" /><circle cx="98" cy="450" r="92" fill="rgb(0, 0, 0)" /><circle cx="211" cy="302" r="37" fill="rgb(0, 0, 255)" /><polygon points="361,1013 194,145 875,579 121,525" fill="rgb(0, 0, 0)" /><circle cx="28" cy="321" r="52" fill="rgb(255, 255, 0)" /></svg>