<svg xmlns="http://www.w3.org/2000/svg" width="1101" height="1500"><rect x="331" y="126" width="157" height="105" fill="rgb(0, 0, 0)" /><circle cx="637" cy="774" r="42" fill="rgb(0, 0, 0)" /><circle cx="1077" cy="544" r="93" fill="rgb(0, 0, 255)" /><circle cx="943" cy="772" r="25" fill="rgb(0, 0, 255)" /><polygon points="782,90 508,63 390,539" fill="rgb(0, 0, 0)" /><circle cx="27" cy="1004" r="23" fill="rgb(0, 0, 255)" /><circle cx="909" cy="861" r="59" fill="rgb(0, 0, 0)" /><polygon points="646,915 776,1360 864,243 865,886" fill="rgb(0, 0, 255)" /><circle cx="241" cy="729" r="52" fill="rgb(0, 0, 0)" /><rect x="984" y="423" width="169" height="198" fill="rgb(0, 0, 0)" /><rect x="179" y="377" width="108" height="138" fill="rgb(255, 0, 0)" /><circle cx="745" cy="990" r="76" fill="rgb(0, 0, 255)" /><rect x="479" y="950" width="81" height="100" fill="rgb(255, 0, 0)" /><rect x="898" y="111" width="81" height="152" fill="rgb(255, 255, 0)" /><polygon points="1041,905 1043,1078 1070,1292 594,824" fill="rgb(255, 0, 0)" /><circle cx="955" cy="1319" r="25" fill="rgb(0, 0, 0)" /><polygon points="815,711 939,610 764,1407 216,732" fill="rgb(0, 0, 255)" /><circle cx="972" cy="1207" r="92" fill="rgb(0, 0, 0)" /><circle cx="94" cy="29" r="60" fill="rgb(0, 0, 255)" /><polygon points="647,1251 477,1425 706,534 615,1114" fill="rgb(255, 255, 0)" /><rect x="561" y="324" width="159" height="121" fill="rgb(0, 0, 0)" /><polygon points="976,1128 415,48 509,983 342,890 662,561" fill="rgb(0, 0, 0)" /><polygon points="1028,477 235,87 455,291 340,272" fill="rgb(255, 255, 0)" /><polygon points="322,803 717,1399 535,198 652,1003 248,160" fill="rgb(0, 0, 255)" /><circle cx="280" cy="1474" r="68" fill="rgb(255, 255, 0)" /><polygon points="542,129 335,963 844,588 982,1087" fill="rgb(255, 255, 0)" /><polygon points="263,649 400,100 476,574" fill="rgb(0, 0, 255)" /><circle cx="1091" cy="578" r="23" fill="rgb(255, 0, 0)" /><rect x="748" y="1408" width="101" height="113" fill="rgb(255, 0, 0)" /><circle cx="994" cy="598" r="78" fill="rgb(255, 255, 0)" /><polygon points="369,596 193,1431 538,1295 121,896 575,1162 99,1155" fill="rgb(0, 0, 0)" /><circle cx="247" cy="469" r="70" fill="rgb(0, 0, 0)" /><circle cx="72" cy="625" r="22" fill="rgb(255, 255, 0)" /><circle cx="23" cy="452" r="56" fill="rgb(0, 0, 255)" /><rect x="931" y="100" width="69" height="199" fill="rgb(0, 0, 0)" /><polygon points="395,112 354,833 462,1006 247,1339 197,606" fill="rgb(255, 255, 0)" /><circle cx="1085" cy="146" r="60" fill="rgb(0, 0, 0)" /><rect x="641" y="132" width="197" height="102" fill="rgb(0, 0, 255)" /><polygon points="186,1324 766,363 804,120 324,1237 153,1345" fill="rgb(255, 0, 0)" /><circle cx="393" cy="1441" r="38" fill="rgb(0, 0, 0)" /><rect x="853" y="253" width="81" height="146" fill="rgb(0, 0, 0)" /><polygon points="739,1116 284,592 127,768 355,306" fill="rgb(255, 255, 0)" /><polygon points="480,1271 473,1287 406,980 899,548 448,357" fill="rgb(255, 0, 0)" /><circle cx="765" cy="1257" r="61" fill="rgb(255, 0, 0)" /><circle cx="8" cy="573" r="56" fill="rgb(255, 0, 0)" /><polygon points="492,449 77,867 295,862" fill="rgb(255, 0, 0)" /><polygon points="440,22 737,188 776,144 957,745 393,742 622,222" fill="rgb(0, 0, 0)" /><circle cx="959" cy="104" r="25" fill="rgb(255, 255, 0)" /><rect x="864" y="1292" width="108" height="52" fill="rgb(0, 0, 255)" /><circle cx="859" cy="1367" r="68" fill="rgb(255, 255, 0)" /><rect x="887" y="1263" width="79" height="166" fill="rgb(0, 0, 0)" /><rect x="969" y="1332" width="145" height="93" fill="rgb(0, 0, 0)" /><polygon points="1051,1499 129,973 630,1363 828,1384 7,963 938,30" fill="rgb(0, 0, 255)" /><circle cx="203" cy="1270" r="73" fill="rgb(0, 0, 0)" /><rect x="318" y="659" width="130" height="119" fill="rgb(0, 0, 255)" /><polygon points="593,1419 37,1386 203,204" fill="rgb(0, 0, 255)" /><rect x="268" y="609" width="151" height="120" fill="rgb(255, 0, 0)" /><circle cx="629" cy="1123" r="39" fill="rgb(0, 0, 0)" /><circle cx="781" cy="668" r="86" fill="rgb(255, 0, 0)" /><circle cx="560" cy="208" r="35" fill="rgb(255, 0, 0)" /><circle cx="1055" cy="513" r="75" fill="rgb(255, 255, 0)" /><polygon points="926,1275 684,1188 919,1429 431,1078 397,1436 247,1360" fill="rgb(255, 255, 0)" /><rect x="621" y="1429" width="148" height="61" fill="rgb(255, 0, 0)" /><polygon points="1032,690 640,163 700,1441 765,787 1035,1174 908,1183" fill="rgb(255, 0, 0)" /><polygon points="661,737 952,546 233,48 107,1317 274,507 380,547" fill="rgb(255, 0, 0)" /><rect x="862" y="1277" width="61" height="198" fill="rgb(0, 0, 0)" /><polygon points="107,1380 731,671 611,1451 176,979" fill="rgb(0, 0, 255)" /><rect x="41" y="560" width="76" height="112" fill="rgb(0, 0, 0)" /><polygon points="273,977 971,85 542,1211 883,1342" fill="rgb(255, 0, 0)" /><polygon points="592,1286 259,479 1000,928 174,1114" fill="rgb(0, 0, 255)" /></svg>