<svg xmlns="http://www.w3.org/2000/svg" width="1101" height="1500"><rect x="1093" y="1364" width="158" height="141" fill="rgb(255, 0, 0)" /><polygon points="64,687 599,214 684,280 348,1176 177,386 216,208" fill="rgb(255, 0, 0)" /><polygon points="957,1408 305,460 365,303 895,182 404,149" fill="rgb(0, 0, 255)" /><polygon points="279,1416 359,956 188,729 640,1251 114,848" fill="rgb(0, 0, 255)" /><circle cx="320" cy="1392" r="25" fill="rgb(0, 0, 255)" /><circle cx="607" cy="752" r="69" fill="rgb(0, 0, 0)" /><polygon points="950,1156 409,1402 314,805 1031,962 602,459" fill="rgb(0, 0, 255)" /><polygon points="812,777 308,1003 988,1355 822,896" fill="rgb(0, 0, 0)" /><rect x="420" y="656" width="155" height="199" fill="rgb(0, 0, 255)" /><rect x="1093" y="883" width="101" height="141" fill="rgb(255, 0, 0)" /></svg>