<svg xmlns="http://www.w3.org/2000/svg" width="1101" height="1500"><polygon points="992,1 969,903 651,234" fill="rgb(255, 0, 0)" /><rect x="449" y="899" width="71" height="73" fill="rgb(255, 255, 0)" /><circle cx="780" cy="547" r="26" fill="rgb(0, 0, 255)" /><circle cx="257" cy="1477" r="29" fill="rgb(255, 0, 0)" /><rect x="745" y="1079" width="188" height="60" fill="rgb(0, 0, 0)" /><polygon points="565,878 80,634 810,1373 901,304 522,1232 779,635" fill="rgb(0, 0, 255)" /><circle cx="808" cy="1299" r="62" fill="rgb(0, 0, 0)" /><circle cx="169" cy="1286" r="64" fill="rgb(0, 0, 0)" /><circle cx="1022" cy="1401" r="48" fill="rgb(0, 0, 255)" /><rect x="125" y="101" width="192" height="58" fill="rgb(255, 255, 0)" /><polygon points="118,1227 951,338 797,811" fill="rgb(255, 0, 0)" /><circle cx="300" cy="846" r="69" fill="rgb(0, 0, 255)" /><rect x="945" y="335" width="94" height="148" fill="rgb(0, 0, 255)" /><circle cx="465" cy="788" r="54" fill="rgb(255, 0, 0)" /><circle cx="934" cy="935" r="63" fill="rgb(255, 255, 0)" /><circle cx="672" cy="1083" r="68" fill="rgb(255, 0, 0)" /><polygon points="617,345 123,35 322,994" fill="rgb(255, 255, 0)" /><circle cx="386" cy="1061" r="76" fill="rgb(255, 0, 0)" /><rect x="862" y="399" width="138" height="133" fill="rgb(255, 0, 0)" /><rect x="608" y="1245" width="79" height="119" fill="rgb(0, 0, 0)" /><rect x="131" y="1216" width="69" height="132" fill="rgb(255, 0, 0)" /><rect x="508" y="870" width="184" height="60" fill="rgb(255, 255, 0)" /><polygon points="380,575 1053,1251 889,632 66,742" fill="rgb(0, 0, 0)" /><rect x="706" y="1229" width="113" height="138" fill="rgb(255, 255, 0)" /><circle cx="441" cy="401" r="71" fill="rgb(0, 0, 0)" /><polygon points="880,1068 846,1445 33,291 399,646 670,1210" fill="rgb(255, 255, 0)" /><circle cx="83" cy="5" r="36" fill="rgb(0, 0, 255)" /><rect x="785" y="1046" width="144" height="166" fill="rgb(255, 255, 0)" /><circle cx="405" cy="1388" r="91" fill="rgb(0, 0, 255)" /><polygon points="968,740 922,1283 270,1471 292,231" fill="rgb(0, 0, 255)" /><rect x="228" y="1400" width="106" height="97" fill="rgb(255, 255, 0)" /><rect x="641" y="1302" width="101" height="83" fill="rgb(0, 0, 255)" /><rect x="234" y="955" width="137" height="131" fill="rgb(255, 0, 0)" /><rect x="609" y="948" width="95" height="122" fill="rgb(0, 0, 255)" /><circle cx="649" cy="315" r="73" fill="rgb(255, 0, 0)" /><circle cx="1038" cy="940" r="76" fill="rgb(255, 0, 0)" /><rect x="1057" y="1467" width="165" height="164" fill="rgb(255, 0, 0)" /><polygon points="565,799 356,662 824,1085" fill="rgb(0, 0, 255)" /><circle cx="608" cy="978" r="47" fill="rgb(255, 255, 0)" /><polygon points="22,140 1025,267 524,125 686,893 691,513 606,560" fill="rgb(255, 0, 0)" /><polygon points="738,1309 191,1104 726,432 287,946" fill="rgb(255, 255, 0)" /><polygon points="338,1300 1089,876 655,706 713,468 370,1383" fill="rgb(0, 0, 255)" /><circle cx="747" cy="866" r="32" fill="rgb(255, 0, 0)" /><circle cx="459" cy="687" r="65" fill="rgb(0, 0, 0)" /><polygon points="3,345 794,676 410,15 394,1133" fill="rgb(255, 255, 0)" /><polygon points="67,1098 979,121 187,605 629,357 1040,836" fill="rgb(0, 0, 255)" /><rect x="154" y="1140" width="87" height="93" fill="rgb(0, 0, 255)" /><polygon points="2,27 364,996 946,1185 359,445 1032,1484" fill="rgb(255, 255, 0)" /><rect x="661" y="766" width="139" height="125" fill="rgb(0, 0, 0)" /><circle cx="425" cy="529" r="68" fill="rgb(255, 255, 0)" /><polygon points="218,1181 153,383 233,3 187,741" fill="rgb(0, 0, 0)" /><rect x="922" y="388" width="131" height="102" fill="rgb(255, 255, 0)" /><polygon points="91,175 736,421 525,1131 829,650" fill="rgb(0, 0, 255)" /><circle cx="106" cy="1100" r="22" fill="rgb(0, 0, 0)" /><circle cx="339" cy="1078" r="30" fill="rgb(0, 0, 0)" /><rect x="785" y="528" width="120" height="158" fill="rgb(0, 0, 0)" /><polygon points="599,1049 321,754 578,721" fill="rgb(0, 0, 255)" /><rect x="401" y="1348" width="102" height="72" fill="rgb(0, 0, 255)" /><rect x="152" y="845" width="75" height="120" fill="rgb(255, 255, 0)" /><circle cx="366" cy="914" r="97" fill="rgb(255, 255, 0)" /><polygon points="372,1277 443,737 955,953" fill="rgb(255, 255, 0)" /><rect x="355" y="880" width="54" height="172" fill="rgb(255, 255, 0)" /><polygon points="256,856 1010,387 348,1044 544,193 634,1129 639,867" fill="rgb(0, 0, 0)" /><circle cx="342" cy="550" r="71" fill="rgb(255, 0, 0)" /><rect x="188" y="1409" width="146" height="76" fill="rgb(0, 0, 255)" /><rect x="180" y="1377" width="145" height="175" fill="rgb(255, 0, 0)" /><rect x="1055" y="1144" width="142" height="179" fill="rgb(0, 0, 0)" /><polygon points="942,515 767,576 1089,862" fill="rgb(255, 255, 0)" /><polygon points="449,981 759,511 218,318 537,1166" fill="rgb(255, 0, 0)" /><polygon points="900,1421 624,986 208,1091 399,652" fill="rgb(0, 0, 255)" /><circle cx="833" cy="984" r="93" fill="rgb(255, 255, 0)" /><circle cx="288" cy="1476" r="100" fill="rgb(0, 0, 0)" /><rect x="218" y="738" width="175" height="111" fill="rgb(255, 0, 0)" /><polygon points="589,1144 899,1261 66,370" fill="rgb(255, 255, 0)" /><circle cx="713" cy="1302" r="54" fill="rgb(255, 0, 0)" /><rect x="1017" y="428" width="198" height="50" fill="rgb(0, 0, 0)" /><rect x="549" y="973" width="143" height="195" fill="rgb(255, 0, 0)" /><polygon points="891,60 38,1053 188,590 175,187 647,1458 34,179" fill="rgb(0, 0, 0)" /><polygon points="225,83 208,1463 1050,710" fill="rgb(0, 0, 255)" /><circle cx="657" cy="1028" r="41" fill="rgb(0, 0, 255)" /><polygon points="60,766 948,378 316,820" fill="rgb(255, 255, 0)" /><circle cx="415" cy="748" r="97" fill="rgb(255, 255, 0)" /><polygon points="436,613 604,657 48,1330" fill="rgb(0, 0, 255)" /><circle cx="1011" cy="1184" r="68" fill="rgb(0, 0, 255)" /><circle cx="73" cy="258" r="44" fill="rgb(0, 0, 255)" /><circle cx="695" cy="575" r="78" fill="rgb(255, 255, 0)" /><rect x="452" y="985" width="185" height="63" fill="rgb(255, 0, 0)" /><polygon points="329,1222 1071,1447 808,499 728,743" fill="rgb(255, 255, 0)" /><circle cx="812" cy="196" r="93" fill="rgb(0, 0, 0)" /><rect x="303" y="1341" width="108" height="111" fill="rgb(255, 0, 0)" /><circle cx="915" cy="733" r="86" fill="rgb(255, 0, 0)" /><circle cx="831" cy="897" r="25" fill="rgb(255, 0, 0)" /><polygon points="1004,1128 387,1316 1074,202" fill="rgb(0, 0, 0)" /><circle cx="352" cy="694" r="83" fill="rgb(0, 0, 0)" /><rect x="467" y="996" width="154" height="80" fill="rgb(255, 0, 0)" /><rect x="793" y="625" width="130" height="58" fill="rgb(255, 255, 0)" /><polygon points="846,133 332,180 442,1298" fill="rgb(0, 0, 0)" /><rect x="865" y="802" width="73" height="175" fill="rgb(0, 0, 0)" /><polygon points="582,184 26,1111 467,328" fill="rgb(255, 255, 0)" /><circle cx="983" cy="895" r="76" fill="rgb(255, 0, 0)" /><rect x="84" y="1362" width="116" height="155" fill="rgb(255, 255, 0)" /><circle cx="677" cy="572" r="66" fill="rgb(0, 0, 255)" /><polygon points="147,1164 455,797 233,57 259,77" fill="rgb(0, 0, 0)" /><polygon points="589,895 663,704 411,553 620,416 516,435" fill="rgb(0, 0, 0)" /><polygon points="173,170 1052,313 1034,1030 646,179 379,1335 668,10" fill="rgb(0, 0, 255)" /><rect x="15" y="13" width="130" height="124" fill="rgb(0, 0, 0)" /><polygon points="856,516 498,988 91,677 619,223 906,1149" fill="rgb(0, 0, 255)" /><circle cx="576" cy="1354" r="35" fill="rgb(255, 255, 0)" /><rect x="438" y="921" width="132" height="181" fill="rgb(255, 0, 0)" /><rect x="137" y="4" width="158" height="84" fill="rgb(255, 255, 0)" /><circle cx="55" cy="812" r="21" fill="rgb(255, 255, 0)" /><circle cx="277" cy="892" r="47" fill="rgb(0, 0, 0)" /><rect x="982" y="851" width="106" height="118" fill="rgb(255, 0, 0)" /><polygon points="56,558 145,137 205,1334" fill="rgb(255, 255, 0)" /><circle cx="164" cy="41" r="42" fill="rgb(0, 0, 255)" /><rect x="265" y="548" width="137" height="191" fill="rgb(255, 255, 0)" /><circle cx="639" cy="685" r="70" fill="rgb(0, 0, 0)" /><polygon points="374,1008 320,592 67,1252 820,908 356,135 937,80" fill="rgb(255, 255, 0)" /><circle cx="852" cy="1307" r="79" fill="rgb(255, 0, 0)" /><rect x="456" y="1469" width="71" height="54" fill="rgb(255, 255, 0)" /><rect x="764" y="712" width="82" height="194" fill="rgb(255, 0, 0)" /><polygon points="422,259 622,1036 528,91 622,1340 903,27" fill="rgb(255, 255, 0)" /><circle cx="689" cy="1445" r="77" fill="rgb(255, 255, 0)" /><rect x="239" y="274" width="182" height="160" fill="rgb(255, 255, 0)" /><circle cx="50" cy="428" r="66" fill="rgb(255, 255, 0)" /><circle cx="999" cy="1460" r="100" fill="rgb(0, 0, 0)" /><rect x="838" y="114" width="57" height="171" fill="rgb(255, 255, 0)" /><rect x="185" y="168" width="81" height="91" fill="rgb(255, 255, 0)" /><circle cx="36" cy="1148" r="42" fill="rgb(0, 0, 0)" /><polygon points="1100,946 980,428 896,542 1054,711 852,395 578,858" fill="rgb(0, 0, 255)" /><polygon points="86,951 1069,133 853,1417 400,511" fill="rgb(0, 0, 255)" /><rect x="1021" y="702" width="143" height="61" fill="rgb(0, 0, 255)" /><polygon points="577,1128 190,1279 334,1113 718,1428 324,1497 741,593" fill="rgb(255, 255, 0)" /><rect x="510" y="265" width="176" height="161" fill="rgb(0, 0, 0)" /><circle cx="330" cy="739" r="43" fill="rgb(0, 0, 255)" /><circle cx="226" cy="984" r="99" fill="rgb(0, 0, 255)" /><rect x="212" y="49" width="79" height="97" fill="rgb(0, 0, 0)" /><rect x="137" y="174" width="56" height="113" fill="rgb(255, 255, 0)" /><circle cx="33" cy="667" r="94" fill="rgb(255, 0, 0)" /><rect x="102" y="1199" width="158" height="112" fill="rgb(0, 0, 255)" /><rect x="546" y="1034" width="59" height="55" fill="rgb(0, 0, 255)" /><rect x="969" y="227" width="131" height="75" fill="rgb(255, 0, 0)" /><rect x="28" y="57" width="183" height="165" fill="rgb(255, 255, 0)" /><circle cx="1043" cy="865" r="81" fill="rgb(255, 255, 0)" /><rect x="483" y="854" width="178" height="155" fill="rgb(0, 0, 255)" /><rect x="1073" y="1222" width="129" height="53" fill="rgb(255, 255, 0)" /><rect x="122" y="1103" width="64" height="129" fill="rgb(0, 0, 0)" /><polygon points="577,1435 904,57 109,693 569,841 0,1298" fill="rgb(0, 0, 0)" /></svg>