<svg xmlns="http://www.w3.org/2000/svg" width="1101" height="1500"><polygon points="926,945 883,1085 818,1320" fill="rgb(255, 255, 0)" /><rect x="786" y="1459" width="97" height="115" fill="rgb(0, 0, 255)" /><polygon points="161,1287 322,68 178,600" fill="rgb(0, 0, 255)" /><rect x="275" y="612" width="73" height="138" fill="rgb(255, 255, 0)" /><circle cx="474" cy="1491" r="48" fill="rgb(255, 255, 0)" /><circle cx="933" cy="148" r="31" fill="rgb(255, 255, 0)" /><rect x="508" y="1253" width="67" height="145" fill="rgb(0, 0, 255)" /><rect x="571" y="1458" width="88" height="104" fill="rgb(0, 0, 255)" /><polygon points="896,793 141,299 191,693 595,405 375,544 603,609" fill="rgb(255, 255, 0)" /><polygon points="346,1439 144,513 592,173 395,7" fill="rgb(255, 255, 0)" /><circle cx="588" cy="1453" r="87" fill="rgb(0, 0, 255)" /><rect x="1044" y="1062" width="82" height="115" fill="rgb(0, 0, 0)" /><circle cx="576" cy="705" r="41" fill="rgb(255, 255, 0)" /><rect x="314" y="1163" width="112" height="174" fill="rgb(0, 0, 0)" /><circle cx="1023" cy="1000" r="84" fill="rgb(255, 255, 0)" /><polygon points="342,1255 297,819 313,217" fill="rgb(0, 0, 0)" /><rect x="567" y="334" width="67" height="182" fill="rgb(255, 0, 0)" /><circle cx="5" cy="1008" r="64" fill="rgb(0, 0, 255)" /><polygon points="616,770 1033,640 723,629 1067,75 43,1000" fill="rgb(255, 255, 0)" /><polygon points="1035,958 326,1125 842,692 726,157 651,956 50,242" fill="rgb(0, 0, 0)" /><circle cx="902" cy="1141" r="22" fill="rgb(0, 0, 0)" /><rect x="44" y="542" width="66" height="158" fill="rgb(255, 255, 0)" /><polygon points="781,591 258,1256 1086,11 837,430 99,1369" fill="rgb(0, 0, 0)" /><circle cx="1095" cy="1108" r="86" fill="rgb(0, 0, 0)" /><circle cx="412" cy="1470" r="73" fill="rgb(255, 0, 0)" /><rect x="598" y="1402" width="154" height="181" fill="rgb(0, 0, 0)" /><rect x="613" y="87" width="107" height="67" fill="rgb(0, 0, 0)" /><polygon points="1063,272 665,1240 793,1134" fill="rgb(255, 0, 0)" /><circle cx="640" cy="962" r="65" fill="rgb(255, 0, 0)" /><circle cx="802" cy="1400" r="22" fill="rgb(0, 0, 255)" /><circle cx="1044" cy="675" r="38" fill="rgb(255, 255, 0)" /><circle cx="766" cy="394" r="24" fill="rgb(255, 255, 0)" /><polygon points="81,724 44,160 465,869 824,1194" fill="rgb(0, 0, 255)" /><rect x="330" y="1290" width="110" height="90" fill="rgb(0, 0, 0)" /><rect x="599" y="39" width="110" height="74" fill="rgb(255, 255, 0)" /><circle cx="843" cy="846" r="59" fill="rgb(0, 0, 255)" /><rect x="316" y="1338" width="61" height="169" fill="rgb(0, 0, 255)" /><rect x="985" y="1132" width="78" height="86" fill="rgb(255, 0, 0)" /><polygon points="393,1487 92,649 976,170" fill="rgb(0, 0, 0)" /><rect x="562" y="346" width="83" height="75" fill="rgb(0, 0, 0)" /><polygon points="1066,1048 1045,966 498,350 140,1204 245,284" fill="rgb(255, 255, 0)" /><circle cx="1057" cy="1" r="44" fill="rgb(255, 0, 0)" /><rect x="302" y="1277" width="100" height="105" fill="rgb(0, 0, 0)" /><rect x="135" y="170" width="198" height="74" fill="rgb(255, 0, 0)" /><circle cx="870" cy="78" r="81" fill="rgb(0, 0, 0)" /><rect x="417" y="1258" width="142" height="57" fill="rgb(255, 0, 0)" /><polygon points="40,442 503,210 907,849 59,275 400,117" fill="rgb(255, 255, 0)" /><polygon points="940,1328 1076,1000 513,513 488,7 322,1294 875,664" fill="rgb(255, 0, 0)" /><polygon points="548,751 932,29 508,770 181,1157" fill="rgb(0, 0, 255)" /><circle cx="46" cy="1124" r="87" fill="rgb(0, 0, 0)" /><polygon points="81,66 397,1315 412,1418" fill="rgb(255, 255, 0)" /><rect x="753" y="535" width="142" height="56" fill="rgb(0, 0, 255)" /><rect x="657" y="988" width="165" height="131" fill="rgb(255, 0, 0)" /><polygon points="505,556 994,1047 178,1176 786,183" fill="rgb(0, 0, 255)" /><polygon points="490,756 599,380 84,1355 207,681" fill="rgb(0, 0, 255)" /><circle cx="227" cy="261" r="24" fill="rgb(0, 0, 255)" /><circle cx="539" cy="1308" r="22" fill="rgb(0, 0, 255)" /><polygon points="908,303 139,1002 14,637 466,1296 886,1198" fill="rgb(0, 0, 0)" /><circle cx="798" cy="436" r="51" fill="rgb(0, 0, 0)" /><circle cx="755" cy="191" r="88" fill="rgb(0, 0, 255)" /><circle cx="495" cy="1442" r="43" fill="rgb(255, 0, 0)" /><circle cx="399" cy="552" r="34" fill="rgb(255, 255, 0)" /><circle cx="107" cy="65" r="67" fill="rgb(0, 0, 0)" /><polygon points="1068,1148 106,183 670,469 923,384 706,281 243,1189" fill="rgb(0, 0, 0)" /><circle cx="51" cy="228" r="31" fill="rgb(255, 0, 0)" /><polygon points="124,42 628,1368 590,706 544,608 899,479 621,355" fill="rgb(255, 255, 0)" /><circle cx="979" cy="735" r="57" fill="rgb(255, 0, 0)" /><polygon points="125,453 342,545 314,607 577,396 341,1055 1075,832" fill="rgb(255, 255, 0)" /><circle cx="2" cy="1259" r="37" fill="rgb(0, 0, 255)" /><rect x="1077" y="320" width="116" height="115" fill="rgb(255, 0, 0)" /><polygon points="884,210 744,1208 589,892" fill="rgb(0, 0, 255)" /><rect x="1097" y="183" width="188" height="171" fill="rgb(255, 0, 0)" /><rect x="80" y="785" width="184" height="129" fill="rgb(0, 0, 0)" /><polygon points="384,73 960,645 503,72 889,293 433,1297 156,25" fill="rgb(255, 255, 0)" /><circle cx="957" cy="709" r="33" fill="rgb(255, 0, 0)" /><rect x="979" y="1459" width="200" height="104" fill="rgb(0, 0, 255)" /><polygon points="608,357 57,52 4,666 149,110 501,377 629,86" fill="rgb(0, 0, 255)" /><circle cx="139" cy="25" r="98" fill="rgb(0, 0, 0)" /><circle cx="109" cy="1165" r="59" fill="rgb(255, 0, 0)" /><polygon points="260,514 1073,1330 198,455 117,474 394,461" fill="rgb(0, 0, 0)" /><polygon points="805,652 976,396 597,45 756,1372 16,793 552,590" fill="rgb(255, 0, 0)" /><rect x="567" y="1021" width="101" height="148" fill="rgb(0, 0, 0)" /><rect x="174" y="312" width="125" height="152" fill="rgb(255, 0, 0)" /><rect x="193" y="888" width="128" height="98" fill="rgb(0, 0, 0)" /><polygon points="152,623 631,1409 772,240" fill="rgb(0, 0, 255)" /><circle cx="621" cy="232" r="60" fill="rgb(0, 0, 255)" /><circle cx="610" cy="987" r="70" fill="rgb(0, 0, 255)" /><circle cx="538" cy="849" r="85" fill="rgb(255, 0, 0)" /><circle cx="524" cy="651" r="80" fill="rgb(0, 0, 0)" /><polygon points="660,109 407,505 1018,445 688,1121" fill="rgb(0, 0, 0)" /><circle cx="212" cy="885" r="26" fill="rgb(255, 255, 0)" /><circle cx="1004" cy="972" r="52" fill="rgb(0, 0, 0)" /><circle cx="231" cy="1474" r="74" fill="rgb(255, 255, 0)" /><rect x="709" y="15" width="63" height="62" fill="rgb(0, 0, 255)" /><rect x="915" y="428" width="148" height="186" fill="rgb(0, 0, 255)" /><rect x="58" y="977" width="76" height="162" fill="rgb(255, 0, 0)" /><rect x="891" y="366" width="105" height="61" fill="rgb(255, 255, 0)" /><polygon points="717,949 592,1154 367,59" fill="rgb(0, 0, 0)" /><rect x="818" y="945" width="153" height="110" fill="rgb(0, 0, 255)" /><circle cx="1013" cy="1387" r="74" fill="rgb(255, 255, 0)" /><polygon points="177,1183 374,295 897,739" fill="rgb(255, 255, 0)" /><rect x="600" y="420" width="177" height="160" fill="rgb(0, 0, 0)" /><polygon points="205,1286 313,136 322,155 66,1042 209,1347 21,446" fill="rgb(255, 0, 0)" /><rect x="487" y="1379" width="86" height="177" fill="rgb(0, 0, 255)" /><circle cx="768" cy="1295" r="88" fill="rgb(255, 0, 0)" /><polygon points="555,986 1092,180 249,1454 985,166 674,652" fill="rgb(255, 255, 0)" /><circle cx="864" cy="704" r="48" fill="rgb(0, 0, 0)" /><circle cx="1028" cy="461" r="63" fill="rgb(0, 0, 255)" /><polygon points="9,793 730,1247 1090,1450 1039,355 122,1058 567,188" fill="rgb(255, 0, 0)" /><circle cx="977" cy="973" r="31" fill="rgb(255, 0, 0)" /><polygon points="577,658 909,1482 44,1346 879,968" fill="rgb(0, 0, 0)" /><polygon points="282,1235 260,1406 339,830 864,143 563,182" fill="rgb(255, 255, 0)" /><rect x="309" y="382" width="194" height="108" fill="rgb(255, 0, 0)" /><polygon points="68,1 438,16 458,890 818,796 522,1384 118,497" fill="rgb(255, 0, 0)" /><polygon points="584,1394 962,148 209,717 889,219" fill="rgb(0, 0, 255)" /><polygon points="104,587 421,839 154,557 1043,843" fill="rgb(255, 0, 0)" /><circle cx="1020" cy="865" r="35" fill="rgb(255, 255, 0)" /><circle cx="406" cy="216" r="66" fill="rgb(255, 255, 0)" /><polygon points="104,1244 158,1417 0,1052 760,1369" fill="rgb(0, 0, 255)" /><circle cx="133" cy="517" r="63" fill="rgb(0, 0, 0)" /><rect x="786" y="1162" width="93" height="129" fill="rgb(0, 0, 0)" /><rect x="726" y="1429" width="139" height="135" fill="rgb(0, 0, 0)" /><circle cx="193" cy="201" r="100" fill="rgb(255, 0, 0)" /><polygon points="755,589 203,197 522,1013 452,1252 350,335 898,1252" fill="rgb(255, 0, 0)" /><rect x="527" y="1499" width="79" height="190" fill="rgb(0, 0, 255)" /><polygon points="584,831 527,305 727,879 243,649" fill="rgb(255, 255, 0)" /><rect x="420" y="1408" width="88" height="50" fill="rgb(0, 0, 255)" /><circle cx="759" cy="1132" r="42" fill="rgb(255, 255, 0)" /><polygon points="128,533 593,1354 720,64 498,1055 825,655 297,345" fill="rgb(0, 0, 255)" /><circle cx="1008" cy="869" r="25" fill="rgb(0, 0, 0)" /><rect x="842" y="1397" width="112" height="160" fill="rgb(255, 255, 0)" /><rect x="118" y="363" width="175" height="64" fill="rgb(0, 0, 0)" /><rect x="332" y="11" width="143" height="152" fill="rgb(0, 0, 255)" /><polygon points="109,223 550,1381 477,65 1033,1016" fill="rgb(255, 0, 0)" /><circle cx="190" cy="799" r="80" fill="rgb(0, 0, 255)" /><rect x="139" y="916" width="136" height="125" fill="rgb(255, 255, 0)" /><polygon points="372,603 858,1454 576,1272 513,1245" fill="rgb(0, 0, 255)" /><polygon points="118,602 980,615 30,519" fill="rgb(255, 255, 0)" /><rect x="552" y="1035" width="50" height="191" fill="rgb(0, 0, 255)" /><polygon points="898,1108 1021,807 906,1108 222,1378 5,791" fill="rgb(255, 255, 0)" /><polygon points="799,1353 340,989 29,1461" fill="rgb(255, 0, 0)" /><circle cx="562" cy="1500" r="75" fill="rgb(255, 0, 0)" /><circle cx="902" cy="1381" r="80" fill="rgb(0, 0, 255)" /><circle cx="153" cy="945" r="49" fill="rgb(255, 255, 0)" /><polygon points="1078,579 758,17 921,650" fill="rgb(0, 0, 255)" /><polygon points="936,407 7,130 238,500 497,1283 211,805" fill="rgb(0, 0, 0)" /><circle cx="150" cy="1217" r="43" fill="rgb(255, 0, 0)" /><polygon points="113,1142 176,543 701,202 847,760" fill="rgb(255, 0, 0)" /><polygon points="204,1061 904,1055 505,925 392,1137 389,715" fill="rgb(255, 0, 0)" /><rect x="922" y="139" width="115" height="126" fill="rgb(0, 0, 255)" /><circle cx="885" cy="302" r="88" fill="rgb(255, 255, 0)" /><rect x="249" y="241" width="91" height="180" fill="rgb(0, 0, 0)" /><rect x="457" y="311" width="186" height="160" fill="rgb(255, 0, 0)" /><rect x="725" y="52" width="62" height="72" fill="rgb(255, 255, 0)" /><rect x="459" y="874" width="58" height="52" fill="rgb(0, 0, 0)" /><polygon points="703,618 984,381 605,1182 797,732 556,89" fill="rgb(255, 0, 0)" /><circle cx="136" cy="842" r="88" fill="rgb(255, 255, 0)" /><circle cx="249" cy="1096" r="46" fill="rgb(255, 255, 0)" /><polygon points="662,1142 762,202 148,1406" fill="rgb(0, 0, 255)" /><polygon points="116,1405 898,750 292,79 946,98" fill="rgb(0, 0, 255)" /><circle cx="1041" cy="559" r="100" fill="rgb(0, 0, 0)" /><rect x="148" y="296" width="102" height="98" fill="rgb(255, 0, 0)" /><polygon points="782,404 89,725 463,1125 341,35 911,820" fill="rgb(0, 0, 0)" /><rect x="862" y="38" width="147" height="114" fill="rgb(255, 0, 0)" /><polygon points="11,815 945,126 581,349 157,425" fill="rgb(255, 255, 0)" /><rect x="401" y="527" width="101" height="66" fill="rgb(255, 255, 0)" /><polygon points="967,1016 95,1111 101,806 364,1051" fill="rgb(255, 255, 0)" /><circle cx="94" cy="623" r="21" fill="rgb(0, 0, 0)" /><polygon points="896,861 810,348 328,1215" fill="rgb(0, 0, 0)" /><circle cx="313" cy="712" r="30" fill="rgb(255, 0, 0)" /><rect x="1055" y="659" width="77" height="76" fill="rgb(0, 0, 255)" /><polygon points="834,640 587,1254 1018,493" fill="rgb(255, 0, 0)" /><rect x="423" y="1349" width="113" height="150" fill="rgb(0, 0, 255)" /><rect x="135" y="991" width="95" height="158" fill="rgb(255, 255, 0)" /></svg>