<svg xmlns="http://www.w3.org/2000/svg" width="1101" height="1500"><rect x="315" y="637" width="100" height="191" fill="rgb(0, 0, 255)" /><circle cx="718" cy="133" r="100" fill="rgb(0, 0, 0)" /><rect x="1092" y="36" width="139" height="118" fill="rgb(0, 0, 0)" /><polygon points="967,1054 977,819 170,496 1007,630" fill="rgb(0, 0, 0)" /><polygon points="600,1457 456,923 609,868 488,1455 957,169 145,5" fill="rgb(0, 0, 255)" /><polygon points="1013,499 146,60 191,788 750,524 67,1082 103,1439" fill="rgb(255, 255, 0)" /><circle cx="936" cy="691" r="45" fill="rgb(255, 255, 0)" /><rect x="174" y="1056" width="188" height="150" fill="rgb(0, 0, 255)" /><circle cx="297" cy="665" r="70" fill="rgb(255, 0, 0)" /><polygon points="478,445 557,680 372,46 978,827 66,1448 231,751" fill="rgb(0, 0, 255)" /><rect x="962" y="833" width="188" height="68" fill="rgb(255, 0, 0)" /><rect x="976" y="187" width="147" height="195" fill="rgb(0, 0, 255)" /><rect x="142" y="1327" width="184" height="73" fill="rgb(0, 0, 0)" /><circle cx="888" cy="335" r="68" fill="rgb(0, 0, 0)" /><circle cx="865" cy="318" r="71" fill="rgb(0, 0, 255)" /><circle cx="700" cy="990" r="47" fill="rgb(255, 255, 0)" /><polygon points="427,1443 783,524 1099,668 346,772 857,837" fill="rgb(255, 255, 0)" /><rect x="495" y="891" width="199" height="105" fill="rgb(255, 0, 0)" /><rect x="68" y="402" width="184" height="57" fill="rgb(255, 0, 0)" /><rect x="469" y="152" width="95" height="146" fill="rgb(0, 0, 0)" /><rect x="1005" y="624" width="144" height="86" fill="rgb(0, 0, 255)" /><circle cx="417" cy="16" r="60" fill="rgb(0, 0, 0)" /><rect x="46" y="1091" width="53" height="197" fill="rgb(0, 0, 0)" /><rect x="929" y="1176" width="124" height="61" fill="rgb(0, 0, 0)" /><circle cx="10" cy="1252" r="23" fill="rgb(0, 0, 255)" /><circle cx="971" cy="1193" r="49" fill="rgb(0, 0, 255)" /><circle cx="1078" cy="1022" r="22" fill="rgb(0, 0, 255)" /><circle cx="824" cy="151" r="20" fill="rgb(255, 255, 0)" /><circle cx="1018" cy="613" r="89" fill="rgb(255, 255, 0)" /><circle cx="233" cy="1240" r="49" fill="rgb(255, 0, 0)" /><polygon points="28,1295 674,1160 411,1161 782,461 311,194" fill="rgb(255, 255, 0)" /><rect x="294" y="595" width="183" height="198" fill="rgb(0, 0, 0)" /><polygon points="203,58 934,358 1059,478" fill="rgb(0, 0, 0)" /><circle cx="1052" cy="1197" r="64" fill="rgb(255, 255, 0)" /><polygon points="146,344 841,175 76,172 1025,610" fill="rgb(0, 0, 0)" /><rect x="758" y="1166" width="117" height="109" fill="rgb(255, 255, 0)" /><polygon points="493,200 118,39 594,812" fill="rgb(255, 0, 0)" /><polygon points="329,527 88,611 965,1452 38,1362 226,175" fill="rgb(0, 0, 255)" /></svg>