<svg xmlns="http://www.w3.org/2000/svg" width="1101" height="1500"><rect x="688" y="1327" width="120" height="124" fill="rgb(0, 0, 0)" /><rect x="73" y="1326" width="81" height="184" fill="rgb(255, 255, 0)" /><polygon points="415,468 836,83 781,1329 285,893 262,430" fill="rgb(255, 0, 0)" /><circle cx="146" cy="582" r="67" fill="rgb(255, 0, 0)" /><polygon points="944,358 436,1170 1068,1381" fill="rgb(0, 0, 0)" /><polygon points="385,60 370,88 569,1263 144,163 350,184" fill="rgb(255, 255, 0)" /><rect x="859" y="428" width="198" height="171" fill="rgb(0, 0, 0)" /><circle cx="520" cy="600" r="80" fill="rgb(255, 255, 0)" /><polygon points="316,558 230,1269 238,1000 542,248" fill="rgb(255, 255, 0)" /><circle cx="347" cy="1204" r="27" fill="rgb(255, 255, 0)" /><circle cx="593" cy="1489" r="95" fill="rgb(0, 0, 0)" /><polygon points="728,672 968,68 87,999" fill="rgb(255, 0, 0)" /><polygon points="101,1019 201,1042 725,717 921,609 478,1417 971,417" fill="rgb(0, 0, 0)" /><circle cx="814" cy="905" r="46" fill="rgb(255, 0, 0)" /><polygon points="29,439 991,979 294,995 1006,663 148,763" fill="rgb(0, 0, 0)" /><polygon points="204,1136 536,937 147,278 518,1035 683,487 370,1385" fill="rgb(255, 0, 0)" /><circle cx="294" cy="1341" r="46" fill="rgb(255, 0, 0)" /><polygon points="945,996 746,1171 245,1298" fill="rgb(0, 0, 255)" /><circle cx="164" cy="1495" r="66" fill="rgb(255, 0, 0)" /><polygon points="886,1255 800,1492 1100,432 360,118" fill="rgb(255, 255, 0)" /><circle cx="1002" cy="1141" r="55" fill="rgb(255, 0, 0)" /><circle cx="538" cy="1496" r="67" fill="rgb(0, 0, 255)" /><rect x="479" y="622" width="180" height="173" fill="rgb(0, 0, 0)" /><rect x="266" y="1293" width="142" height="139" fill="rgb(255, 255, 0)" /><rect x="389" y="953" width="191" height="76" fill="rgb(255, 0, 0)" /><circle cx="582" cy="1064" r="76" fill="rgb(255, 255, 0)" /><polygon points="900,727 788,913 1039,720 1002,140 551,18" fill="rgb(0, 0, 0)" /><polygon points="22,649 358,1449 665,335 528,107 704,512" fill="rgb(255, 0, 0)" /><polygon points="830,277 315,470 799,1256 972,913 395,1474 652,513" fill="rgb(0, 0, 0)" /><polygon points="114,708 1086,845 988,943 442,693" fill="rgb(255, 0, 0)" /><rect x="870" y="833" width="177" height="85" fill="rgb(255, 0, 0)" /><circle cx="601" cy="779" r="20" fill="rgb(0, 0, 255)" /><polygon points="895,723 97,108 1002,1224 995,1161" fill="rgb(255, 255, 0)" /><polygon points="687,1059 906,1018 354,1079 939,116 970,1490" fill="rgb(0, 0, 255)" /><circle cx="645" cy="750" r="31" fill="rgb(255, 255, 0)" /><circle cx="606" cy="1325" r="33" fill="rgb(0, 0, 255)" /><polygon points="604,1156 369,1064 1040,623 900,542 295,1042 1005,605" fill="rgb(255, 255, 0)" /><circle cx="374" cy="154" r="86" fill="rgb(0, 0, 0)" /><rect x="446" y="1028" width="148" height="179" fill="rgb(0, 0, 0)" /><circle cx="96" cy="619" r="96" fill="rgb(255, 0, 0)" /><polygon points="1097,683 371,752 737,297 920,1386 532,601" fill="rgb(0, 0, 255)" /><rect x="975" y="128" width="80" height="190" fill="rgb(0, 0, 255)" /><circle cx="135" cy="64" r="84" fill="rgb(255, 0, 0)" /><circle cx="668" cy="378" r="39" fill="rgb(0, 0, 0)" /><polygon points="532,1293 55,1026 676,618 756,1327 155,1429 191,377" fill="rgb(0, 0, 0)" /><circle cx="445" cy="1430" r="53" fill="rgb(255, 255, 0)" /><polygon points="928,153 626,344 309,807 649,586 811,1381 549,781" fill="rgb(0, 0, 255)" /><rect x="1" y="1186" width="173" height="71" fill="rgb(0, 0, 255)" /></svg>