<svg xmlns="http://www.w3.org/2000/svg" width="1101" height="1500"><polygon points="962,500 1093,516 670,27 84,504 209,747" fill="rgb(255, 255, 0)" /><polygon points="420,474 525,426 74,727 164,305" fill="rgb(255, 255, 0)" /><rect x="589" y="190" width="58" height="165" fill="rgb(255, 255, 0)" /><polygon points="4,740 704,173 138,582 706,432 928,1026" fill="rgb(0, 0, 255)" /><polygon points="481,379 544,403 651,214 725,759 126,292 937,536" fill="rgb(0, 0, 0)" /><polygon points="170,322 626,99 333,1039" fill="rgb(0, 0, 0)" /><circle cx="1029" cy="737" r="24" fill="rgb(255, 0, 0)" /><rect x="579" y="734" width="159" height="196" fill="rgb(0, 0, 255)" /><polygon points="1023,531 10,891 377,539 743,354" fill="rgb(255, 0, 0)" /><circle cx="1065" cy="1125" r="77" fill="rgb(0, 0, 0)" /><rect x="1029" y="355" width="117" height="189" fill="rgb(255, 255, 0)" /><rect x="826" y="26" width="79" height="173" fill="rgb(0, 0, 0)" /><rect x="588" y="254" width="107" height="184" fill="rgb(0, 0, 0)" /><circle cx="92" cy="1361" r="52" fill="rgb(255, 255, 0)" /><rect x="958" y="1411" width="142" height="92" fill="rgb(255, 255, 0)" /><polygon points="118,1033 437,1374 84,1424 1012,409 696,849 830,1191" fill="rgb(255, 0, 0)" /><circle cx="194" cy="436" r="41" fill="rgb(255, 255, 0)" /><polygon points="1075,1107 112,624 541,462" fill="rgb(255, 255, 0)" /><polygon points="439,266 746,1094 568,639" fill="rgb(255, 255, 0)" /><polygon points="991,50 187,544 97,1417 658,1161" fill="rgb(255, 0, 0)" /><polygon points="34,458 899,233 733,932 677,15 309,489" fill="rgb(0, 0, 0)" /><circle cx="250" cy="77" r="21" fill="rgb(0, 0, 255)" /><polygon points="588,344 414,852 37,437 84,1223 1082,638 1032,74" fill="rgb(0, 0, 0)" /><rect x="293" y="159" width="173" height="136" fill="rgb(0, 0, 0)" /><rect x="1013" y="963" width="125" height="134" fill="rgb(0, 0, 255)" /><polygon points="694,1302 152,85 383,1122 165,937" fill="rgb(0, 0, 255)" /><circle cx="226" cy="176" r="21" fill="rgb(0, 0, 255)" /><circle cx="372" cy="383" r="23" fill="rgb(255, 0, 0)" /><circle cx="536" cy="1205" r="24" fill="rgb(255, 0, 0)" /><rect x="437" y="944" width="103" height="188" fill="rgb(0, 0, 0)" /><rect x="537" y="788" width="75" height="166" fill="rgb(0, 0, 255)" /><rect x="923" y="1475" width="79" height="85" fill="rgb(255, 255, 0)" /><rect x="106" y="352" width="67" height="118" fill="rgb(0, 0, 0)" /><polygon points="382,534 876,274 224,352 0,1437 740,1117" fill="rgb(0, 0, 0)" /><rect x="138" y="739" width="56" height="112" fill="rgb(0, 0, 255)" /><circle cx="1015" cy="550" r="43" fill="rgb(0, 0, 0)" /><rect x="269" y="857" width="76" height="91" fill="rgb(0, 0, 0)" /><polygon points="921,1141 585,562 424,1411 1098,5 946,43 905,1040" fill="rgb(255, 0, 0)" /><polygon points="546,1043 792,1164 611,1301 332,1465" fill="rgb(0, 0, 255)" /><circle cx="175" cy="1380" r="66" fill="rgb(0, 0, 255)" /><polygon points="997,342 574,1010 630,842 192,628 1049,354 913,1401" fill="rgb(0, 0, 0)" /><polygon points="276,184 161,1233 481,745" fill="rgb(255, 0, 0)" /><rect x="374" y="999" width="185" height="100" fill="rgb(0, 0, 255)" /><polygon points="54,412 787,1354 371,739 142,730 239,620 52,1269" fill="rgb(255, 255, 0)" /><rect x="123" y="1370" width="163" height="171" fill="rgb(255, 0, 0)" /><polygon points="1093,109 677,874 739,388 208,103" fill="rgb(255, 0, 0)" /><rect x="51" y="255" width="195" height="50" fill="rgb(0, 0, 0)" /><polygon points="438,537 711,281 194,230 875,305 1063,1204 331,1195" fill="rgb(255, 0, 0)" /><polygon points="750,717 719,291 813,980 639,246 214,1138" fill="rgb(255, 0, 0)" /><polygon points="118,1293 42,103 910,906 212,1045 53,714" fill="rgb(0, 0, 255)" /><rect x="890" y="1489" width="130" height="75" fill="rgb(0, 0, 255)" /><polygon points="366,1137 36,318 343,558" fill="rgb(255, 0, 0)" /><rect x="958" y="227" width="156" height="194" fill="rgb(255, 0, 0)" /><polygon points="728,683 711,205 166,1072 1001,1191" fill="rgb(0, 0, 0)" /><circle cx="264" cy="963" r="38" fill="rgb(255, 255, 0)" /><rect x="1088" y="1470" width="86" height="83" fill="rgb(255, 255, 0)" /><polygon points="625,968 206,1366 693,1262" fill="rgb(255, 255, 0)" /><circle cx="421" cy="335" r="48" fill="rgb(0, 0, 255)" /><polygon points="118,540 55,1293 49,1263 805,373" fill="rgb(255, 0, 0)" /><rect x="140" y="967" width="75" height="143" fill="rgb(255, 0, 0)" /><polygon points="622,161 645,1198 1044,563 97,1057 563,973" fill="rgb(255, 255, 0)" /><polygon points="569,632 478,530 705,1421" fill="rgb(0, 0, 0)" /><polygon points="50,791 371,121 222,764 459,486 206,813 743,680" fill="rgb(0, 0, 255)" /><circle cx="909" cy="861" r="46" fill="rgb(0, 0, 255)" /><rect x="954" y="934" width="120" height="167" fill="rgb(255, 0, 0)" /><circle cx="962" cy="1037" r="96" fill="rgb(0, 0, 0)" /><rect x="236" y="1275" width="169" height="69" fill="rgb(0, 0, 255)" /><polygon points="203,980 457,1433 618,573 638,882 1072,1062 407,1424" fill="rgb(0, 0, 0)" /><circle cx="559" cy="1153" r="44" fill="rgb(0, 0, 255)" /><polygon points="483,880 867,740 753,577" fill="rgb(0, 0, 255)" /><polygon points="784,487 238,557 808,733 999,787" fill="rgb(0, 0, 255)" /><polygon points="56,679 771,514 334,562" fill="rgb(255, 0, 0)" /><rect x="668" y="412" width="102" height="182" fill="rgb(255, 255, 0)" /><polygon points="909,1464 238,1296 729,1169 1053,414" fill="rgb(0, 0, 0)" /><rect x="967" y="1333" width="152" height="126" fill="rgb(255, 0, 0)" /><circle cx="678" cy="944" r="85" fill="rgb(255, 255, 0)" /><circle cx="702" cy="1430" r="34" fill="rgb(0, 0, 255)" /><polygon points="340,137 482,698 411,844 769,74" fill="rgb(255, 255, 0)" /><polygon points="193,1276 974,1179 1070,994" fill="rgb(255, 255, 0)" /><polygon points="1030,539 670,3 699,532" fill="rgb(255, 255, 0)" /><rect x="154" y="983" width="90" height="66" fill="rgb(255, 0, 0)" /><circle cx="699" cy="1252" r="87" fill="rgb(0, 0, 0)" /><rect x="346" y="1041" width="147" height="193" fill="rgb(255, 255, 0)" /><polygon points="225,789 320,23 327,382 975,749" fill="rgb(255, 0, 0)" /><circle cx="1049" cy="912" r="68" fill="rgb(255, 0, 0)" /><rect x="712" y="973" width="70" height="129" fill="rgb(255, 255, 0)" /><polygon points="768,1433 238,1428 745,521" fill="rgb(255, 255, 0)" /><polygon points="378,1123 1071,114 31,1261" fill="rgb(255, 0, 0)" /></svg>