<svg xmlns="http://www.w3.org/2000/svg" width="1101" height="1500"><rect x="818" y="386" width="182" height="186" fill="rgb(0, 0, 255)" /><polygon points="510,529 957,1312 400,5 1006,538 195,1498" fill="rgb(255, 255, 0)" /><polygon points="555,465 641,816 253,196 1081,389" fill="rgb(255, 255, 0)" /><circle cx="226" cy="34" r="69" fill="rgb(255, 255, 0)" /><rect x="1025" y="1192" width="162" height="181" fill="rgb(255, 0, 0)" /><polygon points="395,1304 189,432 466,837 394,536 763,1142 249,586" fill="rgb(255, 0, 0)" /><rect x="550" y="1365" width="81" height="176" fill="rgb(255, 0, 0)" /><polygon points="236,1360 577,50 137,479" fill="rgb(0, 0, 255)" /><rect x="145" y="458" width="176" height="121" fill="rgb(0, 0, 255)" /><rect x="546" y="35" width="193" height="151" fill="rgb(255, 255, 0)" /><circle cx="915" cy="1022" r="45" fill="rgb(255, 0, 0)" /><polygon points="1095,1006 753,555 355,1204 288,665 279,927" fill="rgb(0, 0, 0)" /><rect x="1015" y="1075" width="140" height="149" fill="rgb(0, 0, 0)" /><rect x="68" y="517" width="158" height="79" fill="rgb(0, 0, 255)" /><polygon points="183,1105 478,625 935,1496" fill="rgb(255, 255, 0)" /><circle cx="313" cy="1282" r="55" fill="rgb(0, 0, 0)" /><circle cx="217" cy="1379" r="85" fill="rgb(255, 255, 0)" /><circle cx="458" cy="854" r="87" fill="rgb(255, 0, 0)" /><circle cx="1024" cy="567" r="35" fill="rgb(255, 0, 0)" /><polygon points="587,886 916,292 44,1004 163,1082 199,719" fill="rgb(0, 0, 0)" /><rect x="47" y="1" width="78" height="57" fill="rgb(255, 0, 0)" /><rect x="284" y="904" width="90" height="198" fill="rgb(255, 0, 0)" /><rect x="736" y="598" width="113" height="61" fill="rgb(255, 0, 0)" /><rect x="478" y="953" width="117" height="158" fill="rgb(255, 255, 0)" /><circle cx="492" cy="125" r="98" fill="rgb(0, 0, 0)" /><polygon points="879,382 920,1335 321,892 643,840 349,466" fill="rgb(255, 0, 0)" /><rect x="282" y="652" width="83" height="158" fill="rgb(0, 0, 255)" /><rect x="871" y="1007" width="161" height="155" fill="rgb(0, 0, 255)" /><rect x="683" y="987" width="198" height="50" fill="rgb(0, 0, 0)" /><polygon points="800,153 608,1298 473,1293 54,29" fill="rgb(255, 0, 0)" /><polygon points="311,407 130,601 325,5 712,647" fill="rgb(255, 0, 0)" /><rect x="731" y="1050" width="114" height="137" fill="rgb(0, 0, 0)" /><polygon points="120,252 455,536 333,1054 538,669" fill="rgb(0, 0, 0)" /><rect x="901" y="1053" width="119" height="191" fill="rgb(255, 0, 0)" /><rect x="557" y="1008" width="157" height="177" fill="rgb(255, 255, 0)" /><polygon points="23,1071 964,76 653,174 380,496 970,1424" fill="rgb(255, 0, 0)" /><polygon points="465,950 761,1027 553,1045 310,1090 197,542 608,567" fill="rgb(0, 0, 0)" /><polygon points="1100,267 945,166 40,946 15,968" fill="rgb(255, 255, 0)" /><rect x="723" y="940" width="93" height="65" fill="rgb(0, 0, 255)" /><rect x="132" y="993" width="177" height="128" fill="rgb(255, 255, 0)" /><polygon points="641,1007 985,1485 299,332 489,1123 647,1018" fill="rgb(0, 0, 255)" /><polygon points="646,621 1017,1237 382,583 846,1209" fill="rgb(0, 0, 0)" /><polygon points="1023,520 631,1133 277,1169 572,1114 961,1071 898,1484" fill="rgb(0, 0, 255)" /><rect x="168" y="1308" width="132" height="150" fill="rgb(255, 255, 0)" /><circle cx="636" cy="1349" r="80" fill="rgb(255, 255, 0)" /><polygon points="671,275 140,1434 736,92 916,419 261,1322 794,1207" fill="rgb(0, 0, 255)" /><polygon points="834,71 541,308 379,235 920,168" fill="rgb(0, 0, 255)" /><polygon points="167,49 280,1389 25,358" fill="rgb(255, 255, 0)" /><circle cx="988" cy="779" r="36" fill="rgb(255, 255, 0)" /><circle cx="804" cy="633" r="100" fill="rgb(0, 0, 0)" /><rect x="365" y="782" width="198" height="156" fill="rgb(0, 0, 0)" /><circle cx="168" cy="523" r="49" fill="rgb(255, 0, 0)" /><polygon points="38,820 426,247 211,265 748,719 74,51 1069,1350" fill="rgb(255, 0, 0)" /><rect x="490" y="572" width="60" height="120" fill="rgb(0, 0, 0)" /><circle cx="1046" cy="226" r="52" fill="rgb(0, 0, 255)" /><rect x="408" y="270" width="200" height="140" fill="rgb(255, 0, 0)" /><circle cx="912" cy="763" r="56" fill="rgb(255, 0, 0)" /><rect x="973" y="516" width="175" height="192" fill="rgb(255, 0, 0)" /><polygon points="74,849 440,242 397,896 831,1450 955,1190" fill="rgb(255, 0, 0)" /><polygon points="893,1447 277,125 666,557 75,350 877,1368" fill="rgb(0, 0, 255)" /><rect x="695" y="535" width="110" height="168" fill="rgb(255, 0, 0)" /><rect x="200" y="1137" width="190" height="83" fill="rgb(255, 255, 0)" /><circle cx="721" cy="362" r="36" fill="rgb(0, 0, 255)" /><polygon points="1000,1264 494,492 665,995 407,1150" fill="rgb(0, 0, 0)" /><circle cx="526" cy="974" r="55" fill="rgb(255, 255, 0)" /><polygon points="76,582 161,1306 274,722 487,1427 582,1384 105,514" fill="rgb(255, 255, 0)" /><circle cx="1046" cy="954" r="65" fill="rgb(0, 0, 0)" /><circle cx="960" cy="815" r="59" fill="rgb(255, 255, 0)" /><rect x="258" y="529" width="111" height="99" fill="rgb(255, 0, 0)" /><polygon points="586,361 682,897 849,1397" fill="rgb(0, 0, 0)" /><circle cx="430" cy="1474" r="28" fill="rgb(0, 0, 255)" /><rect x="535" y="971" width="128" height="91" fill="rgb(0, 0, 0)" /><rect x="180" y="396" width="115" height="104" fill="rgb(0, 0, 255)" /><rect x="671" y="969" width="157" height="70" fill="rgb(255, 255, 0)" /><rect x="588" y="1024" width="118" height="74" fill="rgb(0, 0, 255)" /><circle cx="113" cy="845" r="77" fill="rgb(0, 0, 0)" /><polygon points="405,267 855,1207 7,1166 396,689 1050,648" fill="rgb(0, 0, 255)" /><polygon points="377,951 844,35 376,665" fill="rgb(0, 0, 0)" /><circle cx="670" cy="951" r="62" fill="rgb(255, 255, 0)" /><polygon points="127,275 1036,192 243,1107" fill="rgb(255, 255, 0)" /></svg>