<svg xmlns="http://www.w3.org/2000/svg" width="1101" height="1500"><rect x="338" y="1333" width="153" height="114" fill="rgb(0, 0, 0)" /><polygon points="267,1338 232,870 958,1211 476,1261" fill="rgb(0, 0, 255)" /><circle cx="93" cy="376" r="24" fill="rgb(0, 0, 255)" /><circle cx="814" cy="744" r="22" fill="rgb(255, 0, 0)" /><rect x="316" y="300" width="134" height="157" fill="rgb(255, 0, 0)" /><rect x="464" y="1156" width="137" height="173" fill="rgb(0, 0, 0)" /><rect x="921" y="835" width="63" height="150" fill="rgb(255, 0, 0)" /><rect x="1008" y="1379" width="165" height="111" fill="rgb(255, 255, 0)" /><polygon points="952,1349 955,1248 106,156 814,1433" fill="rgb(255, 0, 0)" /><polygon points="512,86 24,183 854,845" fill="rgb(255, 255, 0)" /><circle cx="1046" cy="963" r="51" fill="rgb(0, 0, 255)" /><polygon points="742,537 836,579 2,1471 844,847 819,251" fill="rgb(0, 0, 0)" /><polygon points="1055,869 1008,485 163,922 983,903" fill="rgb(255, 255, 0)" /><polygon points="1015,1147 1098,533 226,450 669,617 873,1190 175,136" fill="rgb(0, 0, 255)" /><polygon points="26,25 575,1478 98,907 100,1353 560,226 551,1023" fill="rgb(0, 0, 0)" /><polygon points="1014,971 1011,1296 957,1365" fill="rgb(0, 0, 255)" /><circle cx="408" cy="670" r="100" fill="rgb(255, 255, 0)" /><circle cx="126" cy="82" r="67" fill="rgb(255, 255, 0)" /></svg>