<svg xmlns="http://www.w3.org/2000/svg" width="1101" height="1500"><polygon points="762,1203 962,1133 682,1145 779,167 109,1343" fill="rgb(255, 0, 0)" /><circle cx="49" cy="489" r="68" fill="rgb(0, 0, 0)" /><polygon points="1001,1396 1050,669 154,691" fill="rgb(255, 255, 0)" /><rect x="1006" y="724" width="83" height="156" fill="rgb(0, 0, 0)" /><rect x="668" y="1122" width="105" height="138" fill="rgb(0, 0, 0)" /><polygon points="907,863 131,189 991,1305" fill="rgb(0, 0, 255)" /><circle cx="662" cy="1037" r="96" fill="rgb(0, 0, 0)" /><rect x="790" y="370" width="80" height="164" fill="rgb(0, 0, 0)" /><circle cx="596" cy="900" r="72" fill="rgb(0, 0, 0)" /><rect x="264" y="984" width="64" height="67" fill="rgb(255, 0, 0)" /><polygon points="475,93 732,1178 628,1272 744,1415" fill="rgb(0, 0, 255)" /><polygon points="91,1089 795,1293 617,1043" fill="rgb(0, 0, 255)" /><rect x="814" y="1457" width="69" height="153" fill="rgb(255, 255, 0)" /><circle cx="901" cy="1240" r="47" fill="rgb(255, 255, 0)" /><circle cx="772" cy="924" r="99" fill="rgb(0, 0, 0)" /><polygon points="1015,53 420,100 667,783 1041,1346 244,244" fill="rgb(0, 0, 255)" /><circle cx="184" cy="276" r="94" fill="rgb(0, 0, 255)" /><circle cx="472" cy="267" r="100" fill="rgb(255, 255, 0)" /><polygon points="160,1129 807,162 949,591 110,36" fill="rgb(255, 0, 0)" /><circle cx="1096" cy="773" r="79" fill="rgb(255, 0, 0)" /><circle cx="272" cy="476" r="70" fill="rgb(255, 0, 0)" /><polygon points="316,408 595,354 737,1176 0,1187 1047,445 516,1411" fill="rgb(0, 0, 0)" /><circle cx="973" cy="362" r="37" fill="rgb(255, 0, 0)" /><polygon points="750,784 851,1320 35,1049" fill="rgb(0, 0, 255)" /><rect x="266" y="607" width="87" height="88" fill="rgb(255, 0, 0)" /><circle cx="1000" cy="867" r="25" fill="rgb(255, 0, 0)" /><rect x="446" y="1130" width="122" height="89" fill="rgb(0, 0, 0)" /><rect x="396" y="149" width="158" height="200" fill="rgb(255, 0, 0)" /><rect x="659" y="642" width="198" height="153" fill="rgb(0, 0, 255)" /><rect x="134" y="548" width="123" height="129" fill="rgb(255, 255, 0)" /><circle cx="768" cy="479" r="24" fill="rgb(255, 0, 0)" /><polygon points="279,603 212,597 626,1209" fill="rgb(255, 255, 0)" /><circle cx="703" cy="750" r="64" fill="rgb(255, 0, 0)" /><polygon points="888,1496 1000,1001 1012,1465 424,31 961,1058" fill="rgb(0, 0, 255)" /><polygon points="1023,340 394,22 517,1456 404,1114 928,628" fill="rgb(0, 0, 0)" /><rect x="986" y="589" width="116" height="110" fill="rgb(0, 0, 255)" /><circle cx="340" cy="1130" r="87" fill="rgb(255, 0, 0)" /><circle cx="306" cy="1008" r="50" fill="rgb(255, 0, 0)" /><circle cx="1098" cy="223" r="46" fill="rgb(255, 0, 0)" /><polygon points="464,283 1008,58 762,176 405,1449 213,942" fill="rgb(255, 0, 0)" /><rect x="171" y="798" width="186" height="64" fill="rgb(255, 255, 0)" /><polygon points="278,766 728,623 1080,139" fill="rgb(0, 0, 255)" /><rect x="204" y="1499" width="174" height="186" fill="rgb(255, 255, 0)" /><rect x="471" y="1391" width="56" height="69" fill="rgb(255, 255, 0)" /><circle cx="218" cy="356" r="33" fill="rgb(255, 255, 0)" /><circle cx="678" cy="1077" r="36" fill="rgb(0, 0, 255)" /><polygon points="1001,316 769,683 713,1315 274,849 172,1154" fill="rgb(0, 0, 0)" /><circle cx="632" cy="1420" r="51" fill="rgb(255, 255, 0)" /><circle cx="830" cy="1065" r="88" fill="rgb(0, 0, 0)" /><polygon points="650,1007 771,281 891,997 105,1321" fill="rgb(0, 0, 0)" /><polygon points="491,834 1058,919 566,1325" fill="rgb(255, 255, 0)" /><circle cx="250" cy="885" r="36" fill="rgb(0, 0, 255)" /><circle cx="340" cy="235" r="63" fill="rgb(0, 0, 255)" /><polygon points="441,939 1004,1263 438,1374 270,524" fill="rgb(0, 0, 255)" /><rect x="1010" y="1423" width="132" height="130" fill="rgb(255, 255, 0)" /><circle cx="102" cy="1169" r="70" fill="rgb(255, 255, 0)" /><circle cx="213" cy="53" r="52" fill="rgb(0, 0, 0)" /><rect x="658" y="29" width="192" height="103" fill="rgb(255, 255, 0)" /><polygon points="864,783 998,848 688,780 536,992 265,1317 805,273" fill="rgb(255, 0, 0)" /><rect x="106" y="545" width="56" height="197" fill="rgb(0, 0, 255)" /><rect x="973" y="27" width="179" height="153" fill="rgb(0, 0, 255)" /><rect x="977" y="1377" width="119" height="81" fill="rgb(0, 0, 0)" /><circle cx="85" cy="139" r="28" fill="rgb(255, 255, 0)" /><circle cx="422" cy="929" r="69" fill="rgb(255, 255, 0)" /><rect x="874" y="840" width="121" height="84" fill="rgb(0, 0, 255)" /><polygon points="771,831 739,276 24,694" fill="rgb(255, 0, 0)" /></svg>