<svg xmlns="http://www.w3.org/2000/svg" width="1101" height="1500"><circle cx="111" cy="835" r="76" fill="rgb(0, 0, 255)" /><polygon points="674,1163 626,785 974,1478 862,600 890,630" fill="rgb(0, 0, 0)" /><circle cx="530" cy="1225" r="49" fill="rgb(0, 0, 0)" /><rect x="250" y="1431" width="102" height="168" fill="rgb(0, 0, 255)" /><circle cx="141" cy="163" r="61" fill="rgb(255, 0, 0)" /><polygon points="676,1374 30,833 1015,895" fill="rgb(0, 0, 0)" /><polygon points="119,912 654,289 93,863 604,866" fill="rgb(0, 0, 0)" /><rect x="336" y="375" width="88" height="108" fill="rgb(0, 0, 255)" /><circle cx="493" cy="184" r="26" fill="rgb(255, 255, 0)" /><circle cx="38" cy="1345" r="42" fill="rgb(255, 0, 0)" /><circle cx="927" cy="1426" r="42" fill="rgb(0, 0, 255)" /><circle cx="1064" cy="974" r="33" fill="rgb(255, 255, 0)" /><polygon points="990,1346 386,429 963,338 744,1125 278,338" fill="rgb(0, 0, 255)" /><circle cx="875" cy="1378" r="30" fill="rgb(255, 0, 0)" /><circle cx="283" cy="505" r="27" fill="rgb(0, 0, 255)" /><polygon points="416,60 323,1003 990,282 370,850 362,527" fill="rgb(0, 0, 0)" /><rect x="44" y="171" width="169" height="187" fill="rgb(255, 0, 0)" /><polygon points="593,364 1092,902 44,457 54,1331 665,474" fill="rgb(0, 0, 255)" /><circle cx="344" cy="1146" r="65" fill="rgb(255, 0, 0)" /><circle cx="530" cy="1405" r="32" fill="rgb(255, 0, 0)" /><rect x="32" y="1364" width="122" height="73" fill="rgb(255, 255, 0)" /><polygon points="703,664 390,29 1022,724 431,804 196,923" fill="rgb(255, 255, 0)" /><polygon points="462,600 136,691 295,197 807,981 425,83 265,1470" fill="rgb(0, 0, 0)" /><rect x="102" y="1003" width="193" height="79" fill="rgb(0, 0, 255)" /><polygon points="133,1076 997,1387 714,430 113,1245" fill="rgb(255, 255, 0)" /><circle cx="256" cy="201" r="50" fill="rgb(0, 0, 255)" /><rect x="588" y="529" width="51" height="164" fill="rgb(255, 0, 0)" /><polygon points="162,853 905,1218 216,1030 852,87" fill="rgb(255, 255, 0)" /><polygon points="522,948 368,162 1088,1073 1087,375 886,354" fill="rgb(0, 0, 0)" /><rect x="76" y="1011" width="132" height="93" fill="rgb(255, 255, 0)" /><polygon points="362,687 119,1025 404,567 1047,397 904,515 45,292" fill="rgb(255, 0, 0)" /><rect x="272" y="959" width="190" height="115" fill="rgb(0, 0, 255)" /><polygon points="975,1375 755,1077 138,408 917,1485 780,1372" fill="rgb(255, 0, 0)" /><circle cx="626" cy="1439" r="98" fill="rgb(255, 255, 0)" /><rect x="711" y="904" width="94" height="99" fill="rgb(255, 0, 0)" /><polygon points="330,717 700,482 518,325 70,1085 70,264 389,121" fill="rgb(255, 0, 0)" /></svg>