<svg xmlns="http://www.w3.org/2000/svg" width="1101" height="1500"><rect x="446" y="171" width="170" height="103" fill="rgb(255, 255, 0)" /><rect x="471" y="1333" width="81" height="59" fill="rgb(255, 255, 0)" /><circle cx="38" cy="323" r="65" fill="rgb(255, 0, 0)" /><polygon points="1004,624 30,7 80,973" fill="rgb(0, 0, 0)" /><polygon points="724,629 955,1067 578,1104" fill="rgb(255, 255, 0)" /><circle cx="949" cy="1189" r="38" fill="rgb(255, 0, 0)" /><circle cx="291" cy="57" r="44" fill="rgb(0, 0, 255)" /><rect x="879" y="1403" width="107" height="64" fill="rgb(0, 0, 255)" /><rect x="942" y="727" width="94" height="146" fill="rgb(255, 255, 0)" /><polygon points="739,450 726,177 866,655" fill="rgb(255, 0, 0)" /><polygon points="140,792 993,605 595,1307" fill="rgb(0, 0, 0)" /><rect x="198" y="1362" width="125" height="54" fill="rgb(255, 255, 0)" /><polygon points="1021,1376 1080,1446 411,1090 745,537 366,1491" fill="rgb(255, 0, 0)" /><polygon points="798,285 898,611 694,460 251,743 99,1262 511,1302" fill="rgb(255, 255, 0)" /><polygon points="644,955 346,284 100,831" fill="rgb(255, 255, 0)" /><rect x="282" y="67" width="179" height="183" fill="rgb(0, 0, 0)" /><circle cx="67" cy="353" r="95" fill="rgb(0, 0, 255)" /><polygon points="1094,1009 935,44 824,1348 324,639" fill="rgb(0, 0, 0)" /><circle cx="558" cy="1409" r="82" fill="rgb(0, 0, 255)" /><circle cx="816" cy="786" r="32" fill="rgb(255, 0, 0)" /><rect x="1074" y="855" width="76" height="177" fill="rgb(255, 0, 0)" /><rect x="556" y="1029" width="78" height="154" fill="rgb(255, 255, 0)" /><rect x="67" y="1031" width="199" height="167" fill="rgb(255, 255, 0)" /><circle cx="132" cy="667" r="85" fill="rgb(0, 0, 0)" /><polygon points="603,674 867,641 624,1411" fill="rgb(255, 0, 0)" /><rect x="259" y="84" width="120" height="107" fill="rgb(0, 0, 0)" /><circle cx="17" cy="378" r="79" fill="rgb(255, 255, 0)" /><circle cx="850" cy="1218" r="57" fill="rgb(255, 0, 0)" /><polygon points="1068,1003 292,355 475,231 658,990" fill="rgb(255, 255, 0)" /><rect x="614" y="1479" width="80" height="55" fill="rgb(255, 0, 0)" /><polygon points="463,567 783,1041 841,778 577,50 656,1413 307,1059" fill="rgb(255, 0, 0)" /><polygon points="569,469 79,1181 378,564 1075,1202" fill="rgb(255, 255, 0)" /><rect x="1034" y="78" width="154" height="104" fill="rgb(0, 0, 255)" /><rect x="526" y="1358" width="154" height="139" fill="rgb(0, 0, 255)" /><rect x="805" y="621" width="63" height="132" fill="rgb(0, 0, 255)" /><circle cx="280" cy="1092" r="58" fill="rgb(0, 0, 0)" /><rect x="373" y="663" width="141" height="61" fill="rgb(255, 255, 0)" /><circle cx="1050" cy="834" r="98" fill="rgb(255, 255, 0)" /><circle cx="574" cy="1096" r="93" fill="rgb(255, 255, 0)" /><rect x="321" y="1301" width="122" height="195" fill="rgb(255, 0, 0)" /><polygon points="986,1487 1077,1038 873,434 754,1011 389,584" fill="rgb(255, 255, 0)" /><rect x="2" y="1258" width="170" height="187" fill="rgb(0, 0, 0)" /><polygon points="7,581 433,763 882,368 193,179 900,420 175,726" fill="rgb(255, 255, 0)" /><circle cx="378" cy="468" r="41" fill="rgb(0, 0, 255)" /><polygon points="877,238 949,897 299,287" fill="rgb(0, 0, 0)" /><circle cx="845" cy="74" r="61" fill="rgb(0, 0, 0)" /><rect x="290" y="307" width="140" height="100" fill="rgb(255, 255, 0)" /><rect x="532" y="92" width="52" height="187" fill="rgb(0, 0, 0)" /><circle cx="526" cy="1291" r="76" fill="rgb(255, 255, 0)" /><polygon points="952,1109 37,622 247,306" fill="rgb(0, 0, 0)" /><circle cx="602" cy="1265" r="96" fill="rgb(255, 0, 0)" /><circle cx="416" cy="940" r="34" fill="rgb(0, 0, 255)" /><circle cx="253" cy="433" r="20" fill="rgb(255, 255, 0)" /><circle cx="484" cy="299" r="76" fill="rgb(255, 0, 0)" /><circle cx="346" cy="224" r="37" fill="rgb(0, 0, 0)" /><polygon points="893,74 198,629 644,1073 466,801 47,1146" fill="rgb(255, 255, 0)" /><circle cx="473" cy="99" r="87" fill="rgb(0, 0, 255)" /><polygon points="605,1170 937,1185 230,1195 392,421 392,339" fill="rgb(255, 255, 0)" /><rect x="730" y="1343" width="111" height="118" fill="rgb(0, 0, 0)" /><polygon points="433,1243 1063,1239 639,162 704,461 992,802 955,96" fill="rgb(255, 255, 0)" /><circle cx="502" cy="542" r="44" fill="rgb(0, 0, 255)" /><rect x="465" y="1014" width="158" height="63" fill="rgb(0, 0, 0)" /><polygon points="125,823 509,1434 643,1309 168,783 420,222" fill="rgb(255, 255, 0)" /><circle cx="180" cy="387" r="44" fill="rgb(0, 0, 255)" /><circle cx="697" cy="198" r="78" fill="rgb(0, 0, 255)" /><circle cx="988" cy="315" r="30" fill="rgb(255, 0, 0)" /><rect x="104" y="1302" width="107" height="121" fill="rgb(255, 0, 0)" /><circle cx="107" cy="1222" r="94" fill="rgb(0, 0, 255)" /><circle cx="580" cy="458" r="58" fill="rgb(255, 255, 0)" /><polygon points="561,1030 878,335 807,1157 617,430" fill="rgb(0, 0, 0)" /><circle cx="794" cy="914" r="23" fill="rgb(255, 255, 0)" /><circle cx="471" cy="1417" r="27" fill="rgb(0, 0, 0)" /><polygon points="589,1020 670,196 271,1364 7,838" fill="rgb(0, 0, 255)" /><polygon points="594,780 130,1155 117,72" fill="rgb(255, 0, 0)" /><circle cx="1085" cy="687" r="95" fill="rgb(255, 0, 0)" /><polygon points="485,685 292,986 885,468 858,1007 332,652 366,398" fill="rgb(255, 0, 0)" /><polygon points="640,1002 295,954 739,836 828,645" fill="rgb(0, 0, 0)" /><circle cx="62" cy="420" r="38" fill="rgb(255, 0, 0)" /><rect x="843" y="1314" width="125" height="64" fill="rgb(255, 0, 0)" /><polygon points="719,472 351,654 520,359 329,1206 643,105 415,1074" fill="rgb(255, 255, 0)" /><rect x="865" y="148" width="159" height="127" fill="rgb(0, 0, 255)" /><polygon points="94,757 39,1265 635,887 772,700 553,1256 417,760" fill="rgb(0, 0, 255)" /><polygon points="16,874 1014,175 1070,1410 1074,585" fill="rgb(255, 255, 0)" /><circle cx="733" cy="1373" r="27" fill="rgb(255, 0, 0)" /><circle cx="186" cy="550" r="55" fill="rgb(255, 0, 0)" /><polygon points="444,970 883,65 205,557" fill="rgb(0, 0, 255)" /><circle cx="230" cy="818" r="82" fill="rgb(0, 0, 0)" /><polygon points="10,374 1015,1001 1093,326" fill="rgb(0, 0, 0)" /><rect x="281" y="564" width="58" height="169" fill="rgb(0, 0, 0)" /><polygon points="1010,1253 748,978 26,20 924,94 78,1144 611,1477" fill="rgb(255, 0, 0)" /><circle cx="402" cy="268" r="67" fill="rgb(0, 0, 255)" /><polygon points="875,850 1085,42 676,466 458,1254 68,608" fill="rgb(255, 255, 0)" /><rect x="169" y="1368" width="133" height="148" fill="rgb(0, 0, 255)" /><rect x="138" y="989" width="109" height="127" fill="rgb(255, 0, 0)" /><rect x="281" y="1407" width="114" height="140" fill="rgb(0, 0, 0)" /><polygon points="692,1395 266,1028 642,770 857,559 6,219" fill="rgb(255, 255, 0)" /><polygon points="401,631 263,406 440,714 750,1400 466,285" fill="rgb(0, 0, 0)" /><circle cx="1021" cy="320" r="47" fill="rgb(255, 0, 0)" /><circle cx="54" cy="766" r="72" fill="rgb(255, 0, 0)" /><circle cx="1083" cy="1063" r="46" fill="rgb(255, 0, 0)" /><rect x="60" y="526" width="101" height="138" fill="rgb(0, 0, 0)" /><circle cx="117" cy="1279" r="74" fill="rgb(0, 0, 0)" /><circle cx="974" cy="1247" r="82" fill="rgb(255, 255, 0)" /><rect x="834" y="1197" width="161" height="77" fill="rgb(255, 0, 0)" /><circle cx="206" cy="994" r="74" fill="rgb(255, 0, 0)" /><rect x="127" y="854" width="82" height="183" fill="rgb(0, 0, 255)" /><polygon points="61,1355 884,503 543,734 601,327" fill="rgb(255, 255, 0)" /><polygon points="642,1293 305,987 339,819" fill="rgb(255, 255, 0)" /><polygon points="431,1135 721,309 605,278 1096,1036 617,1087" fill="rgb(0, 0, 0)" /><circle cx="797" cy="993" r="69" fill="rgb(255, 255, 0)" /><circle cx="762" cy="1059" r="84" fill="rgb(255, 0, 0)" /><rect x="503" y="845" width="194" height="121" fill="rgb(0, 0, 0)" /><circle cx="117" cy="329" r="76" fill="rgb(0, 0, 0)" /><circle cx="297" cy="836" r="71" fill="rgb(0, 0, 255)" /><polygon points="661,153 903,835 567,755" fill="rgb(255, 255, 0)" /><circle cx="865" cy="276" r="68" fill="rgb(255, 255, 0)" /><polygon points="748,112 977,1005 801,576 579,364" fill="rgb(255, 255, 0)" /><polygon points="938,1184 992,1439 276,277 267,181 530,1281" fill="rgb(255, 255, 0)" /><rect x="452" y="368" width="78" height="163" fill="rgb(0, 0, 0)" /><circle cx="1012" cy="1186" r="59" fill="rgb(0, 0, 0)" /><circle cx="352" cy="319" r="31" fill="rgb(255, 255, 0)" /><circle cx="1064" cy="1483" r="85" fill="rgb(255, 255, 0)" /><polygon points="743,294 831,475 118,422 38,1348 667,1074" fill="rgb(255, 255, 0)" /><polygon points="160,741 356,413 1026,877" fill="rgb(255, 255, 0)" /><rect x="157" y="1180" width="62" height="59" fill="rgb(0, 0, 0)" /><rect x="404" y="870" width="79" height="197" fill="rgb(255, 0, 0)" /><rect x="817" y="710" width="172" height="199" fill="rgb(255, 0, 0)" /><rect x="587" y="694" width="142" height="130" fill="rgb(0, 0, 0)" /><rect x="524" y="717" width="79" height="79" fill="rgb(0, 0, 255)" /><polygon points="406,951 926,1108 961,39 417,1303" fill="rgb(255, 255, 0)" /><polygon points="375,492 531,405 348,1102 224,571" fill="rgb(0, 0, 0)" /><circle cx="147" cy="274" r="39" fill="rgb(255, 255, 0)" /><polygon points="852,255 942,762 373,87 468,1161 461,329 935,559" fill="rgb(255, 255, 0)" /><circle cx="1035" cy="1213" r="89" fill="rgb(255, 0, 0)" /><polygon points="778,100 331,430 1037,40 544,1318" fill="rgb(255, 0, 0)" /><circle cx="805" cy="990" r="65" fill="rgb(0, 0, 0)" /><rect x="244" y="1256" width="140" height="51" fill="rgb(255, 0, 0)" /><circle cx="654" cy="1218" r="22" fill="rgb(255, 255, 0)" /><rect x="928" y="1079" width="159" height="135" fill="rgb(255, 0, 0)" /><circle cx="618" cy="1443" r="94" fill="rgb(255, 255, 0)" /><rect x="823" y="309" width="69" height="98" fill="rgb(255, 0, 0)" /><circle cx="585" cy="344" r="50" fill="rgb(255, 255, 0)" /><rect x="806" y="1431" width="165" height="145" fill="rgb(0, 0, 0)" /><circle cx="1053" cy="1367" r="42" fill="rgb(255, 0, 0)" /><polygon points="762,801 523,999 1052,1180 321,574 417,1436 393,482" fill="rgb(0, 0, 255)" /><rect x="539" y="1355" width="118" height="121" fill="rgb(255, 255, 0)" /><rect x="114" y="1482" width="177" height="123" fill="rgb(0, 0, 255)" /><circle cx="297" cy="525" r="58" fill="rgb(0, 0, 255)" /><circle cx="548" cy="139" r="89" fill="rgb(255, 0, 0)" /><circle cx="637" cy="931" r="55" fill="rgb(0, 0, 0)" /><circle cx="777" cy="866" r="58" fill="rgb(255, 0, 0)" /><rect x="526" y="691" width="71" height="98" fill="rgb(255, 0, 0)" /><polygon points="1100,869 602,1003 1002,381" fill="rgb(0, 0, 255)" /><circle cx="469" cy="175" r="45" fill="rgb(255, 0, 0)" /><circle cx="449" cy="432" r="56" fill="rgb(0, 0, 255)" /><rect x="1000" y="1014" width="88" height="129" fill="rgb(0, 0, 255)" /><polygon points="519,1295 948,427 671,879 183,1360" fill="rgb(0, 0, 255)" /><rect x="921" y="545" width="125" height="179" fill="rgb(0, 0, 255)" /><circle cx="323" cy="665" r="20" fill="rgb(0, 0, 255)" /><polygon points="122,449 81,1096 193,1395 398,870 954,590" fill="rgb(0, 0, 255)" /><polygon points="709,642 621,1026 259,135 625,1452 221,147" fill="rgb(255, 255, 0)" /><polygon points="392,362 477,444 474,23 786,569 780,756" fill="rgb(255, 0, 0)" /><rect x="619" y="870" width="98" height="160" fill="rgb(0, 0, 0)" /><circle cx="589" cy="911" r="73" fill="rgb(0, 0, 0)" /><rect x="878" y="1059" width="170" height="145" fill="rgb(255, 255, 0)" /><rect x="243" y="29" width="83" height="186" fill="rgb(0, 0, 255)" /><rect x="755" y="895" width="90" height="146" fill="rgb(255, 255, 0)" /><rect x="464" y="1277" width="193" height="86" fill="rgb(0, 0, 255)" /><polygon points="387,283 72,621 938,1091 173,94 1056,1345" fill="rgb(0, 0, 255)" /><circle cx="938" cy="403" r="89" fill="rgb(255, 0, 0)" /><rect x="177" y="547" width="103" height="100" fill="rgb(0, 0, 255)" /><polygon points="435,259 356,761 571,1379 681,1141 1100,81 253,1184" fill="rgb(0, 0, 255)" /></svg>