<svg xmlns="http://www.w3.org/2000/svg" width="1101" height="1500"><polygon points="869,956 567,431 761,1473 303,238 505,435 348,1370" fill="rgb(255, 0, 0)" /><polygon points="743,436 870,986 1019,1324 321,79" fill="rgb(255, 0, 0)" /><polygon points="966,1009 366,229 651,464 504,824" fill="rgb(0, 0, 255)" /><circle cx="508" cy="1195" r="22" fill="rgb(0, 0, 0)" /><rect x="242" y="212" width="64" height="91" fill="rgb(0, 0, 0)" /><circle cx="879" cy="828" r="96" fill="rgb(0, 0, 0)" /><rect x="836" y="916" width="179" height="140" fill="rgb(0, 0, 0)" /><circle cx="550" cy="1314" r="34" fill="rgb(0, 0, 255)" /><circle cx="706" cy="404" r="75" fill="rgb(0, 0, 255)" /><polygon points="672,1054 451,23 99,1163 722,421" fill="rgb(0, 0, 255)" /><polygon points="337,1140 788,476 980,300 148,1461 754,1388 469,1363" fill="rgb(0, 0, 0)" /><rect x="647" y="1307" width="83" height="104" fill="rgb(0, 0, 255)" /><rect x="407" y="767" width="126" height="121" fill="rgb(0, 0, 0)" /><circle cx="1020" cy="745" r="69" fill="rgb(0, 0, 255)" /><rect x="809" y="1099" width="70" height="177" fill="rgb(255, 0, 0)" /><circle cx="301" cy="977" r="100" fill="rgb(0, 0, 0)" /><circle cx="185" cy="1376" r="98" fill="rgb(255, 0, 0)" /><polygon points="974,445 689,409 913,206 747,995 722,726 380,1164" fill="rgb(255, 0, 0)" /><rect x="431" y="1393" width="175" height="59" fill="rgb(255, 255, 0)" /><circle cx="228" cy="1432" r="33" fill="rgb(0, 0, 255)" /><circle cx="818" cy="1392" r="23" fill="rgb(0, 0, 0)" /><rect x="411" y="127" width="123" height="172" fill="rgb(255, 255, 0)" /><circle cx="779" cy="888" r="58" fill="rgb(255, 0, 0)" /><circle cx="60" cy="748" r="40" fill="rgb(0, 0, 0)" /><polygon points="263,1190 921,352 917,733 895,699" fill="rgb(0, 0, 255)" /><rect x="171" y="441" width="67" height="156" fill="rgb(0, 0, 255)" /><rect x="736" y="1116" width="128" height="62" fill="rgb(0, 0, 0)" /><circle cx="929" cy="318" r="92" fill="rgb(0, 0, 0)" /><rect x="745" y="805" width="81" height="159" fill="rgb(0, 0, 0)" /><circle cx="83" cy="518" r="45" fill="rgb(255, 255, 0)" /><polygon points="201,1219 584,875 125,645 926,196 1026,1243 56,373" fill="rgb(255, 0, 0)" /><polygon points="645,1066 354,1170 669,815 206,1281 764,1329" fill="rgb(255, 0, 0)" /><circle cx="642" cy="981" r="46" fill="rgb(0, 0, 255)" /><circle cx="782" cy="987" r="95" fill="rgb(0, 0, 255)" /><rect x="316" y="21" width="76" height="97" fill="rgb(255, 255, 0)" /><polygon points="490,721 900,431 831,438 1076,818 60,138" fill="rgb(0, 0, 255)" /><rect x="518" y="487" width="166" height="138" fill="rgb(0, 0, 255)" /><rect x="733" y="1224" width="81" height="70" fill="rgb(0, 0, 0)" /><rect x="773" y="1132" width="131" height="122" fill="rgb(0, 0, 0)" /><circle cx="286" cy="207" r="94" fill="rgb(255, 0, 0)" /><rect x="199" y="488" width="67" height="151" fill="rgb(0, 0, 255)" /><polygon points="816,530 708,811 45,1253" fill="rgb(255, 0, 0)" /><rect x="777" y="62" width="117" height="70" fill="rgb(255, 0, 0)" /><circle cx="705" cy="353" r="40" fill="rgb(0, 0, 0)" /><circle cx="555" cy="1443" r="74" fill="rgb(0, 0, 255)" /><polygon points="955,1436 245,1277 245,732 988,38 841,1298" fill="rgb(0, 0, 255)" /><rect x="24" y="1016" width="154" height="144" fill="rgb(0, 0, 0)" /><polygon points="138,450 731,30 394,162 405,376" fill="rgb(255, 255, 0)" /><polygon points="819,654 1024,449 620,894" fill="rgb(0, 0, 255)" /><rect x="793" y="1405" width="181" height="145" fill="rgb(255, 255, 0)" /><polygon points="842,1091 781,755 770,345 1019,581 1057,172" fill="rgb(0, 0, 255)" /><polygon points="264,995 190,128 452,822 927,1475 641,126 996,807" fill="rgb(0, 0, 255)" /><polygon points="29,728 286,497 142,743 432,1302 204,1106 824,183" fill="rgb(0, 0, 0)" /><circle cx="879" cy="207" r="61" fill="rgb(0, 0, 255)" /><rect x="560" y="603" width="200" height="66" fill="rgb(255, 0, 0)" /><circle cx="475" cy="1280" r="27" fill="rgb(0, 0, 0)" /><circle cx="687" cy="947" r="21" fill="rgb(0, 0, 0)" /><circle cx="516" cy="171" r="99" fill="rgb(0, 0, 0)" /><polygon points="479,176 301,1391 383,1439 780,833" fill="rgb(255, 255, 0)" /><circle cx="536" cy="694" r="45" fill="rgb(0, 0, 0)" /><circle cx="65" cy="1427" r="86" fill="rgb(255, 255, 0)" /><circle cx="191" cy="873" r="35" fill="rgb(0, 0, 255)" /><circle cx="26" cy="1264" r="99" fill="rgb(255, 255, 0)" /><rect x="63" y="583" width="151" height="176" fill="rgb(0, 0, 0)" /><polygon points="572,63 639,950 869,413" fill="rgb(255, 0, 0)" /><rect x="558" y="72" width="153" height="77" fill="rgb(0, 0, 255)" /><rect x="438" y="1420" width="186" height="69" fill="rgb(0, 0, 255)" /><polygon points="107,98 686,45 765,1226" fill="rgb(0, 0, 0)" /><rect x="187" y="305" width="94" height="198" fill="rgb(0, 0, 255)" /><polygon points="810,810 1065,1462 602,546 645,651 231,1235" fill="rgb(255, 255, 0)" /><circle cx="468" cy="965" r="61" fill="rgb(255, 0, 0)" /><circle cx="1093" cy="1472" r="23" fill="rgb(255, 255, 0)" /><rect x="25" y="1179" width="200" height="104" fill="rgb(0, 0, 255)" /><rect x="1041" y="133" width="69" height="188" fill="rgb(255, 255, 0)" /><rect x="211" y="881" width="72" height="70" fill="rgb(255, 0, 0)" /><circle cx="605" cy="758" r="39" fill="rgb(255, 255, 0)" /><circle cx="701" cy="982" r="20" fill="rgb(0, 0, 0)" /><circle cx="676" cy="8" r="26" fill="rgb(0, 0, 0)" /><polygon points="158,914 139,1031 760,460 1013,230 837,1082 1095,1432" fill="rgb(0, 0, 255)" /><circle cx="498" cy="1471" r="30" fill="rgb(255, 0, 0)" /><rect x="1050" y="110" width="145" height="170" fill="rgb(255, 255, 0)" /><polygon points="971,450 708,1361 1029,1071 159,1114 585,1249 196,665" fill="rgb(0, 0, 0)" /><circle cx="547" cy="810" r="39" fill="rgb(255, 255, 0)" /><circle cx="797" cy="254" r="67" fill="rgb(255, 0, 0)" /><rect x="569" y="923" width="122" height="53" fill="rgb(255, 255, 0)" /><rect x="507" y="964" width="106" height="116" fill="rgb(255, 255, 0)" /><rect x="359" y="566" width="187" height="90" fill="rgb(255, 0, 0)" /><polygon points="910,141 586,1394 451,807" fill="rgb(0, 0, 255)" /><circle cx="803" cy="499" r="24" fill="rgb(0, 0, 255)" /><rect x="440" y="736" width="148" height="148" fill="rgb(0, 0, 255)" /><polygon points="508,1112 455,179 787,353 715,1103 912,356 531,552" fill="rgb(0, 0, 0)" /><circle cx="710" cy="1258" r="96" fill="rgb(255, 255, 0)" /><polygon points="972,370 672,1175 292,593 428,1001 500,602" fill="rgb(0, 0, 255)" /><rect x="266" y="700" width="186" height="100" fill="rgb(255, 255, 0)" /><circle cx="645" cy="853" r="45" fill="rgb(0, 0, 255)" /><rect x="330" y="1393" width="157" height="122" fill="rgb(0, 0, 0)" /><circle cx="926" cy="858" r="55" fill="rgb(255, 0, 0)" /><polygon points="253,424 834,848 705,673 848,1163 191,961" fill="rgb(255, 255, 0)" /><circle cx="604" cy="1447" r="81" fill="rgb(255, 255, 0)" /><circle cx="459" cy="778" r="22" fill="rgb(0, 0, 0)" /><polygon points="344,376 74,50 452,227 108,176 1101,220" fill="rgb(255, 255, 0)" /><circle cx="483" cy="591" r="28" fill="rgb(255, 0, 0)" /><circle cx="205" cy="99" r="69" fill="rgb(0, 0, 255)" /><rect x="19" y="633" width="183" height="195" fill="rgb(255, 0, 0)" /><rect x="274" y="427" width="51" height="97" fill="rgb(255, 255, 0)" /><rect x="907" y="784" width="148" height="97" fill="rgb(255, 0, 0)" /></svg>