<svg xmlns="http://www.w3.org/2000/svg" width="1101" height="1500"><circle cx="143" cy="847" r="48" fill="rgb(255, 0, 0)" /><polygon points="721,600 133,699 290,1334 146,831" fill="rgb(255, 0, 0)" /><circle cx="906" cy="1442" r="87" fill="rgb(255, 255, 0)" /><polygon points="196,506 981,784 421,643 435,1308 817,715 732,451" fill="rgb(0, 0, 255)" /><rect x="117" y="1227" width="184" height="54" fill="rgb(0, 0, 255)" /><polygon points="411,246 639,705 793,1312 949,804 735,800 352,1380" fill="rgb(255, 255, 0)" /><circle cx="785" cy="303" r="61" fill="rgb(255, 255, 0)" /><circle cx="354" cy="1234" r="30" fill="rgb(255, 0, 0)" /><circle cx="510" cy="1190" r="58" fill="rgb(255, 255, 0)" /><circle cx="76" cy="1210" r="84" fill="rgb(255, 255, 0)" /><rect x="521" y="832" width="194" height="177" fill="rgb(0, 0, 255)" /><circle cx="27" cy="1423" r="47" fill="rgb(0, 0, 255)" /><polygon points="568,832 788,1258 155,114" fill="rgb(255, 0, 0)" /><rect x="1041" y="1209" width="113" height="174" fill="rgb(255, 0, 0)" /><polygon points="733,899 610,282 133,1004" fill="rgb(0, 0, 255)" /><circle cx="972" cy="1482" r="74" fill="rgb(0, 0, 255)" /><circle cx="705" cy="117" r="67" fill="rgb(0, 0, 0)" /><polygon points="833,1350 821,275 343,1089 192,162 263,796" fill="rgb(0, 0, 0)" /><polygon points="902,1213 726,563 598,1105 583,919" fill="rgb(0, 0, 0)" /><rect x="718" y="574" width="193" height="155" fill="rgb(255, 255, 0)" /><circle cx="46" cy="557" r="57" fill="rgb(0, 0, 0)" /><circle cx="471" cy="1374" r="45" fill="rgb(0, 0, 0)" /><polygon points="33,1276 595,1437 801,639 266,852 401,315 216,250" fill="rgb(0, 0, 0)" /><rect x="770" y="58" width="161" height="60" fill="rgb(0, 0, 255)" /><circle cx="67" cy="483" r="90" fill="rgb(0, 0, 255)" /><rect x="391" y="336" width="144" height="172" fill="rgb(0, 0, 0)" /><polygon points="339,1111 522,169 609,1214" fill="rgb(0, 0, 0)" /><rect x="782" y="46" width="50" height="74" fill="rgb(0, 0, 0)" /><rect x="10" y="385" width="72" height="160" fill="rgb(255, 255, 0)" /><polygon points="155,555 502,1208 730,473 823,235 894,348 237,412" fill="rgb(255, 0, 0)" /><rect x="16" y="23" width="58" height="91" fill="rgb(0, 0, 0)" /><rect x="808" y="785" width="105" height="126" fill="rgb(0, 0, 0)" /><rect x="757" y="526" width="169" height="126" fill="rgb(0, 0, 255)" /><rect x="521" y="685" width="187" height="171" fill="rgb(255, 0, 0)" /><circle cx="480" cy="1177" r="47" fill="rgb(0, 0, 255)" /><circle cx="109" cy="504" r="92" fill="rgb(255, 0, 0)" /><rect x="429" y="27" width="128" height="151" fill="rgb(255, 0, 0)" /><rect x="623" y="1487" width="90" height="178" fill="rgb(255, 255, 0)" /><rect x="1041" y="1489" width="82" height="138" fill="rgb(0, 0, 0)" /><rect x="497" y="884" width="150" height="120" fill="rgb(255, 255, 0)" /><rect x="944" y="585" width="128" height="148" fill="rgb(255, 0, 0)" /><circle cx="55" cy="616" r="24" fill="rgb(0, 0, 0)" /><circle cx="611" cy="821" r="23" fill="rgb(255, 255, 0)" /><circle cx="3" cy="877" r="94" fill="rgb(255, 255, 0)" /><rect x="806" y="737" width="127" height="135" fill="rgb(0, 0, 255)" /><circle cx="1025" cy="1312" r="70" fill="rgb(255, 0, 0)" /><polygon points="556,1163 546,1007 934,566 811,583 28,27 892,63" fill="rgb(0, 0, 0)" /><rect x="1029" y="1361" width="91" height="171" fill="rgb(0, 0, 255)" /><rect x="270" y="826" width="150" height="145" fill="rgb(255, 0, 0)" /><rect x="22" y="630" width="110" height="94" fill="rgb(255, 0, 0)" /><polygon points="870,1024 624,792 567,280" fill="rgb(255, 0, 0)" /><polygon points="4,241 831,1411 173,650 808,37 604,345 337,817" fill="rgb(0, 0, 0)" /><rect x="756" y="1008" width="163" height="164" fill="rgb(255, 0, 0)" /><polygon points="172,904 930,567 952,1412" fill="rgb(0, 0, 0)" /><circle cx="982" cy="323" r="40" fill="rgb(255, 0, 0)" /><circle cx="575" cy="425" r="71" fill="rgb(255, 0, 0)" /><rect x="822" y="407" width="121" height="114" fill="rgb(0, 0, 255)" /><circle cx="404" cy="1001" r="20" fill="rgb(255, 0, 0)" /><rect x="412" y="663" width="103" height="50" fill="rgb(255, 255, 0)" /><polygon points="61,760 585,484 715,1433 218,354 5,617 390,126" fill="rgb(0, 0, 0)" /><polygon points="349,692 170,950 1054,748 545,810 834,512 419,306" fill="rgb(0, 0, 255)" /><polygon points="21,569 412,492 410,1352 666,377" fill="rgb(255, 255, 0)" /><polygon points="578,783 196,1151 802,1378 820,110" fill="rgb(0, 0, 0)" /><rect x="586" y="198" width="150" height="77" fill="rgb(255, 0, 0)" /><polygon points="246,213 828,1302 313,270 273,581" fill="rgb(0, 0, 255)" /><rect x="60" y="53" width="97" height="157" fill="rgb(0, 0, 255)" /><rect x="483" y="783" width="162" height="187" fill="rgb(0, 0, 255)" /><circle cx="476" cy="812" r="57" fill="rgb(255, 255, 0)" /><polygon points="285,248 916,179 1019,975 775,1476 752,157" fill="rgb(255, 0, 0)" /><rect x="229" y="1240" width="90" height="165" fill="rgb(0, 0, 0)" /><circle cx="962" cy="1483" r="38" fill="rgb(0, 0, 255)" /><circle cx="872" cy="130" r="27" fill="rgb(0, 0, 0)" /><circle cx="92" cy="378" r="57" fill="rgb(255, 0, 0)" /><polygon points="885,48 1040,1223 526,1495" fill="rgb(0, 0, 255)" /><rect x="833" y="77" width="109" height="81" fill="rgb(255, 0, 0)" /><polygon points="443,1281 1019,1206 73,591" fill="rgb(0, 0, 255)" /><rect x="861" y="1418" width="72" height="149" fill="rgb(255, 255, 0)" /><rect x="692" y="874" width="61" height="84" fill="rgb(255, 0, 0)" /><circle cx="191" cy="1371" r="49" fill="rgb(0, 0, 255)" /><circle cx="582" cy="849" r="85" fill="rgb(0, 0, 0)" /><circle cx="222" cy="369" r="96" fill="rgb(0, 0, 0)" /><rect x="845" y="965" width="194" height="66" fill="rgb(0, 0, 255)" /><circle cx="780" cy="784" r="98" fill="rgb(255, 255, 0)" /><circle cx="728" cy="1039" r="100" fill="rgb(0, 0, 0)" /><polygon points="984,1024 930,1324 1064,1129 378,884 424,1082 199,232" fill="rgb(0, 0, 255)" /><circle cx="457" cy="783" r="49" fill="rgb(255, 255, 0)" /><rect x="837" y="1162" width="196" height="110" fill="rgb(0, 0, 255)" /><rect x="980" y="1274" width="104" height="102" fill="rgb(0, 0, 0)" /><rect x="612" y="881" width="118" height="80" fill="rgb(0, 0, 0)" /><polygon points="853,620 715,1196 531,855" fill="rgb(0, 0, 255)" /><rect x="323" y="41" width="74" height="97" fill="rgb(255, 0, 0)" /><circle cx="703" cy="426" r="39" fill="rgb(255, 0, 0)" /><rect x="304" y="984" width="82" height="69" fill="rgb(0, 0, 0)" /><polygon points="176,898 46,250 727,490" fill="rgb(255, 0, 0)" /><rect x="832" y="1450" width="51" height="170" fill="rgb(255, 0, 0)" /><circle cx="631" cy="1500" r="68" fill="rgb(255, 255, 0)" /><rect x="126" y="400" width="154" height="99" fill="rgb(0, 0, 0)" /><circle cx="120" cy="1176" r="83" fill="rgb(0, 0, 0)" /><rect x="62" y="1009" width="150" height="68" fill="rgb(255, 255, 0)" /><rect x="167" y="840" width="83" height="199" fill="rgb(255, 255, 0)" /><polygon points="406,60 211,169 715,499" fill="rgb(255, 0, 0)" /><circle cx="1001" cy="438" r="82" fill="rgb(0, 0, 0)" /><circle cx="561" cy="257" r="24" fill="rgb(255, 0, 0)" /><polygon points="934,517 181,241 503,4 510,1159" fill="rgb(255, 0, 0)" /><rect x="820" y="1347" width="98" height="166" fill="rgb(255, 0, 0)" /><circle cx="1098" cy="820" r="89" fill="rgb(0, 0, 0)" /><polygon points="585,868 73,1460 121,1311 1088,436 715,471 129,282" fill="rgb(0, 0, 255)" /><rect x="332" y="882" width="65" height="172" fill="rgb(0, 0, 255)" /><polygon points="869,1486 394,251 408,579 1097,555" fill="rgb(255, 0, 0)" /><polygon points="911,49 740,624 309,1486" fill="rgb(0, 0, 0)" /><polygon points="379,274 785,617 749,836 694,776" fill="rgb(0, 0, 255)" /><rect x="910" y="1012" width="196" height="174" fill="rgb(255, 0, 0)" /><polygon points="555,1249 100,288 409,1119 132,133" fill="rgb(0, 0, 255)" /><rect x="119" y="373" width="93" height="70" fill="rgb(255, 0, 0)" /><circle cx="811" cy="76" r="94" fill="rgb(255, 0, 0)" /><rect x="180" y="1341" width="185" height="95" fill="rgb(255, 0, 0)" /><rect x="968" y="813" width="108" height="179" fill="rgb(255, 255, 0)" /><polygon points="1089,934 283,1266 886,1245 133,1339" fill="rgb(0, 0, 255)" /><circle cx="945" cy="1245" r="41" fill="rgb(255, 255, 0)" /><rect x="643" y="42" width="189" height="80" fill="rgb(0, 0, 255)" /><polygon points="961,352 129,634 173,950" fill="rgb(0, 0, 255)" /><polygon points="655,492 611,1041 373,105 603,904 250,1082 151,1162" fill="rgb(255, 255, 0)" /><circle cx="498" cy="10" r="70" fill="rgb(255, 0, 0)" /><polygon points="107,338 965,796 492,82 975,550 253,1354 71,1291" fill="rgb(255, 0, 0)" /><rect x="438" y="565" width="143" height="150" fill="rgb(0, 0, 255)" /><rect x="321" y="821" width="116" height="178" fill="rgb(0, 0, 255)" /><circle cx="358" cy="427" r="72" fill="rgb(0, 0, 255)" /><polygon points="128,162 613,349 898,1399 1001,677 1094,656 915,45" fill="rgb(0, 0, 255)" /><rect x="675" y="7" width="62" height="159" fill="rgb(255, 0, 0)" /><circle cx="279" cy="202" r="28" fill="rgb(0, 0, 255)" /><circle cx="146" cy="6" r="86" fill="rgb(255, 255, 0)" /><circle cx="113" cy="552" r="60" fill="rgb(255, 255, 0)" /><circle cx="5" cy="1352" r="97" fill="rgb(255, 255, 0)" /><polygon points="1061,83 460,853 82,575" fill="rgb(255, 255, 0)" /><circle cx="950" cy="602" r="33" fill="rgb(0, 0, 0)" /><rect x="1038" y="866" width="123" height="72" fill="rgb(0, 0, 255)" /><rect x="433" y="1480" width="54" height="183" fill="rgb(255, 0, 0)" /><circle cx="195" cy="456" r="48" fill="rgb(0, 0, 0)" /><circle cx="899" cy="1168" r="83" fill="rgb(0, 0, 255)" /><circle cx="886" cy="233" r="72" fill="rgb(0, 0, 0)" /><polygon points="436,872 483,321 488,7 972,1300 117,898" fill="rgb(255, 255, 0)" /><polygon points="73,925 674,497 774,1419 573,655 490,176 286,77" fill="rgb(0, 0, 255)" /><circle cx="618" cy="1475" r="74" fill="rgb(0, 0, 255)" /><polygon points="1066,803 589,1248 815,897 563,126" fill="rgb(255, 0, 0)" /><circle cx="818" cy="1386" r="41" fill="rgb(255, 0, 0)" /><circle cx="407" cy="1091" r="46" fill="rgb(255, 255, 0)" /><polygon points="1061,497 51,212 411,747 6,1175 157,360 485,702" fill="rgb(255, 0, 0)" /><circle cx="275" cy="1437" r="93" fill="rgb(255, 0, 0)" /><circle cx="233" cy="1227" r="60" fill="rgb(255, 255, 0)" /><rect x="614" y="294" width="106" height="189" fill="rgb(0, 0, 0)" /><polygon points="870,1042 803,855 669,230 110,958 473,249" fill="rgb(255, 255, 0)" /><circle cx="804" cy="818" r="74" fill="rgb(0, 0, 0)" /><circle cx="644" cy="1248" r="51" fill="rgb(0, 0, 255)" /><rect x="533" y="792" width="116" height="175" fill="rgb(255, 0, 0)" /><rect x="13" y="958" width="68" height="118" fill="rgb(255, 0, 0)" /><circle cx="1079" cy="1271" r="82" fill="rgb(0, 0, 0)" /><rect x="522" y="392" width="123" height="200" fill="rgb(255, 255, 0)" /><circle cx="44" cy="192" r="88" fill="rgb(0, 0, 255)" /></svg>