<svg xmlns="http://www.w3.org/2000/svg" width="1101" height="1500"><polygon points="123,343 964,1302 642,253 272,880 72,480" fill="rgb(0, 0, 255)" /><polygon points="92,1278 848,523 157,1455 275,450 265,86" fill="rgb(0, 0, 255)" /><circle cx="1004" cy="572" r="48" fill="rgb(0, 0, 255)" /><circle cx="1000" cy="220" r="70" fill="rgb(0, 0, 0)" /><circle cx="212" cy="0" r="30" fill="rgb(0, 0, 0)" /><polygon points="336,1475 476,1291 344,823 24,328" fill="rgb(0, 0, 255)" /><rect x="1080" y="806" width="96" height="79" fill="rgb(0, 0, 0)" /><polygon points="92,684 758,1208 369,387 639,504" fill="rgb(255, 255, 0)" /><rect x="1018" y="146" width="174" height="109" fill="rgb(255, 255, 0)" /><rect x="216" y="4" width="154" height="178" fill="rgb(255, 255, 0)" /><rect x="39" y="777" width="115" height="178" fill="rgb(255, 0, 0)" /><polygon points="934,33 98,1341 58,904 249,207" fill="rgb(255, 255, 0)" /><rect x="817" y="342" width="111" height="156" fill="rgb(255, 0, 0)" /><polygon points="758,505 65,1464 371,143" fill="rgb(0, 0, 0)" /><rect x="674" y="1453" width="73" height="152" fill="rgb(0, 0, 0)" /><rect x="22" y="307" width="171" height="173" fill="rgb(255, 0, 0)" /><polygon points="447,1000 634,1277 639,505 419,590" fill="rgb(0, 0, 255)" /><polygon points="555,840 891,554 24,569 611,1065" fill="rgb(0, 0, 255)" /><rect x="822" y="20" width="152" height="189" fill="rgb(0, 0, 255)" /><rect x="572" y="73" width="105" height="82" fill="rgb(255, 0, 0)" /><polygon points="337,306 9,543 690,534 539,1125 532,1434 735,1495" fill="rgb(0, 0, 0)" /><circle cx="1001" cy="1425" r="93" fill="rgb(255, 0, 0)" /><polygon points="360,1268 586,1421 343,1265" fill="rgb(0, 0, 255)" /><polygon points="260,1129 839,630 605,867" fill="rgb(0, 0, 255)" /><polygon points="649,113 10,418 859,837" fill="rgb(0, 0, 0)" /><circle cx="416" cy="377" r="70" fill="rgb(255, 0, 0)" /><circle cx="858" cy="488" r="64" fill="rgb(0, 0, 255)" /><rect x="995" y="603" width="184" height="160" fill="rgb(255, 255, 0)" /><polygon points="387,620 393,1137 164,589 841,606" fill="rgb(255, 255, 0)" /><rect x="380" y="1346" width="181" height="113" fill="rgb(0, 0, 0)" /><circle cx="681" cy="683" r="28" fill="rgb(0, 0, 255)" /><polygon points="848,11 534,375 545,889" fill="rgb(0, 0, 0)" /><circle cx="354" cy="1089" r="33" fill="rgb(255, 0, 0)" /><circle cx="1058" cy="616" r="27" fill="rgb(255, 255, 0)" /><rect x="219" y="1077" width="89" height="105" fill="rgb(255, 255, 0)" /><rect x="880" y="1280" width="136" height="77" fill="rgb(255, 0, 0)" /><rect x="281" y="609" width="160" height="151" fill="rgb(255, 0, 0)" /><rect x="505" y="218" width="89" height="164" fill="rgb(0, 0, 0)" /><rect x="915" y="1377" width="189" height="74" fill="rgb(255, 0, 0)" /><circle cx="98" cy="9" r="28" fill="rgb(255, 255, 0)" /><rect x="1005" y="1233" width="133" height="135" fill="rgb(255, 255, 0)" /><polygon points="515,905 688,1257 637,1044 16,958 591,492 929,1116" fill="rgb(0, 0, 0)" /><polygon points="137,174 352,1224 576,820" fill="rgb(255, 255, 0)" /><circle cx="1016" cy="64" r="91" fill="rgb(255, 0, 0)" /><circle cx="927" cy="1331" r="96" fill="rgb(255, 0, 0)" /><rect x="1036" y="571" width="148" height="81" fill="rgb(0, 0, 0)" /><polygon points="118,253 433,891 816,1396 889,153 912,1317" fill="rgb(0, 0, 255)" /><circle cx="433" cy="1074" r="89" fill="rgb(255, 0, 0)" /><circle cx="984" cy="583" r="99" fill="rgb(0, 0, 0)" /><rect x="979" y="100" width="166" height="104" fill="rgb(0, 0, 255)" /><rect x="1087" y="436" width="125" height="51" fill="rgb(255, 255, 0)" /><polygon points="248,579 378,18 227,56 0,1162 643,859 856,84" fill="rgb(0, 0, 255)" /><polygon points="105,633 81,1155 580,1119 192,928 165,584 866,1317" fill="rgb(255, 255, 0)" /><polygon points="385,855 540,119 105,451 535,225 475,1433" fill="rgb(0, 0, 0)" /><polygon points="914,754 287,257 969,1352" fill="rgb(0, 0, 255)" /><circle cx="495" cy="1474" r="31" fill="rgb(255, 0, 0)" /><rect x="475" y="1" width="188" height="70" fill="rgb(255, 255, 0)" /><rect x="942" y="819" width="109" height="153" fill="rgb(0, 0, 0)" /><polygon points="194,158 299,873 1078,150 666,569" fill="rgb(255, 0, 0)" /><rect x="895" y="688" width="181" height="198" fill="rgb(0, 0, 255)" /><polygon points="149,1134 708,870 350,1001 662,844" fill="rgb(0, 0, 0)" /><circle cx="318" cy="957" r="23" fill="rgb(255, 0, 0)" /><rect x="726" y="556" width="148" height="81" fill="rgb(0, 0, 0)" /><polygon points="476,484 30,423 617,716 891,1147" fill="rgb(0, 0, 255)" /><polygon points="594,1026 455,186 304,177 596,956 308,1239" fill="rgb(0, 0, 0)" /><circle cx="76" cy="943" r="80" fill="rgb(0, 0, 0)" /><polygon points="635,825 791,656 102,1313 400,1212 120,1220" fill="rgb(0, 0, 0)" /><polygon points="658,304 934,159 1023,912 142,1328 182,308 419,1316" fill="rgb(255, 0, 0)" /><circle cx="167" cy="1463" r="44" fill="rgb(255, 255, 0)" /><polygon points="1012,379 677,132 634,965 1060,34 707,1093 785,565" fill="rgb(0, 0, 255)" /><circle cx="967" cy="749" r="100" fill="rgb(255, 0, 0)" /><circle cx="849" cy="75" r="49" fill="rgb(0, 0, 255)" /><rect x="144" y="431" width="138" height="192" fill="rgb(0, 0, 0)" /><rect x="826" y="1373" width="101" height="64" fill="rgb(255, 255, 0)" /><rect x="1023" y="1466" width="126" height="197" fill="rgb(255, 0, 0)" /><polygon points="943,711 645,1092 95,765 1056,1474 755,363 272,133" fill="rgb(255, 0, 0)" /><rect x="932" y="1038" width="50" height="188" fill="rgb(255, 255, 0)" /><circle cx="980" cy="972" r="63" fill="rgb(0, 0, 0)" /><polygon points="628,1176 755,1443 777,1465 104,877 498,1102 780,28" fill="rgb(0, 0, 255)" /><polygon points="784,238 647,1476 240,411" fill="rgb(255, 0, 0)" /><circle cx="260" cy="481" r="36" fill="rgb(255, 255, 0)" /><rect x="230" y="528" width="78" height="121" fill="rgb(0, 0, 255)" /><polygon points="875,987 228,489 656,1070 389,641 1014,1424" fill="rgb(255, 255, 0)" /><polygon points="755,720 574,350 296,977" fill="rgb(0, 0, 0)" /><rect x="615" y="187" width="162" height="77" fill="rgb(0, 0, 255)" /><circle cx="164" cy="1149" r="66" fill="rgb(0, 0, 255)" /><rect x="621" y="128" width="192" height="107" fill="rgb(0, 0, 255)" /><rect x="72" y="996" width="157" height="51" fill="rgb(0, 0, 0)" /><rect x="759" y="959" width="134" height="84" fill="rgb(0, 0, 0)" /><circle cx="737" cy="585" r="50" fill="rgb(255, 0, 0)" /><polygon points="72,13 537,1364 156,1376" fill="rgb(255, 0, 0)" /><circle cx="134" cy="1106" r="89" fill="rgb(0, 0, 0)" /><rect x="784" y="133" width="105" height="125" fill="rgb(0, 0, 255)" /><rect x="444" y="1292" width="72" height="172" fill="rgb(255, 255, 0)" /><rect x="380" y="897" width="139" height="162" fill="rgb(255, 0, 0)" /><polygon points="575,1246 971,319 1085,1004 766,882 181,668 1041,1261" fill="rgb(255, 0, 0)" /><circle cx="931" cy="625" r="36" fill="rgb(255, 255, 0)" /><rect x="645" y="1431" width="85" height="148" fill="rgb(255, 255, 0)" /><circle cx="361" cy="594" r="84" fill="rgb(255, 255, 0)" /><polygon points="246,191 418,331 185,42 714,75 453,550 366,210" fill="rgb(0, 0, 255)" /><circle cx="294" cy="49" r="64" fill="rgb(0, 0, 0)" /><circle cx="65" cy="1314" r="22" fill="rgb(255, 255, 0)" /><circle cx="373" cy="898" r="64" fill="rgb(0, 0, 255)" /><polygon points="610,1308 287,118 638,1160" fill="rgb(0, 0, 0)" /><rect x="88" y="706" width="180" height="67" fill="rgb(255, 255, 0)" /><polygon points="861,1107 679,179 114,1410 381,66 258,174 498,286" fill="rgb(0, 0, 255)" /><rect x="976" y="820" width="185" height="62" fill="rgb(255, 255, 0)" /><circle cx="732" cy="1053" r="84" fill="rgb(0, 0, 0)" /><rect x="100" y="30" width="62" height="51" fill="rgb(0, 0, 255)" /><rect x="756" y="505" width="90" height="94" fill="rgb(255, 255, 0)" /></svg>